<svg width="21" height="21" viewBox="0 0 21 21" fill="none" xmlns="http://www.w3.org/2000/svg">
<path fill-rule="evenodd" clip-rule="evenodd" d="M2.80932 4.8103C1.83301 5.78661 1.83301 7.35795 1.83301 10.5007C1.83301 13.6433 1.83301 15.2147 2.80932 16.191C3.78563 17.1673 5.35698 17.1673 8.49967 17.1673H11.833C14.9757 17.1673 16.5471 17.1673 17.5234 16.191C18.4997 15.2147 18.4997 13.6433 18.4997 10.5007C18.4997 7.35795 18.4997 5.78661 17.5234 4.8103C16.5471 3.83398 14.9757 3.83398 11.833 3.83398H8.49967C5.35698 3.83398 3.78563 3.83398 2.80932 4.8103ZM15.6465 6.7672C15.8675 7.03238 15.8316 7.42648 15.5665 7.64746L13.7361 9.17279C12.9974 9.78834 12.3987 10.2873 11.8704 10.6271C11.3199 10.9811 10.7839 11.2047 10.1663 11.2047C9.54878 11.2047 9.01274 10.9811 8.46232 10.6271C7.93394 10.2873 7.33527 9.78834 6.59664 9.1728L4.76623 7.64746C4.50105 7.42648 4.46522 7.03238 4.6862 6.7672C4.90718 6.50203 5.30128 6.4662 5.56646 6.68718L7.36554 8.18641C8.143 8.8343 8.68278 9.28266 9.13849 9.57576C9.57963 9.85948 9.87878 9.95471 10.1663 9.95471C10.4539 9.95471 10.7531 9.85948 11.1942 9.57576C11.6499 9.28266 12.1897 8.8343 12.9671 8.18641L14.7662 6.68718C15.0314 6.4662 15.4255 6.50203 15.6465 6.7672Z" fill="white"/>
</svg>
