<svg width="24" height="25" viewBox="0 0 24 25" fill="none" xmlns="http://www.w3.org/2000/svg">
<path d="M12 3.00977C11.0215 3.00977 10.1871 3.63479 9.87787 4.5097C9.73983 4.90024 9.31134 5.10493 8.9208 4.9669C8.53026 4.82886 8.32557 4.40037 8.46361 4.00983C8.97804 2.55435 10.3661 1.50977 12 1.50977C13.634 1.50977 15.022 2.55435 15.5365 4.00983C15.6745 4.40037 15.4698 4.82886 15.0793 4.9669C14.6887 5.10493 14.2602 4.90024 14.1222 4.5097C13.813 3.63479 12.9785 3.00977 12 3.00977Z" fill="#8F93A3"/>
<path d="M2.75 6.25977C2.75 5.84555 3.08579 5.50977 3.5 5.50977H20.5001C20.9143 5.50977 21.2501 5.84555 21.2501 6.25977C21.2501 6.67398 20.9143 7.00977 20.5001 7.00977H3.5C3.08579 7.00977 2.75 6.67398 2.75 6.25977Z" fill="#8F93A3"/>
<path d="M5.91508 8.70987C5.88753 8.29658 5.53015 7.98387 5.11686 8.01142C4.70356 8.03898 4.39085 8.39636 4.41841 8.80965L4.88186 15.7614C4.96735 17.0441 5.03641 18.0803 5.19838 18.8933C5.36678 19.7387 5.6532 20.4447 6.2448 20.9982C6.83639 21.5517 7.55994 21.7905 8.41459 21.9023C9.23663 22.0098 10.2751 22.0098 11.5607 22.0098H12.4395C13.7251 22.0098 14.7635 22.0098 15.5856 21.9023C16.4402 21.7905 17.1638 21.5517 17.7554 20.9982C18.347 20.4447 18.6334 19.7387 18.8018 18.8933C18.9637 18.0803 19.0328 17.0441 19.1183 15.7614L19.5818 8.80965C19.6093 8.39636 19.2966 8.03898 18.8833 8.01142C18.47 7.98387 18.1126 8.29658 18.0851 8.70987L17.6251 15.609C17.5353 16.9568 17.4712 17.8947 17.3307 18.6003C17.1943 19.2847 17.004 19.647 16.7306 19.9028C16.4572 20.1586 16.083 20.3244 15.391 20.4149C14.6776 20.5083 13.7376 20.5098 12.3868 20.5098H11.6134C10.2626 20.5098 9.32255 20.5083 8.60915 20.4149C7.91715 20.3244 7.54299 20.1586 7.26957 19.9028C6.99616 19.647 6.80583 19.2847 6.66948 18.6003C6.52891 17.8947 6.46488 16.9568 6.37503 15.609L5.91508 8.70987Z" fill="#8F93A3"/>
<path d="M9.42546 10.5135C9.83762 10.4723 10.2051 10.773 10.2464 11.1851L10.7464 16.1851C10.7876 16.5973 10.4869 16.9648 10.0747 17.006C9.66256 17.0473 9.29502 16.7466 9.25381 16.3344L8.75381 11.3344C8.71259 10.9222 9.0133 10.5547 9.42546 10.5135Z" fill="#8F93A3"/>
<path d="M15.2464 11.3344C15.2876 10.9222 14.9869 10.5547 14.5747 10.5135C14.1626 10.4723 13.795 10.773 13.7538 11.1851L13.2538 16.1851C13.2126 16.5973 13.5133 16.9648 13.9255 17.006C14.3376 17.0473 14.7051 16.7466 14.7464 16.3344L15.2464 11.3344Z" fill="#8F93A3"/>
</svg>
