<svg width="24" height="25" viewBox="0 0 24 25" fill="none" xmlns="http://www.w3.org/2000/svg">
<path fill-rule="evenodd" clip-rule="evenodd" d="M14.0992 2.65086C15.6207 1.1294 18.0875 1.1294 19.6089 2.65086C21.1304 4.17231 21.1304 6.63908 19.6089 8.16054L12.0149 15.7546C11.5869 16.1826 11.3255 16.444 11.0342 16.6712C10.691 16.9389 10.3196 17.1685 9.92667 17.3557C9.59315 17.5147 9.24244 17.6316 8.66818 17.8229L5.99553 18.7138L5.35386 18.9277C4.77951 19.1192 4.14629 18.9697 3.7182 18.5416C3.2901 18.1135 3.14062 17.4803 3.33207 16.9059L4.43683 13.5916C4.62822 13.0173 4.7451 12.6666 4.90405 12.3331C5.09132 11.9402 5.32084 11.5688 5.58856 11.2256C5.81578 10.9342 6.07719 10.6729 6.50525 10.2449L14.0992 2.65086ZM5.96092 17.1442L5.11556 16.2989L5.84398 14.1136C6.05606 13.4773 6.14366 13.2187 6.25814 12.9784C6.39854 12.6839 6.57061 12.4054 6.77132 12.1481C6.93497 11.9383 7.12718 11.7442 7.60141 11.27L13.4924 5.37904C13.7355 5.98903 14.147 6.72525 14.8408 7.41904C15.5345 8.11282 16.2708 8.52424 16.8807 8.7674L10.9898 14.6584C10.5155 15.1326 10.3215 15.3248 10.1117 15.4885C9.85436 15.6892 9.57594 15.8612 9.28134 16.0016C9.04113 16.1161 8.78244 16.2037 8.14619 16.4158L5.96092 17.1442ZM18.076 7.57217C17.9521 7.54499 17.7973 7.50408 17.6213 7.44301C17.1373 7.27509 16.5006 6.95755 15.9014 6.35838C15.3022 5.7592 14.9847 5.12252 14.8168 4.6385C14.7557 4.46247 14.7148 4.30764 14.6876 4.18381L15.1599 3.71152C16.0956 2.77585 17.6126 2.77585 18.5483 3.71152C19.4839 4.64719 19.4839 6.16421 18.5483 7.09988L18.076 7.57217ZM3.25002 22.2598C3.25002 21.8456 3.58581 21.5098 4.00002 21.5098H20V23.0098H4.00002C3.58581 23.0098 3.25002 22.674 3.25002 22.2598Z" fill="#8F93A3"/>
</svg>
