<svg width="24" height="25" viewBox="0 0 24 25" fill="none" xmlns="http://www.w3.org/2000/svg">
<path d="M9.96097 7.34031C11.0165 5.44677 11.5443 4.5 12.3333 4.5C13.1224 4.5 13.6502 5.44677 14.7057 7.34031L14.9788 7.83019C15.2787 8.36828 15.4287 8.63732 15.6625 8.81484C15.8964 8.99236 16.1876 9.05825 16.7701 9.19004L17.3004 9.31002C19.3501 9.7738 20.375 10.0057 20.6188 10.7898C20.8626 11.5739 20.164 12.3909 18.7666 14.0249L18.4051 14.4477C18.008 14.912 17.8094 15.1442 17.7201 15.4314C17.6308 15.7187 17.6608 16.0284 17.7208 16.648L17.7755 17.212C17.9868 19.3922 18.0924 20.4823 17.454 20.9668C16.8157 21.4514 15.8561 21.0096 13.9369 20.126L13.4404 19.8974C12.8951 19.6463 12.6224 19.5207 12.3333 19.5207C12.0443 19.5207 11.7716 19.6463 11.2262 19.8974L10.7297 20.126C8.81056 21.0096 7.85098 21.4514 7.21262 20.9668C6.57427 20.4823 6.6799 19.3922 6.89116 17.212L6.94582 16.648C7.00585 16.0284 7.03587 15.7187 6.94655 15.4314C6.85723 15.1442 6.65869 14.912 6.2616 14.4477L5.90008 14.0249C4.50271 12.3909 3.80402 11.5739 4.04785 10.7898C4.29168 10.0057 5.31655 9.7738 7.36628 9.31002L7.89657 9.19004C8.47904 9.05825 8.77028 8.99236 9.00412 8.81484C9.23796 8.63732 9.38794 8.36828 9.68789 7.8302L9.96097 7.34031Z" fill="#ED9D03"/>
</svg>
