<svg width="21" height="21" viewBox="0 0 21 21" fill="none" xmlns="http://www.w3.org/2000/svg">
<path d="M8.12747 5.00633C9.18301 3.11279 9.71079 2.16602 10.4998 2.16602C11.2889 2.16602 11.8167 3.11279 12.8722 5.00633L13.1453 5.49621C13.4452 6.03429 13.5952 6.30334 13.8291 6.48085C14.0629 6.65837 14.3541 6.72427 14.9366 6.85606L15.4669 6.97604C17.5166 7.43981 18.5415 7.6717 18.7853 8.45579C19.0292 9.23989 18.3305 10.0569 16.9331 11.691L16.5716 12.1137C16.1745 12.578 15.9759 12.8102 15.8866 13.0974C15.7973 13.3847 15.8273 13.6944 15.8874 14.314L15.942 14.878C16.1533 17.0582 16.2589 18.1483 15.6205 18.6329C14.9822 19.1175 14.0226 18.6756 12.1034 17.792L11.6069 17.5634C11.0616 17.3123 10.7889 17.1867 10.4998 17.1867C10.2108 17.1867 9.93811 17.3123 9.39274 17.5634L8.89623 17.792C6.97707 18.6756 6.01748 19.1175 5.37913 18.6329C4.74077 18.1483 4.8464 17.0582 5.05767 14.878L5.11232 14.314C5.17236 13.6944 5.20238 13.3847 5.11306 13.0974C5.02374 12.8102 4.82519 12.578 4.4281 12.1137L4.06659 11.691C2.66921 10.0569 1.97052 9.23989 2.21435 8.45579C2.45819 7.6717 3.48305 7.43981 5.53278 6.97604L6.06308 6.85606C6.64555 6.72427 6.93678 6.65837 7.17062 6.48085C7.40447 6.30334 7.55444 6.0343 7.85439 5.49621L8.12747 5.00633Z" fill="#5E6272"/>
</svg>
