<svg width="24" height="25" viewBox="0 0 24 25" fill="none" xmlns="http://www.w3.org/2000/svg">
<path d="M13.6495 19.4432L13.4404 19.8974L13.6495 19.4432C13.622 19.4305 13.5949 19.418 13.568 19.4056C13.1035 19.1911 12.7345 19.0207 12.3333 19.0207C11.9322 19.0207 11.5631 19.1911 11.0987 19.4056C11.0718 19.418 11.0446 19.4305 11.0171 19.4432L10.5206 19.6718C9.54508 20.121 8.86698 20.4316 8.35315 20.5788C7.84574 20.7242 7.64445 20.6669 7.51495 20.5686C7.37728 20.4641 7.25777 20.2638 7.23279 19.703C7.20777 19.1414 7.28164 18.3664 7.38883 17.2602L7.44349 16.6962C7.44632 16.667 7.44913 16.6382 7.45192 16.6097C7.50416 16.075 7.54389 15.6685 7.424 15.283C7.30349 14.8954 7.04017 14.588 6.69713 14.1876C6.67884 14.1662 6.66033 14.1446 6.6416 14.1227L6.28008 13.7C5.57066 12.8704 5.07632 12.2903 4.78165 11.8223C4.49038 11.3596 4.4686 11.1206 4.5253 10.9382C4.5803 10.7614 4.72406 10.5877 5.21317 10.395C5.71171 10.1985 6.43477 10.0334 7.47662 9.7977L8.00691 9.67771C8.03556 9.67123 8.06387 9.66486 8.09185 9.65856C8.59078 9.5462 8.98441 9.45755 9.30644 9.21309C9.62554 8.97085 9.82451 8.61312 10.081 8.15199C10.0954 8.1262 10.1099 8.10008 10.1246 8.07365L10.3977 7.58376C10.9336 6.62238 11.3091 5.95152 11.6441 5.51408C11.9788 5.07696 12.1786 5 12.3333 5C12.4881 5 12.6879 5.07696 13.0226 5.51408C13.3576 5.95152 13.7331 6.62238 14.269 7.58376L14.5421 8.07365C14.5568 8.10008 14.5713 8.1262 14.5857 8.15199C14.8422 8.61313 15.0411 8.97085 15.3602 9.21309C15.6823 9.45755 16.0759 9.5462 16.5748 9.65855C16.6028 9.66486 16.6311 9.67123 16.6598 9.67771L17.19 9.7977C18.2319 10.0334 18.955 10.1985 19.4535 10.395C19.9426 10.5877 20.0864 10.7614 20.1414 10.9382C20.1981 11.1206 20.1763 11.3596 19.885 11.8223C19.5903 12.2903 19.096 12.8704 18.3866 13.7L18.0251 14.1227C18.0063 14.1446 17.9878 14.1662 17.9696 14.1876C17.6265 14.588 17.3632 14.8954 17.2427 15.283C17.1228 15.6685 17.1625 16.075 17.2148 16.6097C17.2175 16.6382 17.2203 16.667 17.2232 16.6962L17.2778 17.2602C17.385 18.3664 17.4589 19.1414 17.4339 19.703C17.4089 20.2638 17.2894 20.4641 17.1517 20.5686C17.0222 20.6669 16.8209 20.7242 16.3135 20.5788C15.7997 20.4316 15.1216 20.121 14.1461 19.6718L13.6495 19.4432Z" stroke="#5E6272"/>
</svg>
