<svg width="21" height="21" viewBox="0 0 21 21" fill="none" xmlns="http://www.w3.org/2000/svg">
<g clip-path="url(#clip0_1630_48129)">
<path fill-rule="evenodd" clip-rule="evenodd" d="M10.1665 8.97656C12.0995 8.97656 13.6665 7.40956 13.6665 5.47656C13.6665 3.54357 12.0995 1.97656 10.1665 1.97656C8.23355 1.97656 6.66655 3.54357 6.66655 5.47656C6.66655 7.40956 8.23355 8.97656 10.1665 8.97656ZM10.1661 18.5246C13.4798 18.5246 16.1661 16.6358 16.1661 14.3059C16.1661 11.976 13.4798 10.0872 10.1661 10.0872C6.85234 10.0872 4.16605 11.976 4.16605 14.3059C4.16605 16.6358 6.85234 18.5246 10.1661 18.5246ZM2.6665 14.3015C2.6665 15.4755 3.04592 16.4796 3.61384 17.2979C1.68381 17.1387 0.166504 15.8737 0.166504 14.3369C0.166504 12.8143 1.6576 11.5586 3.56228 11.3806C3.02308 12.1848 2.6665 13.1633 2.6665 14.3015ZM16.7192 17.2979C18.6492 17.1387 20.1665 15.8737 20.1665 14.3369C20.1665 12.8143 18.6754 11.5586 16.7707 11.3806C17.3099 12.1848 17.6665 13.1633 17.6665 14.3015C17.6665 15.4755 17.2871 16.4796 16.7192 17.2979ZM5.28824 2.97699C5.4657 2.97699 5.63895 2.9944 5.80625 3.02756C5.39869 3.75145 5.16619 4.58707 5.16619 5.47699C5.16619 6.34525 5.3875 7.16181 5.77679 7.87335C5.61864 7.90282 5.45531 7.91826 5.28824 7.91826C3.87383 7.91826 2.72722 6.81212 2.72722 5.44762C2.72722 4.08313 3.87383 2.97699 5.28824 2.97699ZM14.5557 7.87335C14.945 7.16181 15.1663 6.34525 15.1663 5.47699C15.1663 4.58707 14.9338 3.75145 14.5262 3.02756C14.6935 2.9944 14.8668 2.97699 15.0442 2.97699C16.4586 2.97699 17.6052 4.08313 17.6052 5.44762C17.6052 6.81212 16.4586 7.91826 15.0442 7.91826C14.8771 7.91826 14.7138 7.90282 14.5557 7.87335Z" fill="#5E6272"/>
</g>
<defs>
<clipPath id="clip0_1630_48129">
<rect width="20" height="20" fill="white" transform="translate(0.166504 0.5)"/>
</clipPath>
</defs>
</svg>
