<svg width="24" height="25" viewBox="0 0 24 25" fill="none" xmlns="http://www.w3.org/2000/svg">
<path d="M15 13.6387C15.4142 13.6387 15.75 13.3029 15.75 12.8887C15.75 12.4745 15.4142 12.1387 15 12.1387H9C8.58579 12.1387 8.25 12.4745 8.25 12.8887C8.25 13.3029 8.58579 13.6387 9 13.6387H15Z" fill="#8F93A3"/>
<path fill-rule="evenodd" clip-rule="evenodd" d="M12 2.13867C6.06294 2.13867 1.25 6.95161 1.25 12.8887C1.25 18.8257 6.06294 23.6387 12 23.6387C17.9371 23.6387 22.75 18.8257 22.75 12.8887C22.75 6.95161 17.9371 2.13867 12 2.13867ZM2.75 12.8887C2.75 7.78004 6.89137 3.63867 12 3.63867C17.1086 3.63867 21.25 7.78004 21.25 12.8887C21.25 17.9973 17.1086 22.1387 12 22.1387C6.89137 22.1387 2.75 17.9973 2.75 12.8887Z" fill="#8F93A3"/>
</svg>
