<svg width="21" height="21" viewBox="0 0 21 21" fill="none" xmlns="http://www.w3.org/2000/svg">
<path d="M3.33301 5.93586C3.33301 5.60712 3.60527 5.34062 3.94111 5.34062H7.93124C7.93665 4.6396 8.01263 3.67855 8.70832 3.01325C9.25581 2.48967 10.0064 2.16602 10.833 2.16602C11.6596 2.16602 12.4102 2.48967 12.9577 3.01325C13.6534 3.67855 13.7293 4.6396 13.7348 5.34062H17.7249C18.0607 5.34062 18.333 5.60712 18.333 5.93586C18.333 6.2646 18.0607 6.5311 17.7249 6.5311H3.94111C3.60527 6.5311 3.33301 6.2646 3.33301 5.93586Z" fill="#5E6272"/>
<path fill-rule="evenodd" clip-rule="evenodd" d="M10.496 18.8327H11.17C13.4889 18.8327 14.6484 18.8327 15.4023 18.0944C16.1561 17.3561 16.2333 16.1451 16.3875 13.7231L16.6098 10.2332C16.6935 8.91902 16.7353 8.26194 16.3571 7.84556C15.9789 7.42917 15.3403 7.42917 14.063 7.42917H7.60304C6.32573 7.42917 5.68707 7.42917 5.30888 7.84556C4.93069 8.26194 4.97254 8.91902 5.05624 10.2332L5.2785 13.7231C5.43275 16.1451 5.50988 17.3561 6.26375 18.0944C7.01762 18.8327 8.17708 18.8327 10.496 18.8327ZM9.37157 10.6564C9.33722 10.2949 9.03095 10.0311 8.68748 10.0672C8.34402 10.1034 8.09343 10.4258 8.12778 10.7873L8.54444 15.1733C8.57879 15.5348 8.88507 15.7986 9.22853 15.7625C9.57199 15.7263 9.82259 15.4039 9.78824 15.0424L9.37157 10.6564ZM12.9785 10.0672C13.322 10.1034 13.5726 10.4258 13.5382 10.7873L13.1216 15.1733C13.0872 15.5348 12.7809 15.7986 12.4375 15.7625C12.094 15.7263 11.8434 15.4039 11.8778 15.0424L12.2944 10.6564C12.3288 10.2949 12.6351 10.0311 12.9785 10.0672Z" fill="#5E6272"/>
</svg>
