<svg width="24" height="24" viewBox="0 0 24 24" fill="none" xmlns="http://www.w3.org/2000/svg">
<path fill-rule="evenodd" clip-rule="evenodd" d="M2 5C2 3.34315 3.34315 2 5 2H7C7.55228 2 8 2.44772 8 3C8 3.55228 7.55228 4 7 4H5C4.44772 4 4 4.44772 4 5V7C4 7.55228 3.55228 8 3 8C2.44772 8 2 7.55228 2 7V5Z" fill="#AEB5E3"/>
<path fill-rule="evenodd" clip-rule="evenodd" d="M2 19C2 20.6569 3.34315 22 5 22H7C7.55228 22 8 21.5523 8 21C8 20.4477 7.55228 20 7 20H5C4.44772 20 4 19.5523 4 19V17C4 16.4477 3.55228 16 3 16C2.44772 16 2 16.4477 2 17V19Z" fill="#AEB5E3"/>
<path fill-rule="evenodd" clip-rule="evenodd" d="M22 19C22 20.6569 20.6569 22 19 22H17C16.4477 22 16 21.5523 16 21C16 20.4477 16.4477 20 17 20H19C19.5523 20 20 19.5523 20 19V17C20 16.4477 20.4477 16 21 16C21.5523 16 22 16.4477 22 17V19Z" fill="#AEB5E3"/>
<circle cx="12" cy="12" r="5" fill="#5B678E"/>
<circle cx="19" cy="5" r="3" fill="#5B678E"/>
</svg>
