<svg width="20" height="20" viewBox="0 0 20 20" fill="none" xmlns="http://www.w3.org/2000/svg">
<path d="M7.60169 5.81915C7.34484 5.81915 7.13184 5.60614 7.13184 5.34929V3.46986C7.13184 3.213 7.34484 3 7.60169 3C7.85855 3 8.07155 3.213 8.07155 3.46986V5.34929C8.07155 5.60614 7.85855 5.81915 7.60169 5.81915Z" fill="#5E6272"/>
<path d="M12.3004 5.81915C12.0436 5.81915 11.8306 5.60614 11.8306 5.34929V3.46986C11.8306 3.213 12.0436 3 12.3004 3C12.5573 3 12.7703 3.213 12.7703 3.46986V5.34929C12.7703 5.60614 12.5573 5.81915 12.3004 5.81915Z" fill="#5E6272"/>
<path d="M9.95104 11.044C10.2768 11.044 10.5149 10.8497 10.5149 10.5428C10.5149 10.2295 10.2768 10.0479 9.95104 10.0479C9.62527 10.0479 9.38721 10.2295 9.38721 10.5428C9.38721 10.8497 9.62527 11.044 9.95104 11.044Z" fill="#5E6272"/>
<path d="M9.95198 12.8674C10.3464 12.8674 10.6662 12.6065 10.6662 12.2848C10.6662 11.963 10.3464 11.7021 9.95198 11.7021C9.55754 11.7021 9.23779 11.963 9.23779 12.2848C9.23779 12.6065 9.55754 12.8674 9.95198 12.8674Z" fill="#5E6272"/>
<path d="M14.694 5.03663C14.2805 4.72966 13.6853 5.0241 13.6853 5.54408V5.60673C13.6853 6.33971 13.1591 7.0163 12.4261 7.09148C11.5804 7.17919 10.8662 6.51512 10.8662 5.68817V5.03663C10.8662 4.69207 10.5843 4.41016 10.2397 4.41016H9.66335C9.31879 4.41016 9.03688 4.69207 9.03688 5.03663V5.68817C9.03688 6.18309 8.78002 6.62162 8.39161 6.86595C8.33522 6.90354 8.27257 6.93486 8.20993 6.96618C8.15354 6.99751 8.0909 7.02257 8.02198 7.04136C7.94681 7.06642 7.86536 7.08521 7.77766 7.09148C7.67742 7.10401 7.57718 7.10401 7.47695 7.09148C7.38924 7.08521 7.3078 7.06642 7.23262 7.04136C7.16997 7.02257 7.10733 6.99751 7.04468 6.96618C6.98203 6.93486 6.91938 6.90354 6.863 6.86595C6.46832 6.5903 6.21773 6.11417 6.21773 5.60673V5.54408C6.21773 5.06169 5.70402 4.77351 5.29681 4.98025C5.29054 4.98652 5.28428 4.98652 5.27801 4.99278C5.25295 5.00531 5.23416 5.01784 5.2091 5.03663C5.19031 5.05543 5.16525 5.06796 5.14645 5.08675C4.97104 5.22458 4.81442 5.3812 4.68286 5.55034C4.61395 5.62552 4.55756 5.70696 4.50745 5.78841C4.50118 5.79467 4.49492 5.80094 4.48865 5.81346C4.43227 5.89491 4.38215 5.98888 4.3383 6.07659C4.32577 6.08912 4.3195 6.09538 4.3195 6.10791C4.28191 6.18309 4.24433 6.25826 4.21927 6.33971C4.20047 6.37103 4.19421 6.39609 4.18168 6.42741C4.14409 6.52138 4.11903 6.61536 4.09397 6.70933C4.06891 6.79703 4.05012 6.89101 4.03759 6.98498C4.02506 7.05389 4.01879 7.1228 4.01253 7.19798C4.00626 7.28569 4 7.37339 4 7.4611V12.949C4 14.6343 5.36572 16 7.05094 16H12.8521C14.5373 16 15.9031 14.6343 15.9031 12.949V7.4611C15.9031 6.465 15.4269 5.5942 14.694 5.03663ZM9.95153 13.6507C8.98049 13.6507 8.38534 13.1683 8.38534 12.3915C8.38534 11.9655 8.60461 11.5958 8.98676 11.3766C8.71111 11.1824 8.52943 10.8942 8.52943 10.4995C8.52943 9.68509 9.18097 9.26535 9.95153 9.26535C10.7221 9.26535 11.3674 9.68509 11.3674 10.4995C11.3674 10.8942 11.192 11.1824 10.91 11.3766C11.2985 11.5958 11.5177 11.9655 11.5177 12.3915C11.5177 13.1683 10.9163 13.6507 9.95153 13.6507Z" fill="#5E6272"/>
</svg>
