<svg width="20" height="20" viewBox="0 0 20 20" fill="none" xmlns="http://www.w3.org/2000/svg">
<path d="M10.1311 9.37381C10.0705 9.36776 9.99783 9.36776 9.9312 9.37381C8.48956 9.32535 7.34473 8.14418 7.34473 6.69042C7.34473 5.20638 8.54407 4.00098 10.0342 4.00098C11.5182 4.00098 12.7236 5.20638 12.7236 6.69042C12.7176 8.14418 11.5727 9.32535 10.1311 9.37381Z" fill="#5E6272"/>
<path d="M7.10038 11.6087C5.63451 12.59 5.63451 14.1891 7.10038 15.1644C8.76614 16.2789 11.498 16.2789 13.1637 15.1644C14.6296 14.1831 14.6296 12.5839 13.1637 11.6087C11.504 10.5002 8.7722 10.5002 7.10038 11.6087Z" fill="#5E6272"/>
</svg>
