<svg width="16" height="16" viewBox="0 0 16 16" fill="none" xmlns="http://www.w3.org/2000/svg">
<path d="M8.00016 1.33301C4.32683 1.33301 1.3335 4.32634 1.3335 7.99967C1.3335 11.673 4.32683 14.6663 8.00016 14.6663C11.6735 14.6663 14.6668 11.673 14.6668 7.99967C14.6668 4.32634 11.6735 1.33301 8.00016 1.33301ZM10.9002 10.3797C10.8068 10.5397 10.6402 10.6263 10.4668 10.6263C10.3802 10.6263 10.2935 10.6063 10.2135 10.553L8.14683 9.31967C7.6335 9.01301 7.2535 8.33967 7.2535 7.74634V5.01301C7.2535 4.73967 7.48016 4.51301 7.7535 4.51301C8.02683 4.51301 8.2535 4.73967 8.2535 5.01301V7.74634C8.2535 7.98634 8.4535 8.33967 8.66016 8.45967L10.7268 9.69301C10.9668 9.83301 11.0468 10.1397 10.9002 10.3797Z" fill="#5E6272"/>
</svg>
