<svg width="45" height="44" viewBox="0 0 45 44" fill="none" xmlns="http://www.w3.org/2000/svg">
<g clip-path="url(#clip0_1927_26385)">
<path d="M27.0576 32H17.0576C14.0576 32 12.0576 30.5 12.0576 27V22C12.0576 18.5 14.0576 17 17.0576 17H27.0576C30.0576 17 32.0576 18.5 32.0576 22V27C32.0576 30.5 30.0576 32 27.0576 32Z" stroke="#8F93A3" stroke-width="1.5" stroke-miterlimit="10" stroke-linecap="round" stroke-linejoin="round"/>
<path d="M16.0576 14.5H28.0576" stroke="#8F93A3" stroke-width="1.5" stroke-miterlimit="10" stroke-linecap="round" stroke-linejoin="round"/>
<path d="M19.0576 12H25.0576" stroke="#8F93A3" stroke-width="1.5" stroke-miterlimit="10" stroke-linecap="round" stroke-linejoin="round"/>
<path d="M18.9471 29.1101C19.7038 29.1101 20.3171 28.4967 20.3171 27.7401C20.3171 26.9835 19.7038 26.3701 18.9471 26.3701C18.1905 26.3701 17.5771 26.9835 17.5771 27.7401C17.5771 28.4967 18.1905 29.1101 18.9471 29.1101Z" stroke="#8F93A3" stroke-width="1.5" stroke-linecap="round" stroke-linejoin="round"/>
<path d="M25.3374 26.83V21.4799C25.3374 20.3399 24.6274 20.18 23.8974 20.38L21.1573 21.13C20.6573 21.27 20.3174 21.6599 20.3174 22.2299V23.18V23.82V27.74" stroke="#8F93A3" stroke-width="1.5" stroke-linecap="round" stroke-linejoin="round"/>
<path d="M23.9667 28.2C24.7233 28.2 25.3367 27.5866 25.3367 26.83C25.3367 26.0733 24.7233 25.46 23.9667 25.46C23.21 25.46 22.5967 26.0733 22.5967 26.83C22.5967 27.5866 23.21 28.2 23.9667 28.2Z" stroke="#8F93A3" stroke-width="1.5" stroke-linecap="round" stroke-linejoin="round"/>
<path d="M20.3174 23.83L25.3374 22.46" stroke="#8F93A3" stroke-width="1.5" stroke-linecap="round" stroke-linejoin="round"/>
</g>
<defs>
<clipPath id="clip0_1927_26385">
<rect width="44" height="44" fill="white" transform="translate(0.0576172)"/>
</clipPath>
</defs>
</svg>
