<svg width="24" height="24" viewBox="0 0 24 24" fill="none" xmlns="http://www.w3.org/2000/svg">
<path d="M22 11.9885V8.99192C22 3.99769 20 2 15 2H9C4 2 2 3.99769 2 8.99192V14.985C2 19.9792 4 21.9769 9 21.9769H12" stroke="#8F93A3" stroke-width="1.5" stroke-linecap="round" stroke-linejoin="round"/>
<path d="M20.9597 17.8212L19.3297 18.3706C18.8797 18.5204 18.5197 18.87 18.3697 19.3295L17.8197 20.9576C17.3497 22.366 15.3697 22.336 14.9297 20.9277L13.0797 14.9845C12.7197 13.8059 13.8097 12.7071 14.9797 13.0767L20.9397 14.9246C22.3397 15.3641 22.3597 17.3518 20.9597 17.8212Z" stroke="#8F93A3" stroke-width="1.5" stroke-linecap="round" stroke-linejoin="round"/>
</svg>
