<svg width="45" height="44" viewBox="0 0 45 44" fill="none" xmlns="http://www.w3.org/2000/svg">
<path d="M32.0576 14C32.0576 15.1046 31.1622 16 30.0576 16C28.953 16 28.0576 15.1046 28.0576 14C28.0576 12.8954 28.953 12 30.0576 12C31.1622 12 32.0576 12.8954 32.0576 14Z" stroke="#8F93A3" stroke-width="1.5"/>
<path d="M29.0976 18.15C27.5276 17.81 26.2476 16.53 25.9076 14.96C25.7776 14.35 25.7676 13.76 25.8776 13.2C26.0076 12.58 25.5476 12 24.9076 12H17.0576C14.2976 12 12.0576 14.24 12.0576 17V23.95C12.0576 26.71 14.2976 28.95 17.0576 28.95H18.5576C18.8376 28.95 19.1976 29.13 19.3576 29.35L20.8576 31.34C21.5176 32.22 22.5976 32.22 23.2576 31.34L24.7576 29.35C24.9476 29.1 25.2376 28.95 25.5576 28.95H27.0676C29.8276 28.95 32.0576 26.72 32.0576 23.96V19.15C32.0576 18.52 31.4776 18.06 30.8576 18.18C30.2976 18.28 29.7076 18.28 29.0976 18.15ZM18.0576 22C17.4976 22 17.0576 21.55 17.0576 21C17.0576 20.45 17.4976 20 18.0576 20C18.6076 20 19.0576 20.45 19.0576 21C19.0576 21.55 18.6176 22 18.0576 22ZM22.0576 22C21.4976 22 21.0576 21.55 21.0576 21C21.0576 20.45 21.4976 20 22.0576 20C22.6076 20 23.0576 20.45 23.0576 21C23.0576 21.55 22.6176 22 22.0576 22ZM26.0576 22C25.4976 22 25.0576 21.55 25.0576 21C25.0576 20.45 25.4976 20 26.0576 20C26.6076 20 27.0576 20.45 27.0576 21C27.0576 21.55 26.6176 22 26.0576 22Z" stroke="#8F93A3" stroke-width="1.5"/>
</svg>
