<svg width="21" height="20" viewBox="0 0 21 20" fill="none" xmlns="http://www.w3.org/2000/svg">
<path d="M10.6966 5.20964C11.0418 5.20964 11.3216 5.48946 11.3216 5.83464V10.1591L12.7547 8.72603C12.9988 8.48195 13.3945 8.48195 13.6386 8.72603C13.8826 8.9701 13.8826 9.36583 13.6386 9.60991L11.1386 12.1099C11.0213 12.2271 10.8624 12.293 10.6966 12.293C10.5309 12.293 10.3719 12.2271 10.2547 12.1099L7.75467 9.60991C7.5106 9.36583 7.5106 8.97011 7.75467 8.72603C7.99875 8.48195 8.39448 8.48195 8.63856 8.72603L10.0716 10.1591V5.83464C10.0716 5.48946 10.3514 5.20964 10.6966 5.20964Z" fill="#8F93A3"/>
<path d="M6.73828 14.168C6.73828 13.8228 7.0181 13.543 7.36328 13.543H14.0299C14.3751 13.543 14.6549 13.8228 14.6549 14.168C14.6549 14.5131 14.3751 14.793 14.0299 14.793H7.36328C7.0181 14.793 6.73828 14.5131 6.73828 14.168Z" fill="#8F93A3"/>
<path fill-rule="evenodd" clip-rule="evenodd" d="M10.6488 1.04297C8.72514 1.04296 7.21761 1.04295 6.04137 1.20109C4.83742 1.36296 3.8874 1.70074 3.14173 2.44642C2.39605 3.19209 2.05827 4.14211 1.8964 5.34606C1.73826 6.5223 1.73827 8.02983 1.73828 9.95349V10.0491C1.73827 11.9728 1.73826 13.4803 1.8964 14.6565C2.05827 15.8605 2.39605 16.8105 3.14173 17.5562C3.8874 18.3019 4.83742 18.6396 6.04137 18.8015C7.21761 18.9597 8.72514 18.9596 10.6488 18.9596H10.7444C12.6681 18.9596 14.1756 18.9597 15.3519 18.8015C16.5558 18.6396 17.5058 18.3019 18.2515 17.5562C18.9972 16.8105 19.335 15.8605 19.4968 14.6565C19.655 13.4803 19.655 11.9728 19.6549 10.0491V9.95349C19.655 8.02983 19.655 6.5223 19.4968 5.34606C19.335 4.14211 18.9972 3.19209 18.2515 2.44642C17.5058 1.70074 16.5558 1.36296 15.3519 1.20109C14.1756 1.04295 12.6681 1.04296 10.7444 1.04297H10.6488ZM4.02561 3.3303C4.50033 2.85559 5.14259 2.58318 6.20793 2.43994C7.29124 2.2943 8.71476 2.29297 10.6966 2.29297C12.6785 2.29297 14.102 2.2943 15.1853 2.43994C16.2506 2.58318 16.8929 2.85559 17.3676 3.3303C17.8423 3.80501 18.1147 4.44728 18.258 5.51262C18.4036 6.59593 18.4049 8.01945 18.4049 10.0013C18.4049 11.9832 18.4036 13.4067 18.258 14.49C18.1147 15.5553 17.8423 16.1976 17.3676 16.6723C16.8929 17.147 16.2506 17.4194 15.1853 17.5627C14.102 17.7083 12.6785 17.7096 10.6966 17.7096C8.71476 17.7096 7.29124 17.7083 6.20793 17.5627C5.14259 17.4194 4.50033 17.147 4.02561 16.6723C3.5509 16.1976 3.27849 15.5553 3.13526 14.49C2.98961 13.4067 2.98828 11.9832 2.98828 10.0013C2.98828 8.01945 2.98961 6.59593 3.13526 5.51262C3.27849 4.44728 3.5509 3.80501 4.02561 3.3303Z" fill="#8F93A3"/>
</svg>
