<svg width="45" height="44" viewBox="0 0 45 44" fill="none" xmlns="http://www.w3.org/2000/svg">
<path d="M27.0576 28.4297H23.0576L18.6076 31.3897C17.9476 31.8297 17.0576 31.3598 17.0576 30.5598V28.4297C14.0576 28.4297 12.0576 26.4297 12.0576 23.4297V17.4297C12.0576 14.4297 14.0576 12.4297 17.0576 12.4297H27.0576C30.0576 12.4297 32.0576 14.4297 32.0576 17.4297V23.4297C32.0576 26.4297 30.0576 28.4297 27.0576 28.4297Z" stroke="#8F93A3" stroke-width="1.5" stroke-miterlimit="10" stroke-linecap="round" stroke-linejoin="round"/>
<path d="M22.0574 21.3604V21.1504C22.0574 20.4704 22.4775 20.1104 22.8975 19.8204C23.3075 19.5404 23.7174 19.1804 23.7174 18.5204C23.7174 17.6004 22.9774 16.8604 22.0574 16.8604C21.1374 16.8604 20.3975 17.6004 20.3975 18.5204" stroke="#8F93A3" stroke-width="1.5" stroke-linecap="round" stroke-linejoin="round"/>
<path d="M22.0531 23.75H22.0621" stroke="#8F93A3" stroke-width="1.5" stroke-linecap="round" stroke-linejoin="round"/>
</svg>
