<svg width="23" height="22" viewBox="0 0 23 22" fill="none" xmlns="http://www.w3.org/2000/svg">
<path d="M7.12398 0.27C8.07398 0.36 8.97398 0.73 9.71398 1.34C9.88398 1.48 10.044 1.64 10.294 1.89L10.874 2.47C11.724 3.32 12.044 3.63 12.424 3.84C12.644 3.96 12.874 4.06 13.114 4.13C13.524 4.25 13.984 4.25 15.174 4.25H15.594C16.864 4.25 17.894 4.25 18.704 4.35M7.12398 0.27C6.90398 0.25 6.67398 0.25 6.32398 0.25H6.28398H6.19398C5.39398 0.25 4.89398 0.25 4.45398 0.33M7.12398 0.27L7.07683 0.767771C7.07714 0.767801 7.07746 0.767831 7.07778 0.767862M7.12398 0.27L7.07872 0.767947C7.0784 0.767918 7.07809 0.76789 7.07778 0.767862M4.45398 0.33C2.53398 0.69 1.02398 2.2 0.663984 4.12M4.45398 0.33L4.54343 0.821935C4.54387 0.821854 4.54432 0.821772 4.54477 0.821691M4.45398 0.33L4.54613 0.821436C4.54568 0.821521 4.54522 0.821606 4.54477 0.821691M0.663984 4.12C0.583984 4.56 0.583984 5.06 0.583984 5.86V5.95V13.06C0.583984 14.89 0.583984 16.35 0.743984 17.48C0.903984 18.65 1.23398 19.6 1.98398 20.35C2.73398 21.1 3.68398 21.43 4.85398 21.59M0.663984 4.12L1.15542 4.21214C1.15551 4.21169 1.15559 4.21124 1.15568 4.21078M0.663984 4.12L1.15592 4.20944C1.15584 4.20989 1.15576 4.21034 1.15568 4.21078M4.85398 21.59C5.99398 21.74 7.44398 21.74 9.28398 21.74H13.394C15.234 21.74 16.684 21.74 17.824 21.59M4.85398 21.59L4.92173 21.0946C4.92133 21.0946 4.92093 21.0945 4.92053 21.0944M4.85398 21.59L4.91921 21.0943C4.91965 21.0943 4.92009 21.0944 4.92053 21.0944M17.824 21.59C18.994 21.43 19.944 21.1 20.694 20.35C21.444 19.6 21.774 18.65 21.934 17.48M17.824 21.59L17.7588 21.0943C17.7583 21.0943 17.7579 21.0944 17.7575 21.0944M17.824 21.59L17.7562 21.0946C17.7566 21.0946 17.7571 21.0945 17.7575 21.0944M21.934 17.48C22.084 16.34 22.084 14.89 22.084 13.05V10.74C22.084 9.47 22.084 8.44 21.984 7.63M21.934 17.48L21.4386 17.4123C21.4385 17.4127 21.4385 17.4131 21.4384 17.4135M21.934 17.48L21.4383 17.4148C21.4383 17.4143 21.4384 17.4139 21.4384 17.4135M21.984 7.63C21.874 6.79 21.654 6.08 21.124 5.49M21.984 7.63L21.4878 7.69126C21.4878 7.69187 21.4879 7.69248 21.488 7.69309M21.984 7.63L21.4882 7.69492C21.4881 7.69431 21.4881 7.6937 21.488 7.69309M21.124 5.49C21.034 5.39 20.944 5.3 20.844 5.21C20.264 4.68 19.544 4.46 18.704 4.35M21.124 5.49L20.752 5.82413C20.7521 5.82425 20.7522 5.82437 20.7523 5.82448M21.124 5.49L20.7523 5.82448M18.704 4.35L18.6391 4.84577C18.6397 4.84585 18.6403 4.84593 18.6409 4.84601M18.704 4.35L18.6427 4.84623C18.6421 4.84616 18.6415 4.84608 18.6409 4.84601M18.6409 4.84601C17.8687 4.75087 16.8749 4.75 15.594 4.75H15.174C15.1348 4.75 15.0963 4.75001 15.0585 4.75001C13.9839 4.75018 13.4532 4.75026 12.9735 4.60987M18.6409 4.84601C19.4358 4.95029 20.0365 5.14942 20.5067 5.57912L20.5095 5.58165C20.5965 5.65992 20.6741 5.73751 20.7523 5.82448M20.7523 5.82448C21.1857 6.30714 21.3841 6.90151 21.488 7.69309M21.488 7.69309C21.5831 8.4653 21.584 9.45906 21.584 10.74V13.05C21.584 14.9022 21.583 16.3137 21.4384 17.4135M21.4384 17.4135C21.2857 18.5291 20.9815 19.3554 20.3404 19.9964C19.6993 20.6375 18.8731 20.9417 17.7575 21.0944M17.7575 21.0944C16.6577 21.239 15.2462 21.24 13.394 21.24H9.28398C7.43176 21.24 6.02034 21.239 4.92053 21.0944M4.92053 21.0944C3.80493 20.9417 2.97864 20.6375 2.33754 19.9964C1.69621 19.3551 1.39202 18.5285 1.23938 17.4123L1.23905 17.4099C1.08514 16.3229 1.08398 14.9042 1.08398 13.06V5.95V5.94999V5.94999V5.94998V5.94998V5.94997V5.94996V5.94994V5.94993V5.94992V5.9499V5.94989V5.94987V5.94985V5.94983V5.9498V5.94978V5.94976V5.94973V5.9497V5.94967V5.94964V5.94961V5.94958V5.94955V5.94951V5.94948V5.94944V5.9494V5.94936V5.94932V5.94928V5.94923V5.94919V5.94914V5.94909V5.94905V5.949V5.94894V5.94889V5.94884V5.94878V5.94873V5.94867V5.94861V5.94855V5.94849V5.94843V5.94837V5.9483V5.94824V5.94817V5.9481V5.94803V5.94796V5.94789V5.94782V5.94775V5.94767V5.9476V5.94752V5.94744V5.94736V5.94728V5.9472V5.94712V5.94704V5.94695V5.94687V5.94678V5.94669V5.9466V5.94651V5.94642V5.94633V5.94623V5.94614V5.94604V5.94595V5.94585V5.94575V5.94565V5.94555V5.94545V5.94535V5.94524V5.94514V5.94503V5.94493V5.94482V5.94471V5.9446V5.94449V5.94438V5.94426V5.94415V5.94404V5.94392V5.9438V5.94369V5.94357V5.94345V5.94333V5.94321V5.94308V5.94296V5.94284V5.94271V5.94258V5.94246V5.94233V5.9422V5.94207V5.94194V5.94181V5.94167V5.94154V5.94141V5.94127V5.94113V5.941V5.94086V5.94072V5.94058V5.94044V5.9403V5.94016V5.94001V5.93987V5.93972V5.93958V5.93943V5.93928V5.93914V5.93899V5.93884V5.93869V5.93853V5.93838V5.93823V5.93807V5.93792V5.93776V5.93761V5.93745V5.93729V5.93713V5.93697V5.93681V5.93665V5.93649V5.93633V5.93616V5.936V5.93584V5.93567V5.9355V5.93534V5.93517V5.935V5.93483V5.93466V5.93449V5.93432V5.93415V5.93397V5.9338V5.93363V5.93345V5.93327V5.9331V5.93292V5.93274V5.93257V5.93239V5.93221V5.93203V5.93185V5.93166V5.93148V5.9313V5.93111V5.93093V5.93075V5.93056V5.93037V5.93019V5.93V5.92981V5.92962V5.92943V5.92924V5.92905V5.92886V5.92867V5.92848V5.92829V5.92809V5.9279V5.9277V5.92751V5.92731V5.92712V5.92692V5.92672V5.92653V5.92633V5.92613V5.92593V5.92573V5.92553V5.92533V5.92513V5.92492V5.92472V5.92452V5.92431V5.92411V5.92391V5.9237V5.9235V5.92329V5.92308V5.92288V5.92267V5.92246V5.92225V5.92204V5.92183V5.92163V5.92142V5.9212V5.92099V5.92078V5.92057V5.92036V5.92015V5.91993V5.91972V5.91951V5.91929V5.91908V5.91886V5.91865V5.91843V5.91821V5.918V5.91778V5.91756V5.91734V5.91713V5.91691V5.91669V5.91647V5.91625V5.91603V5.91581V5.91559V5.91537V5.91515V5.91493V5.9147V5.91448V5.91426V5.91404V5.91381V5.91359V5.91337V5.91314V5.91292V5.91269V5.91247V5.91224V5.91202V5.91179V5.91157V5.91134V5.91111V5.91089V5.91066V5.91043V5.91021V5.90998V5.90975V5.90952V5.90929V5.90907V5.90884V5.90861V5.90838V5.90815V5.90792V5.90769V5.90746V5.90723V5.907V5.90677V5.90654V5.90631V5.90608V5.90584V5.90561V5.90538V5.90515V5.90492V5.90469V5.90445V5.90422V5.90399V5.90376V5.90352V5.90329V5.90306V5.90283V5.90259V5.90236V5.90213V5.90189V5.90166V5.90143V5.90119V5.90096V5.90073V5.90049V5.90026V5.90002V5.89979V5.89956V5.89932V5.89909V5.89885V5.89862V5.89839V5.89815V5.89792V5.89768V5.89745V5.89721V5.89698V5.89674V5.89651V5.89628V5.89604V5.89581V5.89557V5.89534V5.8951V5.89487V5.89464V5.8944V5.89417V5.89393V5.8937V5.89347V5.89323V5.893V5.89276V5.89253V5.8923V5.89206V5.89183V5.8916V5.89136V5.89113V5.8909V5.89066V5.89043V5.8902V5.88996V5.88973V5.8895V5.88927V5.88903V5.8888V5.88857V5.88834V5.88811V5.88787V5.88764V5.88741V5.88718V5.88695V5.88672V5.88649V5.88626V5.88603V5.8858V5.88557V5.88534V5.88511V5.88488V5.88465V5.88442V5.88419V5.88396V5.88374V5.88351V5.88328V5.88305V5.88282V5.8826V5.88237V5.88214V5.88192V5.88169V5.88147V5.88124V5.88102V5.88079V5.88057V5.88034V5.88012V5.87989V5.87967V5.87945V5.87922V5.879V5.87878V5.87856V5.87833V5.87811V5.87789V5.87767V5.87745V5.87723V5.87701V5.87679V5.87657V5.87635V5.87613V5.87592V5.8757V5.87548V5.87526V5.87505V5.87483V5.87462V5.8744V5.87419V5.87397V5.87376V5.87354V5.87333V5.87312V5.8729V5.87269V5.87248V5.87227V5.87206V5.87185V5.87164V5.87143V5.87122V5.87101V5.8708V5.87059V5.87039V5.87018V5.86998V5.86977V5.86956V5.86936V5.86915V5.86895V5.86875V5.86854V5.86834V5.86814V5.86794V5.86774V5.86754V5.86734V5.86714V5.86694V5.86674V5.86654V5.86635V5.86615V5.86595V5.86576V5.86556V5.86537V5.86518V5.86498V5.86479V5.8646V5.86441V5.86422V5.86403V5.86384V5.86365V5.86346V5.86327V5.86308V5.8629V5.86271V5.86253V5.86234V5.86216V5.86197V5.86179V5.86161V5.86143V5.86125V5.86107V5.86089V5.86071V5.86053V5.86035V5.86018V5.86C1.08398 5.04375 1.08582 4.59601 1.15568 4.21078M1.15568 4.21078C1.47804 2.49459 2.82858 1.14406 4.54477 0.821691M4.54477 0.821691C4.92999 0.751834 5.37773 0.75 6.19398 0.75H6.19399H6.194H6.194H6.19401H6.19402H6.19403H6.19404H6.19405H6.19407H6.19408H6.1941H6.19412H6.19414H6.19416H6.19418H6.1942H6.19423H6.19425H6.19428H6.19431H6.19434H6.19437H6.1944H6.19444H6.19447H6.19451H6.19455H6.19458H6.19462H6.19467H6.19471H6.19475H6.1948H6.19484H6.19489H6.19494H6.19499H6.19504H6.19509H6.19515H6.1952H6.19526H6.19531H6.19537H6.19543H6.19549H6.19555H6.19562H6.19568H6.19575H6.19581H6.19588H6.19595H6.19602H6.19609H6.19616H6.19624H6.19631H6.19639H6.19646H6.19654H6.19662H6.1967H6.19678H6.19687H6.19695H6.19703H6.19712H6.19721H6.19729H6.19738H6.19747H6.19756H6.19766H6.19775H6.19784H6.19794H6.19804H6.19813H6.19823H6.19833H6.19843H6.19853H6.19864H6.19874H6.19884H6.19895H6.19906H6.19917H6.19927H6.19938H6.19949H6.19961H6.19972H6.19983H6.19995H6.20006H6.20018H6.2003H6.20042H6.20054H6.20066H6.20078H6.2009H6.20102H6.20115H6.20127H6.2014H6.20153H6.20166H6.20178H6.20191H6.20205H6.20218H6.20231H6.20244H6.20258H6.20271H6.20285H6.20299H6.20312H6.20326H6.2034H6.20354H6.20369H6.20383H6.20397H6.20412H6.20426H6.20441H6.20455H6.2047H6.20485H6.205H6.20515H6.2053H6.20545H6.2056H6.20576H6.20591H6.20606H6.20622H6.20638H6.20653H6.20669H6.20685H6.20701H6.20717H6.20733H6.20749H6.20766H6.20782H6.20798H6.20815H6.20831H6.20848H6.20865H6.20882H6.20898H6.20915H6.20932H6.20949H6.20967H6.20984H6.21001H6.21018H6.21036H6.21053H6.21071H6.21089H6.21106H6.21124H6.21142H6.2116H6.21178H6.21196H6.21214H6.21232H6.2125H6.21269H6.21287H6.21305H6.21324H6.21342H6.21361H6.2138H6.21398H6.21417H6.21436H6.21455H6.21474H6.21493H6.21512H6.21531H6.21551H6.2157H6.21589H6.21609H6.21628H6.21648H6.21667H6.21687H6.21706H6.21726H6.21746H6.21766H6.21786H6.21806H6.21826H6.21846H6.21866H6.21886H6.21906H6.21926H6.21947H6.21967H6.21987H6.22008H6.22028H6.22049H6.22069H6.2209H6.22111H6.22131H6.22152H6.22173H6.22194H6.22215H6.22236H6.22257H6.22278H6.22299H6.2232H6.22341H6.22363H6.22384H6.22405H6.22427H6.22448H6.22469H6.22491H6.22512H6.22534H6.22555H6.22577H6.22599H6.2262H6.22642H6.22664H6.22686H6.22708H6.2273H6.22751H6.22773H6.22795H6.22817H6.22839H6.22862H6.22884H6.22906H6.22928H6.2295H6.22973H6.22995H6.23017H6.23039H6.23062H6.23084H6.23107H6.23129H6.23152H6.23174H6.23197H6.23219H6.23242H6.23264H6.23287H6.2331H6.23332H6.23355H6.23378H6.23401H6.23423H6.23446H6.23469H6.23492H6.23515H6.23538H6.23561H6.23584H6.23606H6.23629H6.23653H6.23675H6.23699H6.23722H6.23745H6.23768H6.23791H6.23814H6.23837H6.2386H6.23883H6.23907H6.2393H6.23953H6.23976H6.23999H6.24023H6.24046H6.24069H6.24092H6.24116H6.24139H6.24162H6.24186H6.24209H6.24232H6.24256H6.24279H6.24302H6.24326H6.24349H6.24373H6.24396H6.24419H6.24443H6.24466H6.2449H6.24513H6.24536H6.2456H6.24583H6.24607H6.2463H6.24654H6.24677H6.247H6.24724H6.24747H6.24771H6.24794H6.24818H6.24841H6.24865H6.24888H6.24911H6.24935H6.24958H6.24982H6.25005H6.25028H6.25052H6.25075H6.25099H6.25122H6.25145H6.25169H6.25192H6.25216H6.25239H6.25262H6.25286H6.25309H6.25332H6.25355H6.25379H6.25402H6.25425H6.25449H6.25472H6.25495H6.25518H6.25541H6.25565H6.25588H6.25611H6.25634H6.25657H6.2568H6.25703H6.25727H6.2575H6.25773H6.25796H6.25819H6.25842H6.25865H6.25888H6.25911H6.25933H6.25956H6.25979H6.26002H6.26025H6.26048H6.2607H6.26093H6.26116H6.26139H6.26161H6.26184H6.26207H6.26229H6.26252H6.26274H6.26297H6.26319H6.26342H6.26364H6.26387H6.26409H6.26432H6.26454H6.26476H6.26498H6.26521H6.26543H6.26565H6.26587H6.26609H6.26631H6.26653H6.26675H6.26697H6.26719H6.26741H6.26763H6.26785H6.26807H6.26829H6.2685H6.26872H6.26894H6.26915H6.26937H6.26958H6.2698H6.27001H6.27023H6.27044H6.27065H6.27087H6.27108H6.27129H6.2715H6.27172H6.27193H6.27214H6.27235H6.27256H6.27276H6.27297H6.27318H6.27339H6.2736H6.2738H6.27401H6.27422H6.27442H6.27463H6.27483H6.27503H6.27524H6.27544H6.27564H6.27584H6.27605H6.27625H6.27645H6.27665H6.27685H6.27704H6.27724H6.27744H6.27764H6.27783H6.27803H6.27822H6.27842H6.27861H6.27881H6.279H6.27919H6.27939H6.27958H6.27977H6.27996H6.28015H6.28034H6.28053H6.28071H6.2809H6.28109H6.28127H6.28146H6.28164H6.28183H6.28201H6.28219H6.28237H6.28256H6.28274H6.28292H6.2831H6.28328H6.28345H6.28363H6.28381H6.28398H6.32398C6.68052 0.75 6.8854 0.750432 7.07778 0.767862M7.07778 0.767862C7.92839 0.848636 8.7336 1.17982 9.39595 1.72581L9.39613 1.72597C9.54357 1.84739 9.68509 1.98821 9.94043 2.24355L10.5204 2.82355C11.3496 3.6527 11.7258 4.02542 12.1821 4.27763L12.1846 4.27895C12.4302 4.41295 12.6934 4.52812 12.9735 4.60987M12.9735 4.60987C12.9737 4.60991 12.9738 4.60996 12.974 4.61L13.114 4.13003L12.9735 4.60987ZM6.78398 1.26195V1.25H6.28398C6.24969 1.25 6.21609 1.25 6.18317 1.24999C5.36795 1.24988 4.96641 1.24983 4.63491 1.31989C3.12603 1.6101 1.94095 2.79662 1.65285 4.30627L1.65281 4.30627L1.65177 4.3121C1.59228 4.64523 1.58398 5.05523 1.58398 5.95V13L1.58398 13.0426C1.58398 14.9158 1.58397 16.2937 1.72854 17.3573L1.72872 17.3587C1.87585 18.4201 2.15107 19.1242 2.68043 19.6536C3.20753 20.1807 3.90929 20.4678 4.97821 20.6057C6.04162 20.75 7.41907 20.75 9.29138 20.75H9.33398H13.334H13.3766C15.2498 20.75 16.6277 20.75 17.6913 20.6054L17.6926 20.6053C18.7541 20.4581 19.4582 20.1829 19.9875 19.6536C20.5146 19.1264 20.8018 18.4247 20.9396 17.3558C21.084 16.2924 21.084 14.9149 21.084 13.0426V13V10.8V10.7588C21.084 9.45459 21.084 8.49813 20.9899 7.76624L20.9898 7.76533C20.8936 7.02779 20.7124 6.54722 20.3829 6.17369C20.3164 6.09469 20.2393 6.01756 20.1603 5.9511C19.7868 5.62162 19.3062 5.4404 18.5687 5.3442L18.5669 5.34397C17.8254 5.24998 16.8692 5.24999 15.5734 5.25H15.534H15.164H15.164H15.164H15.164H15.1639H15.1639H15.1639H15.1639H15.1639H15.1639H15.1639H15.1638H15.1638H15.1638H15.1638H15.1637H15.1637H15.1637H15.1636H15.1636H15.1636H15.1635H15.1635H15.1635H15.1634H15.1634H15.1633H15.1633H15.1632H15.1632H15.1631H15.1631H15.163H15.163H15.1629H15.1629H15.1628H15.1628H15.1627H15.1626H15.1626H15.1625H15.1624H15.1624H15.1623H15.1622H15.1621H15.1621H15.162H15.1619H15.1618H15.1618H15.1617H15.1616H15.1615H15.1614H15.1613H15.1613H15.1612H15.1611H15.161H15.1609H15.1608H15.1607H15.1606H15.1605H15.1604H15.1603H15.1602H15.1601H15.16H15.1599H15.1598H15.1597H15.1596H15.1595H15.1594H15.1592H15.1591H15.159H15.1589H15.1588H15.1587H15.1585H15.1584H15.1583H15.1582H15.158H15.1579H15.1578H15.1577H15.1575H15.1574H15.1573H15.1571H15.157H15.1569H15.1567H15.1566H15.1564H15.1563H15.1562H15.156H15.1559H15.1557H15.1556H15.1554H15.1553H15.1551H15.155H15.1548H15.1547H15.1545H15.1544H15.1542H15.1541H15.1539H15.1537H15.1536H15.1534H15.1533H15.1531H15.1529H15.1528H15.1526H15.1524H15.1523H15.1521H15.1519H15.1517H15.1516H15.1514H15.1512H15.151H15.1509H15.1507H15.1505H15.1503H15.1501H15.15H15.1498H15.1496H15.1494H15.1492H15.149H15.1489H15.1487H15.1485H15.1483H15.1481H15.1479H15.1477H15.1475H15.1473H15.1471H15.1469H15.1467H15.1465H15.1463H15.1461H15.1459H15.1457H15.1455H15.1453H15.1451H15.1449H15.1447H15.1445H15.1443H15.1441H15.1439H15.1437H15.1434H15.1432H15.143H15.1428H15.1426H15.1424H15.1422H15.1419H15.1417H15.1415H15.1413H15.1411H15.1408H15.1406H15.1404H15.1402H15.14H15.1397H15.1395H15.1393H15.139H15.1388H15.1386H15.1384H15.1381H15.1379H15.1377H15.1374H15.1372H15.137H15.1367H15.1365H15.1363H15.136H15.1358H15.1356H15.1353H15.1351H15.1348H15.1346H15.1344H15.1341H15.1339H15.1336H15.1334H15.1331H15.1329H15.1327H15.1324H15.1322H15.1319H15.1317H15.1314H15.1312H15.1309H15.1307H15.1304H15.1302H15.1299H15.1297H15.1294H15.1292H15.1289H15.1287H15.1284H15.1281H15.1279H15.1276H15.1274H15.1271H15.1269H15.1266H15.1263H15.1261H15.1258H15.1256H15.1253H15.125H15.1248H15.1245H15.1242H15.124H15.1237H15.1235H15.1232H15.1229H15.1227H15.1224H15.1221H15.1219H15.1216H15.1213H15.1211H15.1208H15.1205H15.1203H15.12H15.1197H15.1194H15.1192H15.1189H15.1186H15.1184H15.1181H15.1178H15.1175H15.1173H15.117H15.1167H15.1164H15.1162H15.1159H15.1156H15.1153H15.1151H15.1148H15.1145H15.1142H15.114H15.1137H15.1134H15.1131H15.1128H15.1126H15.1123H15.112H15.1117H15.1114H15.1112H15.1109H15.1106H15.1103H15.11H15.1098H15.1095H15.1092H15.1089H15.1086H15.1083H15.1081H15.1078H15.1075H15.1072H15.1069H15.1067H15.1064H15.1061H15.1058H15.1055H15.1052H15.1049H15.1047H15.1044H15.1041H15.1038H15.1035H15.1032H15.103H15.1027H15.1024H15.1021H15.1018H15.1015H15.1012H15.1009H15.1007H15.1004H15.1001H15.0998H15.0995H15.0992H15.0989H15.0987H15.0984H15.0981H15.0978H15.0975H15.0972H15.0969H15.0966H15.0964H15.0961H15.0958H15.0955H15.0952H15.0949H15.0946H15.0944H15.0941H15.0938H15.0935H15.0932H15.0929H15.0926H15.0923H15.0921H15.0918H15.0915H15.0912H15.0909H15.0906H15.0903H15.09H15.0898H15.0895H15.0892H15.0889H15.0886H15.0883H15.088H15.0878H15.0875H15.0872H15.0869H15.0866H15.0863H15.0861H15.0858H15.0855H15.0852H15.0849H15.0846H15.0843H15.0841H15.0838H15.0835H15.0832H15.0829H15.0826H15.0824H15.0821H15.0818H15.0815H15.0812H15.081H15.0807H15.0804H15.0801H15.0798H15.0795H15.0793H15.079H15.0787H15.0784H15.0782H15.0779H15.0776H15.0773H15.077H15.0768H15.0765H15.0762H15.0759H15.0757H15.0754H15.0751H15.0748H15.0746H15.0743H15.074H15.0737H15.0735H15.0732H15.0729H15.0726H15.0724H15.0721H15.0718H15.0715H15.0713H15.071H15.0707H15.0705H15.0702H15.0699H15.0697H15.0694H15.0691H15.0689H15.0686H15.0683H15.0681H15.0678H15.0675H15.0673H15.067H15.0667H15.0665H15.0662H15.0659H15.0657H15.0654H15.0652H15.0649H15.0646H15.0644H15.0641H15.0639H15.0636H15.0633H15.0631H15.0628H15.0626H15.0623H15.0621H15.0618H15.0616H15.0613H15.0611H15.0608H15.0605H15.0603H15.06H15.0598H15.0595H15.0593H15.0591H15.0588H15.0586H15.0583H15.0581H15.0578H15.0576H15.0573H15.0571H15.0568H15.0566H15.0564H15.0561H15.0559H15.0556H15.0554H15.0552H15.0549H15.0547H15.0545H15.0542H15.054C13.9834 5.25 13.3899 5.24613 12.8304 5.08895C12.5169 4.99931 12.2135 4.8742 11.9291 4.71421L11.9291 4.7142L11.9255 4.71221C11.4205 4.43357 10.9933 4.01222 10.2375 3.25645L10.1975 3.21645L10.1575 3.17645L9.60754 2.62645L9.57945 2.59836C9.32905 2.34792 9.20187 2.22073 9.07318 2.11514C8.4923 1.62806 7.776 1.34098 7.02994 1.27212L7.02995 1.27201L7.01961 1.27127C6.94977 1.26628 6.8762 1.2635 6.78398 1.26195Z" fill="#8F93A3" stroke="#8F93A3"/>
<path d="M13.9159 12.1984C13.9159 13.6223 12.7597 14.7784 11.3359 14.7784C9.912 14.7784 8.75586 13.6223 8.75586 12.1984V9.72844C8.75586 8.30458 9.912 7.14844 11.3359 7.14844C12.7597 7.14844 13.9159 8.30458 13.9159 9.72844V12.1984ZM11.3359 7.65844C10.1897 7.65844 9.25586 8.59229 9.25586 9.73844V12.2084C9.25586 13.3546 10.1897 14.2884 11.3359 14.2884C12.482 14.2884 13.4159 13.3546 13.4159 12.2084V9.73844C13.4159 8.59229 12.482 7.65844 11.3359 7.65844Z" fill="#8F93A3" stroke="#8F93A3"/>
<path d="M15.7151 10.6719C15.3051 10.6719 14.9651 11.0119 14.9651 11.4219V12.7619C14.9651 14.7619 13.3351 16.3919 11.3351 16.3919C9.33508 16.3919 7.70508 14.7619 7.70508 12.7619V11.4219C7.70508 11.0119 7.36508 10.6719 6.95508 10.6719C6.54508 10.6719 6.20508 11.0119 6.20508 11.4219V12.7619C6.20508 15.3319 8.11508 17.4519 10.5851 17.8219V19.0019C10.5851 19.4119 10.9251 19.7519 11.3351 19.7519C11.7451 19.7519 12.0851 19.4119 12.0851 19.0019V17.8219C14.5551 17.4519 16.4651 15.3419 16.4651 12.7619V11.4219C16.4651 11.0119 16.1251 10.6719 15.7151 10.6719Z" fill="#8F93A3"/>
<path d="M10.8352 10.6684C10.9752 10.8084 11.1652 10.8884 11.3652 10.8884C11.5652 10.8884 11.7552 10.8084 11.8952 10.6684C12.0352 10.5284 12.1152 10.3384 12.1152 10.1384C12.1152 10.0384 12.0952 9.94844 12.0552 9.84844C12.0252 9.75844 11.9652 9.67844 11.8952 9.60844C11.6152 9.32844 11.1152 9.32844 10.8352 9.60844C10.7652 9.67844 10.7152 9.75844 10.6752 9.84844C10.6352 9.93844 10.6152 10.0384 10.6152 10.1384C10.6152 10.2384 10.6352 10.3384 10.6752 10.4284C10.7152 10.5184 10.7652 10.5984 10.8352 10.6684Z" fill="#8F93A3"/>
<path d="M10.9629 12.8086H11.8929C12.3029 12.8086 12.6429 12.4686 12.6429 12.0586C12.6429 11.6486 12.3029 11.3086 11.8929 11.3086H10.9629C10.5529 11.3086 10.2129 11.6486 10.2129 12.0586C10.2129 12.4686 10.5529 12.8086 10.9629 12.8086Z" fill="#8F93A3"/>
</svg>
