<svg width="45" height="44" viewBox="0 0 45 44" fill="none" xmlns="http://www.w3.org/2000/svg">
<g clip-path="url(#clip0_1927_66640)">
<path d="M17.5976 11.02C18.5476 11.11 19.4476 11.48 20.1876 12.09C20.3576 12.23 20.5176 12.39 20.7676 12.64L21.3476 13.22C22.1976 14.07 22.5176 14.38 22.8976 14.59C23.1176 14.71 23.3476 14.81 23.5876 14.88C23.9976 15 24.4576 15 25.6476 15H26.0676C27.3376 15 28.3676 15 29.1776 15.1M17.5976 11.02C17.3776 11 17.1476 11 16.7976 11H16.7576H16.6676C15.8676 11 15.3676 11 14.9276 11.08M17.5976 11.02L17.5505 11.5178C17.5508 11.5178 17.5511 11.5178 17.5514 11.5179M17.5976 11.02L17.5523 11.5179C17.552 11.5179 17.5517 11.5179 17.5514 11.5179M14.9276 11.08C13.0076 11.44 11.4976 12.95 11.1376 14.87M14.9276 11.08L15.0171 11.5719C15.0175 11.5719 15.018 11.5718 15.0184 11.5717M14.9276 11.08L15.0198 11.5714C15.0193 11.5715 15.0189 11.5716 15.0184 11.5717M11.1376 14.87C11.0576 15.31 11.0576 15.81 11.0576 16.61V16.7V23.81C11.0576 25.64 11.0576 27.1 11.2176 28.23C11.3776 29.4 11.7076 30.35 12.4576 31.1C13.2076 31.85 14.1576 32.18 15.3276 32.34M11.1376 14.87L11.6291 14.9621C11.6291 14.9617 11.6292 14.9612 11.6293 14.9608M11.1376 14.87L11.6296 14.9594C11.6295 14.9599 11.6294 14.9603 11.6293 14.9608M15.3276 32.34C16.4676 32.49 17.9176 32.49 19.7576 32.49H23.8676C25.7076 32.49 27.1576 32.49 28.2976 32.34M15.3276 32.34L15.3954 31.8446C15.395 31.8446 15.3946 31.8445 15.3942 31.8444M15.3276 32.34L15.3928 31.8443C15.3933 31.8443 15.3937 31.8444 15.3942 31.8444M28.2976 32.34C29.4676 32.18 30.4176 31.85 31.1676 31.1C31.9176 30.35 32.2476 29.4 32.4076 28.23M28.2976 32.34L28.2324 31.8443C28.232 31.8443 28.2315 31.8444 28.2311 31.8444M28.2976 32.34L28.2299 31.8446C28.2303 31.8446 28.2307 31.8445 28.2311 31.8444M32.4076 28.23C32.5576 27.09 32.5576 25.64 32.5576 23.8V21.49C32.5576 20.22 32.5576 19.19 32.4576 18.38M32.4076 28.23L31.9122 28.1623C31.9122 28.1627 31.9121 28.1631 31.9121 28.1635M32.4076 28.23L31.9119 28.1648C31.9119 28.1643 31.912 28.1639 31.9121 28.1635M32.4576 18.38C32.3476 17.54 32.1276 16.83 31.5976 16.24M32.4576 18.38L31.9614 18.4413C31.9615 18.4419 31.9615 18.4425 31.9616 18.4431M32.4576 18.38L31.9618 18.4449C31.9618 18.4443 31.9617 18.4437 31.9616 18.4431M31.5976 16.24C31.5076 16.14 31.4176 16.05 31.3176 15.96C30.7376 15.43 30.0176 15.21 29.1776 15.1M31.5976 16.24L31.2257 16.5741C31.2258 16.5743 31.2259 16.5744 31.226 16.5745M31.5976 16.24L31.226 16.5745M29.1776 15.1L29.1127 15.5958C29.1133 15.5958 29.1139 15.5959 29.1145 15.596M29.1776 15.1L29.1164 15.5962C29.1157 15.5962 29.1151 15.5961 29.1145 15.596M29.1145 15.596C28.3423 15.5009 27.3486 15.5 26.0676 15.5H25.6476C25.6084 15.5 25.57 15.5 25.5322 15.5C24.4575 15.5002 23.9268 15.5003 23.4472 15.3599M29.1145 15.596C29.9095 15.7003 30.5101 15.8994 30.9803 16.3291L30.9831 16.3316C31.0701 16.4099 31.1477 16.4875 31.226 16.5745M31.226 16.5745C31.6594 17.0571 31.8578 17.6515 31.9616 18.4431M31.9616 18.4431C32.0567 19.2153 32.0576 20.2091 32.0576 21.49V23.8C32.0576 25.6522 32.0566 27.0637 31.9121 28.1635M31.9121 28.1635C31.7594 29.2791 31.4552 30.1054 30.8141 30.7464C30.173 31.3875 29.3467 31.6917 28.2311 31.8444M28.2311 31.8444C27.1313 31.989 25.7199 31.99 23.8676 31.99H19.7576C17.9054 31.99 16.494 31.989 15.3942 31.8444M15.3942 31.8444C14.2786 31.6917 13.4523 31.3875 12.8112 30.7464C12.1698 30.1051 11.8657 29.2785 11.713 28.1623L11.7127 28.1599C11.5588 27.0729 11.5576 25.6542 11.5576 23.81V16.7V16.7V16.7V16.7V16.7V16.7V16.7V16.6999V16.6999V16.6999V16.6999V16.6999V16.6999V16.6998V16.6998V16.6998V16.6998V16.6998V16.6997V16.6997V16.6997V16.6996V16.6996V16.6996V16.6995V16.6995V16.6995V16.6994V16.6994V16.6994V16.6993V16.6993V16.6992V16.6992V16.6991V16.6991V16.699V16.699V16.6989V16.6989V16.6988V16.6988V16.6987V16.6987V16.6986V16.6986V16.6985V16.6984V16.6984V16.6983V16.6982V16.6982V16.6981V16.698V16.698V16.6979V16.6978V16.6977V16.6977V16.6976V16.6975V16.6974V16.6974V16.6973V16.6972V16.6971V16.697V16.697V16.6969V16.6968V16.6967V16.6966V16.6965V16.6964V16.6963V16.6962V16.6961V16.696V16.6959V16.6959V16.6958V16.6957V16.6956V16.6955V16.6953V16.6952V16.6951V16.695V16.6949V16.6948V16.6947V16.6946V16.6945V16.6944V16.6943V16.6942V16.694V16.6939V16.6938V16.6937V16.6936V16.6934V16.6933V16.6932V16.6931V16.693V16.6928V16.6927V16.6926V16.6925V16.6923V16.6922V16.6921V16.6919V16.6918V16.6917V16.6915V16.6914V16.6913V16.6911V16.691V16.6909V16.6907V16.6906V16.6904V16.6903V16.6902V16.69V16.6899V16.6897V16.6896V16.6894V16.6893V16.6891V16.689V16.6888V16.6887V16.6885V16.6884V16.6882V16.6881V16.6879V16.6878V16.6876V16.6875V16.6873V16.6871V16.687V16.6868V16.6867V16.6865V16.6863V16.6862V16.686V16.6858V16.6857V16.6855V16.6853V16.6852V16.685V16.6848V16.6847V16.6845V16.6843V16.6841V16.684V16.6838V16.6836V16.6835V16.6833V16.6831V16.6829V16.6827V16.6826V16.6824V16.6822V16.682V16.6818V16.6817V16.6815V16.6813V16.6811V16.6809V16.6807V16.6806V16.6804V16.6802V16.68V16.6798V16.6796V16.6794V16.6792V16.6791V16.6789V16.6787V16.6785V16.6783V16.6781V16.6779V16.6777V16.6775V16.6773V16.6771V16.6769V16.6767V16.6765V16.6763V16.6761V16.6759V16.6757V16.6755V16.6753V16.6751V16.6749V16.6747V16.6745V16.6743V16.6741V16.6739V16.6737V16.6735V16.6733V16.6731V16.6729V16.6727V16.6725V16.6723V16.672V16.6718V16.6716V16.6714V16.6712V16.671V16.6708V16.6706V16.6704V16.6701V16.6699V16.6697V16.6695V16.6693V16.6691V16.6689V16.6686V16.6684V16.6682V16.668V16.6678V16.6676V16.6673V16.6671V16.6669V16.6667V16.6665V16.6663V16.666V16.6658V16.6656V16.6654V16.6651V16.6649V16.6647V16.6645V16.6643V16.664V16.6638V16.6636V16.6634V16.6631V16.6629V16.6627V16.6625V16.6622V16.662V16.6618V16.6616V16.6613V16.6611V16.6609V16.6607V16.6604V16.6602V16.66V16.6597V16.6595V16.6593V16.6591V16.6588V16.6586V16.6584V16.6581V16.6579V16.6577V16.6575V16.6572V16.657V16.6568V16.6565V16.6563V16.6561V16.6558V16.6556V16.6554V16.6552V16.6549V16.6547V16.6545V16.6542V16.654V16.6538V16.6535V16.6533V16.6531V16.6528V16.6526V16.6524V16.6521V16.6519V16.6517V16.6514V16.6512V16.651V16.6507V16.6505V16.6503V16.65V16.6498V16.6496V16.6493V16.6491V16.6489V16.6486V16.6484V16.6482V16.6479V16.6477V16.6474V16.6472V16.647V16.6467V16.6465V16.6463V16.646V16.6458V16.6456V16.6453V16.6451V16.6449V16.6446V16.6444V16.6442V16.6439V16.6437V16.6435V16.6432V16.643V16.6428V16.6425V16.6423V16.6421V16.6418V16.6416V16.6414V16.6411V16.6409V16.6407V16.6404V16.6402V16.64V16.6397V16.6395V16.6393V16.639V16.6388V16.6386V16.6383V16.6381V16.6379V16.6376V16.6374V16.6372V16.6369V16.6367V16.6365V16.6363V16.636V16.6358V16.6356V16.6353V16.6351V16.6349V16.6346V16.6344V16.6342V16.634V16.6337V16.6335V16.6333V16.6331V16.6328V16.6326V16.6324V16.6321V16.6319V16.6317V16.6315V16.6312V16.631V16.6308V16.6306V16.6303V16.6301V16.6299V16.6297V16.6294V16.6292V16.629V16.6288V16.6286V16.6283V16.6281V16.6279V16.6277V16.6274V16.6272V16.627V16.6268V16.6266V16.6264V16.6261V16.6259V16.6257V16.6255V16.6253V16.625V16.6248V16.6246V16.6244V16.6242V16.624V16.6238V16.6235V16.6233V16.6231V16.6229V16.6227V16.6225V16.6223V16.6221V16.6218V16.6216V16.6214V16.6212V16.621V16.6208V16.6206V16.6204V16.6202V16.62V16.6198V16.6196V16.6194V16.6192V16.619V16.6187V16.6185V16.6183V16.6181V16.6179V16.6177V16.6175V16.6173V16.6171V16.6169V16.6167V16.6165V16.6163V16.6162V16.616V16.6158V16.6156V16.6154V16.6152V16.615V16.6148V16.6146V16.6144V16.6142V16.614V16.6138V16.6136V16.6135V16.6133V16.6131V16.6129V16.6127V16.6125V16.6123V16.6122V16.612V16.6118V16.6116V16.6114V16.6112V16.6111V16.6109V16.6107V16.6105V16.6104V16.6102V16.61C11.5576 15.7937 11.5595 15.346 11.6293 14.9608M11.6293 14.9608C11.9517 13.2446 13.3022 11.8941 15.0184 11.5717M15.0184 11.5717C15.4036 11.5018 15.8514 11.5 16.6676 11.5H16.6676H16.6676H16.6676H16.6676H16.6677H16.6677H16.6677H16.6677H16.6677H16.6677H16.6677H16.6677H16.6678H16.6678H16.6678H16.6678H16.6679H16.6679H16.6679H16.6679H16.668H16.668H16.668H16.6681H16.6681H16.6681H16.6682H16.6682H16.6683H16.6683H16.6683H16.6684H16.6684H16.6685H16.6685H16.6686H16.6686H16.6687H16.6687H16.6688H16.6688H16.6689H16.6689H16.669H16.6691H16.6691H16.6692H16.6693H16.6693H16.6694H16.6694H16.6695H16.6696H16.6697H16.6697H16.6698H16.6699H16.6699H16.67H16.6701H16.6702H16.6703H16.6703H16.6704H16.6705H16.6706H16.6707H16.6708H16.6708H16.6709H16.671H16.6711H16.6712H16.6713H16.6714H16.6715H16.6716H16.6717H16.6718H16.6719H16.672H16.6721H16.6722H16.6723H16.6724H16.6725H16.6726H16.6727H16.6728H16.6729H16.673H16.6731H16.6732H16.6734H16.6735H16.6736H16.6737H16.6738H16.6739H16.674H16.6742H16.6743H16.6744H16.6745H16.6747H16.6748H16.6749H16.675H16.6752H16.6753H16.6754H16.6755H16.6757H16.6758H16.6759H16.6761H16.6762H16.6763H16.6765H16.6766H16.6768H16.6769H16.677H16.6772H16.6773H16.6775H16.6776H16.6777H16.6779H16.678H16.6782H16.6783H16.6785H16.6786H16.6788H16.6789H16.6791H16.6792H16.6794H16.6795H16.6797H16.6799H16.68H16.6802H16.6803H16.6805H16.6806H16.6808H16.681H16.6811H16.6813H16.6815H16.6816H16.6818H16.6819H16.6821H16.6823H16.6824H16.6826H16.6828H16.683H16.6831H16.6833H16.6835H16.6836H16.6838H16.684H16.6842H16.6843H16.6845H16.6847H16.6849H16.6851H16.6852H16.6854H16.6856H16.6858H16.686H16.6861H16.6863H16.6865H16.6867H16.6869H16.6871H16.6872H16.6874H16.6876H16.6878H16.688H16.6882H16.6884H16.6886H16.6888H16.6889H16.6891H16.6893H16.6895H16.6897H16.6899H16.6901H16.6903H16.6905H16.6907H16.6909H16.6911H16.6913H16.6915H16.6917H16.6919H16.6921H16.6923H16.6925H16.6927H16.6929H16.6931H16.6933H16.6935H16.6937H16.6939H16.6941H16.6943H16.6945H16.6947H16.6949H16.6952H16.6954H16.6956H16.6958H16.696H16.6962H16.6964H16.6966H16.6968H16.697H16.6973H16.6975H16.6977H16.6979H16.6981H16.6983H16.6985H16.6988H16.699H16.6992H16.6994H16.6996H16.6998H16.7001H16.7003H16.7005H16.7007H16.7009H16.7011H16.7014H16.7016H16.7018H16.702H16.7022H16.7025H16.7027H16.7029H16.7031H16.7034H16.7036H16.7038H16.704H16.7043H16.7045H16.7047H16.7049H16.7051H16.7054H16.7056H16.7058H16.7061H16.7063H16.7065H16.7067H16.707H16.7072H16.7074H16.7076H16.7079H16.7081H16.7083H16.7086H16.7088H16.709H16.7092H16.7095H16.7097H16.7099H16.7102H16.7104H16.7106H16.7108H16.7111H16.7113H16.7115H16.7118H16.712H16.7122H16.7125H16.7127H16.7129H16.7132H16.7134H16.7136H16.7139H16.7141H16.7143H16.7146H16.7148H16.715H16.7153H16.7155H16.7157H16.716H16.7162H16.7164H16.7167H16.7169H16.7171H16.7174H16.7176H16.7178H16.7181H16.7183H16.7185H16.7188H16.719H16.7192H16.7195H16.7197H16.7199H16.7202H16.7204H16.7206H16.7209H16.7211H16.7213H16.7216H16.7218H16.722H16.7223H16.7225H16.7227H16.723H16.7232H16.7234H16.7237H16.7239H16.7242H16.7244H16.7246H16.7249H16.7251H16.7253H16.7256H16.7258H16.726H16.7263H16.7265H16.7267H16.727H16.7272H16.7274H16.7277H16.7279H16.7281H16.7284H16.7286H16.7288H16.729H16.7293H16.7295H16.7297H16.73H16.7302H16.7304H16.7307H16.7309H16.7311H16.7314H16.7316H16.7318H16.732H16.7323H16.7325H16.7327H16.733H16.7332H16.7334H16.7337H16.7339H16.7341H16.7343H16.7346H16.7348H16.735H16.7352H16.7355H16.7357H16.7359H16.7362H16.7364H16.7366H16.7368H16.7371H16.7373H16.7375H16.7377H16.7379H16.7382H16.7384H16.7386H16.7388H16.7391H16.7393H16.7395H16.7397H16.7399H16.7402H16.7404H16.7406H16.7408H16.741H16.7413H16.7415H16.7417H16.7419H16.7421H16.7424H16.7426H16.7428H16.743H16.7432H16.7434H16.7436H16.7439H16.7441H16.7443H16.7445H16.7447H16.7449H16.7451H16.7453H16.7456H16.7458H16.746H16.7462H16.7464H16.7466H16.7468H16.747H16.7472H16.7474H16.7476H16.7478H16.7481H16.7483H16.7485H16.7487H16.7489H16.7491H16.7493H16.7495H16.7497H16.7499H16.7501H16.7503H16.7505H16.7507H16.7509H16.7511H16.7513H16.7515H16.7517H16.7519H16.7521H16.7522H16.7524H16.7526H16.7528H16.753H16.7532H16.7534H16.7536H16.7538H16.754H16.7542H16.7543H16.7545H16.7547H16.7549H16.7551H16.7553H16.7555H16.7556H16.7558H16.756H16.7562H16.7564H16.7566H16.7567H16.7569H16.7571H16.7573H16.7574H16.7576H16.7976C17.1542 11.5 17.359 11.5004 17.5514 11.5179M17.5514 11.5179C18.402 11.5986 19.2072 11.9298 19.8696 12.4758L19.8698 12.476C20.0172 12.5974 20.1587 12.7382 20.4141 12.9936L20.9941 13.5736C21.8232 14.4027 22.1994 14.7754 22.6558 15.0276L22.6582 15.0289C22.9039 15.163 23.167 15.2781 23.4472 15.3599M23.4472 15.3599C23.4473 15.3599 23.4475 15.36 23.4476 15.36L23.5876 14.88L23.4472 15.3599ZM17.2576 12.0119V12H16.7576C16.7233 12 16.6897 12 16.6568 12C15.8416 11.9999 15.44 11.9998 15.1085 12.0699C13.5997 12.3601 12.4146 13.5466 12.1265 15.0563L12.1264 15.0563L12.1254 15.0621C12.0659 15.3952 12.0576 15.8052 12.0576 16.7V23.75L12.0576 23.7926C12.0576 25.6658 12.0576 27.0437 12.2022 28.1073L12.2024 28.1087C12.3495 29.1701 12.6247 29.8742 13.1541 30.4036C13.6812 30.9307 14.3829 31.2178 15.4518 31.3557C16.5153 31.5 17.8927 31.5 19.765 31.5H19.8076H23.8076H23.8502C25.7235 31.5 27.1013 31.5 28.165 31.3554L28.1663 31.3553C29.2277 31.2081 29.9318 30.9329 30.4612 30.4036C30.9883 29.8764 31.2755 29.1747 31.4133 28.1058C31.5576 27.0424 31.5576 25.6649 31.5576 23.7926V23.75V21.55V21.5088C31.5576 20.2046 31.5576 19.2481 31.4635 18.5162L31.4634 18.5153C31.3672 17.7778 31.186 17.2972 30.8565 16.9237C30.7901 16.8447 30.7129 16.7676 30.6339 16.7011C30.2604 16.3716 29.7798 16.1904 29.0423 16.0942L29.0405 16.094C28.299 16 27.3429 16 26.0471 16H26.0076H25.6376H25.6376H25.6376H25.6376H25.6376H25.6376H25.6376H25.6375H25.6375H25.6375H25.6375H25.6375H25.6374H25.6374H25.6374H25.6374H25.6373H25.6373H25.6373H25.6372H25.6372H25.6372H25.6371H25.6371H25.637H25.637H25.637H25.6369H25.6369H25.6368H25.6368H25.6367H25.6367H25.6366H25.6366H25.6365H25.6364H25.6364H25.6363H25.6363H25.6362H25.6361H25.6361H25.636H25.6359H25.6359H25.6358H25.6357H25.6356H25.6356H25.6355H25.6354H25.6353H25.6352H25.6352H25.6351H25.635H25.6349H25.6348H25.6347H25.6346H25.6345H25.6344H25.6343H25.6342H25.6341H25.634H25.6339H25.6338H25.6337H25.6336H25.6335H25.6334H25.6333H25.6332H25.6331H25.633H25.6329H25.6328H25.6326H25.6325H25.6324H25.6323H25.6322H25.632H25.6319H25.6318H25.6317H25.6315H25.6314H25.6313H25.6312H25.631H25.6309H25.6308H25.6306H25.6305H25.6304H25.6302H25.6301H25.6299H25.6298H25.6296H25.6295H25.6294H25.6292H25.6291H25.6289H25.6288H25.6286H25.6285H25.6283H25.6282H25.628H25.6278H25.6277H25.6275H25.6274H25.6272H25.627H25.6269H25.6267H25.6266H25.6264H25.6262H25.6261H25.6259H25.6257H25.6255H25.6254H25.6252H25.625H25.6249H25.6247H25.6245H25.6243H25.6241H25.624H25.6238H25.6236H25.6234H25.6232H25.623H25.6229H25.6227H25.6225H25.6223H25.6221H25.6219H25.6217H25.6215H25.6213H25.6211H25.621H25.6208H25.6206H25.6204H25.6202H25.62H25.6198H25.6196H25.6194H25.6192H25.619H25.6187H25.6185H25.6183H25.6181H25.6179H25.6177H25.6175H25.6173H25.6171H25.6169H25.6167H25.6164H25.6162H25.616H25.6158H25.6156H25.6154H25.6151H25.6149H25.6147H25.6145H25.6143H25.614H25.6138H25.6136H25.6134H25.6131H25.6129H25.6127H25.6125H25.6122H25.612H25.6118H25.6115H25.6113H25.6111H25.6108H25.6106H25.6104H25.6101H25.6099H25.6097H25.6094H25.6092H25.609H25.6087H25.6085H25.6082H25.608H25.6077H25.6075H25.6073H25.607H25.6068H25.6065H25.6063H25.606H25.6058H25.6055H25.6053H25.6051H25.6048H25.6046H25.6043H25.6041H25.6038H25.6036H25.6033H25.603H25.6028H25.6025H25.6023H25.602H25.6018H25.6015H25.6013H25.601H25.6007H25.6005H25.6002H25.6H25.5997H25.5995H25.5992H25.5989H25.5987H25.5984H25.5981H25.5979H25.5976H25.5974H25.5971H25.5968H25.5966H25.5963H25.596H25.5958H25.5955H25.5952H25.595H25.5947H25.5944H25.5942H25.5939H25.5936H25.5933H25.5931H25.5928H25.5925H25.5923H25.592H25.5917H25.5914H25.5912H25.5909H25.5906H25.5903H25.5901H25.5898H25.5895H25.5892H25.589H25.5887H25.5884H25.5881H25.5879H25.5876H25.5873H25.587H25.5868H25.5865H25.5862H25.5859H25.5856H25.5854H25.5851H25.5848H25.5845H25.5842H25.584H25.5837H25.5834H25.5831H25.5828H25.5825H25.5823H25.582H25.5817H25.5814H25.5811H25.5809H25.5806H25.5803H25.58H25.5797H25.5794H25.5791H25.5789H25.5786H25.5783H25.578H25.5777H25.5774H25.5772H25.5769H25.5766H25.5763H25.576H25.5757H25.5754H25.5752H25.5749H25.5746H25.5743H25.574H25.5737H25.5734H25.5731H25.5729H25.5726H25.5723H25.572H25.5717H25.5714H25.5711H25.5709H25.5706H25.5703H25.57H25.5697H25.5694H25.5691H25.5688H25.5686H25.5683H25.568H25.5677H25.5674H25.5671H25.5668H25.5665H25.5663H25.566H25.5657H25.5654H25.5651H25.5648H25.5645H25.5643H25.564H25.5637H25.5634H25.5631H25.5628H25.5625H25.5623H25.562H25.5617H25.5614H25.5611H25.5608H25.5605H25.5603H25.56H25.5597H25.5594H25.5591H25.5588H25.5585H25.5583H25.558H25.5577H25.5574H25.5571H25.5568H25.5566H25.5563H25.556H25.5557H25.5554H25.5551H25.5549H25.5546H25.5543H25.554H25.5537H25.5535H25.5532H25.5529H25.5526H25.5523H25.5521H25.5518H25.5515H25.5512H25.5509H25.5507H25.5504H25.5501H25.5498H25.5496H25.5493H25.549H25.5487H25.5485H25.5482H25.5479H25.5476H25.5474H25.5471H25.5468H25.5465H25.5463H25.546H25.5457H25.5455H25.5452H25.5449H25.5446H25.5444H25.5441H25.5438H25.5436H25.5433H25.543H25.5428H25.5425H25.5422H25.542H25.5417H25.5414H25.5412H25.5409H25.5406H25.5404H25.5401H25.5398H25.5396H25.5393H25.5391H25.5388H25.5385H25.5383H25.538H25.5378H25.5375H25.5372H25.537H25.5367H25.5365H25.5362H25.536H25.5357H25.5354H25.5352H25.5349H25.5347H25.5344H25.5342H25.5339H25.5337H25.5334H25.5332H25.5329H25.5327H25.5324H25.5322H25.5319H25.5317H25.5315H25.5312H25.531H25.5307H25.5305H25.5302H25.53H25.5298H25.5295H25.5293H25.529H25.5288H25.5286H25.5283H25.5281H25.5279H25.5276C24.457 16 23.8635 15.9961 23.304 15.839C22.9905 15.7493 22.6872 15.6242 22.4027 15.4642L22.4028 15.4642L22.3992 15.4622C21.8941 15.1836 21.4669 14.7622 20.7112 14.0064L20.6712 13.9664L20.6312 13.9264L20.0812 13.3764L20.0531 13.3484C19.8027 13.0979 19.6755 12.9707 19.5468 12.8651C18.9659 12.3781 18.2496 12.091 17.5036 12.0221L17.5036 12.022L17.4932 12.0213C17.4234 12.0163 17.3498 12.0135 17.2576 12.0119Z" fill="#8F93A3" stroke="#8F93A3"/>
<path d="M24.3895 22.9484C24.3895 24.3723 23.2333 25.5284 21.8095 25.5284C20.3856 25.5284 19.2295 24.3723 19.2295 22.9484V20.4784C19.2295 19.0546 20.3856 17.8984 21.8095 17.8984C23.2333 17.8984 24.3895 19.0546 24.3895 20.4784V22.9484ZM21.8095 18.4084C20.6633 18.4084 19.7295 19.3423 19.7295 20.4884V22.9584C19.7295 24.1046 20.6633 25.0384 21.8095 25.0384C22.9556 25.0384 23.8895 24.1046 23.8895 22.9584V20.4884C23.8895 19.3423 22.9556 18.4084 21.8095 18.4084Z" fill="#8F93A3" stroke="#8F93A3"/>
<path d="M26.1887 21.4219C25.7787 21.4219 25.4387 21.7619 25.4387 22.1719V23.5119C25.4387 25.5119 23.8087 27.1419 21.8087 27.1419C19.8087 27.1419 18.1787 25.5119 18.1787 23.5119V22.1719C18.1787 21.7619 17.8387 21.4219 17.4287 21.4219C17.0187 21.4219 16.6787 21.7619 16.6787 22.1719V23.5119C16.6787 26.0819 18.5887 28.2019 21.0587 28.5719V29.7519C21.0587 30.1619 21.3987 30.5019 21.8087 30.5019C22.2187 30.5019 22.5587 30.1619 22.5587 29.7519V28.5719C25.0287 28.2019 26.9387 26.0919 26.9387 23.5119V22.1719C26.9387 21.7619 26.5987 21.4219 26.1887 21.4219Z" fill="#8F93A3"/>
<path d="M21.3089 21.4184C21.4489 21.5584 21.6389 21.6384 21.8389 21.6384C22.0389 21.6384 22.2289 21.5584 22.3689 21.4184C22.5089 21.2784 22.5889 21.0884 22.5889 20.8884C22.5889 20.7884 22.5689 20.6984 22.5289 20.5984C22.4989 20.5084 22.4389 20.4284 22.3689 20.3584C22.0889 20.0784 21.5889 20.0784 21.3089 20.3584C21.2389 20.4284 21.1889 20.5084 21.1489 20.5984C21.1089 20.6884 21.0889 20.7884 21.0889 20.8884C21.0889 20.9884 21.1089 21.0884 21.1489 21.1784C21.1889 21.2684 21.2389 21.3484 21.3089 21.4184Z" fill="#8F93A3"/>
<path d="M21.4365 23.5586H22.3665C22.7765 23.5586 23.1165 23.2186 23.1165 22.8086C23.1165 22.3986 22.7765 22.0586 22.3665 22.0586H21.4365C21.0265 22.0586 20.6865 22.3986 20.6865 22.8086C20.6865 23.2186 21.0265 23.5586 21.4365 23.5586Z" fill="#8F93A3"/>
</g>
<defs>
<clipPath id="clip0_1927_66640">
<rect width="44" height="44" fill="white" transform="translate(0.0576172)"/>
</clipPath>
</defs>
</svg>
