<svg width="45" height="44" viewBox="0 0 45 44" fill="none" xmlns="http://www.w3.org/2000/svg">
<path d="M26.0576 12.75C27.9644 12.75 27.3191 12.7516 28.3468 12.8898C29.3529 13.025 29.9325 13.2787 30.3557 13.7019C30.8429 14.189 31.0549 14.5667 31.1723 15.2398C31.3047 15.9986 31.3076 15.0809 31.3076 17C31.3076 17.4142 31.6434 17.75 32.0576 17.75C32.4718 17.75 32.8076 17.4142 32.8076 17L32.8076 16.9037C32.8077 15.1045 32.8077 15.8857 32.65 14.982C32.4746 13.9767 32.1008 13.3257 31.4164 12.6412C30.668 11.8929 29.7191 11.5608 28.5466 11.4031C27.4074 11.25 27.9518 11.25 26.1141 11.25H26.0576C25.6434 11.25 25.3076 11.5858 25.3076 12C25.3076 12.4142 25.6434 12.75 26.0576 12.75Z" fill="#8F93A3"/>
<path d="M12.0576 26.25C12.4718 26.25 12.8076 26.5858 12.8076 27C12.8076 28.9191 12.8105 28.0014 12.9429 28.7602C13.0604 29.4333 13.2724 29.811 13.7595 30.2981C14.1827 30.7213 14.7624 30.975 15.7685 31.1102C16.7961 31.2484 16.1508 31.25 18.0576 31.25C18.4718 31.25 18.8076 31.5858 18.8076 32C18.8076 32.4142 18.4718 32.75 18.0576 32.75H18.0012C16.1634 32.75 16.7078 32.75 15.5686 32.5969C14.3962 32.4392 13.4472 32.1071 12.6989 31.3588C12.0144 30.6743 11.6407 30.0233 11.4652 29.018C11.3075 28.1143 11.3076 28.8955 11.3076 27.0964L11.3076 27C11.3076 26.5858 11.6434 26.25 12.0576 26.25Z" fill="#8F93A3"/>
<path d="M32.0576 26.25C32.4718 26.25 32.8076 26.5858 32.8076 27L32.8076 27.0963C32.8077 28.8955 32.8077 28.1143 32.65 29.018C32.4746 30.0233 32.1008 30.6743 31.4164 31.3588C30.668 32.1071 29.7191 32.4392 28.5466 32.5969C27.4074 32.75 27.9518 32.75 26.114 32.75H26.0576C25.6434 32.75 25.3076 32.4142 25.3076 32C25.3076 31.5858 25.6434 31.25 26.0576 31.25C27.9644 31.25 27.3191 31.2484 28.3468 31.1102C29.3529 30.975 29.9325 30.7213 30.3557 30.2981C30.8429 29.811 31.0549 29.4333 31.1723 28.7602C31.3047 28.0014 31.3076 28.9191 31.3076 27C31.3076 26.5858 31.6434 26.25 32.0576 26.25Z" fill="#8F93A3"/>
<path d="M18.0012 11.25H18.0576C18.4718 11.25 18.8076 11.5858 18.8076 12C18.8076 12.4142 18.4718 12.75 18.0576 12.75C16.1508 12.75 16.7961 12.7516 15.7685 12.8898C14.7624 13.025 14.1827 13.2787 13.7595 13.7019C13.2724 14.189 13.0604 14.5667 12.9429 15.2398C12.8105 15.9986 12.8076 15.0809 12.8076 17C12.8076 17.4142 12.4718 17.75 12.0576 17.75C11.6434 17.75 11.3076 17.4142 11.3076 17L11.3076 16.9037C11.3076 15.1045 11.3075 15.8857 11.4652 14.982C11.6407 13.9767 12.0144 13.3257 12.6989 12.6412C13.4472 11.8929 14.3962 11.5608 15.5686 11.4031C16.7078 11.25 16.1635 11.25 18.0012 11.25Z" fill="#8F93A3"/>
<path d="M18.8356 28H25.2796C26.9767 28 27.653 26.986 27.733 25.75L28.0527 20.794C28.1388 19.498 27.0812 18.4 25.7469 18.4C25.3718 18.4 25.0275 18.19 24.8553 17.866L24.4126 16.996C24.1298 16.45 23.3919 16 22.7647 16H21.3567C20.7233 16 19.9855 16.45 19.7026 16.996L19.2599 17.866C19.0877 18.19 18.7434 18.4 18.3683 18.4C17.034 18.4 15.9764 19.498 16.0625 20.794L16.3823 25.75C16.456 26.986 17.1386 28 18.8356 28Z" stroke="#8F93A3" stroke-width="1.5" stroke-linecap="round" stroke-linejoin="round"/>
<path d="M21.0576 20H23.0576" stroke="#8F93A3" stroke-width="1.5" stroke-linecap="round" stroke-linejoin="round"/>
<path d="M22.0576 26C23.1592 26 24.0576 25.1015 24.0576 24C24.0576 22.8985 23.1592 22 22.0576 22C20.9561 22 20.0576 22.8985 20.0576 24C20.0576 25.1015 20.9561 26 22.0576 26Z" stroke="#8F93A3" stroke-width="1.5" stroke-linecap="round" stroke-linejoin="round"/>
</svg>
