<svg width="15" height="18" viewBox="0 0 15 18" fill="none" xmlns="http://www.w3.org/2000/svg">
<path fill-rule="evenodd" clip-rule="evenodd" d="M11.446 0.875C9.95019 0.875 8.73763 2.08756 8.73763 3.58333C8.73763 3.74659 8.75208 3.90647 8.77976 4.06177L4.83755 6.82131C4.81752 6.83534 4.79856 6.85032 4.7807 6.86616C4.3209 6.50622 3.74182 6.29167 3.11263 6.29167C1.61686 6.29167 0.404297 7.50423 0.404297 9C0.404297 10.4958 1.61686 11.7083 3.11263 11.7083C3.74182 11.7083 4.3209 11.4938 4.7807 11.1338C4.79856 11.1497 4.81752 11.1647 4.83755 11.1787L8.77976 13.9382C8.75207 14.0935 8.73763 14.2534 8.73763 14.4167C8.73763 15.9124 9.95019 17.125 11.446 17.125C12.9417 17.125 14.1543 15.9124 14.1543 14.4167C14.1543 12.9209 12.9417 11.7083 11.446 11.7083C10.5686 11.7083 9.78875 12.1255 9.29382 12.7723L5.56101 10.1593C5.72771 9.80785 5.82096 9.41482 5.82096 9C5.82096 8.58518 5.72771 8.19214 5.56101 7.84071L9.29382 5.22775C9.78875 5.87452 10.5686 6.29167 11.446 6.29167C12.9417 6.29167 14.1543 5.0791 14.1543 3.58333C14.1543 2.08756 12.9417 0.875 11.446 0.875ZM9.98763 3.58333C9.98763 2.77792 10.6405 2.125 11.446 2.125C12.2514 2.125 12.9043 2.77792 12.9043 3.58333C12.9043 4.38875 12.2514 5.04167 11.446 5.04167C10.6405 5.04167 9.98763 4.38875 9.98763 3.58333ZM3.11263 7.54167C2.30721 7.54167 1.6543 8.19458 1.6543 9C1.6543 9.80542 2.30721 10.4583 3.11263 10.4583C3.91805 10.4583 4.57096 9.80542 4.57096 9C4.57096 8.19458 3.91805 7.54167 3.11263 7.54167ZM11.446 12.9583C10.6405 12.9583 9.98763 13.6113 9.98763 14.4167C9.98763 15.2221 10.6405 15.875 11.446 15.875C12.2514 15.875 12.9043 15.2221 12.9043 14.4167C12.9043 13.6113 12.2514 12.9583 11.446 12.9583Z" fill="#8F93A3"/>
</svg>
