<svg width="45" height="44" viewBox="0 0 45 44" fill="none" xmlns="http://www.w3.org/2000/svg">
<g clip-path="url(#clip0_1927_69879)">
<path d="M25.0576 31.25H19.0576C16.6316 31.25 15.1285 30.7602 14.2129 29.8447C13.2974 28.9291 12.8076 27.426 12.8076 25V19C12.8076 16.574 13.2974 15.0709 14.2129 14.1553C15.1285 13.2398 16.6316 12.75 19.0576 12.75H25.0576C27.4836 12.75 28.9868 13.2398 29.9023 14.1553C30.8178 15.0709 31.3076 16.574 31.3076 19V25C31.3076 27.426 30.8178 28.9291 29.9023 29.8447C28.9868 30.7602 27.4836 31.25 25.0576 31.25Z" stroke="#8F93A3" stroke-width="1.5" stroke-linecap="round" stroke-linejoin="round"/>
<path d="M19.0576 20C20.1622 20 21.0576 19.1046 21.0576 18C21.0576 16.8954 20.1622 16 19.0576 16C17.953 16 17.0576 16.8954 17.0576 18C17.0576 19.1046 17.953 20 19.0576 20Z" stroke="#8F93A3" stroke-width="1.5" stroke-linecap="round" stroke-linejoin="round"/>
<path d="M14.0576 29L18.3934 25.6674C19.0881 25.1338 20.0907 25.1942 20.7151 25.8083L21.0054 26.1003C21.6913 26.7749 22.7995 26.7749 23.4855 26.1003L27.144 22.5059C27.83 21.8314 28.9381 21.8314 29.6241 22.5059L31.0576 23.9155" stroke="#8F93A3" stroke-width="1.5" stroke-linecap="round" stroke-linejoin="round"/>
</g>
<defs>
<clipPath id="clip0_1927_69879">
<rect width="44" height="44" fill="white" transform="translate(0.0576172)"/>
</clipPath>
</defs>
</svg>
