<svg width="45" height="44" viewBox="0 0 45 44" fill="none" xmlns="http://www.w3.org/2000/svg">
<g clip-path="url(#clip0_1927_20684)">
<path d="M32.0576 19V25C32.0576 25.23 32.0576 25.45 32.0376 25.67C31.9976 25.61 31.9476 25.55 31.8976 25.5C31.8876 25.49 31.8776 25.47 31.8676 25.46C31.0576 24.56 29.8676 24 28.5576 24C27.2976 24 26.1476 24.52 25.3276 25.36C24.5376 26.17 24.0576 27.28 24.0576 28.5C24.0576 29.34 24.2976 30.14 24.7076 30.82C24.9276 31.19 25.2076 31.53 25.5276 31.81C25.5476 31.82 25.5576 31.83 25.5676 31.84C25.6176 31.89 25.6676 31.93 25.7276 31.98C25.5176 32 25.2876 32 25.0576 32H19.0576C14.0576 32 12.0576 30 12.0576 25V19C12.0576 14 14.0576 12 19.0576 12H25.0576C30.0576 12 32.0576 14 32.0576 19Z" stroke="#8F93A3" stroke-width="1.5" stroke-linecap="round" stroke-linejoin="round"/>
<path d="M12.5776 17.1104H31.5376" stroke="#8F93A3" stroke-width="1.5" stroke-linecap="round" stroke-linejoin="round"/>
<path d="M18.5776 12.1104V16.9703" stroke="#8F93A3" stroke-width="1.5" stroke-linecap="round" stroke-linejoin="round"/>
<path d="M25.5376 12.1104V16.5204" stroke="#8F93A3" stroke-width="1.5" stroke-linecap="round" stroke-linejoin="round"/>
<path d="M33.0576 28.5C33.0576 28.86 33.0176 29.21 32.9276 29.55C32.8176 30 32.6376 30.43 32.4076 30.82C31.6276 32.12 30.1976 33 28.5576 33C27.4776 33 26.4976 32.62 25.7376 31.98C25.7276 31.98 25.7276 31.98 25.7276 31.98C25.6676 31.93 25.6176 31.89 25.5676 31.84C25.5576 31.83 25.5476 31.82 25.5276 31.81C25.2076 31.53 24.9276 31.19 24.7076 30.82C24.2976 30.14 24.0576 29.34 24.0576 28.5C24.0576 27.28 24.5376 26.17 25.3276 25.36C26.1476 24.52 27.2976 24 28.5576 24C29.8676 24 31.0576 24.56 31.8676 25.46C31.8776 25.47 31.8876 25.49 31.8976 25.5C31.9476 25.55 31.9976 25.61 32.0376 25.67C32.6776 26.44 33.0576 27.43 33.0576 28.5Z" stroke="#8F93A3" stroke-width="1.5" stroke-miterlimit="10" stroke-linecap="round" stroke-linejoin="round"/>
<path d="M30.0985 29.6817L28.6727 30.5043C28.3711 30.6757 28.0763 30.7648 27.8021 30.7648C27.5965 30.7648 27.4114 30.7168 27.24 30.6209C26.8424 30.3947 26.623 29.9285 26.623 29.3253V27.6801C26.623 27.0768 26.8424 26.6107 27.24 26.3845C27.6376 26.1514 28.1449 26.1925 28.6727 26.501L30.0985 27.3236C30.6264 27.6252 30.9143 28.0502 30.9143 28.5095C30.9143 28.9688 30.6195 29.3733 30.0985 29.6817Z" fill="#8F93A3"/>
</g>
<defs>
<clipPath id="clip0_1927_20684">
<rect width="44" height="44" fill="white" transform="translate(0.0576172)"/>
</clipPath>
</defs>
</svg>
