<svg width="32" height="32" viewBox="0 0 32 32" fill="none" xmlns="http://www.w3.org/2000/svg">
<path fill-rule="evenodd" clip-rule="evenodd" d="M12.5698 10.0857C11.0863 10.0857 9.88372 11.3521 9.88372 12.9143C9.88372 14.4765 11.0863 15.7429 12.5698 15.7429C14.0532 15.7429 15.2558 14.4765 15.2558 12.9143C15.2558 11.3521 14.0532 10.0857 12.5698 10.0857ZM11.3488 12.9143C11.3488 12.2042 11.8955 11.6286 12.5698 11.6286C13.2441 11.6286 13.7907 12.2042 13.7907 12.9143C13.7907 13.6244 13.2441 14.2 12.5698 14.2C11.8955 14.2 11.3488 13.6244 11.3488 12.9143Z" fill="#8F93A3"/>
<path fill-rule="evenodd" clip-rule="evenodd" d="M12.5698 16.2571C11.4018 16.2571 10.3082 16.5048 9.47951 16.9411C8.69461 17.3544 7.93023 18.068 7.93023 19.0857L7.93011 19.15C7.92861 19.6749 7.92609 20.5588 8.72162 21.1652C9.09078 21.4466 9.5779 21.6261 10.1813 21.7404C10.7903 21.8558 11.5708 21.9143 12.5698 21.9143C13.5688 21.9143 14.3492 21.8558 14.9582 21.7404C15.5616 21.6261 16.0488 21.4466 16.4179 21.1652C17.2134 20.5588 17.2109 19.6749 17.2094 19.15L17.2093 19.0857C17.2093 18.068 16.4449 17.3544 15.66 16.9411C14.8313 16.5048 13.7377 16.2571 12.5698 16.2571ZM9.39535 19.0857C9.39535 18.9673 9.50558 18.6523 10.1347 18.3211C10.7201 18.0129 11.58 17.8 12.5698 17.8C13.5596 17.8 14.4195 18.0129 15.0048 18.3211C15.634 18.6523 15.7442 18.9673 15.7442 19.0857C15.7442 19.7075 15.7066 19.8028 15.5588 19.9154C15.4396 20.0063 15.1942 20.1281 14.6988 20.222C14.2089 20.3148 13.5243 20.3714 12.5698 20.3714C11.6153 20.3714 10.9306 20.3148 10.4408 20.222C9.94536 20.1281 9.69992 20.0063 9.58071 19.9154C9.43294 19.8028 9.39535 19.7075 9.39535 19.0857Z" fill="#8F93A3"/>
<path d="M22.3372 16.7714C22.7418 16.7714 23.0698 16.426 23.0698 16C23.0698 15.574 22.7418 15.2286 22.3372 15.2286H18.4302C18.0257 15.2286 17.6977 15.574 17.6977 16C17.6977 16.426 18.0257 16.7714 18.4302 16.7714H22.3372Z" fill="#8F93A3"/>
<path d="M23.0698 12.9143C23.0698 13.3403 22.7418 13.6857 22.3372 13.6857H17.4535C17.0489 13.6857 16.7209 13.3403 16.7209 12.9143C16.7209 12.4882 17.0489 12.1429 17.4535 12.1429H22.3372C22.7418 12.1429 23.0698 12.4882 23.0698 12.9143Z" fill="#8F93A3"/>
<path d="M22.3372 19.8571C22.7418 19.8571 23.0698 19.5118 23.0698 19.0857C23.0698 18.6597 22.7418 18.3143 22.3372 18.3143H19.407C19.0024 18.3143 18.6744 18.6597 18.6744 19.0857C18.6744 19.5118 19.0024 19.8571 19.407 19.8571H22.3372Z" fill="#8F93A3"/>
<path fill-rule="evenodd" clip-rule="evenodd" d="M13.4914 7H17.5086C19.3036 6.99998 20.7254 6.99997 21.8381 7.15751C22.9833 7.31964 23.9102 7.66125 24.6411 8.43099C25.3721 9.20074 25.6965 10.1768 25.8504 11.3827C26 12.5545 26 14.0517 26 15.9419V16.058C26 17.9483 26 19.4455 25.8504 20.6173C25.6965 21.8232 25.3721 22.7993 24.6411 23.569C23.9102 24.3388 22.9833 24.6804 21.8381 24.8425C20.7254 25 19.3036 25 17.5086 25H13.4914C11.6964 25 10.2746 25 9.16189 24.8425C8.01673 24.6804 7.08985 24.3388 6.35889 23.569C5.62793 22.7993 5.30354 21.8232 5.14957 20.6173C4.99997 19.4455 4.99999 17.9483 5 16.058V15.942C4.99999 14.0517 4.99997 12.5545 5.14957 11.3827C5.30354 10.1768 5.62793 9.20074 6.35889 8.43099C7.08985 7.66125 8.01673 7.31964 9.16189 7.15751C10.2746 6.99997 11.6964 6.99998 13.4914 7ZM9.35711 8.68661C8.37442 8.82574 7.80825 9.08666 7.39488 9.52196C6.98152 9.95726 6.73375 10.5535 6.60163 11.5883C6.46667 12.6453 6.46512 14.0387 6.46512 16C6.46512 17.9613 6.46667 19.3547 6.60163 20.4117C6.73375 21.4465 6.98152 22.0427 7.39488 22.478C7.80825 22.9133 8.37442 23.1743 9.35711 23.3134C10.3609 23.4555 11.684 23.4571 13.5465 23.4571H17.4535C19.316 23.4571 20.6391 23.4555 21.6429 23.3134C22.6256 23.1743 23.1917 22.9133 23.6051 22.478C24.0185 22.0427 24.2663 21.4465 24.3984 20.4117C24.5333 19.3547 24.5349 17.9613 24.5349 16C24.5349 14.0387 24.5333 12.6453 24.3984 11.5883C24.2663 10.5535 24.0185 9.95726 23.6051 9.52196C23.1917 9.08666 22.6256 8.82574 21.6429 8.68661C20.6391 8.5445 19.316 8.54286 17.4535 8.54286H13.5465C11.684 8.54286 10.3609 8.5445 9.35711 8.68661Z" fill="#8F93A3"/>
</svg>
