<svg width="32" height="32" viewBox="0 0 32 32" fill="none" xmlns="http://www.w3.org/2000/svg">
<path fill-rule="evenodd" clip-rule="evenodd" d="M15.9426 5.25H16.0574C18.3658 5.24999 20.1748 5.24998 21.5863 5.43975C23.031 5.63399 24.1711 6.03933 25.0659 6.93414C25.9607 7.82895 26.366 8.96897 26.5603 10.4137C26.75 11.8252 26.75 13.6342 26.75 15.9426V16.0574C26.75 16.3718 26.75 16.6769 26.7495 16.9731C26.7498 16.982 26.75 16.991 26.75 17C26.75 17.0099 26.7498 17.0197 26.7494 17.0296C26.746 18.8816 26.7225 20.3793 26.5603 21.5863C26.366 23.031 25.9607 24.1711 25.0659 25.0659C24.1711 25.9607 23.031 26.366 21.5863 26.5603C20.1748 26.75 18.3658 26.75 16.0574 26.75H15.9426C13.6342 26.75 11.8252 26.75 10.4137 26.5603C8.96897 26.366 7.82895 25.9607 6.93414 25.0659C6.03933 24.1711 5.63399 23.031 5.43975 21.5863C5.27747 20.3793 5.25397 18.8816 5.25057 17.0295C5.25019 17.0197 5.25 17.0099 5.25 17C5.25 16.991 5.25016 16.982 5.25047 16.9731C5.25 16.6769 5.25 16.3718 5.25 16.0574V15.9426C5.24999 13.6342 5.24998 11.8252 5.43975 10.4137C5.63399 8.96897 6.03933 7.82895 6.93414 6.93414C7.82895 6.03933 8.96897 5.63399 10.4137 5.43975C11.8252 5.24998 13.6342 5.24999 15.9426 5.25ZM6.7535 17.75C6.76294 19.2526 6.79778 20.43 6.92637 21.3864C7.09825 22.6648 7.42514 23.4355 7.9948 24.0052C8.56445 24.5749 9.33517 24.9018 10.6136 25.0736C11.9136 25.2484 13.6218 25.25 16 25.25C18.3782 25.25 20.0864 25.2484 21.3864 25.0736C22.6648 24.9018 23.4355 24.5749 24.0052 24.0052C24.5749 23.4355 24.9018 22.6648 25.0736 21.3864C25.2022 20.43 25.2371 19.2526 25.2465 17.75H22.8397C21.8659 17.75 21.6113 17.766 21.3975 17.8644C21.1838 17.9627 21.0059 18.1456 20.3722 18.8849L19.7667 19.5913C19.7372 19.6257 19.7082 19.6597 19.6794 19.6933C19.1773 20.2803 18.7796 20.7453 18.2292 20.9984C17.6789 21.2515 17.067 21.2509 16.2945 21.2501C16.2503 21.25 16.2056 21.25 16.1603 21.25H15.8397C15.7944 21.25 15.7497 21.25 15.7055 21.2501C14.933 21.2509 14.3211 21.2515 13.7708 20.9984C13.2204 20.7453 12.8227 20.2803 12.3206 19.6933C12.2918 19.6597 12.2628 19.6257 12.2333 19.5913L11.6278 18.8849C10.9941 18.1456 10.8162 17.9627 10.6025 17.8644C10.3887 17.766 10.1341 17.75 9.16026 17.75H6.7535ZM25.25 16.25H22.8397C22.7944 16.25 22.7497 16.25 22.7055 16.2499C21.933 16.2491 21.3211 16.2485 20.7708 16.5016C20.2204 16.7547 19.8227 17.2197 19.3206 17.8067C19.2918 17.8403 19.2628 17.8743 19.2333 17.9087L18.6278 18.6151C17.9941 19.3544 17.8162 19.5373 17.6025 19.6356C17.3887 19.734 17.1341 19.75 16.1603 19.75H15.8397C14.8659 19.75 14.6113 19.734 14.3975 19.6356C14.1838 19.5373 14.0059 19.3544 13.3722 18.6151L12.7667 17.9087C12.7372 17.8743 12.7082 17.8403 12.6794 17.8067C12.1773 17.2197 11.7796 16.7547 11.2292 16.5016C10.6789 16.2485 10.067 16.2491 9.29454 16.2499C9.25031 16.25 9.20556 16.25 9.16026 16.25H6.75001C6.75 16.1675 6.75 16.0842 6.75 16C6.75 13.6218 6.75159 11.9136 6.92637 10.6136C7.09825 9.33517 7.42514 8.56445 7.9948 7.9948C8.56445 7.42514 9.33517 7.09825 10.6136 6.92637C11.9136 6.75159 13.6218 6.75 16 6.75C18.3782 6.75 20.0864 6.75159 21.3864 6.92637C22.6648 7.09825 23.4355 7.42514 24.0052 7.9948C24.5749 8.56445 24.9018 9.33517 25.0736 10.6136C25.2484 11.9136 25.25 13.6218 25.25 16C25.25 16.0842 25.25 16.1675 25.25 16.25ZM11.25 11C11.25 10.5858 11.5858 10.25 12 10.25H20C20.4142 10.25 20.75 10.5858 20.75 11C20.75 11.4142 20.4142 11.75 20 11.75H12C11.5858 11.75 11.25 11.4142 11.25 11ZM13.25 14.5C13.25 14.0858 13.5858 13.75 14 13.75H18C18.4142 13.75 18.75 14.0858 18.75 14.5C18.75 14.9142 18.4142 15.25 18 15.25H14C13.5858 15.25 13.25 14.9142 13.25 14.5Z" fill="#8F93A3"/>
</svg>
