<svg width="20" height="20" viewBox="0 0 20 20" fill="none" xmlns="http://www.w3.org/2000/svg">
<path d="M10.0165 2.42578C7.25816 2.42578 5.0165 4.66745 5.0165 7.42578V9.83412C5.0165 10.3424 4.79983 11.1174 4.5415 11.5508L3.58316 13.1424C2.9915 14.1258 3.39983 15.2174 4.48316 15.5841C8.07483 16.7841 11.9498 16.7841 15.5415 15.5841C16.5498 15.2508 16.9915 14.0591 16.4415 13.1424L15.4832 11.5508C15.2332 11.1174 15.0165 10.3424 15.0165 9.83412V7.42578C15.0165 4.67578 12.7665 2.42578 10.0165 2.42578Z" stroke="#5E6272" stroke-width="1.5" stroke-miterlimit="10" stroke-linecap="round"/>
<path d="M11.5579 2.66719C11.2996 2.59219 11.0329 2.53385 10.7579 2.50052C9.95794 2.40052 9.19128 2.45885 8.47461 2.66719C8.71628 2.05052 9.31628 1.61719 10.0163 1.61719C10.7163 1.61719 11.3163 2.05052 11.5579 2.66719Z" stroke="#5E6272" stroke-width="1.5" stroke-miterlimit="10" stroke-linecap="round" stroke-linejoin="round"/>
<path d="M12.5166 15.8828C12.5166 17.2578 11.3916 18.3828 10.0166 18.3828C9.33327 18.3828 8.69993 18.0995 8.24993 17.6495C7.79993 17.1995 7.5166 16.5661 7.5166 15.8828" stroke="#5E6272" stroke-width="1.5" stroke-miterlimit="10"/>
</svg>
