<svg width="20" height="20" viewBox="0 0 20 20" fill="none" xmlns="http://www.w3.org/2000/svg">
<path d="M5.18834 10.8543C5.18834 10.8543 9.18782 12.1029 8.89192 14.6814C8.86266 14.9318 8.80738 15.2309 8.67731 15.4683C8.54725 15.7057 8.43669 15.9463 7.90343 16.2292C7.37667 16.5088 6.45646 16.7559 4.95422 17.0486C4.95422 17.0486 4.02426 18.0468 7.58477 17.403C7.58477 17.403 7.85466 17.0778 7.38968 17.455C7.38968 17.455 7.26286 18.7069 9.07076 17.9558C9.07076 17.9558 10.5925 18.3362 12.9337 17.3835C12.9337 17.3835 15.3301 18.5021 14.3644 17.6794C14.3644 17.6794 13.3271 16.7104 14.6083 17.0193C14.6083 17.0193 15.8081 17.3965 16.3934 17.0063C16.3934 17.0063 12.8394 16.3983 12.1338 15.6601C12.1338 15.6601 9.93894 13.2377 13.0572 11.8005C13.0572 11.8005 14.605 11.1306 15.1057 11.0136C15.1057 11.0136 15.3756 10.773 14.2571 10.9518C14.2571 10.9518 12.8134 11.2835 11.7436 11.2477C11.7436 11.2477 10.5372 11.2575 11.8867 8.09039L12.7353 6.32802C12.7353 6.32802 12.9694 5.78825 12.6085 6.15894L12.2248 6.60766C12.2248 6.60766 11.0965 8.41555 10.6315 8.7017C10.6315 8.7017 9.68206 9.59589 8.91468 7.14418C8.91468 7.14418 8.69032 6.0809 8.62854 5.9801C8.62854 5.9801 8.35866 5.71021 8.54725 7.1962C8.54725 7.1962 8.8529 9.58614 8.93094 9.94381C8.93094 9.94381 9.40567 11.9013 7.84815 11.4363C7.84815 11.4363 5.84516 10.7827 5.53301 10.773C5.53626 10.773 5.12656 10.7535 5.18834 10.8543Z" fill="#4592CF"/>
<path d="M8.30357 10.153C8.30357 10.4717 8.04344 10.7318 7.72478 10.7318C7.40612 10.7318 7.146 10.4717 7.146 10.153C7.146 9.83435 7.40612 9.57422 7.72478 9.57422C8.04344 9.57422 8.30357 9.83435 8.30357 10.153Z" fill="#4592CF"/>
<path d="M8.30357 10.153C8.30357 10.4717 8.04344 10.7318 7.72478 10.7318C7.40612 10.7318 7.146 10.4717 7.146 10.153C7.146 9.83435 7.40612 9.57422 7.72478 9.57422C8.04344 9.57422 8.30357 9.83435 8.30357 10.153Z" fill="#4592CF"/>
<path d="M11.0219 7.15549C11.0219 7.53268 10.7163 7.83833 10.3391 7.83833C9.9619 7.83833 9.65625 7.53268 9.65625 7.15549C9.65625 6.77831 9.9619 6.47266 10.3391 6.47266C10.7163 6.47591 11.0219 6.78156 11.0219 7.15549Z" fill="#4592CF"/>
<path d="M13.0831 10.1036C13.0831 10.3995 12.8425 10.6368 12.5499 10.6368C12.254 10.6368 12.0166 10.3962 12.0166 10.1036C12.0166 9.81093 12.2572 9.57031 12.5499 9.57031C12.8458 9.57031 13.0831 9.80768 13.0831 10.1036Z" fill="#4592CF"/>
<path d="M5.40945 10.5053C5.33792 10.4988 5.2989 10.4045 5.2924 10.3297C5.28914 10.3069 5.28914 10.2744 5.29565 10.2451C5.31841 10.1704 5.38019 10.0663 5.41921 10.0273C5.44522 10.0013 5.47449 9.97851 5.5005 9.95575C5.53627 9.92323 5.57203 9.89397 5.60455 9.8582C5.60455 9.85495 5.6078 9.84194 5.6078 9.82894C5.60455 9.82568 5.6013 9.82568 5.59805 9.82568C5.58829 9.81918 5.58179 9.81593 5.57529 9.81593C5.56228 9.81268 5.52976 9.81593 5.51676 9.81918C5.39319 9.82894 5.32166 9.8582 5.21761 9.90372C5.14282 9.93624 5.06478 9.9655 4.99 9.98501C4.94772 9.99802 4.90871 10.011 4.86969 10.024C4.83392 10.037 4.79815 10.0468 4.75913 10.0598C4.53152 10.1281 4.486 10.0728 4.46974 10.0565C4.43072 10.0078 4.42747 9.94599 4.46323 9.89397C4.48925 9.85495 4.56078 9.83219 4.65183 9.80292L4.67784 9.79317C4.84042 9.74114 4.93147 9.71188 5.05828 9.64359C5.07129 9.63709 5.08429 9.62734 5.0973 9.62083C5.11031 9.61433 5.12006 9.60783 5.13307 9.59807C5.12331 9.60132 5.1103 9.60132 5.1038 9.60458C5.08104 9.61108 4.91846 9.65335 4.76889 9.67936C4.69735 9.69237 4.62907 9.69887 4.58354 9.70212C4.56078 9.70537 4.54127 9.70537 4.53477 9.70863C4.43072 9.72814 4.26489 9.7574 4.22587 9.63709C4.21286 9.59482 4.21936 9.5558 4.24213 9.52654C4.28765 9.46801 4.3852 9.45175 4.47949 9.43874C4.52502 9.43224 4.65508 9.40623 4.79165 9.37046C4.83717 9.35745 4.88269 9.34445 4.92496 9.33469C4.93472 9.33144 4.94447 9.32819 4.95423 9.32819C4.95423 9.32819 4.95423 9.32819 4.95098 9.32819C4.94772 9.32819 4.94447 9.32819 4.94122 9.32819C4.93797 9.32819 4.93472 9.32819 4.93147 9.32819H4.92822C4.92496 9.32819 4.92171 9.32819 4.92171 9.32819H4.91846C4.91521 9.32819 4.91521 9.32819 4.91196 9.32819H4.90871C4.90545 9.32819 4.90545 9.32819 4.9022 9.32819C4.89895 9.32819 4.89895 9.32819 4.8957 9.32819H4.89245C4.8892 9.32819 4.8892 9.32819 4.88594 9.32819H4.88269C4.87944 9.32819 4.87619 9.32819 4.87294 9.32819C4.75263 9.33469 4.62582 9.3542 4.59655 9.3607L4.58029 9.36396C4.4925 9.38347 4.41121 9.40298 4.35918 9.37371C4.32992 9.35745 4.2974 9.32494 4.2909 9.27616C4.28765 9.25015 4.29415 9.22414 4.31041 9.19812C4.33642 9.13959 4.43722 9.11358 4.54778 9.09407C4.59005 9.08432 4.80791 9.04855 4.9022 9.03879C4.96398 9.03229 5.01601 9.02579 5.06478 9.02254C5.10055 9.01928 5.13632 9.01603 5.16558 9.01278C5.17534 9.01278 5.18509 9.00953 5.1916 9.00953C5.18834 9.00628 5.18184 9.00628 5.17859 9.00303C5.16558 8.99652 5.06478 8.96076 4.95423 8.93474C4.9022 8.92174 4.84692 8.91198 4.79815 8.90223C4.72336 8.88922 4.66483 8.87621 4.63232 8.86321C4.61281 8.8567 4.55103 8.82419 4.54127 8.76566C4.53802 8.72664 4.54452 8.69737 4.56729 8.67787C4.58029 8.66486 4.61281 8.6421 4.65833 8.6356C4.70711 8.62909 4.76889 8.63559 4.8014 8.63885C4.91521 8.6551 4.99975 8.67136 5.08429 8.69087L5.12006 8.70063C5.22086 8.72664 5.32816 8.75265 5.45172 8.75265C5.51351 8.75265 5.58179 8.7494 5.64357 8.74615C5.68259 8.7429 5.71836 8.7429 5.75412 8.73965C5.87443 8.7364 5.97523 8.73639 6.05327 8.76566H6.05652C6.05652 8.76566 6.05652 8.76566 6.05978 8.76566C6.05978 8.76566 6.05978 8.76566 6.06303 8.76566C6.06303 8.76566 6.06303 8.76566 6.06628 8.76566C6.06628 8.76566 6.06628 8.76566 6.06953 8.76566C6.07278 8.76566 6.07278 8.76566 6.07278 8.76566H6.07603H6.07928C6.07928 8.76566 6.07929 8.76566 6.08254 8.76566H6.08579H6.08904H6.09229H6.09554C6.0988 8.76566 6.0988 8.76566 6.10205 8.76891H6.1053H6.10855H6.1118C6.1118 8.76891 6.11505 8.76891 6.11505 8.77216C6.11505 8.77216 6.1183 8.77216 6.1183 8.77541C6.12156 8.77541 6.12156 8.77867 6.12481 8.77867C6.12481 8.77867 6.12806 8.77867 6.12806 8.78192C6.12806 8.78192 6.13131 8.78192 6.13131 8.78517C6.13131 8.78517 6.13456 8.78517 6.13456 8.78842C6.13456 8.78842 6.13781 8.78842 6.13781 8.79167C6.13781 8.79167 6.14107 8.79167 6.14107 8.79492L6.14432 8.79818L6.14757 8.80143C6.15082 8.80468 6.15082 8.80468 6.15407 8.80793L6.15732 8.81118L6.16057 8.81443L6.16383 8.81768L6.16708 8.82094L6.17033 8.82419C6.17358 8.82744 6.17683 8.83069 6.17683 8.83069L6.18009 8.83394L6.18334 8.83719L6.18659 8.84045L6.18984 8.8437L6.19309 8.84695L6.19634 8.8502L6.1996 8.85345C6.1996 8.8567 6.20285 8.8567 6.20285 8.8567C6.23861 8.90223 6.27763 8.96726 6.3134 9.0583C6.3134 9.06156 6.31665 9.06156 6.31665 9.06481C6.31665 9.06806 6.31665 9.06806 6.3199 9.07131C6.3199 9.07131 6.3199 9.07456 6.32316 9.07456V9.07781V9.08107V9.08432V9.08757V9.09082V9.09407V9.09732V9.10058V9.10383V9.10708V9.11033V9.11358V9.11683V9.12008C6.32316 9.12008 6.32316 9.12009 6.32316 9.12334V9.12659C6.32316 9.12659 6.32316 9.12659 6.32316 9.12984V9.13309C6.32316 9.13309 6.32316 9.13309 6.32316 9.13634V9.13959C6.32316 9.13959 6.32316 9.13959 6.32316 9.14285C6.32316 9.1461 6.32316 9.1461 6.32316 9.1461C6.32316 9.1461 6.32316 9.1461 6.32316 9.14935C6.32316 9.1526 6.32316 9.1526 6.32316 9.15585C6.32641 9.16236 6.32641 9.16886 6.32966 9.17536C6.32966 9.17861 6.32966 9.17861 6.32966 9.18187C6.32966 9.18512 6.32966 9.18512 6.32966 9.18512V9.18837V9.19162C6.32966 9.19162 6.32966 9.19162 6.32966 9.19487V9.19812C6.32966 9.19812 6.32966 9.19812 6.32966 9.20137V9.20463C6.32966 9.20463 6.32966 9.20463 6.32966 9.20788V9.21113C6.32966 9.21113 6.32966 9.21113 6.32966 9.21438V9.21763C6.32966 9.21763 6.32966 9.21763 6.32966 9.22088V9.22414V9.22739V9.23064C6.32966 9.23389 6.32966 9.23389 6.32966 9.23389C6.32966 9.23714 6.32966 9.23714 6.32966 9.24039C6.32966 9.24039 6.32966 9.24039 6.32966 9.24365C6.32966 9.24365 6.32966 9.24365 6.32966 9.2469C6.35242 9.40297 6.3134 9.46801 6.3134 9.46801C6.26463 9.59157 6.17683 9.68587 6.10855 9.7509C6.07928 9.78016 6.05327 9.80943 6.02726 9.83869C5.98824 9.88421 5.94597 9.93299 5.88744 9.97851C5.85818 10.0013 5.82566 10.024 5.79314 10.05C5.72811 10.0988 5.65983 10.1476 5.61431 10.1964C5.57529 10.2386 5.53301 10.2809 5.48749 10.3167C5.48099 10.3199 5.47123 10.3362 5.45823 10.3524C5.48424 10.4663 5.45172 10.5085 5.40945 10.5053Z" fill="#8F3F97"/>
<path d="M5.68265 8.38177C5.61762 8.31999 5.65014 8.19968 5.70216 8.11513C5.71517 8.08912 5.73793 8.05661 5.7672 8.03384C5.84523 7.97206 5.98505 7.91679 6.05334 7.90703C6.09886 7.90053 6.14438 7.89728 6.18665 7.89402C6.24518 7.89077 6.30371 7.88752 6.36224 7.87452C6.36549 7.87126 6.3785 7.86151 6.385 7.8485C6.385 7.84525 6.38175 7.842 6.38175 7.83875C6.3785 7.82574 6.372 7.81599 6.36875 7.81273C6.35899 7.79973 6.32322 7.78022 6.31022 7.77046C6.18015 7.68592 6.08911 7.66316 5.95579 7.63064C5.85824 7.60788 5.76069 7.57862 5.6729 7.5396C5.62413 7.52009 5.57535 7.50383 5.52658 7.48757C5.48431 7.47132 5.43878 7.45831 5.39326 7.4388C5.12013 7.33475 5.11687 7.24695 5.11687 7.21769C5.11362 7.13965 5.15589 7.07462 5.23068 7.05186C5.28596 7.03235 5.37375 7.06161 5.48105 7.10388L5.51357 7.11689C5.71192 7.18843 5.82247 7.22744 5.99481 7.25346C6.01432 7.25671 6.03058 7.25671 6.05009 7.25996C6.06634 7.26321 6.0826 7.26321 6.10211 7.26646C6.08911 7.25996 6.07935 7.25346 6.06635 7.25021C6.03708 7.24045 5.85174 7.15916 5.68591 7.07137C5.60787 7.0291 5.53633 6.98683 5.48756 6.95431C5.4648 6.93805 5.44529 6.9283 5.43553 6.92179C5.31847 6.86001 5.13638 6.76572 5.18841 6.61289C5.20792 6.55761 5.24044 6.52835 5.28921 6.51534C5.377 6.49258 5.48431 6.54786 5.58511 6.60964C5.63063 6.6389 5.7802 6.71044 5.94278 6.77872C5.99806 6.80148 6.05009 6.82424 6.09886 6.84375C6.10862 6.84701 6.12162 6.85351 6.13138 6.85676C6.13138 6.85676 6.13138 6.85676 6.12813 6.85676C6.12487 6.85351 6.12162 6.85351 6.11837 6.85026C6.11512 6.84701 6.11187 6.84701 6.10862 6.84375C6.10862 6.84375 6.10862 6.84375 6.10536 6.8405C6.10211 6.83725 6.10211 6.83725 6.09886 6.834L6.09561 6.83075C6.09236 6.83075 6.09236 6.8275 6.08911 6.8275L6.08585 6.82424C6.0826 6.82424 6.0826 6.82099 6.07935 6.82099C6.0761 6.82099 6.0761 6.81774 6.07285 6.81774L6.0696 6.81449C6.06634 6.81449 6.06634 6.81124 6.06309 6.81124C6.06309 6.81124 6.05984 6.81124 6.05984 6.80799C6.05659 6.80474 6.05334 6.80474 6.05009 6.80148C5.92652 6.72019 5.78996 6.6389 5.75744 6.6259L5.74118 6.61939C5.64038 6.57387 5.54934 6.52835 5.52007 6.46006C5.50382 6.42105 5.49731 6.36252 5.52658 6.31049C5.54284 6.28123 5.56885 6.25846 5.60136 6.24546C5.66965 6.20319 5.78671 6.25846 5.91027 6.32025C5.95904 6.34301 6.19641 6.47307 6.29721 6.5316C6.36224 6.57062 6.41752 6.60639 6.46954 6.63565C6.50856 6.65841 6.54108 6.68117 6.5736 6.70068C6.5866 6.70719 6.59636 6.71369 6.60286 6.71694C6.59961 6.71044 6.59961 6.70719 6.59636 6.70068C6.58985 6.68443 6.51832 6.57387 6.43053 6.46332C6.38825 6.41129 6.34273 6.35926 6.30371 6.31049C6.24193 6.23895 6.19316 6.18368 6.17365 6.14466C6.16064 6.1219 6.12162 6.04386 6.16064 5.97883C6.18665 5.93655 6.21592 5.91379 6.25169 5.90729C6.2712 5.90404 6.32322 5.90729 6.36875 5.9333C6.42077 5.96257 6.47605 6.01459 6.50531 6.04386C6.60286 6.14466 6.6744 6.2227 6.73943 6.31049L6.76869 6.34626C6.84998 6.45031 6.93127 6.55436 7.05158 6.64866C7.11336 6.69418 7.1784 6.74295 7.24343 6.78848C7.28245 6.81449 7.31822 6.8405 7.35398 6.86652C7.47429 6.95431 7.57184 7.0291 7.62387 7.12014L7.62712 7.12339C7.62712 7.12339 7.62712 7.12339 7.62712 7.12664C7.62712 7.12664 7.62712 7.12664 7.63037 7.1299C7.63037 7.1299 7.63037 7.1299 7.63037 7.13315C7.63037 7.13315 7.63037 7.13315 7.63362 7.1364C7.63362 7.1364 7.63362 7.1364 7.63362 7.13965L7.63687 7.1429C7.63687 7.1429 7.63687 7.1429 7.64013 7.14615C7.64013 7.14615 7.64012 7.14941 7.64338 7.14941C7.64338 7.14941 7.64338 7.14941 7.64663 7.15266C7.64663 7.15266 7.64663 7.15591 7.64988 7.15591C7.64988 7.15591 7.64988 7.15916 7.65313 7.15916C7.65313 7.15916 7.65313 7.16241 7.65638 7.16241C7.65638 7.16241 7.65638 7.16566 7.65963 7.16566C7.65963 7.16892 7.66289 7.16892 7.66289 7.17217C7.66289 7.17217 7.66289 7.17542 7.66614 7.17542C7.66614 7.17542 7.66614 7.17867 7.66939 7.17867C7.66939 7.17867 7.66939 7.18192 7.67264 7.18192C7.67264 7.18192 7.67264 7.18517 7.67589 7.18517C7.67589 7.18517 7.67589 7.18843 7.67914 7.18843C7.67914 7.19168 7.68239 7.19493 7.68239 7.19818C7.68239 7.19818 7.6824 7.20143 7.68565 7.20143C7.68565 7.20468 7.68565 7.20468 7.6889 7.20468V7.20793C7.6889 7.21119 7.6889 7.21119 7.69215 7.21119V7.21444C7.69215 7.21769 7.69215 7.21769 7.6954 7.22094C7.6954 7.22419 7.6954 7.22419 7.6954 7.22744C7.6954 7.2307 7.69865 7.23395 7.69865 7.24045C7.69865 7.2437 7.69865 7.2437 7.69865 7.24695C7.69865 7.25021 7.69865 7.25021 7.69865 7.25346C7.69865 7.25671 7.69865 7.25671 7.69865 7.25996C7.69865 7.26321 7.69865 7.26321 7.69865 7.26646C7.69865 7.26972 7.69865 7.26972 7.69865 7.27297C7.69865 7.27622 7.69865 7.28272 7.70191 7.28597C7.70191 7.28923 7.70191 7.28923 7.70191 7.29248C7.70191 7.29573 7.70191 7.29573 7.70191 7.29898C7.70191 7.30223 7.70191 7.30223 7.70191 7.30548C7.70191 7.30873 7.70191 7.30873 7.70191 7.31199C7.70191 7.31524 7.70191 7.31524 7.70191 7.31849C7.70191 7.32174 7.70191 7.32499 7.70191 7.32499C7.70191 7.32824 7.70191 7.32824 7.70191 7.3315C7.70191 7.3315 7.70191 7.3315 7.70191 7.33475C7.70191 7.338 7.70191 7.34125 7.70191 7.34125C7.70191 7.41604 7.69215 7.50708 7.65963 7.62739C7.65963 7.63064 7.65638 7.6339 7.65638 7.63715C7.65638 7.6404 7.65638 7.6404 7.65313 7.64365C7.65313 7.6469 7.65313 7.6469 7.64988 7.65015V7.65341C7.64988 7.65666 7.64988 7.65666 7.64663 7.65991V7.66316C7.64663 7.66641 7.64663 7.66641 7.64338 7.66966V7.67291C7.64338 7.67617 7.64338 7.67617 7.64013 7.67942V7.68267C7.64013 7.68592 7.64012 7.68592 7.63687 7.68917V7.69242C7.63687 7.69568 7.63687 7.69568 7.63362 7.69568V7.69893C7.63362 7.70218 7.63362 7.70218 7.63037 7.70218V7.70543C7.63037 7.70868 7.63037 7.70868 7.62712 7.70868V7.71194C7.62712 7.71519 7.62712 7.71519 7.62387 7.71844V7.72169C7.62387 7.72494 7.62387 7.72494 7.62062 7.72819V7.73144C7.62062 7.7347 7.62062 7.7347 7.61736 7.73795V7.7412C7.61736 7.74445 7.61411 7.74445 7.61411 7.7477C7.61411 7.7477 7.61411 7.7477 7.61411 7.75095C7.61411 7.75421 7.61086 7.75421 7.61086 7.75746C7.60761 7.76396 7.60436 7.77372 7.6011 7.78022C7.6011 7.78347 7.59785 7.78347 7.59785 7.78672C7.59785 7.78997 7.5946 7.78997 7.5946 7.79323C7.5946 7.79323 7.5946 7.79322 7.5946 7.79648C7.5946 7.79973 7.5946 7.79973 7.59135 7.80298C7.59135 7.80298 7.59135 7.80298 7.59135 7.80623C7.59135 7.80948 7.59135 7.80948 7.5881 7.81273C7.5881 7.81273 7.5881 7.81273 7.5881 7.81599C7.5881 7.81599 7.5881 7.81924 7.58485 7.81924C7.58485 7.81924 7.58485 7.81924 7.58485 7.82249L7.5816 7.82574C7.5816 7.82574 7.5816 7.82574 7.5816 7.82899C7.5816 7.82899 7.5816 7.83224 7.57834 7.83224C7.57834 7.83224 7.57834 7.83224 7.57834 7.8355L7.57509 7.83875C7.57509 7.83875 7.57509 7.83875 7.57509 7.842L7.57184 7.84525C7.57184 7.8485 7.56859 7.8485 7.56859 7.8485C7.56859 7.85175 7.56534 7.85175 7.56534 7.85175C7.56534 7.85501 7.56209 7.855 7.56209 7.85826C7.56209 7.86151 7.55883 7.86151 7.55883 7.86476C7.55883 7.86476 7.55883 7.86476 7.55883 7.86801C7.55883 7.86801 7.55883 7.86801 7.55883 7.87126C7.46454 8.0436 7.38 8.08262 7.37674 8.08262C7.23367 8.17041 7.0841 8.19642 6.96704 8.21268C6.91502 8.21919 6.86624 8.22894 6.82072 8.2387C6.74918 8.25495 6.6744 8.27121 6.58335 8.27446C6.53783 8.27446 6.48905 8.27446 6.44028 8.27446C6.34273 8.27121 6.23868 8.27121 6.15739 8.28747C6.08911 8.30048 6.01757 8.31023 5.94603 8.31348C5.93628 8.31348 5.91677 8.32324 5.89076 8.32974C5.78345 8.40128 5.72167 8.41753 5.68265 8.38177Z" fill="#EE518B"/>
<path d="M6.62541 5.53976C6.5994 5.47473 6.66443 5.39994 6.72621 5.35442C6.74572 5.34141 6.77173 5.32516 6.79775 5.31865C6.87253 5.30239 6.98959 5.30565 7.04162 5.3219C7.07739 5.33166 7.10665 5.34466 7.13917 5.35767C7.18144 5.37393 7.22371 5.39019 7.26923 5.39994C7.27248 5.39994 7.28549 5.39669 7.29524 5.39019C7.29524 5.38694 7.29524 5.38368 7.29524 5.38043C7.29524 5.37068 7.29524 5.36092 7.29524 5.35767C7.29199 5.34466 7.27573 5.31865 7.26923 5.3089C7.2042 5.2081 7.14892 5.16257 7.06438 5.09429C7.0026 5.04552 6.94407 4.99349 6.89204 4.93821C6.86603 4.90895 6.83677 4.87968 6.8075 4.85367C6.78149 4.83091 6.75547 4.8049 6.72946 4.77563C6.57013 4.61305 6.59615 4.55127 6.6059 4.52851C6.62866 4.47323 6.68069 4.44072 6.74247 4.44722C6.78799 4.45047 6.84002 4.49925 6.9018 4.56428L6.92131 4.58379C7.03836 4.69759 7.1034 4.76263 7.2172 4.83741C7.23021 4.84392 7.23997 4.85367 7.25622 4.86018C7.26598 4.86668 7.27899 4.87318 7.29199 4.88294C7.28549 4.87318 7.27898 4.86668 7.27248 4.86018C7.25622 4.84392 7.14892 4.72686 7.06113 4.6098C7.01886 4.55452 6.98309 4.49925 6.96033 4.46348C6.94732 4.44397 6.93757 4.43096 6.93431 4.42446C6.87253 4.34317 6.77498 4.21961 6.85953 4.12531C6.89204 4.09279 6.92456 4.08304 6.96033 4.08629C7.02861 4.0993 7.08714 4.17408 7.13917 4.24887C7.16193 4.28464 7.24647 4.38219 7.33751 4.48299C7.36678 4.5155 7.39929 4.55127 7.42856 4.58054C7.43506 4.58704 7.44157 4.59354 7.44807 4.60005C7.44807 4.60005 7.44807 4.60005 7.44807 4.59679C7.44807 4.59354 7.44482 4.59029 7.44482 4.58704C7.44482 4.58379 7.44157 4.58054 7.44157 4.58054C7.44157 4.58054 7.44157 4.58054 7.44157 4.57728C7.44157 4.57403 7.43831 4.57403 7.43831 4.57078C7.43831 4.57078 7.43831 4.56753 7.43506 4.56753C7.43506 4.56428 7.43181 4.56428 7.43181 4.56103C7.43181 4.56103 7.43181 4.55778 7.42856 4.55778L7.42531 4.55452C7.42531 4.55127 7.42531 4.55127 7.42206 4.55127C7.42206 4.55127 7.42206 4.54802 7.4188 4.54802C7.4188 4.54477 7.41555 4.54477 7.41555 4.54152C7.41555 4.54152 7.41555 4.53827 7.4123 4.53827C7.4123 4.53501 7.40905 4.53176 7.40905 4.53176C7.35052 4.43421 7.27898 4.33341 7.25947 4.31065L7.24972 4.3009C7.19444 4.23587 7.14242 4.17409 7.14567 4.11881C7.14567 4.08629 7.15868 4.04077 7.19769 4.01476C7.22046 3.9985 7.24322 3.992 7.27248 3.99525C7.33426 3.98874 7.39929 4.06353 7.46758 4.14807C7.49359 4.18059 7.6204 4.34967 7.67243 4.42446C7.70495 4.47323 7.73421 4.5155 7.76022 4.55452C7.77973 4.58379 7.79599 4.6098 7.81225 4.63256C7.81875 4.64232 7.822 4.64882 7.82851 4.65532C7.82851 4.65207 7.82851 4.64557 7.82851 4.64232C7.82851 4.62931 7.8155 4.52526 7.78949 4.41796C7.77648 4.36593 7.76347 4.31716 7.74722 4.26838C7.72771 4.19685 7.71145 4.14157 7.7082 4.10905C7.7082 4.08954 7.70495 4.02126 7.75372 3.98874C7.78624 3.96598 7.8155 3.95948 7.84151 3.96923C7.85777 3.97248 7.89029 3.99199 7.9163 4.02451C7.94231 4.06353 7.96507 4.11881 7.97483 4.14807C8.0106 4.25212 8.03336 4.33016 8.05287 4.41145L8.06262 4.44722C8.08538 4.54477 8.10814 4.64882 8.16342 4.75287C8.19269 4.8049 8.22195 4.86018 8.25447 4.9122C8.27398 4.94472 8.29024 4.97398 8.30649 5.00325C8.36502 5.10405 8.40729 5.18859 8.41705 5.26988V5.27313C8.41705 5.27313 8.41705 5.27313 8.41705 5.27638C8.41705 5.27638 8.41705 5.27638 8.41705 5.27963C8.41705 5.27963 8.41705 5.27963 8.41705 5.28288C8.41705 5.28288 8.41705 5.28288 8.41705 5.28614C8.41705 5.28614 8.41705 5.28614 8.41705 5.28939V5.29264C8.41705 5.29264 8.41705 5.29264 8.41705 5.29589V5.29914V5.30239V5.30565V5.3089V5.31215V5.3154C8.41705 5.31865 8.41705 5.31865 8.41705 5.3219V5.32515V5.32841V5.33166V5.33491V5.33816C8.41705 5.34141 8.41705 5.34141 8.41705 5.34467V5.34792V5.35117V5.35442V5.35767V5.36092V5.36417V5.36743C8.41705 5.37068 8.41705 5.37393 8.4138 5.37718V5.38043V5.38368V5.38694V5.39019V5.39344C8.4138 5.39669 8.41055 5.39994 8.41055 5.40319C8.41055 5.40645 8.41055 5.40645 8.41055 5.40645C8.41055 5.4097 8.41054 5.4097 8.40729 5.41295C8.40729 5.41295 8.40729 5.4162 8.40404 5.4162C8.40404 5.41945 8.40404 5.41945 8.40079 5.4227C8.40079 5.4227 8.40079 5.42596 8.39754 5.42596C8.39754 5.42921 8.39754 5.42921 8.39429 5.43246C8.39429 5.43571 8.39429 5.43571 8.39104 5.43896C8.39104 5.44221 8.38778 5.44221 8.38778 5.44546C8.36502 5.49749 8.326 5.56252 8.26422 5.63406C8.26097 5.63731 8.26097 5.63731 8.26097 5.64056L8.25772 5.64381L8.25447 5.64706C8.25447 5.64706 8.25447 5.64706 8.25122 5.65032L8.24796 5.65357C8.24796 5.65357 8.24796 5.65357 8.24471 5.65682L8.24146 5.66007C8.24146 5.66007 8.24146 5.66007 8.23821 5.66332L8.23496 5.66657C8.23496 5.66657 8.23496 5.66657 8.23171 5.66983L8.22846 5.67308C8.22846 5.67308 8.22846 5.67308 8.2252 5.67633L8.22195 5.67958C8.22195 5.67958 8.22195 5.67958 8.2187 5.68283L8.21545 5.68608C8.21545 5.68608 8.21545 5.68608 8.2122 5.68934L8.20894 5.69259C8.20894 5.69259 8.20895 5.69259 8.20569 5.69584L8.20244 5.69909C8.20244 5.69909 8.20244 5.69909 8.19919 5.70234L8.19594 5.70559C8.19594 5.70559 8.19594 5.70559 8.19594 5.70885L8.19269 5.7121L8.18944 5.71535L8.18618 5.7186C8.18293 5.72185 8.17643 5.72835 8.17318 5.73161L8.16993 5.73486L8.16667 5.73811L8.16342 5.74136L8.16017 5.74461L8.15692 5.74786L8.15367 5.75112C8.15367 5.75112 8.15042 5.75112 8.15042 5.75437L8.14717 5.75762L8.14391 5.76087L8.14066 5.76412L8.13741 5.76737L8.13416 5.77063C8.13091 5.77063 8.13091 5.77388 8.12765 5.77388C8.12765 5.77388 8.12766 5.77388 8.1244 5.77388C8.00084 5.86492 7.92931 5.86492 7.92605 5.86492C7.79599 5.88118 7.68218 5.85192 7.59439 5.82265C7.55537 5.80965 7.5196 5.80314 7.48058 5.79339C7.42531 5.78038 7.36678 5.76737 7.30175 5.74136C7.26923 5.72835 7.23671 5.7121 7.20095 5.69584C7.13266 5.66332 7.06113 5.62756 6.9961 5.61455C6.94407 5.60154 6.88879 5.58528 6.83677 5.56252C6.83026 5.55927 6.814 5.55927 6.79124 5.55602C6.69044 5.58854 6.64167 5.57878 6.62541 5.53976Z" fill="#EE3A3A"/>
<path d="M10.1052 5.29095C10.0856 5.24217 10.0109 5.23567 9.95233 5.24542C9.93607 5.24868 9.91006 5.25193 9.8938 5.26493C9.84502 5.2942 9.78324 5.35923 9.76373 5.395C9.75073 5.41776 9.74097 5.44377 9.72797 5.46653C9.71171 5.49905 9.6987 5.52831 9.67919 5.56083C9.67594 5.56083 9.66944 5.56733 9.65968 5.56733C9.65643 5.56408 9.65643 5.56408 9.65318 5.56408C9.64668 5.56083 9.64342 5.55433 9.64017 5.55108C9.63692 5.54132 9.63042 5.51856 9.63042 5.50881C9.61091 5.42101 9.61741 5.36248 9.62717 5.28444C9.63692 5.22591 9.64017 5.16413 9.63692 5.10886C9.63692 5.07634 9.63692 5.04708 9.63692 5.01781C9.63692 4.9918 9.64017 4.96253 9.64017 4.93327C9.64017 4.76093 9.5914 4.73817 9.57514 4.73167C9.53287 4.71216 9.48735 4.72191 9.45808 4.75768C9.43532 4.7837 9.43207 4.83897 9.43207 4.90726V4.92677C9.42882 5.05033 9.42882 5.12186 9.40606 5.22266C9.4028 5.23242 9.39955 5.24542 9.3963 5.25518C9.39305 5.26493 9.39305 5.27469 9.3898 5.28444C9.3898 5.27794 9.3898 5.26819 9.3898 5.26168C9.3898 5.24542 9.38655 5.12511 9.37354 5.01131C9.36704 4.95928 9.35728 4.91051 9.35078 4.87799C9.34753 4.86173 9.34428 4.84873 9.34428 4.84222C9.33452 4.76419 9.32152 4.64388 9.22722 4.64062C9.19145 4.64062 9.16869 4.65038 9.15243 4.67314C9.11991 4.71541 9.12967 4.78695 9.13942 4.85848C9.14593 4.891 9.15243 4.98855 9.15568 5.0926C9.15568 5.12837 9.15894 5.16088 9.15894 5.1934C9.15894 5.1999 9.15894 5.20641 9.15894 5.21291C9.15894 5.20966 9.15893 5.20966 9.15568 5.20641C9.15568 5.20315 9.15568 5.20315 9.15243 5.1999C9.15243 5.1999 9.15243 5.1999 9.15243 5.19665C9.15243 5.1934 9.15243 5.1934 9.15243 5.19015V5.1869V5.18364V5.18039V5.17714V5.17389V5.17064V5.16739V5.16413C9.15243 5.16088 9.15243 5.16088 9.15243 5.15763C9.13292 5.07309 9.11666 4.97879 9.11666 4.95928V4.94953C9.11341 4.8845 9.10691 4.82271 9.07764 4.79345C9.06139 4.77719 9.02887 4.75768 8.9931 4.76419C8.97359 4.76744 8.95408 4.77719 8.94108 4.79345C8.90531 4.82271 8.90856 4.8975 8.91831 4.97879C8.92157 5.01131 8.94108 5.17064 8.95408 5.23892C8.96059 5.28444 8.97034 5.32021 8.97684 5.35598C8.98335 5.38199 8.9866 5.40801 8.98985 5.42751C8.98985 5.43402 8.9931 5.44052 8.9931 5.44702C8.98985 5.44377 8.9866 5.44377 8.9866 5.44052C8.98009 5.43402 8.93132 5.36899 8.88905 5.29745C8.86954 5.26168 8.85003 5.22591 8.83377 5.1934C8.80776 5.14462 8.785 5.10561 8.77199 5.0861C8.76224 5.07309 8.72647 5.03732 8.6842 5.04382C8.65493 5.05033 8.63542 5.06008 8.62567 5.07959C8.61917 5.08935 8.60941 5.11861 8.61591 5.15113C8.62242 5.1869 8.63868 5.22917 8.64843 5.25193C8.6842 5.32671 8.71346 5.38199 8.74598 5.44052L8.75899 5.46328C8.79801 5.52831 8.84028 5.59985 8.86629 5.68439C8.8793 5.72666 8.8923 5.77544 8.90206 5.82096C8.90856 5.84697 8.91506 5.87299 8.92157 5.899C8.94433 5.98354 8.96384 6.05508 9.00286 6.10385V6.1071C9.00286 6.1071 9.00286 6.11035 9.00611 6.11035C9.00611 6.11035 9.00611 6.11035 9.00611 6.1136C9.00611 6.1136 9.00611 6.1136 9.00611 6.11686C9.00611 6.11686 9.00611 6.11686 9.00611 6.12011C9.00611 6.12011 9.00611 6.12011 9.00611 6.12336L9.00936 6.12661C9.00936 6.12661 9.00936 6.12661 9.01261 6.12986C9.01261 6.12986 9.01261 6.12986 9.01586 6.13311C9.01586 6.13311 9.01586 6.13311 9.01586 6.13637C9.01586 6.13637 9.01586 6.13637 9.01912 6.13962C9.01912 6.13962 9.01911 6.13962 9.02237 6.14287L9.02562 6.14612C9.02562 6.14612 9.02562 6.14612 9.02887 6.14937C9.02887 6.14937 9.02887 6.14937 9.03212 6.15262C9.03212 6.15262 9.03212 6.15262 9.03537 6.15588C9.03537 6.15588 9.03862 6.15588 9.03862 6.15913C9.03862 6.15913 9.03863 6.15913 9.04188 6.16238C9.04188 6.16238 9.04513 6.16238 9.04513 6.16563C9.04513 6.16563 9.04838 6.16563 9.04838 6.16888C9.05163 6.16888 9.05163 6.17213 9.05488 6.17213C9.05488 6.17213 9.05813 6.17213 9.05813 6.17539C9.05813 6.17539 9.06139 6.17539 9.06139 6.17864C9.06139 6.17864 9.06464 6.17864 9.06464 6.18189C9.06464 6.18189 9.06789 6.18189 9.06789 6.18514C9.06789 6.18514 9.07114 6.18514 9.07114 6.18839C9.07439 6.18839 9.07439 6.19164 9.07764 6.19164C9.07764 6.19164 9.08089 6.19164 9.08089 6.19489C9.08089 6.19489 9.08415 6.19489 9.08415 6.19815C9.08415 6.19815 9.0874 6.19815 9.0874 6.2014C9.0874 6.2014 9.09065 6.2014 9.09065 6.20465C9.09065 6.20465 9.0939 6.20465 9.0939 6.2079C9.0939 6.2079 9.09715 6.2079 9.09715 6.21115C9.09715 6.21115 9.10041 6.21115 9.10041 6.2144C9.10041 6.2144 9.10366 6.2144 9.10366 6.21766C9.14593 6.23391 9.19795 6.24692 9.26949 6.25342C9.27274 6.25342 9.27274 6.25342 9.27599 6.25342H9.27924H9.2825C9.2825 6.25342 9.2825 6.25342 9.28575 6.25342H9.289C9.289 6.25342 9.289 6.25342 9.29225 6.25342H9.2955C9.2955 6.25342 9.2955 6.25342 9.29875 6.25342H9.302C9.302 6.25342 9.30201 6.25342 9.30526 6.25342H9.30851H9.31176H9.31501C9.31501 6.25342 9.31501 6.25342 9.31826 6.25342H9.32152C9.32152 6.25342 9.32151 6.25342 9.32477 6.25342H9.32802C9.32802 6.25342 9.32802 6.25342 9.33127 6.25342H9.33452C9.33452 6.25342 9.33452 6.25342 9.33777 6.25342H9.34102C9.34102 6.25342 9.34103 6.25342 9.34428 6.25342H9.34753C9.34753 6.25342 9.34753 6.25342 9.35078 6.25342H9.35403H9.35728C9.36378 6.25342 9.36704 6.25342 9.37029 6.25342H9.37354H9.37679H9.38004H9.38329H9.38655H9.3898H9.39305H9.3963H9.39955H9.40281H9.40606H9.40931C9.41256 6.25342 9.41256 6.25342 9.41581 6.25342C9.53287 6.23717 9.57189 6.19815 9.57189 6.19815C9.64993 6.13637 9.6987 6.05833 9.73122 5.9998C9.74748 5.97379 9.76048 5.94777 9.77674 5.92501C9.7995 5.88924 9.82551 5.85022 9.84828 5.80145C9.85803 5.77544 9.86779 5.74942 9.87754 5.72341C9.89705 5.66813 9.91981 5.61286 9.94582 5.57059C9.96859 5.53482 9.9881 5.49905 10.0044 5.46003C10.0076 5.45678 10.0141 5.44377 10.0239 5.43402C10.0921 5.34948 10.1149 5.32021 10.1052 5.29095Z" fill="#FFCC00"/>
<path d="M12.485 4.81123C12.4915 4.74295 12.4134 4.69092 12.3451 4.66491C12.3256 4.65841 12.2931 4.64865 12.2671 4.64865C12.1923 4.6519 12.085 4.68767 12.0395 4.71368C12.0102 4.73319 11.9842 4.7527 11.9582 4.77221C11.9224 4.79823 11.8867 4.82424 11.8476 4.847C11.8444 4.847 11.8314 4.847 11.8216 4.84375C11.8216 4.8405 11.8184 4.83725 11.8184 4.83399C11.8151 4.82424 11.8119 4.81774 11.8119 4.81123C11.8119 4.79823 11.8216 4.76896 11.8249 4.75921C11.8574 4.64865 11.8997 4.59012 11.9615 4.50558C12.007 4.44705 12.0492 4.37877 12.0818 4.31699C12.1013 4.28122 12.1208 4.2487 12.1403 4.21619C12.1566 4.18692 12.1761 4.15766 12.1923 4.12514C12.2996 3.9333 12.2574 3.87802 12.2443 3.86176C12.2086 3.81624 12.15 3.79998 12.098 3.81949C12.0557 3.83575 12.02 3.89428 11.9777 3.96907L11.9647 3.99183C11.8867 4.1284 11.8411 4.20643 11.7534 4.30398C11.7436 4.31374 11.7338 4.32349 11.7241 4.3365C11.7143 4.34625 11.7078 4.35601 11.6981 4.36576C11.7013 4.35601 11.7046 4.34625 11.7111 4.33975C11.7241 4.32024 11.7924 4.18367 11.8444 4.05036C11.8704 3.98858 11.8899 3.9268 11.9029 3.88778C11.9094 3.86827 11.9159 3.85201 11.9192 3.84225C11.9582 3.75121 12.0167 3.60814 11.9094 3.54311C11.8704 3.52034 11.8379 3.52034 11.8054 3.53335C11.7436 3.56262 11.7078 3.64716 11.6786 3.7317C11.6656 3.77072 11.6135 3.88452 11.555 4.00158C11.5355 4.0406 11.5127 4.07962 11.4965 4.11539C11.4932 4.12189 11.4867 4.13165 11.4835 4.13815C11.4835 4.13815 11.4835 4.13815 11.4835 4.1349C11.4835 4.13165 11.4835 4.1284 11.4867 4.12514C11.4867 4.12189 11.4867 4.11864 11.49 4.11539C11.49 4.11539 11.49 4.11539 11.49 4.11214C11.49 4.10889 11.49 4.10889 11.49 4.10563V4.10238C11.49 4.09913 11.49 4.09913 11.49 4.09588V4.09263V4.08938C11.49 4.08612 11.49 4.08612 11.49 4.08612V4.08287C11.49 4.07962 11.49 4.07962 11.49 4.07637V4.07312C11.49 4.06987 11.49 4.06661 11.4932 4.06661C11.5225 3.95931 11.5648 3.84876 11.5745 3.82274L11.581 3.80974C11.6168 3.73495 11.6493 3.66342 11.633 3.61139C11.6233 3.58212 11.6005 3.54311 11.5583 3.52685C11.5355 3.51709 11.5095 3.51709 11.4835 3.52685C11.4249 3.5366 11.3827 3.6244 11.3404 3.72194C11.3241 3.75771 11.2494 3.94956 11.2201 4.03085C11.2006 4.08287 11.1876 4.13165 11.1713 4.17392C11.1616 4.20643 11.1518 4.2357 11.142 4.26171C11.1388 4.27147 11.1355 4.27797 11.1323 4.28447C11.1323 4.28122 11.129 4.27472 11.129 4.27147C11.1258 4.25846 11.1128 4.15766 11.1095 4.05361C11.1095 4.00158 11.1095 3.94956 11.1095 3.90403C11.1095 3.8325 11.1128 3.77722 11.1063 3.74471C11.103 3.7252 11.0868 3.66016 11.0347 3.64391C10.999 3.6309 10.973 3.63415 10.947 3.64716C10.9339 3.65366 10.9047 3.67967 10.8917 3.71869C10.8754 3.76096 10.8689 3.81949 10.8689 3.84876C10.8624 3.95606 10.8592 4.0341 10.8624 4.11864V4.15441C10.8657 4.25196 10.8689 4.35601 10.8462 4.46656C10.8331 4.52184 10.8169 4.58362 10.8039 4.6389C10.7941 4.67141 10.7844 4.70718 10.7779 4.73645C10.7519 4.847 10.7323 4.93479 10.7454 5.01283V5.01608C10.7454 5.01608 10.7454 5.01608 10.7454 5.01934C10.7454 5.01934 10.7454 5.01934 10.7454 5.02259C10.7454 5.02259 10.7454 5.02259 10.7454 5.02584C10.7454 5.02584 10.7454 5.02584 10.7454 5.02909C10.7454 5.02909 10.7454 5.02909 10.7454 5.03234V5.03559C10.7454 5.03559 10.7454 5.03559 10.7454 5.03885V5.0421V5.04535V5.0486C10.7454 5.0486 10.7454 5.0486 10.7454 5.05185V5.0551V5.05836C10.7454 5.06161 10.7454 5.06161 10.7454 5.06486V5.06811V5.07136V5.07461V5.07787V5.08112C10.7454 5.08437 10.7454 5.08437 10.7486 5.08762V5.09087V5.09412V5.09738C10.7486 5.09738 10.7486 5.10063 10.7519 5.10063V5.10388C10.7519 5.10388 10.7519 5.10713 10.7551 5.10713C10.7551 5.10713 10.7551 5.11038 10.7584 5.11038C10.7584 5.11363 10.7616 5.11688 10.7616 5.11688C10.7616 5.11688 10.7616 5.12014 10.7649 5.12014C10.7649 5.12014 10.7649 5.12339 10.7681 5.12339C10.7681 5.12339 10.7681 5.12664 10.7714 5.12664L10.7746 5.12989L10.7779 5.13314C10.7811 5.13639 10.7811 5.13965 10.7844 5.1429L10.7876 5.14615L10.7909 5.1494L10.7941 5.15265L10.7974 5.1559L10.8006 5.15916L10.8039 5.16241L10.8071 5.16566L10.8104 5.16891C10.8461 5.21118 10.8982 5.25996 10.973 5.31198C10.9762 5.31198 10.9762 5.31523 10.9795 5.31523C10.9827 5.31523 10.9827 5.31848 10.9827 5.31848L10.986 5.32174C10.986 5.32174 10.986 5.32174 10.9892 5.32174L10.9925 5.32499H10.9957C10.9957 5.32499 10.999 5.32499 10.999 5.32824H11.0022C11.0022 5.32824 11.0055 5.32824 11.0055 5.33149H11.0087C11.0087 5.33149 11.012 5.33149 11.012 5.33474C11.012 5.33474 11.012 5.33474 11.0152 5.33474C11.0152 5.33474 11.0185 5.33474 11.0185 5.33799H11.0217C11.0217 5.33799 11.025 5.33799 11.025 5.34125C11.025 5.34125 11.025 5.34125 11.0282 5.34125C11.0282 5.34125 11.0315 5.34125 11.0315 5.3445C11.0315 5.3445 11.0315 5.3445 11.0347 5.3445C11.0347 5.3445 11.038 5.3445 11.038 5.34775C11.038 5.34775 11.038 5.34775 11.0412 5.34775C11.0412 5.34775 11.0445 5.34775 11.0445 5.351C11.0445 5.351 11.0445 5.351 11.0478 5.351C11.0478 5.351 11.051 5.351 11.051 5.35425C11.051 5.35425 11.051 5.35425 11.0543 5.35425C11.0543 5.35425 11.0575 5.35425 11.0575 5.3575C11.0575 5.3575 11.0608 5.3575 11.0608 5.36076C11.0673 5.36401 11.0705 5.36726 11.077 5.37051C11.0803 5.37051 11.0803 5.37376 11.0835 5.37376C11.0835 5.37376 11.0868 5.37376 11.0868 5.37701C11.0868 5.37701 11.09 5.37701 11.09 5.38027C11.09 5.38027 11.0933 5.38026 11.0933 5.38352C11.0933 5.38352 11.0965 5.38352 11.0965 5.38677C11.0965 5.38677 11.0998 5.38677 11.0998 5.39002C11.0998 5.39002 11.103 5.39002 11.103 5.39327H11.1063C11.1063 5.39327 11.1095 5.39327 11.1095 5.39652H11.1128H11.116C11.116 5.39652 11.1193 5.39652 11.1193 5.39977C11.1225 5.39977 11.1225 5.40303 11.1258 5.40303C11.1258 5.40303 11.1258 5.40303 11.129 5.40303C11.129 5.40303 11.129 5.40303 11.1323 5.40303C11.2721 5.4583 11.3404 5.43554 11.3404 5.43554C11.464 5.41603 11.5648 5.36076 11.6395 5.31198C11.6721 5.28922 11.7046 5.27296 11.7371 5.2567C11.7859 5.23069 11.8379 5.20468 11.8932 5.16241C11.9192 5.13965 11.9484 5.11688 11.9745 5.09412C12.0297 5.04535 12.0883 4.99332 12.1468 4.96406C12.1923 4.93805 12.2378 4.90878 12.2801 4.87627C12.2866 4.87301 12.3029 4.86651 12.3191 4.86001C12.4362 4.87301 12.4785 4.85025 12.485 4.81123Z" fill="#17AE4B"/>
<path d="M14.4168 6.36154C14.4688 6.32252 14.4558 6.23148 14.4298 6.16645C14.4233 6.14694 14.4102 6.12092 14.3907 6.10141C14.342 6.04939 14.2444 5.99411 14.1956 5.9811C14.1631 5.97135 14.1306 5.96485 14.1013 5.95834C14.0591 5.94859 14.0201 5.94208 13.9778 5.92583C13.9745 5.92257 13.968 5.91282 13.9615 5.90306C13.9615 5.89981 13.9648 5.89656 13.9648 5.89656C13.968 5.89006 13.9745 5.8803 13.9778 5.87705C13.9875 5.87055 14.0136 5.85754 14.0233 5.85104C14.1241 5.80226 14.1924 5.79576 14.2932 5.78601C14.3647 5.7795 14.4395 5.7665 14.5078 5.75024C14.5436 5.74048 14.5826 5.73398 14.6184 5.72748C14.6509 5.72097 14.6834 5.71447 14.7192 5.70472C14.9273 5.65594 14.937 5.59091 14.9403 5.5714C14.95 5.51612 14.924 5.4641 14.8752 5.43808C14.8362 5.41857 14.7712 5.43158 14.6899 5.45109L14.6639 5.45759C14.5143 5.49011 14.4298 5.50637 14.3029 5.50962C14.2899 5.50962 14.2769 5.50962 14.2607 5.50962C14.2477 5.50962 14.2379 5.50962 14.2217 5.50962C14.2314 5.50637 14.2412 5.50312 14.2477 5.50312C14.2704 5.49987 14.4102 5.46085 14.5403 5.41207C14.6021 5.38931 14.6574 5.3633 14.6931 5.34704C14.7126 5.33728 14.7257 5.33078 14.7354 5.32753C14.8265 5.29501 14.9663 5.24624 14.9435 5.12918C14.937 5.08691 14.9142 5.0609 14.8817 5.04789C14.82 5.02188 14.7387 5.05114 14.6574 5.08691C14.6216 5.10317 14.5045 5.13894 14.3842 5.17145C14.342 5.18446 14.3029 5.19421 14.2639 5.20397C14.2542 5.20722 14.2477 5.20722 14.2379 5.21047C14.2379 5.21047 14.2379 5.21047 14.2412 5.21047C14.2444 5.21047 14.2477 5.20722 14.2477 5.20722C14.2509 5.20722 14.2509 5.20397 14.2542 5.20397C14.2542 5.20397 14.2542 5.20397 14.2574 5.20397C14.2607 5.20397 14.2607 5.20072 14.2639 5.20072H14.2672L14.2704 5.19747C14.2704 5.19747 14.2737 5.19747 14.2737 5.19421C14.2737 5.19421 14.2769 5.19421 14.2769 5.19096C14.2769 5.19096 14.2802 5.19096 14.2802 5.18771C14.2802 5.18771 14.2834 5.18771 14.2834 5.18446L14.2867 5.18121H14.2899C14.2932 5.18121 14.2932 5.17796 14.2964 5.17796C14.394 5.12918 14.498 5.08691 14.5241 5.08041L14.5371 5.07716C14.6151 5.05439 14.6834 5.03163 14.7126 4.98611C14.7289 4.9601 14.7387 4.91783 14.7224 4.87556C14.7126 4.85279 14.6964 4.83329 14.6736 4.82028C14.6281 4.78451 14.5371 4.81052 14.4428 4.84304C14.407 4.85605 14.2217 4.92433 14.1436 4.95685C14.0916 4.97961 14.0493 4.99912 14.0103 5.01538C13.981 5.02838 13.9518 5.04139 13.929 5.05114C13.9193 5.05439 13.9128 5.05765 13.9063 5.0609C13.9095 5.05765 13.9095 5.05439 13.9128 5.05114C13.9193 5.04139 13.981 4.9666 14.0558 4.89507C14.0916 4.86255 14.1306 4.82678 14.1631 4.79752C14.2152 4.75199 14.2542 4.71623 14.2737 4.69021C14.2834 4.67396 14.3192 4.62193 14.2997 4.57316C14.2867 4.54064 14.2672 4.52113 14.2412 4.51463C14.2282 4.51138 14.1891 4.50812 14.1534 4.52113C14.1144 4.53739 14.0688 4.5699 14.0428 4.58941C13.9615 4.65445 13.903 4.70322 13.8477 4.7585L13.825 4.78126C13.7567 4.84629 13.6851 4.91783 13.5908 4.96985C13.5421 4.99912 13.49 5.02513 13.438 5.05114C13.4088 5.0674 13.3795 5.08041 13.3502 5.09667C13.2527 5.14869 13.1779 5.19421 13.1291 5.25274C13.1291 5.25274 13.1259 5.25274 13.1259 5.25599L13.1226 5.25925C13.1226 5.25925 13.1226 5.25925 13.1226 5.2625C13.1226 5.2625 13.1226 5.2625 13.1226 5.26575C13.1226 5.26575 13.1226 5.26575 13.1194 5.269C13.1194 5.269 13.1194 5.269 13.1194 5.27225C13.1194 5.27225 13.1194 5.27225 13.1161 5.2755C13.1161 5.2755 13.1161 5.2755 13.1129 5.27876L13.1096 5.28201C13.1096 5.28201 13.1096 5.28201 13.1064 5.28526C13.1064 5.28526 13.1064 5.28851 13.1031 5.28851V5.29176C13.1031 5.29176 13.1031 5.29501 13.0998 5.29501C13.0998 5.29501 13.0998 5.29501 13.0966 5.29827C13.0966 5.30152 13.0933 5.30152 13.0933 5.30477C13.0933 5.30477 13.0933 5.30802 13.0901 5.30802C13.0901 5.30802 13.0901 5.31127 13.0868 5.31127C13.0868 5.31127 13.0868 5.31452 13.0836 5.31452C13.0836 5.31452 13.0836 5.31778 13.0803 5.31778V5.32103C13.0803 5.32103 13.0803 5.32428 13.0771 5.32428V5.32753C13.0771 5.33078 13.0738 5.33403 13.0738 5.33403V5.33728C13.0738 5.33728 13.0738 5.34054 13.0706 5.34054V5.34379C13.0706 5.34379 13.0706 5.34704 13.0673 5.34704V5.35029C13.0673 5.35354 13.0641 5.35679 13.0641 5.36005V5.3633C13.0641 5.36655 13.0641 5.36655 13.0641 5.3698V5.37305C13.0641 5.3763 13.0641 5.3763 13.0641 5.37956V5.38281C13.0641 5.38606 13.0641 5.38606 13.0641 5.38931C13.0641 5.39256 13.0641 5.39256 13.0641 5.39581C13.0641 5.39907 13.0641 5.39907 13.0641 5.40232C13.0543 5.45434 13.0543 5.52588 13.0673 5.61367C13.0673 5.61692 13.0673 5.61692 13.0673 5.62018V5.62343V5.62668V5.62993V5.63318V5.63643V5.63968V5.64294V5.64619V5.64944V5.65269V5.65594V5.65919V5.66245V5.6657V5.66895V5.6722V5.67545V5.6787C13.0673 5.6787 13.0673 5.6787 13.0673 5.68196V5.68521C13.0673 5.68521 13.0673 5.68521 13.0673 5.68846V5.69171C13.0673 5.69171 13.0673 5.69171 13.0673 5.69496V5.69821V5.70147C13.0706 5.70797 13.0706 5.71447 13.0706 5.71772C13.0706 5.72097 13.0706 5.72097 13.0706 5.72423V5.72748V5.73073V5.73398V5.73723V5.74048C13.0706 5.74048 13.0706 5.74048 13.0706 5.74374V5.74699V5.75024V5.75349V5.75674V5.75999V5.76325C13.0706 5.7665 13.0706 5.7665 13.0738 5.76975C13.0738 5.76975 13.0738 5.76975 13.0738 5.773C13.1259 5.90632 13.1844 5.94208 13.1844 5.94534C13.2787 6.02337 13.386 6.05914 13.4673 6.07865C13.5031 6.08841 13.5356 6.10141 13.5713 6.11442C13.6234 6.13393 13.6754 6.15344 13.7404 6.16319C13.7729 6.1697 13.8087 6.17295 13.8445 6.1762C13.916 6.18595 13.9908 6.19246 14.0493 6.21522C14.0981 6.23148 14.1469 6.24448 14.1989 6.25424C14.2054 6.25749 14.2184 6.26399 14.2379 6.2705C14.342 6.36479 14.3842 6.38105 14.4168 6.36154Z" fill="#4592CF"/>
<path d="M13.9091 8.24504C13.9546 8.21903 13.9481 8.14424 13.9319 8.08897C13.9254 8.07271 13.9189 8.04995 13.9026 8.03369C13.8636 7.98817 13.7921 7.93939 13.753 7.92639C13.727 7.91663 13.701 7.91013 13.6783 7.90363C13.6457 7.89387 13.6132 7.88411 13.5775 7.87111C13.5742 7.87111 13.571 7.86135 13.5677 7.85485C13.5677 7.8516 13.571 7.8516 13.571 7.84835C13.5742 7.84184 13.5775 7.83534 13.5807 7.83534C13.5872 7.82884 13.61 7.82233 13.6197 7.81908C13.7043 7.78657 13.7595 7.78332 13.8408 7.78006C13.8994 7.78006 13.9611 7.77356 14.0164 7.76055C14.0457 7.75405 14.0782 7.7508 14.1075 7.74755C14.1335 7.7443 14.1627 7.74104 14.1888 7.73454C14.3578 7.70528 14.3708 7.6565 14.3741 7.64024C14.3871 7.59472 14.3676 7.55245 14.3286 7.52969C14.2993 7.51018 14.244 7.51993 14.179 7.52969L14.1595 7.53294C14.0359 7.55245 13.9677 7.55895 13.8669 7.5557C13.8571 7.5557 13.8441 7.55245 13.8343 7.55245C13.8246 7.55245 13.8148 7.5492 13.8018 7.5492C13.8083 7.54595 13.8181 7.54595 13.8246 7.54595C13.8408 7.5427 13.9611 7.51993 14.0652 7.48742C14.114 7.47441 14.1627 7.4549 14.192 7.44515C14.2083 7.43865 14.2213 7.43539 14.2278 7.43214C14.3026 7.41263 14.4196 7.37686 14.4066 7.28257C14.4034 7.25005 14.3871 7.22729 14.3611 7.21428C14.3123 7.19152 14.244 7.21103 14.179 7.23379C14.1497 7.24355 14.0522 7.26631 13.9546 7.28907C13.9221 7.29557 13.8864 7.30208 13.8571 7.30858C13.8506 7.30858 13.8441 7.31183 13.8376 7.31183C13.8408 7.31183 13.8408 7.30858 13.8441 7.30858C13.8473 7.30858 13.8473 7.30533 13.8506 7.30533C13.8506 7.30533 13.8506 7.30533 13.8538 7.30533L13.8571 7.30208H13.8603C13.8603 7.30208 13.8636 7.30208 13.8636 7.29883H13.8669C13.8669 7.29883 13.8701 7.29883 13.8701 7.29557H13.8734H13.8766C13.8766 7.29557 13.8799 7.29557 13.8799 7.29232C13.8799 7.29232 13.8799 7.29232 13.8831 7.29232C13.8864 7.29232 13.8864 7.28907 13.8896 7.28907C13.9709 7.25655 14.0587 7.22729 14.0815 7.22079L14.0912 7.21754C14.153 7.20453 14.2115 7.18827 14.2375 7.1525C14.2505 7.13299 14.2635 7.10048 14.2505 7.06471C14.244 7.0452 14.231 7.02894 14.2148 7.01919C14.179 6.98667 14.1042 7.00293 14.0262 7.02569C13.9969 7.03545 13.8441 7.08097 13.7758 7.10373C13.7335 7.11674 13.6978 7.13299 13.6652 7.146C13.6392 7.15575 13.6165 7.16551 13.597 7.17201C13.5905 7.17526 13.584 7.17526 13.5775 7.17852C13.5807 7.17526 13.5807 7.17201 13.584 7.17201C13.5905 7.16551 13.6457 7.10698 13.7075 7.05495C13.7368 7.02894 13.7693 7.00618 13.7986 6.98342C13.8441 6.9509 13.8766 6.92164 13.8929 6.90538C13.9026 6.89237 13.9351 6.85335 13.9221 6.81108C13.9124 6.78507 13.8994 6.76556 13.8799 6.75906C13.8669 6.75581 13.8408 6.7493 13.8083 6.75906C13.7758 6.76881 13.7368 6.79483 13.7173 6.80783C13.649 6.85335 13.6002 6.89237 13.5482 6.93464L13.5287 6.9509C13.4702 6.99968 13.4084 7.0517 13.3303 7.09072C13.2881 7.11023 13.2458 7.12974 13.2035 7.14925C13.1775 7.15901 13.1547 7.17201 13.132 7.18177C13.0507 7.21754 12.9857 7.25005 12.9466 7.29557C12.9466 7.29557 12.9466 7.29557 12.9434 7.29557L12.9401 7.29883C12.9401 7.29883 12.9401 7.29882 12.9401 7.30208C12.9401 7.30208 12.9401 7.30208 12.9369 7.30533L12.9336 7.30858C12.9336 7.30858 12.9336 7.30858 12.9336 7.31183C12.9336 7.31183 12.9336 7.31183 12.9336 7.31508C12.9336 7.31508 12.9336 7.31508 12.9336 7.31833C12.9336 7.31833 12.9336 7.31834 12.9304 7.32159C12.9304 7.32159 12.9304 7.32159 12.9304 7.32484C12.9304 7.32809 12.9271 7.32809 12.9271 7.32809C12.9271 7.32809 12.9271 7.33134 12.9239 7.33134V7.33459C12.9239 7.33459 12.9239 7.33459 12.9239 7.33784C12.9239 7.33784 12.9239 7.3411 12.9206 7.3411C12.9206 7.3411 12.9206 7.3411 12.9206 7.34435C12.9206 7.34435 12.9206 7.3476 12.9174 7.3476V7.35085C12.9174 7.3541 12.9141 7.3541 12.9141 7.35735V7.36061V7.36386V7.36711V7.37036V7.37361C12.9141 7.37686 12.9109 7.37686 12.9109 7.38012V7.38337V7.38662V7.38987V7.39312V7.39637V7.39962V7.40288V7.40613C12.9011 7.4484 12.8979 7.50368 12.9011 7.57521C12.9011 7.57846 12.9011 7.57846 12.9011 7.58172V7.58497V7.58822C12.9011 7.58822 12.9011 7.58822 12.9011 7.59147V7.59472C12.9011 7.59472 12.9011 7.59472 12.9011 7.59797V7.60123C12.9011 7.60123 12.9011 7.60122 12.9011 7.60448V7.60773C12.9011 7.60773 12.9011 7.60773 12.9011 7.61098V7.61423C12.9011 7.61423 12.9011 7.61423 12.9011 7.61748V7.62073C12.9011 7.62073 12.9011 7.62073 12.9011 7.62399V7.62724C12.9011 7.62724 12.9011 7.62724 12.9011 7.63049V7.63374C12.9011 7.63374 12.9011 7.63374 12.9011 7.63699V7.64024C12.9011 7.64024 12.9011 7.64024 12.9011 7.6435V7.64675C12.9011 7.64675 12.9011 7.64675 12.9011 7.65V7.65325C12.9011 7.65325 12.9011 7.65325 12.9011 7.6565V7.65975V7.66301C12.9011 7.66626 12.9044 7.67276 12.9044 7.67601V7.67926V7.68252V7.68577V7.68902V7.69227V7.69552V7.69877V7.70202V7.70528V7.70853V7.71178V7.71503C12.9044 7.71828 12.9044 7.71828 12.9044 7.71828C12.9369 7.82884 12.9824 7.86135 12.9857 7.86135C13.0572 7.92964 13.1417 7.96215 13.2068 7.98492C13.236 7.99467 13.2621 8.00768 13.2881 8.01743C13.3271 8.03694 13.3694 8.0532 13.4214 8.06621C13.4474 8.07271 13.4767 8.07921 13.5027 8.08246C13.5612 8.09222 13.6197 8.10523 13.6652 8.12473C13.7043 8.14099 13.7433 8.154 13.7856 8.16375C13.7888 8.16701 13.8018 8.17351 13.8148 8.18001C13.8506 8.24504 13.8831 8.2613 13.9091 8.24504Z" fill="#1F4393"/>
<path d="M14.3806 10.5251C14.4521 10.5121 14.4846 10.4146 14.4911 10.3333C14.4944 10.3105 14.4944 10.2748 14.4846 10.2487C14.4586 10.1707 14.3903 10.0666 14.3448 10.0309C14.3156 10.0049 14.2863 9.98211 14.2603 9.9626C14.2213 9.93333 14.1855 9.90407 14.1497 9.8683C14.1497 9.86505 14.1465 9.85204 14.1465 9.83903C14.1497 9.83578 14.153 9.83578 14.1562 9.83253C14.166 9.82603 14.1725 9.81953 14.1757 9.81953C14.1888 9.81627 14.2213 9.81627 14.2343 9.81627C14.3611 9.81952 14.4359 9.84229 14.5399 9.88131C14.618 9.91057 14.6993 9.93333 14.7773 9.94959C14.8196 9.95934 14.8618 9.9691 14.9041 9.97885C14.9399 9.98861 14.9789 9.99836 15.0179 10.0081C15.252 10.0601 15.2943 10.0016 15.3106 9.98211C15.3496 9.93008 15.3496 9.86505 15.3073 9.81302C15.278 9.774 15.2065 9.75449 15.1122 9.73498L15.0829 9.72848C14.9139 9.68621 14.8196 9.66345 14.6895 9.60167C14.6765 9.59516 14.6635 9.58866 14.6472 9.58216C14.6342 9.57565 14.6212 9.56915 14.6082 9.56265C14.618 9.56265 14.631 9.5659 14.6407 9.56915C14.6635 9.57565 14.8293 9.60492 14.9821 9.62118C15.0537 9.62768 15.1252 9.63093 15.1707 9.63093C15.1935 9.63093 15.213 9.63093 15.2228 9.63418C15.3301 9.64719 15.4991 9.66345 15.5349 9.53338C15.5479 9.48786 15.5382 9.44884 15.5122 9.41958C15.4634 9.3643 15.3626 9.35454 15.265 9.34804C15.2195 9.34479 15.0829 9.32528 14.9431 9.29927C14.8943 9.28951 14.8488 9.27976 14.8066 9.27C14.7935 9.27 14.7838 9.27 14.774 9.26675C14.774 9.26675 14.774 9.26675 14.7773 9.26675C14.7805 9.26675 14.7838 9.26675 14.787 9.26675C14.7903 9.26675 14.7935 9.26675 14.7968 9.26675H14.8001C14.8033 9.26675 14.8033 9.26675 14.8066 9.26675H14.8098C14.8131 9.26675 14.8131 9.26675 14.8163 9.26675C14.8196 9.26675 14.8196 9.26675 14.8196 9.26675C14.8228 9.26675 14.8228 9.26675 14.8261 9.26675C14.8293 9.26675 14.8293 9.26675 14.8326 9.26675H14.8358C14.8391 9.26675 14.8391 9.26675 14.8423 9.26675H14.8456C14.8488 9.26675 14.8521 9.26675 14.8553 9.26675C14.9756 9.26675 15.1057 9.27325 15.1382 9.27976L15.1545 9.28301C15.2423 9.29927 15.3268 9.30902 15.3788 9.27651C15.4081 9.257 15.4406 9.22123 15.4439 9.17245C15.4471 9.14644 15.4374 9.11718 15.4211 9.09442C15.3918 9.03589 15.2878 9.01638 15.174 9.00337C15.1317 8.99687 14.9074 8.97736 14.8098 8.97085C14.748 8.9676 14.6927 8.9676 14.644 8.96435C14.605 8.96435 14.5724 8.96435 14.5432 8.9611C14.5334 8.9611 14.5237 8.9611 14.5139 8.95785C14.5172 8.9546 14.5237 8.95134 14.5269 8.95134C14.5399 8.94484 14.6407 8.89932 14.7513 8.86355C14.8033 8.84729 14.8586 8.83104 14.9074 8.81803C14.9821 8.79852 15.0407 8.78226 15.0732 8.766C15.0927 8.75625 15.1545 8.72048 15.1577 8.6587C15.1577 8.61643 15.148 8.58716 15.1285 8.56765C15.1155 8.55465 15.0797 8.53514 15.0342 8.53189C14.9854 8.52864 14.9236 8.53839 14.8911 8.54815C14.7773 8.57416 14.6927 8.59367 14.6082 8.62293L14.5724 8.63594C14.4716 8.66846 14.3643 8.70422 14.2408 8.71398C14.179 8.71723 14.1107 8.72048 14.0457 8.72048C14.0067 8.72048 13.9709 8.72373 13.9351 8.72373C13.8116 8.72698 13.7108 8.73674 13.6327 8.77251C13.6327 8.77251 13.6327 8.77251 13.6295 8.77251H13.6262C13.6262 8.77251 13.6262 8.77251 13.623 8.77251C13.623 8.77251 13.623 8.77251 13.6197 8.77251C13.6197 8.77251 13.6197 8.77251 13.6165 8.77251C13.6165 8.77251 13.6165 8.77251 13.6132 8.77251C13.6132 8.77251 13.6132 8.77251 13.61 8.77251C13.61 8.77251 13.6067 8.77251 13.6067 8.77576H13.6035H13.6002C13.6002 8.77576 13.6002 8.77576 13.597 8.77576H13.5937H13.5905H13.5872H13.5839C13.5807 8.77576 13.5807 8.77901 13.5774 8.77901H13.5742C13.5742 8.77901 13.5709 8.77901 13.5709 8.78226H13.5677C13.5677 8.78226 13.5644 8.78226 13.5644 8.78551C13.5644 8.78551 13.5612 8.78551 13.5612 8.78876C13.5579 8.78876 13.5579 8.79202 13.5547 8.79202C13.5547 8.79202 13.5514 8.79202 13.5514 8.79527C13.5514 8.79527 13.5482 8.79527 13.5482 8.79852C13.5482 8.79852 13.5449 8.79852 13.5449 8.80177L13.5417 8.80502L13.5384 8.80827L13.5352 8.81153L13.5319 8.81478C13.5287 8.81803 13.5287 8.81803 13.5254 8.82128L13.5222 8.82453L13.5189 8.82778L13.5157 8.83104L13.5124 8.83429L13.5092 8.83754C13.5059 8.84079 13.5059 8.84404 13.5027 8.84404L13.4994 8.84729L13.4962 8.85055L13.4929 8.8538L13.4897 8.85705L13.4864 8.8603L13.4832 8.86355L13.4799 8.8668C13.4799 8.87006 13.4766 8.87006 13.4766 8.87331C13.4409 8.92533 13.4051 8.99362 13.3758 9.08791C13.3758 9.09116 13.3758 9.09442 13.3726 9.09442C13.3726 9.09767 13.3726 9.09767 13.3726 9.10092V9.10417V9.10742V9.11067V9.11393V9.11718V9.12043V9.12368V9.12693V9.13018V9.13344V9.13669V9.13994V9.14319V9.14644V9.14969V9.15295V9.1562V9.15945V9.1627C13.3726 9.1627 13.3726 9.1627 13.3726 9.16595V9.1692C13.3726 9.1692 13.3726 9.1692 13.3726 9.17245V9.17571C13.3726 9.17571 13.3726 9.17571 13.3726 9.17896C13.3726 9.18221 13.3726 9.18221 13.3726 9.18546C13.3726 9.19196 13.3693 9.19847 13.3693 9.20497C13.3693 9.20822 13.3693 9.20822 13.3693 9.21147C13.3693 9.21473 13.3693 9.21473 13.3693 9.21798C13.3693 9.22123 13.3693 9.22123 13.3693 9.22123C13.3693 9.22123 13.3693 9.22123 13.3693 9.22448V9.22773C13.3693 9.22773 13.3693 9.22773 13.3693 9.23098V9.23424C13.3693 9.23424 13.3693 9.23424 13.3693 9.23749V9.24074C13.3693 9.24074 13.3693 9.24074 13.3693 9.24399V9.24724C13.3693 9.24724 13.3693 9.24724 13.3693 9.25049V9.25374V9.257V9.26025C13.3693 9.2635 13.3693 9.2635 13.3693 9.2635V9.26675C13.3693 9.27 13.3693 9.27 13.3693 9.27325C13.3693 9.27325 13.3693 9.27325 13.3693 9.27651C13.3693 9.27651 13.3693 9.27651 13.3693 9.27976C13.3563 9.44234 13.3954 9.50737 13.3986 9.51062C13.4571 9.63418 13.5482 9.72523 13.6197 9.78701C13.6522 9.81627 13.6815 9.84554 13.7075 9.87155C13.7498 9.91707 13.7953 9.9626 13.8538 10.0049C13.8831 10.0276 13.9189 10.0471 13.9514 10.0699C14.0197 10.1154 14.0912 10.1609 14.14 10.2097C14.179 10.252 14.2245 10.291 14.2733 10.3235C14.2798 10.33 14.2895 10.343 14.3058 10.3593C14.3026 10.4926 14.3351 10.5316 14.3806 10.5251Z" fill="#8F3F97"/>
<path d="M10.2217 17.7322C8.38128 17.7322 6.69045 17.0917 5.35403 16.0251L4.35254 17.3518C4.56715 17.5176 4.80451 17.677 5.03213 17.8233C5.93607 18.3826 7.68869 19.254 9.90629 19.3385C9.98758 19.3418 10.0689 19.345 10.1502 19.345C10.1859 19.345 10.2217 19.345 10.2575 19.345C10.4103 19.345 10.5599 19.3418 10.7094 19.332C10.7127 19.332 10.7159 19.332 10.7159 19.332C10.8525 19.3255 10.9858 19.3158 11.1191 19.3028C11.2264 19.293 11.3305 19.28 11.4411 19.267C11.4638 19.2637 11.4866 19.2605 11.5126 19.2572C12.9433 19.0556 14.5073 18.4866 16.1234 17.3193C16.1917 17.2673 16.2567 17.2152 16.3217 17.16L15.343 15.8008C13.9741 17.0039 12.1857 17.7322 10.2217 17.7322Z" fill="#4592CF"/>
<path d="M10.2219 0.488281C4.95752 0.488281 0.691406 4.71212 0.691406 9.9212C0.691406 12.9387 2.12537 15.6245 4.35272 17.3511L5.35096 16.0245C3.55933 14.5938 2.40501 12.3924 2.40501 9.91795C2.40501 5.60306 5.90374 2.10433 10.2186 2.10433C14.5335 2.10433 18.0355 5.60306 18.0355 9.91795C18.0355 12.2689 16.9917 14.3759 15.3464 15.8066L16.3251 17.1658C18.4192 15.4359 19.7523 12.8346 19.7523 9.9212C19.7523 4.71212 15.4862 0.488281 10.2219 0.488281Z" fill="url(#paint0_linear_1818_77406)"/>
<defs>
<linearGradient id="paint0_linear_1818_77406" x1="9.38898" y1="1.17359" x2="10.1337" y2="8.99336" gradientUnits="userSpaceOnUse">
<stop offset="0.1073" stop-color="#4592CF"/>
<stop offset="1" stop-color="#1F4393"/>
</linearGradient>
</defs>
</svg>
