<svg width="13" height="25" viewBox="0 0 13 25" fill="none" xmlns="http://www.w3.org/2000/svg">
<path d="M4.55469 9.59475L7.6066 8.48438L9.22081 12.8873L6.41921 13.7346L5.66185 12.6659L4.55469 9.59475Z" fill="#FFC10E"/>
<path d="M12.2856 8.0219C10.8479 5.28449 8.09445 5.10798 7.41411 5.10156C5.36345 5.12403 3.96105 6.32746 3.47646 6.77996C2.16071 8.0219 1.82695 9.43072 1.81733 9.84792C1.86225 10.5411 1.6344 10.8107 1.54776 10.9294C1.46111 11.0449 0.735837 11.8922 0.488731 12.2002C0.241625 12.5083 0.488731 12.6688 0.488731 12.6688C0.488731 12.6688 0.585006 12.749 0.970106 12.9448C1.47394 13.2079 1.29423 13.5352 1.29423 13.5352C1.29423 13.5352 1.27498 13.593 1.16586 13.8273C1.01824 14.1867 1.45148 14.206 1.45148 14.206C1.62798 14.2348 1.4579 14.2958 1.4579 14.2958C1.4579 14.2958 1.41297 14.3279 1.34879 14.36C1.18512 14.498 1.29102 14.652 1.29102 14.652C1.29102 14.652 1.4579 14.8863 1.56059 15.0339C1.67612 15.2136 1.6344 15.4704 1.59268 15.5185C1.51566 15.6244 1.45469 15.8779 1.47715 16.0127C1.53492 16.401 1.92323 16.4299 2.04518 16.4492C3.13629 16.6257 3.38019 16.7027 3.82626 16.8471C4.97514 17.2964 4.94305 18.1982 4.94305 18.1982C4.94305 18.1982 4.91417 18.6378 4.93663 18.8978C5.01044 19.2764 5.2736 19.4176 5.54317 19.4016C5.8352 19.3855 6.00208 19.27 6.09835 18.8528C6.1497 19.1288 6.29411 19.4016 6.68884 19.4016C7.08356 19.4016 7.2376 19.116 7.26649 18.8753C7.36918 19.2026 7.50717 19.4016 7.9372 19.4016C8.36723 19.4016 8.42499 18.9202 8.42499 18.9202C8.42499 18.9202 8.44104 17.7296 8.42499 17.4087C8.40895 17.0878 8.22924 16.5615 8.15542 16.4171C7.64517 15.3581 6.68884 15.0436 6.30053 14.8895C5.86087 14.7515 4.9944 14.3793 4.50981 13.9845C2.67096 12.4794 2.84426 10.2298 3.09457 9.4564C3.62088 7.48597 5.06179 6.45583 6.22993 6.1638C9.12138 5.42248 10.7581 7.31268 11.0982 7.76196C12.2086 9.25101 12.0513 10.6342 11.9262 11.4429C11.3903 14.0134 9.14064 14.1995 8.45067 14.1899C6.10798 14.0872 5.60414 12.4185 5.60414 12.4185L4.59004 9.61365L7.64196 8.50328L9.25617 12.9062L9.56425 12.7971L9.38774 12.3286L10.0167 12.1168L9.80493 11.475L10.4468 11.2632L8.65605 6.40769L4.99761 7.75233L5.21904 8.36528L4.56116 8.59955L4.80185 9.22855L4.16001 9.44677L5.36345 12.6752C5.61056 13.3459 6.26844 14.1354 7.26328 14.559C9.57067 15.3773 11.1335 14.3696 11.7465 13.7406C13.8196 11.1123 12.5263 8.48402 12.2856 8.0219ZM8.46671 6.81847L10.0232 11.0834L9.6862 11.1926L8.24849 7.24849L5.49503 8.25617L5.38592 7.95451L8.46671 6.81847ZM8.07199 7.6721L9.6188 11.9082L9.27542 12.0237L7.84414 8.10855L5.09709 9.10018L4.97193 8.75038L8.07199 7.6721Z" fill="#1F4393"/>
<path d="M7.39098 9.20514L5.25732 9.97656L5.3217 10.1546L7.45535 9.3832L7.39098 9.20514Z" fill="#F5F6FC"/>
<path d="M7.66393 9.95124L5.53027 10.7227L5.59465 10.9007L7.7283 10.1293L7.66393 9.95124Z" fill="#F5F6FC"/>
<path d="M7.94322 10.6973L5.80957 11.4688L5.87395 11.6468L8.0076 10.8754L7.94322 10.6973Z" fill="#F5F6FC"/>
<path d="M8.21227 11.4434L6.07861 12.2148L6.14299 12.3929L8.27664 11.6215L8.21227 11.4434Z" fill="#F5F6FC"/>
<path d="M7.54359 12.5287L6.36963 12.9531L6.434 13.1312L7.60797 12.7067L7.54359 12.5287Z" fill="#F5F6FC"/>
<path d="M3.12666 6.38073C4.23703 5.30245 5.72288 4.51941 7.45903 4.46486C8.58224 4.43276 9.69261 4.87242 10.6201 5.3217L10.4789 4.43276L12.7862 2.78646L6.09514 0.472656L0.270508 4.33007L1.50925 4.77614L1.77561 4.87242L1.77882 4.87563H1.81412H1.77882L2.95016 5.357M6.4995 3.35769C3.96426 3.66898 3.15555 4.42956 2.94053 4.70554L2.90844 4.15036C2.90844 4.15036 3.49572 3.05282 6.45136 2.69019C9.407 2.32434 10.2735 3.24217 10.2735 3.24217L10.3056 3.79735C10.0232 3.58234 9.03794 3.0432 6.4995 3.35769Z" fill="#1F4393"/>
<path d="M1.37127 7.18773L1.40015 6.54269C1.40015 6.54269 1.21723 6.73845 0.812876 6.52344L0.623535 7.72687C0.623535 7.72687 0.694137 7.69478 0.800039 7.71083C0.934824 7.73329 1.12416 7.83598 1.30388 8.18899L1.37127 7.18773Z" fill="#1F4393"/>
<path d="M1.15623 6.34859C1.33878 6.34859 1.48677 6.2006 1.48677 6.01804C1.48677 5.83549 1.33878 5.6875 1.15623 5.6875C0.973673 5.6875 0.825684 5.83549 0.825684 6.01804C0.825684 6.2006 0.973673 6.34859 1.15623 6.34859Z" fill="#1F4393"/>
<path d="M1.13408 4.56641L1.04102 5.73775L1.29133 5.74417L1.3844 4.58887L1.13408 4.56641Z" fill="#1F4393"/>
<path d="M5.51758 20.7305H7.69339L6.5766 22.5116L5.51758 20.7305Z" fill="#FFC10E"/>
<g opacity="0.25">
<g filter="url(#filter0_f_1818_77472)">
<path d="M5.94163 22.7969H3.03369V23.2815H10.1195V22.7969H7.21159C7.00557 22.7943 6.79336 22.793 6.57661 22.793C6.35985 22.793 6.14764 22.7943 5.94163 22.7969Z" fill="white"/>
</g>
</g>
<defs>
<filter id="filter0_f_1818_77472" x="2.03369" y="21.793" width="9.08594" height="2.48828" filterUnits="userSpaceOnUse" color-interpolation-filters="sRGB">
<feFlood flood-opacity="0" result="BackgroundImageFix"/>
<feBlend mode="normal" in="SourceGraphic" in2="BackgroundImageFix" result="shape"/>
<feGaussianBlur stdDeviation="0.5" result="effect1_foregroundBlur_1818_77472"/>
</filter>
</defs>
</svg>
