<svg width="17" height="19" viewBox="0 0 17 19" fill="none" xmlns="http://www.w3.org/2000/svg">
<path d="M11.5113 1.43139C6.68713 0.658538 3.35035 3.02924 1.82304 6.58069C0.396943 9.89293 1.50409 13.9381 4.34096 16.3058C6.8466 18.3974 11.9652 19.3175 15.6884 15.7016C13.7962 18.2103 8.92595 20.1915 4.31949 17.4375C0.283469 15.0238 -1.15797 9.70278 1.17593 5.51955C3.62024 1.1339 8.64073 0.31198 11.5113 1.43139Z" fill="#4592CF"/>
<path d="M14.5597 12.6424C14.8266 13.1239 15.0842 13.6085 15.3602 14.0839C15.535 14.3844 15.5319 14.6175 15.2743 14.8905C13.8482 16.381 12.1154 17.206 10.0545 17.3256C9.88581 17.3348 9.65579 17.2581 9.55765 17.1385C9.49018 17.0526 9.55152 16.7981 9.63432 16.6662C10.7384 14.8261 11.8517 12.9921 12.968 11.1611C13.2471 10.7042 13.5047 10.7195 13.7746 11.1949C14.0476 11.6733 14.3083 12.1579 14.5751 12.6363C14.572 12.6363 14.5659 12.6394 14.5597 12.6424Z" fill="#1F4393"/>
<path d="M3.18443 13.7329C3.17829 13.6654 3.09856 13.4569 3.16909 13.3434C3.23963 13.2299 3.46351 13.1533 3.61686 13.1563C5.77901 13.1962 7.94423 13.2453 10.1064 13.3035C10.5879 13.3158 10.7167 13.5458 10.4713 13.9568C9.87944 14.9474 9.26606 15.9227 8.67415 16.9133C8.50547 17.1954 8.29999 17.2292 8.0025 17.1586C5.97223 16.6833 4.39278 15.5638 3.18443 13.7329Z" fill="#EE3A3A"/>
<path d="M16.1148 5.6476C16.124 5.71814 16.2344 5.96655 16.1577 6.06469C16.0534 6.1935 15.805 6.26097 15.618 6.25791C13.5294 6.22417 11.4439 6.1751 9.35537 6.12297C8.69293 6.10763 8.58559 5.91442 8.91988 5.35624C9.47805 4.43311 10.0516 3.51918 10.5975 2.58685C10.7753 2.28323 10.9716 2.16668 11.3274 2.25562C13.3239 2.74633 14.9003 3.82894 16.1148 5.6476Z" fill="#4592CF"/>
<path d="M4.77954 6.78859C4.51272 6.30709 4.26124 5.81639 3.97602 5.34716C3.77667 5.019 3.8104 4.76752 4.07722 4.49763C5.48799 3.05619 7.18398 2.22507 9.20505 2.09933C9.3952 2.08706 9.68349 2.14226 9.76016 2.26801C9.83376 2.39068 9.74482 2.67283 9.64668 2.83538C8.58248 4.61724 7.506 6.3899 6.42646 8.15949C6.05843 8.76367 5.85602 8.75447 5.51866 8.14416C5.27024 7.69332 5.02182 7.24249 4.77034 6.79473C4.77034 6.79166 4.77341 6.78859 4.77954 6.78859Z" fill="#FFC20E"/>
<path d="M5.20879 9.06273C5.72403 9.99199 6.24233 10.9182 6.75143 11.8505C7.02132 12.3474 6.90784 12.5375 6.34047 12.5283C5.20879 12.5099 4.07404 12.4946 2.94543 12.4271C2.75528 12.4148 2.47313 12.1848 2.41179 11.9947C1.78615 10.0533 1.94256 8.15493 2.83195 6.324C2.91476 6.14919 3.12024 5.89157 3.23372 5.9069C3.4116 5.93451 3.61094 6.13079 3.71522 6.30867C4.23965 7.21033 4.73649 8.1304 5.24252 9.04433C5.23026 9.05046 5.22106 9.05659 5.20879 9.06273Z" fill="#17AE4B"/>
<path fill-rule="evenodd" clip-rule="evenodd" d="M11.4746 7.98415C11.0483 7.56705 10.4625 7.3125 9.81846 7.3125C8.5089 7.3125 7.44775 8.37057 7.44775 9.67707C7.44775 10.3548 7.72991 10.9621 8.18687 11.3915C8.45983 11.6491 8.79412 11.8454 9.16214 11.9496C9.37069 12.0079 9.58844 12.0416 9.81846 12.0416C10.5085 12.0416 11.1341 11.7472 11.5666 11.2749C11.7138 11.1154 11.8365 10.9376 11.9377 10.7443C12.1002 10.4254 12.1922 10.0604 12.1922 9.67707C12.1922 9.01155 11.9162 8.41351 11.4746 7.98415ZM10.7937 9.88255L9.37682 10.7014C9.15294 10.8302 9.0456 10.7903 9.0456 10.5205V8.86434V8.83061C9.0456 8.76927 9.05173 8.7202 9.06093 8.68033C9.1008 8.55152 9.20201 8.55152 9.37682 8.64966L10.7937 9.46852C10.9256 9.54519 10.9931 9.61266 10.9931 9.67707C10.9931 9.70774 10.9777 9.73841 10.9471 9.77214C10.9164 9.80588 10.8673 9.84268 10.7999 9.87948C10.7999 9.88255 10.7968 9.88255 10.7937 9.88255Z" fill="url(#paint0_linear_1818_77541)"/>
<defs>
<linearGradient id="paint0_linear_1818_77541" x1="13.4867" y1="17.2636" x2="0.700117" y2="-9.19902" gradientUnits="userSpaceOnUse">
<stop stop-color="#3C51A2"/>
<stop offset="0.5074" stop-color="#3DBCEC"/>
<stop offset="1" stop-color="#84D3ED"/>
</linearGradient>
</defs>
</svg>
