<svg width="19" height="18" viewBox="0 0 19 18" fill="none" xmlns="http://www.w3.org/2000/svg">
<path d="M15.4486 13.0386C16.2655 12.8457 16.7713 12.0271 16.5784 11.2103C16.3855 10.3934 15.567 9.88755 14.7501 10.0804C13.9332 10.2733 13.4274 11.0919 13.6202 11.9088C13.8131 12.7256 14.6317 13.2315 15.4486 13.0386Z" fill="#EE518B"/>
<path d="M3.8065 13.0386C4.62337 12.8457 5.12921 12.0271 4.93632 11.2103C4.74344 10.3934 3.92486 9.88755 3.10799 10.0804C2.29111 10.2733 1.78527 11.0919 1.97816 11.9088C2.17105 12.7256 2.98962 13.2315 3.8065 13.0386Z" fill="#4592CF"/>
<path d="M9.27842 11.4375C7.56211 11.4375 6.17432 12.8284 6.17432 14.5416V17.3264C7.14147 17.6304 8.1731 17.7962 9.24158 17.7962C10.3408 17.7962 11.3969 17.6211 12.3856 17.2988V14.5385C12.3825 12.8284 10.9917 11.4375 9.27842 11.4375Z" fill="#1F4393"/>
<path d="M10.5064 3.72815C10.5064 3.02504 10.0244 2.45703 9.42876 2.45703C8.83312 2.45703 8.35107 3.02811 8.35107 3.72815V3.73429H10.5034V3.72815H10.5064Z" fill="#17AE4B"/>
<path d="M12.5976 3.75391H6.2635C5.37617 3.75391 4.65771 4.60746 4.65771 5.65444V7.58261C4.65771 8.62959 5.37924 9.48314 6.2635 9.48314H12.5945C13.4818 9.48314 14.2003 8.62959 14.2003 7.58261V5.65444C14.2034 4.60746 13.4818 3.75391 12.5976 3.75391Z" fill="#EE3A24"/>
<path d="M13.6813 9.48309H5.21337C4.70063 9.48309 4.28613 9.06859 4.28613 8.55585V7.0913C4.28613 6.57856 4.70063 6.16406 5.21337 6.16406H13.6813C14.1941 6.16406 14.6086 6.57856 14.6086 7.0913V8.55585C14.6055 9.06859 14.191 9.48309 13.6813 9.48309Z" fill="#FFC200"/>
<path d="M7.96422 4.82081L11.3784 4.82695C12.8276 4.82695 13.4356 5.69585 13.4356 7.82973C13.4356 9.53991 13.0118 10.8448 11.096 10.6759L7.94887 10.5685C5.91325 10.8448 5.4834 9.46315 5.4834 7.75298C5.4834 6.03973 5.51103 4.5322 7.96422 4.82081Z" fill="#F5FAF8"/>
<path d="M7.52238 5.29688H11.3419C12.0358 5.29688 12.5976 5.85875 12.5976 6.55264V8.53607C12.5976 9.22997 12.0358 9.79184 11.3419 9.79184H7.52238C6.82849 9.79184 6.26661 9.22997 6.26661 8.53607V6.55264C6.26354 5.85875 6.82849 5.29688 7.52238 5.29688Z" fill="#1F4393"/>
<path d="M10.8536 7.42493C11.0198 7.42493 11.1545 7.26684 11.1545 7.07184C11.1545 6.87683 11.0198 6.71875 10.8536 6.71875C10.6874 6.71875 10.5527 6.87683 10.5527 7.07184C10.5527 7.26684 10.6874 7.42493 10.8536 7.42493Z" fill="#4592CF"/>
<path d="M8.15148 7.42493C8.31766 7.42493 8.45237 7.26684 8.45237 7.07184C8.45237 6.87683 8.31766 6.71875 8.15148 6.71875C7.9853 6.71875 7.85059 6.87683 7.85059 7.07184C7.85059 7.26684 7.9853 7.42493 8.15148 7.42493Z" fill="#4592CF"/>
<path d="M9.28757 9.07786H9.63452C10.0091 9.07786 10.3131 8.71863 10.3131 8.27344H8.60596C8.60903 8.71863 8.91299 9.07786 9.28757 9.07786Z" fill="#F5F6FC"/>
<path d="M13.5616 7.0673C13.5585 6.94141 13.5555 6.81553 13.5524 6.69886C13.5524 5.57511 12.7787 4.66016 11.8269 4.66016H7.09242C6.58582 4.66937 6.1836 4.85052 5.9042 5.20053C5.29628 5.95277 5.33312 7.33134 5.36076 8.43973C5.36383 8.56562 5.3669 8.6915 5.36997 8.80817C5.36997 9.93191 6.14369 10.8469 7.09549 10.8469H11.8299C11.8453 10.8469 11.8576 10.8438 11.8729 10.8438L12.8278 12.2623L12.8923 10.4447C12.9383 10.4017 12.9813 10.3556 13.0212 10.3065C13.6261 9.55426 13.5892 8.17568 13.5616 7.0673ZM6.00246 5.31414C6.23887 5.02246 6.55511 4.8628 6.96654 4.82902C6.56125 4.8628 6.2358 5.02553 5.99938 5.31721C5.96868 5.35405 5.94105 5.39089 5.91649 5.43081C5.94412 5.39089 5.97175 5.35098 6.00246 5.31414ZM5.50506 8.80817C5.50199 8.68843 5.49892 8.56562 5.49585 8.43666C5.48664 8.03445 5.47436 7.59232 5.49278 7.16248C5.47743 7.54934 5.48664 7.93927 5.49585 8.30157C5.50199 8.47965 5.50506 8.65159 5.50506 8.80817C5.50506 8.8573 5.50813 8.90642 5.50813 8.95248C5.50813 8.90335 5.50506 8.8573 5.50506 8.80817ZM12.9199 10.196C12.8401 10.2942 12.751 10.371 12.6528 10.4385L12.6436 10.4416C12.7449 10.371 12.8401 10.2911 12.9199 10.1929C12.9537 10.153 12.9844 10.11 13.012 10.067C12.9844 10.11 12.9537 10.153 12.9199 10.196ZM12.8247 10.0824C12.5883 10.374 12.2629 10.5183 11.8299 10.5276H7.09549C6.70863 10.5276 6.34326 10.3495 6.07 10.024C5.79674 9.69857 5.64323 9.26872 5.64323 8.81124C5.64323 8.65159 5.63709 8.47965 5.63402 8.30157C5.60945 7.30678 5.58182 6.07251 6.10071 5.43081C6.33712 5.13913 6.66258 4.99482 7.09549 4.98561H11.8299C12.2168 4.98561 12.5822 5.16369 12.8554 5.48915C13.1287 5.8146 13.2822 6.24445 13.2822 6.70193C13.2822 6.86158 13.2883 7.03352 13.2914 7.2116C13.3129 8.20332 13.3405 9.44066 12.8247 10.0824ZM13.4265 8.34455C13.4419 7.95769 13.4327 7.56776 13.4234 7.20853C13.4204 7.03045 13.4142 6.86158 13.4142 6.70193C13.4142 6.6528 13.4142 6.60675 13.4112 6.56069C13.4142 6.60675 13.4142 6.65587 13.4142 6.705C13.4173 6.82474 13.4204 6.94755 13.4234 7.07651C13.4357 7.47565 13.4449 7.91471 13.4265 8.34455Z" fill="#17AE4B"/>
<path d="M16.0486 13.9708C15.7846 13.7713 15.4561 13.6484 15.0999 13.6484C14.2249 13.6484 13.5156 14.3577 13.5156 15.2327V16.2766C14.5104 15.6902 15.3732 14.9042 16.0486 13.9708Z" fill="#EE518B"/>
<path d="M16.3926 14.3175C17.4887 12.8376 18.1457 11.0138 18.1457 9.03036C18.1457 7.75925 17.8725 6.55568 17.3935 5.46264C17.197 5.45036 17.0066 5.42273 16.8224 5.38281C16.8623 5.46571 16.9053 5.54861 16.9452 5.63458C17.4027 6.67542 17.6637 7.82065 17.6637 9.03036C17.6637 10.8787 17.0619 12.5827 16.0518 13.9705C16.1807 14.0688 16.2974 14.1854 16.3926 14.3175Z" fill="#1F4393"/>
<path d="M5.04109 16.3268V15.4671C5.04109 14.5921 4.33185 13.8828 3.4568 13.8828C3.12521 13.8828 2.82124 13.9841 2.56641 14.1561C3.23881 15.0311 4.07701 15.7711 5.04109 16.3268Z" fill="#4592CF"/>
<path d="M2.56367 14.1542C1.47064 12.7326 0.816655 10.961 0.816655 9.03286C0.816655 4.38131 4.58702 0.610948 9.23857 0.610948C9.39516 0.610948 9.54867 0.6263 9.70219 0.635511C11.222 0.71841 12.6313 1.20659 13.8318 1.98953C13.8226 1.88206 13.8164 1.7746 13.8164 1.66407C13.8164 1.5781 13.8226 1.4952 13.8287 1.4123C12.619 0.684636 11.222 0.233298 9.72675 0.153469C9.56403 0.144258 9.4013 0.128906 9.2355 0.128906C4.31683 0.128906 0.331543 4.11419 0.331543 9.03286C0.331543 11.0931 1.03772 12.9813 2.21058 14.4919C2.31498 14.3599 2.43165 14.2432 2.56367 14.1542Z" fill="#1F4393"/>
<path d="M2.5634 14.1523C2.4283 14.2445 2.3147 14.3611 2.21338 14.487C2.97789 15.4695 3.93584 16.2893 5.04115 16.8819V16.3231C4.07707 15.7673 3.23887 15.0274 2.5634 14.1523Z" fill="#1F4393"/>
<path d="M16.3925 14.3157C16.2973 14.1806 16.1807 14.067 16.0517 13.9688C15.3732 14.9021 14.5135 15.6851 13.5156 16.2746V16.8395C14.6486 16.2162 15.6249 15.3504 16.3925 14.3157Z" fill="#1F4393"/>
<path d="M13.8321 1.41406C13.826 1.49696 13.8198 1.57986 13.8198 1.66583C13.8198 1.77636 13.826 1.88382 13.8352 1.99128C15.1155 2.82641 16.1533 3.99928 16.8226 5.38707C17.0099 5.42698 17.2003 5.45462 17.3937 5.4669C17.3906 5.46076 17.3875 5.45155 17.3845 5.44541C16.6415 3.75979 15.3918 2.35358 13.8321 1.41406Z" fill="#1F4393"/>
</svg>
