<svg width="19" height="18" viewBox="0 0 19 18" fill="none" xmlns="http://www.w3.org/2000/svg">
<path fill-rule="evenodd" clip-rule="evenodd" d="M8.03112 11.4609H5.87939V13.9483C6.2667 14.2037 6.67697 14.4274 7.10731 14.6139C7.40568 14.743 7.71553 14.8549 8.03112 14.9439V11.4609Z" fill="#EE3A3A"/>
<path fill-rule="evenodd" clip-rule="evenodd" d="M17.4902 9.8444L16.9279 10.7682L17.6107 10.3723C17.7083 10.1026 17.8001 9.83292 17.8833 9.56037C17.846 9.84153 17.8001 10.1198 17.7455 10.3981L18.1472 11.0809L18.1013 9.99932L18.0554 8.91772L17.4902 9.8444ZM2.34495 7.7271C2.34495 4.53968 4.24133 1.79408 6.96685 0.554688C3.4581 1.60186 0.901855 4.8524 0.901855 8.69681C0.901855 13.3904 4.7061 17.1947 9.39973 17.1947C11.233 17.1947 12.9314 16.6152 14.32 15.6254C16.2135 14.2798 17.5304 12.1769 17.8316 9.75833C16.9336 13.1236 13.8667 15.6024 10.2203 15.6024C9.1157 15.6024 8.06279 15.3758 7.10743 14.9626C4.30445 13.7577 2.34495 10.9719 2.34495 7.7271Z" fill="#1F4393"/>
<path fill-rule="evenodd" clip-rule="evenodd" d="M5.12194 8.43225C5.33998 6.01658 7.36834 4.12593 9.84138 4.12593C11.4279 4.12593 12.8337 4.90629 13.6944 6.10552H16.067C15.2982 3.90502 13.2038 2.32422 10.7422 2.32422C7.62941 2.32422 5.10472 4.84891 5.10472 7.96174C5.10185 8.11953 5.10759 8.27732 5.12194 8.43225Z" fill="#17AE4B"/>
<path fill-rule="evenodd" clip-rule="evenodd" d="M4.00332 8.99406C4.00332 4.9689 7.26821 1.70689 11.2905 1.70689C12.702 1.70689 14.0189 2.10854 15.1349 2.80283C13.8668 1.55196 12.1254 0.777344 10.206 0.777344C6.33292 0.777344 3.19141 3.91886 3.19141 7.79197C3.19141 9.4531 3.76807 10.9794 4.73491 12.1815C4.2644 11.2204 4.00332 10.1388 4.00332 8.99406Z" fill="#4592CF"/>
<path fill-rule="evenodd" clip-rule="evenodd" d="M8.58789 10.0703V15.0853C9.11578 15.1972 9.66088 15.2545 10.2203 15.2545C10.3953 15.2545 10.5703 15.2488 10.7425 15.2373V10.0703H8.58789Z" fill="#EE518B"/>
<path fill-rule="evenodd" clip-rule="evenodd" d="M11.2988 8.08099V15.1817C12.0562 15.0784 12.7792 14.8661 13.4506 14.562V8.07812H11.2988V8.08099Z" fill="#FFC10E"/>
<path fill-rule="evenodd" clip-rule="evenodd" d="M14.082 6.76172V14.2411C14.9026 13.7792 15.6313 13.1739 16.2338 12.4595V6.76172H14.082Z" fill="#8F3F97"/>
</svg>
