<svg width="19" height="20" viewBox="0 0 19 20" fill="none" xmlns="http://www.w3.org/2000/svg">
<path d="M9.2915 19.0498C14.3578 19.0498 18.4648 14.9428 18.4648 9.87646C18.4648 4.81017 14.3578 0.703125 9.2915 0.703125C4.2252 0.703125 0.118164 4.81017 0.118164 9.87646C0.118164 14.9428 4.2252 19.0498 9.2915 19.0498Z" fill="#1F4393"/>
<path d="M11.6985 4.20657C12.1002 4.20657 12.4229 3.88075 12.4229 3.48219C12.4229 3.08046 12.0971 2.75781 11.6985 2.75781C11.2968 2.75781 10.9741 3.08362 10.9741 3.48219C10.9741 3.88075 11.2968 4.20657 11.6985 4.20657Z" fill="#4AACE1"/>
<path d="M6.21669 3.80936C6.55516 3.80936 6.83036 3.53416 6.83036 3.1957C6.83036 2.85723 6.55516 2.58203 6.21669 2.58203C5.87823 2.58203 5.60303 2.85723 5.60303 3.1957C5.60303 3.53416 5.87506 3.80936 6.21669 3.80936Z" fill="#6AB945"/>
<path d="M2.45536 7.64509C2.77168 7.64509 3.0279 7.38886 3.0279 7.07254C3.0279 6.75622 2.77168 6.5 2.45536 6.5C2.13903 6.5 1.88281 6.75622 1.88281 7.07254C1.88281 7.38886 2.13903 7.64509 2.45536 7.64509Z" fill="#51C2C1"/>
<path d="M2.63895 13.7633C3.15455 13.7633 3.57526 13.3457 3.57526 12.8269C3.57526 12.3113 3.15772 11.8906 2.63895 11.8906C2.12334 11.8906 1.70264 12.3082 1.70264 12.8269C1.70264 13.3457 2.12018 13.7633 2.63895 13.7633Z" fill="#EC1C24"/>
<path d="M7.32067 17.7038C7.62118 17.7038 7.86791 17.4603 7.86791 17.1566C7.86791 16.8561 7.62434 16.6094 7.32067 16.6094C7.02017 16.6094 6.77344 16.8529 6.77344 17.1566C6.77344 17.4603 7.02017 17.7038 7.32067 17.7038Z" fill="#AB206D"/>
<path d="M16.1682 7.67226C16.5003 7.67226 16.766 7.40339 16.766 7.07441C16.766 6.74227 16.4972 6.47656 16.1682 6.47656C15.8361 6.47656 15.5703 6.74544 15.5703 7.07441C15.5672 7.40339 15.8361 7.67226 16.1682 7.67226Z" fill="#F8BC16"/>
<path d="M13.2235 14.2951H5.36286C5.09082 14.2951 4.87256 14.0768 4.87256 13.8048V5.94733C4.87256 5.67529 5.09082 5.45703 5.36286 5.45703H13.2235C13.4955 5.45703 13.7138 5.67529 13.7138 5.94733V13.8079C13.7138 14.0768 13.4923 14.2951 13.2235 14.2951Z" fill="#F5F6FC"/>
<path d="M5.58774 6.43232C5.77292 6.43232 5.92304 6.2822 5.92304 6.09702C5.92304 5.91184 5.77292 5.76172 5.58774 5.76172C5.40256 5.76172 5.25244 5.91184 5.25244 6.09702C5.25244 6.2822 5.40256 6.43232 5.58774 6.43232Z" fill="#40C5EC"/>
<path d="M12.9994 13.9909C13.1845 13.9909 13.3347 13.8408 13.3347 13.6556C13.3347 13.4704 13.1845 13.3203 12.9994 13.3203C12.8142 13.3203 12.6641 13.4704 12.6641 13.6556C12.6641 13.8408 12.8142 13.9909 12.9994 13.9909Z" fill="#40C5EC"/>
<path d="M12.9994 6.43232C13.1845 6.43232 13.3347 6.2822 13.3347 6.09702C13.3347 5.91184 13.1845 5.76172 12.9994 5.76172C12.8142 5.76172 12.6641 5.91184 12.6641 6.09702C12.6641 6.2822 12.8142 6.43232 12.9994 6.43232Z" fill="#40C5EC"/>
<path d="M5.58774 13.9909C5.77292 13.9909 5.92304 13.8408 5.92304 13.6556C5.92304 13.4704 5.77292 13.3203 5.58774 13.3203C5.40256 13.3203 5.25244 13.4704 5.25244 13.6556C5.25244 13.8408 5.40256 13.9909 5.58774 13.9909Z" fill="#40C5EC"/>
<path d="M13.6473 5.96629C13.6473 5.72272 13.448 5.52344 13.2045 5.52344H5.38182C5.13825 5.52344 4.93896 5.72272 4.93896 5.96629V7.16515H13.6473V5.96629Z" fill="#17AE4B"/>
<path d="M5.38182 14.2307H13.2045C13.448 14.2307 13.6473 14.0314 13.6473 13.7878V7.16406H4.93896V13.7878C4.93896 14.0346 5.13825 14.2307 5.38182 14.2307Z" fill="#F5F6FC"/>
<path d="M6.73558 9.41924C6.68181 9.36546 6.5964 9.36546 6.54262 9.41924L5.69805 10.2638C5.64427 10.3176 5.64427 10.403 5.69805 10.4568L6.52997 11.2887C6.55528 11.314 6.59007 11.3298 6.62487 11.3298C6.65966 11.3298 6.69446 11.3172 6.71977 11.2887C6.77354 11.2349 6.77354 11.1495 6.71977 11.0957L5.98273 10.3587L6.72925 9.61219C6.78936 9.55842 6.78936 9.46985 6.73558 9.41924Z" fill="#4592CF"/>
<path d="M9.6555 10.2638L8.81092 9.41924C8.75715 9.36546 8.67174 9.36546 8.61797 9.41924C8.56419 9.47301 8.56419 9.55842 8.61797 9.61219L9.36449 10.3587L8.62746 11.0957C8.57368 11.1495 8.57368 11.2349 8.62746 11.2887C8.65276 11.314 8.68756 11.3298 8.72235 11.3298C8.75715 11.3298 8.79194 11.3172 8.81725 11.2887L9.64918 10.4568C9.70928 10.403 9.70928 10.3144 9.6555 10.2638Z" fill="#4592CF"/>
<path d="M8.22549 8.91059C8.1559 8.88528 8.07682 8.92008 8.04835 8.98967L7.04877 11.6215C7.02347 11.6911 7.05826 11.7701 7.12785 11.7986C7.14367 11.8049 7.15949 11.8081 7.1753 11.8081C7.22908 11.8081 7.28285 11.7733 7.30183 11.7195L8.30141 9.08773C8.32988 9.01814 8.29508 8.93906 8.22549 8.91059Z" fill="#4592CF"/>
<path d="M6.11863 6.79097C6.32303 6.79097 6.48873 6.62528 6.48873 6.42088C6.48873 6.21648 6.32303 6.05078 6.11863 6.05078C5.91423 6.05078 5.74854 6.21648 5.74854 6.42088C5.74854 6.62528 5.91423 6.79097 6.11863 6.79097Z" fill="#0098FF"/>
<path d="M7.54881 6.79097C7.75321 6.79097 7.9189 6.62528 7.9189 6.42088C7.9189 6.21648 7.75321 6.05078 7.54881 6.05078C7.34441 6.05078 7.17871 6.21648 7.17871 6.42088C7.17871 6.62528 7.34441 6.79097 7.54881 6.79097Z" fill="#F5F6FC"/>
<path d="M8.9785 6.79097C9.1829 6.79097 9.34859 6.62528 9.34859 6.42088C9.34859 6.21648 9.1829 6.05078 8.9785 6.05078C8.7741 6.05078 8.6084 6.21648 8.6084 6.42088C8.6084 6.62528 8.7741 6.79097 8.9785 6.79097Z" fill="#FFC200"/>
<path d="M10.313 6.79097C10.5174 6.79097 10.6831 6.62528 10.6831 6.42088C10.6831 6.21648 10.5174 6.05078 10.313 6.05078C10.1086 6.05078 9.94287 6.21648 9.94287 6.42088C9.94287 6.62528 10.1086 6.79097 10.313 6.79097Z" fill="#EE3A3A"/>
<path opacity="0.1" d="M13.6474 13.7878V7.16406H13.1191V14.2307H13.2045C13.4481 14.2307 13.6474 14.0346 13.6474 13.7878Z" fill="#221F1F"/>
<path opacity="0.1" d="M13.6474 5.96629C13.6474 5.72272 13.4481 5.52344 13.2045 5.52344H13.1191V7.16515H13.6474V5.96629Z" fill="#221F1F"/>
<path d="M12.9199 17.1563C12.9326 17.1563 12.9452 17.1563 12.9579 17.1531C13.1603 17.1341 13.3248 16.9823 13.3564 16.7798L13.7392 14.2334L16.2729 13.8633C16.4754 13.8349 16.6304 13.6704 16.6494 13.4679C16.6683 13.2655 16.545 13.0757 16.352 13.0124L11.4237 11.3581C11.3763 11.3423 11.332 11.3359 11.2845 11.3359C11.1707 11.3359 11.0568 11.3802 10.9745 11.4656C10.8575 11.5827 10.8164 11.7566 10.867 11.9148L12.5087 16.8558C12.5625 17.0361 12.7333 17.1563 12.9199 17.1563Z" fill="#1F4393"/>
<path d="M16.2095 13.4246L11.2812 11.7734L12.9198 16.7144L13.3532 13.8453L16.2095 13.4246Z" fill="#F5F6FC"/>
<path opacity="0.1" d="M13.35 13.8554L11.2876 11.793L12.9198 16.7149L13.35 13.8554Z" fill="#221F1F"/>
<path d="M11.699 4.20657C12.1007 4.20657 12.4234 3.88075 12.4234 3.48219C12.4234 3.08046 12.0976 2.75781 11.699 2.75781C11.2973 2.75781 10.9746 3.08362 10.9746 3.48219C10.9746 3.88075 11.2973 4.20657 11.699 4.20657Z" fill="#4592CF"/>
<path d="M6.21718 3.80936C6.55565 3.80936 6.83084 3.53416 6.83084 3.1957C6.83084 2.85723 6.55565 2.58203 6.21718 2.58203C5.87872 2.58203 5.60352 2.85723 5.60352 3.1957C5.60352 3.53416 5.87555 3.80936 6.21718 3.80936Z" fill="#17AE4B"/>
<path d="M2.45584 7.64509C2.77217 7.64509 3.02839 7.38886 3.02839 7.07254C3.02839 6.75622 2.77217 6.5 2.45584 6.5C2.13952 6.5 1.8833 6.75622 1.8833 7.07254C1.8833 7.38886 2.13952 7.64509 2.45584 7.64509Z" fill="#EE3A3A"/>
<path d="M2.63944 13.7633C3.15504 13.7633 3.57575 13.3457 3.57575 12.8269C3.57575 12.3113 3.1582 11.8906 2.63944 11.8906C2.12383 11.8906 1.70312 12.3082 1.70312 12.8269C1.70313 13.3457 2.12067 13.7633 2.63944 13.7633Z" fill="#EE518B"/>
<path d="M7.32067 17.7038C7.62118 17.7038 7.86791 17.4603 7.86791 17.1566C7.86791 16.8561 7.62434 16.6094 7.32067 16.6094C7.02017 16.6094 6.77344 16.8529 6.77344 17.1566C6.77344 17.4603 7.02017 17.7038 7.32067 17.7038Z" fill="#B21292"/>
<path d="M16.1682 7.67226C16.5003 7.67226 16.766 7.40339 16.766 7.07441C16.766 6.74227 16.4972 6.47656 16.1682 6.47656C15.8361 6.47656 15.5703 6.74544 15.5703 7.07441C15.5672 7.40339 15.8361 7.67226 16.1682 7.67226Z" fill="#FFC200"/>
</svg>
