<svg width="22" height="18" viewBox="0 0 22 18" fill="none" xmlns="http://www.w3.org/2000/svg">
<path d="M18.2082 4.11606C18.2082 4.07574 18.2156 4.03543 18.2302 3.99511C16.3757 1.82906 13.6233 0.454662 10.5483 0.454662C9.01627 0.454662 7.56124 0.795512 6.26014 1.40758C6.24915 1.61282 6.08056 1.77408 5.87531 1.77408C5.65907 1.77408 5.48682 1.60183 5.48682 1.38559C5.48682 1.16935 5.65907 0.99709 5.87531 0.99709C5.95228 0.99709 6.02558 1.01908 6.08422 1.0594C7.44029 0.421676 8.95397 0.0625 10.5483 0.0625C13.7405 0.0625 16.5956 1.48821 18.5198 3.73489C18.5454 3.73123 18.5711 3.72756 18.5967 3.72756C18.813 3.72756 18.9852 3.89982 18.9852 4.11606C18.9852 4.3323 18.813 4.50455 18.5967 4.50455C18.3805 4.50455 18.2082 4.32863 18.2082 4.11606Z" fill="#FFC20E"/>
<path d="M18.3105 16.8536C18.3105 16.6374 18.4828 16.4651 18.699 16.4651C18.7137 16.4651 18.7247 16.4688 18.7394 16.4688C19.9415 14.8085 20.6489 12.7671 20.6489 10.5607C20.6489 9.02506 20.3043 7.56637 19.6923 6.26527C19.6886 6.26527 19.6813 6.26527 19.6776 6.26527C19.4614 6.26527 19.2891 6.09302 19.2891 5.87678C19.2891 5.66054 19.4614 5.48828 19.6776 5.48828C19.8939 5.48828 20.0661 5.66054 20.0661 5.87678C20.0661 5.93908 20.0515 5.99772 20.0221 6.04904C20.6745 7.4161 21.041 8.94443 21.041 10.5607C21.041 12.8551 20.3043 14.9735 19.0546 16.7034C19.0765 16.751 19.0875 16.8023 19.0875 16.8573C19.0875 17.0735 18.9153 17.2458 18.699 17.2458C18.4865 17.2421 18.3105 17.0662 18.3105 16.8536Z" fill="#2184AA"/>
<path d="M1.14712 15.5425C1.14712 15.4692 1.16911 15.3996 1.20576 15.3409C0.469086 13.9042 0.0512695 12.2806 0.0512695 10.5544C0.0512695 7.4024 1.44033 4.57664 3.64303 2.65248C3.6357 2.62682 3.63203 2.5975 3.63203 2.56818C3.63203 2.35195 3.80429 2.17969 4.02053 2.17969C4.23677 2.17969 4.40903 2.35195 4.40903 2.56818C4.40903 2.78442 4.23677 2.95668 4.02053 2.95668C3.98021 2.95668 3.94356 2.94935 3.91058 2.93835C1.78484 4.78921 0.443431 7.51602 0.443431 10.5544C0.443431 12.211 0.842923 13.7759 1.55028 15.1577C1.75919 15.165 1.92412 15.3336 1.92412 15.5462C1.92412 15.7624 1.75186 15.9347 1.53562 15.9347C1.32305 15.931 1.14712 15.7587 1.14712 15.5425Z" fill="#8F3F97"/>
<path d="M19.9819 10.5587C19.9819 12.8384 19.1719 14.9275 17.8232 16.5584L16.7236 15.5835C17.8085 14.2421 18.4609 12.5305 18.4609 10.6687C18.4609 9.23562 18.076 7.89421 17.398 6.73971L18.7358 5.87109C19.5274 7.25282 19.9819 8.85079 19.9819 10.5587Z" fill="#8F3F97"/>
<path d="M5.09432 14.386C5.1383 14.1221 4.96238 13.8692 4.69483 13.8252C4.64718 13.8179 4.59954 13.8179 4.55555 13.8252C3.87752 12.5388 3.59897 11.0324 3.85919 9.48946C4.50058 5.7511 8.04103 3.24419 11.7721 3.88191C15.5031 4.51963 18.01 8.06008 17.3723 11.7911C17.2623 12.4435 17.0571 13.0556 16.7822 13.6236C16.533 13.6053 16.3057 13.7739 16.2618 14.0268C16.2178 14.2907 16.3937 14.5436 16.6612 14.5876C16.9251 14.6315 17.178 14.4556 17.222 14.1881C17.244 14.0561 17.211 13.9315 17.1414 13.8289C17.4382 13.2205 17.6618 12.5608 17.7828 11.8571C18.4571 7.89882 15.7963 4.14213 11.8417 3.46776C7.88343 2.79339 4.12674 5.45423 3.45237 9.40883C3.17016 11.0581 3.47436 12.6671 4.20371 14.0378C4.17072 14.0928 4.14507 14.1514 4.13407 14.2174C4.09009 14.4813 4.26601 14.7342 4.53356 14.7781C4.79745 14.8295 5.05034 14.6499 5.09432 14.386Z" fill="#EE518B"/>
<path d="M18.1273 4.94009L16.7712 5.8197C15.3418 4.00916 13.1281 2.851 10.6432 2.851C9.27248 2.851 7.98604 3.20285 6.86453 3.82591L5.91895 2.33789C7.28601 1.56457 8.86199 1.12109 10.5479 1.12109C13.6522 1.12109 16.4083 2.62377 18.1273 4.94009Z" fill="#17AE4B"/>
<path d="M5.9299 4.43675C4.14135 5.78916 2.95021 7.89657 2.83659 10.2825H1.11768C1.20197 7.26618 2.70465 4.60901 4.98065 2.94141L5.9299 4.43675Z" fill="#FFC20E"/>
<path d="M4.65466 15.6934L3.48551 16.8149C2.2174 15.3818 1.3781 13.5603 1.16553 11.5482L2.86612 11.4492C3.02371 13.0582 3.67243 14.5205 4.65466 15.6934Z" fill="#EE3A3A"/>
<path d="M10.4818 11.1893C10.917 11.1893 11.2698 10.8365 11.2698 10.4013C11.2698 9.96607 10.917 9.61328 10.4818 9.61328C10.0466 9.61328 9.69385 9.96607 9.69385 10.4013C9.69385 10.8365 10.0466 11.1893 10.4818 11.1893Z" fill="#8F3F97"/>
<path d="M14.891 10.5908C15.1258 10.5908 15.3161 10.3282 15.3161 10.0044C15.3161 9.68051 15.1258 9.41797 14.891 9.41797C14.6562 9.41797 14.4658 9.68051 14.4658 10.0044C14.4658 10.3282 14.6562 10.5908 14.891 10.5908Z" fill="#FFC20E"/>
<path d="M8.4113 6.85339C8.77047 6.80941 9.07834 6.5272 9.08933 6.21567C9.09666 5.89681 8.78513 5.69157 8.40763 5.76487C8.04479 5.8345 7.77358 6.13137 7.78091 6.42091C7.7919 6.70312 8.06678 6.89371 8.4113 6.85339Z" fill="#4592CF"/>
<path d="M5.88987 10.0645C5.85322 10.3504 5.99982 10.6289 6.23805 10.6693C6.48728 10.7132 6.71084 10.4713 6.71817 10.1525C6.7255 9.85562 6.54592 9.62472 6.32601 9.61373C6.11344 9.60273 5.92286 9.79698 5.88987 10.0645Z" fill="#FFC20E"/>
<path d="M13.8027 5.54692C13.5645 5.38566 13.4398 5.19507 13.4838 5.09978C13.5278 5.00816 13.7294 5.01915 13.9676 5.1401C14.2572 5.2867 14.4991 5.53592 14.4551 5.67153C14.4074 5.81447 14.0886 5.74117 13.8027 5.54692Z" fill="#8F3F97"/>
<path d="M15.4554 7.10083C15.3051 6.8626 15.2538 6.65003 15.3198 6.59871C15.3857 6.5474 15.5543 6.65369 15.7229 6.8626C15.9245 7.11549 16.0528 7.42702 15.9721 7.51131C15.8878 7.60294 15.6386 7.39403 15.4554 7.10083Z" fill="#17AE4B"/>
<path d="M8.85501 5.3268C8.56181 5.43675 8.2796 5.4111 8.18797 5.28649C8.09635 5.16554 8.1953 4.96396 8.44086 4.81369C8.73407 4.63411 9.13722 4.59013 9.28383 4.75505C9.43043 4.91998 9.20686 5.19119 8.85501 5.3268Z" fill="#EE518B"/>
<path d="M7.24211 5.6888C6.99655 5.86106 6.78398 5.92703 6.73267 5.86473C6.68502 5.80242 6.79497 5.6265 7.01121 5.43958C7.27143 5.21968 7.59029 5.06208 7.67092 5.13538C7.76255 5.21235 7.54265 5.4799 7.24211 5.6888Z" fill="#1F4393"/>
<path d="M5.75076 7.32232C5.5895 7.57521 5.41724 7.71814 5.3476 7.67783C5.27797 7.64118 5.31462 7.43227 5.44656 7.17938C5.60416 6.87518 5.83872 6.61129 5.94134 6.64794C6.04763 6.68826 5.94501 7.01812 5.75076 7.32232Z" fill="#FFC20E"/>
<path d="M5.47556 12.1405C5.55619 12.4337 5.5342 12.6683 5.43891 12.7123C5.34728 12.7526 5.19335 12.6023 5.0834 12.3421C4.95145 12.0269 4.92213 11.6641 5.04674 11.5871C5.17502 11.5101 5.3766 11.7887 5.47556 12.1405Z" fill="#EE518B"/>
<path d="M16.2804 12.2901C16.1778 12.5797 16.0019 12.7666 15.8736 12.7519C15.749 12.7373 15.683 12.5284 15.7343 12.2498C15.7966 11.9126 15.9982 11.5901 16.1778 11.5938C16.3647 11.5938 16.4013 11.9383 16.2804 12.2901Z" fill="#4592CF"/>
<path d="M12.9053 9.01704C13.2856 8.92774 13.5133 8.51189 13.4138 8.08823C13.3143 7.66457 12.9254 7.39352 12.5451 7.48283C12.1647 7.57213 11.9371 7.98798 12.0366 8.41164C12.1361 8.8353 12.525 9.10635 12.9053 9.01704Z" fill="#EE3A3A"/>
<path d="M10.563 5.22178C10.9031 5.22178 11.1787 5.05933 11.1787 4.85893C11.1787 4.65854 10.9031 4.49609 10.563 4.49609C10.2229 4.49609 9.94727 4.65854 9.94727 4.85893C9.94727 5.05933 10.2229 5.22178 10.563 5.22178Z" fill="#FFC20E"/>
<path d="M8.65701 9.54284C8.65701 9.37425 8.58738 9.22398 8.47742 9.12869C8.47742 9.12869 8.34182 8.97476 8.34182 8.81716C8.34548 8.65223 8.39313 8.56427 8.43711 8.51662C8.4591 8.50196 8.48109 8.4873 8.49941 8.46898C8.60204 8.37735 8.66801 8.23808 8.66801 8.08415C8.66801 7.8056 8.45543 7.58203 8.19521 7.58203C7.93499 7.58203 7.72242 7.8056 7.72242 8.08415C7.72242 8.22342 7.7774 8.35169 7.86536 8.44332C7.87269 8.45065 7.88002 8.46165 7.89101 8.46898C8.05228 8.60092 8.01563 8.82449 8.01563 8.82449C8.01563 9.01141 7.88002 9.14335 7.88002 9.14335C7.7774 9.2423 7.71143 9.38524 7.71143 9.5465C7.71143 9.83971 7.924 10.0779 8.18422 10.0779C8.44444 10.0743 8.65701 9.83604 8.65701 9.54284Z" fill="#1F4393"/>
<path d="M6.95252 8.40057C6.9965 8.18433 6.94519 7.99741 6.8389 7.88013C6.8389 7.88013 6.71429 7.70421 6.7546 7.51363C6.79858 7.31938 6.87922 7.20576 6.94152 7.14712C6.97084 7.12879 7.00016 7.1068 7.02582 7.08481C7.17242 6.9602 7.28604 6.78428 7.32269 6.60103C7.38866 6.2785 7.18342 6.07692 6.88288 6.14656C6.60067 6.20886 6.32946 6.49107 6.26349 6.78428C6.2305 6.93455 6.25249 7.06282 6.32213 7.14712C6.32579 7.15445 6.33312 7.16178 6.34412 7.17278C6.48339 7.30105 6.3881 7.55394 6.3881 7.55394C6.34045 7.76652 6.16453 7.92778 6.16453 7.92778C6.03625 8.04139 5.92997 8.20999 5.88965 8.39691C5.81268 8.73776 5.96295 9.03463 6.24883 9.06028C6.55303 9.07861 6.87555 8.7854 6.95252 8.40057Z" fill="#1F4393"/>
<path d="M14.147 8.26341C14.114 8.03251 14.1873 7.84559 14.3192 7.7393C14.3192 7.7393 14.4695 7.57437 14.4365 7.38379C14.4035 7.18954 14.3266 7.07226 14.2606 7.00262C14.2313 6.98063 14.202 6.95498 14.1726 6.92932C14.0187 6.78639 13.9088 6.59947 13.8831 6.41988C13.8391 6.10469 14.081 5.95808 14.3962 6.07536C14.6821 6.18165 14.9386 6.47852 14.99 6.7534C15.0156 6.89267 14.9863 7.00996 14.913 7.07959C14.9057 7.08692 14.8983 7.09425 14.891 7.09792C14.7407 7.20054 14.8214 7.45709 14.8214 7.45709C14.858 7.66967 15.0339 7.83826 15.0339 7.83826C15.1622 7.96287 15.2575 8.13146 15.2942 8.31838C15.3601 8.6629 15.1879 8.95977 14.8837 8.97809C14.5501 9.00375 14.202 8.67389 14.147 8.26341Z" fill="#1F4393"/>
<path d="M15.8408 10.4333C15.8262 10.1914 15.8811 9.98247 15.9728 9.85786C15.9728 9.85786 16.0754 9.6746 16.0607 9.47669C16.0461 9.27511 15.9984 9.15783 15.9581 9.09186C15.9398 9.06987 15.9214 9.04421 15.9031 9.01856C15.8042 8.87562 15.7345 8.68137 15.7235 8.49446C15.7052 8.1646 15.8738 8.01433 16.0754 8.13528C16.255 8.24523 16.4052 8.53844 16.4309 8.80965C16.4419 8.94892 16.4199 9.0662 16.3759 9.14317C16.3722 9.1505 16.3686 9.15783 16.3613 9.16516C16.2623 9.27511 16.3099 9.53167 16.3099 9.53167C16.3283 9.74424 16.4309 9.9055 16.4309 9.9055C16.5042 10.0191 16.5592 10.1804 16.5775 10.3636C16.6068 10.7045 16.4969 11.0343 16.3063 11.0966C16.0864 11.1663 15.8628 10.8657 15.8408 10.4333Z" fill="#1F4393"/>
<path d="M5.39506 10.405C5.41338 10.1631 5.35841 9.95415 5.27045 9.82587C5.27045 9.82587 5.17149 9.63895 5.18615 9.44471C5.20448 9.24313 5.25579 9.12585 5.2961 9.05987C5.31443 9.03788 5.33642 9.01223 5.35474 8.98657C5.4537 8.84364 5.527 8.65305 5.54166 8.46247C5.56365 8.13261 5.39872 7.97868 5.19348 8.09963C5.01023 8.20591 4.85629 8.49912 4.82697 8.77033C4.81231 8.90961 4.8343 9.02689 4.87828 9.10385C4.88195 9.11118 4.88562 9.11852 4.89295 9.12585C4.98824 9.23946 4.94059 9.49235 4.94059 9.49235C4.9186 9.70493 4.81231 9.86252 4.81231 9.86252C4.73535 9.97614 4.68037 10.1374 4.65838 10.3207C4.62173 10.6615 4.73168 10.9914 4.9186 11.0573C5.1385 11.1343 5.36574 10.8411 5.39506 10.405Z" fill="#1F4393"/>
<path d="M11.2703 8.13947C11.2703 7.89391 11.142 7.67768 10.9441 7.54207C10.4896 7.06194 10.8158 6.74309 10.9405 6.64779C10.9551 6.64046 10.9661 6.62947 10.9808 6.61847H10.9844C11.12 6.51219 11.208 6.36558 11.208 6.20066C11.208 5.88546 10.8965 5.62891 10.5153 5.62891C10.1305 5.62891 9.82261 5.88546 9.82261 6.20066C9.82261 6.35459 9.89591 6.49386 10.0169 6.59648C10.0205 6.60015 10.0205 6.60015 10.0242 6.60381L10.0279 6.60748C10.5006 7.0033 10.1121 7.49442 10.1085 7.49442C9.86659 7.61903 9.70166 7.86459 9.70166 8.14314C9.70166 8.55363 10.0535 8.88348 10.4896 8.88348C10.9185 8.87982 11.2703 8.54629 11.2703 8.13947Z" fill="#1F4393"/>
<path d="M13.2419 6.41975C13.2492 6.22184 13.1246 6.02393 12.9376 5.89565C12.9376 5.89565 12.6334 5.60611 12.6334 5.44118C12.6334 5.38254 12.6591 5.34223 12.6958 5.31657C12.7544 5.30924 12.8094 5.29092 12.8497 5.2616C12.912 5.22128 12.945 5.16264 12.9413 5.08567C12.9267 4.86943 12.6115 4.65319 12.2926 4.60921C12.0287 4.57256 11.8418 4.67152 11.8418 4.82179C11.8418 4.89509 11.8821 4.97939 11.9554 5.05635C11.9554 5.05635 12.124 5.22861 12.212 5.37155C12.2963 5.51448 12.0654 5.90298 12.0654 5.90298C11.9847 5.98361 11.9371 6.0899 11.9408 6.21818C11.9481 6.52971 12.2596 6.81192 12.6188 6.8559C12.956 6.89255 13.2345 6.70196 13.2419 6.41975Z" fill="#1F4393"/>
<path d="M7.5751 14.1267C6.63684 14.1267 5.87451 13.3643 5.87451 12.4261V11.935C5.87451 10.9967 6.63684 10.2344 7.5751 10.2344C8.51336 10.2344 9.27569 10.9967 9.27569 11.935V12.4261C9.27569 13.3643 8.51336 14.1267 7.5751 14.1267Z" fill="#F5F6FC"/>
<path d="M7.57544 13.9438C8.41107 13.9438 9.09278 13.2621 9.09278 12.4264V11.9353C9.09278 11.0997 8.41107 10.418 7.57544 10.418C6.73981 10.418 6.05811 11.0997 6.05811 11.9353V12.4264C6.05811 13.2584 6.74347 13.9438 7.57544 13.9438Z" fill="#F5F6FC"/>
<path d="M7.67816 17.5542C7.61586 17.5542 7.56088 17.5249 7.52423 17.4736C7.49124 17.4223 7.48391 17.3563 7.50957 17.3014C7.53522 17.2427 7.54255 17.1767 7.52789 17.1108C7.5169 17.0558 7.53156 17.0008 7.56821 16.9605C7.60119 16.9202 7.65617 16.8945 7.70748 16.8945H8.70804C8.97193 16.8945 9.1955 17.0814 9.24681 17.3417C9.2578 17.3966 9.24314 17.4516 9.20649 17.4919C9.17351 17.5322 9.11853 17.5579 9.06722 17.5579H7.67816V17.5542Z" fill="#F5F6FC"/>
<path d="M8.70762 17.0742H7.71072C7.72904 17.1805 7.71805 17.2831 7.67773 17.3711H9.06679C9.03381 17.2025 8.88354 17.0742 8.70762 17.0742Z" fill="#F5F6FC"/>
<path d="M3.71966 17.5554C3.49242 17.5554 3.27618 17.3795 3.22121 17.1559L2.7814 15.3197C2.75208 15.1951 2.77774 15.0705 2.85104 14.9789C2.92434 14.8872 3.03429 14.8359 3.15524 14.8359H6.65171C6.87894 14.8359 7.09518 15.0119 7.15015 15.2354L7.58996 17.0716C7.61928 17.1962 7.59363 17.3209 7.52033 17.4125C7.44702 17.5041 7.33707 17.5554 7.21613 17.5554H3.71966Z" fill="#F5F6FC"/>
<path d="M6.97053 15.2722C6.93755 15.1292 6.79461 15.0156 6.65167 15.0156H3.15521C3.01227 15.0156 2.92431 15.1329 2.96096 15.2722L3.40077 17.1084C3.43375 17.2513 3.57669 17.3649 3.71963 17.3649H7.21243C7.35537 17.3649 7.44333 17.2476 7.40668 17.1084L6.97053 15.2722Z" fill="#F5F6FC"/>
<path d="M9.37083 17.5517C9.28287 17.5517 9.2059 17.4894 9.19124 17.4014L9.18025 17.3464C9.13627 17.1192 8.93836 16.9543 8.70746 16.9543H7.63726C7.55296 16.9543 7.47966 16.8956 7.45767 16.815L7.08383 15.2464C7.03619 15.0521 6.84561 14.8982 6.65136 14.8982H5.55184C5.4822 14.8982 5.4199 14.8579 5.38691 14.7992C5.35759 14.7369 5.36126 14.6636 5.40157 14.6086C5.61415 14.3228 5.8707 14.0772 6.16757 13.883C6.19689 13.8646 6.23354 13.8536 6.26653 13.8536C6.30684 13.8536 6.34716 13.8683 6.38381 13.894C6.72099 14.1688 7.14248 14.3191 7.57495 14.3191C8.07707 14.3191 8.55352 14.1212 8.9127 13.762C8.94935 13.7254 8.99333 13.707 9.04098 13.707C9.0703 13.707 9.09962 13.7144 9.12527 13.729C10.1112 14.2385 10.7232 15.2427 10.7232 16.3459V17.3684C10.7232 17.471 10.6426 17.5517 10.54 17.5517H9.37083Z" fill="#F5F6FC"/>
<path d="M9.04114 13.8906C8.66364 14.2681 8.14687 14.499 7.57512 14.499C7.08033 14.499 6.62587 14.3231 6.26669 14.0336C5.98815 14.2168 5.74625 14.4477 5.54834 14.7153H6.64786C6.93007 14.7153 7.19395 14.9278 7.25992 15.2027L7.63376 16.7714H8.70396C9.02282 16.7714 9.2977 16.9986 9.35634 17.3138L9.36733 17.3688H10.5365V16.3462C10.5402 15.2797 9.93175 14.3524 9.04114 13.8906Z" fill="#F5F6FC"/>
<path d="M14.0659 17.5554C13.9449 17.5554 13.8313 17.5041 13.7617 17.4125C13.6884 17.3209 13.6627 17.1962 13.692 17.0716L14.1319 15.2354C14.1868 15.0119 14.4031 14.8359 14.6303 14.8359H18.1268C18.2477 14.8359 18.3613 14.8872 18.431 14.9789C18.5043 15.0705 18.5299 15.1951 18.5006 15.3197L18.0608 17.1559C18.0058 17.3795 17.7896 17.5554 17.5624 17.5554H14.0659Z" fill="#F5F6FC"/>
<path d="M18.1232 15.0156H14.6303C14.4874 15.0156 14.3445 15.1329 14.3115 15.2722L13.8717 17.1084C13.8387 17.2513 13.9267 17.3649 14.0659 17.3649H17.5587C17.7017 17.3649 17.8446 17.2476 17.8776 17.1084L18.3174 15.2722C18.354 15.1329 18.2661 15.0156 18.1232 15.0156Z" fill="#F5F6FC"/>
<path d="M10.7384 17.5517C10.6358 17.5517 10.5552 17.471 10.5552 17.3684V16.3459C10.5552 15.2427 11.1672 14.2385 12.1531 13.729C12.1788 13.7144 12.2081 13.707 12.2374 13.707C12.2851 13.707 12.3327 13.7254 12.3657 13.762C12.7249 14.1212 13.1977 14.3191 13.7035 14.3191C14.1359 14.3191 14.5574 14.1688 14.8946 13.894C14.9276 13.8683 14.9679 13.8536 15.0119 13.8536C15.0485 13.8536 15.0815 13.8646 15.1108 13.883C15.4077 14.0772 15.6643 14.3228 15.8768 14.6086C15.9172 14.6636 15.9245 14.7369 15.8915 14.7992C15.8585 14.8615 15.7962 14.8982 15.7266 14.8982H14.6271C14.4291 14.8982 14.2386 15.0521 14.1946 15.2464L13.8207 16.815C13.8024 16.8993 13.7291 16.9543 13.6412 16.9543H12.571C12.3401 16.9543 12.1421 17.1192 12.0982 17.3464L12.0872 17.4014C12.0725 17.4894 11.9955 17.5517 11.9076 17.5517H10.7384Z" fill="#F5F6FC"/>
<path d="M14.6306 14.7153H15.7301C15.5322 14.4477 15.2903 14.2168 15.0117 14.0336C14.6526 14.3231 14.1981 14.499 13.7033 14.499C13.1316 14.499 12.6148 14.2645 12.2373 13.8906C11.3503 14.3524 10.7383 15.2797 10.7383 16.3462V17.3688H11.9074L11.9184 17.3138C11.9771 17.0023 12.252 16.7714 12.5708 16.7714H13.641L14.0148 15.2027C14.0845 14.9278 14.3484 14.7153 14.6306 14.7153Z" fill="#F5F6FC"/>
<path d="M12.2154 17.554C12.1604 17.554 12.1091 17.5283 12.0762 17.488C12.0395 17.4477 12.0285 17.3891 12.0358 17.3378C12.0835 17.0775 12.3107 16.8906 12.5746 16.8906H13.5715C13.6265 16.8906 13.6778 16.9163 13.7108 16.9566C13.7438 16.9969 13.7584 17.0519 13.7511 17.1069C13.7401 17.1728 13.7474 17.2388 13.7694 17.3011C13.7951 17.3561 13.7877 17.4221 13.7547 17.4734C13.7218 17.5247 13.6631 17.554 13.6008 17.554H12.2154Z" fill="#F5F6FC"/>
<path d="M13.5714 17.0742H12.5745C12.3986 17.0742 12.2483 17.2025 12.2153 17.3711H13.6044C13.5641 17.2831 13.5531 17.1805 13.5714 17.0742Z" fill="#F5F6FC"/>
<path d="M13.7035 14.1267C12.7653 14.1267 12.0029 13.3643 12.0029 12.4261V11.935C12.0029 10.9967 12.7653 10.2344 13.7035 10.2344C14.6418 10.2344 15.4041 10.9967 15.4041 11.935V12.4261C15.4041 13.3643 14.6418 14.1267 13.7035 14.1267Z" fill="#F5F6FC"/>
<path d="M13.7034 13.9438C14.539 13.9438 15.2207 13.2621 15.2207 12.4264V11.9353C15.2207 11.0997 14.539 10.418 13.7034 10.418C12.8677 10.418 12.186 11.0997 12.186 11.9353V12.4264C12.186 13.2584 12.8677 13.9438 13.7034 13.9438Z" fill="#F5F6FC"/>
<path fill-rule="evenodd" clip-rule="evenodd" d="M7.57544 13.9438C8.41107 13.9438 9.09278 13.2621 9.09278 12.4264V11.9353C9.09278 11.0997 8.41107 10.418 7.57544 10.418C6.73981 10.418 6.05811 11.0997 6.05811 11.9353V12.4264C6.05811 13.2584 6.74347 13.9438 7.57544 13.9438Z" fill="#1F4393"/>
<path fill-rule="evenodd" clip-rule="evenodd" d="M8.7081 17.0742H7.71121C7.72953 17.1805 7.71854 17.2831 7.67822 17.3711H9.06728C9.0343 17.2025 8.88403 17.0742 8.7081 17.0742Z" fill="#1F4393"/>
<path fill-rule="evenodd" clip-rule="evenodd" d="M6.97102 15.2761C6.93804 15.1331 6.7951 15.0195 6.65216 15.0195H3.1557C3.01276 15.0195 2.9248 15.1368 2.96145 15.2761L3.40125 17.1123C3.43424 17.2552 3.57718 17.3688 3.72011 17.3688H7.21292C7.35585 17.3688 7.44382 17.2516 7.40717 17.1123L6.97102 15.2761Z" fill="#1F4393"/>
<path fill-rule="evenodd" clip-rule="evenodd" d="M9.04163 13.8906C8.66413 14.2681 8.14735 14.499 7.57561 14.499C7.08082 14.499 6.62636 14.3231 6.26718 14.0336C5.98863 14.2168 5.74674 14.4477 5.54883 14.7153H6.64835C6.93056 14.7153 7.19444 14.9278 7.26041 15.2027L7.63425 16.7714H8.70444C9.0233 16.7714 9.29819 16.9986 9.35683 17.3138L9.36782 17.3688H10.537V16.3462C10.5406 15.2797 9.93224 14.3524 9.04163 13.8906Z" fill="#1F4393"/>
<path fill-rule="evenodd" clip-rule="evenodd" d="M18.1241 15.0195H14.6313C14.4884 15.0195 14.3454 15.1368 14.3125 15.2761L13.8727 17.1123C13.8397 17.2552 13.9276 17.3688 14.0669 17.3688H17.5597C17.7026 17.3688 17.8456 17.2516 17.8786 17.1123L18.3184 15.2761C18.355 15.1368 18.2671 15.0195 18.1241 15.0195Z" fill="#1F4393"/>
<path fill-rule="evenodd" clip-rule="evenodd" d="M14.6311 14.7153H15.7306C15.5327 14.4477 15.2908 14.2168 15.0122 14.0336C14.6531 14.3231 14.1986 14.499 13.7038 14.499C13.1321 14.499 12.6153 14.2645 12.2378 13.8906C11.3508 14.3524 10.7388 15.2797 10.7388 16.3462V17.3688H11.9079L11.9189 17.3138C11.9776 17.0023 12.2524 16.7714 12.5713 16.7714H13.6415L14.0153 15.2027C14.085 14.9278 14.3489 14.7153 14.6311 14.7153Z" fill="#1F4393"/>
<path fill-rule="evenodd" clip-rule="evenodd" d="M13.5719 17.0742H12.575C12.3991 17.0742 12.2488 17.2025 12.2158 17.3711H13.6049C13.5646 17.2831 13.5536 17.1805 13.5719 17.0742Z" fill="#1F4393"/>
<path fill-rule="evenodd" clip-rule="evenodd" d="M13.7039 13.9438C14.5395 13.9438 15.2212 13.2621 15.2212 12.4264V11.9353C15.2212 11.0997 14.5395 10.418 13.7039 10.418C12.8682 10.418 12.1865 11.0997 12.1865 11.9353V12.4264C12.1865 13.2584 12.8682 13.9438 13.7039 13.9438Z" fill="#1F4393"/>
</svg>
