<svg width="21" height="20" viewBox="0 0 21 20" fill="none" xmlns="http://www.w3.org/2000/svg">
<path d="M10.4328 1.45312C5.55368 1.45312 1.59424 5.40906 1.59424 10.2917C1.59424 15.1708 5.55017 19.1302 10.4328 19.1302C15.3154 19.1302 19.2713 15.1743 19.2713 10.2917C19.2678 5.40906 15.3119 1.45312 10.4328 1.45312ZM10.4328 16.287C7.12272 16.287 4.43746 13.6017 4.43746 10.2917C4.43746 6.98161 7.12272 4.29634 10.4328 4.29634C13.7429 4.29634 16.4281 6.98161 16.4281 10.2917C16.4281 13.6017 13.7429 16.287 10.4328 16.287Z" fill="#1F4393"/>
<path d="M19.3492 9.00135C18.8823 8.47132 18.2049 8.18348 17.394 8.11328L17.7275 9.03996C18.3628 9.13473 18.8964 9.38747 19.272 9.8157C19.809 10.4265 19.9564 11.304 19.7669 12.3079C20.153 10.9776 20.0442 9.79113 19.3492 9.00135Z" fill="#17AE4B"/>
<path d="M12.7466 0.488281L13.1748 1.0499C13.6908 1.05341 14.1717 1.11309 14.614 1.23945C14.091 0.849826 13.4556 0.604116 12.7466 0.488281Z" fill="#17AE4B"/>
<path d="M16.4041 2.36031C15.4458 1.20196 13.7609 0.833391 11.8198 1.17036L12.5815 2.19533C14.2699 1.88643 15.7652 2.10406 16.7621 2.90087C16.6603 2.71132 16.5445 2.52879 16.4041 2.36031Z" fill="#4592CF"/>
<path d="M17.2219 3.35038C16.204 2.12183 14.3506 1.79187 12.2305 2.26574L12.7359 2.99936C14.6805 2.54656 16.397 2.75365 17.4711 3.70139C17.3939 3.57854 17.3132 3.45919 17.2219 3.35038Z" fill="#EE518B"/>
<path d="M17.8049 4.03981C17.1099 3.18333 15.9445 2.76562 14.7651 2.76562L15.3022 3.52031C16.2885 3.57998 17.324 3.69581 18.0892 4.44347C18.005 4.30658 17.9102 4.16968 17.8049 4.03981Z" fill="#FFC20E"/>
<path d="M18.338 4.68846C17.7343 3.95835 16.9269 3.65999 15.8423 3.55469L15.8458 3.5582L16.5619 5.27115C17.471 5.44666 18.2397 5.85383 18.7803 6.50672C18.8645 6.60852 18.9417 6.71733 19.0119 6.82965C19.026 6.85072 19.04 6.87178 19.0541 6.89284C19.1067 6.97708 19.1559 7.06483 19.198 7.1561C19.2682 6.45758 18.861 5.32029 18.338 4.68846Z" fill="#EE3A3A"/>
<path d="M19.1945 7.16384C19.1348 7.07258 19.0787 6.96727 19.026 6.86197C19.0225 6.85495 19.0155 6.84442 19.012 6.8374C18.9418 6.72507 18.8645 6.61977 18.7803 6.51446C18.2397 5.86157 17.471 5.4544 16.5619 5.27889C16.5619 5.27889 15.4 5.07179 13.7959 5.38068L14.3049 6.51797C16.3653 6.10026 18.2011 6.47585 19.2436 7.73599C19.4507 7.98521 19.6122 8.26251 19.7421 8.55737L19.7456 8.56088C19.7421 8.55386 19.6087 7.80971 19.1945 7.16384Z" fill="#4592CF"/>
<path d="M19.2369 7.72324C18.4752 6.80007 17.2817 6.35077 15.8882 6.34375L16.4674 8.11988C17.6854 8.00054 18.7139 8.27784 19.3492 9.00093C19.8511 9.56957 20.0442 10.3488 19.9705 11.2369C20.2127 9.88198 19.9951 8.63939 19.2369 7.72324Z" fill="#8F3F97"/>
<path d="M7.186 4.01319L6.45589 2.95312C2.10682 5.48394 -0.266042 9.53816 1.05728 12.1181C0.878266 9.5873 3.22305 6.29829 7.00347 4.11849C7.06666 4.08339 7.12984 4.04829 7.19302 4.01319H7.186Z" fill="#4592CF"/>
<path d="M9.88875 2.80469C8.93399 3.12762 7.96168 3.56288 7.00341 4.11748C2.66136 6.62373 0.211277 10.5902 1.30995 13.1912C1.02563 10.6358 3.43359 7.22396 7.35091 4.96343C8.37588 4.37021 9.41839 3.91038 10.4328 3.57692L9.88875 2.80469Z" fill="#EE518B"/>
<path d="M11.3488 3.30469C10.05 3.63815 8.6846 4.18924 7.35075 4.95797C2.74895 7.61515 0.22515 11.8624 1.71345 14.4424C1.79068 14.5758 1.87843 14.7021 1.9732 14.8215C1.01493 12.2169 3.50714 8.31367 7.83515 5.81444C9.17953 5.0387 10.5555 4.4841 11.8648 4.15063L11.3488 3.30469Z" fill="#FFC20E"/>
<path d="M10.6611 4.51562C9.72742 4.84207 8.77617 5.27382 7.83896 5.81438C3.23365 8.47507 0.706342 12.7223 2.19815 15.3023C2.39823 15.6498 2.665 15.9482 2.98443 16.2009C1.85065 13.6069 4.15682 9.70713 8.34091 7.29215C9.3764 6.69543 10.4294 6.24262 11.4614 5.93723L10.6611 4.51562Z" fill="#EE3A3A"/>
<path d="M7.82468 9.09471L7.29816 7.96094C3.78099 10.3829 1.94167 13.8439 2.98068 16.2133C2.98068 16.2133 3.37732 17.2698 4.21625 17.6981C4.21976 17.6981 4.21976 17.6981 4.21976 17.7016C4.16009 17.6174 4.10041 17.5296 4.04776 17.4383C2.69635 15.0936 4.37069 11.5343 7.82468 9.09471Z" fill="#4592CF"/>
<path d="M9.83247 7.90625C9.52709 8.05368 9.22171 8.21514 8.91633 8.39065C4.73925 10.8021 2.55945 14.8493 4.05126 17.4293C4.58129 18.3454 5.50446 18.9527 6.66281 19.2475C6.21351 19.0229 5.84846 18.714 5.59924 18.3103C4.35665 16.3025 6.36796 12.8064 10.0887 10.5002C10.352 10.3353 10.6187 10.1843 10.8855 10.0404L9.83247 7.90625Z" fill="#8F3F97"/>
<path d="M13.9534 8.85547C12.7143 9.15032 11.3839 9.70141 10.0887 10.5017C6.36444 12.8044 4.35664 16.3005 5.59923 18.3118C5.91865 18.8278 6.4206 19.1929 7.05243 19.4175C6.68386 19.2209 6.3855 18.9542 6.1784 18.6137C5.0376 16.7673 6.95063 13.5134 10.4538 11.3442C11.7104 10.5649 13.0021 10.0349 14.1956 9.75758L13.9534 8.85547Z" fill="#17AE4B"/>
<path d="M8.81131 0.621094C7.88463 0.898395 6.93689 1.30206 6.01021 1.8356C2.49305 3.86447 0.418549 7.07976 0.794135 9.58601C1.27151 7.30792 3.38462 4.72094 6.50865 2.92024C7.46341 2.36915 8.43221 1.94091 9.38346 1.62851L8.81131 0.621094Z" fill="#17AE4B"/>
</svg>
