<svg width="19" height="20" viewBox="0 0 19 20" fill="none" xmlns="http://www.w3.org/2000/svg">
<path d="M9.2915 1.02344C4.22524 1.02344 0.118164 5.13052 0.118164 10.1968C0.118164 15.263 4.22524 19.3733 9.2915 19.3733C14.3578 19.3733 18.4648 15.2662 18.4648 10.2C18.4648 5.13373 14.3578 1.02344 9.2915 1.02344ZM9.2915 16.5924C5.76057 16.5924 2.89913 13.7309 2.89913 10.2C2.89913 6.66906 5.76057 3.80762 9.2915 3.80762C12.8224 3.80762 15.6839 6.66906 15.6839 10.2C15.6839 13.7309 12.8224 16.5924 9.2915 16.5924Z" fill="#4592CF"/>
<path d="M9.2915 1.02344C4.22524 1.02344 0.118164 5.13052 0.118164 10.1968C0.118164 12.952 1.33484 15.424 3.25963 17.1041L6.694 16.0387H6.69722C4.46021 15.0442 2.89913 12.8039 2.89913 10.1968C2.89913 6.66584 5.76057 3.80441 9.2915 3.80441C12.0853 3.80441 14.4575 5.59401 15.3266 8.09173V8.08851L16.4242 4.43205C14.744 2.35277 12.1722 1.02344 9.2915 1.02344Z" fill="#1F4393"/>
<path d="M3.1985 8.24609L0.78125 9.49495L2.13311 9.97132L2.90882 9.78142C2.94101 9.26643 3.03757 8.75143 3.1985 8.24609Z" fill="#1B2A47"/>
<path d="M13.7013 13.5132C13.6788 13.1913 10.9171 6.75391 10.9171 6.75391L2.22661 9.0746L0.781405 9.49625C0.781405 9.49625 0.688063 9.52844 0.610814 9.64109C0.530346 9.75375 0.517471 9.85031 0.517471 9.85031C0.517471 9.85031 0.507815 9.96296 0.552877 10.0853L2.98301 16.571C2.98301 16.571 3.09566 16.8961 3.41753 16.9508C3.41753 16.9508 3.63962 17.0023 3.80378 16.9379L13.3762 13.9638C13.3762 13.9606 13.7239 13.8351 13.7013 13.5132Z" fill="#F5F6FC"/>
<path d="M0.780943 9.4985C0.703694 9.53069 0.648976 9.58541 0.610352 9.64334L7.93292 13.4382L9.90278 6.83984L0.780943 9.4985Z" fill="#EE3A3A"/>
<path d="M0.517205 9.84766C0.513986 9.91847 0.523643 9.9925 0.546174 10.0633L2.97308 16.5361C3.00849 16.6488 3.07286 16.7454 3.15333 16.8194L5.47724 12.4484L0.517205 9.84766Z" fill="#FFC10E"/>
<path d="M5.69647 12.5675L3.37256 16.9353C3.49809 16.9804 3.63971 16.9868 3.77812 16.945L13.3216 13.9838C13.46 13.9419 13.5727 13.855 13.6499 13.7456L8.81218 11.4023L8.11694 13.8486L5.69647 12.5675Z" fill="#1F4393"/>
<path d="M6.93842 6.48047L9.67432 7.58771L7.933 13.4361L5.45459 12.1486L6.93842 6.48047Z" fill="#EE518B"/>
<path d="M10.3984 5.18359L13.7008 13.5136L8.64746 11.032L10.3984 5.18359Z" fill="#4592CF"/>
<path d="M8.64786 11.0316L8.33887 7.04688L9.67785 7.59084L8.64786 11.0316Z" fill="#B52D65"/>
<path d="M5.45487 12.15L5.20703 8.20703L6.59108 7.80469L5.45487 12.15Z" fill="#A81F23"/>
<path d="M14.1231 1.01024L13.0996 0.703125L12.8027 1.69273L13.8262 1.99985L14.1231 1.01024Z" fill="#8F3F97"/>
<path d="M15.3746 2.26806L14.3511 1.96094L14.0541 2.95054L15.0776 3.25766L15.3746 2.26806Z" fill="#EE3A3A"/>
<path d="M14.7345 4.20556L13.7109 3.89844L13.414 4.88804L14.4375 5.19516L14.7345 4.20556Z" fill="#17AE4B"/>
<path d="M16.5079 3.93993L15.4844 3.63281L15.1874 4.62242L16.2109 4.92954L16.5079 3.93993Z" fill="#EE518B"/>
<path d="M17.2833 1.27587L16.2598 0.96875L15.9628 1.95836L16.9863 2.26548L17.2833 1.27587Z" fill="#FFC10E"/>
<path d="M13.46 2.76806L12.4365 2.46094L12.1396 3.45054L13.1631 3.75766L13.46 2.76806Z" fill="#FFC10E"/>
<path d="M10.7107 5.97363L11.2321 6.13135L11.0325 6.79118L13.688 13.4925L13.6976 13.5183L16.1277 5.42001L15.1042 5.11102L14.8081 6.09594L12.6998 5.45542L12.9927 4.47693L10.8072 3.82031L10.3984 5.18505L10.7107 5.97363ZM13.4079 6.82015L14.4315 7.12915L14.1354 8.11729L13.1118 7.8083L13.4079 6.82015ZM11.5861 5.13033L12.6097 5.43932L12.3136 6.42747L11.29 6.11847L11.5861 5.13033Z" fill="url(#paint0_linear_1818_77335)"/>
<defs>
<linearGradient id="paint0_linear_1818_77335" x1="11.6229" y1="9.03865" x2="15.8048" y2="6.58924" gradientUnits="userSpaceOnUse">
<stop stop-color="#8F3F97"/>
<stop offset="1" stop-color="#EE518B"/>
</linearGradient>
</defs>
</svg>
