<svg width="19" height="20" viewBox="0 0 19 20" fill="none" xmlns="http://www.w3.org/2000/svg">
<path d="M1.62229 14.0181L1.04443 7.37585L5.00644 2.41797H13.7942L17.5256 7.41888L17.1476 14.0827L9.27581 17.7834L1.62229 14.0181Z" stroke="#BCBDBF" stroke-width="0.5132" stroke-miterlimit="10"/>
<path d="M1.05029 7.44962L3.76437 9.91781L9.27552 17.7834L14.7959 9.99465L17.5253 7.41888L9.27552 4.48042L5.00615 2.41797" stroke="#BCBDBF" stroke-width="0.5132" stroke-miterlimit="10"/>
<path d="M1.62256 14.0182L3.76493 9.91785L9.27608 4.48047L14.7964 9.99469L17.1478 14.0827" stroke="#BCBDBF" stroke-width="0.5132" stroke-miterlimit="10"/>
<path d="M1.04443 7.37585L9.27581 4.48042L13.7942 2.41797" stroke="#BCBDBF" stroke-width="0.5132" stroke-miterlimit="10"/>
<path d="M9.402 18.7522C14.2383 18.7522 18.159 14.8316 18.159 9.99526C18.159 5.15891 14.2383 1.23828 9.402 1.23828C4.56565 1.23828 0.64502 5.15891 0.64502 9.99526C0.64502 14.8316 4.56565 18.7522 9.402 18.7522Z" stroke="#1F4393" stroke-width="0.7061" stroke-miterlimit="10"/>
<path d="M5.00642 2.99332C5.32387 2.99332 5.5812 2.73598 5.5812 2.41853C5.5812 2.10109 5.32387 1.84375 5.00642 1.84375C4.68898 1.84375 4.43164 2.10109 4.43164 2.41853C4.43164 2.73598 4.68898 2.99332 5.00642 2.99332Z" fill="url(#paint0_radial_1818_77364)"/>
<path d="M5.08357 6.49332C5.40102 6.49332 5.65835 6.23598 5.65835 5.91853C5.65835 5.60109 5.40102 5.34375 5.08357 5.34375C4.76613 5.34375 4.50879 5.60109 4.50879 5.91853C4.50879 6.23598 4.76613 6.49332 5.08357 6.49332Z" fill="url(#paint1_radial_1818_77364)"/>
<path d="M13.616 3.06804C14.0286 3.06804 14.363 2.73363 14.363 2.32113C14.363 1.90862 14.0286 1.57422 13.616 1.57422C13.2035 1.57422 12.8691 1.90862 12.8691 2.32113C12.8691 2.73363 13.2035 3.06804 13.616 3.06804Z" fill="url(#paint2_radial_1818_77364)"/>
<path d="M9.27631 5.34461C9.75332 5.34461 10.14 4.95791 10.14 4.4809C10.14 4.00388 9.75332 3.61719 9.27631 3.61719C8.79929 3.61719 8.4126 4.00388 8.4126 4.4809C8.4126 4.95791 8.79929 5.34461 9.27631 5.34461Z" fill="url(#paint3_radial_1818_77364)"/>
<path d="M1.04464 8.09026C1.43848 8.09026 1.75774 7.771 1.75774 7.37716C1.75774 6.98333 1.43848 6.66406 1.04464 6.66406C0.650808 6.66406 0.331543 6.98333 0.331543 7.37716C0.331543 7.771 0.650808 8.09026 1.04464 8.09026Z" fill="url(#paint4_radial_1818_77364)"/>
<path d="M17.5258 8.05152C17.8755 8.05152 18.1589 7.76804 18.1589 7.41834C18.1589 7.06864 17.8755 6.78516 17.5258 6.78516C17.1761 6.78516 16.8926 7.06864 16.8926 7.41834C16.8926 7.76804 17.1761 8.05152 17.5258 8.05152Z" fill="url(#paint5_radial_1818_77364)"/>
<path d="M14.7966 10.8753C15.2821 10.8753 15.6756 10.4818 15.6756 9.99627C15.6756 9.51076 15.2821 9.11719 14.7966 9.11719C14.3111 9.11719 13.9175 9.51076 13.9175 9.99627C13.9175 10.4818 14.3111 10.8753 14.7966 10.8753Z" fill="url(#paint6_radial_1818_77364)"/>
<path d="M3.76473 10.7843C4.24345 10.7843 4.63152 10.3963 4.63152 9.91757C4.63152 9.43885 4.24345 9.05078 3.76473 9.05078C3.28602 9.05078 2.89795 9.43885 2.89795 9.91757C2.89795 10.3963 3.28602 10.7843 3.76473 10.7843Z" fill="url(#paint7_radial_1818_77364)"/>
<path d="M1.62249 14.5887C1.93824 14.5887 2.1942 14.3328 2.1942 14.017C2.1942 13.7013 1.93824 13.4453 1.62249 13.4453C1.30674 13.4453 1.05078 13.7013 1.05078 14.017C1.05078 14.3328 1.30674 14.5887 1.62249 14.5887Z" fill="url(#paint8_radial_1818_77364)"/>
<path d="M17.1477 14.7973C17.5415 14.7973 17.8608 14.478 17.8608 14.0842C17.8608 13.6904 17.5415 13.3711 17.1477 13.3711C16.7538 13.3711 16.4346 13.6904 16.4346 14.0842C16.4346 14.478 16.7538 14.7973 17.1477 14.7973Z" fill="url(#paint9_radial_1818_77364)"/>
<path d="M7.52994 13.6296C7.55453 13.4575 7.53608 13.2854 7.53916 13.1132C7.53916 13.061 7.50227 13.0272 7.47768 12.9903C7.16109 12.5415 6.94901 12.0436 6.82298 11.5088C6.80454 11.4319 6.78917 11.3797 6.68467 11.3766C6.54942 11.3735 6.45414 11.2721 6.38344 11.1706C6.15906 10.8479 6.05456 10.4944 6.14062 10.101C6.16828 9.97805 6.21132 9.8551 6.365 9.82744C6.41726 9.81822 6.41111 9.77519 6.40496 9.7383C6.35578 9.2834 6.33119 8.82541 6.3189 8.36743C6.30353 7.82031 6.56479 7.39307 6.96745 7.04574C7.0904 6.94123 7.24408 6.90435 7.40699 6.94738C7.47154 6.96275 7.50535 6.94738 7.54838 6.90435C7.96025 6.52628 8.43975 6.32649 9.00224 6.32035C9.67845 6.31727 10.2993 6.52936 10.9079 6.7937C11.2706 6.95045 11.4889 7.25168 11.621 7.61745C11.8516 8.26293 11.9161 8.92992 11.8854 9.61228C11.8823 9.65531 11.8669 9.69527 11.8639 9.73523C11.8608 9.76597 11.8516 9.81207 11.8946 9.82437C12.0729 9.87662 12.1128 10.0365 12.1282 10.1809C12.1682 10.5959 12.0667 10.9709 11.7655 11.2752C11.7163 11.3243 11.6579 11.3643 11.5903 11.3674C11.4796 11.3735 11.4673 11.4411 11.4458 11.5272C11.3044 12.0866 11.0893 12.6153 10.7297 13.0763C10.6528 13.1747 10.6958 13.2884 10.6805 13.3929C10.6559 13.5497 10.7297 13.6388 10.8526 13.728C11.3721 14.106 11.9561 14.3396 12.5493 14.5609C12.8321 14.6654 13.1149 14.7669 13.3884 14.8898C13.9724 15.148 14.3751 15.6029 14.6978 16.1347C14.9345 16.5281 15.0697 16.9554 15.1005 17.4164C15.1251 17.7976 15.0636 17.9266 14.704 18.1203C14.3566 18.3078 13.9816 18.4184 13.6036 18.5076C13.0565 18.6397 12.5001 18.7258 11.9407 18.7873C11.3813 18.8488 10.8219 18.8856 10.2625 18.9133C9.55858 18.9502 8.85778 18.941 8.1539 18.9256C7.60985 18.9133 7.06581 18.8703 6.52483 18.8119C5.79329 18.732 5.0679 18.6275 4.35787 18.4338C3.98903 18.3324 3.62633 18.2156 3.31282 17.9789C3.14991 17.8529 3.08536 17.6992 3.09766 17.4902C3.12839 16.8324 3.37122 16.2607 3.7708 15.7505C4.12427 15.2925 4.56689 14.9575 5.12015 14.7607C5.5935 14.5948 6.06378 14.4196 6.52176 14.2198C6.83221 14.0845 7.10576 13.8939 7.38547 13.7065C7.43465 13.6757 7.47461 13.6296 7.53608 13.6265C7.53608 13.6296 7.53608 13.6296 7.53916 13.6327C7.53301 13.6327 7.52994 13.6327 7.52994 13.6296Z" fill="#1F4393"/>
<defs>
<radialGradient id="paint0_radial_1818_77364" cx="0" cy="0" r="1" gradientUnits="userSpaceOnUse" gradientTransform="translate(4.91464 2.09303) scale(0.765751)">
<stop stop-color="#97CC77"/>
<stop offset="0.2371" stop-color="#8AC86F"/>
<stop offset="0.6699" stop-color="#69BF5A"/>
<stop offset="1" stop-color="#4CB648"/>
</radialGradient>
<radialGradient id="paint1_radial_1818_77364" cx="0" cy="0" r="1" gradientUnits="userSpaceOnUse" gradientTransform="translate(4.98955 5.59137) scale(0.765751 0.765752)">
<stop stop-color="#EA088B"/>
<stop offset="0.1111" stop-color="#DD0A88"/>
<stop offset="0.3149" stop-color="#BC0F81"/>
<stop offset="0.5886" stop-color="#861775"/>
<stop offset="0.9184" stop-color="#3C2265"/>
<stop offset="1" stop-color="#292561"/>
</radialGradient>
<radialGradient id="paint2_radial_1818_77364" cx="0" cy="0" r="1" gradientUnits="userSpaceOnUse" gradientTransform="translate(13.3654 1.97758) scale(0.949926 0.949927)">
<stop stop-color="#1B75BA"/>
<stop offset="0.3284" stop-color="#1C68B1"/>
<stop offset="0.9284" stop-color="#1F4799"/>
<stop offset="1" stop-color="#1F4396"/>
</radialGradient>
<radialGradient id="paint3_radial_1818_77364" cx="0" cy="0" r="1" gradientUnits="userSpaceOnUse" gradientTransform="translate(8.94257 4.14153) scale(0.972457 0.972459)">
<stop stop-color="#F5881F"/>
<stop offset="0.2799" stop-color="#F47B25"/>
<stop offset="0.7911" stop-color="#F15A34"/>
<stop offset="1" stop-color="#EF4B3B"/>
</radialGradient>
<radialGradient id="paint4_radial_1818_77364" cx="0" cy="0" r="1" gradientUnits="userSpaceOnUse" gradientTransform="translate(0.957318 6.8894) scale(1.00292)">
<stop offset="0.00433442" stop-color="#F7EC32"/>
<stop offset="0.212" stop-color="#F7DF2F"/>
<stop offset="0.5927" stop-color="#F7BE29"/>
<stop offset="1" stop-color="#F79420"/>
</radialGradient>
<radialGradient id="paint5_radial_1818_77364" cx="0" cy="0" r="1" gradientUnits="userSpaceOnUse" gradientTransform="translate(17.416 7.07378) scale(0.79151)">
<stop stop-color="#C01E79"/>
<stop offset="0.1882" stop-color="#B31D76"/>
<stop offset="0.5332" stop-color="#92196F"/>
<stop offset="0.9936" stop-color="#5D1464"/>
<stop offset="1" stop-color="#5C1464"/>
</radialGradient>
<radialGradient id="paint6_radial_1818_77364" cx="0" cy="0" r="1" gradientUnits="userSpaceOnUse" gradientTransform="translate(14.4597 9.54357) scale(1.2292)">
<stop stop-color="#1B75BA"/>
<stop offset="0.3284" stop-color="#1C68B1"/>
<stop offset="0.9284" stop-color="#1F4799"/>
<stop offset="1" stop-color="#1F4396"/>
</radialGradient>
<radialGradient id="paint7_radial_1818_77364" cx="0" cy="0" r="1" gradientUnits="userSpaceOnUse" gradientTransform="translate(3.49778 9.38468) scale(1.27894)">
<stop offset="0.00433442" stop-color="#6CC5AA"/>
<stop offset="0.1818" stop-color="#5FBCAA"/>
<stop offset="0.5072" stop-color="#3EA6AA"/>
<stop offset="0.9413" stop-color="#0981A9"/>
<stop offset="1" stop-color="#017CA9"/>
</radialGradient>
<radialGradient id="paint8_radial_1818_77364" cx="0" cy="0" r="1" gradientUnits="userSpaceOnUse" gradientTransform="translate(1.38382 13.7278) scale(0.758099)">
<stop offset="0.00433442" stop-color="#ECD017"/>
<stop offset="0.1719" stop-color="#E0C319"/>
<stop offset="0.479" stop-color="#C0A21D"/>
<stop offset="0.8886" stop-color="#8D6D23"/>
<stop offset="1" stop-color="#7E5D25"/>
</radialGradient>
<radialGradient id="paint9_radial_1818_77364" cx="0" cy="0" r="1" gradientUnits="userSpaceOnUse" gradientTransform="translate(16.834 13.6726) scale(0.847419 0.84742)">
<stop offset="0.00433442" stop-color="#F79420"/>
<stop offset="0.1707" stop-color="#F68721"/>
<stop offset="0.4757" stop-color="#F26623"/>
<stop offset="0.8824" stop-color="#ED3126"/>
<stop offset="1" stop-color="#EB2027"/>
</radialGradient>
</defs>
</svg>
