<svg width="21" height="20" viewBox="0 0 21 20" fill="none" xmlns="http://www.w3.org/2000/svg">
<path fill-rule="evenodd" clip-rule="evenodd" d="M0.716594 12.3501C0.880626 12.4003 1.0547 12.4271 1.23547 12.4271C2.21632 12.4271 3.0097 11.6337 3.0097 10.6529C3.0097 9.67537 2.21632 8.87864 1.23547 8.87864C1.0547 8.87864 0.880626 8.90542 0.716594 8.95563C0.810327 8.43006 0.94423 7.91788 1.1183 7.42578L5.38984 8.70456C5.14881 9.30713 5.01491 9.96326 5.01491 10.6529C5.01491 11.3425 5.14881 11.9986 5.38984 12.6012L1.1183 13.8799C0.94423 13.3845 0.806979 12.8757 0.716594 12.3501ZM1.23547 11.6237C1.77109 11.6237 2.20627 11.1885 2.20627 10.6529C2.20627 10.1172 1.77109 9.68206 1.23547 9.68206C0.699856 9.68206 0.264668 10.1172 0.264668 10.6529C0.26132 11.1885 0.696508 11.6237 1.23547 11.6237Z" fill="#EC202C"/>
<path fill-rule="evenodd" clip-rule="evenodd" d="M19.8446 12.3501C19.6806 12.4003 19.5065 12.4271 19.3258 12.4271C18.3483 12.4271 17.5515 11.6337 17.5515 10.6529C17.5515 9.67537 18.3449 8.87864 19.3258 8.87864C19.5065 8.87864 19.6806 8.90542 19.8446 8.95563C19.7509 8.43006 19.617 7.91788 19.4429 7.42578L15.1714 8.70456C15.4124 9.30713 15.5463 9.96326 15.5463 10.6529C15.5463 11.3425 15.4124 11.9986 15.1714 12.6012L19.4429 13.8799C19.617 13.3845 19.7542 12.8757 19.8446 12.3501ZM19.3258 11.6237C18.7901 11.6237 18.355 11.1885 18.355 10.6529C18.355 10.1172 18.7901 9.68206 19.3258 9.68206C19.8614 9.68206 20.2966 10.1172 20.2966 10.6529C20.2999 11.1885 19.8647 11.6237 19.3258 11.6237Z" fill="#00AFA5"/>
<path fill-rule="evenodd" clip-rule="evenodd" d="M2.31633 5.08814C2.39667 5.23878 2.50045 5.38273 2.62766 5.50994C3.32061 6.20289 4.44205 6.20289 5.13501 5.50994C5.82796 4.81698 5.82796 3.69554 5.13501 3.00259C5.0078 2.87538 4.86385 2.7716 4.71321 2.69126C5.15174 2.38663 5.60702 2.11882 6.07903 1.89453L8.19806 5.81792C7.60219 6.07233 7.04314 6.44392 6.55773 6.92932C6.07233 7.41472 5.70075 7.97377 5.44633 8.56964L1.52295 6.45061C1.74724 5.98195 2.0117 5.52333 2.31633 5.08814ZM3.19675 4.94419C3.57503 5.32247 4.19098 5.32247 4.57261 4.94419C4.95089 4.56591 4.95089 3.94996 4.57261 3.56833C4.19433 3.19005 3.57837 3.19005 3.19675 3.56833C2.81512 3.94661 2.81512 4.56257 3.19675 4.94419Z" fill="#AA3091"/>
<path fill-rule="evenodd" clip-rule="evenodd" d="M15.8443 18.6161C15.6937 18.5358 15.5497 18.432 15.4225 18.3048C14.7295 17.6118 14.7295 16.4904 15.4225 15.7974C16.1154 15.1045 17.2369 15.1045 17.9298 15.7974C18.0571 15.9246 18.1608 16.0686 18.2412 16.2192C18.5458 15.7807 18.8136 15.3254 19.0379 14.8534L15.1145 12.7344C14.8601 13.3302 14.4885 13.8893 14.0031 14.3747C13.5177 14.8601 12.9587 15.2317 12.3628 15.4861L14.4818 19.4095C14.9505 19.1852 15.4091 18.9207 15.8443 18.6161ZM15.9882 17.7357C15.61 17.3574 15.61 16.7414 15.9882 16.3598C16.3665 15.9815 16.9825 15.9815 17.3641 16.3598C17.7424 16.7381 17.7424 17.3541 17.3641 17.7357C16.9858 18.1173 16.3699 18.1173 15.9882 17.7357Z" fill="#47B54A"/>
<path fill-rule="evenodd" clip-rule="evenodd" d="M8.58307 1.08866C8.53286 1.2527 8.50608 1.42677 8.50608 1.60754C8.50608 2.58504 9.29946 3.38177 10.2803 3.38177C11.2578 3.38177 12.0545 2.58839 12.0545 1.60754C12.0545 1.42677 12.0278 1.2527 11.9775 1.08866C12.5031 1.1824 13.0153 1.3163 13.5074 1.49038L12.2286 5.76191C11.626 5.52088 10.9699 5.38698 10.2803 5.38698C9.5907 5.38698 8.93457 5.52088 8.332 5.76191L7.05322 1.49038C7.54867 1.3163 8.0575 1.17905 8.58307 1.08866ZM9.30615 1.60754C9.30615 2.14316 9.74134 2.57834 10.277 2.57834C10.8126 2.57834 11.2478 2.14316 11.2478 1.60754C11.2478 1.07193 10.8126 0.636738 10.277 0.636738C9.74469 0.63339 9.30615 1.06858 9.30615 1.60754Z" fill="#0072B9"/>
<path fill-rule="evenodd" clip-rule="evenodd" d="M15.8443 2.68791C15.6937 2.76825 15.5497 2.87203 15.4225 2.99924C14.7295 3.69219 14.7295 4.81364 15.4225 5.50659C16.1154 6.19954 17.2369 6.19954 17.9298 5.50659C18.0571 5.37938 18.1608 5.23543 18.2412 5.08479C18.5458 5.52333 18.8136 5.9786 19.0379 6.45061L15.1145 8.56964C14.8601 7.97377 14.4885 7.41472 14.0031 6.92932C13.5177 6.44392 12.9587 6.07233 12.3628 5.81792L14.4818 1.89453C14.9505 2.11882 15.4091 2.38328 15.8443 2.68791ZM15.9882 3.56833C15.61 3.94661 15.61 4.56257 15.9882 4.94419C16.3665 5.32247 16.9825 5.32247 17.3641 4.94419C17.7424 4.56591 17.7424 3.94996 17.3641 3.56833C16.9858 3.1867 16.3699 3.1867 15.9882 3.56833Z" fill="#00A2C1"/>
<path fill-rule="evenodd" clip-rule="evenodd" d="M2.31633 16.2159C2.39667 16.0652 2.50045 15.9213 2.62766 15.7941C3.32061 15.1011 4.44205 15.1011 5.13501 15.7941C5.82796 16.487 5.82796 17.6085 5.13501 18.3014C5.0078 18.4286 4.86385 18.5324 4.71321 18.6128C5.15174 18.9174 5.60702 19.1852 6.07903 19.4095L8.19806 15.4861C7.60219 15.2317 7.04314 14.8601 6.55773 14.3747C6.07233 13.8893 5.70075 13.3302 5.44633 12.7344L1.52295 14.8534C1.74724 15.3221 2.0117 15.7807 2.31633 16.2159ZM3.19675 16.3598C3.57503 15.9815 4.19098 15.9815 4.57261 16.3598C4.95089 16.7381 4.95089 17.3541 4.57261 17.7357C4.19433 18.114 3.57837 18.114 3.19675 17.7357C2.81512 17.3574 2.81512 16.7414 3.19675 16.3598Z" fill="#F08E2E"/>
<path d="M10.21 15.1781C10.1832 15.0141 10.1698 14.8467 10.1631 14.6827C11.6629 14.7262 13.1258 13.9228 13.8555 12.4967C14.8665 10.5216 14.0865 8.09796 12.1114 7.08698C10.1364 6.07601 7.7127 6.856 6.70173 8.83108C5.69075 10.8062 6.47074 13.2298 8.44583 14.2408C8.49604 14.2676 8.5496 14.291 8.59982 14.3144C8.8308 14.7697 9.10531 15.1882 9.42333 15.5564C9.79156 15.9849 10.2201 16.3464 10.682 16.5975C10.4276 16.1422 10.2803 15.6568 10.21 15.1781Z" fill="#1F4393"/>
<path d="M8.91134 11.1885C9.14233 11.1885 9.29297 11.0211 9.29297 10.7935C9.29297 10.5625 9.14233 10.3984 8.92473 10.3984C8.70714 10.3984 8.5498 10.5658 8.5498 10.7935C8.5498 11.0211 8.6971 11.1885 8.91134 11.1885Z" fill="#F5F6FC"/>
<path d="M10.2033 11.1885C10.4343 11.1885 10.585 11.0211 10.585 10.7935C10.585 10.5625 10.4343 10.3984 10.2167 10.3984C9.99913 10.3984 9.8418 10.5658 9.8418 10.7935C9.8418 11.0211 9.98909 11.1885 10.2033 11.1885Z" fill="#F5F6FC"/>
<path d="M11.4958 11.1885C11.7268 11.1885 11.8774 11.0211 11.8774 10.7935C11.8774 10.5625 11.7268 10.3984 11.5092 10.3984C11.2916 10.3984 11.1343 10.5658 11.1343 10.7935C11.1343 11.0211 11.2849 11.1885 11.4958 11.1885Z" fill="#F5F6FC"/>
</svg>
