<svg width="24" height="15" viewBox="0 0 24 15" fill="none" xmlns="http://www.w3.org/2000/svg">
<path d="M8.97121 6.41203L7.44667 7.08771C7.1988 7.19637 6.9068 7.08771 6.79814 6.83645L6.18357 5.44773C6.07492 5.19986 6.18697 4.90786 6.43483 4.7992L7.95938 4.12351C8.20724 4.01486 8.49925 4.12691 8.6079 4.37478L9.22247 5.7635C9.33112 6.01137 9.21908 6.30337 8.97121 6.41203Z" fill="#FFC20E"/>
<path d="M10.5023 8.86328C10.4684 9.01268 10.3631 9.1451 10.2137 9.20961L8.62808 9.91586C8.37002 10.0279 8.06783 9.91247 7.95578 9.65441L7.91504 9.56613C8.76729 9.38957 9.63991 9.1485 10.5023 8.86328Z" fill="#4592CF"/>
<path d="M8.44789 8.05417C8.04723 8.15603 7.68392 8.23413 7.35117 8.29185L7.31382 8.21036C7.19838 7.95231 7.31382 7.65011 7.57188 7.53807L9.15753 6.83182C9.41559 6.71977 9.71778 6.83521 9.83322 7.09327L10.0234 7.52109C9.07265 7.85044 8.46487 8.04738 8.44789 8.05417Z" fill="#4592CF"/>
<path d="M11.7655 5.17245L10.2783 5.83116C10.0338 5.93982 9.74524 5.83116 9.63658 5.5833L9.02201 4.19797C8.91336 3.9535 9.02541 3.66489 9.26988 3.55623L10.7571 2.89752C11.0015 2.78887 11.2901 2.89752 11.3988 3.14539L12.0134 4.53072C12.122 4.77519 12.01 5.0638 11.7655 5.17245Z" fill="#17AE4B"/>
<path d="M10.4173 2.7005L8.99126 3.24037C8.74679 3.34902 8.57702 3.31507 8.46837 3.0706L8.10845 2.25909C7.9998 2.01462 8.03715 1.80071 8.28502 1.69206L9.66695 1.27442C9.97254 1.22349 10.0778 1.1454 10.2781 1.45438L10.6754 2.20137C10.7603 2.39831 10.6618 2.59184 10.4173 2.7005Z" fill="#4592CF"/>
<path d="M6.55685 4.43761L7.93199 3.7789C8.17986 3.67703 8.27493 3.53103 8.17307 3.28317L7.83352 2.46148C7.73166 2.21361 7.54831 2.09477 7.30044 2.19663L6.04414 2.90627C5.79627 3.09302 5.66725 3.1134 5.75213 3.47331L6.01698 4.27463C6.09847 4.47496 6.30898 4.53947 6.55685 4.43761Z" fill="#EE3A3A"/>
<path d="M11.6803 3.00279C11.6803 3.00279 11.5377 2.65646 11.9078 2.5546L13.1981 2.29315C13.1981 2.29315 13.5037 2.18789 13.7006 2.52064L14.4883 3.76336C14.4883 3.76336 14.6853 4.07574 14.2914 4.19458L13.2049 4.61901C13.2049 4.61901 12.7635 4.86687 12.4749 4.45603L11.6803 3.00279Z" fill="#EE3A3A"/>
<path d="M5.78282 5.70914C5.78282 5.70914 5.63682 5.40695 5.34821 5.5903L4.41108 6.28975C4.41108 6.28975 4.15981 6.42897 4.26847 6.75832L4.63517 8.02821C4.63517 8.02821 4.73025 8.34398 5.03923 8.15723L5.96618 7.68867C5.96618 7.68867 6.394 7.54266 6.28874 7.10805L5.78282 5.70914Z" fill="#EE3A3A"/>
<path d="M16.6516 4.99912C16.3155 5.14173 15.976 5.28434 15.6364 5.42355L15.3172 4.69014C15.3172 4.69014 15.1339 4.36758 15.4395 4.25213L16.0201 4.09594C16.0201 4.09594 16.2136 4.02124 16.3834 4.39474L16.6516 4.99912Z" fill="#4592CF"/>
<path d="M5.131 11.2752L4.66583 11.3805C4.38061 11.5027 4.28554 11.2956 4.28554 11.2956L3.82716 10.0766C3.75925 9.88648 3.77963 9.77103 3.81019 9.70312C4.12256 9.78462 4.48587 9.83555 4.90011 9.85252L5.33473 10.9832C5.38905 11.2514 5.131 11.2752 5.131 11.2752Z" fill="#FFC20E"/>
<path d="M14.0029 7.52121C14.3764 7.36163 14.7397 7.19865 15.0827 7.03906L14.4681 7.37181C14.4681 7.37181 14.2168 7.55856 14.0029 7.52121Z" fill="#17AE4B"/>
<path d="M15.3269 5.54956C14.658 5.8212 13.9857 6.07925 13.3406 6.32372L13.0486 5.65143C13.0486 5.65143 12.7702 5.18965 13.2761 5.0029L14.4611 4.57169C14.4611 4.57169 14.7939 4.37475 15.0213 4.85011L15.3269 5.54956Z" fill="#17AE4B"/>
<path d="M16.1762 9.40186L15.2051 10.0674C15.2051 10.0674 14.8656 10.3322 14.672 9.85684L14.3291 8.84501C14.9878 8.45114 15.5956 8.06406 16.1423 7.71094C16.2543 8.07764 16.4478 8.73296 16.4478 8.88236C16.4478 8.88236 16.604 9.18115 16.1762 9.40186Z" fill="#FFC20E"/>
<path d="M8.69593 12.8949L7.60261 13.2175C7.168 13.4077 7.05255 13.1055 7.05255 13.1055C6.97446 13.0409 6.76734 12.7354 6.58398 12.4569C7.22911 12.2702 7.88443 12.0427 8.53974 11.7812L8.88268 12.3653C9.10338 12.8033 8.69593 12.8949 8.69593 12.8949Z" fill="#EE3A3A"/>
<path d="M17.3814 8.08278C17.3814 8.08278 17.3542 8.20501 17.1641 8.40195L16.8992 8.75846C16.8992 8.75846 16.7227 8.98596 16.6242 8.6566L16.3594 7.57007C16.7023 7.34597 17.0147 7.13546 17.2931 6.94531C17.3474 7.28485 17.4187 7.81454 17.3814 8.08278Z" fill="#4592CF"/>
<path d="M16.7363 9.23692L17.3916 8.37109C17.3916 8.37109 17.2355 10.0009 16.8314 10.6494L16.7363 9.23692Z" fill="#1F4393"/>
<path d="M7.08647 13.7564L5.98975 13.6953C5.98975 13.6953 7.26642 14.6664 8.027 14.7818L7.08647 13.7564Z" fill="#1F4393"/>
<path d="M14.9975 10.9256C14.9975 10.9256 14.8854 10.5623 15.3166 10.3857L16.3522 9.61833C16.3522 9.61833 16.5526 9.40442 16.5594 9.76094V10.9086C16.5594 10.9086 16.4813 11.0376 16.41 11.1157L15.4083 12.0596C15.4083 12.0596 15.2386 12.243 15.1876 11.9442L14.9975 10.9256Z" fill="#EE3A3A"/>
<path d="M9.43253 13.3851C9.43253 13.3851 9.28653 13.0591 8.86889 13.2798L7.65333 13.582C7.65333 13.582 7.37491 13.599 7.59221 13.8366L8.30525 14.5836C8.30525 14.5836 8.44107 14.6074 8.54293 14.604L9.84338 14.4444C9.84338 14.4444 10.0777 14.4308 9.92826 14.1966L9.43253 13.3851Z" fill="#4592CF"/>
<path d="M12.5361 12.3338C12.5361 12.3338 12.329 12.0011 12.8145 11.7396L14.2542 10.996C14.2542 10.996 14.6107 10.8195 14.7024 11.1522C14.7024 11.1522 14.9231 11.9094 14.9027 12.2218C14.9027 12.2218 14.9231 12.456 14.6616 12.6122L13.4359 13.3083C13.4359 13.3083 13.0386 13.5494 12.8756 13.1317L12.5361 12.3338Z" fill="#4592CF"/>
<path d="M12.1219 12.4457C12.1219 12.4457 12.0099 12.0688 11.4938 12.2623L9.98623 12.8497C9.98623 12.8497 9.61613 13.0025 9.80627 13.2911C9.80627 13.2911 10.2273 13.9566 10.4718 14.1502C10.4718 14.1502 10.6348 14.3199 10.9234 14.2282L12.2578 13.7733C12.2578 13.7733 12.7026 13.6341 12.4954 13.2368L12.1219 12.4457Z" fill="#FFC20E"/>
<path d="M10.8925 14.4482C10.8925 14.4482 12.4374 14.0068 12.5868 13.8811C12.5868 13.8811 12.7498 13.7963 12.855 13.9966C12.855 13.9966 13.1742 14.2852 12.5223 14.4923C12.5223 14.4923 11.5716 14.8386 11.3305 14.8217C11.3305 14.8251 10.8687 14.7673 10.8925 14.4482Z" fill="#EE3A3A"/>
<path d="M13.1778 13.8117C13.1778 13.8117 13.0556 13.7438 13.2763 13.6011C13.497 13.4585 14.5835 12.844 14.7872 12.7217C14.7872 12.7217 15.1437 12.6131 14.9061 13.085C14.9061 13.085 14.3492 13.7166 13.5377 14.0629C13.5377 14.0629 13.2559 14.2123 13.1778 13.8117Z" fill="#FFC20E"/>
<path d="M15.2254 12.4803L15.1914 12.898C15.1914 12.898 15.9757 12.1544 16.4749 11.3361L16.407 11.2852C16.4104 11.2818 15.3985 12.4158 15.2254 12.4803Z" fill="#17AE4B"/>
<path d="M10.2613 14.6836L10.594 14.9383C10.594 14.9383 9.51766 15.0265 8.57373 14.85L8.58052 14.7651C8.57713 14.7651 10.0949 14.7719 10.2613 14.6836Z" fill="#17AE4B"/>
<path d="M11.3033 12.0263L10.0267 12.5288C10.0267 12.5288 9.5581 12.7631 9.32382 12.3794L8.896 11.6392C9.69731 11.3098 10.4986 10.9329 11.2796 10.5391L11.6667 11.3811C11.6667 11.3811 11.9213 11.7988 11.3033 12.0263Z" fill="#17AE4B"/>
<path d="M14.2984 10.5587L12.7739 11.36C12.2103 11.6214 12.0065 11.0748 12.0065 11.0748L11.667 10.3414C12.4887 9.91355 13.2832 9.46875 14.02 9.02734L14.3392 9.85583C14.509 10.3787 14.2984 10.5587 14.2984 10.5587Z" fill="#1F4393"/>
<path d="M10.9878 8.70345C11.8027 8.42163 12.604 8.11265 13.3578 7.79688C13.3204 7.85799 13.2593 7.91232 13.1677 7.96325L11.6092 8.7374C11.6092 8.7374 11.2323 9.00904 10.9878 8.70345Z" fill="#EE3A3A"/>
<path d="M12.9808 6.45706C12.0063 6.82037 11.1065 7.14293 10.3663 7.40098L10.1694 6.97995C10.1694 6.97995 9.85699 6.37217 10.4376 6.1311L11.9927 5.46899C11.9927 5.46899 12.4511 5.27885 12.6378 5.66253L12.9808 6.45706Z" fill="#EE3A3A"/>
<path d="M6.28169 13.2745C6.28169 13.2745 5.57205 13.3221 5.36493 12.9621C5.33437 12.9078 5.29363 12.8467 5.24609 12.7822C5.57205 12.7177 5.90141 12.643 6.23416 12.5547L6.5737 13.0334C6.5737 13.0334 6.65179 13.3866 6.28169 13.2745Z" fill="#4592CF"/>
<path d="M5.48389 8.45283L6.33614 8.0318C6.33614 8.0318 6.68587 7.8824 6.86243 8.19478L6.93713 8.36116C6.34972 8.44944 5.87096 8.47321 5.48389 8.45283Z" fill="#1F4393"/>
<path d="M7.29684 10.5036L6.285 10.928C6.285 10.928 5.86057 11.1827 5.59913 10.7141L5.23242 9.86523H5.29354C5.993 9.86523 6.73999 9.78374 7.51075 9.64453L7.61261 9.87202C7.61261 9.87202 7.84689 10.2557 7.29684 10.5036Z" fill="#1F4393"/>
<path d="M5.71473 2.36168C5.71473 2.36168 6.13237 1.84558 7.35471 1.3125C7.35471 1.3125 7.6603 1.41097 7.39885 1.83539C7.39885 1.83539 6.20707 2.54843 6.03729 2.64011C5.87092 2.73178 5.5144 2.88118 5.71473 2.36168Z" fill="#4592CF"/>
<path d="M7.79286 1.11112C7.79286 1.11112 7.58574 1.10433 7.64346 1.31145C7.64346 1.31145 7.6876 1.63062 8.05091 1.55252C8.05091 1.55252 9.57206 1.08396 9.63657 1.06358C9.63657 1.06358 9.96253 0.914185 9.55168 0.730833C9.55168 0.730833 9.2393 0.578039 8.48213 0.846277C7.72834 1.12131 7.79286 1.11112 7.79286 1.11112Z" fill="#FFC20E"/>
<path d="M9.70095 0.624489C9.70095 0.624489 11.3341 0.590535 11.9283 0.767097C11.9283 0.767097 11.1847 0.974217 10.5464 0.930077C10.5464 0.930077 9.89449 0.943658 9.66699 0.621094" fill="#17AE4B"/>
<path d="M10.5161 1.29977C10.5161 1.29977 10.2478 1.01456 10.8319 1.00097C10.8319 1.00097 12.061 0.963625 12.207 1.00097C12.207 1.00097 12.3768 1.00097 12.6043 1.29977C12.8318 1.59857 13.0932 1.81927 13.0932 1.81927C13.0932 1.81927 13.2358 1.95509 12.825 2.03318C12.4141 2.11128 11.6502 2.27086 11.6502 2.27086C11.6502 2.27086 11.2868 2.43045 11.0729 2.05016C10.8624 1.67666 10.5161 1.29977 10.5161 1.29977Z" fill="#1F4393"/>
<path d="M12.6209 0.98607C12.6209 0.98607 13.9044 1.4852 14.5427 1.98093L13.6769 1.95376C13.6769 1.95376 12.862 1.2577 12.5632 1.08793C12.2644 0.918162 12.6209 0.98607 12.6209 0.98607Z" fill="#EE3A3A"/>
<path d="M13.8843 2.33589L14.8622 3.87401C14.8622 3.87401 14.9199 3.94531 15.2153 3.93173C15.5073 3.91815 15.9691 3.78912 15.9691 3.78912C15.9691 3.78912 16.0098 3.79592 15.9691 3.63973C15.9691 3.63973 15.2255 2.4751 14.8214 2.27477C14.4174 2.07444 13.8843 2.33589 13.8843 2.33589Z" fill="#FFC20E"/>
<path d="M3.87109 6.60547C3.76923 7.18269 3.82695 7.81763 4.36343 8.2149C4.26496 7.78368 4.06124 7.13855 4.06124 7.13855C3.99672 6.70733 3.91523 6.61905 3.87109 6.60547Z" fill="#4592CF"/>
<path d="M18.1692 5.08479C17.9688 5.19684 17.5478 5.42434 16.9672 5.72313C16.6786 5.87253 16.3458 6.03891 15.9825 6.21547C15.884 6.263 15.7856 6.31054 15.6803 6.35808C15.0997 6.63989 14.441 6.94209 13.7415 7.24428C13.6227 7.29521 13.5072 7.34275 13.3884 7.39368C12.5769 7.73661 11.7077 8.07276 10.8249 8.37495C10.7026 8.41909 10.5804 8.45984 10.4582 8.49719C9.55838 8.79598 8.64841 9.05064 7.769 9.2272H7.7656C7.62978 9.25776 7.49736 9.28492 7.36154 9.3053C6.63832 9.43772 5.94226 9.51242 5.29034 9.51242C5.24281 9.51242 5.19527 9.51242 5.15113 9.50902C5.12736 9.50902 5.10359 9.50902 5.07983 9.50563C4.96778 9.50563 4.86252 9.49884 4.76066 9.49204C4.55354 9.47846 4.36339 9.45809 4.19023 9.42753C3.47379 9.3053 3.03579 9.04725 2.8762 8.65338C2.63173 8.03881 3.1003 7.13563 3.62659 6.4124C3.3923 7.18316 3.47379 7.80792 3.86087 8.22216C4.11213 8.49379 4.49242 8.67035 4.99834 8.74845C5.545 8.84013 6.24106 8.81975 7.08312 8.68733C7.21554 8.66696 7.35475 8.64319 7.49736 8.61942C7.82672 8.55831 8.17305 8.48021 8.54315 8.38853C8.56013 8.38514 9.18828 8.18141 10.1662 7.84187C10.2782 7.80452 10.3937 7.76378 10.5159 7.71964H10.5193C11.2595 7.45819 12.1593 7.13902 13.1236 6.77911C13.239 6.73157 13.3612 6.68743 13.4801 6.64329C14.1252 6.39882 14.7941 6.13737 15.463 5.86574H15.4664C15.5683 5.82499 15.6701 5.78425 15.7754 5.74011C16.1183 5.60429 16.4579 5.46169 16.794 5.31568C17.2184 5.13573 17.6361 4.95237 18.0401 4.76562L18.1692 5.08479Z" fill="#1F4393"/>
<path d="M1.063 11.8776C1.38557 12.4922 2.43135 12.7401 4.09511 12.5941C9.46326 12.1187 17.249 6.574 18.4611 5.6878L18.3626 5.58594C17.4595 6.17674 11.7212 9.84379 6.1018 11.4057C3.87441 12.0236 2.42456 11.9523 1.79302 11.1952C1.45687 10.7911 1.41612 10.2682 1.47724 9.80644C1.10714 10.4414 0.757414 11.2868 1.063 11.8776Z" fill="#1F4393"/>
<path d="M17.918 4.17108L18.3899 5.97065L23.8498 1.69922L17.918 4.17108Z" fill="url(#paint0_linear_1818_83652)"/>
<path d="M17.918 4.17108L18.3899 5.97065L23.8498 1.69922L17.918 4.17108Z" fill="url(#paint1_linear_1818_83652)"/>
<path d="M23.85 1.69922L18.9945 4.86035L18.3936 5.97065L23.85 1.69922Z" fill="url(#paint2_linear_1818_83652)"/>
<path d="M18.9941 4.86035L19.6902 5.70241L20.5764 6.06912L23.8496 1.69922L18.9941 4.86035Z" fill="url(#paint3_linear_1818_83652)"/>
<path d="M4.03763 4.81606C4.03763 4.81606 4.11572 4.46294 4.37717 4.18451L5.22263 3.36961C5.22263 3.36961 5.35845 3.16928 5.42296 3.51901L5.63008 4.68703C5.63008 4.68703 5.60971 4.91113 5.26677 5.14202C4.92044 5.36951 4.3534 5.83129 4.3534 5.83129C4.3534 5.83129 4.00707 6.07915 4.03423 5.64114V4.81606H4.03763Z" fill="#1F4393"/>
<path d="M16.3999 3.638L16.95 4.19485L17.9177 4.17108L23.8494 1.69922L16.3999 3.638Z" fill="url(#paint4_linear_1818_83652)"/>
<defs>
<linearGradient id="paint0_linear_1818_83652" x1="17.9196" y1="3.8347" x2="23.8493" y2="3.8347" gradientUnits="userSpaceOnUse">
<stop stop-color="#FCC014"/>
<stop offset="1" stop-color="#DA2F32"/>
</linearGradient>
<linearGradient id="paint1_linear_1818_83652" x1="17.9196" y1="3.8347" x2="23.8493" y2="3.8347" gradientUnits="userSpaceOnUse">
<stop stop-color="#FCC014"/>
<stop offset="1" stop-color="#DA2F32"/>
</linearGradient>
<linearGradient id="paint2_linear_1818_83652" x1="18.392" y1="3.8347" x2="23.8495" y2="3.8347" gradientUnits="userSpaceOnUse">
<stop stop-color="#ED3030"/>
<stop offset="1" stop-color="#E45D4C"/>
</linearGradient>
<linearGradient id="paint3_linear_1818_83652" x1="18.9933" y1="3.88475" x2="23.8491" y2="3.88475" gradientUnits="userSpaceOnUse">
<stop stop-color="#FCC014"/>
<stop offset="1" stop-color="#FCC014"/>
</linearGradient>
<linearGradient id="paint4_linear_1818_83652" x1="16.4005" y1="2.94639" x2="23.849" y2="2.94639" gradientUnits="userSpaceOnUse">
<stop stop-color="#F89E1D"/>
<stop offset="1" stop-color="#F89E1D"/>
</linearGradient>
</defs>
</svg>
