<svg width="17" height="19" viewBox="0 0 17 19" fill="none" xmlns="http://www.w3.org/2000/svg">
<path d="M1.67036 8.39638C2.45399 8.39638 3.08925 7.76112 3.08925 6.97748C3.08925 6.19385 2.45399 5.55859 1.67036 5.55859C0.886725 5.55859 0.251465 6.19385 0.251465 6.97748C0.251465 7.76112 0.886725 8.39638 1.67036 8.39638Z" fill="#EE3A3A"/>
<path d="M5.11799 1.6735C5.11799 2.02743 4.83358 2.31184 4.47965 2.31184C4.12572 2.31184 3.84131 2.02743 3.84131 1.6735C3.84131 1.31957 4.12572 1.03516 4.47965 1.03516C4.83358 1.03516 5.11799 1.32273 5.11799 1.6735Z" fill="#17AE4B"/>
<path d="M9.57713 2.94918C10.2944 2.94918 10.8759 2.36768 10.8759 1.65037C10.8759 0.933058 10.2944 0.351562 9.57713 0.351562C8.85982 0.351562 8.27832 0.933058 8.27832 1.65037C8.27832 2.36768 8.85982 2.94918 9.57713 2.94918Z" fill="#4592CF"/>
<path d="M13.5649 5.62524C13.5649 6.21934 13.0846 6.69967 12.4905 6.69967C11.8964 6.69967 11.416 6.21934 11.416 5.62524C11.416 5.03113 11.8964 4.5508 12.4905 4.5508C13.0846 4.54764 13.5649 5.03113 13.5649 5.62524Z" fill="#FFC20E"/>
<path d="M14.1247 3.17271C14.1247 3.40656 13.9351 3.59932 13.6981 3.59932C13.4643 3.59932 13.2715 3.40972 13.2715 3.17271C13.2715 2.93886 13.4611 2.74609 13.6981 2.74609C13.9351 2.74925 14.1247 2.93886 14.1247 3.17271Z" fill="#1F4393"/>
<path d="M15.3125 9.0923C15.3125 9.52524 14.9618 9.87601 14.5288 9.87601C14.0959 9.87601 13.7451 9.52524 13.7451 9.0923C13.7451 8.65937 14.0959 8.30859 14.5288 8.30859C14.9618 8.30859 15.3125 8.65937 15.3125 9.0923Z" fill="#EE3A3A"/>
<path d="M1.67019 3.29486C1.67019 3.46551 1.53115 3.6014 1.36366 3.6014C1.19301 3.6014 1.05713 3.46235 1.05713 3.29486C1.05713 3.12422 1.19617 2.98833 1.36366 2.98833C1.53431 2.98517 1.67019 3.12422 1.67019 3.29486Z" fill="#EE3A3A"/>
<path d="M4.13831 4.03766C4.13831 4.27783 3.94238 4.47375 3.70221 4.47375C3.46204 4.47375 3.26611 4.27783 3.26611 4.03766C3.26611 3.79749 3.46204 3.60156 3.70221 3.60156C3.94238 3.60156 4.13831 3.79749 4.13831 4.03766Z" fill="#FFC20E"/>
<path d="M15.8561 11.5403C16.1196 11.5403 16.3333 11.3267 16.3333 11.0631C16.3333 10.7996 16.1196 10.5859 15.8561 10.5859C15.5925 10.5859 15.3789 10.7996 15.3789 11.0631C15.3789 11.3267 15.5925 11.5403 15.8561 11.5403Z" fill="#FFC20E"/>
<path d="M16.5511 6.31632C16.5511 6.69869 16.2414 7.01154 15.8559 7.01154C15.4703 7.01154 15.1606 6.70185 15.1606 6.31632C15.1606 5.93078 15.4703 5.62109 15.8559 5.62109C16.2414 5.62109 16.5511 5.93394 16.5511 6.31632Z" fill="#8F3F97"/>
<path d="M7.40931 10.2708C9.38148 10.2708 10.9802 8.672 10.9802 6.69983C10.9802 4.72767 9.38148 3.12891 7.40931 3.12891C5.43714 3.12891 3.83838 4.72767 3.83838 6.69983C3.83838 8.672 5.43714 10.2708 7.40931 10.2708Z" fill="#1F4393"/>
<path d="M7.01401 5.86513L7.45327 6.26962C7.50067 6.31702 7.57335 6.23802 7.52279 6.19378C7.49119 6.18746 6.91921 5.54911 7.01401 5.86513Z" fill="#F5F6FC"/>
<path d="M7.54471 6.76385C7.52259 6.74489 7.49099 6.74489 7.47203 6.76701C7.45939 6.81441 6.97905 7.22206 7.0707 7.27895C7.1339 7.37059 7.50363 6.85233 7.54787 6.83969C7.56684 6.81441 7.56683 6.78281 7.54471 6.76385Z" fill="#F5F6FC"/>
<path d="M8.02214 6.24379C8.04427 6.26275 8.07587 6.26275 8.09483 6.24063C8.10747 6.19323 8.58781 5.78557 8.49616 5.72869C8.47404 5.70973 8.44244 5.70973 8.42348 5.73185C8.40768 5.77925 7.92734 6.18691 8.02214 6.24379Z" fill="#F5F6FC"/>
<path d="M7.43106 6.51541C7.43106 6.48696 7.40578 6.46484 7.37734 6.46484C7.33626 6.49012 6.70739 6.4364 6.73268 6.54385C6.71371 6.65129 7.33942 6.55017 7.3805 6.56913C7.40894 6.56913 7.43106 6.54701 7.43106 6.51541Z" fill="#F5F6FC"/>
<path d="M8.13258 6.48916C8.13258 6.5176 8.15786 6.53972 8.1863 6.53972C8.22738 6.51444 8.85624 6.56816 8.83096 6.46072C8.83096 6.43228 8.80568 6.41016 8.77724 6.41016C8.73616 6.43544 8.1073 6.38488 8.13258 6.48916Z" fill="#F5F6FC"/>
<path d="M7.71536 6.10169C7.71852 6.16805 7.82281 6.16489 7.81965 6.09853C7.79437 6.05745 7.84809 5.42859 7.74065 5.45387C7.63004 5.43175 7.73432 6.06061 7.71536 6.10169Z" fill="#F5F6FC"/>
<path d="M9.93698 7.12402C9.84218 6.89965 9.49141 6.92809 9.43136 7.16194C9.3334 6.94389 8.98895 6.9755 8.92891 7.20618C8.83094 6.98498 8.48333 7.01974 8.42645 7.25043C8.26528 7.06082 8.07252 6.01482 7.65854 6.23287C7.0202 6.32767 8.85622 8.75464 8.21788 8.52711L7.93347 8.42283C7.42153 8.17634 6.96016 8.60927 7.49738 8.8368L9.05847 9.41194C9.65573 9.15597 10.1361 8.64088 10.3288 7.98041L9.93698 7.12402Z" fill="#F5F6FC"/>
<path d="M7.69929 14.0205C7.69929 14.2639 7.5002 14.463 7.25687 14.463C7.01354 14.463 6.81445 14.2639 6.81445 14.0205C6.81445 13.7772 7.01354 13.5781 7.25687 13.5781C7.5002 13.5781 7.69929 13.7772 7.69929 14.0205Z" fill="#1F4393"/>
<path d="M8.26843 12.9493C8.16415 12.8103 7.93978 12.8134 7.8671 12.9303C7.8039 13.0315 7.79126 13.1547 7.82602 13.2653C7.9461 13.6224 8.34112 14.9781 7.2572 15.0097C6.17328 14.9749 6.56829 13.6224 6.68838 13.2653C6.7263 13.1547 6.7105 13.0315 6.6473 12.9303C6.57461 12.8134 6.35341 12.8134 6.24596 12.9493C6.05636 13.1863 5.81619 14.0585 5.51914 15.8282C5.35481 16.7952 5.25685 17.7211 5.20312 18.3215C5.98051 18.5554 6.8053 18.6818 7.65853 18.6818C8.23051 18.6818 8.78985 18.6249 9.33023 18.5174C9.27967 17.936 9.17855 16.9058 8.99842 15.8282C8.70453 14.0806 8.46436 13.2116 8.26843 12.9493Z" fill="#1F4393"/>
<path d="M10.8723 12.5499C10.8723 12.8154 10.6574 13.0334 10.3888 13.0334C10.1233 13.0334 9.90527 12.8185 9.90527 12.5499C9.90527 12.2845 10.1202 12.0664 10.3888 12.0664C10.6574 12.0664 10.8723 12.2845 10.8723 12.5499Z" fill="#17AE4B"/>
<path d="M14.4243 15.3098C13.669 13.7992 12.8505 12.7374 12.0826 11.7894C11.2578 10.7718 10.1518 9.72583 9.67461 9.95336C9.32384 10.1208 9.7947 10.5127 10.0191 10.7276C10.2466 10.9425 11.8077 12.5889 10.9955 13.2209C10.2466 13.8055 9.66829 12.7975 9.44076 12.374C9.20376 11.9379 8.90671 11.5176 8.68866 11.5334C8.1546 11.5713 8.63494 12.4815 8.63494 12.4815C9.37124 13.9825 9.97798 16.9214 10.234 18.2803C11.9215 17.7399 13.3783 16.6907 14.4243 15.3098Z" fill="#17AE4B"/>
<path d="M4.64375 12.5499C4.64375 12.8154 4.42887 13.0334 4.16026 13.0334C3.89481 13.0334 3.67676 12.8185 3.67676 12.5499C3.67676 12.2845 3.89165 12.0664 4.16026 12.0664C4.42887 12.0664 4.64375 12.2845 4.64375 12.5499Z" fill="#8F3F97"/>
<path d="M5.82256 11.5334C5.60452 11.5176 5.30747 11.9379 5.07046 12.374C4.83977 12.7975 4.26463 13.8055 3.51568 13.2209C2.70353 12.5889 4.26779 10.9425 4.49216 10.7276C4.71968 10.5127 5.18738 10.1177 4.83661 9.95336C4.35943 9.72583 3.25339 10.7718 2.4286 11.7894C1.77762 12.5921 1.08871 13.48 0.43457 14.6524C1.351 16.1345 2.70985 17.3133 4.32783 18.0022C4.60908 16.5517 5.18422 13.8877 5.87313 12.4815C5.87629 12.4815 6.35662 11.5713 5.82256 11.5334Z" fill="#8F3F97"/>
</svg>
