<svg width="19" height="20" viewBox="0 0 19 20" fill="none" xmlns="http://www.w3.org/2000/svg">
<path fill-rule="evenodd" clip-rule="evenodd" d="M17.1441 11.7422C16.9666 14.6922 15.1333 17.4259 12.2059 18.6169C8.13919 20.2726 3.49473 18.3264 1.83576 14.2694C1.6647 13.8498 1.53237 13.427 1.43555 12.9977L3.27203 13.0397C3.33012 13.2269 3.39468 13.4173 3.47214 13.6045C4.76316 16.761 8.3748 18.2748 11.5378 16.987C13.5712 16.1575 14.9267 14.3726 15.2915 12.3651L16.0532 13.6594L17.1441 11.7422Z" fill="url(#paint0_linear_1818_27560)"/>
<path fill-rule="evenodd" clip-rule="evenodd" d="M16.5661 8.27399C16.7372 8.69357 16.8695 9.11638 16.9663 9.54565L15.1299 9.50369C15.0718 9.31327 15.0072 9.12607 14.9298 8.93887C13.6387 5.78232 10.0271 4.26859 6.86408 5.55639L6.83181 5.5693C6.73175 5.29818 6.67688 5.01093 6.67688 4.71399C6.67688 4.34928 6.75757 3.99425 6.9125 3.67149C10.7952 2.50634 15.0008 4.45579 16.5661 8.27399ZM5.03406 6.70862C4.0206 7.62848 3.34927 8.85818 3.11043 10.1815L2.34873 8.88723L1.25781 10.8012C1.40305 8.416 2.6263 6.17285 4.63707 4.77209C4.6532 5.43051 4.80813 6.08571 5.03406 6.70862Z" fill="url(#paint1_linear_1818_27560)"/>
<path fill-rule="evenodd" clip-rule="evenodd" d="M18.0704 9.28906L17.0569 11.0642L16.0467 12.8394L15.0107 11.0771L13.9746 9.31488L16.0241 9.30197L18.0704 9.28906Z" fill="#2A93D0"/>
<path fill-rule="evenodd" clip-rule="evenodd" d="M0.331543 13.2573L1.34177 11.4822L2.35522 9.70703L3.39127 11.4693L4.42409 13.2315L2.37782 13.2444L0.331543 13.2573Z" fill="#8F3F97"/>
<path fill-rule="evenodd" clip-rule="evenodd" d="M9.24271 13.1216C9.24271 13.1216 4.98879 8.20285 4.92746 4.73967C4.8855 2.42874 6.72521 0.530937 9.03614 0.488979C11.1825 0.450248 12.9802 2.02853 13.2578 4.10385C12.6962 3.78754 12.0991 3.53902 11.4762 3.35828C11.005 2.54493 10.1238 1.99625 9.1136 1.99625C7.60633 1.99625 6.38632 3.21304 6.38632 4.71708C6.38632 6.2179 7.60633 7.43791 9.1136 7.43791C10.1948 7.43791 11.1308 6.80854 11.5698 5.89837C12.0539 6.11139 12.509 6.38896 12.9221 6.72462C11.9216 9.6617 9.24271 13.1216 9.24271 13.1216Z" fill="#EE3A3A"/>
<path opacity="0.1" fill-rule="evenodd" clip-rule="evenodd" d="M9.24271 13.1209C9.24271 13.1209 4.98879 8.20215 4.92746 4.73898C4.8855 2.42804 6.72521 0.53024 9.03614 0.488281C9.10715 0.488281 9.17493 0.488281 9.24271 0.488281V1.99878C9.20075 1.99555 9.15556 1.99555 9.11361 1.99555C7.60634 1.99555 6.38632 3.21234 6.38632 4.71638C6.38632 6.2172 7.60634 7.43722 9.11361 7.43722C9.15556 7.43722 9.20075 7.43722 9.24271 7.43399V13.1209Z" fill="#030202"/>
<path fill-rule="evenodd" clip-rule="evenodd" d="M9.98823 12.9297L9.65579 13.3105C9.85913 13.3331 10.2464 13.3945 10.2464 13.5881C10.2464 13.885 9.37822 13.898 9.22652 13.898C9.07806 13.898 8.20984 13.8883 8.20984 13.5913C8.20984 13.3945 8.60683 13.3299 8.81662 13.3105L8.48096 12.9297C8.38736 12.9491 8.29699 12.9716 8.20662 13.0039C7.97746 13.0814 7.64502 13.2557 7.64502 13.5784C7.64502 13.9012 7.97746 14.0722 8.20662 14.1529C8.52937 14.2627 8.90377 14.3014 9.23621 14.3014C9.57187 14.3014 9.94627 14.2627 10.2658 14.1529C10.495 14.0755 10.8274 13.9012 10.8274 13.5784C10.8274 13.2557 10.495 13.0846 10.2658 13.0039C10.1819 12.9716 10.0851 12.9491 9.98823 12.9297Z" fill="#FFC10E"/>
<path d="M9.24289 14.3935C8.96209 14.3935 8.55219 14.3677 8.18102 14.2418C7.94864 14.1611 7.55811 13.9707 7.55811 13.5801C7.55811 13.1896 7.94864 12.9992 8.18102 12.9185C8.26817 12.8894 8.35854 12.8636 8.46505 12.841L8.51669 12.8281L9.00728 13.3865L8.82654 13.4059C8.46828 13.4414 8.30367 13.5285 8.30367 13.5963C8.30367 13.606 8.3069 13.6221 8.32626 13.6415C8.44246 13.7577 8.86204 13.8093 9.22675 13.8093C9.59147 13.8093 10.0143 13.7577 10.1305 13.6415C10.1498 13.6221 10.1531 13.606 10.1531 13.5963C10.1531 13.5317 9.99491 13.4478 9.64634 13.4091L9.46882 13.3897L9.95295 12.8314L10.0046 12.841C10.1111 12.8636 10.2079 12.8894 10.2983 12.9185C10.5307 12.9992 10.9212 13.1896 10.9212 13.5801C10.9212 13.9707 10.5307 14.1611 10.2983 14.2418C9.93359 14.3677 9.52046 14.3935 9.24289 14.3935ZM8.45214 13.0347C8.37468 13.0508 8.3069 13.0734 8.24235 13.0928C8.05838 13.1573 7.7453 13.3058 7.7453 13.5769C7.7453 13.8513 8.05838 13.9997 8.24235 14.0611C8.5877 14.1772 8.97823 14.2031 9.24289 14.2031C9.50755 14.2031 9.89809 14.1772 10.2434 14.0611C10.4274 13.9965 10.7405 13.8513 10.7405 13.5769C10.7405 13.3026 10.4274 13.1541 10.2434 13.0928C10.1757 13.0702 10.1014 13.0508 10.024 13.0315L9.84322 13.2413C10.1757 13.2993 10.3435 13.4155 10.3435 13.5866C10.3435 13.6512 10.3177 13.7157 10.266 13.7641C10.0659 13.9675 9.47528 13.9868 9.22998 13.9868C8.98469 13.9868 8.39727 13.9642 8.19716 13.7641C8.14552 13.7125 8.1197 13.6512 8.1197 13.5866C8.1197 13.4123 8.29399 13.2961 8.63288 13.2348L8.45214 13.0347Z" fill="#FFC111"/>
<path fill-rule="evenodd" clip-rule="evenodd" d="M10.595 12.1602L10.2754 12.5701C10.6079 12.6282 10.9435 12.7185 11.2566 12.8638C12.1571 13.2769 12.1571 14.0257 11.2566 14.4388C9.97204 15.0262 8.50996 15.0295 7.22539 14.4388C6.3249 14.0257 6.3249 13.2769 7.22539 12.8638C7.53524 12.7218 7.86767 12.6314 8.19366 12.5733L7.8709 12.1666C7.60302 12.2279 7.3319 12.3151 7.07369 12.4313C5.77622 13.0251 5.77622 14.2839 7.07369 14.8778C8.36149 15.4684 10.1205 15.4684 11.4083 14.8778C12.7058 14.2807 12.7058 13.0251 11.4083 12.4313C11.1469 12.3086 10.8693 12.2215 10.595 12.1602Z" fill="#17AE4B"/>
<path d="M9.24261 15.4197C8.468 15.4197 7.69338 15.268 7.03496 14.9646C6.37977 14.6644 6.00537 14.1835 6.00537 13.651C6.00537 13.1152 6.37977 12.6375 7.03496 12.3374C7.28026 12.2244 7.54814 12.1372 7.85153 12.0662L7.91286 12.0533L8.38085 12.6407L8.21625 12.6698C7.86122 12.7343 7.54169 12.8279 7.27057 12.9506C6.87681 13.1313 6.65088 13.3863 6.65088 13.6477C6.65088 13.9092 6.87681 14.1642 7.27057 14.3449C8.52287 14.9194 9.96236 14.9194 11.2179 14.3449C11.6116 14.1642 11.8376 13.9092 11.8376 13.6477C11.8376 13.3863 11.6116 13.1313 11.2179 12.9506C10.9435 12.8247 10.6208 12.7279 10.2593 12.6666L10.0947 12.6375L10.5562 12.0469L10.6176 12.0598C10.9306 12.1308 11.2017 12.2212 11.4503 12.3341C12.1055 12.6343 12.4799 13.1152 12.4799 13.6477C12.4799 14.1835 12.1055 14.6612 11.4503 14.9614C10.7918 15.268 10.0172 15.4197 9.24261 15.4197ZM7.83217 12.2728C7.56751 12.3374 7.3319 12.418 7.11565 12.5181C6.53469 12.786 6.20225 13.1991 6.20225 13.651C6.20225 14.1061 6.53469 14.5192 7.11565 14.7838C8.36794 15.3584 10.1141 15.3584 11.3663 14.7838C11.9473 14.516 12.2797 14.1028 12.2797 13.651C12.2797 13.1991 11.9473 12.786 11.3663 12.5181C11.1469 12.418 10.908 12.3374 10.6337 12.2696L10.4529 12.4987C10.766 12.5633 11.05 12.6537 11.2986 12.7666C11.7666 12.9796 12.0345 13.3024 12.0345 13.6445C12.0345 13.9899 11.7666 14.3094 11.2986 14.5224C9.99141 15.1227 8.49059 15.1227 7.18343 14.5224C6.71543 14.3094 6.44755 13.9866 6.44755 13.6445C6.44755 13.2992 6.71543 12.9796 7.18343 12.7666C7.4255 12.6537 7.70629 12.5665 8.01291 12.502L7.83217 12.2728Z" fill="#1DAE4B"/>
<defs>
<linearGradient id="paint0_linear_1818_27560" x1="1.43577" y1="15.475" x2="17.1427" y2="15.475" gradientUnits="userSpaceOnUse">
<stop stop-color="#8F3F97"/>
<stop offset="1" stop-color="#1F4393"/>
</linearGradient>
<linearGradient id="paint1_linear_1818_27560" x1="1.25791" y1="7.06914" x2="16.9648" y2="7.06914" gradientUnits="userSpaceOnUse">
<stop stop-color="#1F4393"/>
<stop offset="1" stop-color="#4592CF"/>
</linearGradient>
</defs>
</svg>
