<svg width="19" height="16" viewBox="0 0 19 16" fill="none" xmlns="http://www.w3.org/2000/svg">
<path d="M9.59994 15.5554C11.3994 15.5554 12.8581 14.0966 12.8581 12.2972C12.8581 10.4978 11.3994 9.03906 9.59994 9.03906C7.80052 9.03906 6.3418 10.4978 6.3418 12.2972C6.3418 14.0966 7.80052 15.5554 9.59994 15.5554Z" fill="#EE3A3A"/>
<path d="M15.1812 3.84207C15.747 4.82487 15.5862 6.12039 15.0174 7.14489C14.8953 7.3623 14.3026 8.70844 12.3638 9.07476C12.0332 9.16708 9.60303 9.51255 7.44383 6.5701C7.26216 6.33184 6.22575 4.72957 4.95704 4.6432C4.87067 4.6432 3.16416 4.44664 2.37196 6.29014C2.3124 6.4599 1.92524 7.65416 2.91102 8.76503C3.1046 8.93776 5.29953 11.3501 5.61522 11.5943C5.77307 11.7164 6.73205 13.283 5.04936 15.2575C4.25121 14.9001 1.38916 13.2591 0.841171 9.40534C0.748847 8.7829 0.36466 5.5992 2.61618 3.02009C2.79785 2.85628 5.0851 -0.107022 9.56729 0.22058C9.91276 0.238449 13.3615 0.685178 15.1812 3.84207Z" fill="#1F4393"/>
<path d="M14.7582 9.59555L13.6362 9.85938L13.9001 10.9814L15.0221 10.7176L14.7582 9.59555Z" fill="#FFC10E"/>
<path d="M16.0613 11.8732L15.0396 11.3398L14.5061 12.3616L15.5279 12.895L16.0613 11.8732Z" fill="#8F3F97"/>
<path d="M18.0289 12.6537L16.9023 12.4102L16.6588 13.5367L17.7853 13.7802L18.0289 12.6537Z" fill="#EE518B"/>
<path d="M15.153 7.96054L15.3408 9.09766L16.4779 8.90979L16.2901 7.77267L15.153 7.96054Z" fill="#4592CF"/>
<path d="M17.239 9.57812H16.0864V10.7307H17.239V9.57812Z" fill="#17AE4B"/>
<path d="M5.31146 11.2961L4.82899 10.7869C4.69497 10.6469 4.70093 10.4235 4.84388 10.2925C4.98683 10.1614 5.20722 10.1644 5.33826 10.3044L5.82073 10.8137C6.48487 11.5165 7.59573 11.5463 8.29859 10.8792C9.00144 10.2121 9.03122 9.10419 8.36411 8.40133L7.88164 7.89206C7.74762 7.75209 7.75358 7.52872 7.89653 7.39768C8.03651 7.26366 8.25987 7.26962 8.39091 7.40959L8.87338 7.91887C9.80258 8.90167 9.76088 10.4563 8.78106 11.3855C7.79825 12.3206 6.24363 12.2789 5.31146 11.2961Z" fill="#FFC10E"/>
<path d="M3.38452 9.26368L2.90205 8.75441C1.97285 7.77161 2.01455 6.21699 2.99437 5.28779C3.97718 4.35859 5.5318 4.40029 6.46099 5.38012L6.94346 5.88939C7.07748 6.02936 7.07153 6.25273 6.93155 6.38377C6.79157 6.51779 6.56821 6.51183 6.43717 6.37186L5.9547 5.86258C5.29056 5.15973 4.1797 5.12995 3.47684 5.79706C2.77399 6.46418 2.7442 7.57207 3.41132 8.27492L3.89379 8.78419C4.02781 8.92417 4.02185 9.14753 3.88188 9.27858C3.73892 9.40962 3.51854 9.40366 3.38452 9.26368Z" fill="#FFC10E"/>
<path d="M6.35647 9.34566L4.90907 7.81784C4.77505 7.67787 4.781 7.4545 4.92396 7.32346C5.06393 7.18944 5.2873 7.1954 5.41834 7.33538L6.86574 8.86319C6.99976 9.00317 6.9938 9.22653 6.85383 9.35757C6.71088 9.49159 6.49049 9.48563 6.35647 9.34566Z" fill="#FFC10E"/>
</svg>
