<svg width="20" height="20" viewBox="0 0 20 20" fill="none" xmlns="http://www.w3.org/2000/svg">
<path d="M4.85457 17.4167C4.65804 17.4167 4.46151 17.3544 4.29774 17.2234C2.00488 15.4088 0.691406 12.6934 0.691406 9.77164C0.691406 8.59245 0.904314 7.43947 1.32685 6.34873C1.50373 5.88689 2.02454 5.65432 2.48966 5.83448C2.95151 6.01463 3.18407 6.53216 3.00391 6.99728C2.66326 7.88167 2.48966 8.81519 2.48966 9.77164C2.48966 12.1398 3.55747 14.341 5.41469 15.8117C5.80447 16.1196 5.86998 16.6862 5.56208 17.076C5.38193 17.2987 5.11989 17.4167 4.85457 17.4167Z" fill="#8F3F97"/>
<path d="M10.187 19.2707C9.42051 19.2707 8.66059 19.179 7.9236 18.9989C7.4421 18.881 7.14731 18.3929 7.26523 17.9114C7.38315 17.4299 7.86792 17.1351 8.35269 17.253C8.94884 17.4004 9.56791 17.4725 10.187 17.4725C12.2997 17.4725 14.2715 16.634 15.739 15.1108C16.0829 14.7538 16.6528 14.744 17.0099 15.0846C17.3669 15.4286 17.38 15.9985 17.0361 16.3555C15.228 18.2357 12.7943 19.2707 10.187 19.2707Z" fill="#2EABFF"/>
<path d="M18.3334 13.4371C18.2384 13.4371 18.1401 13.4208 18.0451 13.388C17.5767 13.2275 17.3245 12.7165 17.4817 12.2481C17.7536 11.4522 17.8879 10.6202 17.8879 9.76858C17.8879 7.88844 17.2033 6.07708 15.9586 4.66861C15.6311 4.29521 15.6638 3.72854 16.0372 3.40099C16.4106 3.07344 16.9773 3.1062 17.3048 3.4796C18.8411 5.21562 19.6861 7.44952 19.6861 9.76858C19.6861 10.8135 19.5158 11.842 19.185 12.8246C19.0572 13.2013 18.7068 13.4371 18.3334 13.4371Z" fill="#EE3A3A"/>
<path d="M16.6337 4.97706C16.3848 4.97706 16.1391 4.87552 15.959 4.67244C14.4948 3.01831 12.3919 2.06841 10.1875 2.06841C9.66017 2.06841 9.13281 2.12082 8.62183 2.22891C8.13378 2.33046 7.65883 2.01601 7.56057 1.53123C7.45902 1.04646 7.77347 0.568233 8.25825 0.469968C8.89042 0.338948 9.53897 0.273438 10.1875 0.273438C12.9095 0.273438 15.5037 1.44279 17.3052 3.48343C17.6327 3.85684 17.6 4.4235 17.2266 4.75105C17.0595 4.90173 16.8466 4.97706 16.6337 4.97706Z" fill="#17AE4B"/>
<path d="M3.96345 6.7279C3.79967 6.7279 3.62934 6.68205 3.48195 6.58706C3.06268 6.31847 2.94149 5.7649 3.2068 5.34564C5.18849 2.23718 9.01755 0.881125 12.5191 2.04721C12.9907 2.20443 13.2462 2.71213 13.089 3.18381C12.9318 3.65548 12.4241 3.91097 11.9524 3.75374C9.23701 2.8497 6.26285 3.90114 4.72664 6.31191C4.55304 6.58051 4.26152 6.7279 3.96345 6.7279Z" fill="#2EABFF"/>
<path d="M9.99408 17.724C9.03108 17.724 8.06153 17.5504 7.12474 17.1933C5.96848 16.7544 4.95963 16.0764 4.11782 15.1822C3.77717 14.8186 3.79682 14.2519 4.16041 13.9113C4.52399 13.5706 5.09065 13.5903 5.4313 13.9539C6.08313 14.6483 6.86597 15.1724 7.76346 15.5163C9.96133 16.3515 12.4114 15.893 14.1605 14.3207C14.5307 13.9899 15.0973 14.0194 15.4314 14.3895C15.7622 14.7596 15.7328 15.3263 15.3626 15.6604C13.8559 17.0132 11.943 17.724 9.99408 17.724Z" fill="#FFC20E"/>
<path d="M15.7753 7.30761C15.5263 7.28468 15.0809 7.30106 14.7861 7.65481C14.75 7.72032 14.3537 8.25096 13.8395 8.93226C13.8853 9.17137 13.9115 9.41376 13.9115 9.66597C13.9115 11.8344 12.1558 13.59 9.98746 13.59C7.81907 13.59 6.0634 11.8344 6.0634 9.66597C6.0634 9.41048 6.08961 9.16155 6.13546 8.92243C5.62448 8.2444 5.23142 7.72032 5.19539 7.65481C4.9006 7.29778 4.44858 7.28468 4.19964 7.31089C3.90157 8.03805 3.73779 8.834 3.73779 9.66925C3.73779 13.1216 6.53508 15.9189 9.98746 15.9189C13.4398 15.9189 16.2371 13.1216 16.2371 9.66925C16.2371 8.83072 16.0701 8.03477 15.7753 7.30761Z" fill="#1F4393"/>
<path d="M15.7752 7.30559C15.5263 7.28266 15.0775 7.29903 14.786 7.64951C14.75 7.7183 14.3536 8.24893 13.8361 8.92696C12.7945 10.3092 11.2648 12.3106 11.2648 12.3106C11.2648 12.3106 10.7244 12.8805 9.98738 12.9133C9.25039 12.8805 8.70994 12.3106 8.70994 12.3106C8.70994 12.3106 7.177 10.2994 6.13211 8.91713C5.62113 8.24238 5.22807 7.71502 5.19204 7.64951C4.89725 7.29576 4.44195 7.28266 4.19629 7.30559C4.47471 6.61118 4.87759 5.98228 5.3722 5.44182C6.15504 4.92102 6.72498 5.78247 6.72498 5.78247C6.72498 5.78247 7.00995 6.18209 7.39646 6.71272C8.15638 7.74778 9.29625 9.29382 9.44037 9.3626C9.6369 9.47397 9.81706 9.51983 9.98083 9.5231C10.1446 9.51983 10.3313 9.47397 10.5246 9.3626C10.6654 9.29054 11.8053 7.75105 12.5619 6.71599C12.9517 6.18536 13.2367 5.7792 13.2367 5.7792C13.2367 5.7792 13.8001 4.93412 14.5731 5.42872C15.0873 5.979 15.4902 6.61118 15.7752 7.30559Z" fill="#FFC20E"/>
<path d="M9.96151 7.42673C10.5494 7.42673 11.0261 6.96918 11.0261 6.40477C11.0261 5.84036 10.5494 5.38281 9.96151 5.38281C9.37358 5.38281 8.89697 5.84036 8.89697 6.40477C8.89697 6.96918 9.37358 7.42673 9.96151 7.42673Z" stroke="#1F4393" stroke-width="4.1083" stroke-miterlimit="10"/>
<g opacity="0.42">
<path d="M16.6332 4.97746C16.8461 4.97746 17.0558 4.90213 17.2294 4.75145C17.6028 4.4239 17.6355 3.85396 17.308 3.48383C17.308 3.48383 17.308 3.48383 17.3047 3.48056C16.9739 3.11042 16.4105 3.07767 16.0371 3.40522C15.6669 3.73277 15.6309 4.29943 15.9585 4.67284C16.1386 4.87592 16.3843 4.97746 16.6332 4.97746Z" fill="#221F1F"/>
<path d="M12.5196 2.04853C10.9376 1.52117 9.29 1.51462 7.77344 1.94699C7.97979 2.17627 8.29752 2.29747 8.62179 2.22868C9.13277 2.12386 9.66013 2.06818 10.1875 2.06818C11.1963 2.06818 12.179 2.26799 13.0929 2.6414C13.0142 2.3728 12.8079 2.14352 12.5196 2.04853Z" fill="#221F1F"/>
<path d="M5.41156 15.811C4.84163 15.359 4.34375 14.8382 3.93103 14.2617C3.82294 14.5696 3.8819 14.9234 4.11774 15.1756C4.60579 15.6964 5.14952 16.1386 5.74894 16.5054C5.74894 16.2467 5.6343 15.9879 5.41156 15.811Z" fill="#221F1F"/>
<path d="M15.3627 15.6562C15.2251 15.7807 15.0613 15.8495 14.891 15.8757C13.5513 16.914 11.9201 17.4742 10.1907 17.4742C9.56831 17.4742 8.95252 17.3988 8.35637 17.2547C8.10744 17.1925 7.8585 17.2449 7.65869 17.3726C8.42844 17.6052 9.21456 17.7231 9.9974 17.7231C11.9431 17.7231 13.856 17.0123 15.3627 15.6562Z" fill="#221F1F"/>
<path d="M15.6276 15.2202C15.585 15.3807 15.4966 15.5346 15.3623 15.6558C15.6276 15.4167 15.8766 15.158 16.1091 14.8828C15.9748 14.9254 15.8471 15.0007 15.739 15.1088C15.703 15.1481 15.6637 15.1842 15.6276 15.2202Z" fill="#221F1F"/>
<path d="M17.8652 8.07991C17.8226 7.87683 17.7145 7.7065 17.5704 7.58203C17.78 8.28954 17.8947 9.02325 17.8947 9.77334C17.8947 10.6217 17.7571 11.457 17.4885 12.2529C17.4426 12.3905 17.4328 12.528 17.4525 12.6623C17.4688 12.6198 17.4885 12.5805 17.5049 12.5379C18.0421 11.1098 18.1665 9.57026 17.8652 8.07991Z" fill="#221F1F"/>
<path d="M14.0948 15.5866C14.2717 15.7831 14.5174 15.8847 14.763 15.8847C14.8056 15.8847 14.8482 15.8781 14.8908 15.8748C15.1495 15.675 15.3952 15.4556 15.631 15.2197C15.7064 14.9348 15.6442 14.6203 15.4345 14.3845C15.1037 14.0143 14.5338 13.9849 14.1636 14.3157C13.7935 14.6465 13.7607 15.2197 14.0948 15.5866Z" fill="#221F1F"/>
<path d="M15.3626 15.6544C15.4969 15.5332 15.5854 15.3825 15.628 15.2188C15.3921 15.4546 15.1465 15.6708 14.8877 15.8739C15.0613 15.8476 15.2251 15.7789 15.3626 15.6544Z" fill="#221F1F"/>
</g>
</svg>
