<svg width="19" height="16" viewBox="0 0 19 16" fill="none" xmlns="http://www.w3.org/2000/svg">
<path d="M12.8132 10.0684C14.0246 8.85703 14.0246 6.89297 12.8132 5.68157C11.6018 4.47018 9.63773 4.47018 8.42633 5.68158C7.21494 6.89297 7.21494 8.85703 8.42633 10.0684C9.63773 11.2798 11.6018 11.2798 12.8132 10.0684Z" fill="#FFC10E"/>
<path fill-rule="evenodd" clip-rule="evenodd" d="M10.6167 2.0625C7.45172 2.0625 4.88672 4.6275 4.88672 7.7925C4.88672 10.9575 7.45172 13.5225 10.6167 13.5225C13.7817 13.5225 16.3467 10.9575 16.3467 7.7925C16.3467 4.6275 13.7787 2.0625 10.6167 2.0625ZM10.6197 12.3585C8.14472 12.3585 6.13472 10.3515 6.13472 7.8735C6.13472 5.3955 8.14172 3.3885 10.6197 3.3885C13.0947 3.3885 15.1047 5.3955 15.1047 7.8735C15.1047 10.3515 13.0977 12.3585 10.6197 12.3585Z" fill="#4592CF"/>
<path fill-rule="evenodd" clip-rule="evenodd" d="M10.7366 0.195312C6.49464 0.195312 3.05664 3.63331 3.05664 7.87531C3.05664 12.1173 6.49464 15.5553 10.7366 15.5553C14.9786 15.5553 18.4166 12.1173 18.4166 7.87531C18.4166 3.63331 14.9786 0.195312 10.7366 0.195312ZM10.7366 14.5143C7.07064 14.5143 4.09764 11.5413 4.09764 7.87531C4.09764 4.20931 7.07064 1.23631 10.7366 1.23631C14.4026 1.23631 17.3726 4.20931 17.3726 7.87531C17.3726 11.5413 14.4026 14.5143 10.7366 14.5143Z" fill="#8F3F97"/>
<path fill-rule="evenodd" clip-rule="evenodd" d="M0.80957 10.974C1.50557 11.148 2.22557 11.232 2.94557 11.232C4.50257 11.232 6.07157 10.83 7.39457 9.99603C8.54957 9.27003 9.50657 8.21103 9.94757 6.90603C10.1186 6.39903 10.2086 5.87403 10.2086 5.34003C10.2086 4.73703 10.0946 4.14303 9.87857 3.58203H1.69757C1.21157 3.58203 0.80957 3.98103 0.80957 4.47003V10.974Z" fill="#0C2848"/>
<path fill-rule="evenodd" clip-rule="evenodd" d="M1.25648 3.61719H10.7695C11.3785 3.61719 11.8795 4.11519 11.8795 4.72719V11.3302C11.8795 11.9392 11.3815 12.4402 10.7695 12.4402H1.25648C0.647485 12.4402 0.146484 11.9422 0.146484 11.3302V4.72719C0.149484 4.11519 0.647485 3.61719 1.25648 3.61719Z" fill="#1F4393"/>
<path fill-rule="evenodd" clip-rule="evenodd" d="M7.60178 6.5H11.9368V9.557H7.60178C6.76178 9.557 6.07178 8.87 6.07178 8.027C6.07178 7.187 6.76178 6.5 7.60178 6.5Z" fill="#00CC00"/>
<path fill-rule="evenodd" clip-rule="evenodd" d="M11.8797 6.85547H7.60171C6.95671 6.85547 6.42871 7.38347 6.42871 8.02847C6.42871 8.67347 6.95671 9.20147 7.60171 9.20147H11.8797V6.85547Z" fill="#00CC00"/>
<path fill-rule="evenodd" clip-rule="evenodd" d="M7.50575 7.51562C7.79075 7.51562 8.01875 7.74663 8.01875 8.03163C8.01875 8.31663 7.78775 8.54463 7.50575 8.54463C7.22375 8.54463 6.98975 8.31363 6.98975 8.03163C6.98975 7.74363 7.22075 7.51562 7.50575 7.51562Z" fill="#FCFCFC"/>
<path d="M2.68762 12.4307C3.40462 12.4307 3.42262 11.3177 2.70562 11.3177L2.27962 11.3117C1.61962 11.2217 1.69162 10.3367 2.36062 10.3367C3.22762 10.3367 3.09262 10.3367 3.96262 10.3367C4.67962 10.3367 4.67962 9.35566 3.96262 9.35566C3.47362 9.35566 2.98162 9.35566 2.49262 9.35566C1.77562 9.35566 1.77562 8.37466 2.49262 8.37466H3.02662C3.74362 8.37466 3.74362 7.39366 3.02662 7.39366H2.40262C1.68562 7.39366 1.68562 6.41266 2.40262 6.41266C3.23062 6.41266 3.38962 6.41266 4.21462 6.41266C4.93162 6.41266 4.93162 5.43166 4.21462 5.43166H2.21662C1.51762 5.43166 1.46362 4.45066 2.25262 4.45066H3.20062C4.00762 4.45066 4.00762 3.47266 3.20062 3.47266H2.06362C0.998621 3.47266 0.0536207 3.74866 0.125621 5.22166V10.5347C0.0236207 12.6167 0.983621 12.4247 2.05162 12.4247H2.68762V12.4307Z" fill="#FFC10E"/>
<path d="M7.89856 3.48047H0.122559V12.2975H7.89856V3.48047Z" fill="#FFC10E"/>
</svg>
