<svg width="22" height="23" viewBox="0 0 22 23" fill="none" xmlns="http://www.w3.org/2000/svg">
<path d="M20.4383 10.8107L11.2483 20.0007C10.1225 21.1265 8.59552 21.759 7.00334 21.759C5.41115 21.759 3.88418 21.1265 2.75834 20.0007C1.63249 18.8748 1 17.3478 1 15.7557C1 14.1635 1.63249 12.6365 2.75834 11.5107L11.9483 2.32066C12.6989 1.5701 13.7169 1.14844 14.7783 1.14844C15.8398 1.14844 16.8578 1.5701 17.6083 2.32066C18.3589 3.07122 18.7806 4.08921 18.7806 5.15066C18.7806 6.21212 18.3589 7.2301 17.6083 7.98066L8.40834 17.1707C8.03306 17.5459 7.52406 17.7568 6.99334 17.7568C6.46261 17.7568 5.95362 17.5459 5.57834 17.1707C5.20306 16.7954 4.99222 16.2864 4.99222 15.7557C4.99222 15.2249 5.20306 14.7159 5.57834 14.3407L14.0683 5.86066" stroke="#5E6272" stroke-width="2" stroke-linecap="round" stroke-linejoin="round"/>
</svg>
