<svg width="18" height="28" viewBox="0 0 18 28" fill="none" xmlns="http://www.w3.org/2000/svg">
<path fill-rule="evenodd" clip-rule="evenodd" d="M0.910784 16.4727C0.910784 16.4727 1.29385 18.1903 3.59029 18.2878C3.3922 19.2118 2.93557 20.1396 2.78454 20.9534C2.73361 21.2198 2.46761 22.6857 1.56938 23.0917C0.671147 23.4959 -0.145914 21.4548 0.0220851 20.4023C0.0220851 20.4023 0.969316 17.3068 0.910784 16.4728V16.4727Z" fill="#D1D1FC"/>
<path fill-rule="evenodd" clip-rule="evenodd" d="M0.910837 16.4727C0.910837 16.4727 1.2939 18.1903 3.59034 18.2878C3.44691 18.9582 3.16766 19.6289 2.96764 20.2571C2.90538 19.2651 2.6997 18.7563 2.6997 18.7563C1.78643 18.5725 1.17505 18.117 0.765625 17.5934C0.865561 17.1194 0.927965 16.7078 0.910986 16.4728L0.910837 16.4727Z" fill="#9596CA"/>
<path fill-rule="evenodd" clip-rule="evenodd" d="M17.0877 16.4727C17.0877 16.4727 16.7046 18.1903 14.4082 18.2878C14.6082 19.2118 15.0629 20.1396 15.2159 20.9534C15.2649 21.2198 15.531 22.6857 16.431 23.0917C17.3293 23.4959 18.1444 21.4548 17.9783 20.4023C17.9783 20.4023 17.0292 17.3068 17.0877 16.4728V16.4727Z" fill="#D1D1FC"/>
<path fill-rule="evenodd" clip-rule="evenodd" d="M17.0877 16.4727C17.0877 16.4727 16.7046 18.1903 14.4082 18.2878C14.5536 18.9582 14.8328 19.6289 15.0328 20.2571C15.0951 19.2651 15.2988 18.7563 15.2988 18.7563C16.214 18.5725 16.8254 18.117 17.2329 17.5934C17.1348 17.1194 17.0706 16.7078 17.0876 16.4728L17.0877 16.4727Z" fill="#9596CA"/>
<path fill-rule="evenodd" clip-rule="evenodd" d="M13.9061 14.0609C13.9061 14.0609 16.7327 13.5687 17.2252 15.6978C17.7178 17.827 15.3478 18.6721 14.3231 18.4076C14.3231 18.4076 12.4663 15.1174 12.504 14.9759C12.5417 14.8344 13.9061 14.0611 13.9061 14.0611V14.0609Z" fill="#1D2949"/>
<path fill-rule="evenodd" clip-rule="evenodd" d="M4.09227 14.0609C4.09227 14.0609 1.26756 13.5687 0.775028 15.6978C0.282497 17.827 2.65251 18.6721 3.67525 18.4076C3.67525 18.4076 5.53397 15.1174 5.49614 14.9759C5.45846 14.8344 4.09227 14.0611 4.09227 14.0611V14.0609Z" fill="#1D2949"/>
<path fill-rule="evenodd" clip-rule="evenodd" d="M5.8302 14.4453C5.8302 14.4453 3.61687 15.092 3.63191 17.4104C3.63564 17.82 3.68285 18.3584 3.781 18.9647C4.23197 21.7736 5.76229 26.0504 9.0003 25.997C12.2364 26.0502 13.7686 21.7736 14.2196 18.9647C14.3178 18.3584 14.365 17.8202 14.3668 17.4104C14.3837 15.092 12.1704 14.4453 12.1704 14.4453C11.1553 15.2702 9.0003 15.0772 9.0003 15.0772C9.0003 15.0772 6.84535 15.2701 5.8302 14.4453Z" fill="#D1D1FC"/>
<path fill-rule="evenodd" clip-rule="evenodd" d="M5.30381 14.6758C4.96409 14.8576 4.52264 15.1625 4.1792 15.6348C4.60947 16.1768 5.80394 17.077 9.0004 17.11C12.1951 17.077 13.3895 16.1768 13.8216 15.6348C13.4781 15.1627 13.0366 14.8578 12.697 14.6758L11.6083 14.7713C10.5195 15.2159 9.00055 15.0799 9.00055 15.0799C9.00055 15.0799 7.47961 15.2159 6.39283 14.7713L5.30411 14.6758H5.30381Z" fill="#9596CA"/>
<path fill-rule="evenodd" clip-rule="evenodd" d="M8.99985 3.80078C8.99985 3.80078 3.22382 3.93128 2.42568 7.94893C1.62753 11.9666 2.7578 16.0817 8.99985 16.1479C15.24 16.0818 16.3722 11.9667 15.5721 7.94893C14.7739 3.93128 8.99985 3.80078 8.99985 3.80078Z" fill="#D1D1FC"/>
<path fill-rule="evenodd" clip-rule="evenodd" d="M6.52092 7.00682C6.52092 7.00682 7.88517 7.55797 9.0004 7.33206C10.1156 7.55797 11.4799 7.00682 11.4799 7.00682C12.3459 6.53833 15.2407 7.21809 14.2763 10.6847C13.3102 14.1531 9.0004 14.0393 9.0004 14.0393C9.0004 14.0393 4.69065 14.1533 3.7245 10.6847C2.76029 7.21809 5.65486 6.53847 6.52092 7.00682Z" fill="#2A317D"/>
<path fill-rule="evenodd" clip-rule="evenodd" d="M9.00009 3.80078C9.00009 3.80078 7.97735 3.82471 6.73389 4.1498C6.96786 4.87175 7.49629 6.09163 8.41701 6.18341H9.58124C10.5021 6.09163 11.0323 4.87175 11.2663 4.1498C10.0228 3.82456 9.00009 3.80078 9.00009 3.80078Z" fill="#20B4E8"/>
<path fill-rule="evenodd" clip-rule="evenodd" d="M15.1631 20.758C15.1894 20.8462 15.2084 20.9142 15.216 20.9528L15.2216 20.9822C15.5272 20.7985 16.2651 20.523 17.9841 20.444C17.9821 20.4293 17.9804 20.4164 17.9784 20.4018C17.9784 20.4018 17.9482 20.3062 17.9011 20.1445C17.101 20.1556 15.8991 20.2621 15.1631 20.7582V20.758Z" fill="#252667"/>
<path fill-rule="evenodd" clip-rule="evenodd" d="M15.535 7.77344C15.9369 7.94062 16.6219 8.29892 16.6219 8.64605C16.6219 8.64605 17.1162 12.1439 15.5293 12.1604C15.8991 10.8763 15.8634 9.40657 15.5726 7.94976C15.5613 7.88915 15.5481 7.83028 15.535 7.77344Z" fill="#20B4E8"/>
<path fill-rule="evenodd" clip-rule="evenodd" d="M16.6916 10.0117C16.6652 10.9945 16.4406 12.1519 15.5293 12.161C15.6897 11.6044 15.7746 11.0111 15.7935 10.3993C16.1709 10.2946 16.4634 10.1569 16.6917 10.0117H16.6916Z" fill="#243E8F"/>
<path fill-rule="evenodd" clip-rule="evenodd" d="M15.3062 7.80494C15.3062 7.80494 15.3572 4.83985 12.9268 3.50976C12.9268 3.50976 11.4135 3.55935 11.5626 2.49013C11.7117 1.4209 13.2929 2.35963 13.3439 2.87046C13.3023 3.08912 17.2215 6.10381 15.5062 8.46802L15.3062 7.8048V7.80494Z" fill="#1D2949"/>
<path fill-rule="evenodd" clip-rule="evenodd" d="M14.2198 18.9689C14.2085 19.0369 14.1972 19.1049 14.1858 19.1746C12.9385 19.6724 11.3555 19.801 11.3555 19.801C11.1894 22.3784 9.00049 22.125 9.00049 22.125V21.9908C11.3969 21.9266 11.2138 19.5603 11.2138 19.5603C12.9272 19.5126 14.2198 18.9688 14.2198 18.9688V18.9689Z" fill="#252667"/>
<path fill-rule="evenodd" clip-rule="evenodd" d="M11.9532 8.75781C11.4966 8.75781 11.1211 9.12162 11.1211 9.56793V10.9605C11.1211 11.407 11.4966 11.7706 11.9532 11.7706C12.4118 11.7706 12.7853 11.4068 12.7853 10.9605V9.56793C12.7853 9.12147 12.4116 8.75781 11.9532 8.75781Z" fill="white"/>
<path fill-rule="evenodd" clip-rule="evenodd" d="M11.2023 9.22558C11.1513 9.33027 11.1211 9.44598 11.1211 9.56908V10.9617C11.1211 11.4081 11.4966 11.7718 11.9532 11.7718C12.0796 11.7718 12.2004 11.7442 12.308 11.6946C12.3589 11.5899 12.3872 11.4742 12.3872 11.3511V9.95855C12.3872 9.5121 12.0117 9.14844 11.5551 9.14844C11.4286 9.14844 11.3079 9.17599 11.2023 9.22558Z" fill="#50C7EB"/>
<path fill-rule="evenodd" clip-rule="evenodd" d="M2.83564 20.758C2.80928 20.8462 2.79036 20.9142 2.7847 20.9528L2.77904 20.9822C2.47149 20.7985 1.73366 20.523 0.0146484 20.444C0.0165846 20.4293 0.0183718 20.4164 0.0222442 20.4018C0.0222442 20.4018 0.0505419 20.3062 0.0977546 20.1445C0.899773 20.1556 2.10168 20.2621 2.83579 20.7582L2.83564 20.758Z" fill="#252667"/>
<path fill-rule="evenodd" clip-rule="evenodd" d="M2.46558 7.77344C2.0636 7.94062 1.37865 8.29892 1.37865 8.64605C1.37865 8.64605 0.882395 12.1439 2.46931 12.1604H2.47124C2.10143 10.8763 2.13718 9.40657 2.42596 7.94976C2.43728 7.88915 2.45054 7.83028 2.46558 7.77344Z" fill="#20B4E8"/>
<path fill-rule="evenodd" clip-rule="evenodd" d="M1.30713 10.0117C1.33349 10.9945 1.56002 12.1519 2.46942 12.161H2.47136C2.31096 11.6044 2.22606 11.0111 2.20536 10.3993C1.82989 10.2946 1.53545 10.1569 1.30713 10.0117Z" fill="#243E8F"/>
<path fill-rule="evenodd" clip-rule="evenodd" d="M2.69229 7.80494C2.69229 7.80494 2.64329 4.83985 5.07169 3.50976C5.07169 3.50976 6.58696 3.55935 6.43787 2.49013C6.28685 1.4209 4.7056 2.35963 4.6566 2.87046C4.69816 3.08912 0.778912 6.10381 2.49227 8.46802L2.69229 7.8048V7.80494Z" fill="#1D2949"/>
<path fill-rule="evenodd" clip-rule="evenodd" d="M3.78076 18.9689C3.79014 19.0369 3.80146 19.1049 3.81472 19.1746C5.06206 19.6724 6.64509 19.801 6.64509 19.801C6.81116 22.3784 9.00006 22.125 9.00006 22.125V21.9908C6.60369 21.9266 6.78673 19.5603 6.78673 19.5603C5.07144 19.5126 3.78076 18.9688 3.78076 18.9688V18.9689Z" fill="#252667"/>
<path fill-rule="evenodd" clip-rule="evenodd" d="M3.83545 19.2891C4.34675 22.0906 5.88287 26.0533 9.00009 26.0018C12.1155 26.0533 13.6515 22.0906 14.1647 19.2891C13.6591 20.4831 12.0098 23.7385 9.00009 23.7661C5.9904 23.7385 4.3393 20.4831 3.83545 19.2891Z" fill="#9596CA"/>
<path fill-rule="evenodd" clip-rule="evenodd" d="M9.00002 17.8906C10.053 17.8906 10.9058 18.721 10.9058 19.746C10.9058 20.771 10.0528 21.5997 9.00002 21.5997C7.94719 21.5997 7.09424 20.7693 7.09424 19.746C7.09424 18.7228 7.94719 17.8906 9.00002 17.8906Z" fill="#243E8F"/>
<path fill-rule="evenodd" clip-rule="evenodd" d="M9.00042 17.8906C9.92129 17.8906 10.6892 18.5263 10.8666 19.3731C10.6892 20.2182 9.92129 20.8556 9.00042 20.8556C8.07956 20.8556 7.30971 20.2182 7.13232 19.3731C7.30971 18.5262 8.07956 17.8906 9.00042 17.8906Z" fill="#1897D4"/>
<path fill-rule="evenodd" clip-rule="evenodd" d="M6.04499 8.75781C6.50357 8.75781 6.8771 9.12162 6.8771 9.56793V10.9605C6.8771 11.407 6.50342 11.7706 6.04499 11.7706C5.58836 11.7706 5.21289 11.4068 5.21289 10.9605V9.56793C5.21289 9.12147 5.58836 8.75781 6.04499 8.75781Z" fill="white"/>
<path fill-rule="evenodd" clip-rule="evenodd" d="M6.79821 9.22558C6.84915 9.33027 6.87745 9.44598 6.87745 9.56908V10.9617C6.87745 11.4081 6.50377 11.7718 6.04534 11.7718C5.9189 11.7718 5.80005 11.7442 5.69251 11.6946C5.64158 11.5899 5.61328 11.4742 5.61328 11.3511V9.95855C5.61328 9.5121 5.98696 9.14844 6.44538 9.14844C6.57183 9.14844 6.69068 9.17599 6.79821 9.22558Z" fill="#50C7EB"/>
<path fill-rule="evenodd" clip-rule="evenodd" d="M7.01904 4.87545C7.31334 5.49272 7.76819 6.11911 8.41725 6.18349H9.58148C10.2325 6.11926 10.6872 5.49272 10.9816 4.87545C10.1306 4.65317 9.3834 4.5724 9.00033 4.54297C8.61534 4.5724 7.87006 4.65317 7.01904 4.87545Z" fill="#243E8F"/>
</svg>
