<svg width="41" height="41" viewBox="0 0 41 41" fill="none" xmlns="http://www.w3.org/2000/svg">
<rect x="0.0976562" y="0.157227" width="40" height="40" rx="20" fill="#0E78F9"/>
<path d="M23.6802 11.5538L14.6502 14.5538C8.58016 16.5838 8.58016 19.8938 14.6502 21.9138L17.3302 22.8038L18.2202 25.4838C20.2402 31.5538 23.5602 31.5538 25.5802 25.4838L28.5902 16.4638C29.9302 12.4138 27.7302 10.2038 23.6802 11.5538ZM24.0002 16.9338L20.2002 20.7538C20.0502 20.9038 19.8602 20.9738 19.6702 20.9738C19.4802 20.9738 19.2902 20.9038 19.1402 20.7538C18.8502 20.4638 18.8502 19.9838 19.1402 19.6938L22.9402 15.8738C23.2302 15.5838 23.7102 15.5838 24.0002 15.8738C24.2902 16.1638 24.2902 16.6438 24.0002 16.9338Z" fill="white"/>
</svg>
