<svg width="16" height="17" viewBox="0 0 16 17" fill="none" xmlns="http://www.w3.org/2000/svg">
<path fill-rule="evenodd" clip-rule="evenodd" d="M2.26389 5.22147C2.6083 5.19851 2.90612 5.4591 2.92908 5.80351L3.31236 11.5528C3.38724 12.676 3.4406 13.4575 3.55774 14.0455C3.67137 14.6159 3.82998 14.9178 4.05782 15.131C4.28566 15.3441 4.59746 15.4823 5.17413 15.5577C5.76863 15.6355 6.55197 15.6368 7.67767 15.6368H8.32214C9.44784 15.6368 10.2312 15.6355 10.8257 15.5577C11.4024 15.4823 11.7142 15.3441 11.942 15.131C12.1698 14.9178 12.3285 14.6159 12.4421 14.0455C12.5592 13.4575 12.6126 12.676 12.6875 11.5528L13.0707 5.80351C13.0937 5.4591 13.3915 5.19851 13.7359 5.22147C14.0803 5.24443 14.3409 5.54225 14.318 5.88666L13.9318 11.6798C13.8605 12.7487 13.803 13.6122 13.668 14.2897C13.5277 14.9942 13.289 15.5825 12.796 16.0438C12.303 16.505 11.7 16.704 10.9878 16.7972C10.3028 16.8868 9.43741 16.8868 8.36609 16.8868H7.63373C6.5624 16.8868 5.69703 16.8868 5.012 16.7972C4.29979 16.704 3.69684 16.505 3.20384 16.0438C2.71084 15.5825 2.47216 14.9942 2.33183 14.2897C2.19685 13.6122 2.1393 12.7487 2.06805 11.6798L1.68185 5.88666C1.65889 5.54225 1.91948 5.24443 2.26389 5.22147Z" fill="#8F93A3"/>
<path fill-rule="evenodd" clip-rule="evenodd" d="M6.62929 0.636751L6.59097 0.636735C6.41065 0.63662 6.25354 0.636519 6.10519 0.660209C5.51911 0.753797 5.01195 1.11934 4.73782 1.64575C4.66844 1.779 4.61885 1.92808 4.56194 2.09919L4.54984 2.13554L4.46893 2.37825C4.45311 2.42573 4.44869 2.43881 4.44486 2.44942C4.29892 2.85285 3.92057 3.12555 3.4917 3.13642C3.48042 3.1367 3.46661 3.13675 3.41657 3.13675H0.916504C0.571326 3.13675 0.291504 3.41657 0.291504 3.76175C0.291504 4.10693 0.571326 4.38675 0.916504 4.38675L3.42371 4.38675L3.43766 4.38675H12.5622L12.5761 4.38675L15.0832 4.38675C15.4284 4.38675 15.7082 4.10693 15.7082 3.76175C15.7082 3.41657 15.4284 3.13675 15.0832 3.13675H12.5832C12.5332 3.13675 12.5194 3.1367 12.5081 3.13642C12.0792 3.12555 11.7009 2.85283 11.555 2.4494C11.5511 2.43887 11.5466 2.42549 11.5309 2.37825L11.45 2.13554L11.4379 2.09917C11.381 1.92806 11.3314 1.77899 11.262 1.64575C10.9879 1.11934 10.4807 0.753797 9.89462 0.660209C9.74627 0.636519 9.58917 0.63662 9.40884 0.636735L9.37052 0.636751H6.62929ZM5.62032 2.87462C5.58759 2.96509 5.54956 3.05256 5.50663 3.13675H10.4932C10.4503 3.05257 10.4122 2.9651 10.3795 2.87464L10.3472 2.78018L10.2641 2.53082C10.1881 2.30289 10.1707 2.25641 10.1533 2.22308C10.0619 2.04761 9.89287 1.92577 9.69751 1.89457C9.66041 1.88865 9.61079 1.88675 9.37052 1.88675H6.62929C6.38903 1.88675 6.33941 1.88865 6.3023 1.89457C6.10694 1.92577 5.93789 2.04761 5.84651 2.22308C5.82916 2.25641 5.81167 2.3029 5.73569 2.53082L5.65252 2.78033C5.64 2.8179 5.63025 2.84715 5.62032 2.87462Z" fill="#8F93A3"/>
</svg>
