<svg width="18" height="19" viewBox="0 0 18 19" fill="none" xmlns="http://www.w3.org/2000/svg">
<path fill-rule="evenodd" clip-rule="evenodd" d="M8.95202 0.802735L10.2498 0.802735C10.595 0.802735 10.8748 1.08256 10.8748 1.42773C10.8748 1.77291 10.595 2.05273 10.2498 2.05273H8.99984C7.01798 2.05273 5.59447 2.05406 4.51115 2.19971C3.44582 2.34294 2.80355 2.61535 2.32883 3.09006C1.85412 3.56478 1.58171 4.20705 1.43848 5.27238C1.29283 6.3557 1.2915 7.77921 1.2915 9.76107C1.2915 11.7429 1.29283 13.1664 1.43848 14.2498C1.58171 15.3151 1.85412 15.9574 2.32883 16.4321C2.80355 16.9068 3.44582 17.1792 4.51115 17.3224C5.59447 17.4681 7.01798 17.4694 8.99984 17.4694C10.9817 17.4694 12.4052 17.4681 13.4885 17.3224C14.5539 17.1792 15.1961 16.9068 15.6708 16.4321C16.1456 15.9574 16.418 15.3151 16.5612 14.2498C16.7068 13.1664 16.7082 11.7429 16.7082 9.76107V8.51107C16.7082 8.16589 16.988 7.88607 17.3332 7.88607C17.6783 7.88607 17.9582 8.16589 17.9582 8.51107V9.80888C17.9582 11.7325 17.9582 13.2401 17.8 14.4163C17.6382 15.6203 17.3004 16.5703 16.5547 17.316C15.809 18.0616 14.859 18.3994 13.6551 18.5613C12.4788 18.7194 10.9713 18.7194 9.04765 18.7194H8.95203C7.02836 18.7194 5.52083 18.7194 4.34459 18.5613C3.14065 18.3994 2.19063 18.0616 1.44495 17.316C0.699276 16.5703 0.361492 15.6203 0.199626 14.4163C0.0414849 13.2401 0.0414934 11.7325 0.0415041 9.80888V9.71325C0.0414934 7.78959 0.0414849 6.28206 0.199626 5.10582C0.361493 3.90188 0.699276 2.95186 1.44495 2.20618C2.19063 1.46051 3.14065 1.12272 4.34459 0.960857C5.52083 0.802715 7.02836 0.802724 8.95202 0.802735ZM12.9753 1.65766C14.1152 0.517759 15.9633 0.517759 17.1032 1.65766C18.2431 2.79757 18.2431 4.64572 17.1032 5.78563L11.5632 11.3257C11.2538 11.6352 11.0599 11.829 10.8437 11.9977C10.5889 12.1964 10.3133 12.3667 10.0216 12.5057C9.77401 12.6237 9.51396 12.7104 9.09883 12.8488L6.67839 13.6556C6.23152 13.8045 5.73884 13.6882 5.40576 13.3551C5.07269 13.0221 4.95638 12.5294 5.10534 12.0825L5.91214 9.66209C6.05049 9.24695 6.13716 8.98689 6.25517 8.73928C6.39416 8.44763 6.56451 8.172 6.76321 7.91725C6.93191 7.70096 7.12575 7.50714 7.43521 7.19773L12.9753 1.65766ZM16.2194 2.54155C15.5676 1.8898 14.5109 1.8898 13.8592 2.54155L13.5453 2.8554C13.5642 2.93528 13.5907 3.03046 13.6275 3.13662C13.747 3.48084 13.9729 3.93416 14.3998 4.36106C14.8267 4.78796 15.2801 5.01395 15.6243 5.13338C15.7304 5.17021 15.8256 5.19667 15.9055 5.21559L16.2194 4.90174C16.8711 4.24999 16.8711 3.1933 16.2194 2.54155ZM14.9208 6.20031C14.4908 6.0154 13.99 5.71895 13.516 5.24495C13.042 4.77094 12.7455 4.27009 12.5606 3.84011L8.34776 8.05295C8.00067 8.40004 7.86454 8.5377 7.74885 8.68603C7.60599 8.86918 7.48351 9.06736 7.38357 9.27705C7.30264 9.44687 7.2404 9.63018 7.08517 10.0959L6.72526 11.1756L7.58531 12.0356L8.66505 11.6757C9.13073 11.5205 9.31404 11.4583 9.48385 11.3773C9.69354 11.2774 9.89172 11.1549 10.0749 11.0121C10.2232 10.8964 10.3609 10.7602 10.708 10.4131L14.9208 6.20031Z" fill="#8F93A3"/>
</svg>
