<svg width="20" height="21" viewBox="0 0 20 21" fill="none" xmlns="http://www.w3.org/2000/svg">
<path fill-rule="evenodd" clip-rule="evenodd" d="M8.26495 3.78757C7.55211 4.33145 6.72331 5.15837 5.56023 6.32146C4.39714 7.48454 3.57022 8.31334 3.02634 9.02618C2.49346 9.72461 2.2915 10.2378 2.2915 10.7611C2.2915 11.2844 2.49346 11.7975 3.02634 12.496C3.57022 13.2088 4.39714 14.0376 5.56023 15.2007C6.72331 16.3638 7.55211 17.1907 8.26495 17.7346C8.96338 18.2674 9.47655 18.4694 9.99984 18.4694C10.5231 18.4694 11.0363 18.2674 11.7347 17.7346C12.4476 17.1907 13.2764 16.3638 14.4394 15.2007C15.6025 14.0376 16.4295 13.2088 16.9733 12.496C17.5062 11.7975 17.7082 11.2844 17.7082 10.7611C17.7082 10.2378 17.5062 9.72461 16.9733 9.02618C16.4295 8.31334 15.6025 7.48454 14.4395 6.32146C13.2764 5.15837 12.4476 4.33145 11.7347 3.78757C11.0363 3.25469 10.5231 3.05273 9.99984 3.05273C9.47655 3.05273 8.96338 3.25469 8.26495 3.78757ZM7.50673 2.79379C8.31634 2.17608 9.09335 1.80273 9.99984 1.80273C10.9063 1.80273 11.6833 2.17608 12.4929 2.79379C13.2804 3.39457 14.1677 4.28192 15.29 5.40425L15.3567 5.47089C16.479 6.59321 17.3663 7.48054 17.9671 8.26796C18.5848 9.07757 18.9582 9.85458 18.9582 10.7611C18.9582 11.6676 18.5848 12.4446 17.9671 13.2542C17.3663 14.0416 16.479 14.9289 15.3567 16.0512L15.29 16.1179C14.1677 17.2402 13.2804 18.1276 12.4929 18.7283C11.6833 19.3461 10.9063 19.7194 9.99984 19.7194C9.09335 19.7194 8.31634 19.3461 7.50673 18.7283C6.71931 18.1276 5.83198 17.2402 4.70966 16.1179L4.64302 16.0512C3.52069 14.9289 2.63334 14.0416 2.03256 13.2542C1.41485 12.4446 1.0415 11.6676 1.0415 10.7611C1.0415 9.85458 1.41485 9.07757 2.03256 8.26796C2.63333 7.48055 3.52067 6.59322 4.643 5.47092L4.70969 5.40423C5.83199 4.2819 6.71932 3.39456 7.50673 2.79379Z" fill="#8F93A3"/>
<path fill-rule="evenodd" clip-rule="evenodd" d="M10.655 7.83361C10.8911 7.58179 11.2866 7.56903 11.5384 7.80511L13.7606 9.88844C13.8867 10.0066 13.9582 10.1716 13.9582 10.3444C13.9582 10.5172 13.8867 10.6822 13.7606 10.8004L11.5384 12.8837C11.2866 13.1198 10.8911 13.107 10.655 12.8552C10.4189 12.6034 10.4317 12.2079 10.6835 11.9718L11.7527 10.9694H8.88873C8.61057 10.9694 8.18525 11.0525 7.84951 11.2791C7.54718 11.4832 7.2915 11.8156 7.2915 12.4277C7.2915 12.7729 7.01168 13.0527 6.6665 13.0527C6.32133 13.0527 6.0415 12.7729 6.0415 12.4277C6.0415 11.3732 6.52657 10.664 7.15017 10.243C7.74035 9.84467 8.42614 9.7194 8.88873 9.7194H11.7527L10.6835 8.71703C10.4317 8.48095 10.4189 8.08543 10.655 7.83361Z" fill="#8F93A3"/>
</svg>
