<svg width="18" height="19" viewBox="0 0 18 19" fill="none" xmlns="http://www.w3.org/2000/svg">
<path d="M12.3584 8.11968C12.6025 7.8756 12.6025 7.47987 12.3584 7.23579C12.1144 6.99172 11.7186 6.99172 11.4746 7.23579L7.74984 10.9605L6.52511 9.73579C6.28103 9.49172 5.88531 9.49172 5.64123 9.73579C5.39715 9.97987 5.39715 10.3756 5.64123 10.6197L7.3079 12.2863C7.55197 12.5304 7.9477 12.5304 8.19178 12.2863L12.3584 8.11968Z" fill="#8F93A3"/>
<path fill-rule="evenodd" clip-rule="evenodd" d="M9.04765 0.802735H8.95202C7.02837 0.802724 5.52083 0.802716 4.34459 0.960857C3.14065 1.12272 2.19063 1.46051 1.44495 2.20618C0.699277 2.95186 0.361493 3.90188 0.199626 5.10582C0.0414856 6.28206 0.0414937 7.78959 0.0415041 9.71324V9.80888C0.0414937 11.7325 0.0414856 13.2401 0.199626 14.4163C0.361493 15.6203 0.699277 16.5703 1.44495 17.316C2.19063 18.0616 3.14065 18.3994 4.34459 18.5613C5.52083 18.7194 7.02836 18.7194 8.95203 18.7194H9.04765C10.9713 18.7194 12.4788 18.7194 13.6551 18.5613C14.859 18.3994 15.8091 18.0616 16.5547 17.316C17.3004 16.5703 17.6382 15.6203 17.8 14.4163C17.9582 13.2401 17.9582 11.7325 17.9582 9.80888V9.71326C17.9582 7.78959 17.9582 6.28206 17.8 5.10582C17.6382 3.90188 17.3004 2.95186 16.5547 2.20618C15.8091 1.46051 14.859 1.12272 13.6551 0.960857C12.4788 0.802716 10.9713 0.802724 9.04765 0.802735ZM2.32883 3.09007C2.80355 2.61535 3.44582 2.34294 4.51115 2.19971C5.59447 2.05406 7.01798 2.05274 8.99984 2.05274C10.9817 2.05274 12.4052 2.05406 13.4885 2.19971C14.5539 2.34294 15.1961 2.61535 15.6708 3.09007C16.1456 3.56478 16.418 4.20705 16.5612 5.27238C16.7068 6.3557 16.7082 7.77921 16.7082 9.76107C16.7082 11.7429 16.7068 13.1664 16.5612 14.2498C16.418 15.3151 16.1456 15.9574 15.6708 16.4321C15.1961 16.9068 14.5539 17.1792 13.4885 17.3224C12.4052 17.4681 10.9817 17.4694 8.99984 17.4694C7.01798 17.4694 5.59447 17.4681 4.51115 17.3224C3.44582 17.1792 2.80355 16.9068 2.32883 16.4321C1.85412 15.9574 1.58171 15.3151 1.43848 14.2498C1.29283 13.1664 1.2915 11.7429 1.2915 9.76107C1.2915 7.77921 1.29283 6.3557 1.43848 5.27238C1.58171 4.20705 1.85412 3.56478 2.32883 3.09007Z" fill="#8F93A3"/>
</svg>
