<svg width="36" height="37" viewBox="0 0 36 37" fill="none" xmlns="http://www.w3.org/2000/svg">
<rect y="0.761719" width="36" height="36" rx="4" fill="#292B2C"/>
<path fill-rule="evenodd" clip-rule="evenodd" d="M13.965 11.5977H14.0343C14.6333 11.5976 15.1328 11.5976 15.5293 11.6509C15.9479 11.7072 16.3257 11.831 16.6294 12.1346C16.933 12.4383 17.0568 12.8161 17.1131 13.2347C17.1664 13.6312 17.1664 14.1307 17.1663 14.7297V22.799C17.1664 23.398 17.1664 23.8975 17.1131 24.294C17.0568 24.7125 16.933 25.0904 16.6294 25.394C16.3257 25.6977 15.9479 25.8214 15.5293 25.8777C15.1328 25.931 14.6333 25.931 14.0343 25.931H13.965C13.366 25.931 12.8665 25.931 12.47 25.8777C12.0515 25.8214 11.6736 25.6977 11.37 25.394C11.0663 25.0904 10.9426 24.7125 10.8863 24.294C10.833 23.8975 10.833 23.398 10.833 22.799V14.7297C10.833 14.1307 10.833 13.6312 10.8863 13.2347C10.9426 12.8161 11.0663 12.4383 11.37 12.1346C11.6736 11.831 12.0515 11.7072 12.47 11.6509C12.8665 11.5976 13.366 11.5976 13.965 11.5977ZM12.6033 12.642C12.2956 12.6834 12.164 12.7549 12.0771 12.8417C11.9902 12.9286 11.9187 13.0603 11.8774 13.3679C11.8341 13.6899 11.833 14.1216 11.833 14.7643V22.7643C11.833 23.407 11.8341 23.8387 11.8774 24.1607C11.9187 24.4684 11.9902 24.6 12.0771 24.6869C12.164 24.7738 12.2956 24.8453 12.6033 24.8866C12.9253 24.9299 13.357 24.931 13.9997 24.931C14.6424 24.931 15.0741 24.9299 15.3961 24.8866C15.7037 24.8453 15.8354 24.7738 15.9223 24.6869C16.0091 24.6 16.0806 24.4684 16.122 24.1607C16.1653 23.8387 16.1663 23.407 16.1663 22.7643V14.7643C16.1663 14.1217 16.1653 13.6899 16.122 13.3679C16.0806 13.0603 16.0091 12.9286 15.9223 12.8417C15.8354 12.7549 15.7037 12.6834 15.3961 12.642C15.0741 12.5987 14.6424 12.5977 13.9997 12.5977C13.357 12.5977 12.9253 12.5987 12.6033 12.642ZM21.965 11.5977H22.0343C22.6333 11.5976 23.1328 11.5976 23.5293 11.6509C23.9479 11.7072 24.3257 11.831 24.6294 12.1346C24.933 12.4383 25.0568 12.8161 25.1131 13.2347C25.1664 13.6312 25.1664 14.1307 25.1663 14.7297V22.799C25.1664 23.398 25.1664 23.8975 25.1131 24.294C25.0568 24.7125 24.933 25.0904 24.6294 25.394C24.3257 25.6977 23.9479 25.8214 23.5293 25.8777C23.1328 25.931 22.6333 25.931 22.0343 25.931H21.965C21.366 25.931 20.8665 25.931 20.47 25.8777C20.0515 25.8214 19.6736 25.6977 19.37 25.394C19.0663 25.0904 18.9426 24.7125 18.8863 24.294C18.833 23.8975 18.833 23.398 18.833 22.799V14.7297C18.833 14.1307 18.833 13.6312 18.8863 13.2347C18.9426 12.8161 19.0663 12.4383 19.37 12.1346C19.6736 11.831 20.0515 11.7072 20.47 11.6509C20.8665 11.5976 21.366 11.5976 21.965 11.5977ZM20.6033 12.642C20.2956 12.6834 20.164 12.7549 20.0771 12.8417C19.9902 12.9286 19.9187 13.0603 19.8774 13.3679C19.8341 13.6899 19.833 14.1217 19.833 14.7643V22.7643C19.833 23.407 19.8341 23.8387 19.8774 24.1607C19.9187 24.4684 19.9902 24.6 20.0771 24.6869C20.164 24.7738 20.2956 24.8453 20.6033 24.8866C20.9253 24.9299 21.357 24.931 21.9997 24.931C22.6424 24.931 23.0741 24.9299 23.3961 24.8866C23.7037 24.8453 23.8354 24.7738 23.9223 24.6869C24.0091 24.6 24.0806 24.4684 24.122 24.1607C24.1653 23.8387 24.1663 23.407 24.1663 22.7643V14.7643C24.1663 14.1217 24.1653 13.6899 24.122 13.3679C24.0806 13.0603 24.0091 12.9286 23.9223 12.8417C23.8354 12.7549 23.7037 12.6834 23.3961 12.642C23.0741 12.5987 22.6424 12.5977 21.9997 12.5977C21.357 12.5977 20.9253 12.5987 20.6033 12.642Z" fill="#8F93A3"/>
</svg>
