<svg width="36" height="37" viewBox="0 0 36 37" fill="none" xmlns="http://www.w3.org/2000/svg">
<path d="M14.1675 9.3125H21.8325V16.9775H14.1675V9.3125Z" fill="#FCF7ED"/>
<path d="M17.9998 18.3125C17.7523 18.3125 17.5498 18.11 17.5498 17.8625V11.6375C17.5498 11.39 17.7523 11.1875 17.9998 11.1875C18.2473 11.1875 18.4498 11.39 18.4498 11.6375V17.855C18.4498 18.11 18.2473 18.3125 17.9998 18.3125Z" fill="#F7E5C1"/>
<path d="M20.115 18.3109C19.8675 18.3109 19.665 18.1084 19.665 17.8609V11.9734C19.665 11.7259 19.8675 11.5234 20.115 11.5234C20.3625 11.5234 20.565 11.7259 20.565 11.9734V17.8609C20.565 18.1084 20.3625 18.3109 20.115 18.3109Z" fill="#F7E5C1"/>
<path d="M15.8851 18.3109C15.6376 18.3109 15.4351 18.1084 15.4351 17.8609V11.9734C15.4351 11.7259 15.6376 11.5234 15.8851 11.5234C16.1326 11.5234 16.3351 11.7259 16.3351 11.9734V17.8609C16.3426 18.1084 16.1401 18.3109 15.8851 18.3109Z" fill="#F7E5C1"/>
<path d="M30.4647 21.2825C30.4647 25.6475 28.2222 29.495 24.8247 31.7225C22.8747 33.005 20.5422 33.3275 18.0372 33.335C11.1372 33.3575 6.07468 28.2725 6.04468 21.365C6.03718 19.7525 6.20218 18.7625 6.75718 17.3375C6.83218 17.1425 7.01968 17.0225 7.22218 17.0225L7.99468 16.4375H29.1447C29.3472 16.4375 29.5347 16.565 29.6097 16.7525C30.1647 18.1625 30.4647 19.685 30.4647 21.2825Z" fill="#FFD764"/>
<path d="M18.7874 33.74C18.8099 33.74 18.8324 33.74 18.8549 33.74C21.5474 33.56 24.0074 32.525 25.9649 30.8975C24.1199 31.985 21.9749 32.615 19.6799 32.6225C13.2224 32.645 7.93494 27.8 7.25244 21.5225C7.24494 21.3425 7.23744 21.155 7.23744 20.9675C7.22994 19.3775 7.49994 17.8475 8.00994 16.4375C7.82994 16.4375 7.05744 16.4375 6.86244 16.4375C6.65994 16.4375 6.47244 16.565 6.39744 16.7525C5.84244 18.1775 5.54244 19.7225 5.54994 21.3425C5.57244 28.25 11.1449 33.785 18.0374 33.7625C18.2924 33.7625 18.5399 33.755 18.7874 33.74Z" fill="#FFAA4D"/>
<path d="M23.0174 19.1077C23.1299 18.9802 23.1824 18.7477 23.3099 18.6427C24.3299 17.8477 25.7249 17.9752 26.6249 19.0252C27.6299 20.2027 27.6149 22.0927 26.5949 23.2477C25.5674 24.4027 23.1374 23.0302 23.1374 23.0302C23.1374 23.0302 21.9974 20.2627 23.0174 19.1077Z" fill="#FCF7ED"/>
<path d="M26.8274 22.9409C26.7524 23.0534 26.6774 23.1584 26.5874 23.2559C25.5674 24.4109 23.9174 24.3959 22.9124 23.2184C21.9074 22.0409 21.9224 20.1509 22.9424 18.9959C23.1074 18.8084 23.2949 18.6509 23.4899 18.5234C22.7099 19.6859 22.7774 21.3584 23.6999 22.4384C24.5399 23.4134 25.8299 23.5859 26.8274 22.9409Z" fill="#F7E5C1"/>
<path d="M24.7274 22.1653C24.7274 22.1653 24.6449 22.1278 24.4949 21.9553C24.0749 21.4678 23.9174 20.7778 24.3374 20.2978C24.4274 20.1928 24.4874 20.0203 24.5849 19.9753C24.6449 19.9528 24.6974 19.9453 24.7574 19.9453C24.9224 19.9453 25.0874 20.0353 25.2374 20.2078C25.5599 20.5828 25.6274 21.1828 25.4549 21.6628C25.4024 21.8053 25.1924 21.8878 25.0949 22.0003C24.9599 22.1578 24.7274 22.1653 24.7274 22.1653Z" fill="#8C818F"/>
<path d="M25.4848 21.6041C25.4323 21.7691 25.3498 21.9266 25.2373 22.0541C25.0948 22.2116 24.9298 22.3016 24.7723 22.3016C24.6073 22.3016 24.4348 22.2116 24.2923 22.0391C23.8723 21.5516 23.8798 20.6741 24.3073 20.1941C24.3973 20.0891 24.5023 20.0141 24.5998 19.9766C24.4498 20.4416 24.5323 21.0116 24.8398 21.3716C24.9823 21.5441 25.1473 21.6341 25.3198 21.6341C25.3648 21.6341 25.4248 21.6191 25.4848 21.6041Z" fill="#766D78"/>
<path d="M13.9876 19.1077C14.1001 18.9802 14.1526 18.7477 14.2801 18.6427C15.3001 17.8477 16.6951 17.9752 17.5951 19.0252C18.6001 20.2027 18.5851 22.0927 17.5651 23.2477C16.5451 24.4027 14.1076 23.0302 14.1076 23.0302C14.1076 23.0302 12.9601 20.2627 13.9876 19.1077Z" fill="#FCF7ED"/>
<path d="M17.7977 22.9409C17.7227 23.0534 17.6477 23.1584 17.5577 23.2559C16.5377 24.4109 14.8877 24.3959 13.8827 23.2184C12.8777 22.0409 12.8927 20.1509 13.9127 18.9959C14.0777 18.8084 14.2652 18.6509 14.4602 18.5234C13.6802 19.6859 13.7477 21.3584 14.6702 22.4384C15.5102 23.4134 16.8002 23.5859 17.7977 22.9409Z" fill="#F7E5C1"/>
<path d="M15.6976 22.1653C15.6976 22.1653 15.6151 22.1278 15.4651 21.9553C15.0451 21.4678 14.8876 20.7778 15.3076 20.2978C15.3976 20.1928 15.4576 20.0203 15.5551 19.9753C15.6151 19.9528 15.6676 19.9453 15.7276 19.9453C15.8926 19.9453 16.0576 20.0353 16.2076 20.2078C16.5301 20.5828 16.5976 21.1828 16.4251 21.6628C16.3726 21.8053 16.1626 21.8878 16.0651 22.0003C15.9301 22.1578 15.6976 22.1653 15.6976 22.1653Z" fill="#8C818F"/>
<path d="M16.4477 21.6041C16.3952 21.7691 16.3127 21.9266 16.2002 22.0541C16.0577 22.2116 15.8927 22.3016 15.7352 22.3016C15.5702 22.3016 15.3977 22.2116 15.2552 22.0391C14.8352 21.5516 14.8427 20.6741 15.2702 20.1941C15.3602 20.0891 15.4652 20.0141 15.5627 19.9766C15.4127 20.4416 15.4952 21.0116 15.8027 21.3716C15.9452 21.5441 16.1102 21.6341 16.2827 21.6341C16.3352 21.6341 16.3952 21.6191 16.4477 21.6041Z" fill="#766D78"/>
<path d="M25.635 7.62422C25.5975 7.60172 25.5675 7.55672 25.5525 7.51172C25.275 6.43172 24.2175 5.62922 22.9575 5.62922C22.7175 5.62922 22.4925 5.65922 22.275 5.71172C22.215 5.72672 22.1475 5.70422 22.11 5.65922C21.6225 5.14172 20.9025 4.81172 20.0925 4.81172C20.0775 4.81172 20.0625 4.81172 20.0475 4.81172C19.7025 4.18922 18.96 3.76172 18.09 3.76172C17.2575 3.76172 16.5375 4.15172 16.1775 4.72922C16.14 4.78172 16.08 4.81172 16.02 4.81172C15.9825 4.81172 15.945 4.81172 15.9075 4.81172C15.105 4.81172 14.3775 5.14172 13.89 5.65922C13.845 5.71172 13.785 5.72672 13.725 5.71172C13.5075 5.65922 13.275 5.62922 13.0425 5.62922C11.7825 5.62922 10.7325 6.43172 10.455 7.51172C10.44 7.55672 10.41 7.60172 10.3725 7.62422C10.125 7.77422 9.91496 7.96172 9.74246 8.18672C9.44996 8.57672 9.55496 9.04922 9.55496 9.57422C9.55496 10.7667 10.185 11.3967 11.34 11.5317C11.385 11.5392 11.4225 11.5542 11.4525 11.5842C11.9025 12.0642 12.54 12.3642 13.245 12.3642C13.5825 12.3642 13.8975 12.2967 14.19 12.1767C14.25 12.1542 14.3175 12.1617 14.37 12.2067C14.8875 12.6417 15.6 12.9117 16.3875 12.9117C16.95 12.9117 17.475 12.7767 17.9175 12.5367C17.97 12.5067 18.0375 12.5067 18.09 12.5367C18.5325 12.7767 19.0575 12.9117 19.62 12.9117C20.4075 12.9117 21.12 12.6417 21.6375 12.2067C21.69 12.1617 21.7575 12.1542 21.8175 12.1767C22.11 12.2967 22.4325 12.3642 22.7625 12.3642C23.4675 12.3642 24.1125 12.0642 24.555 11.5842C24.585 11.5542 24.6225 11.5317 24.6675 11.5317C25.65 11.4192 26.445 11.0592 26.6625 10.1142C26.7 9.94922 26.7225 9.76922 26.7225 9.58922C26.7225 8.75672 26.2875 8.03672 25.635 7.62422Z" fill="#FFAA4D"/>
<path d="M26.6772 10.0327C26.4897 11.0152 25.6722 11.7802 24.6672 11.8927C24.6222 11.9002 24.5847 11.9152 24.5547 11.9452C24.1047 12.4252 23.4672 12.7252 22.7622 12.7252C22.4247 12.7252 22.1097 12.6577 21.8172 12.5377C21.7572 12.5152 21.6897 12.5227 21.6372 12.5677C21.1197 13.0027 20.4072 13.2727 19.6197 13.2727C19.0572 13.2727 18.5322 13.1377 18.0897 12.8977C18.0372 12.8677 17.9697 12.8677 17.9172 12.8977C17.4747 13.1377 16.9497 13.2727 16.3872 13.2727C15.5997 13.2727 14.8872 13.0027 14.3697 12.5677C14.3172 12.5227 14.2497 12.5152 14.1897 12.5377C13.8972 12.6577 13.5747 12.7252 13.2447 12.7252C12.5397 12.7252 11.8947 12.4252 11.4522 11.9452C11.4222 11.9152 11.3847 11.8927 11.3397 11.8927C10.1847 11.7577 9.28467 10.7827 9.28467 9.59016C9.28467 9.02016 9.47217 8.50266 9.80967 8.09766C9.77967 8.24766 9.76467 8.40516 9.76467 8.56266C9.76467 9.75516 10.6647 10.7302 11.8197 10.8652C11.8647 10.8727 11.9022 10.8877 11.9322 10.9177C12.3822 11.3977 13.0197 11.6977 13.7247 11.6977C14.0622 11.6977 14.3772 11.6302 14.6697 11.5102C14.7297 11.4877 14.7972 11.4952 14.8497 11.5402C15.3672 11.9752 16.0797 12.2452 16.8672 12.2452C17.4297 12.2452 17.9547 12.1102 18.3972 11.8702C18.4497 11.8402 18.5172 11.8402 18.5697 11.8702C19.0122 12.1102 19.5372 12.2452 20.0997 12.2452C20.8872 12.2452 21.5997 11.9752 22.1172 11.5402C22.1697 11.4952 22.2372 11.4877 22.2972 11.5102C22.5897 11.6302 22.9122 11.6977 23.2422 11.6977C23.9472 11.6977 24.5922 11.3977 25.0347 10.9177C25.0647 10.8877 25.1022 10.8652 25.1472 10.8652C25.7622 10.7902 26.3022 10.4827 26.6772 10.0327Z" fill="#E69642"/>
<path d="M21.8023 30.8728L18.3298 30.8803C17.5048 30.8803 17.0323 30.3553 17.2273 29.5528L17.1523 28.6453C17.4898 28.5028 17.8648 27.8203 18.2548 27.8203C19.0348 27.8203 19.7398 28.1353 20.2198 28.6303C20.6998 28.1353 21.4048 27.8203 22.1848 27.8203C22.5973 27.8203 22.9798 28.5103 23.3248 28.6603L23.5423 29.5603C23.5798 29.7253 23.5873 29.8903 23.5648 30.0403C23.4973 30.6478 22.4548 30.8728 21.8023 30.8728Z" fill="#E27C48"/>
<path d="M23.3473 28.6628C23.0023 28.5128 22.6123 28.4228 22.2073 28.4228C21.4873 28.4228 20.8348 28.6853 20.3623 29.1203C20.2948 29.1803 20.1898 29.1803 20.1223 29.1203C19.6498 28.6928 18.9973 28.4228 18.2773 28.4228C17.8798 28.4228 17.5048 28.5053 17.1748 28.6478L17.8123 27.0578C17.9623 26.4353 18.2248 26.0378 18.7048 25.6628C18.9373 25.4828 19.0423 25.2128 19.3198 25.1153C19.6573 24.9953 20.0323 24.9353 20.4148 24.9578C21.6523 25.0253 22.6873 25.9253 22.9798 27.1253L23.3473 28.6628Z" fill="#B36D3C"/>
<path d="M23.5875 30.0466C23.4974 30.6466 22.9874 31.1341 22.3274 31.1341H18.1649C17.3399 31.1341 16.7399 30.3616 16.9349 29.5666L17.1599 28.6516L17.8799 27.9766C17.8799 27.9766 18.3074 28.4266 18.3299 28.4266L18.0749 29.4541C17.9999 29.7616 18.2324 30.0541 18.5474 30.0541H23.5875V30.0466Z" fill="#D1653F"/>
<path d="M19.3122 25.1133C19.0272 25.6233 18.6822 27.0108 18.5997 27.3333L18.3297 28.4283C18.3072 28.4283 18.2847 28.4283 18.2622 28.4283C17.8647 28.4283 17.4897 28.5108 17.1597 28.6533L17.5422 27.0783C17.6922 26.4558 18.0522 25.9233 18.5247 25.5483C18.7647 25.3608 19.0272 25.2108 19.3122 25.1133Z" fill="#995E34"/>
<path d="M10.8824 21.0788C10.8824 21.2813 10.8374 21.4763 10.7624 21.6563C10.5374 22.1888 9.3899 22.1588 9.3899 22.1588C9.3899 22.1588 8.2124 21.9337 8.2124 21.1162C8.2124 20.4562 8.8949 19.1137 9.2774 18.5063C9.3449 18.3937 9.5099 18.3937 9.5849 18.5063C9.6299 18.5738 9.6374 18.3563 9.6899 18.4463C10.1249 19.1663 10.8824 20.4938 10.8824 21.0788Z" fill="#86BFF2"/>
<path d="M10.7476 21.7011C10.5151 22.2111 9.9976 22.5711 9.3976 22.5711C8.5726 22.5711 7.9126 21.9036 7.9126 21.0861C7.9126 20.4261 8.8651 18.8286 9.2476 18.2211C9.3151 18.1086 9.4876 18.1086 9.5551 18.2211C9.6001 18.2886 9.6451 18.3711 9.6976 18.4611C9.3376 19.1136 9.0001 19.8486 9.0001 20.2461C9.0001 21.0711 9.6676 21.7311 10.4851 21.7311C10.5676 21.7236 10.6576 21.7161 10.7476 21.7011Z" fill="#62A4FB"/>
</svg>
