<svg width="36" height="37" viewBox="0 0 36 37" fill="none" xmlns="http://www.w3.org/2000/svg">
<path d="M5.76849 23.1137C6.24849 23.1137 6.63849 22.7237 6.63849 22.2437V18.9737L8.28849 15.6812C8.50599 15.2537 8.32599 14.7287 7.89849 14.5112C7.47099 14.3012 6.94599 14.4737 6.72849 14.9012L5.76849 16.8212L4.80849 14.9012C4.59099 14.4737 4.07349 14.3012 3.63849 14.5112C3.21099 14.7287 3.03849 15.2462 3.24849 15.6812L4.89849 18.9737V22.2437C4.89849 22.7237 5.28849 23.1137 5.76849 23.1137Z" fill="#FFDB66"/>
<path d="M14.5209 16.1541C15.0009 16.1541 15.3909 15.7641 15.3909 15.2841C15.3909 14.8041 15.0009 14.4141 14.5209 14.4141H11.0409C10.5609 14.4141 10.1709 14.8041 10.1709 15.2841V22.2366C10.1709 22.7166 10.5609 23.1066 11.0409 23.1066H14.5209C15.0009 23.1066 15.3909 22.7166 15.3909 22.2366C15.3909 21.7566 15.0009 21.3666 14.5209 21.3666H11.9109V19.6266H12.7809C13.2609 19.6266 13.6509 19.2366 13.6509 18.7566C13.6509 18.2766 13.2609 17.8866 12.7809 17.8866H11.9109V16.1466H14.5209V16.1541Z" fill="#FFDB66"/>
<path d="M18.8709 17.8941V17.0241C18.8709 16.5441 19.2609 16.1541 19.7409 16.1541C20.2209 16.1541 20.6109 16.5441 20.6109 17.0241V17.8941H18.8709ZM19.7409 14.4141C19.0659 14.4141 18.4509 14.6766 18.0009 15.0891C17.4609 15.5616 17.1309 16.2516 17.1309 17.0166V22.2366C17.1309 22.7241 17.5134 23.1066 18.0009 23.1066C18.4884 23.1066 18.8709 22.7241 18.8709 22.2366V19.6266H20.6109V22.2366C20.6109 22.7241 20.9934 23.1066 21.4809 23.1066C21.9684 23.1066 22.3509 22.7241 22.3509 22.2366V17.0166C22.3509 15.5841 21.1809 14.4141 19.7409 14.4141Z" fill="#FFDB66"/>
<path d="M28.433 23.1144C28.913 23.1144 29.303 22.7244 29.303 22.2444V15.2919C29.303 14.8119 28.913 14.4219 28.433 14.4219C27.953 14.4219 27.563 14.8119 27.563 15.2919V17.9019H25.823V15.2919C25.823 14.8119 25.433 14.4219 24.953 14.4219C24.473 14.4219 24.083 14.8119 24.083 15.2919V22.2444C24.083 22.7244 24.473 23.1144 24.953 23.1144C25.433 23.1144 25.823 22.7244 25.823 22.2444V19.6344H27.563V22.2444C27.563 22.7244 27.953 23.1144 28.433 23.1144Z" fill="#FFBC36"/>
<path d="M31.9657 24.8438C23.8882 24.8438 12.0757 24.8438 4.0282 24.8438C3.5482 24.8438 3.1582 25.2337 3.1582 25.7137C3.1582 26.1937 3.5482 26.5837 4.0282 26.5837H5.9782C6.6982 26.5837 7.3207 26.9737 7.6432 27.6262C7.9657 28.2862 7.8982 29.0212 7.4557 29.6062C7.2157 29.9212 7.2232 30.3562 7.4632 30.6637C7.7032 30.9787 8.1307 31.0838 8.4907 30.9263C9.9832 30.3113 13.6207 29.0662 15.0007 29.6587C16.6657 30.3487 17.1307 32.8537 17.1382 32.8762C17.2132 33.2887 17.5732 33.5887 17.9932 33.5887C18.4132 33.5887 18.7732 33.2887 18.8482 32.8762C18.8557 32.8537 19.3207 30.3487 20.9857 29.6587C22.2907 29.1187 25.6732 30.1463 27.4882 30.9263C27.8482 31.0763 28.2682 30.9712 28.5082 30.6637C28.7482 30.3562 28.7632 29.9287 28.5307 29.6062C28.2682 29.2462 28.1257 28.8487 28.1257 28.4662C28.1257 27.5587 28.8457 26.5687 30.0007 26.5687H31.9507C32.4307 26.5687 32.8207 26.1787 32.8207 25.6987C32.8357 25.2337 32.4532 24.8438 31.9657 24.8438Z" fill="#FF73A5"/>
<path d="M31.9657 14.4141C31.4857 14.4141 31.0957 14.8041 31.0957 15.2841V18.7641C31.0957 19.2441 31.4857 19.6341 31.9657 19.6341C32.4457 19.6341 32.8357 19.2441 32.8357 18.7641V15.2841C32.8357 14.8041 32.4532 14.4141 31.9657 14.4141Z" fill="#FFBC36"/>
<path d="M31.9657 23.115C32.4462 23.115 32.8357 22.7255 32.8357 22.245C32.8357 21.7645 32.4462 21.375 31.9657 21.375C31.4852 21.375 31.0957 21.7645 31.0957 22.245C31.0957 22.7255 31.4852 23.115 31.9657 23.115Z" fill="#FFBC36"/>
<path d="M4.03553 12.6819H31.973C32.453 12.6819 32.843 12.2919 32.843 11.8119C32.843 11.3319 32.453 10.9419 31.973 10.9419H30.023C28.8605 10.9419 28.148 9.95937 28.148 9.04437C28.148 8.66187 28.2905 8.26438 28.553 7.90438C28.7855 7.58938 28.778 7.15437 28.5305 6.84687C28.283 6.53937 27.8705 6.43438 27.5105 6.58438C25.688 7.36438 22.313 8.39187 21.0005 7.85187C19.3355 7.16187 18.8705 4.65687 18.863 4.63437C18.788 4.22187 18.428 3.92188 18.008 3.92188C17.588 3.92188 17.228 4.22187 17.153 4.63437C17.138 4.66437 16.673 7.16937 15.0005 7.85938C13.658 8.42938 9.85553 7.17687 8.49803 6.59188C8.13803 6.44187 7.71803 6.54688 7.47053 6.86188C7.23053 7.17688 7.22303 7.61188 7.46303 7.91937C7.90553 8.50437 7.97303 9.24688 7.65053 9.89937C7.32803 10.5519 6.70553 10.9419 5.98553 10.9419H4.03553C3.55553 10.9419 3.16553 11.3319 3.16553 11.8119C3.16553 12.2919 3.54803 12.6819 4.03553 12.6819Z" fill="#FF73A5"/>
<path d="M31.9655 24.8438C27.9305 24.8438 22.9355 24.8438 18.0005 24.8438V33.5962C18.4205 33.5962 18.7805 33.2963 18.8555 32.8838C18.863 32.8613 19.328 30.3563 20.993 29.6663C22.298 29.1263 25.6805 30.1537 27.4955 30.9337C27.8555 31.0837 28.2755 30.9788 28.5155 30.6713C28.7555 30.3638 28.7705 29.9363 28.538 29.6138C28.2755 29.2538 28.133 28.8563 28.133 28.4738C28.133 27.5663 28.853 26.5762 30.008 26.5762H31.958C32.438 26.5762 32.828 26.1862 32.828 25.7062C32.828 25.2262 32.453 24.8438 31.9655 24.8438Z" fill="#FF4081"/>
<path d="M20.6105 17.8941H18.8705V17.0241C18.8705 16.5441 19.2605 16.1541 19.7405 16.1541C20.2205 16.1541 20.6105 16.5441 20.6105 17.0241V17.8941ZM19.7405 14.4141C19.0655 14.4141 18.4505 14.6766 18.0005 15.0891V23.1141C18.488 23.1141 18.8705 22.7316 18.8705 22.2441V19.6341H20.6105V22.2441C20.6105 22.7316 20.993 23.1141 21.4805 23.1141C21.968 23.1141 22.3505 22.7316 22.3505 22.2441V17.0241C22.3505 15.5841 21.1805 14.4141 19.7405 14.4141Z" fill="#FFBC36"/>
<path d="M31.9655 12.6819C32.4455 12.6819 32.8355 12.2919 32.8355 11.8119C32.8355 11.3319 32.4455 10.9419 31.9655 10.9419H30.0155C28.853 10.9419 28.1405 9.95937 28.1405 9.04437C28.1405 8.66187 28.283 8.26438 28.5455 7.90438C28.778 7.58938 28.7705 7.15437 28.523 6.84687C28.2755 6.53937 27.863 6.43438 27.503 6.58438C25.6805 7.36438 22.3055 8.39187 20.993 7.85187C19.328 7.16187 18.863 4.65687 18.8555 4.63437C18.7805 4.22187 18.4205 3.92188 18.0005 3.92188V12.6744C22.943 12.6819 27.9455 12.6819 31.9655 12.6819Z" fill="#FF4081"/>
</svg>
