<svg width="36" height="37" viewBox="0 0 36 37" fill="none" xmlns="http://www.w3.org/2000/svg">
<path d="M28.9197 21.5887V32.8612C28.9197 33.4462 28.4472 33.9187 27.8622 33.9187C27.2772 33.9187 26.8047 33.4462 26.8047 32.8612V21.5887C26.8047 21.0037 27.2772 20.5312 27.8622 20.5312C28.4472 20.5387 28.9197 21.0112 28.9197 21.5887Z" fill="#E4CFA2"/>
<path d="M16.9419 15.955V4.6825C16.9419 4.0975 17.4144 3.625 17.9994 3.625C18.5844 3.625 19.0569 4.0975 19.0569 4.6825V15.955C19.0569 16.54 18.5844 17.0125 17.9994 17.0125C17.4144 17.0125 16.9419 16.54 16.9419 15.955Z" fill="#E4CFA2"/>
<path d="M9.19459 21.5887V32.8612C9.19459 33.4462 8.72209 33.9187 8.13709 33.9187C7.55209 33.9187 7.07959 33.4462 7.07959 32.8612V21.5887C7.07959 21.0037 7.55209 20.5312 8.13709 20.5312C8.72209 20.5312 9.19459 21.0112 9.19459 21.5887Z" fill="#E4CFA2"/>
<path d="M18.9744 27.7445V32.9495C18.9744 33.4895 18.5394 33.9245 17.9994 33.9245C17.4594 33.9245 17.0244 33.4895 17.0244 32.9495V27.7445C17.0244 27.2045 17.4594 26.7695 17.9994 26.7695C18.5394 26.7695 18.9744 27.2045 18.9744 27.7445Z" fill="#E4CFA2"/>
<path d="M8.13711 10.7491C7.59711 10.7491 7.16211 10.3141 7.16211 9.77406V4.57656C7.16211 4.03656 7.59711 3.60156 8.13711 3.60156C8.67711 3.60156 9.11211 4.03656 9.11211 4.57656V9.78156C9.11211 10.3141 8.67711 10.7491 8.13711 10.7491Z" fill="#E4CFA2"/>
<path d="M26.8872 9.77406V4.57656C26.8872 4.03656 27.3222 3.60156 27.8622 3.60156C28.4022 3.60156 28.8372 4.03656 28.8372 4.57656V9.78156C28.8372 10.3216 28.4022 10.7566 27.8622 10.7566C27.3222 10.7566 26.8872 10.3141 26.8872 9.77406Z" fill="#E4CFA2"/>
<path d="M23.2797 24.3542C23.2797 27.2717 20.9172 29.6342 17.9997 29.6342C15.0822 29.6342 12.7197 27.2717 12.7197 24.3542C12.7197 21.4367 15.0822 19.0742 17.9997 19.0742C20.9172 19.0742 23.2797 21.4367 23.2797 24.3542Z" fill="#F7B115"/>
<path d="M8.13742 18.4467C5.21992 18.4467 2.85742 16.0842 2.85742 13.1667C2.85742 10.2492 5.21992 7.88672 8.13742 7.88672C11.0549 7.88672 13.4174 10.2492 13.4174 13.1667C13.4174 16.0842 11.0549 18.4467 8.13742 18.4467Z" fill="#FFCF11"/>
<path d="M22.582 13.1667C22.582 10.2492 24.9445 7.88672 27.862 7.88672C30.7795 7.88672 33.142 10.2492 33.142 13.1667C33.142 16.0842 30.7795 18.4467 27.862 18.4467C24.9445 18.4467 22.582 16.0842 22.582 13.1667Z" fill="#FFCF11"/>
</svg>
