<svg width="36" height="37" viewBox="0 0 36 37" fill="none" xmlns="http://www.w3.org/2000/svg">
<path d="M32.835 18.5447L28.6875 15.4322C28.1025 14.9972 27.81 14.2772 27.9075 13.5572L28.6425 8.42719C28.665 8.24719 28.515 8.09719 28.335 8.11969L23.205 8.85469C22.485 8.95969 21.765 8.65969 21.33 8.07469L18.2175 3.92719C18.1125 3.78469 17.895 3.78469 17.7825 3.92719L14.67 8.07469C14.235 8.65969 13.515 8.95219 12.795 8.85469L7.66498 8.11969C7.48498 8.09719 7.33498 8.24719 7.35748 8.42719L8.09248 13.5572C8.19748 14.2772 7.89748 14.9972 7.31248 15.4322L3.16498 18.5447C3.02248 18.6497 3.02248 18.8672 3.16498 18.9797L7.31248 22.0922C7.89748 22.5272 8.18998 23.2472 8.09248 23.9672L7.35748 29.0972C7.33498 29.2772 7.48498 29.4272 7.66498 29.4047L12.795 28.6697C13.515 28.5647 14.235 28.8647 14.67 29.4497L17.7825 33.5972C17.8875 33.7397 18.105 33.7397 18.2175 33.5972L21.33 29.4497C21.765 28.8647 22.485 28.5722 23.205 28.6697L28.335 29.4047C28.515 29.4272 28.665 29.2772 28.6425 29.0972L27.9075 23.9672C27.8025 23.2472 28.1025 22.5272 28.6875 22.0922L32.835 18.9797C32.9775 18.8672 32.9775 18.6572 32.835 18.5447Z" fill="#FEDF30"/>
<path d="M16.7702 16.3125C15.4202 16.3125 14.3252 17.4075 14.3252 18.7575C14.3252 20.1075 15.4202 21.2025 16.7702 21.2025C18.1202 21.2025 19.2152 20.1075 19.2152 18.7575C19.2152 17.4075 18.1202 16.3125 16.7702 16.3125ZM16.7702 20.3025C15.9227 20.3025 15.2252 19.6125 15.2252 18.7575C15.2252 17.91 15.9152 17.2125 16.7702 17.2125C17.6177 17.2125 18.3152 17.9025 18.3152 18.7575C18.3152 19.605 17.6177 20.3025 16.7702 20.3025Z" fill="#444444"/>
<path d="M27.068 20.2812C26.813 20.2812 26.603 20.4912 26.603 20.7462C26.603 21.0012 26.813 21.2112 27.068 21.2112C27.323 21.2112 27.533 21.0012 27.533 20.7462C27.533 20.4912 27.323 20.2812 27.068 20.2812Z" fill="#444444"/>
<path d="M27.0677 19.9542C27.3152 19.9542 27.5177 19.7517 27.5177 19.5042V16.7742C27.5177 16.5267 27.3152 16.3242 27.0677 16.3242C26.8202 16.3242 26.6177 16.5267 26.6177 16.7742V19.5042C26.6177 19.7517 26.8202 19.9542 27.0677 19.9542Z" fill="#444444"/>
<path d="M12.8702 16.3298C12.6227 16.2848 12.3902 16.4423 12.3377 16.6823L11.8427 19.1873L11.0552 16.6298C10.9802 16.3898 10.7327 16.2548 10.4927 16.3298C10.3277 16.3823 10.2152 16.5173 10.1852 16.6673L9.40523 19.1798L8.91023 16.6673C8.86523 16.4198 8.62523 16.2623 8.37773 16.3148C8.13023 16.3673 7.97273 16.5998 8.02523 16.8473L8.80523 20.7698C8.81273 20.7923 8.81273 20.8148 8.82023 20.8298C8.89523 21.0473 9.09773 21.1898 9.33023 21.1898C9.56273 21.1898 9.76523 21.0398 9.84023 20.8223C9.84023 20.8148 9.84023 20.8148 9.84773 20.8073L10.6277 18.2798L11.4077 20.8073C11.4077 20.8148 11.4152 20.8223 11.4152 20.8223C11.4902 21.0398 11.6927 21.1823 11.9252 21.1823C12.1577 21.1823 12.3602 21.0323 12.4352 20.8148C12.4427 20.7998 12.4502 20.7773 12.4502 20.7548L13.2302 16.8398C13.2752 16.6148 13.1177 16.3823 12.8702 16.3298Z" fill="#444444"/>
<path d="M25.1627 16.3298C24.9152 16.2848 24.6827 16.4423 24.6302 16.6823L24.1352 19.1873L23.3477 16.6298C23.2727 16.3898 23.0252 16.2548 22.7852 16.3298C22.6202 16.3823 22.5077 16.5173 22.4777 16.6673L21.6977 19.1798L21.2027 16.6673C21.1577 16.4198 20.9177 16.2623 20.6702 16.3148C20.4227 16.3598 20.2652 16.5998 20.3177 16.8473L21.0977 20.7698C21.1052 20.7923 21.1052 20.8148 21.1127 20.8298C21.1877 21.0473 21.3902 21.1898 21.6227 21.1898C21.6227 21.1898 21.6227 21.1898 21.6302 21.1898C21.8627 21.1898 22.0652 21.0398 22.1402 20.8223C22.1402 20.8148 22.1402 20.8148 22.1477 20.8073L22.9277 18.2798L23.7077 20.8073C23.7077 20.8148 23.7152 20.8223 23.7152 20.8223C23.7902 21.0398 23.9927 21.1823 24.2252 21.1823C24.4577 21.1823 24.6602 21.0323 24.7352 20.8148C24.7427 20.7998 24.7502 20.7773 24.7502 20.7548L25.5302 16.8398C25.5677 16.6148 25.4027 16.3823 25.1627 16.3298Z" fill="#444444"/>
<path d="M11.4976 4.74539L12.6976 4.25039C12.8551 4.18289 13.0276 4.29539 13.0426 4.46039L13.1851 6.51539C13.2001 6.75539 12.9076 6.87539 12.7501 6.69539L11.4001 5.14289C11.2951 5.01539 11.3401 4.81289 11.4976 4.74539Z" fill="#FE950D"/>
<path d="M3.50261 13.4501L3.99761 12.2501C4.06511 12.0926 4.26011 12.0476 4.38761 12.1601L5.94011 13.5101C6.12761 13.6601 6.00011 13.9601 5.76761 13.9376L3.71261 13.7951C3.54011 13.7801 3.43511 13.6076 3.50261 13.4501Z" fill="#FE950D"/>
<path d="M24.5022 4.74539L23.3022 4.25039C23.1447 4.18289 22.9722 4.29539 22.9572 4.46039L22.8147 6.51539C22.7922 6.75539 23.0847 6.87539 23.2422 6.69539L24.5922 5.14289C24.7047 5.01539 24.6597 4.81289 24.5022 4.74539Z" fill="#FE950D"/>
<path d="M32.4973 13.4501L32.0023 12.2501C31.9348 12.0926 31.7398 12.0476 31.6123 12.1601L30.0598 13.5101C29.8798 13.6676 29.9998 13.9601 30.2398 13.9451L32.2948 13.8026C32.4598 13.7801 32.5648 13.6076 32.4973 13.4501Z" fill="#FE950D"/>
<path d="M24.503 32.771L23.303 33.266C23.1455 33.3335 22.973 33.221 22.958 33.056L22.8155 31.001C22.8005 30.761 23.093 30.641 23.2505 30.821L24.6005 32.3735C24.7055 32.501 24.6605 32.7035 24.503 32.771Z" fill="#FE950D"/>
<path d="M32.4978 24.0698L32.0028 25.2698C31.9353 25.4273 31.7403 25.4723 31.6128 25.3598L30.0603 24.0098C29.8803 23.8523 30.0003 23.5598 30.2403 23.5748L32.2953 23.7173C32.4603 23.7398 32.5653 23.9123 32.4978 24.0698Z" fill="#FE950D"/>
<path d="M11.4981 32.771L12.6981 33.266C12.8556 33.3335 13.0281 33.221 13.0431 33.056L13.1856 31.001C13.2006 30.761 12.9081 30.641 12.7506 30.821L11.4006 32.3735C11.2956 32.501 11.3406 32.7035 11.4981 32.771Z" fill="#FE950D"/>
<path d="M3.50261 24.0746L3.99761 25.2746C4.06511 25.4321 4.26011 25.4771 4.38761 25.3646L5.94011 24.0146C6.12761 23.8646 6.00011 23.5646 5.76761 23.5871L3.71261 23.7296C3.54011 23.7446 3.43511 23.9171 3.50261 24.0746Z" fill="#FE950D"/>
<path d="M32.8355 18.5444L28.688 15.4319C28.103 14.9969 27.8105 14.2769 27.908 13.5569L28.643 8.42693C28.6655 8.24693 28.5155 8.09693 28.3355 8.11943L27.2405 8.27693C27.263 8.32193 27.2705 8.37443 27.263 8.42693L26.528 13.5569C26.423 14.2769 26.723 14.9969 27.308 15.4319L31.4555 18.5444C31.598 18.6494 31.598 18.8669 31.4555 18.9794L27.308 22.0919C26.723 22.5269 26.4305 23.2469 26.528 23.9669L27.263 29.0969C27.2705 29.1494 27.263 29.2019 27.2405 29.2469L28.3355 29.4044C28.5155 29.4269 28.6655 29.2769 28.643 29.0969L27.908 23.9669C27.803 23.2469 28.103 22.5269 28.688 22.0919L32.8355 18.9794C32.978 18.8669 32.978 18.6569 32.8355 18.5444Z" fill="#FEC526"/>
<path d="M13.0502 4.46505C13.0352 4.29255 12.8627 4.18755 12.7052 4.25505L11.6777 4.68255L11.7377 5.53005L12.7577 6.70755C12.9152 6.88755 13.2077 6.76755 13.1927 6.52755L13.0502 4.46505Z" fill="#FA6F0C"/>
<path d="M5.94795 13.5023L4.39545 12.1523C4.26795 12.0398 4.06545 12.0848 4.00545 12.2423L3.77295 12.8048L4.56795 13.4948C4.68045 13.5923 4.67295 13.7498 4.59045 13.8473L5.76795 13.9298C6.00045 13.9598 6.12795 13.6598 5.94795 13.5023Z" fill="#FA6F0C"/>
<path d="M24.5032 4.7493L23.3032 4.2543C23.1457 4.1868 22.9732 4.2993 22.9582 4.4643L22.9432 4.6743L23.1232 4.7493C23.2807 4.8168 23.3257 5.0118 23.2132 5.1393L22.8757 5.5218L22.8082 6.5193C22.7932 6.7593 23.0857 6.8793 23.2432 6.6993L24.5932 5.1468C24.7057 5.0193 24.6607 4.8168 24.5032 4.7493Z" fill="#FA6F0C"/>
<path d="M32.4982 13.4501L32.0032 12.2501C31.9357 12.0926 31.7407 12.0476 31.6132 12.1601L30.8257 12.8426L31.1182 13.5551C31.1782 13.7051 31.0807 13.8776 30.9232 13.9001L32.2957 13.8026C32.4607 13.7801 32.5657 13.6076 32.4982 13.4501Z" fill="#FA6F0C"/>
<path d="M24.5932 32.3774L23.2432 30.8249C23.0857 30.6449 22.7932 30.7649 22.8082 31.0049L22.8757 32.0024L23.2057 32.3849C23.3182 32.5124 23.2732 32.7149 23.1157 32.7749L22.9357 32.8499L22.9507 33.0599C22.9657 33.2324 23.1382 33.3374 23.2957 33.2699L24.4957 32.7749C24.6607 32.7074 24.7057 32.5049 24.5932 32.3774Z" fill="#FA6F0C"/>
<path d="M32.2882 23.7303L30.9307 23.6328C31.0807 23.6628 31.1782 23.8278 31.1182 23.9703L30.8257 24.6828L31.6132 25.3653C31.7407 25.4778 31.9432 25.4328 32.0032 25.2753L32.4982 24.0753C32.5657 23.9178 32.4607 23.7453 32.2882 23.7303Z" fill="#FA6F0C"/>
<path d="M12.7577 30.8247L11.7377 32.0022L11.6777 32.8497L12.7052 33.2772C12.8627 33.3447 13.0352 33.2322 13.0502 33.0672L13.1927 31.0122C13.2077 30.7647 12.9152 30.6447 12.7577 30.8247Z" fill="#FA6F0C"/>
<path d="M5.76795 23.5871L4.59045 23.6696C4.67295 23.7671 4.68045 23.9246 4.56795 24.0221L3.77295 24.7121L4.00545 25.2746C4.07295 25.4321 4.26795 25.4771 4.39545 25.3646L5.94795 24.0146C6.12795 23.8646 6.00045 23.5646 5.76795 23.5871Z" fill="#FA6F0C"/>
</svg>
