<svg width="36" height="37" viewBox="0 0 36 37" fill="none" xmlns="http://www.w3.org/2000/svg">
<path d="M6.68262 27.2602L9.72012 24.2227L10.4326 24.9352L7.39512 27.9727L6.68262 27.2602Z" fill="#F9C48C"/>
<path d="M7.04248 22.0562L24.2475 4.84375L31.8375 12.4338L14.6325 29.6462L7.04248 22.0562Z" fill="#CE4545"/>
<path d="M7.18457 33.3384L12.7496 27.7734L13.4621 28.4859L7.89707 34.0509L7.18457 33.3384Z" fill="#C14242"/>
<path d="M22.2297 19.5208C22.0947 19.5208 21.9672 19.4683 21.8697 19.3708L19.3347 16.8358C19.1397 16.6408 19.1397 16.3183 19.3347 16.1233L22.3722 13.0858C22.5672 12.8908 22.8897 12.8908 23.0847 13.0858L25.2597 15.2608L27.5847 12.9358L25.7697 11.1208L24.9672 11.9233L26.1297 13.0858L25.4172 13.7983L23.8947 12.2758C23.6997 12.0808 23.6997 11.7583 23.8947 11.5633L25.4172 10.0408C25.6122 9.84578 25.9347 9.84578 26.1297 10.0408L28.6647 12.5758C28.8597 12.7708 28.8597 13.0933 28.6647 13.2883L25.6272 16.3258C25.4322 16.5208 25.1097 16.5208 24.9147 16.3258L22.7397 14.1508L20.4147 16.4758L22.2297 18.2908L23.0322 17.4883L21.8697 16.3258L22.5822 15.6133L24.1047 17.1358C24.2997 17.3308 24.2997 17.6533 24.1047 17.8483L22.5822 19.3708C22.4922 19.4683 22.3647 19.5208 22.2297 19.5208Z" fill="#EAA05C"/>
<path d="M14.6321 27.1184C14.4971 27.1184 14.3696 27.0659 14.2721 26.9684L11.7371 24.4334C11.5421 24.2384 11.5421 23.9159 11.7371 23.7209L14.7746 20.6834C14.9696 20.4884 15.2921 20.4884 15.4871 20.6834L17.6621 22.8584L19.9871 20.5334L18.1721 18.7184L17.3696 19.5209L18.5321 20.6834L17.8196 21.3959L16.2971 19.8734C16.1021 19.6784 16.1021 19.3559 16.2971 19.1609L17.8196 17.6384C18.0146 17.4434 18.3371 17.4434 18.5321 17.6384L21.0671 20.1734C21.2621 20.3684 21.2621 20.6909 21.0671 20.8859L18.0296 23.9234C17.8346 24.1184 17.5121 24.1184 17.3171 23.9234L15.1421 21.7484L12.8171 24.0734L14.6321 25.8884L15.4346 25.0859L14.2721 23.9234L14.9846 23.2109L16.5071 24.7334C16.7021 24.9284 16.7021 25.2509 16.5071 25.4459L14.9846 26.9684C14.9021 27.0659 14.7671 27.1184 14.6321 27.1184Z" fill="#EAA05C"/>
<path d="M5.66992 24.9469L6.38242 24.2344L7.39492 25.2469L6.68242 25.9594L5.66992 24.9469Z" fill="#F9AD5A"/>
<path d="M8.70752 28.4859L9.42002 27.7734L10.4325 28.7859L9.72002 29.4984L8.70752 28.4859Z" fill="#F9AD5A"/>
<path d="M4.65723 29.2884L6.17223 27.7734L6.88473 28.4859L5.36973 30.0009L4.65723 29.2884Z" fill="#F9AD5A"/>
<path d="M7.54492 28.6328H8.55742V31.1678H7.54492V28.6328Z" fill="#F9AD5A"/>
<path d="M4.00488 26.1094H6.02988V27.1219H4.00488V26.1094Z" fill="#F9AD5A"/>
<path d="M12.2549 10.058L18.8324 3.48047L19.5449 4.19297L12.9674 10.7705L12.2549 10.058Z" fill="#DFDFDF"/>
<path d="M9.71973 12.5853L11.2347 11.0703L11.9472 11.7828L10.4322 13.2978L9.71973 12.5853Z" fill="#DFDFDF"/>
<path d="M5.16699 11.0603L9.71949 6.50781L10.432 7.22031L5.87949 11.7728L5.16699 11.0603Z" fill="#DFDFDF"/>
<path d="M3.13477 13.0906L4.14727 12.0781L4.85977 12.7906L3.84727 13.8031L3.13477 13.0906Z" fill="#DFDFDF"/>
<path d="M23.6396 24.9884L31.2296 17.3984L31.9421 18.1109L24.3521 25.7009L23.6396 24.9884Z" fill="#DFDFDF"/>
<path d="M21.1045 27.5189L22.6195 26.0039L23.332 26.7164L21.817 28.2314L21.1045 27.5189Z" fill="#DFDFDF"/>
<path d="M24.9072 30.8078L28.9572 26.7578L29.6697 27.4703L25.6197 31.5203L24.9072 30.8078Z" fill="#DFDFDF"/>
<path d="M22.8745 32.8328L23.887 31.8203L24.5995 32.5328L23.587 33.5453L22.8745 32.8328Z" fill="#DFDFDF"/>
<path d="M4.65723 19.1625L7.69473 16.125L8.40723 16.8375L5.36973 19.875L4.65723 19.1625Z" fill="#DFDFDF"/>
<path d="M22.7324 3.83203L32.8574 13.957V3.83203H22.7324Z" fill="#F9AD5A"/>
</svg>
