<svg width="36" height="37" viewBox="0 0 36 37" fill="none" xmlns="http://www.w3.org/2000/svg">
<path d="M10.5748 27.6125H18.5248C21.6748 27.6125 24.2998 24.9875 24.2998 21.8375C24.2998 18.6875 21.6748 16.0625 18.5248 16.0625H15.0748C12.8998 16.0625 11.0998 14.2625 11.0998 12.0875C11.0998 9.9125 12.8998 8.1125 15.0748 8.1125H24.4498L25.0498 6.3125H15.0748C11.9248 6.3125 9.2998 8.8625 9.2998 12.0875C9.2998 15.3125 11.8498 17.8625 15.0748 17.8625H18.5248C20.6998 17.8625 22.4998 19.6625 22.4998 21.8375C22.4998 24.0125 20.6998 25.8125 18.5248 25.8125H11.3248L10.5748 27.6125Z" fill="#FFF5BD"/>
<path d="M31.5753 16.3625C31.5753 16.4375 31.5753 16.5125 31.5753 16.6625C31.5753 16.6625 31.2753 17.0375 30.9753 17.2625C30.3753 17.7875 29.4003 18.0125 28.2003 18.0125C26.3253 18.0125 25.0503 17.4125 25.0503 16.3625C25.0503 15.8375 25.2753 15.5375 25.8753 15.0875C26.4753 14.7875 27.3003 14.5625 28.2003 14.5625C30.0753 14.5625 31.5753 15.3875 31.5753 16.3625Z" fill="#94F283"/>
<path d="M31.5002 16.6602C31.2752 17.5602 29.8502 18.2352 28.2002 18.2352C26.3252 18.2352 24.8252 17.4102 24.8252 16.4352C24.8252 15.9102 25.2002 15.4602 25.8002 15.1602C25.8002 15.2352 25.8002 15.3102 25.8002 15.4602C25.8002 16.4352 27.3002 17.2602 29.1752 17.2602C30.0752 17.1852 30.9002 16.9602 31.5002 16.6602Z" fill="#79E87C"/>
<path d="M32.9997 8.56172C32.9997 11.8617 30.7497 14.2617 29.3247 15.5367C29.3247 15.5367 28.4997 15.9867 28.3497 16.0617C28.2747 16.1367 28.1997 16.1367 28.0497 16.0617C27.2997 15.5367 23.6997 12.9117 23.6997 8.56172C23.6997 6.83672 24.2997 5.41172 25.6497 4.51172C25.9497 4.28672 26.6247 3.98672 26.6247 3.98672C27.0747 3.83672 27.5997 3.76172 28.1247 3.76172C30.8997 3.76172 32.9997 5.93672 32.9997 8.56172Z" fill="#FFE177"/>
<path d="M29.3999 15.5383C28.9499 15.9133 28.5749 16.2133 28.3499 16.2883C28.2749 16.3633 28.1999 16.3633 28.0499 16.2883C27.2999 15.7633 23.3999 12.9133 23.3999 8.56328C23.3999 6.46328 24.7499 4.66328 26.6999 3.98828C25.5749 4.88828 24.7499 6.23828 24.7499 7.81328C24.8249 12.0883 28.4249 14.8633 29.3999 15.5383Z" fill="#FFD15B"/>
<path d="M28.2002 10.7383C29.4428 10.7383 30.4502 9.73092 30.4502 8.48828C30.4502 7.24564 29.4428 6.23828 28.2002 6.23828C26.9576 6.23828 25.9502 7.24564 25.9502 8.48828C25.9502 9.73092 26.9576 10.7383 28.2002 10.7383Z" fill="white"/>
<path d="M11.1752 31.9609C11.1752 32.0359 11.1752 32.1109 11.1002 32.1859C11.1002 32.1859 10.8002 32.5609 10.5002 32.7859C9.9002 33.3109 8.9252 33.5359 7.7252 33.5359C5.8502 33.5359 4.5752 32.9359 4.5752 31.8859C4.5752 31.3609 4.8002 31.0609 5.4002 30.6109C6.0002 30.3109 6.8252 30.0859 7.7252 30.0859C9.6752 30.1609 11.1752 30.9109 11.1752 31.9609Z" fill="#94F283"/>
<path d="M11.0998 32.1875C10.8748 33.0875 9.4498 33.7625 7.7998 33.7625C5.9248 33.7625 4.4248 32.9375 4.4248 31.9625C4.4248 31.4375 4.7998 30.9875 5.3998 30.6875C5.3998 30.7625 5.3248 30.8375 5.3248 30.9125C5.3248 31.8875 6.8248 32.7125 8.6998 32.7125C9.6748 32.7125 10.4998 32.5625 11.0998 32.1875Z" fill="#79E87C"/>
<path d="M12.5998 24.1594C12.5998 27.4594 10.3498 29.8594 8.9248 31.1344C8.9248 31.1344 8.0998 31.5844 7.9498 31.6594C7.8748 31.7344 7.7998 31.7344 7.6498 31.6594C6.8998 31.1344 3.2998 28.5094 3.2998 24.1594C3.2998 22.4344 3.8998 21.0094 5.2498 20.1094C5.5498 19.8844 6.2248 19.5844 6.2248 19.5844C6.6748 19.4344 7.1998 19.3594 7.7248 19.3594C10.4248 19.3594 12.5998 21.4594 12.5998 24.1594Z" fill="#FF7B7B"/>
<path d="M8.925 31.1359C8.475 31.5109 8.1 31.8109 7.875 31.8859C7.8 31.9609 7.725 31.9609 7.575 31.8859C6.9 31.3609 3 28.5109 3 24.1609C3 22.0609 4.425 20.2609 6.3 19.5859C5.1 20.4859 4.35 21.8359 4.35 23.4109C4.35 27.6109 8.025 30.4609 8.925 31.1359Z" fill="#F96E6E"/>
<path d="M7.7998 26.3359C9.04244 26.3359 10.0498 25.3286 10.0498 24.0859C10.0498 22.8433 9.04244 21.8359 7.7998 21.8359C6.55716 21.8359 5.5498 22.8433 5.5498 24.0859C5.5498 25.3286 6.55716 26.3359 7.7998 26.3359Z" fill="white"/>
<path d="M20.4752 16.9625C20.4752 14.7875 18.6752 13.0625 16.5752 13.0625C15.7502 13.0625 15.0002 13.3625 14.3252 13.7375C14.3252 13.7375 13.8002 14.3375 13.5002 14.6375C13.0502 15.3125 12.8252 16.0625 12.8252 16.9625C12.8252 19.1375 14.3252 20.6375 16.5002 20.6375C17.4002 20.6375 18.2252 20.4875 18.9002 19.9625C19.2752 19.6625 19.8752 19.0625 19.8752 19.0625C20.2502 18.4625 20.4752 17.7125 20.4752 16.9625Z" fill="#60B7FF"/>
<path d="M19.8746 19.0625C19.1996 20.1875 17.9246 20.9375 16.4996 20.9375C14.3246 20.9375 12.5996 19.1375 12.5996 17.0375C12.5996 15.6875 13.2746 14.4875 14.2496 13.8125C13.8746 14.4125 13.6496 15.1625 13.6496 15.9125C13.6496 18.0875 15.3746 19.8125 17.5496 19.8125C18.4496 19.7375 19.2746 19.5125 19.8746 19.0625Z" fill="#26A6FE"/>
<path d="M17.7751 18.7598L14.6251 17.1098C14.5501 17.0348 14.5501 16.9598 14.6251 16.8848L17.7751 15.2348C17.9251 15.1598 18.1501 15.3098 18.0751 15.4598L17.6251 16.8848C17.6251 16.9598 17.6251 16.9598 17.6251 17.0348L18.0751 18.4598C18.1501 18.6848 17.9251 18.8348 17.7751 18.7598Z" fill="white"/>
</svg>
