<svg width="36" height="37" viewBox="0 0 36 37" fill="none" xmlns="http://www.w3.org/2000/svg">
<path d="M14.0109 27.0625C14.0109 27.0625 8.48336 28.4725 6.97586 29.89C6.77336 30.145 6.60086 30.415 6.44336 30.7075H29.5659C29.4384 30.4225 29.2809 30.145 29.0934 29.89C27.5859 28.48 22.0584 27.0625 22.0584 27.0625H14.0109Z" fill="#4482C3"/>
<path d="M21.5026 23.1016C21.3001 24.4441 21.4951 25.8241 22.0576 27.0616C22.0576 27.0616 21.0526 28.4716 18.0376 28.4716C15.0226 28.4716 14.0176 27.0616 14.0176 27.0616C14.5801 25.8241 14.7676 24.4441 14.5726 23.1016H21.5026Z" fill="#F9C795"/>
<path d="M12.473 19.5063V20.5338C12.4805 21.0813 12.728 21.6063 13.163 21.9513L15.9605 24.2163C16.3355 24.5163 16.8005 24.6813 17.288 24.6813H18.7955C19.2755 24.6813 19.748 24.5163 20.123 24.2163L22.8605 21.9513C23.288 21.6063 23.543 21.0888 23.5505 20.5413V19.5138C24.623 19.5513 25.523 18.7113 25.5605 17.6388C25.538 16.5813 24.6605 15.7413 23.5955 15.7638C23.588 15.7638 23.5805 15.7638 23.5805 15.7638C23.5805 15.7638 24.5855 15.2988 24.5855 12.4863C24.5855 10.1538 21.8105 9.11131 20.873 8.82631C20.753 8.79631 20.678 8.66881 20.708 8.54881C20.7155 8.51881 20.7305 8.48881 20.7455 8.46631C20.9255 8.24131 21.158 8.06881 21.428 7.95631C21.548 7.91131 21.608 7.77631 21.5555 7.65631C21.533 7.59631 21.4805 7.54381 21.413 7.52131C15.848 5.29381 13.523 9.20881 13.523 9.20881C9.50303 11.0838 12.518 15.7713 12.518 15.7713C11.438 15.7338 10.5305 16.5663 10.478 17.6463C10.5005 18.7038 11.4005 19.5438 12.473 19.5063Z" fill="#FDD7AD"/>
<path d="M24.5629 12.4755C24.5629 15.288 23.5579 15.753 23.5579 15.753H23.5279C23.5804 14.9955 23.2054 14.2755 22.5529 13.8855C18.5329 14.358 18.5329 13.413 15.5179 12.4755C12.7204 11.6055 12.4879 15.1755 12.4729 15.708C12.1579 15.198 9.73536 10.9605 13.5079 9.19798C13.5079 9.19798 15.8404 5.29048 21.3979 7.51048C21.5179 7.54798 21.5854 7.68298 21.5404 7.80298C21.5179 7.87048 21.4729 7.91548 21.4054 7.94548C21.1429 8.05798 20.9104 8.23048 20.7304 8.45548C20.6479 8.55298 20.6704 8.70298 20.7679 8.77798C20.7904 8.80048 20.8204 8.81548 20.8504 8.82298C21.7954 9.09298 24.5629 10.1355 24.5629 12.4755Z" fill="#805333"/>
<path d="M19.0057 21.6573H16.9957C16.7182 21.6573 16.4932 21.4323 16.4932 21.1548C16.4932 20.8773 16.7182 20.6523 16.9957 20.6523H19.0057C19.2832 20.6523 19.5082 20.8773 19.5082 21.1548C19.5082 21.4323 19.2832 21.6573 19.0057 21.6573Z" fill="#F09372"/>
<path d="M18.5031 23.1652H17.4981C17.2206 23.1652 16.9956 22.9402 16.9956 22.6627C16.9956 22.3852 17.2206 22.1602 17.4981 22.1602H18.5031C18.7806 22.1602 19.0056 22.3852 19.0056 22.6627C19.0056 22.9402 18.7806 23.1652 18.5031 23.1652Z" fill="#F9C795"/>
<path d="M15.9904 17.63H14.9854C14.7079 17.63 14.4829 17.405 14.4829 17.1275C14.4829 16.85 14.7079 16.625 14.9854 16.625H15.9904C16.2679 16.625 16.4929 16.85 16.4929 17.1275C16.4929 17.405 16.2679 17.63 15.9904 17.63Z" fill="#F9C795"/>
<path d="M21.0153 17.63H20.0103C19.7328 17.63 19.5078 17.405 19.5078 17.1275C19.5078 16.85 19.7328 16.625 20.0103 16.625H21.0153C21.2928 16.625 21.5178 16.85 21.5178 17.1275C21.5178 17.405 21.2928 17.63 21.0153 17.63Z" fill="#F9C795"/>
<path d="M18.5031 20.1495H17.4981C17.2206 20.1495 16.9956 19.9245 16.9956 19.647C16.9956 19.3695 17.2206 19.1445 17.4981 19.1445H18.5031C18.7806 19.1445 19.0056 19.3695 19.0056 19.647C19.0056 19.9245 18.7806 20.1495 18.5031 20.1495Z" fill="#F9C795"/>
<path d="M16.493 16.1222H14.483C14.2055 16.1222 13.9805 15.8972 13.9805 15.6197C13.9805 15.3422 14.2055 15.1172 14.483 15.1172H16.493C16.7705 15.1172 16.9955 15.3422 16.9955 15.6197C16.9955 15.8972 16.7705 16.1222 16.493 16.1222Z" fill="#805333"/>
<path d="M21.5184 16.1222H19.5084C19.2309 16.1222 19.0059 15.8972 19.0059 15.6197C19.0059 15.3422 19.2309 15.1172 19.5084 15.1172H21.5184C21.7959 15.1172 22.0209 15.3422 22.0209 15.6197C22.0209 15.8972 21.7959 16.1222 21.5184 16.1222Z" fill="#805333"/>
<path d="M28.5606 21.4455H28.5531C28.3131 21.438 28.1106 21.273 28.0731 21.033L26.9256 15.0105L26.0481 17.808C25.9656 18.0705 25.6806 18.2205 25.4181 18.138C25.1556 18.0555 25.0056 17.7705 25.0881 17.508L26.5656 12.798C26.6481 12.5355 26.9331 12.3855 27.1956 12.468C27.3756 12.5205 27.5031 12.6705 27.5406 12.8505L28.6056 18.483L29.5731 14.238C29.6181 14.0055 29.8281 13.8405 30.0681 13.848C30.3006 13.848 30.5106 14.013 30.5556 14.2455L30.9756 16.203H32.5806C32.8581 16.203 33.0831 16.428 33.0831 16.7055C33.0831 16.983 32.8581 17.208 32.5806 17.208H30.5706C30.3306 17.208 30.1281 17.043 30.0756 16.8105L30.0456 16.6755L29.0406 21.048C28.9956 21.2805 28.7931 21.4455 28.5606 21.4455Z" fill="#F3D55B"/>
<path d="M7.94297 21.4453C7.71047 21.4453 7.50797 21.2803 7.45547 21.0553L6.36797 16.3003L5.91047 17.7928C5.84297 18.0028 5.64797 18.1453 5.43047 18.1453H3.42047C3.14297 18.1453 2.91797 17.9203 2.91797 17.6428C2.91797 17.3653 3.14297 17.1403 3.42047 17.1403H5.06297L5.96297 14.2003C6.04547 13.9378 6.32297 13.7878 6.59297 13.8703C6.76547 13.9228 6.89297 14.0653 6.93797 14.2378L7.96547 18.7303L8.47547 16.5928C8.53547 16.3228 8.81297 16.1578 9.08297 16.2178C9.13547 16.2328 9.18797 16.2478 9.23297 16.2778L10.7705 17.2228C11.018 17.3578 11.108 17.6578 10.973 17.9053C10.838 18.1528 10.538 18.2428 10.2905 18.1078C10.2755 18.1003 10.253 18.0853 10.238 18.0778L9.29297 17.4928L8.44547 21.0553C8.38547 21.2878 8.18297 21.4453 7.94297 21.4453Z" fill="#F3D55B"/>
</svg>
