<svg width="36" height="37" viewBox="0 0 36 37" fill="none" xmlns="http://www.w3.org/2000/svg">
<path d="M29.3499 12.6133H25.3749C24.9249 12.6133 24.6249 12.9883 24.6249 13.3633V17.1883C24.6249 17.2633 24.6249 17.4133 24.6999 17.4883L22.9749 19.2133H22.8999H18.9249H18.8499L17.1249 17.4883C17.1999 17.4133 17.1999 17.2633 17.1999 17.1883V13.3633C17.1999 12.9133 16.8249 12.6133 16.4499 12.6133H12.4749C12.0249 12.6133 11.7249 12.9883 11.7249 13.3633V17.1883C11.7249 17.2633 11.7249 17.4133 11.7999 17.4883L10.0749 19.2133H9.9999H6.0249C5.5749 19.2133 5.2749 19.5883 5.2749 19.9633V23.7883C5.2749 24.2383 5.6499 24.5383 6.0249 24.5383H9.9999C10.4499 24.5383 10.7499 24.1633 10.7499 23.7883V19.9633C10.7499 19.8133 10.7499 19.7383 10.6749 19.6633L12.3249 18.0133H12.3999H16.3749C16.4499 18.0133 16.4499 18.0133 16.4499 18.0133L18.0999 19.6633C18.0249 19.7383 18.0249 19.8883 18.0249 20.0383V23.8633C18.0249 24.3133 18.3999 24.6133 18.7749 24.6133H22.7499C23.1999 24.6133 23.4999 24.2383 23.4999 23.8633V20.0383C23.4999 19.8883 23.4999 19.8133 23.4249 19.7383L25.0749 18.0883H25.1499H29.1249C29.5749 18.0883 29.8749 17.7133 29.8749 17.3383V13.5133C30.1749 12.9133 29.7999 12.6133 29.3499 12.6133Z" fill="url(#paint0_linear_612_171896)"/>
<path d="M15.2502 19.2891H12.5502C12.4002 19.2891 12.3252 19.3641 12.3252 19.5141V22.2141C12.3252 22.3641 12.4002 22.4391 12.5502 22.4391H15.2502C15.4002 22.4391 15.4752 22.3641 15.4752 22.2141V19.5141C15.5502 19.3641 15.4002 19.2891 15.2502 19.2891Z" fill="#146297"/>
<path d="M12.7 23.8672C12.625 23.8672 12.625 23.9422 12.625 24.0172V24.6172C12.625 24.6922 12.7 24.6922 12.7 24.6922H13.3C13.375 24.6922 13.375 24.6172 13.375 24.6172V24.0172C13.375 23.9422 13.3 23.9422 13.3 23.9422H12.7V23.8672Z" fill="#146297"/>
<path d="M10.2251 12.2406V12.6156C10.2251 12.6906 10.3001 12.8406 10.4501 12.8406H10.9001C10.9751 12.8406 11.1251 12.7656 11.1251 12.6156V12.2406C11.1251 12.1656 11.0501 12.0156 10.9001 12.0156H10.4501C10.3001 12.0156 10.2251 12.0906 10.2251 12.2406Z" fill="#146297"/>
<path d="M14.125 7.0625H10.9C10.6 7.0625 10.375 7.2875 10.375 7.5875V10.6625C10.375 10.9625 10.6 11.1875 10.9 11.1875H14.125C14.425 11.1875 14.65 10.9625 14.65 10.6625V7.5875C14.725 7.2875 14.5 7.0625 14.125 7.0625Z" fill="#146297"/>
<path d="M15.25 24.0141V25.1391C15.25 25.2891 15.325 25.3641 15.475 25.3641H16.6C16.75 25.3641 16.825 25.2891 16.825 25.1391V24.0141C16.825 23.8641 16.75 23.7891 16.6 23.7891H15.475C15.325 23.7891 15.25 23.8641 15.25 24.0141Z" fill="#146297"/>
<path d="M6.2499 16.2125H8.7999C9.1749 16.2125 9.3999 15.9125 9.3999 15.6125V12.9125C9.3999 12.5375 9.0999 12.3125 8.7999 12.3125H6.2499C5.8749 12.3125 5.6499 12.6125 5.6499 12.9125V15.6125C5.6499 15.9875 5.8749 16.2125 6.2499 16.2125Z" fill="#146297"/>
<path d="M9.02519 11.4875C9.10019 11.4875 9.2502 11.4125 9.2502 11.2625V9.9125C9.2502 9.8375 9.17519 9.6875 9.02519 9.6875H7.67519C7.60019 9.6875 7.4502 9.7625 7.4502 9.9125V11.2625C7.4502 11.3375 7.52519 11.4875 7.67519 11.4875H9.02519Z" fill="#146297"/>
<path d="M16.1499 28.2156V28.8156C16.1499 28.8906 16.2249 28.8906 16.2249 28.8906H16.8249C16.8999 28.8906 16.8999 28.8156 16.8999 28.8156V28.2156C16.8999 28.1406 16.8249 28.1406 16.8249 28.1406H16.2249C16.2249 28.1406 16.1499 28.1406 16.1499 28.2156Z" fill="#146297"/>
<path d="M16.6749 10.0625H15.9249C15.8499 10.0625 15.7749 10.1375 15.7749 10.2125V10.8875C15.7749 10.9625 15.8499 11.0375 15.9249 11.0375H16.6749C16.7499 11.0375 16.8249 10.9625 16.8249 10.8875V10.2125C16.8249 10.1375 16.7499 10.0625 16.6749 10.0625Z" fill="#146297"/>
<path d="M19.3002 9.46094C19.3752 9.46094 19.4502 9.38594 19.4502 9.31094V8.86094C19.4502 8.78594 19.3752 8.71094 19.3002 8.71094H18.8502C18.7752 8.71094 18.7002 8.78594 18.7002 8.86094V9.31094C18.7002 9.38594 18.7752 9.46094 18.8502 9.46094H19.3002Z" fill="#146297"/>
<path d="M22.7499 13.7422C22.8249 13.7422 22.8999 13.6672 22.8999 13.5922V13.1422C22.8999 13.0672 22.8249 12.9922 22.7499 12.9922H22.2999C22.2249 12.9922 22.1499 13.0672 22.1499 13.1422V13.5172C22.1499 13.5922 22.2249 13.6672 22.2999 13.6672H22.7499V13.7422Z" fill="#146297"/>
<path d="M19.9751 15.6911V17.7911C19.9751 18.0161 20.2001 18.2411 20.4251 18.2411H22.6751C22.9001 18.2411 23.1251 18.0161 23.1251 17.7911V15.6911C23.1251 15.4661 22.9001 15.2411 22.6751 15.2411H20.4251C20.2001 15.1661 19.9751 15.3911 19.9751 15.6911Z" fill="#146297"/>
<path d="M18.7002 27.4672C18.7002 27.6172 18.7752 27.6922 18.9252 27.6922H19.5252C19.6752 27.6922 19.7502 27.6172 19.7502 27.4672V26.7172C19.7502 26.5672 19.6752 26.4922 19.5252 26.4922H18.9252C18.7752 26.4922 18.7002 26.5672 18.7002 26.7172V27.4672Z" fill="#146297"/>
<path d="M4.6 18.4656H5.8C5.875 18.4656 6.025 18.3906 6.025 18.2406V17.1156C6.025 17.0406 5.95 16.8906 5.8 16.8906H4.6C4.525 16.8906 4.375 16.9656 4.375 17.1156V18.2406C4.45 18.3156 4.525 18.4656 4.6 18.4656Z" fill="#146297"/>
<path d="M9.6249 16.8906C9.5499 16.8906 9.3999 16.9656 9.3999 17.1156V17.6406C9.3999 17.7156 9.4749 17.8656 9.6249 17.8656H10.2249C10.2999 17.8656 10.4499 17.7906 10.4499 17.6406V17.1156C10.4499 17.0406 10.3749 16.8906 10.2249 16.8906H9.6249Z" fill="#146297"/>
<path d="M17.875 3.91406C13.675 3.91406 9.925 5.63906 7.225 8.33906C9.4 6.46406 12.25 5.33906 15.4 5.33906C15.625 5.33906 15.925 5.33906 16.15 5.33906H15.775C15.7 5.33906 15.55 5.41406 15.55 5.56406V6.83906C15.55 6.91406 15.625 7.06406 15.775 7.06406H17.125C17.2 7.06406 17.35 6.98906 17.35 6.83906V5.56406V5.48906C17.875 5.56406 18.4 5.71406 18.925 5.86406V6.46406C18.925 6.53906 19 6.68906 19.15 6.68906H19.825C19.9 6.68906 20.05 6.61406 20.05 6.46406V6.16406C20.65 6.38906 21.25 6.68906 21.775 6.98906H20.95C20.725 6.98906 20.575 7.13906 20.575 7.36406V10.6641C20.575 10.8891 20.725 11.0391 20.95 11.0391H24.4C24.625 11.0391 24.775 10.8891 24.775 10.6641V9.38906C25.45 10.1391 26.05 10.9641 26.5 11.8641H29.8C30.325 11.8641 30.775 12.3141 30.775 12.8391V17.5641C30.775 18.0891 30.325 18.5391 29.8 18.5391H27.925C27.85 19.5141 27.7 20.4141 27.4 21.3141H26.65C26.425 21.3141 26.2 21.5391 26.2 21.7641V24.0891C25.975 24.4641 25.675 24.9141 25.375 25.2891V24.8391C25.375 24.7641 25.3 24.7641 25.3 24.7641H24.625C24.55 24.7641 24.55 24.8391 24.55 24.8391V25.5141C24.55 25.5891 24.625 25.5891 24.625 25.5891H25.15C24.925 25.8891 24.7 26.1141 24.475 26.4141H21.325C21.1 26.4141 20.875 26.6391 20.875 26.8641V29.0391C19.225 29.8641 17.425 30.3141 15.475 30.3141H15.4V27.0141C15.4 26.7891 15.175 26.5641 14.95 26.5641H11.575C11.35 26.5641 11.125 26.7891 11.125 27.0141V29.4891C10.075 29.1141 9.1 28.5141 8.2 27.8391H9.55C9.775 27.8391 9.925 27.6891 9.925 27.4641V25.9641C9.925 25.7391 9.775 25.5891 9.55 25.5891H8.05C7.825 25.5891 7.675 25.7391 7.675 25.9641V27.4641C4.825 25.2891 3.025 22.0641 2.875 18.3141C2.875 18.4641 2.875 18.6891 2.875 18.8391C2.875 20.8641 3.25 22.7391 4 24.4641C4.15 24.8391 4.3 25.1391 4.45 25.4391C4.6 25.7391 4.75 26.1141 4.975 26.4141C5.125 26.7141 5.35 27.0141 5.575 27.3141C5.8 27.6141 6.025 27.9141 6.25 28.2141C6.475 28.5141 6.7 28.7391 6.925 29.0391C7.15 29.2641 7.45 29.5641 7.675 29.7891C7.9 30.0141 8.2 30.2391 8.5 30.4641C8.65 30.5391 8.8 30.6891 8.95 30.7641C9.1 30.8391 9.25 30.9891 9.325 31.0641C9.325 31.0641 9.325 31.0641 9.4 31.0641C9.55 31.1391 9.7 31.2891 9.85 31.3641C10 31.4391 10.15 31.5141 10.3 31.5891C10.3 31.5891 10.3 31.5891 10.375 31.5891C10.525 31.6641 10.675 31.7391 10.825 31.8141H10.9C11.05 31.8891 11.2 31.9641 11.35 32.0391C11.35 32.0391 11.35 32.0391 11.425 32.0391C11.575 32.1141 11.725 32.1891 11.875 32.2641H11.95C12.1 32.3391 12.25 32.4141 12.4 32.4141H12.475C12.625 32.4891 12.775 32.5641 12.925 32.5641H13C13.15 32.6391 13.3 32.6391 13.45 32.7141H13.525C13.675 32.7891 13.825 32.7891 13.975 32.8641H14.05C14.2 32.9391 14.35 32.9391 14.5 33.0141C14.5 33.0141 14.5 33.0141 14.575 33.0141C14.725 33.0891 14.875 33.0891 15.1 33.0891C15.175 33.0891 15.175 33.0891 15.25 33.0891C15.4 33.0891 15.55 33.1641 15.7 33.1641C15.7 33.1641 15.7 33.1641 15.775 33.1641C15.925 33.1641 16.075 33.2391 16.3 33.2391C16.375 33.2391 16.375 33.2391 16.45 33.2391C16.6 33.2391 16.75 33.2391 16.975 33.3141C17.125 33.3141 17.35 33.3141 17.5 33.3141C17.575 33.3141 17.575 33.3141 17.65 33.3141C17.8 33.3141 18.025 33.3141 18.175 33.3141C18.325 33.3141 18.55 33.3141 18.7 33.3141C18.775 33.3141 18.775 33.3141 18.85 33.3141C19 33.3141 19.225 33.3141 19.375 33.3141C19.525 33.3141 19.675 33.3141 19.9 33.2391C19.975 33.2391 19.975 33.2391 20.05 33.2391C20.2 33.2391 20.35 33.1641 20.575 33.1641C20.575 33.1641 20.575 33.1641 20.65 33.1641C20.8 33.1641 20.95 33.0891 21.1 33.0891C21.175 33.0891 21.175 33.0891 21.25 33.0891C21.4 33.0891 21.55 33.0141 21.775 33.0141C21.775 33.0141 21.775 33.0141 21.85 33.0141C22 33.0141 22.15 32.9391 22.3 32.8641H22.375C22.525 32.7891 22.675 32.7891 22.825 32.7141H22.9C23.05 32.6391 23.2 32.6391 23.35 32.5641H23.425C23.575 32.4891 23.725 32.4141 23.875 32.4141H23.95C24.1 32.3391 24.25 32.2641 24.4 32.2641H24.475C24.625 32.1891 24.775 32.1141 24.925 32.0391C24.925 32.0391 24.925 32.0391 25 32.0391C25.15 31.9641 25.3 31.8891 25.45 31.8141H25.525C25.675 31.7391 25.825 31.6641 25.975 31.5891C25.975 31.5891 25.975 31.5891 26.05 31.5891C26.2 31.5141 26.35 31.4391 26.5 31.3641C26.65 31.2891 26.8 31.2141 26.95 31.0641C26.95 31.0641 26.95 31.0641 27.025 31.0641C27.175 30.9891 27.325 30.8391 27.4 30.7641C27.55 30.6891 27.7 30.5391 27.85 30.4641C28.15 30.2391 28.375 30.0141 28.675 29.7891C28.9 29.5641 29.2 29.2641 29.425 29.0391C29.65 28.8141 29.875 28.5141 30.1 28.2141C30.325 27.9141 30.55 27.6141 30.775 27.3141C31 27.0141 31.15 26.7141 31.375 26.4141C31.525 26.1141 31.75 25.8141 31.9 25.4391C32.875 23.4141 33.475 21.1641 33.475 18.7641C32.875 10.5891 26.125 3.91406 17.875 3.91406Z" fill="#146297"/>
<path d="M18.7002 13.7406C18.7002 13.8156 18.7752 13.9656 18.9252 13.9656H20.1252C20.2002 13.9656 20.3502 13.8906 20.3502 13.7406V12.6156C20.3502 12.5406 20.2752 12.3906 20.1252 12.3906H18.9252C18.8502 12.3906 18.7002 12.4656 18.7002 12.6156V13.7406Z" fill="#146297"/>
<path d="M26.1998 19.5156H25.4498C25.3748 19.5156 25.2998 19.5906 25.2998 19.6656V20.3406C25.2998 20.4156 25.3748 20.4906 25.4498 20.4906H26.1998C26.2748 20.4906 26.3498 20.4156 26.3498 20.3406V19.6656C26.3498 19.5906 26.2748 19.5156 26.1998 19.5156Z" fill="#146297"/>
<path d="M15.55 19.2133V21.9133C15.55 22.0633 15.475 22.1383 15.325 22.1383H12.625C12.475 22.1383 12.4 22.0633 12.4 21.9133V19.2133C12.4 19.0633 12.475 18.9883 12.625 18.9883H15.325C15.4 18.9883 15.55 19.1383 15.55 19.2133ZM12.7 23.6383C12.625 23.6383 12.625 23.7133 12.625 23.7133V24.3133C12.625 24.3883 12.7 24.3883 12.7 24.3883H13.3C13.375 24.3883 13.375 24.3133 13.375 24.3133V23.7133C13.375 23.6383 13.3 23.6383 13.3 23.6383H12.7ZM10.225 11.9383V12.3133C10.225 12.3883 10.3 12.5383 10.45 12.5383H10.9C10.975 12.5383 11.125 12.4633 11.125 12.3133V11.9383C11.125 11.8633 11.05 11.7133 10.9 11.7133H10.45C10.3 11.7883 10.225 11.8633 10.225 11.9383ZM14.125 6.76328H10.9C10.675 6.76328 10.375 6.98828 10.375 7.36328V10.4383C10.375 10.7383 10.6 10.9633 10.9 10.9633H14.125C14.425 10.9633 14.65 10.7383 14.65 10.4383V7.36328C14.725 6.98828 14.5 6.76328 14.125 6.76328ZM15.25 23.7133V24.8383C15.25 24.9883 15.325 25.0633 15.475 25.0633H16.6C16.75 25.0633 16.825 24.9883 16.825 24.8383V23.7133C16.825 23.5633 16.75 23.4883 16.6 23.4883H15.475C15.325 23.4883 15.25 23.5633 15.25 23.7133ZM6.25 15.9883H8.8C9.175 15.9883 9.4 15.6883 9.4 15.3883V12.6883C9.4 12.3133 9.1 12.0883 8.8 12.0883H6.25C5.875 12.0883 5.65 12.3883 5.65 12.6883V15.3883C5.65 15.6883 5.875 15.9883 6.25 15.9883ZM9.025 11.1883C9.1 11.1883 9.25 11.1133 9.25 10.9633V9.61328C9.25 9.53828 9.175 9.38828 9.025 9.38828H7.675C7.6 9.38828 7.45 9.46328 7.45 9.61328V10.9633C7.45 11.0383 7.525 11.1883 7.675 11.1883H9.025ZM16.15 27.9883V28.5133C16.15 28.5883 16.225 28.5883 16.225 28.5883H16.825C16.9 28.5883 16.9 28.5133 16.9 28.5133V27.9133C16.9 27.8383 16.825 27.8383 16.825 27.8383H16.225C16.225 27.8383 16.15 27.9133 16.15 27.9883ZM16.675 9.76328H15.925C15.85 9.76328 15.775 9.83828 15.775 9.91328V10.5883C15.775 10.6633 15.85 10.7383 15.925 10.7383H16.675C16.75 10.7383 16.825 10.6633 16.825 10.5883V9.91328C16.825 9.83828 16.75 9.76328 16.675 9.76328ZM19.3 9.23828C19.375 9.23828 19.45 9.16328 19.45 9.08828V8.63828C19.45 8.56328 19.375 8.48828 19.3 8.48828H18.85C18.775 8.48828 18.7 8.56328 18.7 8.63828V9.08828C18.7 9.16328 18.775 9.23828 18.85 9.23828H19.3ZM22.75 13.4383C22.825 13.4383 22.9 13.3633 22.9 13.2883V12.8383C22.9 12.7633 22.825 12.6883 22.75 12.6883H22.3C22.225 12.6883 22.15 12.7633 22.15 12.8383V13.2883C22.15 13.3633 22.225 13.4383 22.3 13.4383H22.75ZM19.975 15.3883V17.4883C19.975 17.7133 20.2 17.9383 20.425 17.9383H22.675C22.9 17.9383 23.125 17.7133 23.125 17.4883V15.3883C23.125 15.1633 22.9 14.9383 22.675 14.9383H20.425C20.2 14.9383 19.975 15.1633 19.975 15.3883ZM18.7 27.2383C18.7 27.3883 18.775 27.4633 18.925 27.4633H19.525C19.675 27.4633 19.75 27.3883 19.75 27.2383V26.4883C19.75 26.3383 19.675 26.2633 19.525 26.2633H18.925C18.775 26.2633 18.7 26.3383 18.7 26.4883V27.2383ZM4.6 18.1633H5.8C5.875 18.1633 6.025 18.0883 6.025 17.9383V16.8133C6.025 16.7383 5.95 16.5883 5.8 16.5883H4.6C4.525 16.5883 4.375 16.6633 4.375 16.8133V17.9383C4.45 18.0883 4.525 18.1633 4.6 18.1633ZM9.625 16.6633C9.55 16.6633 9.4 16.7383 9.4 16.8883V17.4133C9.4 17.4883 9.475 17.6383 9.625 17.6383H10.225C10.3 17.6383 10.45 17.5633 10.45 17.4133V16.8883C10.45 16.8133 10.375 16.6633 10.225 16.6633H9.625ZM17.875 3.61328C13.675 3.61328 9.925 5.33828 7.225 8.03828C9.4 6.16328 12.25 5.03828 15.4 5.03828C15.625 5.03828 15.925 5.03828 16.15 5.03828H15.775C15.7 5.03828 15.55 5.11328 15.55 5.26328V6.53828C15.55 6.68828 15.625 6.76328 15.7 6.76328H17.05C17.125 6.76328 17.275 6.68828 17.275 6.53828V5.26328V5.18828C17.8 5.26328 18.325 5.41328 18.85 5.56328V6.16328C18.85 6.23828 18.925 6.38828 19.075 6.38828H19.75C19.825 6.38828 19.975 6.31328 19.975 6.16328V5.86328C20.5 6.16328 21.025 6.38828 21.625 6.76328H20.8C20.575 6.76328 20.425 6.91328 20.425 7.13828V10.4383C20.425 10.6633 20.575 10.8133 20.8 10.8133H24.25C24.475 10.8133 24.625 10.6633 24.625 10.4383V9.16328C25.3 9.91328 25.9 10.7383 26.35 11.6383H29.65C30.175 11.6383 30.625 12.0883 30.625 12.6133V17.3383C30.625 17.8633 30.175 18.3133 29.65 18.3133H27.775C27.7 19.2883 27.55 20.1883 27.25 21.0883H26.5C26.275 21.0883 26.05 21.3133 26.05 21.5383V23.8633C25.825 24.2383 25.525 24.6883 25.225 25.0633V24.6133C25.225 24.5383 25.15 24.5383 25.15 24.5383H24.625C24.55 24.5383 24.55 24.6133 24.55 24.6133V25.2133C24.55 25.2883 24.625 25.2883 24.625 25.2883H25.15C24.925 25.5883 24.7 25.8133 24.475 26.1133H21.325C21.1 26.1133 20.875 26.3383 20.875 26.5633V28.7383C19.225 29.5633 17.425 30.0133 15.475 30.0133H15.4V26.7133C15.4 26.4883 15.175 26.2633 14.95 26.2633H11.575C11.35 26.2633 11.125 26.4883 11.125 26.7133V29.1883C10.075 28.8133 9.1 28.2133 8.2 27.5383H9.55C9.775 27.5383 9.925 27.3883 9.925 27.1633V25.6633C9.925 25.4383 9.775 25.2883 9.55 25.2883H8.05C7.825 25.2883 7.675 25.4383 7.675 25.6633V27.1633C4.825 25.0633 3.025 21.7633 2.875 18.0883C2.875 18.2383 2.875 18.4633 2.875 18.6133C2.875 20.6383 3.25 22.5133 4 24.2383C4.15 24.6133 4.3 24.9133 4.45 25.2133C4.6 25.5133 4.75 25.8883 4.975 26.1883C5.125 26.4883 5.35 26.7883 5.575 27.0883C5.8 27.3883 6.025 27.6883 6.25 27.9883C6.475 28.2883 6.7 28.5133 6.925 28.8133C7.15 29.0383 7.45 29.3383 7.675 29.5633C7.9 29.7883 8.2 30.0133 8.5 30.2383C8.65 30.3133 8.8 30.4633 8.95 30.5383C9.1 30.6133 9.25 30.7633 9.325 30.8383C9.325 30.8383 9.325 30.8383 9.4 30.8383C9.55 30.9133 9.7 31.0633 9.85 31.1383C10 31.2133 10.15 31.2883 10.3 31.3633C10.3 31.3633 10.3 31.3633 10.375 31.3633C10.525 31.4383 10.675 31.5133 10.825 31.5883H10.9C11.05 31.6633 11.2 31.7383 11.35 31.8133C11.35 31.8133 11.35 31.8133 11.425 31.8133C11.575 31.8883 11.725 31.9633 11.875 32.0383H11.95C12.1 32.1133 12.25 32.1883 12.4 32.1883H12.475C12.625 32.2633 12.775 32.3383 12.925 32.3383H13C13.15 32.4133 13.3 32.4133 13.45 32.4883H13.525C13.675 32.5633 13.825 32.5633 13.975 32.6383H14.05C14.2 32.7133 14.35 32.7133 14.5 32.7883C14.5 32.7883 14.5 32.7883 14.575 32.7883C14.725 32.8633 14.875 32.8633 15.1 32.8633C15.175 32.8633 15.175 32.8633 15.25 32.8633C15.4 32.8633 15.55 32.9383 15.7 32.9383C15.7 32.9383 15.7 32.9383 15.775 32.9383C15.925 32.9383 16.075 33.0133 16.3 33.0133C16.375 33.0133 16.375 33.0133 16.45 33.0133C16.6 33.0133 16.75 33.0133 16.975 33.0883C17.125 33.0883 17.35 33.0883 17.5 33.0883C17.575 33.0883 17.575 33.0883 17.65 33.0883C17.8 33.0883 18.025 33.0883 18.175 33.0883C18.325 33.0883 18.55 33.0883 18.7 33.0883C18.775 33.0883 18.775 33.0883 18.85 33.0883C19 33.0883 19.225 33.0883 19.375 33.0883C19.525 33.0883 19.675 33.0883 19.9 33.0133C19.975 33.0133 19.975 33.0133 20.05 33.0133C20.2 33.0133 20.35 32.9383 20.575 32.9383C20.575 32.9383 20.575 32.9383 20.65 32.9383C20.8 32.9383 20.95 32.8633 21.1 32.8633C21.175 32.8633 21.175 32.8633 21.25 32.8633C21.4 32.8633 21.55 32.7883 21.775 32.7883C21.775 32.7883 21.775 32.7883 21.85 32.7883C22 32.7883 22.15 32.7133 22.3 32.6383H22.375C22.525 32.5633 22.675 32.5633 22.825 32.4883H22.9C23.05 32.4133 23.2 32.4133 23.35 32.3383H23.425C23.575 32.2633 23.725 32.1883 23.875 32.1883H23.95C24.1 32.1133 24.25 32.0383 24.4 32.0383H24.475C24.625 31.9633 24.775 31.8883 24.925 31.8133C24.925 31.8133 24.925 31.8133 25 31.8133C25.15 31.7383 25.3 31.6633 25.45 31.5883H25.525C25.675 31.5133 25.825 31.4383 25.975 31.3633C25.975 31.3633 25.975 31.3633 26.05 31.3633C26.2 31.2883 26.35 31.2133 26.5 31.1383C26.65 31.0633 26.8 30.9883 26.95 30.8383C26.95 30.8383 26.95 30.8383 27.025 30.8383C27.175 30.7633 27.325 30.6133 27.4 30.5383C27.55 30.4633 27.7 30.3133 27.85 30.2383C28.15 30.0133 28.375 29.7883 28.675 29.5633C28.9 29.3383 29.2 29.0383 29.425 28.8133C29.65 28.5883 29.875 28.2883 30.1 27.9883C30.325 27.6883 30.55 27.3883 30.775 27.0883C31 26.7883 31.15 26.4883 31.375 26.1883C31.525 25.8883 31.75 25.5883 31.9 25.2133C32.35 23.2633 32.875 21.0133 32.875 18.6133C32.875 10.3633 26.125 3.61328 17.875 3.61328ZM18.7 13.5133C18.7 13.5883 18.775 13.7383 18.925 13.7383H20.125C20.2 13.7383 20.35 13.6633 20.35 13.5133V12.3883C20.35 12.3133 20.275 12.1633 20.125 12.1633H18.925C18.85 12.1633 18.7 12.2383 18.7 12.3883V13.5133ZM26.2 19.3633H25.45C25.375 19.3633 25.3 19.4383 25.3 19.5133V20.2633C25.3 20.3383 25.375 20.4133 25.45 20.4133H26.2C26.275 20.4133 26.35 20.3383 26.35 20.2633V19.5883C26.35 19.4383 26.275 19.3633 26.2 19.3633Z" fill="url(#paint1_linear_612_171896)"/>
<path d="M13.3 23.6398C13.375 23.6398 13.375 23.7148 13.375 23.7148V24.3148C13.375 24.3898 13.3 24.3898 13.3 24.3898H12.7C12.625 24.3898 12.625 24.3148 12.625 24.3148V23.7148C12.625 23.6398 12.7 23.6398 12.7 23.6398H13.3ZM16.3 28.6648H16.9C16.975 28.6648 16.975 28.5898 16.975 28.5898V27.9898C16.975 27.9148 16.9 27.9148 16.9 27.9148H16.3C16.225 27.9148 16.225 27.9898 16.225 27.9898V28.5148C16.15 28.5898 16.225 28.6648 16.3 28.6648ZM16.825 24.8398V23.7148C16.825 23.5648 16.75 23.4898 16.6 23.4898H15.475C15.325 23.4898 15.25 23.5648 15.25 23.7148V24.8398C15.25 24.9898 15.325 25.0648 15.475 25.0648H16.6C16.75 25.0648 16.825 24.9898 16.825 24.8398ZM26.05 21.9898V23.9398C25.825 24.3148 25.525 24.7648 25.225 25.1398V24.6898C25.225 24.6148 25.15 24.6148 25.15 24.6148H24.625C24.55 24.6148 24.55 24.6898 24.55 24.6898V25.2898C24.55 25.3648 24.625 25.3648 24.625 25.3648H25.15C24.925 25.6648 24.7 25.8898 24.475 26.1898H21.325C21.1 26.1898 20.875 26.4148 20.875 26.6398V28.8148C19.225 29.6398 17.425 30.0898 15.475 30.0898H15.4V26.7898C15.4 26.5648 15.175 26.3398 14.95 26.3398H11.575C11.35 26.3398 11.125 26.5648 11.125 26.7898V29.2648C10.075 28.8898 9.1 28.2898 8.2 27.6148H9.55C9.775 27.6148 9.925 27.4648 9.925 27.2398V25.7398C9.925 25.5148 9.775 25.3648 9.55 25.3648H8.05C7.825 25.3648 7.675 25.5148 7.675 25.7398V27.2398C4.825 25.0648 3.025 21.7648 2.875 18.0898C2.875 18.2398 2.875 18.4648 2.875 18.6148C2.875 20.6398 3.25 22.5148 4 24.2398C4.15 24.6148 4.3 24.9148 4.45 25.2148C4.6 25.5148 4.75 25.8898 4.975 26.1898C5.125 26.4898 5.35 26.7898 5.575 27.0898C5.8 27.3898 6.025 27.6898 6.25 27.9898C6.475 28.2898 6.7 28.5148 6.925 28.8148C7.15 29.0398 7.45 29.3398 7.675 29.5648C7.9 29.7898 8.2 30.0148 8.5 30.2398C8.65 30.3148 8.8 30.4648 8.95 30.5398C9.1 30.6148 9.25 30.7648 9.325 30.8398C9.325 30.8398 9.325 30.8398 9.4 30.8398C9.55 30.9148 9.7 31.0648 9.85 31.1398C10 31.2148 10.15 31.2898 10.3 31.3648C10.3 31.3648 10.3 31.3648 10.375 31.3648C10.525 31.4398 10.675 31.5148 10.825 31.5898H10.9C11.05 31.6648 11.2 31.7398 11.35 31.8148C11.35 31.8148 11.35 31.8148 11.425 31.8148C11.575 31.8898 11.725 31.9648 11.875 32.0398H11.95C12.1 32.1148 12.25 32.1898 12.4 32.1898H12.475C12.625 32.2648 12.775 32.3398 12.925 32.3398H13C13.15 32.4148 13.3 32.4148 13.45 32.4898H13.525C13.675 32.5648 13.825 32.5648 13.975 32.6398H14.05C14.2 32.7148 14.35 32.7148 14.5 32.7898C14.5 32.7898 14.5 32.7898 14.575 32.7898C14.725 32.8648 14.875 32.8648 15.1 32.8648C15.175 32.8648 15.175 32.8648 15.25 32.8648C15.4 32.8648 15.55 32.9398 15.7 32.9398C15.7 32.9398 15.7 32.9398 15.775 32.9398C15.925 32.9398 16.075 33.0148 16.3 33.0148C16.375 33.0148 16.375 33.0148 16.45 33.0148C16.6 33.0148 16.75 33.0148 16.975 33.0898C17.125 33.0898 17.35 33.0898 17.5 33.0898C17.575 33.0898 17.575 33.0898 17.65 33.0898C17.8 33.0898 18.025 33.0898 18.175 33.0898C18.325 33.0898 18.55 33.0898 18.7 33.0898C18.775 33.0898 18.775 33.0898 18.85 33.0898C19 33.0898 19.225 33.0898 19.375 33.0898C19.525 33.0898 19.675 33.0898 19.9 33.0148C19.975 33.0148 19.975 33.0148 20.05 33.0148C20.2 33.0148 20.35 32.9398 20.575 32.9398C20.575 32.9398 20.575 32.9398 20.65 32.9398C20.8 32.9398 20.95 32.8648 21.1 32.8648C21.175 32.8648 21.175 32.8648 21.25 32.8648C21.4 32.8648 21.55 32.7898 21.775 32.7898C21.775 32.7898 21.775 32.7898 21.85 32.7898C22 32.7898 22.15 32.7148 22.3 32.6398H22.375C22.525 32.5648 22.675 32.5648 22.825 32.4898H22.9C23.05 32.4148 23.2 32.4148 23.35 32.3398H23.425C23.575 32.2648 23.725 32.1898 23.875 32.1898H23.95C24.1 32.1148 24.25 32.0398 24.4 32.0398H24.475C24.625 31.9648 24.775 31.8898 24.925 31.8148C24.925 31.8148 24.925 31.8148 25 31.8148C25.15 31.7398 25.3 31.6648 25.45 31.5898H25.525C25.675 31.5148 25.825 31.4398 25.975 31.3648C25.975 31.3648 25.975 31.3648 26.05 31.3648C26.2 31.2898 26.35 31.2148 26.5 31.1398C26.65 31.0648 26.8 30.9898 26.95 30.8398C26.95 30.8398 26.95 30.8398 27.025 30.8398C27.175 30.7648 27.325 30.6148 27.4 30.5398C27.55 30.4648 27.7 30.3148 27.85 30.2398C28.15 30.0148 28.375 29.7898 28.675 29.5648C28.9 29.3398 29.2 29.0398 29.425 28.8148C29.65 28.5898 29.875 28.2898 30.1 27.9898C30.325 27.6898 30.55 27.3898 30.775 27.0898C31 26.7898 31.15 26.4898 31.375 26.1898C31.525 25.8898 31.75 25.5898 31.9 25.2148C32.35 23.2648 32.875 21.0148 32.875 18.6148C32.875 18.3148 32.875 18.0148 32.875 17.7148C30.925 19.5898 28.6 21.0898 26.05 21.9898ZM18.925 27.4648H19.525C19.675 27.4648 19.75 27.3898 19.75 27.2398V26.4898C19.75 26.3398 19.675 26.2648 19.525 26.2648H18.925C18.775 26.2648 18.7 26.3398 18.7 26.4898V27.2398C18.7 27.3148 18.775 27.4648 18.925 27.4648Z" fill="url(#paint2_linear_612_171896)"/>
<path d="M29.3499 12.3125H25.3749C24.9249 12.3125 24.6249 12.6875 24.6249 13.0625V16.8875C24.6249 16.9625 24.6249 17.1125 24.6999 17.1875L22.9749 18.9125H22.8999H18.9249H18.8499L17.1249 17.1875C17.1999 17.1125 17.1999 16.9625 17.1999 16.8875V13.0625C17.1999 12.6125 16.8249 12.3125 16.4499 12.3125H12.4749C12.0249 12.3125 11.7249 12.6875 11.7249 13.0625V16.8875C11.7249 16.9625 11.7249 17.1125 11.7999 17.1875L10.0749 18.9125H9.9999H6.0249C5.5749 18.9125 5.2749 19.2875 5.2749 19.6625V23.4875C5.2749 23.9375 5.6499 24.2375 6.0249 24.2375H9.9999C10.4499 24.2375 10.7499 23.8625 10.7499 23.4875V19.6625C10.7499 19.5125 10.7499 19.4375 10.6749 19.3625L12.3249 17.7125H12.3999H16.3749C16.4499 17.7125 16.4499 17.7125 16.4499 17.7125L18.0999 19.3625C18.0249 19.4375 18.0249 19.5875 18.0249 19.7375V23.5625C18.0249 24.0125 18.3999 24.3125 18.7749 24.3125H22.7499C23.1999 24.3125 23.4999 23.9375 23.4999 23.5625V19.7375C23.4999 19.5875 23.4999 19.5125 23.4249 19.4375L25.0749 17.7875H25.1499H29.1249C29.5749 17.7875 29.8749 17.4125 29.8749 17.0375V13.2125C30.1749 12.6875 29.7999 12.3125 29.3499 12.3125Z" fill="url(#paint3_linear_612_171896)"/>
<path d="M12.0999 16.8867L12.6249 17.4117L10.2999 19.7367L9.7749 19.2117L12.0999 16.8867Z" fill="url(#paint4_linear_612_171896)"/>
<path d="M24.9251 16.9648L25.4501 17.4898L23.1251 19.8148L22.6001 19.2898L24.9251 16.9648Z" fill="url(#paint5_linear_612_171896)"/>
<path d="M16.2251 17.4117L16.8251 16.8867L19.1501 19.2117L18.6251 19.7367L16.2251 17.4117Z" fill="url(#paint6_linear_612_171896)"/>
<path d="M30.3252 27.0133C30.1002 27.3133 29.8002 27.5383 29.5752 27.8383C29.3502 28.0633 29.0502 28.3633 28.7502 28.5883C28.4502 28.8133 28.2252 29.0383 27.9252 29.2633C27.7752 29.3383 27.6252 29.4883 27.4752 29.5633C27.3252 29.6383 27.1752 29.7883 27.0252 29.8633C27.0252 29.8633 27.0252 29.8633 26.9502 29.8633C26.8002 29.9383 26.6502 30.0883 26.5002 30.1633C26.5002 30.1633 26.5002 30.1633 26.4252 30.1633C26.2752 30.2383 26.1252 30.3133 25.9752 30.3883C25.9752 30.3883 25.9752 30.3883 25.9002 30.3883C25.7502 30.4633 25.6002 30.5383 25.4502 30.6133H25.3752C25.2252 30.6883 25.0752 30.7633 24.9252 30.8383H24.8502C24.7002 30.9133 24.5502 30.9883 24.3252 31.0633H24.2502C24.1002 31.1383 23.9502 31.2133 23.8002 31.2133H23.7252C23.5752 31.2883 23.4252 31.3633 23.2002 31.3633H23.1252C22.9752 31.4383 22.8252 31.4383 22.6752 31.5133H22.6002C22.4502 31.5883 22.2252 31.5883 22.0752 31.6633H22.0002C21.8502 31.7383 21.7002 31.7383 21.5502 31.8133H21.4752C21.3252 31.8883 21.1002 31.8883 20.9502 31.8883C20.8752 31.8883 20.8752 31.8883 20.8002 31.8883C20.6502 31.8883 20.5002 31.9633 20.2752 31.9633C20.2752 31.9633 20.2752 31.9633 20.2002 31.9633C20.0502 31.9633 19.8252 32.0383 19.6752 32.0383C19.6002 32.0383 19.6002 32.0383 19.5252 32.0383C19.3752 32.0383 19.1502 32.0383 19.0002 32.1133C18.8502 32.1133 18.6252 32.1133 18.4752 32.1133C18.4002 32.1133 18.4002 32.1133 18.3252 32.1133C18.1752 32.1133 17.9502 32.1133 17.8002 32.1133C17.6502 32.1133 17.4252 32.1133 17.2752 32.1133C17.2002 32.1133 17.2002 32.1133 17.1252 32.1133C16.9752 32.1133 16.7502 32.1133 16.6002 32.1133C16.4502 32.1133 16.2252 32.1133 16.0752 32.0383C16.0002 32.0383 16.0002 32.0383 15.9252 32.0383C15.7752 32.0383 15.5502 31.9633 15.4002 31.9633C15.4002 31.9633 15.4002 31.9633 15.3252 31.9633C15.1752 31.9633 15.0252 31.8883 14.8002 31.8883C14.7252 31.8883 14.7252 31.8883 14.6502 31.8883C14.5002 31.8883 14.2752 31.8133 14.1252 31.8133H14.0502C13.9002 31.8133 13.7502 31.7383 13.6002 31.6633H13.5252C13.3752 31.5883 13.1502 31.5883 13.0002 31.5133H12.9252C12.7752 31.4383 12.6252 31.4383 12.4752 31.3633H12.4002C12.2502 31.2883 12.1002 31.2133 11.8752 31.2133H11.8002C11.6502 31.1383 11.5002 31.0633 11.3502 31.0633H11.2752C11.1252 30.9883 10.9752 30.9133 10.7502 30.8383H10.6752C10.5252 30.7633 10.3752 30.6883 10.2252 30.6133H10.1502C10.0002 30.5383 9.8502 30.4633 9.7002 30.3883C9.7002 30.3883 9.7002 30.3883 9.6252 30.3883C9.4752 30.3133 9.3252 30.2383 9.1752 30.1633C9.1752 30.1633 9.1752 30.1633 9.1002 30.1633C8.9502 30.0883 8.8002 29.9383 8.6502 29.8633C8.6502 29.8633 8.6502 29.8633 8.5752 29.8633C8.4252 29.7883 8.2752 29.6383 8.1252 29.5633C7.9752 29.4883 7.8252 29.3383 7.6752 29.2633C7.3752 29.0383 7.0752 28.8133 6.8502 28.5883C6.5502 28.3633 6.3252 28.0633 6.0252 27.8383C5.8752 27.6883 5.7252 27.5383 5.5752 27.3883C8.2752 31.2133 12.7752 33.6883 17.8002 33.6883C23.0502 33.6883 27.7002 30.9883 30.4002 26.8633C30.4002 26.8633 30.3252 26.9383 30.3252 27.0133Z" fill="url(#paint7_linear_612_171896)"/>
<path opacity="0.25" d="M30.175 14.8617V13.1367C30.175 12.6867 29.8 12.3867 29.425 12.3867H25.375C24.925 12.3867 24.625 12.7617 24.625 13.1367V16.5867C25.75 16.4367 27.55 16.0617 30.175 14.8617Z" fill="url(#paint8_linear_612_171896)"/>
<path opacity="0.25" d="M23.6498 21.4633V19.7383C23.6498 19.2883 23.2748 18.9883 22.8998 18.9883H18.9248C18.4748 18.9883 18.1748 19.3633 18.1748 19.7383V23.1883C19.2248 23.0383 21.0998 22.6633 23.6498 21.4633Z" fill="url(#paint9_linear_612_171896)"/>
<path opacity="0.25" d="M17.2001 14.8617V13.1367C17.2001 12.6867 16.8251 12.3867 16.4501 12.3867H12.4751C12.0251 12.3867 11.7251 12.7617 11.7251 13.1367V16.5867C12.7751 16.4367 14.5751 16.0617 17.2001 14.8617Z" fill="url(#paint10_linear_612_171896)"/>
<path opacity="0.25" d="M10.7499 21.4633V19.7383C10.7499 19.2883 10.3749 18.9883 9.9999 18.9883H6.0249C5.5749 18.9883 5.2749 19.3633 5.2749 19.7383V23.1883C6.3249 23.0383 8.1249 22.6633 10.7499 21.4633Z" fill="url(#paint11_linear_612_171896)"/>
<defs>
<linearGradient id="paint0_linear_612_171896" x1="5.22675" y1="18.5686" x2="30.1421" y2="18.5686" gradientUnits="userSpaceOnUse">
<stop stop-color="#CA952C"/>
<stop offset="0.1904" stop-color="#CB952B"/>
<stop offset="0.2048" stop-color="#C8962C"/>
<stop offset="0.2165" stop-color="#BE982E"/>
<stop offset="0.2273" stop-color="#AD9C32"/>
<stop offset="0.2376" stop-color="#94A137"/>
<stop offset="0.2475" stop-color="#75A83E"/>
<stop offset="0.2569" stop-color="#50B146"/>
<stop offset="0.2611" stop-color="#3DB54A"/>
<stop offset="0.4232" stop-color="#42B649"/>
<stop offset="0.4793" stop-color="#45B649"/>
<stop offset="0.501" stop-color="#896937"/>
<stop offset="0.5174" stop-color="#B6352C"/>
<stop offset="0.5254" stop-color="#C82127"/>
<stop offset="0.7275" stop-color="#C82127"/>
<stop offset="0.7388" stop-color="#C92D27" stop-opacity="0.9973"/>
<stop offset="0.7588" stop-color="#CB4B28" stop-opacity="0.9926"/>
<stop offset="0.77" stop-color="#CD5F28" stop-opacity="0.99"/>
<stop offset="1" stop-color="#CB5F28"/>
</linearGradient>
<linearGradient id="paint1_linear_612_171896" x1="12.7523" y1="32.02" x2="24.4322" y2="4.37978" gradientUnits="userSpaceOnUse">
<stop stop-color="#2C7DC1"/>
<stop offset="0.467" stop-color="#3597CF"/>
<stop offset="1" stop-color="#3DB1DC"/>
</linearGradient>
<linearGradient id="paint2_linear_612_171896" x1="13.669" y1="31.9576" x2="20.2766" y2="12.5889" gradientUnits="userSpaceOnUse">
<stop stop-color="#2B54A5"/>
<stop offset="0.2251" stop-color="#2C5DAB"/>
<stop offset="0.5874" stop-color="#2D74BB"/>
<stop offset="1" stop-color="#3097D2"/>
</linearGradient>
<linearGradient id="paint3_linear_612_171896" x1="5.22675" y1="18.304" x2="30.1421" y2="18.304" gradientUnits="userSpaceOnUse">
<stop stop-color="#FCBD12"/>
<stop offset="0.1645" stop-color="#FCBD12"/>
<stop offset="0.1904" stop-color="#FCBD12"/>
<stop offset="0.2048" stop-color="#F9BD13"/>
<stop offset="0.2166" stop-color="#EFBD17"/>
<stop offset="0.2275" stop-color="#DEBD1D"/>
<stop offset="0.2378" stop-color="#C5BD27"/>
<stop offset="0.2477" stop-color="#A6BE32"/>
<stop offset="0.2571" stop-color="#81BE40"/>
<stop offset="0.2611" stop-color="#6FBE47"/>
<stop offset="0.4793" stop-color="#6FBE47"/>
<stop offset="0.5006" stop-color="#B07438"/>
<stop offset="0.5172" stop-color="#DD402D"/>
<stop offset="0.5254" stop-color="#EE2C29"/>
<stop offset="0.7275" stop-color="#EE2C29"/>
<stop offset="0.7361" stop-color="#EF3828"/>
<stop offset="0.7514" stop-color="#F25624"/>
<stop offset="0.7715" stop-color="#F6881F"/>
<stop offset="0.7779" stop-color="#F8991D"/>
<stop offset="1" stop-color="#F8991D"/>
</linearGradient>
<linearGradient id="paint4_linear_612_171896" x1="10.0622" y1="19.445" x2="12.3937" y2="17.1135" gradientUnits="userSpaceOnUse">
<stop offset="0.2234" stop-color="#FCBD12"/>
<stop offset="0.6003" stop-color="#A4BE36"/>
<stop offset="0.8346" stop-color="#72BF4B"/>
</linearGradient>
<linearGradient id="paint5_linear_612_171896" x1="22.8558" y1="19.5801" x2="25.1874" y2="17.2485" gradientUnits="userSpaceOnUse">
<stop offset="0.269" stop-color="#EE2C29"/>
<stop offset="0.5834" stop-color="#F67A22"/>
<stop offset="0.7665" stop-color="#FAA31F"/>
</linearGradient>
<linearGradient id="paint6_linear_612_171896" x1="16.525" y1="17.1135" x2="18.8566" y2="19.445" gradientUnits="userSpaceOnUse">
<stop offset="0.1697" stop-color="#6FBE47"/>
<stop offset="0.3004" stop-color="#85A542"/>
<stop offset="0.5767" stop-color="#BC6535"/>
<stop offset="0.8037" stop-color="#EE2C29"/>
</linearGradient>
<linearGradient id="paint7_linear_612_171896" x1="17.9518" y1="33.635" x2="18.0748" y2="26.591" gradientUnits="userSpaceOnUse">
<stop stop-color="#1C489C"/>
<stop offset="1" stop-color="#1F489E"/>
</linearGradient>
<linearGradient id="paint8_linear_612_171896" x1="27.3786" y1="16.5788" x2="27.3786" y2="12.3261" gradientUnits="userSpaceOnUse">
<stop stop-color="white"/>
<stop offset="1" stop-color="white" stop-opacity="0"/>
</linearGradient>
<linearGradient id="paint9_linear_612_171896" x1="20.9157" y1="23.175" x2="20.9157" y2="18.9223" gradientUnits="userSpaceOnUse">
<stop stop-color="white"/>
<stop offset="1" stop-color="white" stop-opacity="0"/>
</linearGradient>
<linearGradient id="paint10_linear_612_171896" x1="14.4533" y1="16.5788" x2="14.4533" y2="12.3261" gradientUnits="userSpaceOnUse">
<stop stop-color="white"/>
<stop offset="1" stop-color="white" stop-opacity="0"/>
</linearGradient>
<linearGradient id="paint11_linear_612_171896" x1="7.99035" y1="23.175" x2="7.99035" y2="18.9223" gradientUnits="userSpaceOnUse">
<stop stop-color="white"/>
<stop offset="1" stop-color="white" stop-opacity="0"/>
</linearGradient>
</defs>
</svg>
