<svg width="30" height="30" viewBox="0 0 30 30" fill="none" xmlns="http://www.w3.org/2000/svg">
<path d="M22.9727 12.1143L20.1602 13.7418C20.9402 13.2918 21.2027 12.3018 20.7527 11.5293C20.3027 10.7568 19.3127 10.4868 18.5402 10.9368L14.2727 13.4043L11.9852 14.7243C12.4952 14.4318 12.8627 13.9443 13.0052 13.3743C13.1477 12.8043 13.0502 12.2043 12.7427 11.7093C12.4277 11.2293 11.7977 11.0793 11.3027 11.3718L9.42766 12.4518L6.81766 13.9593C3.03766 16.1418 1.45516 20.9343 3.46516 24.8118C4.47766 26.7843 6.25516 28.2618 8.38516 28.8843C10.5152 29.5068 12.8102 29.2368 14.7302 28.1268L23.1602 23.2593C23.9327 22.8318 24.2477 21.8793 23.8727 21.0768C23.6702 20.6793 23.3177 20.3793 22.8902 20.2593C22.4627 20.1318 22.0052 20.1843 21.6152 20.4093L24.2627 18.8793C25.0427 18.4518 25.3502 17.4993 24.9752 16.6893C24.7727 16.2918 24.4202 15.9918 23.9927 15.8718C23.5652 15.7443 23.1077 15.7968 22.7177 16.0218L24.5102 14.9868C25.2827 14.5593 25.5977 13.6068 25.2227 12.8043C25.0202 12.4068 24.6677 12.1068 24.2402 11.9868C23.8202 11.8368 23.3627 11.8893 22.9727 12.1143Z" fill="#FEC000"/>
<path d="M19.9654 14.438L13.3954 18.233C13.2379 18.323 13.0429 18.323 12.8854 18.233C12.7279 18.143 12.6304 17.978 12.6304 17.7905C12.6304 17.6105 12.7279 17.438 12.8854 17.348L19.4554 13.553C19.6954 13.418 20.0029 13.5005 20.1454 13.7405C20.2879 13.9805 20.2054 14.2955 19.9654 14.438Z" fill="#D9A600"/>
<path d="M21.4199 21.0904L16.6424 23.8504C16.4849 23.9404 16.2899 23.9404 16.1324 23.8504C15.9749 23.7604 15.8774 23.5954 15.8774 23.4079C15.8774 23.2279 15.9749 23.0554 16.1324 22.9654L20.9099 20.2054C21.1499 20.0704 21.4574 20.1529 21.5999 20.3929C21.7349 20.6404 21.6599 20.9479 21.4199 21.0904Z" fill="#D9A600"/>
<path d="M22.5225 16.704L15.015 21.039C14.8575 21.129 14.6625 21.129 14.505 21.039C14.3475 20.949 14.25 20.784 14.25 20.604C14.25 20.424 14.3475 20.2515 14.505 20.1615L22.0125 15.8265C22.2525 15.6915 22.56 15.774 22.7025 16.014C22.845 16.254 22.7625 16.5615 22.5225 16.704Z" fill="#D9A600"/>
<path d="M11.7901 15.4138L8.02514 17.5887C7.78514 17.7237 7.47764 17.6412 7.33514 17.4012C7.19264 17.1612 7.27514 16.8537 7.51514 16.7112L11.2801 14.5362C11.4376 14.4462 11.6326 14.4462 11.7901 14.5362C11.9476 14.6262 12.0451 14.7913 12.0451 14.9788C12.0451 15.1513 11.9476 15.3238 11.7901 15.4138Z" fill="#D9A600"/>
<path d="M25.6426 6.14568C25.4401 6.14568 25.2526 6.02568 25.1776 5.83068C25.1026 5.64318 25.1401 5.42568 25.2901 5.27568L28.5826 1.98318C28.7101 1.84818 28.8976 1.79568 29.0776 1.84818C29.2576 1.89318 29.3926 2.03568 29.4376 2.20818C29.4826 2.38818 29.4301 2.57568 29.3026 2.70318L26.0101 5.99568C25.9051 6.09318 25.7776 6.14568 25.6426 6.14568Z" fill="#FEC000"/>
<path d="M26.4004 8.42478C26.1754 8.42478 25.9729 8.27478 25.9129 8.05728C25.8529 7.83978 25.9429 7.60728 26.1379 7.48728L28.6729 5.96478C28.8304 5.86728 29.0254 5.85978 29.1829 5.94978C29.3404 6.03978 29.4454 6.20478 29.4454 6.39228C29.4454 6.57228 29.3479 6.74478 29.1904 6.83478L26.6554 8.35728C26.5879 8.39478 26.4979 8.42478 26.4004 8.42478Z" fill="#FEC000"/>
<path d="M23.363 5.8879C23.1905 5.8879 23.0255 5.7979 22.9355 5.6479C22.8455 5.4979 22.838 5.3104 22.913 5.1529L24.4355 2.1154C24.563 1.8679 24.863 1.7629 25.118 1.8904C25.3655 2.0179 25.4705 2.3179 25.343 2.5729L23.8205 5.6104C23.7305 5.7829 23.5505 5.8879 23.363 5.8879Z" fill="#FEC000"/>
<path d="M11.7003 4.87764C11.4978 4.87764 11.3178 4.75764 11.2353 4.57014L9.71279 1.02264C9.60779 0.767637 9.72779 0.475137 9.98279 0.362637C10.2378 0.250137 10.5303 0.370137 10.6428 0.625137L12.1653 4.17264C12.2328 4.33014 12.2178 4.51014 12.1203 4.65264C12.0303 4.78764 11.8728 4.87764 11.7003 4.87764Z" fill="#FEC000"/>
<path d="M13.7331 4.87781C13.4556 4.87781 13.2231 4.65281 13.2231 4.36781V1.33031C13.2231 1.05281 13.4481 0.820312 13.7331 0.820312C14.0106 0.820312 14.2431 1.04531 14.2431 1.33031V4.36781C14.2356 4.65281 14.0106 4.87781 13.7331 4.87781Z" fill="#FEC000"/>
<path d="M9.67538 5.88954C9.51788 5.88954 9.37539 5.82204 9.27789 5.70204L7.25288 3.16704C7.08038 2.94954 7.11038 2.62704 7.33538 2.45454C7.55288 2.28204 7.87538 2.31204 8.04788 2.53704L10.0729 5.07204C10.1929 5.22204 10.2154 5.43204 10.1329 5.61204C10.0504 5.77705 9.87038 5.88954 9.67538 5.88954Z" fill="#FEC000"/>
<path d="M18.1651 7.63594L15.8701 9.93094C16.5076 9.30094 16.5076 8.27344 15.8701 7.63594C15.2401 6.99844 14.2126 6.99844 13.5751 7.63594L10.0876 11.1234C10.1176 11.0934 9.66758 11.5434 8.22008 12.9909C8.63258 12.5784 8.86508 12.0084 8.85758 11.4234C8.85008 10.8384 8.60258 10.2834 8.17508 9.87844C7.74758 9.49594 7.09508 9.51844 6.69758 9.93094L5.16758 11.4609L3.03758 13.5909C-0.05242 16.6809 -0.33742 21.7134 2.60258 24.9384C4.09508 26.5809 6.19508 27.5484 8.41508 27.6009C10.6351 27.6534 12.7801 26.7984 14.3476 25.2234L21.2326 18.3384C21.8701 17.7234 21.9226 16.7184 21.3601 16.0434C21.0601 15.7134 20.6401 15.5184 20.1976 15.5034C19.7551 15.4884 19.3201 15.6609 19.0051 15.9759L21.1726 13.8084C21.8101 13.1934 21.8701 12.1884 21.3001 11.5134C21.0001 11.1834 20.5801 10.9884 20.1376 10.9734C19.6951 10.9584 19.2601 11.1309 18.9451 11.4459L20.4076 9.98344C21.0451 9.36844 21.0976 8.36344 20.5351 7.68844C20.2351 7.35844 19.8151 7.16344 19.3726 7.14844C18.9151 7.15594 18.4801 7.32094 18.1651 7.63594Z" fill="#FFE670"/>
<path d="M15.8628 10.6633L10.5003 16.0258C10.3053 16.2208 9.98283 16.2133 9.78783 16.0183C9.59283 15.8233 9.59283 15.5083 9.78033 15.3058L15.1428 9.94334C15.3453 9.74834 15.6603 9.75584 15.8553 9.95084C16.0503 10.1458 16.0503 10.4608 15.8628 10.6633Z" fill="#EBB300"/>
<path d="M18.9901 16.718L15.0901 20.618C14.9626 20.753 14.7751 20.8055 14.5951 20.753C14.4151 20.708 14.2801 20.5655 14.2351 20.393C14.1901 20.213 14.2426 20.0255 14.3701 19.898L18.2701 15.998C18.4651 15.803 18.7876 15.8105 18.9826 16.0055C19.1776 16.2005 19.1776 16.5155 18.9901 16.718Z" fill="#EBB300"/>
<path d="M18.9226 12.1866L12.7876 18.3216C12.5926 18.5166 12.2701 18.5166 12.0676 18.3216C11.8726 18.1266 11.8726 17.8041 12.0676 17.6016L18.2026 11.4666C18.3976 11.2716 18.7201 11.2716 18.9226 11.4666C19.1176 11.6691 19.1176 11.9916 18.9226 12.1866Z" fill="#EBB300"/>
<path d="M8.21273 13.7188L5.13773 16.7938C4.94273 16.9888 4.62023 16.9888 4.41773 16.7938C4.22273 16.5988 4.22273 16.2763 4.41773 16.0738L7.48523 12.9988C7.61273 12.8638 7.80023 12.8113 7.98023 12.8638C8.16023 12.9088 8.29523 13.0513 8.34023 13.2238C8.40023 13.4038 8.34773 13.5913 8.21273 13.7188Z" fill="#EBB300"/>
</svg>
