<svg width="36" height="37" viewBox="0 0 36 37" fill="none" xmlns="http://www.w3.org/2000/svg">
<path d="M5.22783 14.557L3.95283 13.282C2.86533 12.1945 2.86533 10.4245 3.95283 9.33703C4.47783 8.81203 5.18283 8.51953 5.92533 8.51953C6.66783 8.51953 7.37283 8.81203 7.89783 9.33703L9.04533 10.4845L7.81533 11.7145L6.66783 10.567C6.47283 10.372 6.21033 10.2595 5.92533 10.2595C5.64033 10.2595 5.38533 10.3645 5.18283 10.567C4.77783 10.972 4.77783 11.6395 5.18283 12.0445L6.45783 13.3195L5.22783 14.557Z" fill="#00607F"/>
<path d="M24.2783 10.7969H26.0183V13.8719H24.2783V10.7969Z" fill="#F20051"/>
<path d="M28.8984 16.7734H31.9734V18.5134H28.8984V16.7734Z" fill="#F20051"/>
<path d="M27.5332 14.1125L29.7082 11.9375L30.9382 13.1675L28.7632 15.3425L27.5332 14.1125Z" fill="#F20051"/>
<path d="M6.68277 12.1291C5.05527 13.7566 4.15527 15.9241 4.15527 18.2266C4.15527 20.5291 5.05527 22.6966 6.68277 24.3241C8.27277 25.9141 10.3878 26.8066 12.6303 26.8516C12.6828 26.8516 12.7278 26.8516 12.7803 26.8516L15.5628 18.3466L12.7803 9.60156C10.4778 9.60156 8.31777 10.4941 6.68277 12.1291Z" fill="#FFEE32"/>
<path d="M26.1606 19.3923L23.7531 19.5798L22.2231 18.0498L23.5206 16.7523L18.8856 12.1173C17.2581 10.4898 15.0906 9.58984 12.7881 9.58984V26.8398C14.7831 26.8398 16.6956 26.1573 18.2331 24.9048L28.3881 28.9923L32.8656 26.0898L26.1606 19.3923Z" fill="#FFB54C"/>
<path d="M9.54807 14.9835C8.68557 15.846 8.20557 17.001 8.20557 18.2235C8.20557 19.446 8.68557 20.601 9.54807 21.4635C10.4406 22.356 11.6181 22.806 12.7881 22.806L13.8231 18.5835L12.7881 13.6485C11.5656 13.641 10.4106 14.1135 9.54807 14.9835Z" fill="#FFB54C"/>
<path d="M16.0281 14.9831C15.1656 14.1206 14.0106 13.6406 12.7881 13.6406V22.8056C13.9581 22.8056 15.1356 22.3556 16.0281 21.4631C16.8906 20.6006 17.3706 19.4456 17.3706 18.2231C17.3706 17.0006 16.8906 15.8456 16.0281 14.9831Z" fill="#FF8756"/>
</svg>
