<svg width="83" height="23" viewBox="0 0 83 23" fill="none" xmlns="http://www.w3.org/2000/svg">
<rect y="6.17188" width="1.53993" height="11.1803" rx="0.769966" fill="white"/>
<rect opacity="0.4" x="76.0278" y="6.17188" width="1.53993" height="11.1803" rx="0.769966" fill="white"/>
<rect opacity="0.4" x="65.1729" y="5.44922" width="1.53993" height="12.6229" rx="0.769966" fill="white"/>
<rect x="21.7197" y="6.17188" width="1.53993" height="11.1803" rx="0.769966" fill="white"/>
<rect opacity="0.4" x="43.4395" y="6.89453" width="1.53993" height="9.7377" rx="0.769966" fill="white"/>
<rect x="10.8647" y="6.17188" width="1.53993" height="11.1803" rx="0.769966" fill="white"/>
<rect opacity="0.4" x="32.5884" y="9.77734" width="1.53993" height="3.96721" rx="0.769966" fill="white"/>
<rect opacity="0.4" x="54.3076" y="4.73047" width="1.53993" height="14.0656" rx="0.769966" fill="white"/>
<rect x="2.71143" y="2.19922" width="1.53993" height="19.1148" rx="0.769966" fill="white"/>
<rect opacity="0.4" x="78.749" y="2.19922" width="1.53993" height="19.1148" rx="0.769966" fill="white"/>
<rect opacity="0.4" x="67.8838" y="6.89453" width="1.53993" height="9.7377" rx="0.769966" fill="white"/>
<rect x="24.4443" y="6.17188" width="1.53993" height="11.1803" rx="0.769966" fill="white"/>
<rect opacity="0.4" x="46.1641" y="8.69531" width="1.53993" height="6.13115" rx="0.769966" fill="white"/>
<rect x="13.5762" y="7.25391" width="1.53993" height="9.01639" rx="0.769966" fill="white"/>
<rect opacity="0.4" x="35.2959" y="6.89453" width="1.53993" height="9.7377" rx="0.769966" fill="white"/>
<rect opacity="0.4" x="57.0156" y="4.73047" width="1.53993" height="14.0656" rx="0.769966" fill="white"/>
<rect x="5.43262" y="3.64844" width="1.53993" height="16.2295" rx="0.769966" fill="white"/>
<rect opacity="0.4" x="81.46" y="3.64844" width="1.53993" height="16.2295" rx="0.769966" fill="white"/>
<rect opacity="0.4" x="70.5952" y="4.73047" width="1.53993" height="14.0656" rx="0.769966" fill="white"/>
<rect x="27.1523" y="7.97266" width="1.53993" height="7.57377" rx="0.769966" fill="white"/>
<rect opacity="0.4" x="48.8721" y="4.73047" width="1.53993" height="14.0656" rx="0.769966" fill="white"/>
<rect x="16.2871" y="0.761719" width="1.53993" height="22" rx="0.769966" fill="white"/>
<rect opacity="0.4" x="38.0205" y="1.48047" width="1.53993" height="20.5574" rx="0.769966" fill="white"/>
<rect opacity="0.4" x="59.7402" y="3.64844" width="1.53993" height="16.2295" rx="0.769966" fill="white"/>
<rect x="8.14355" y="7.61328" width="1.53993" height="8.29508" rx="0.769966" fill="white"/>
<rect opacity="0.4" x="73.3164" y="4.73047" width="1.53993" height="14.0656" rx="0.769966" fill="white"/>
<rect opacity="0.4" x="29.8633" y="6.89453" width="1.53993" height="9.7377" rx="0.769966" fill="white"/>
<rect opacity="0.4" x="51.5967" y="1.48047" width="1.53993" height="20.5574" rx="0.769966" fill="white"/>
<rect x="19.0088" y="6.17188" width="1.53993" height="11.1803" rx="0.769966" fill="white"/>
<rect opacity="0.4" x="40.7285" y="4.73047" width="1.53993" height="14.0656" rx="0.769966" fill="white"/>
<rect opacity="0.4" x="62.4517" y="1.48047" width="1.53993" height="20.5574" rx="0.769966" fill="white"/>
</svg>
