<svg width="30" height="31" viewBox="0 0 30 31" fill="none" xmlns="http://www.w3.org/2000/svg">
<rect y="0.988281" width="30" height="30" rx="15" fill="#333664"/>
<path d="M14.4167 10.155H9.42593C9.04775 10.155 8.68506 10.3052 8.41764 10.5726C8.15023 10.84 8 11.2027 8 11.5809V21.5624C8 21.9406 8.15023 22.3032 8.41764 22.5707C8.68506 22.8381 9.04775 22.9883 9.42593 22.9883H19.4074C19.7856 22.9883 20.1483 22.8381 20.4157 22.5707C20.6831 22.3032 20.8333 21.9406 20.8333 21.5624V16.5716" stroke="white" stroke-linecap="round" stroke-linejoin="round"/>
<path d="M19.3073 9.45027C19.6031 9.15446 20.0043 8.98828 20.4227 8.98828C20.841 8.98828 21.2422 9.15446 21.538 9.45027C21.8338 9.74607 22 10.1473 22 10.5656C22 10.9839 21.8338 11.3851 21.538 11.6809L14.4742 18.7447L11.5 19.4883L12.2436 16.5141L19.3073 9.45027Z" stroke="white" stroke-linecap="round" stroke-linejoin="round"/>
</svg>
