<svg width="246" height="228" viewBox="0 0 246 228" fill="none" xmlns="http://www.w3.org/2000/svg">
<g clip-path="url(#clip0_992_152297)">
<path d="M185.111 155.186C183.408 156.062 181.81 157.08 180.264 158.163L180.264 158.163C178.798 159.192 177.37 160.289 175.949 161.379C175.362 161.83 174.776 162.28 174.189 162.724C172.175 164.247 170.139 165.708 167.948 166.941C161.853 170.371 155.384 171.786 148.419 172.608L148.419 172.608C132.941 174.44 117.31 174.982 101.729 174.227L101.729 174.227C80.5651 173.206 57.9034 168.884 43.5243 152.988C33.5606 141.973 28.9423 126.053 31.438 111.3L31.438 111.3C33.9302 96.5473 43.4769 83.3061 56.424 76.6201C72.5152 68.3108 91.8195 70.2136 109.707 74.024C112.989 74.7231 116.281 75.4817 119.583 76.2423C134.227 79.6157 149.053 83.0312 163.938 81.4953C167.478 81.1309 171.059 80.496 174.626 79.8473C174.867 79.8035 175.108 79.7597 175.349 79.7158C178.679 79.1092 181.994 78.5053 185.276 78.1046C192.315 77.2451 199.135 77.3301 205.475 80.2985C215.655 85.0652 221.889 96.8884 221.889 108.465C221.885 120.037 216.359 131.098 208.441 139.306C201.759 146.229 193.742 150.753 185.111 155.186L185.34 155.631L185.111 155.186Z" stroke="#202223"/>
<path d="M84.4215 173.295C73.5184 172.007 62.5454 169.372 52.9077 163.598C43.2735 157.823 35.0478 148.605 31.8375 137.329C28.6272 126.053 31.1648 112.762 39.4237 105.243C49.7041 95.8847 64.9331 97.3733 78.3172 94.9189C95.571 91.7552 110.707 81.5148 126.182 72.9495C141.661 64.3876 159.085 57.201 176.385 60.8243C190.315 63.7415 202.87 73.9686 209.271 87.6091C215.672 101.25 215.768 117.981 209.521 131.435C200.509 150.846 180.608 161.253 161.336 168.03C147.136 173.026 132.536 176.785 117.727 179.263C112.282 180.172 106.727 180.911 101.242 180.049C95.7575 179.186 90.2826 176.539 86.8892 171.793L84.4148 173.295H84.4215Z" fill="#16181A"/>
<path d="M29.9924 208.664C36.4444 208.664 41.6748 207.668 41.6748 206.439C41.6748 205.211 36.4444 204.215 29.9924 204.215C23.5404 204.215 18.3101 205.211 18.3101 206.439C18.3101 207.668 23.5404 208.664 29.9924 208.664Z" fill="#16181A"/>
<path d="M24.6341 202.111C22.1065 202.111 19.2925 198.411 19.2925 195.904C19.2925 193.396 21.3239 191.281 23.8216 191.281C26.3192 191.281 28.3506 193.356 28.3506 195.904C28.3506 198.305 27.3416 202.111 24.6308 202.111H24.6341ZM23.8216 192.816C22.1698 192.816 20.8277 194.202 20.8277 195.904C20.8277 197.782 23.1022 200.576 24.6308 200.576C26.0361 200.576 26.8121 197.815 26.8121 195.904C26.8121 194.202 25.47 192.816 23.8182 192.816H23.8216Z" fill="#1E3D87"/>
<path d="M33.3728 206.109H26.7224C25.6168 206.109 24.6976 205.263 24.6044 204.16L23.229 187.586H37.1426L35.4875 204.197C35.3809 205.283 34.4651 206.112 33.3728 206.112V206.109Z" fill="#1E3D87"/>
<path d="M24.8409 167.702C24.3746 169.264 24.1648 170.869 24.4313 172.414C24.5611 173.184 24.7809 173.936 25.0873 174.656C25.4003 175.372 25.79 176.061 26.2329 176.717C26.6891 177.363 27.1754 177.999 27.7248 178.585C27.8547 178.725 27.9979 178.902 28.1378 179.071C28.2776 179.245 28.4242 179.408 28.5541 179.588L28.9237 180.154C29.0503 180.337 29.1268 180.567 29.2301 180.77C29.3367 180.973 29.3899 181.206 29.4565 181.433C29.5331 181.652 29.5465 181.895 29.5764 182.132C29.5931 182.248 29.5897 182.368 29.5798 182.488L29.5564 182.845C29.5398 182.961 29.5065 183.078 29.4832 183.194C29.4565 183.311 29.4332 183.427 29.3833 183.534L29.2501 183.86C29.1968 183.964 29.1335 184.063 29.0769 184.163C29.0236 184.267 28.9537 184.356 28.8837 184.45C28.8138 184.54 28.7505 184.636 28.6706 184.713C28.3676 185.052 28.0279 185.329 27.6249 185.555L27.3685 185.149C27.938 184.646 28.4042 183.973 28.5607 183.281C28.5907 183.198 28.5973 183.108 28.6073 183.018C28.6173 182.931 28.634 182.845 28.6373 182.755L28.624 182.492C28.624 182.405 28.6173 182.318 28.594 182.232C28.5541 182.059 28.5441 181.885 28.4641 181.716C28.3975 181.549 28.3542 181.376 28.251 181.216C28.1544 181.056 28.0878 180.89 27.9713 180.737L27.6416 180.274C27.525 180.124 27.3852 179.987 27.2586 179.841L26.849 179.394C26.5559 179.081 26.2662 178.768 25.9998 178.429C25.7201 178.102 25.4703 177.749 25.2205 177.396C24.751 176.67 24.3114 175.911 24.0017 175.092C23.692 174.273 23.4722 173.413 23.3956 172.538C23.2157 170.783 23.632 169.021 24.4013 167.516L24.8475 167.699L24.8409 167.702Z" fill="#202223"/>
<path d="M30.8853 167.23C31.7445 167.936 32.4505 168.919 32.7735 170.051C32.9434 170.614 33.0166 171.2 33.0233 171.786C33.03 172.372 32.9367 172.945 32.8202 173.508C32.6903 174.067 32.5005 174.604 32.284 175.123L32.1375 175.479C32.0942 175.589 32.0409 175.703 32.0043 175.816L31.911 176.152C31.8777 176.265 31.8744 176.372 31.8511 176.482C31.8244 176.595 31.8344 176.698 31.8278 176.805C31.8144 176.915 31.8444 177.011 31.8544 177.118C31.8577 177.224 31.9077 177.314 31.9277 177.418C31.9743 177.507 32.0076 177.611 32.0709 177.694C32.284 178.057 32.6936 178.363 33.1232 178.56L33.03 179.033C32.4205 178.969 31.8511 178.71 31.3948 178.227C31.2816 178.11 31.195 177.967 31.1018 177.827C31.0352 177.677 30.9419 177.531 30.902 177.371C30.8587 177.211 30.8054 177.051 30.7987 176.891C30.7821 176.732 30.7588 176.565 30.7721 176.412C30.7854 176.259 30.7754 176.092 30.8087 175.946L30.902 175.496C30.9386 175.35 30.9919 175.213 31.0352 175.07C31.0818 174.927 31.1284 174.783 31.1717 174.673C31.3649 174.201 31.5014 173.711 31.628 173.228C31.7445 172.742 31.8144 172.252 31.8477 171.763C31.8711 171.273 31.8378 170.787 31.7545 170.304C31.5847 169.338 31.1318 168.426 30.5356 167.563L30.8853 167.234V167.23Z" fill="#202223"/>
<path d="M207.473 209.748C220.378 209.748 230.841 208.199 230.841 206.288C230.841 204.377 220.378 202.828 207.473 202.828C194.567 202.828 184.104 204.377 184.104 206.288C184.104 208.199 194.567 209.748 207.473 209.748Z" fill="#16181A"/>
<path d="M208.961 149.949H205.681V182.026H208.961V149.949Z" fill="#284820"/>
<path d="M208.139 147.794C208.096 150.115 207.879 152.07 207.699 153.336C207.559 154.308 207.443 154.867 207.443 154.867C198.491 151.964 194.382 146.412 192.673 140.814C192.514 140.304 192.377 139.792 192.26 139.279C190.452 131.489 192.876 124.066 192.876 124.066C196.983 124.926 200.016 126.714 202.244 129.015C202.627 129.408 202.984 129.814 203.32 130.237C207.446 135.409 208.235 142.539 208.139 147.797V147.794Z" fill="#4A893B"/>
<path d="M219.744 132.287C219.564 138.515 217.143 145.772 209.63 152.738C209.054 153.274 208.448 153.807 207.809 154.34C207.742 154.4 207.672 154.453 207.606 154.51C207.606 154.51 206.36 152.685 205.078 149.714C205.058 149.671 205.041 149.631 205.025 149.588C204.575 148.539 204.122 147.35 203.723 146.048C203.393 144.986 203.1 143.857 202.86 142.664C201.958 138.079 201.954 132.644 204.452 127.266C206.327 123.213 209.624 119.196 215.015 115.59C215.015 115.59 220.017 122.736 219.741 132.291L219.744 132.287Z" fill="#4A893B"/>
<path opacity="0.5" d="M209.63 152.737C209.054 153.273 208.448 153.806 207.809 154.339C207.742 154.398 207.672 154.452 207.606 154.508C207.606 154.508 206.36 152.683 205.078 149.713C205.061 149.673 205.041 149.626 205.025 149.586C204.915 149.333 204.808 149.07 204.698 148.8C204.658 148.697 204.615 148.591 204.575 148.484C204.505 148.304 204.435 148.124 204.365 147.938C204.312 147.791 204.259 147.638 204.205 147.488C204.149 147.332 204.092 147.175 204.036 147.015C203.929 146.702 203.822 146.379 203.723 146.05C203.393 144.987 203.1 143.858 202.86 142.666C202.121 138.926 201.984 134.62 203.32 130.238C202.983 129.818 202.627 129.412 202.244 129.016C201.381 131.29 199.983 136.502 199.816 141.204C197.745 140.392 195.257 139.729 192.26 139.276C192.377 139.786 192.513 140.298 192.673 140.811C191.397 140.508 190.015 140.238 188.527 140.019C189.706 144.035 194.428 156.823 206.75 157.016C207.063 157.023 207.379 157.016 207.702 157.006C208.208 156.989 208.728 156.949 209.264 156.889C209.264 156.889 209.817 155.148 209.63 152.74V152.737Z" fill="#284820"/>
<path d="M207.779 156.331C207.779 156.331 207.779 156.351 207.779 156.361C207.772 156.438 207.765 156.511 207.759 156.581C207.752 156.615 207.749 156.648 207.745 156.681C207.739 156.741 207.732 156.794 207.725 156.851C207.705 157.021 207.679 157.177 207.656 157.327C207.639 157.427 207.622 157.52 207.602 157.614C207.439 158.439 207.256 158.932 207.256 158.932C206.38 158.989 205.544 158.986 204.738 158.932C190.149 157.953 187.155 139.82 187.155 139.82C187.624 139.88 188.084 139.944 188.533 140.013C190.025 140.233 191.404 140.503 192.68 140.806C197.951 142.062 201.441 143.95 203.729 146.041C204.419 146.667 204.995 147.317 205.478 147.969C206.83 149.791 207.459 151.659 207.702 153.328C207.755 153.671 207.789 154.007 207.809 154.333C207.855 155.059 207.835 155.732 207.782 156.328L207.779 156.331Z" fill="#4A893B"/>
<path opacity="0.38" d="M219.745 132.285C219.655 135.399 219.005 138.769 217.437 142.236C215.872 145.699 213.387 149.256 209.631 152.739C209.614 152.753 209.601 152.766 209.584 152.779C209.364 152.986 209.135 153.192 208.901 153.399C208.835 153.459 208.765 153.522 208.695 153.582C208.405 153.835 208.112 154.088 207.806 154.341C207.786 154.015 207.749 153.682 207.699 153.335C207.456 151.667 206.827 149.795 205.475 147.977C204.992 147.324 204.412 146.675 203.726 146.049C203.397 144.987 203.104 143.858 202.864 142.665C203.696 143.152 204.436 143.664 205.082 144.201C205.541 144.577 205.944 144.96 206.317 145.35C208.239 140.324 212.108 135.176 219.748 132.288L219.745 132.285Z" fill="#284820"/>
<path opacity="0.2" d="M207.779 156.335C207.779 156.335 207.779 156.355 207.779 156.365C207.772 156.441 207.766 156.515 207.759 156.585C207.752 156.618 207.749 156.651 207.746 156.684C207.739 156.744 207.732 156.798 207.726 156.854C207.706 157.024 207.679 157.181 207.656 157.331C207.636 157.43 207.623 157.524 207.603 157.617C207.439 158.443 207.256 158.936 207.256 158.936C206.38 158.992 205.544 158.989 204.739 158.936C204.602 157.93 204.212 154.19 205.082 149.711C205.191 149.142 205.325 148.562 205.478 147.973C206.83 149.794 207.459 151.663 207.702 153.331C207.756 153.674 207.789 154.01 207.809 154.337C207.856 155.063 207.836 155.735 207.782 156.331L207.779 156.335Z" fill="#284820"/>
<path d="M221.822 177.926L218.216 201.534C217.813 204.164 215.551 206.109 212.887 206.109H202.057C199.7 206.109 197.652 204.584 196.939 202.406C196.846 202.126 196.776 201.833 196.729 201.537L193.123 177.929H221.819L221.822 177.926Z" fill="#FBC342"/>
<path d="M206.873 158.967C206.873 158.967 202.92 135.533 228.053 132.152C228.053 132.152 229.629 157.832 206.873 158.967Z" fill="#4A893B"/>
<path opacity="0.4" d="M221.822 177.926L218.216 201.534C217.813 204.164 215.551 206.109 212.887 206.109H202.057C199.7 206.109 197.652 204.584 196.939 202.406C210.999 200.152 214.769 185.678 215.532 177.929H221.822V177.926Z" fill="#C89B35"/>
<path d="M169.572 206.577C169.572 203.693 143.886 201.355 112.199 201.355C80.512 201.355 54.8262 203.693 54.8262 206.577C54.8262 208.915 71.727 210.897 95.0184 211.559C97.556 215.722 93.32 220.697 90.0764 222.492C84.3784 222.775 80.2889 223.411 80.9317 224.763C83.9755 231.157 109.858 224.354 109.858 224.354C109.858 224.354 119.978 224.983 119.978 224.021C119.978 223.578 118.197 223.175 115.266 222.865L115.483 222.852L104.556 211.749C107.057 211.779 109.608 211.796 112.199 211.796C143.886 211.796 169.572 209.458 169.572 206.574V206.577Z" fill="#16181A"/>
<path d="M174.64 168.226C173.884 180.704 167.594 193.176 157.28 200.039C144.988 208.222 127.801 206.41 113.804 207.452C101.702 208.355 89.5102 209.127 77.4049 207.839C67.4876 206.78 57.4803 202.853 52.7447 193.222C47.9992 183.571 47.483 170.747 52.2319 160.979C53.7438 157.862 55.7719 155.092 58.153 152.674C58.5393 152.278 58.9423 151.891 59.3519 151.512C59.6283 151.255 59.908 151.005 60.1944 150.759C60.6307 150.379 61.0803 150.013 61.5365 149.653C61.6863 149.537 61.8362 149.42 61.9927 149.304C62.1426 149.187 62.2958 149.074 62.4523 148.961C62.6055 148.847 62.7587 148.734 62.9152 148.621C63.0318 148.538 63.1483 148.454 63.2649 148.371C63.458 148.231 63.6545 148.098 63.8543 147.965C65.6227 146.773 67.4842 145.724 69.4058 144.821C71.274 143.939 73.1989 143.196 75.1371 142.593C81.5044 140.615 88.1548 139.916 94.7253 139.05C108.669 137.222 122.862 136.596 136.919 136.606C148.388 136.606 161.299 138.324 168.969 148.168C173.298 153.726 175.077 161.116 174.644 168.223L174.64 168.226Z" fill="#EE7059"/>
<path d="M151.029 147.146C151.029 147.146 153.986 144.368 155.554 142.76C157.123 141.151 153.703 141.098 152.018 143.103C150.333 145.108 151.032 147.146 151.032 147.146H151.029Z" fill="#F8B486"/>
<path d="M69.4022 144.82C67.4806 145.723 65.6157 146.768 63.8507 147.964C63.6509 148.097 63.4544 148.23 63.2613 148.37C63.1447 148.454 63.0282 148.537 62.9116 148.62C62.7551 148.73 62.6019 148.843 62.4487 148.96C62.2955 149.073 62.1423 149.186 61.9891 149.303C61.836 149.419 61.6861 149.536 61.5329 149.652C61.0833 150.009 60.6437 150.375 60.2108 150.751L60.1908 150.761C59.9044 151.008 59.6247 151.261 59.3483 151.514C58.9387 151.894 58.5357 152.28 58.1494 152.676C58.1827 153.003 58.3958 153.316 58.7455 153.389C61.0534 153.855 62.2089 156.056 64.0672 157.309C65.4459 158.238 67.0777 158.491 68.6396 157.961C66.9578 161.521 66.032 165.055 66.758 169.041C66.9778 170.246 67.3608 171.419 67.8836 172.528C65.7223 170.922 63.6409 167.486 62.7851 163.999C62.6618 163.503 62.1623 163.193 61.6694 163.323C61.1732 163.443 60.8735 163.942 60.9934 164.439C62.0524 168.754 64.7532 172.904 67.5539 174.526C68.22 174.912 68.8993 175.158 69.572 175.272C70.1282 175.984 70.7476 176.644 71.4269 177.237L75.573 178.395L78.9565 156.566L69.4055 144.827L69.4022 144.82Z" fill="#B45442"/>
<path d="M81.4145 159.478C72.8459 156.142 66.8948 152.592 63.4414 150.227C61.2035 148.695 60.0713 145.994 60.5275 143.32L64.9467 117.565C65.4029 114.914 67.1579 112.659 69.6323 111.6C76.7223 108.56 83.6225 106.825 89.7134 105.982C89.7134 105.982 93.1269 105.706 97.4761 106.135C100.34 106.418 106.894 108.35 111.063 109.642C113.418 110.375 115.306 112.136 116.199 114.434C117.947 118.937 120.784 126.543 121.69 130.652C124.817 144.846 124.304 143.797 124.304 143.797L127.531 165.626L93.2501 167.548L84.4883 163.551L81.4145 159.478Z" fill="#718BC6"/>
<path d="M102.631 81.4633C102.631 81.4633 99.594 75.2358 91.5249 78.0798C85.6838 76.811 81.2246 83.7279 85.5306 93.1457L93.6396 95.0272L102.631 81.46V81.4633Z" fill="#1D2545"/>
<path d="M98.3251 99.0625V110.075C98.3251 112.653 96.2338 114.741 93.6595 114.741C90.1661 114.741 87.3354 111.91 87.3354 108.417V99.0625H98.3285H98.3251Z" fill="#F8B486"/>
<path d="M103.171 97.6768C102.874 99.202 102.455 100.764 101.849 102.139C100.79 104.554 99.1777 106.392 96.7101 106.445C90.9388 106.568 86.4863 98.6825 86.4863 98.6825L87.4088 87.9226L91.7913 83.0039L103.86 90.4602C103.86 90.4602 103.893 93.9603 103.171 97.6834V97.6768Z" fill="#F8B486"/>
<path d="M87.2188 95.5314C87.2188 95.5314 88.411 90.6893 92.5604 87.5389C92.5604 87.5389 98.5948 95.4181 104.975 91.6117C111.356 87.8053 108.589 80.3123 102.631 81.4646L95.7907 80.6953L87.2188 83.4228L85.7568 90.1498L87.2188 95.5314Z" fill="#1D2545"/>
<path opacity="0.4" d="M93.2766 151.336C87.462 138.775 80.1356 144.769 78.3406 140.16C75.8263 133.7 76.3025 126.386 76.2925 124.172L72.7925 143.887C72.7925 143.887 80.6085 144.629 83.4991 149.338L93.2766 151.336Z" fill="#1E3D87"/>
<path d="M76.4687 123.836C76.2522 125.521 75.9925 127.203 75.7294 128.881C75.4696 130.559 75.1666 132.231 74.8902 133.91C74.5971 135.585 74.2908 137.253 73.9644 138.922L73.4649 141.419C73.285 142.248 73.1152 143.081 72.922 143.91L72.6689 143.864C72.7722 143.018 72.8987 142.178 73.012 141.336L73.3983 138.815C73.6613 137.137 73.9477 135.461 74.2475 133.79C74.5605 132.121 74.8502 130.446 75.1833 128.781C75.5096 127.113 75.846 125.448 76.2189 123.789L76.472 123.836H76.4687Z" fill="#1E3D87"/>
<path d="M110.434 120.719C110.9 122.91 111.329 125.105 111.749 127.306C112.179 129.504 112.562 131.708 112.971 133.91C113.361 136.114 113.744 138.319 114.113 140.527L114.65 143.84C114.816 144.946 114.993 146.052 115.146 147.161L114.909 147.204C114.67 146.108 114.453 145.013 114.227 143.917L113.584 140.62C113.171 138.422 112.765 136.218 112.368 134.016C111.992 131.808 111.592 129.607 111.233 127.399C110.87 125.191 110.513 122.98 110.19 120.765L110.427 120.722L110.434 120.719Z" fill="#1E3D87"/>
<path opacity="0.4" d="M112.059 130.887C112.468 134.883 111.852 155.587 102.221 155.893L102.324 160.402L117.494 159.48L112.062 130.887H112.059Z" fill="#1E3D87"/>
<path d="M92.2544 155.328C99.0946 152.407 100.403 152.517 101.326 152.56C104.476 152.714 109.012 159.018 109.012 159.018L108.935 160.17H91.6416L92.2577 155.328H92.2544Z" fill="#E38B6D"/>
<path d="M118.566 159.043H97.2759V162.27H118.566V159.043Z" fill="#16181A"/>
<path d="M147.519 162.273H110.521L118.823 129.211H155.821L147.519 162.273Z" fill="#FBC342"/>
<path d="M150.872 148.755C147.213 148.209 135.374 145.748 110.983 160.611L110.42 162.659L147.519 162.276L150.872 148.755Z" fill="#C89B35"/>
<path d="M151.572 156.098C151.342 157.653 151.266 159.941 146.44 159.651L145.018 158.922L146.363 157.443L149.264 155.965L151.569 156.098H151.572Z" fill="#F8B486"/>
<path d="M152.028 151.898C152.028 151.898 154.669 155.349 152.015 156.408C149.131 157.56 146.367 157.447 146.367 157.447C147.596 153.986 151.592 154.22 151.592 154.22L152.028 151.902V151.898Z" fill="#F8B486"/>
<path d="M152.105 149.668C152.105 149.668 155.741 153.051 152.361 153.997C147.585 155.336 146.11 155.433 146.11 155.433C145.854 152.895 150.593 151.256 150.593 151.256L152.105 149.668Z" fill="#F8B486"/>
<path d="M151.362 146.719C151.362 146.719 156.334 149.743 151.668 151.434C147.003 153.126 145.904 153.099 145.904 153.099C145.647 150.562 150.642 149.693 150.642 149.693L151.358 146.722L151.362 146.719Z" fill="#F8B486"/>
<path d="M93.8657 205.907C94.4285 205.6 103.347 207.545 113.234 200.219L100.476 196.582L93.8657 205.907Z" fill="#1D2545"/>
<path d="M150.523 163.585C150.946 162.979 151.312 162.086 150.779 161.577C150.223 161.041 149.314 161.513 148.728 162.016C147.699 162.902 146.763 163.875 145.901 164.907L124.361 168.91L94.8452 176.083L99.9204 182.56C114.68 183.636 123.082 183.912 132.32 182.284C137.029 181.455 141.235 180.596 144.375 178.038C145.121 177.425 145.831 176.4 145.344 175.567C145.015 175.004 144.332 174.858 143.646 174.864C145.225 174.491 146.753 173.948 148.208 173.239C148.858 172.926 149.58 172.433 149.564 171.714C149.554 171.198 149.138 170.761 148.658 170.575C148.178 170.392 147.649 170.405 147.136 170.442C145.168 170.588 143.223 171.021 141.375 171.714C144.738 169.366 148.162 166.932 150.526 163.585H150.523ZM141.325 171.744C141.325 171.744 141.325 171.734 141.335 171.727C141.345 171.727 141.355 171.721 141.365 171.714C141.352 171.724 141.338 171.734 141.325 171.741V171.744Z" fill="#B45442"/>
<path d="M101.092 166.396C101.092 166.396 129.839 152.716 139.216 153.329C148.594 153.945 148.288 165.627 144.751 170.699C141.215 175.771 132.916 182.534 102.321 180.536L101.092 166.393V166.396Z" fill="#1D2545"/>
<path d="M115.479 222.856C113.924 223.295 111.716 223.402 108.679 222.919C108.679 222.919 104.743 223.942 100.87 224.741C98.2453 225.284 95.6544 225.727 94.329 225.683C94.2158 225.683 94.1025 225.673 93.986 225.663C91.4417 225.483 88.2381 224.158 86.5396 222.263C86.5396 222.256 86.533 222.25 86.5263 222.246C86.0601 221.724 85.7038 221.154 85.5139 220.558C84.5915 217.687 86.5396 214.204 97.0964 214.92C97.0964 214.92 100.58 214.101 101.402 211.537C102.225 208.976 96.1773 196.677 96.1773 196.677L104.786 190.836L113.241 200.214C113.241 200.214 114.523 208.669 114.523 211.437C114.523 211.437 118.107 216.562 118.623 218.816C118.953 220.255 118.233 222.073 115.482 222.849L115.479 222.856Z" fill="#D4DEF2"/>
<path d="M67.0742 144.984C68.06 144.605 69.0657 144.298 70.0814 144.015C70.5909 143.876 71.1004 143.746 71.6233 143.646C71.883 143.592 72.1461 143.549 72.4125 143.513C72.5457 143.496 72.679 143.479 72.8188 143.469C72.9654 143.463 73.1119 143.463 73.2484 143.476C74.354 143.592 75.3531 143.939 76.3488 144.305C77.3379 144.681 78.307 145.104 79.2561 145.561C80.2085 146.013 81.1377 146.513 82.0501 147.043C82.9626 147.569 83.8618 148.125 84.7343 148.718C86.4693 149.913 88.1378 151.229 89.5731 152.78L89.3899 152.964C88.6173 152.264 87.8114 151.605 86.9755 150.985C86.1463 150.359 85.2871 149.77 84.4079 149.214C82.6662 148.075 80.8346 147.076 78.973 146.15C78.0406 145.687 77.0915 145.261 76.129 144.881C75.1666 144.522 74.1809 144.135 73.1985 144.002C73.0752 143.985 72.9587 143.982 72.8455 143.982C72.7222 143.989 72.5957 143.999 72.4692 144.012C72.2161 144.039 71.963 144.075 71.7065 144.122C71.197 144.212 70.6875 144.315 70.1813 144.428C69.1656 144.658 68.1532 144.928 67.1608 145.234L67.0742 144.991V144.984Z" fill="#1E3D87"/>
<path d="M72.193 185.228C75.6531 184.998 79.0499 185.244 81.5176 184.382C84.1551 183.459 91.0486 184.075 91.0486 184.075L87.2555 178.617L71.8833 182.46L72.1897 185.228H72.193Z" fill="#B45442"/>
<path d="M72.346 175.159C68.8093 169.471 68.8094 158.248 73.2685 153.176C78.3637 147.379 89.2568 145.184 94.9448 151.948C100.633 158.711 111.086 183.461 113.238 200.219C113.238 200.219 101.708 196.376 93.8692 205.907C93.8692 205.907 83.5688 182.386 81.4175 173.777L75.5763 178.389L72.3494 175.162L72.346 175.159Z" fill="#1E3D87"/>
<path d="M81.4143 173.777C81.4143 173.777 79.8757 173.214 77.7244 174.649C77.7244 174.649 60.9168 174.29 57.177 178.083C53.4372 181.876 56.3045 186.948 61.7893 187.51C66.3917 187.983 75.3233 184.413 78.0774 183.254C78.6369 183.018 79.2296 182.878 79.8357 182.838L84.3881 182.542L81.4176 173.78L81.4143 173.777Z" fill="#D4DEF2"/>
<path d="M88.1279 95.8417C88.1279 95.8417 87.0023 92.1053 84.5213 93.041C82.0403 93.9735 83.3624 98.8389 88.2578 100.191L88.1279 95.8417Z" fill="#F8B486"/>
<path d="M85.4873 116.443C86.7128 117.305 88.0149 118.048 89.4003 118.574C90.7823 119.093 92.2409 119.42 93.7029 119.387C95.1615 119.37 96.6068 119.01 97.9123 118.341L98.4018 118.091C98.5617 118.001 98.7115 117.891 98.8647 117.791C99.1711 117.588 99.4874 117.395 99.7605 117.142L100.193 116.792L100.41 116.616C100.48 116.556 100.543 116.486 100.61 116.423C100.873 116.16 101.139 115.896 101.409 115.637L101.592 115.79C101.349 116.083 101.103 116.373 100.853 116.662C100.79 116.732 100.73 116.809 100.663 116.879L100.457 117.075L100.037 117.472C99.7639 117.745 99.4475 117.961 99.1378 118.191C98.9813 118.301 98.8314 118.424 98.6682 118.527L98.1654 118.814C96.8166 119.573 95.2647 119.986 93.7095 119.993C92.1577 119.996 90.6158 119.66 89.2038 119.054C87.7884 118.454 86.4863 117.622 85.3374 116.629L85.4839 116.439L85.4873 116.443Z" fill="#1E3D87"/>
<path d="M78.8668 163.961L80.1989 168.623C80.6518 170.175 81.0747 171.73 81.5476 173.276C82.0105 174.821 82.4734 176.366 82.9596 177.904C83.2027 178.674 83.4425 179.443 83.7089 180.206C83.8388 180.589 83.9554 180.975 84.0952 181.351C84.2318 181.731 84.3683 182.111 84.4982 182.494L84.2751 182.587C83.9321 181.851 83.609 181.105 83.306 180.352C83.0029 179.6 82.7299 178.837 82.4501 178.074C81.904 176.546 81.4211 175.001 80.9648 173.445C80.5219 171.887 80.0823 170.328 79.696 168.756C79.3064 167.185 78.9401 165.609 78.6304 164.018L78.8635 163.961H78.8668Z" fill="#1D2545"/>
<path opacity="0.1" d="M115.479 222.853C113.924 223.292 111.716 223.399 108.679 222.916C108.679 222.916 102.171 224.581 98.0586 225.237C102.285 224.391 108.436 219.166 107.743 215.859C113.814 217.857 115.469 220.895 115.479 222.853Z" fill="#1E3D87"/>
<path opacity="0.4" d="M99.1311 223.429C98.3485 224.394 97.1796 225.05 95.9508 225.377C95.3081 225.55 94.6487 225.64 93.9826 225.663C91.4384 225.483 88.2347 224.158 86.5363 222.263C86.5363 222.256 86.5296 222.25 86.523 222.246C86.3431 222 86.1733 221.747 86.0234 221.48C86.9259 222.323 87.9117 223.012 88.9707 223.539C89.5035 223.792 90.0397 224.035 90.6025 224.201C90.8755 224.304 91.162 224.368 91.445 224.448C91.7248 224.534 92.0178 224.568 92.3075 224.621C94.6054 225.007 97.0431 224.767 99.1278 223.429H99.1311Z" fill="#1E3D87"/>
<path d="M60.6745 30.8086H41.5658C36.1401 30.8086 31.7417 35.207 31.7417 40.6327V59.7414C31.7417 65.1671 36.1401 69.5655 41.5658 69.5655H60.6745C66.1002 69.5655 70.4986 65.1671 70.4986 59.7414V40.6327C70.4986 35.207 66.1002 30.8086 60.6745 30.8086Z" fill="#16181A"/>
<path d="M89.6766 45.3962C95.4612 45.3962 100.15 40.7073 100.15 34.9227C100.15 29.1381 95.4612 24.4492 89.6766 24.4492C83.892 24.4492 79.2031 29.1381 79.2031 34.9227C79.2031 40.7073 83.892 45.3962 89.6766 45.3962Z" fill="#202223"/>
<path d="M170.894 24.1875H151.785C146.359 24.1875 141.961 28.5859 141.961 34.0116V53.1203C141.961 58.546 146.359 62.9444 151.785 62.9444H170.894C176.319 62.9444 180.718 58.546 180.718 53.1203V34.0116C180.718 28.5859 176.319 24.1875 170.894 24.1875Z" fill="#16181A"/>
<path d="M199.938 82.9102H182.921C178.089 82.9102 174.172 86.827 174.172 91.6586V108.676C174.172 113.508 178.089 117.424 182.921 117.424H199.938C204.77 117.424 208.687 113.508 208.687 108.676V91.6586C208.687 86.827 204.77 82.9102 199.938 82.9102Z" fill="#292B2C"/>
<path d="M119.053 49.9095C111.923 49.9095 106.146 44.1316 106.146 37.0016C106.146 29.8717 111.923 24.0938 119.053 24.0938C126.183 24.0938 131.961 29.8717 131.961 37.0016C131.961 44.1316 126.183 49.9095 119.053 49.9095Z" fill="#16181A"/>
<path d="M113.122 43.1739C113.122 39.9003 115.776 37.2461 119.05 37.2461C122.323 37.2461 124.978 39.9003 124.978 43.1739C123.769 43.6934 121.567 44.4527 118.74 44.3927C116.239 44.3428 114.281 43.6734 113.119 43.1739H113.122Z" fill="#5E6272"/>
<path d="M119.053 35.6932C117.291 35.6932 115.863 34.2645 115.863 32.5028C115.863 30.7412 117.291 29.3125 119.053 29.3125C120.815 29.3125 122.243 30.7412 122.243 32.5028C122.243 34.2645 120.815 35.6932 119.053 35.6932Z" fill="#5E6272"/>
<path d="M207.325 83.416C207.325 80.1425 209.979 77.4883 213.252 77.4883C216.526 77.4883 219.18 80.1425 219.18 83.416C217.971 83.9356 215.77 84.6948 212.943 84.6349C210.442 84.5849 208.484 83.9156 207.321 83.416H207.325Z" fill="#E54934"/>
<path d="M213.252 76.9393C211.491 76.9393 210.062 75.5106 210.062 73.7489C210.062 71.9873 211.491 70.5586 213.252 70.5586C215.014 70.5586 216.443 71.9873 216.443 73.7489C216.443 75.5106 215.014 76.9393 213.252 76.9393Z" fill="#E54934"/>
<path d="M159.341 126.611C159.341 123.338 161.995 120.684 165.269 120.684C168.543 120.684 171.197 123.338 171.197 126.611C169.988 127.131 167.787 127.89 164.959 127.83C162.458 127.78 160.5 127.111 159.338 126.611H159.341Z" fill="#3957A3"/>
<path d="M165.269 120.131C163.508 120.131 162.079 118.702 162.079 116.94C162.079 115.179 163.508 113.75 165.269 113.75C167.031 113.75 168.46 115.179 168.46 116.94C168.46 118.702 167.031 120.131 165.269 120.131Z" fill="#3957A3"/>
<path d="M195.389 92.1289H187.463C185.212 92.1289 183.387 93.9539 183.387 96.2051V104.131C183.387 106.382 185.212 108.207 187.463 108.207H195.389C197.64 108.207 199.465 106.382 199.465 104.131V96.2051C199.465 93.9539 197.64 92.1289 195.389 92.1289Z" fill="#6AC5D4"/>
<path d="M130.894 69.9136H81.7473C77.3814 69.9136 73.8081 66.3403 73.8081 61.9744C73.8081 57.6085 77.3814 54.0352 81.7473 54.0352H130.894C135.26 54.0352 138.834 57.6085 138.834 61.9744C138.834 66.3403 135.26 69.9136 130.894 69.9136Z" fill="#16181A"/>
<path d="M83.3227 58.0625L84.4716 60.3936L87.0459 60.7666L85.1843 62.5816L85.6239 65.1458L83.3227 63.9336L81.0215 65.1458L81.4611 62.5816L79.5962 60.7666L82.1704 60.3936L83.3227 58.0625Z" fill="#E54934"/>
<path d="M94.0356 58.0625L95.1845 60.3936L97.7587 60.7666L95.8972 62.5816L96.3367 65.1458L94.0356 63.9336L91.7344 65.1458L92.174 62.5816L90.3091 60.7666L92.8833 60.3936L94.0356 58.0625Z" fill="#E54934"/>
<path d="M104.749 58.0625L105.898 60.3936L108.472 60.7666L106.611 62.5816L107.05 65.1458L104.749 63.9336L102.448 65.1458L102.887 62.5816L101.026 60.7666L103.597 60.3936L104.749 58.0625Z" fill="#E54934"/>
<path d="M115.462 58.0625L116.611 60.3936L119.186 60.7666L117.324 62.5816L117.764 65.1458L115.462 63.9336L113.161 65.1458L113.601 62.5816L111.739 60.7666L114.31 60.3936L115.462 58.0625Z" fill="#E54934"/>
<path d="M143.723 108L144.875 110.331L147.446 110.707L145.585 112.522L146.024 115.083L143.723 113.874L141.422 115.083L141.862 112.522L140 110.707L142.574 110.331L143.723 108Z" fill="#FBC342"/>
<path d="M68.8661 77.1523L70.0151 79.4868L72.5893 79.8598L70.7277 81.6748L71.1673 84.2357L68.8661 83.0268L66.565 84.2357L67.0046 81.6748L65.1396 79.8598L67.7139 79.4868L68.8661 77.1523Z" fill="#E54934"/>
<path d="M126.176 58.0625L127.325 60.3936L129.899 60.7666L128.037 62.5816L128.477 65.1458L126.176 63.9336L123.875 65.1458L124.314 62.5816L122.453 60.7666L125.024 60.3936L126.176 58.0625Z" fill="#5E6272"/>
<path d="M130.804 92.8047C130.505 92.9978 130.185 93.1677 129.849 93.3142L132.719 98.5226L130.808 92.8047H130.804Z" fill="#16181A"/>
<path d="M170.068 40.5703H151.575V54.0377H170.068V40.5703Z" fill="#F7AF6C"/>
<path d="M151.575 40.5223L159.005 33.4456C160.021 32.4765 161.619 32.4765 162.635 33.4456L170.064 40.5223" fill="#FBC342"/>
<path d="M167.04 53.1244H154.602V38.9844H165.565L167.037 40.4563V53.1244H167.04Z" fill="#16181A"/>
<path d="M164.833 38.9844V41.189H167.04L164.833 38.9844Z" fill="#BFBEBE"/>
<path d="M165.512 41.9414H156.134V42.4443H165.512V41.9414Z" fill="#BFBEBE"/>
<path d="M165.512 42.8945H156.134V43.3974H165.512V42.8945Z" fill="#BFBEBE"/>
<path d="M165.512 43.8438H156.134V44.3466H165.512V43.8438Z" fill="#BFBEBE"/>
<path d="M165.512 44.7969H156.134V45.2997H165.512V44.7969Z" fill="#BFBEBE"/>
<path d="M165.512 45.75H156.134V46.2529H165.512V45.75Z" fill="#BFBEBE"/>
<path d="M165.512 46.7031H156.134V47.206H165.512V46.7031Z" fill="#BFBEBE"/>
<path d="M165.512 47.6602H156.134V48.163H165.512V47.6602Z" fill="#BFBEBE"/>
<path d="M165.512 48.6094H156.134V49.1122H165.512V48.6094Z" fill="#BFBEBE"/>
<path d="M165.512 49.5625H156.134V50.0654H165.512V49.5625Z" fill="#BFBEBE"/>
<path d="M165.512 50.5156H156.134V51.0185H165.512V50.5156Z" fill="#BFBEBE"/>
<path d="M165.512 51.4688H156.134V51.9716H165.512V51.4688Z" fill="#BFBEBE"/>
<path d="M107.813 21.5048H95.3745V4.75391H106.338L107.809 6.22586V21.5015L107.813 21.5048Z" fill="#202223"/>
<path d="M105.605 4.75391V6.9585H107.813L105.605 4.75391Z" fill="#5E6272"/>
<path d="M106.281 7.71113H96.9028V8.21399H106.281V7.71113Z" fill="#5E6272"/>
<path d="M106.281 8.66357H96.9028V9.16643H106.281V8.66357Z" fill="#5E6272"/>
<path d="M106.281 9.61601H96.9028V10.1189H106.281V9.61601Z" fill="#5E6272"/>
<path d="M106.281 10.5684H96.9028V11.0713H106.281V10.5684Z" fill="#5E6272"/>
<path d="M106.281 11.5242H96.9028V12.0271H106.281V11.5242Z" fill="#5E6272"/>
<path d="M106.281 12.4767H96.9028V12.9795H106.281V12.4767Z" fill="#5E6272"/>
<path d="M106.281 13.4291H96.9028V13.932H106.281V13.4291Z" fill="#5E6272"/>
<path d="M106.281 14.3815H96.9028V14.8844H106.281V14.3815Z" fill="#5E6272"/>
<path d="M106.281 15.334H96.9028V15.8368H106.281V15.334Z" fill="#5E6272"/>
<path d="M106.281 16.2864H96.9028V16.7893H106.281V16.2864Z" fill="#5E6272"/>
<path d="M106.281 17.2388H96.9028V17.7417H106.281V17.2388Z" fill="#5E6272"/>
<path d="M170.068 54.0343H151.575V40.5703L160.823 47.5604L170.068 40.5703V54.0343Z" fill="#FBC342"/>
<path d="M170.068 54.034H151.575L159.005 46.9573C160.021 45.9882 161.619 45.9882 162.635 46.9573L170.064 54.034H170.068Z" fill="#EC6550"/>
<path d="M151.575 54.034L159.005 46.9573C160.021 45.9882 161.619 45.9882 162.635 46.9573L170.064 54.034" fill="#FBC342"/>
<path d="M151.575 54.0371C153.034 52.6018 154.496 51.1765 155.968 49.7578L158.179 47.6331L158.732 47.1036C158.915 46.9305 159.101 46.7406 159.325 46.5974C159.764 46.3044 160.29 46.1479 160.82 46.1445C161.349 46.1479 161.876 46.3044 162.315 46.5974C162.538 46.7406 162.725 46.9305 162.908 47.1036L163.461 47.6331L165.672 49.7578C167.144 51.1765 168.606 52.6051 170.064 54.0371C168.563 52.6518 167.064 51.2597 165.575 49.8577L163.347 47.753L162.791 47.2268C162.602 47.0503 162.428 46.8738 162.219 46.744C161.806 46.4709 161.313 46.331 160.82 46.3277C160.327 46.3277 159.834 46.4709 159.421 46.744C159.211 46.8772 159.038 47.0503 158.848 47.2268L158.292 47.753L156.064 49.8577C154.576 51.2597 153.08 52.6518 151.575 54.0371Z" fill="#1B203E"/>
<path d="M151.575 40.5703C152.261 41.0399 152.934 41.5261 153.603 42.0156L155.601 43.5009L157.576 45.0195C158.229 45.5323 158.882 46.0452 159.521 46.578C158.835 46.1084 158.162 45.6222 157.493 45.1327L155.495 43.6474L153.52 42.1288C152.867 41.616 152.215 41.1031 151.575 40.5703Z" fill="#1B203E"/>
<path d="M162.198 46.5214C162.831 45.9952 163.477 45.4857 164.123 44.9795L166.078 43.4742L168.059 42.0023C168.725 41.5194 169.391 41.0365 170.068 40.5703C169.435 41.0965 168.789 41.606 168.143 42.1122L166.188 43.6175L164.206 45.0894C163.54 45.5723 162.874 46.0552 162.198 46.5214Z" fill="#1B203E"/>
<path d="M155.548 61.6016L151.162 102.363L163.514 61.6016H155.548Z" fill="#16181A"/>
<path d="M215.497 3.35547H196.389C190.963 3.35547 186.564 7.75387 186.564 13.1796V32.2883C186.564 37.714 190.963 42.1124 196.389 42.1124H215.497C220.923 42.1124 225.321 37.714 225.321 32.2883V13.1796C225.321 7.75387 220.923 3.35547 215.497 3.35547Z" fill="#202223"/>
<path d="M161.392 85.5977H151.608C148.831 85.5977 146.58 87.849 146.58 90.6263V100.41C146.58 103.188 148.831 105.439 151.608 105.439H161.392C164.17 105.439 166.421 103.188 166.421 100.41V90.6263C166.421 87.849 164.17 85.5977 161.392 85.5977Z" fill="#292B2C"/>
<path d="M161.232 92.0703H151.765V98.9638H161.232V92.0703Z" fill="#FBC342"/>
<path d="M161.233 92.0703L157.429 95.6936C156.91 96.1898 156.091 96.1898 155.571 95.6936L151.768 92.0703" fill="#FBC342"/>
<path d="M161.233 92.0703C160.497 92.8163 159.758 93.5556 159.008 94.2849L157.879 95.3772C157.683 95.5537 157.52 95.7469 157.287 95.9134C157.053 96.0699 156.777 96.1531 156.497 96.1531C156.218 96.1531 155.941 96.0666 155.708 95.9134C155.475 95.7469 155.312 95.5537 155.115 95.3772L153.986 94.2849C153.237 93.5556 152.494 92.8163 151.762 92.0703C152.541 92.7663 153.317 93.4723 154.083 94.185L155.228 95.2573C155.422 95.4305 155.605 95.6336 155.801 95.7702C156.008 95.9034 156.251 95.9733 156.494 95.9733C156.737 95.9733 156.983 95.9034 157.187 95.7702C157.383 95.637 157.566 95.4305 157.759 95.2573L158.905 94.185C159.671 93.4723 160.447 92.7663 161.226 92.0703H161.233Z" fill="#1B203E"/>
<path d="M205.065 56.0547H195.597V62.9482H205.065V56.0547Z" fill="#FBC342"/>
<path d="M195.597 56.0547H205.065V62.9482L200.329 59.3682L195.597 62.9482V56.0547Z" fill="#FBC342"/>
<path d="M195.597 56.0547H205.065L201.262 59.6779C200.742 60.1741 199.923 60.1741 199.404 59.6779L195.601 56.0547H195.597Z" fill="#EC6550"/>
<path d="M205.065 56.0547L201.262 59.6779C200.742 60.1741 199.923 60.1741 199.404 59.6779L195.601 56.0547" fill="#FBC342"/>
<path d="M205.065 56.0547C204.329 56.8007 203.59 57.54 202.84 58.2693L201.711 59.3616C201.515 59.5381 201.352 59.7312 201.119 59.8977C200.885 60.0543 200.609 60.1375 200.329 60.1375C200.05 60.1375 199.773 60.0509 199.54 59.8977C199.307 59.7312 199.144 59.5381 198.947 59.3616L197.818 58.2693C197.069 57.54 196.326 56.8007 195.594 56.0547C196.373 56.7507 197.149 57.4567 197.915 58.1694L199.06 59.2417C199.254 59.4149 199.437 59.618 199.633 59.7545C199.84 59.8877 200.083 59.9577 200.326 59.9577C200.569 59.9577 200.816 59.8877 201.019 59.7545C201.215 59.6213 201.398 59.4149 201.591 59.2417L202.737 58.1694C203.503 57.4567 204.279 56.7507 205.058 56.0547H205.065Z" fill="#1B203E"/>
<path d="M205.065 62.9482C204.702 62.7218 204.352 62.4786 204.006 62.2355C203.656 61.9924 203.32 61.7327 202.977 61.4829C202.64 61.2198 202.304 60.9667 201.971 60.697C201.641 60.4306 201.311 60.1575 200.995 59.8711C201.358 60.0975 201.708 60.3407 202.054 60.5838C202.4 60.8269 202.74 61.0866 203.083 61.3364C203.416 61.5995 203.759 61.8526 204.089 62.1223C204.419 62.3887 204.748 62.6618 205.065 62.9482Z" fill="#1B203E"/>
<path d="M199.627 59.9023C199.314 60.1854 198.987 60.4552 198.661 60.7182C198.335 60.9847 197.998 61.2378 197.665 61.4975C197.326 61.7473 196.989 62.0004 196.646 62.2435C196.303 62.4866 195.957 62.7264 195.597 62.9495C195.91 62.6664 196.237 62.3967 196.563 62.1336C196.889 61.8672 197.226 61.6141 197.559 61.3543C197.898 61.1079 198.235 60.8515 198.578 60.6084C198.921 60.3652 199.267 60.1255 199.627 59.9023Z" fill="#1B203E"/>
<path d="M195.539 100.167L188.099 95.8711V104.463L195.539 100.167Z" fill="#292B2C"/>
<path d="M180.39 135.32H174.559C172.903 135.32 171.562 136.662 171.562 138.317V144.149C171.562 145.804 172.903 147.146 174.559 147.146H180.39C182.045 147.146 183.387 145.804 183.387 144.149V138.317C183.387 136.662 182.045 135.32 180.39 135.32Z" fill="#E54934"/>
<path d="M180.603 141.231L175.132 138.074V144.392L180.603 141.231Z" fill="#16181A"/>
<path d="M143.556 13.4688H137.725C136.069 13.4688 134.728 14.8106 134.728 16.4659V22.2971C134.728 23.9524 136.069 25.2943 137.725 25.2943H143.556C145.211 25.2943 146.553 23.9524 146.553 22.2971V16.4659C146.553 14.8106 145.211 13.4688 143.556 13.4688Z" fill="#5E6272"/>
<path d="M143.769 19.3791L138.297 16.2188V22.5395L143.769 19.3791Z" fill="#16181A"/>
<path d="M123.828 92.8954L134.268 108.767L128.27 91.6133L123.828 92.8954Z" fill="#16181A"/>
<path d="M123.3 106.18C118.505 106.18 114.619 102.294 114.619 97.4983C114.619 92.7028 118.505 88.8164 123.3 88.8164C128.096 88.8164 131.982 92.7028 131.982 97.4983C131.982 102.294 128.096 106.18 123.3 106.18Z" fill="#202223"/>
<path d="M123.281 95.882H120.3V99.8283H123.281V95.882Z" fill="#BFBEBE"/>
<path d="M123.854 100.295C123.347 100.295 122.934 99.8816 122.934 99.3754V96.3349C122.934 95.8287 123.347 95.4157 123.854 95.4157H126.977C127.55 95.4157 127.983 95.9353 127.883 96.4981L127.337 99.5385C127.257 99.9748 126.877 100.295 126.431 100.295H123.854Z" fill="#BFBEBE"/>
<path d="M123.174 95.7188L124.676 93.8938C124.756 93.754 124.909 93.6641 125.072 93.6641C125.352 93.6641 125.569 93.9172 125.522 94.1936L125.282 95.6522L123.178 95.7188H123.174Z" fill="#BFBEBE"/>
<path d="M122.298 95.2617H118.249V100.527H122.298V95.2617Z" fill="#3957A3"/>
<path d="M89.6766 31.418C88.5776 30.319 86.7993 30.319 85.7003 31.418L85.4639 31.6544C84.3649 32.7534 84.3649 34.5317 85.4639 35.6307L89.6766 39.8434L93.8893 35.6307C94.9883 34.5317 94.9883 32.7534 93.8893 31.6544L93.6528 31.418C92.5539 30.319 90.7755 30.319 89.6766 31.418Z" fill="#E54934"/>
<path d="M144.389 77.5995C147.686 77.5995 150.356 74.9287 150.356 71.6318C150.356 68.3349 147.686 65.6641 144.389 65.6641C141.092 65.6641 138.421 68.3349 138.421 71.6318C138.421 74.9287 141.092 77.5995 144.389 77.5995Z" fill="#292B2C"/>
<path d="M144.389 69.6336C143.763 69.0075 142.75 69.0075 142.124 69.6336L141.988 69.7702C141.362 70.3962 141.362 71.4086 141.988 72.0347L144.389 74.4358L146.79 72.0347C147.416 71.4086 147.416 70.3962 146.79 69.7702L146.653 69.6336C146.027 69.0075 145.015 69.0075 144.389 69.6336Z" fill="#E54934"/>
<path d="M163.857 15.1308C167.154 15.1308 169.825 12.4599 169.825 9.16304C169.825 5.86614 167.154 3.19531 163.857 3.19531C160.56 3.19531 157.889 5.86614 157.889 9.16304C157.889 12.4599 160.56 15.1308 163.857 15.1308Z" fill="#16181A"/>
<path d="M196.339 17.0307C198.35 13.6505 202.007 11.5625 205.943 11.5625C207.309 11.5625 208.641 11.8089 209.909 12.2918L205.813 22.3624L196.339 17.0307Z" fill="#3957A3"/>
<path d="M206.329 22.4717L210.392 12.4844C214.405 14.2261 217.009 18.0991 217.109 22.4717H206.329Z" fill="#FBC342"/>
<path d="M201.49 32.9798C197.398 31.2048 194.77 27.2086 194.77 22.7328C194.77 20.9012 195.223 19.0929 196.079 17.4844L205.613 22.846L201.49 32.9798Z" fill="#6AC5D4"/>
<path d="M206.938 22.9922H217.112C217.072 24.7339 216.623 26.4456 215.803 27.9808L206.938 22.9922Z" fill="#512F42"/>
<path d="M205.943 33.9053C204.577 33.9053 203.245 33.6622 201.973 33.176L206.073 23.1055L215.547 28.4371C213.536 31.8173 209.879 33.9053 205.943 33.9053Z" fill="#E54934"/>
<path d="M166.448 6.12993L166.098 5.78026L164.54 7.3388L164.763 7.56192C165.229 8.02815 165.229 8.7841 164.763 9.25033L163.84 10.1728C163.374 10.639 162.618 10.639 162.152 10.1728L161.929 9.94968L160.37 11.5082L160.72 11.8579C161.512 12.6505 162.795 12.6505 163.587 11.8579L166.444 9.00057C167.237 8.20798 167.237 6.92585 166.444 6.13326L166.448 6.12993ZM164.39 7.18561L165.948 5.62707L165.842 5.5205C165.669 5.34733 165.385 5.34733 165.209 5.5205L164.283 6.4463C164.11 6.61947 164.11 6.90254 164.283 7.07904L164.39 7.18561ZM161.672 9.68992C161.499 9.51675 161.216 9.51675 161.04 9.68992L160.114 10.6157C159.941 10.7889 159.941 11.072 160.114 11.2485L160.22 11.355L161.779 9.79649L161.672 9.68992Z" fill="#512F42"/>
<path d="M131.246 114.047L130.8 113.552L128.812 115.759L129.096 116.075C129.691 116.735 129.691 117.805 129.096 118.466L127.92 119.772C127.325 120.432 126.36 120.432 125.766 119.772L125.481 119.456L123.493 121.663L123.939 122.158C124.95 123.281 126.586 123.281 127.597 122.158L131.242 118.112C132.253 116.99 132.253 115.174 131.242 114.052L131.246 114.047ZM128.62 115.542L130.609 113.335L130.473 113.184C130.252 112.939 129.891 112.939 129.666 113.184L128.485 114.495C128.264 114.74 128.264 115.141 128.485 115.391L128.62 115.542ZM125.154 119.088C124.933 118.843 124.572 118.843 124.347 119.088L123.166 120.399C122.945 120.644 122.945 121.045 123.166 121.295L123.302 121.446L125.29 119.239L125.154 119.088Z" fill="#5E6272"/>
<path d="M60.0183 41.7422H42.2217V60.448H60.0183V41.7422Z" fill="#6AC5D4"/>
<path d="M51.12 47.4719C48.5192 47.4719 46.4111 45.3639 46.4111 42.763V40.5917C46.4111 37.9908 48.5192 35.8828 51.12 35.8828C53.7209 35.8828 55.829 37.9908 55.829 40.5917V42.763C55.829 45.3639 53.7209 47.4719 51.12 47.4719Z" stroke="#6AC5D4" stroke-miterlimit="10"/>
<path d="M229.955 51.7266H216.691V65.6668H229.955V51.7266Z" fill="#3957A3"/>
<path d="M223.322 55.994C221.383 55.994 219.812 54.4222 219.812 52.484V50.8655C219.812 48.9273 221.383 47.3555 223.322 47.3555C225.26 47.3555 226.832 48.9273 226.832 50.8655V52.484C226.832 54.4222 225.26 55.994 223.322 55.994Z" stroke="#3957A3" stroke-miterlimit="10"/>
<path d="M130.934 0H119.169C117.694 0 116.498 1.19577 116.498 2.67082V8.81505C116.498 10.2901 117.694 11.4859 119.169 11.4859H130.934C132.41 11.4859 133.605 10.2901 133.605 8.81505V2.67082C133.605 1.19577 132.41 0 130.934 0Z" fill="#16181A"/>
<path d="M121.344 5.74298C121.344 6.28913 120.901 6.73205 120.355 6.73205C119.809 6.73205 119.366 6.28913 119.366 5.74298C119.366 5.19682 119.809 4.75391 120.355 4.75391C120.901 4.75391 121.344 5.19682 121.344 5.74298Z" fill="#5E6272"/>
<path d="M126.043 5.74298C126.043 6.28913 125.6 6.73205 125.054 6.73205C124.508 6.73205 124.065 6.28913 124.065 5.74298C124.065 5.19682 124.508 4.75391 125.054 4.75391C125.6 4.75391 126.043 5.19682 126.043 5.74298Z" fill="#5E6272"/>
<path d="M130.738 5.74298C130.738 6.28913 130.295 6.73205 129.749 6.73205C129.203 6.73205 128.76 6.28913 128.76 5.74298C128.76 5.19682 129.203 4.75391 129.749 4.75391C130.295 4.75391 130.738 5.19682 130.738 5.74298Z" fill="#5E6272"/>
<path d="M59.0487 87.832H19.1196C17.6445 87.832 16.4487 89.0278 16.4487 90.5029V115.556C16.4487 117.031 17.6445 118.227 19.1196 118.227H59.0487C60.5238 118.227 61.7195 117.031 61.7195 115.556V90.5029C61.7195 89.0278 60.5238 87.832 59.0487 87.832Z" fill="#202223"/>
<path d="M39.084 115.512L46.8467 136.319L47.5127 116.391" fill="#202223"/>
<path d="M29.2698 103.028C29.2698 104.473 28.0975 105.645 26.6522 105.645C25.2069 105.645 24.0347 104.473 24.0347 103.028C24.0347 101.582 25.2069 100.41 26.6522 100.41C28.0975 100.41 29.2698 101.582 29.2698 103.028Z" fill="#5E6272"/>
<path d="M41.6985 103.028C41.6985 104.473 40.5262 105.645 39.0809 105.645C37.6356 105.645 36.4634 104.473 36.4634 103.028C36.4634 101.582 37.6356 100.41 39.0809 100.41C40.5262 100.41 41.6985 101.582 41.6985 103.028Z" fill="#5E6272"/>
<path d="M54.1301 103.028C54.1301 104.473 52.9579 105.645 51.5126 105.645C50.0673 105.645 48.895 104.473 48.895 103.028C48.895 101.582 50.0673 100.41 51.5126 100.41C52.9579 100.41 54.1301 101.582 54.1301 103.028Z" fill="#5E6272"/>
</g>
<defs>
<clipPath id="clip0_992_152297">
<rect width="245.866" height="227.503" fill="white" transform="translate(0.0673828)"/>
</clipPath>
</defs>
</svg>
