<svg width="213" height="212" viewBox="0 0 213 212" fill="none" xmlns="http://www.w3.org/2000/svg">
<g clip-path="url(#clip0_997_65699)">
<path d="M151.233 13.7305H55.056C51.1035 13.7305 47.8994 16.9346 47.8994 20.887V204.84C47.8994 208.793 51.1035 211.997 55.056 211.997H151.233C155.185 211.997 158.389 208.793 158.389 204.84V20.887C158.389 16.9346 155.185 13.7305 151.233 13.7305Z" fill="#202223"/>
<path d="M146.151 20.2344H123.354C123.359 20.3232 123.382 20.4073 123.382 20.5008C123.382 22.7259 121.559 24.5489 119.334 24.5489H86.9588C84.7338 24.5489 82.9108 22.7259 82.9108 20.5008C82.9108 20.412 82.9295 20.3232 82.9388 20.2344H60.1415C56.6217 20.2344 53.7422 23.1138 53.7422 26.6337V196.959C53.7422 200.479 56.6217 203.358 60.1415 203.358H146.156C149.676 203.358 152.555 200.479 152.555 196.959V26.6337C152.555 23.1138 149.676 20.2344 146.156 20.2344H146.151Z" fill="#16181A"/>
<path d="M115.37 17.6836H90.9181C90.4534 17.6836 90.0767 18.0603 90.0767 18.525V19.7076C90.0767 20.1723 90.4534 20.549 90.9181 20.549H115.37C115.835 20.549 116.212 20.1723 116.212 19.7076V18.525C116.212 18.0603 115.835 17.6836 115.37 17.6836Z" fill="#0C0D0E"/>
<path d="M64.5961 35.7617H141.701C144.478 35.7617 146.731 38.0148 146.731 40.7914V93.3088C146.731 96.0854 144.478 98.3385 141.701 98.3385H64.5961C61.8195 98.3385 59.5664 96.0854 59.5664 93.3088V40.7914C59.5664 38.0148 61.8195 35.7617 64.5961 35.7617Z" fill="#202223"/>
<path d="M137.251 40.8477H69.0463C66.5886 40.8477 64.5962 42.84 64.5962 45.2977V79.5193C64.5962 81.977 66.5886 83.9694 69.0463 83.9694H137.251C139.709 83.9694 141.701 81.977 141.701 79.5193V45.2977C141.701 42.84 139.709 40.8477 137.251 40.8477Z" fill="#63BFB6"/>
<path d="M105.876 62.0029L101.384 58.8617C100.702 58.3849 100.146 58.8009 100.146 59.7872V65.9715C100.15 66.9578 100.711 67.3738 101.394 66.897L105.881 63.7418C106.564 63.2603 106.564 62.4797 105.881 62.0029H105.876Z" fill="#EFE9F2"/>
<path d="M103.146 51.2383C96.7282 51.2383 91.5068 56.4596 91.5068 62.8776C91.5068 69.2957 96.7282 74.517 103.146 74.517C109.564 74.517 114.786 69.2957 114.786 62.8776C114.786 56.4596 109.564 51.2383 103.146 51.2383ZM103.146 73.2783C97.4107 73.2783 92.7502 68.6132 92.7502 62.8823C92.7502 57.1515 97.4153 52.4864 103.146 52.4864C108.877 52.4864 113.542 57.1515 113.542 62.8823C113.542 68.6132 108.877 73.2783 103.146 73.2783Z" fill="#EFE9F2"/>
<path d="M64.5962 90.8774H138.574C139.57 90.8774 140.575 90.9008 141.57 90.8774C141.612 90.8774 141.655 90.8774 141.701 90.8774C142.636 90.8774 142.636 89.4284 141.701 89.4284H67.7234C66.7277 89.4284 65.7227 89.405 64.7271 89.4284C64.685 89.4284 64.6429 89.4284 64.5962 89.4284C63.6613 89.4284 63.6613 90.8774 64.5962 90.8774Z" fill="#292B2C"/>
<path d="M78.7879 90.4503C78.7879 92.0817 77.465 93.4046 75.8336 93.4046C74.2023 93.4046 72.8794 92.0817 72.8794 90.4503C72.8794 88.819 74.2023 87.4961 75.8336 87.4961C77.465 87.4961 78.7879 88.819 78.7879 90.4503Z" fill="#1C4D8C"/>
<path d="M92.2969 120.324H59.5664V141.495H92.2969V120.324Z" fill="#63BFB6"/>
<mask id="mask0_997_65699" style="mask-type:luminance" maskUnits="userSpaceOnUse" x="59" y="120" width="34" height="22">
<path d="M92.2969 120.324H59.5664V141.495H92.2969V120.324Z" fill="white"/>
</mask>
<g mask="url(#mask0_997_65699)">
<path d="M58.6688 142.96C60.3563 141.062 62.0438 139.169 63.7313 137.271C66.4378 134.232 69.1396 131.189 71.8461 128.151C72.4631 127.454 73.0848 126.758 73.7019 126.061C73.959 125.772 73.5336 125.342 73.2718 125.631C71.5843 127.529 69.8969 129.422 68.2094 131.32C65.5029 134.359 62.801 137.402 60.0945 140.44C59.4775 141.136 58.8558 141.833 58.2388 142.529C57.9817 142.819 58.4071 143.249 58.6688 142.96Z" fill="#181A1B"/>
<path d="M93.5637 142.535C91.8762 140.638 90.1887 138.744 88.5013 136.847C85.7947 133.808 83.0929 130.765 80.3864 127.727C79.7694 127.03 79.1477 126.334 78.5306 125.637C78.2689 125.343 77.8435 125.777 78.1006 126.067C79.7881 127.965 81.4756 129.858 83.163 131.756C85.8695 134.794 88.5714 137.838 91.2779 140.876C91.8949 141.572 92.5166 142.269 93.1336 142.965C93.3954 143.26 93.8208 142.825 93.5637 142.535Z" fill="#181A1B"/>
</g>
<path d="M59.5664 120.324L75.9317 133.871L92.2969 120.324H59.5664Z" fill="#F2B950"/>
<path d="M98.427 122.566C99.8288 119.181 98.2216 115.301 94.8372 113.899C91.4527 112.497 87.5726 114.105 86.1707 117.489C84.7688 120.874 86.376 124.754 89.7605 126.156C93.1449 127.557 97.0251 125.95 98.427 122.566Z" fill="#F25C5C"/>
<path d="M93.9191 119.765C94.2837 120.073 94.4707 120.48 94.4707 120.994C94.4707 121.326 94.3866 121.63 94.223 121.901C94.0547 122.172 93.8023 122.392 93.4657 122.555C93.1245 122.719 92.7038 122.799 92.2083 122.799C91.825 122.799 91.4463 122.747 91.077 122.644C90.7078 122.541 90.3899 122.401 90.1328 122.214L90.633 121.247C90.8387 121.401 91.0817 121.522 91.3482 121.607C91.6193 121.691 91.8951 121.737 92.1802 121.737C92.4981 121.737 92.7458 121.677 92.9281 121.55C93.1104 121.424 93.1993 121.251 93.1993 121.027C93.1993 120.803 93.1058 120.616 92.9141 120.499C92.7225 120.377 92.3952 120.321 91.9278 120.321H90.5348L90.8153 117.25H94.1435V118.264H91.867L91.7829 119.302H92.227C92.9936 119.302 93.5639 119.456 93.9285 119.76L93.9191 119.765Z" fill="#EFE9F2"/>
<path d="M141.286 115.574H114.51C112.244 115.574 110.406 117.412 110.406 119.678V135.212C110.406 137.478 112.244 139.316 114.51 139.316H141.286C143.552 139.316 145.39 137.478 145.39 135.212V119.678C145.39 117.412 143.552 115.574 141.286 115.574Z" fill="#2EBBF2"/>
<path d="M141.285 115.574H127.79V139.316H141.285C143.543 139.316 145.389 137.469 145.389 135.212V119.678C145.389 117.421 143.543 115.574 141.285 115.574Z" fill="#1FB0DD"/>
<path d="M140.748 132.084L134.886 121.02C133.413 118.243 131.006 118.243 129.538 121.02L124.499 130.532L122.316 126.414C121.339 124.568 119.736 124.568 118.759 126.414L114.86 133.777C113.884 135.623 114.79 137.133 116.88 137.133H137.714C140.855 137.133 142.225 134.861 140.752 132.084H140.748Z" fill="#EFE9F2"/>
<path d="M123.022 123.022C124.279 123.022 125.299 122.003 125.299 120.745C125.299 119.488 124.279 118.469 123.022 118.469C121.765 118.469 120.746 119.488 120.746 120.745C120.746 122.003 121.765 123.022 123.022 123.022Z" fill="#EFE9F2"/>
<path d="M79.246 186.745C87.4684 186.745 94.1342 180.079 94.1342 171.857C94.1342 163.635 87.4684 156.969 79.246 156.969C71.0237 156.969 64.3579 163.635 64.3579 171.857C64.3579 180.079 71.0237 186.745 79.246 186.745ZM79.246 161.671C84.8741 161.671 89.4317 166.233 89.4317 171.857C89.4317 177.48 84.8694 182.042 79.246 182.042C73.6227 182.042 69.0604 177.48 69.0604 171.857C69.0604 166.233 73.6227 161.671 79.246 161.671Z" fill="#2EBBF2"/>
<path d="M69.0604 171.857C69.0604 166.229 73.6227 161.671 79.246 161.671V156.969C71.0237 156.969 64.3579 163.635 64.3579 171.857C64.3579 180.079 71.0237 186.745 79.246 186.745V182.042C73.618 182.042 69.0604 177.48 69.0604 171.857Z" fill="#F2B950"/>
<path d="M69.0604 171.855H64.3579C64.3579 180.078 71.0237 186.744 79.246 186.744V182.041C73.618 182.041 69.0604 177.479 69.0604 171.855Z" fill="#63BFB6"/>
<path d="M69.0604 171.855H64.3579C64.3579 174.127 64.8674 176.277 65.7789 178.203L69.9906 176.114C69.3923 174.819 69.0557 173.375 69.0557 171.855H69.0604Z" fill="#056CF2"/>
<path d="M70.3835 166.844C72.1317 163.759 75.4459 161.674 79.2509 161.674C82.3828 161.674 85.1875 163.091 87.0526 165.316L90.7968 162.469C88.0669 159.117 83.9067 156.977 79.2462 156.977C73.9033 156.977 69.2242 159.791 66.5972 164.016L70.3835 166.849V166.844Z" fill="#F25C5C"/>
<path d="M135.349 160.328H111.691C110.247 160.328 109.069 161.506 109.069 162.95V180.05C109.069 181.494 110.247 182.672 111.691 182.672H118.511C118.633 183.037 118.834 183.42 119.119 183.822L120.755 186.103C122.279 188.225 124.766 188.225 126.29 186.103L127.926 183.822C128.211 183.425 128.412 183.037 128.533 182.672H135.353C136.798 182.672 137.976 181.494 137.976 180.05V162.95C137.976 161.506 136.798 160.328 135.353 160.328H135.349Z" fill="#F25C5C"/>
<path d="M135.349 160.328H123.522V187.697C124.527 187.697 125.528 187.164 126.29 186.103L127.926 183.822C128.211 183.425 128.412 183.037 128.533 182.672H135.353C136.798 182.672 137.976 181.494 137.976 180.05V162.95C137.976 161.506 136.798 160.328 135.353 160.328H135.349Z" fill="#E04646"/>
<path d="M128.865 166.378C127.014 165.603 124.635 166.692 123.559 169.263C123.545 169.295 123.536 169.328 123.522 169.356C123.508 169.323 123.494 169.291 123.48 169.263C122.344 166.715 119.946 165.677 118.114 166.495C116.281 167.313 115.711 169.674 116.847 172.222C117.02 172.614 117.226 172.979 117.459 173.315C117.459 173.315 119.133 176.34 123.63 178.761C128.07 176.242 129.678 173.184 129.678 173.184C129.898 172.843 130.099 172.474 130.263 172.077C131.342 169.506 130.721 167.159 128.87 166.378H128.865Z" fill="#EFE9F2"/>
<path d="M140.093 169.286C143.756 169.286 146.726 166.316 146.726 162.653C146.726 158.989 143.756 156.02 140.093 156.02C136.43 156.02 133.46 158.989 133.46 162.653C133.46 166.316 136.43 169.286 140.093 169.286Z" fill="#056CF2"/>
<path d="M142.342 164.365V165.417H138.125V164.58L140.28 162.547C140.509 162.327 140.664 162.14 140.743 161.986C140.823 161.827 140.865 161.673 140.865 161.518C140.865 161.294 140.79 161.126 140.636 161.004C140.486 160.883 140.262 160.827 139.972 160.827C139.729 160.827 139.504 160.873 139.308 160.967C139.112 161.06 138.948 161.201 138.813 161.388L137.873 160.78C138.093 160.457 138.392 160.2 138.775 160.018C139.159 159.836 139.598 159.742 140.089 159.742C140.505 159.742 140.865 159.812 141.178 159.943C141.491 160.079 141.729 160.27 141.902 160.518C142.075 160.766 142.16 161.056 142.16 161.392C142.16 161.696 142.094 161.981 141.968 162.248C141.842 162.514 141.594 162.818 141.225 163.155L139.939 164.365H142.337H142.342Z" fill="#EFE9F2"/>
<path d="M179.925 2.70703H135.662C131.932 2.70703 128.875 5.75944 128.875 9.49432V20.1053C128.875 23.8355 131.927 26.8926 135.662 26.8926H143.23V29.8281C143.23 31.1089 143.885 31.338 144.684 30.3377L147.437 26.8926H179.925C183.655 26.8926 186.712 23.8402 186.712 20.1053V9.49432C186.712 5.76412 183.66 2.70703 179.925 2.70703Z" fill="#202223"/>
<path d="M147.543 17.3956C149.071 13.6862 147.303 9.44031 143.594 7.91216C139.884 6.38401 135.638 8.15226 134.11 11.8617C132.582 15.5711 134.35 19.8169 138.06 21.3451C141.769 22.8732 146.015 21.105 147.543 17.3956Z" fill="#F2B950"/>
<path d="M141.295 14.5436C141.944 14.3426 142.421 13.7396 142.421 13.0244C142.421 12.141 141.706 11.4258 140.823 11.4258C139.939 11.4258 139.224 12.141 139.224 13.0244C139.224 13.7396 139.701 14.338 140.35 14.5436C138.855 14.7493 137.663 15.8992 137.401 17.3763H144.244C143.982 15.8992 142.791 14.7493 141.295 14.5436Z" fill="#EFE9F2"/>
<path d="M175.591 9.54721C175.591 8.68624 174.893 7.98828 174.032 7.98828H152.37C151.509 7.98828 150.812 8.68624 150.812 9.54721C150.812 10.4082 151.509 11.1061 152.37 11.1061H174.032C174.893 11.1061 175.591 10.4082 175.591 9.54721Z" fill="#292B2C"/>
<path d="M182.626 15.3039C182.626 14.8728 182.276 14.5233 181.845 14.5233H151.592C151.161 14.5233 150.812 14.8728 150.812 15.3039C150.812 15.7351 151.161 16.0846 151.592 16.0846H181.845C182.276 16.0846 182.626 15.7351 182.626 15.3039Z" fill="#292B2C"/>
<path d="M175.021 20.8293C175.021 20.3981 174.671 20.0486 174.24 20.0486H151.592C151.161 20.0486 150.812 20.3981 150.812 20.8293C150.812 21.2604 151.161 21.6099 151.592 21.6099H174.24C174.671 21.6099 175.021 21.2604 175.021 20.8293Z" fill="#292B2C"/>
<path d="M17.5153 91.7227H61.7777C65.5079 91.7227 68.565 94.7751 68.565 98.5099V109.121C68.565 112.851 65.5126 115.908 61.7777 115.908H54.2098V118.844C54.2098 120.125 53.5554 120.354 52.756 119.353L50.0028 115.908H17.5153C13.7851 115.908 10.728 112.856 10.728 109.121V98.5099C10.728 94.7797 13.7804 91.7227 17.5153 91.7227Z" fill="#202223"/>
<path d="M29.1472 105.303C30.0688 101.398 27.6506 97.4857 23.746 96.5641C19.8414 95.6426 15.9291 98.0608 15.0075 101.965C14.0859 105.87 16.5042 109.782 20.4087 110.704C24.3133 111.625 28.2256 109.207 29.1472 105.303Z" fill="#2EBBF2"/>
<path d="M22.5496 103.551C23.1993 103.35 23.6761 102.747 23.6761 102.032C23.6761 101.149 22.9609 100.434 22.0775 100.434C21.194 100.434 20.4788 101.149 20.4788 102.032C20.4788 102.747 20.9556 103.346 21.6053 103.551C20.1095 103.757 18.9175 104.907 18.6558 106.384H25.4992C25.2374 104.907 24.0454 103.757 22.5496 103.551Z" fill="#EFE9F2"/>
<path d="M56.8506 98.5628C56.8506 97.7019 56.1526 97.0039 55.2916 97.0039H33.6302C32.7692 97.0039 32.0713 97.7019 32.0713 98.5628C32.0713 99.4238 32.7692 100.122 33.6302 100.122H55.2916C56.1526 100.122 56.8506 99.4238 56.8506 98.5628Z" fill="#292B2C"/>
<path d="M63.8857 104.32C63.8857 103.889 63.5362 103.539 63.105 103.539H32.852C32.4209 103.539 32.0714 103.889 32.0714 104.32C32.0714 104.751 32.4209 105.1 32.852 105.1H63.105C63.5362 105.1 63.8857 104.751 63.8857 104.32Z" fill="#292B2C"/>
<path d="M56.2803 109.845C56.2803 109.414 55.9308 109.064 55.4996 109.064H32.8519C32.4208 109.064 32.0713 109.414 32.0713 109.845C32.0713 110.276 32.4208 110.626 32.8519 110.626H55.4996C55.9308 110.626 56.2803 110.276 56.2803 109.845Z" fill="#292B2C"/>
<path d="M42.4673 52.168H4.24902V76.8864H42.4673V52.168Z" fill="#056CF2"/>
<mask id="mask1_997_65699" style="mask-type:luminance" maskUnits="userSpaceOnUse" x="4" y="52" width="39" height="25">
<path d="M42.4673 52.168H4.24902V76.8864H42.4673V52.168Z" fill="white"/>
</mask>
<g mask="url(#mask1_997_65699)">
<path d="M3.20203 78.5983C5.16998 76.3826 7.1426 74.1716 9.11054 71.9559C12.2705 68.408 15.4257 64.8554 18.5857 61.3075C19.3102 60.4942 20.0301 59.6808 20.7546 58.8721C21.0584 58.5309 20.5583 58.0307 20.2544 58.372C18.2865 60.5877 16.3139 62.7987 14.3459 65.0143C11.186 68.5623 8.03074 72.1148 4.87081 75.6627C4.14627 76.4761 3.42641 77.2894 2.70187 78.0981C2.39803 78.4394 2.8982 78.9395 3.20203 78.5983Z" fill="#1C4D8C"/>
<path d="M43.9445 78.0981C41.9766 75.8824 40.004 73.6714 38.036 71.4557C34.8761 67.9078 31.7209 64.3553 28.5609 60.8074C27.8364 59.994 27.1165 59.1806 26.392 58.372C26.0881 58.0307 25.588 58.5309 25.8918 58.8721C27.8598 61.0878 29.8324 63.2988 31.8003 65.5145C34.9602 69.0624 38.1155 72.615 41.2754 76.1629C42 76.9762 42.7198 77.7896 43.4444 78.5983C43.7482 78.9395 44.2484 78.4394 43.9445 78.0981Z" fill="#1C4D8C"/>
</g>
<path d="M4.24902 52.168L23.3582 67.9863L42.4627 52.168H4.24902Z" fill="#1C4D8C"/>
<path d="M42.4627 52.1677L24.0899 32.4418C23.6944 32.0173 23.0219 32.0172 22.6264 32.4417L4.24902 52.1677H42.4627Z" fill="#2EBBF2"/>
<path d="M23.3584 39.3945H10.7651C10.2129 39.3945 9.76514 39.8422 9.76514 40.3945V56.732L23.3584 67.9834L36.9471 56.732V40.3945C36.9471 39.8422 36.4994 39.3945 35.9471 39.3945H23.3584Z" fill="#EFE9F2"/>
<path d="M33.2029 43.9688H13.5142V44.5531H33.2029V43.9688Z" fill="#C8B6D6"/>
<path d="M33.2029 47.4648H13.5142V48.0491H33.2029V47.4648Z" fill="#C8B6D6"/>
<path d="M33.2029 50.9609H13.5142V51.5452H33.2029V50.9609Z" fill="#C8B6D6"/>
<path d="M33.2025 54.457H13.5137V55.0413H33.2025V54.457Z" fill="#C8B6D6"/>
<path d="M33.2029 57.9492H13.5142V58.5335H33.2029V57.9492Z" fill="#C8B6D6"/>
<path d="M56.8602 7.49219H38.0923C36.773 7.49219 35.7036 8.56162 35.7036 9.88083V22.9459C35.7036 24.2651 36.773 25.3345 38.0923 25.3345H56.8602C58.1794 25.3345 59.2488 24.2651 59.2488 22.9459V9.88083C59.2488 8.56162 58.1794 7.49219 56.8602 7.49219Z" fill="#F25C5C"/>
<path d="M56.8601 7.49219H47.4785V25.3345H56.8601C58.1737 25.3345 59.2488 24.2594 59.2488 22.9459V9.8855C59.2488 8.57198 58.1737 7.49686 56.8601 7.49686V7.49219Z" fill="#E04646"/>
<path d="M51.933 11.8331C50.3998 11.188 48.4318 12.0949 47.539 14.2217C47.5297 14.2498 47.5203 14.2731 47.5063 14.3012C47.497 14.2731 47.4829 14.2498 47.4736 14.2217C46.534 12.1136 44.5474 11.2535 43.0282 11.9313C41.509 12.609 41.0415 14.563 41.9764 16.6711C42.1213 16.9983 42.2896 17.2975 42.4813 17.578C42.4813 17.578 43.8649 20.0788 47.5858 22.0841C51.2646 19.9993 52.5921 17.4705 52.5921 17.4705C52.7744 17.19 52.938 16.8815 53.0783 16.5543C53.9711 14.4274 53.4569 12.4828 51.9237 11.8378L51.933 11.8331Z" fill="#F2B950"/>
<path d="M176.176 145.193C185.474 141.23 189.8 130.481 185.838 121.183C181.875 111.885 171.126 107.559 161.828 111.521C152.53 115.483 148.204 126.233 152.166 135.531C156.128 144.829 166.878 149.155 176.176 145.193Z" fill="#056CF2"/>
<path d="M169 110.066V146.667C179.106 146.667 187.3 138.473 187.3 128.367C187.3 118.261 179.106 110.066 169 110.066Z" fill="#0569C4"/>
<path d="M163.746 135.774L161.549 135.816C161.484 135.816 161.428 135.765 161.428 135.695L161.348 125.332C161.348 125.266 161.4 125.21 161.47 125.21L163.667 125.168C163.732 125.168 163.788 125.219 163.788 125.29L163.868 135.653C163.868 135.718 163.816 135.774 163.746 135.774Z" fill="#EFE9F2"/>
<path d="M176.568 125.067L170.664 125.113C170.505 124.323 170.463 123.192 171.094 122.024C172.23 119.911 169.986 118.98 169.986 118.98L165.522 126.516C165.522 126.516 164.999 127.591 165.003 128.241L165.036 132.695C165.05 134.387 166.443 135.762 168.14 135.748L170.286 135.729H170.716L172.941 135.71C173.735 135.706 174.38 135.047 174.376 134.252C174.376 134.065 174.329 133.887 174.264 133.719H174.278C175.072 133.714 175.717 133.055 175.713 132.261C175.708 131.503 175.105 130.9 174.362 130.849L175.568 130.84C176.362 130.835 177.007 130.176 177.003 129.381C176.998 128.624 176.395 128.021 175.652 127.969L176.591 127.96C177.386 127.955 178.031 127.296 178.026 126.502C178.022 125.707 177.363 125.062 176.568 125.067Z" fill="#EFE9F2"/>
<path d="M210.238 93.7422H191.97C190.774 93.7422 189.797 94.7192 189.797 95.9158V106.957C189.797 108.153 190.774 109.13 191.97 109.13H195.86V111.795C195.86 112.725 196.336 112.893 196.916 112.164L199.342 109.13H210.238C211.435 109.13 212.412 108.153 212.412 106.957V95.9158C212.412 94.7192 211.435 93.7422 210.238 93.7422Z" fill="#202223"/>
<path d="M189.797 101.691V106.955C189.797 108.151 190.774 109.128 191.97 109.128H195.86V111.793C195.86 112.723 196.336 112.891 196.916 112.162L199.342 109.128H210.238C211.435 109.128 212.412 108.151 212.412 106.955V101.691H189.797Z" fill="#16181A"/>
<path d="M196.144 101.19C196.144 101.816 195.639 102.321 195.013 102.321C194.387 102.321 193.882 101.816 193.882 101.19C193.882 100.563 194.387 100.059 195.013 100.059C195.639 100.059 196.144 100.563 196.144 101.19Z" fill="#5E6272"/>
<path d="M202.236 101.19C202.236 101.816 201.731 102.321 201.104 102.321C200.478 102.321 199.973 101.816 199.973 101.19C199.973 100.563 200.478 100.059 201.104 100.059C201.731 100.059 202.236 100.563 202.236 101.19Z" fill="#5E6272"/>
<path d="M208.326 101.19C208.326 101.816 207.822 102.321 207.195 102.321C206.569 102.321 206.064 101.816 206.064 101.19C206.064 100.563 206.569 100.059 207.195 100.059C207.822 100.059 208.326 100.563 208.326 101.19Z" fill="#5E6272"/>
<path d="M191.565 171.353C192.708 164.589 188.152 158.18 181.388 157.037C174.625 155.894 168.215 160.451 167.073 167.215C165.93 173.978 170.486 180.387 177.25 181.53C184.013 182.673 190.423 178.116 191.565 171.353Z" fill="#202223"/>
<path d="M179.086 156.862L179.558 181.702C186.415 181.571 191.87 175.905 191.739 169.043C191.609 162.186 185.943 156.731 179.081 156.862H179.086Z" fill="#16181A"/>
<path d="M173.883 166.909C173.967 166.414 174.047 165.918 174.309 165.474C174.902 164.464 175.851 164.062 176.954 164.016C178.46 163.95 179.965 163.922 181.475 163.931C182.498 163.936 183.415 164.254 184.05 165.128C184.462 165.689 184.625 166.339 184.649 167.017C184.7 168.461 184.737 169.91 184.728 171.359C184.728 172.523 184.335 173.528 183.256 174.14C182.755 174.426 182.209 174.552 181.643 174.57C180.156 174.617 178.67 174.659 177.183 174.655C176.066 174.655 175.094 174.295 174.454 173.294C174.178 172.86 174.08 172.369 173.977 171.878C173.944 170.223 173.916 168.568 173.883 166.914V166.909ZM179.24 164.993C178.502 165.007 177.763 165.007 177.025 165.039C175.87 165.091 175.173 165.642 174.982 166.638C174.94 166.848 174.912 167.068 174.916 167.283C174.935 168.681 174.944 170.078 175.001 171.476C175.057 172.864 175.772 173.598 177.113 173.622C178.628 173.65 180.147 173.617 181.662 173.537C182.779 173.481 183.433 172.93 183.63 171.957C183.662 171.785 183.695 171.607 183.695 171.429C183.672 169.835 183.728 168.237 183.555 166.647C183.452 165.708 182.807 165.105 181.867 164.993C180.993 164.89 180.114 164.993 179.24 164.993Z" fill="#EFE9F2"/>
<path d="M182.101 169.251C182.124 170.751 180.904 172.009 179.371 172.06C177.838 172.107 176.538 170.864 176.515 169.321C176.492 167.807 177.758 166.512 179.273 166.512C180.825 166.512 182.078 167.722 182.101 169.251ZM181.063 169.256C181.045 168.297 180.245 167.531 179.278 167.545C178.315 167.559 177.534 168.358 177.548 169.312C177.567 170.27 178.366 171.037 179.334 171.023C180.297 171.009 181.077 170.209 181.063 169.256Z" fill="#EFE9F2"/>
<path d="M182.111 165.731C182.48 165.717 182.798 166.021 182.807 166.385C182.812 166.736 182.517 167.04 182.157 167.058C181.788 167.077 181.461 166.783 181.447 166.418C181.433 166.049 181.727 165.745 182.111 165.731Z" fill="#EFE9F2"/>
<path d="M57.0823 154.544C57.1988 145.524 49.9815 138.118 40.962 138.002C31.9426 137.885 24.5364 145.103 24.4199 154.122C24.3034 163.141 31.5207 170.548 40.5402 170.664C49.5596 170.781 56.9658 163.563 57.0823 154.544Z" fill="#2EBBF2"/>
<path d="M40.4902 137.998L41.0138 170.663C50.0355 170.518 57.2294 163.091 57.0845 154.069C56.9396 145.047 49.5119 137.853 40.4902 137.998Z" fill="#1FB0DD"/>
<path d="M43.7015 149.952L44.9262 149.962L44.9495 147.292L43.1031 147.274C40.4854 147.25 39.2327 148.802 39.214 151.018L39.1953 153.117L37.1432 153.098L37.1245 155.636L39.1766 155.655L39.1252 162.106L42.201 162.129L42.2524 155.678L44.3045 155.697L44.9075 153.168L42.2758 153.145L42.2898 151.411C42.2945 150.7 42.6871 149.938 43.7061 149.947L43.7015 149.952Z" fill="#EFE9F2"/>
<path d="M13.5279 124.5H2.91218C1.30383 124.5 0 125.804 0 127.412V138.028C0 139.636 1.30383 140.94 2.91218 140.94H13.5279C15.1362 140.94 16.44 139.636 16.44 138.028V127.412C16.44 125.804 15.1362 124.5 13.5279 124.5Z" fill="#202223"/>
<path d="M13.5277 124.5H8.22217V140.94H13.5277C15.131 140.94 16.4399 139.631 16.4399 138.028V127.412C16.4399 125.809 15.131 124.5 13.5277 124.5Z" fill="#16181A"/>
<path d="M10.7089 134.916C10.3303 134.916 9.98435 135.051 9.71791 135.281C8.55865 134.556 7.39938 133.827 6.24012 133.102C6.27284 132.981 6.29154 132.854 6.29154 132.724C6.29154 132.593 6.27284 132.466 6.24012 132.345C7.39938 131.62 8.55865 130.891 9.71791 130.167C9.98435 130.391 10.3303 130.531 10.7089 130.531C11.555 130.531 12.2421 129.844 12.2421 128.998C12.2421 128.152 11.555 127.465 10.7089 127.465C9.86282 127.465 9.17567 128.152 9.17567 128.998C9.17567 129.129 9.19437 129.255 9.22709 129.377C8.06783 130.101 6.90857 130.83 5.7493 131.555C5.48286 131.331 5.13695 131.19 4.75832 131.19C3.91224 131.19 3.2251 131.878 3.2251 132.724C3.2251 133.57 3.91224 134.257 4.75832 134.257C5.13695 134.257 5.48286 134.121 5.7493 133.892C6.90857 134.617 8.06783 135.346 9.22709 136.07C9.19437 136.192 9.17567 136.318 9.17567 136.449C9.17567 137.295 9.86282 137.982 10.7089 137.982C11.555 137.982 12.2421 137.295 12.2421 136.449C12.2421 135.603 11.555 134.916 10.7089 134.916Z" fill="#5E6272"/>
<path d="M168.935 87.4786C168.939 88.1611 169.505 88.7173 170.187 88.708C170.87 88.6986 171.426 88.1377 171.417 87.4552L171.342 79.8125L168.86 79.8359L168.935 87.4786Z" fill="#F2B950"/>
<path d="M187.875 71.1486L187.927 76.3606C189.367 76.3465 190.521 75.1686 190.507 73.7289C190.493 72.2891 189.315 71.1345 187.875 71.1486Z" fill="#F25C5C"/>
<path d="M163.667 74.0677C163.699 77.4567 166.499 80.2006 169.888 80.1632L171.309 80.1492L171.188 67.832L169.767 67.8461C166.378 67.8788 163.634 70.6788 163.671 74.0677H163.667Z" fill="#F2B950"/>
<path d="M171.141 67.8356L171.202 73.9965L171.263 80.1574C171.263 80.1574 180.743 80.536 186.025 87.8282L185.885 73.8516L185.744 59.875C180.607 67.27 171.137 67.8403 171.137 67.8403L171.141 67.8356Z" fill="#F25C5C"/>
<path d="M186.885 58.7266C186.235 58.7313 185.707 59.2688 185.711 59.9233L185.987 87.6006C185.992 88.2504 186.529 88.7786 187.184 88.7739C187.834 88.7692 188.362 88.227 188.357 87.5773L188.081 59.8999C188.077 59.2501 187.534 58.7219 186.885 58.7266Z" fill="#F2B950"/>
<path opacity="0.1" d="M168.86 80.0838L168.935 87.4788C168.939 88.1612 169.505 88.7175 170.187 88.7082C170.87 88.7035 171.426 88.1379 171.417 87.4554L171.342 80.1586C172.258 80.2147 180.999 80.9205 186.006 87.8013C186.109 88.3576 186.595 88.7783 187.179 88.7689C187.829 88.7642 188.357 88.222 188.352 87.5723L188.24 76.3256C189.526 76.1573 190.517 75.0588 190.507 73.7266L163.667 74.0631C163.695 77.1015 165.952 79.6164 168.86 80.0791V80.0838Z" fill="#1C4D8C"/>
<path d="M194.677 73.744C195.883 73.73 197.094 73.7113 198.3 73.6973C198.473 73.6973 198.641 73.6973 198.814 73.6926C199.277 73.6879 199.267 72.9634 198.805 72.9727C197.599 72.9868 196.388 73.0055 195.182 73.0195C195.009 73.0195 194.841 73.0195 194.668 73.0242C194.205 73.0288 194.214 73.7534 194.677 73.744Z" fill="#F25C5C"/>
<path d="M194.719 69.8688C195.92 69.5322 197.122 69.2003 198.323 68.8638C198.496 68.817 198.669 68.7656 198.837 68.7188C199.286 68.5926 199.085 67.9008 198.636 68.027C197.435 68.3636 196.234 68.6955 195.032 69.032C194.859 69.0788 194.686 69.1255 194.518 69.1769C194.069 69.3032 194.27 69.995 194.719 69.8688Z" fill="#F25C5C"/>
<path d="M198.963 77.9327C197.753 77.6289 196.542 77.325 195.331 77.0259C195.158 76.9838 194.985 76.9371 194.812 76.895C194.359 76.7828 194.177 77.4793 194.63 77.5915C195.841 77.8953 197.051 78.1992 198.262 78.4983C198.435 78.5404 198.608 78.5871 198.781 78.6292C199.234 78.7414 199.417 78.0449 198.963 77.9327Z" fill="#F25C5C"/>
<path d="M192.574 35.463L175.736 35.4836C173.606 35.4862 171.882 37.2149 171.885 39.3447L171.896 48.8151C171.899 50.9449 173.627 52.6694 175.757 52.6668L192.595 52.6462C194.725 52.6436 196.449 50.915 196.446 48.7851L196.435 39.3147C196.432 37.1849 194.704 35.4604 192.574 35.463Z" fill="#202223"/>
<path d="M192.564 35.4727L184.146 35.482L184.164 52.6653L192.583 52.6559C194.705 52.6559 196.439 50.917 196.435 48.7948L196.425 39.3244C196.425 37.2022 194.686 35.468 192.564 35.4727Z" fill="#16181A"/>
<path d="M185.501 43.6363L183.271 42.0751C182.93 41.8367 182.654 42.047 182.654 42.5332V45.6043C182.654 46.0951 182.935 46.3008 183.271 46.0624L185.496 44.4964C185.833 44.258 185.833 43.87 185.496 43.6317L185.501 43.6363Z" fill="#5E6272"/>
<path d="M184.15 38.293C180.962 38.293 178.373 40.8826 178.373 44.0706C178.373 47.2585 180.967 49.8482 184.15 49.8482C187.333 49.8482 189.928 47.2539 189.928 44.0706C189.928 40.8873 187.333 38.293 184.15 38.293ZM184.15 49.2312C181.303 49.2312 178.99 46.9173 178.99 44.0706C178.99 41.2238 181.303 38.91 184.15 38.91C186.997 38.91 189.311 41.2238 189.311 44.0706C189.311 46.9173 186.997 49.2312 184.15 49.2312Z" fill="#5E6272"/>
</g>
<defs>
<clipPath id="clip0_997_65699">
<rect width="212.412" height="212" fill="white"/>
</clipPath>
</defs>
</svg>
