<svg width="24" height="24" viewBox="0 0 24 24" fill="none" xmlns="http://www.w3.org/2000/svg">
<path fill-rule="evenodd" clip-rule="evenodd" d="M6.60929 1.00001C6.63904 1.00001 6.66919 1.00002 6.69976 1.00002L6.73675 1.00001C7.08818 0.999991 7.31433 0.999975 7.53542 1.02065C8.4867 1.10961 9.38905 1.48337 10.1246 2.09313C10.2956 2.23485 10.4555 2.39477 10.704 2.64329L11.2803 3.21969C12.1261 4.0654 12.4512 4.3811 12.8268 4.59005C13.0448 4.71134 13.276 4.80713 13.516 4.87552C13.9293 4.99333 14.3824 5.00002 15.5784 5.00002L16.003 5.00002C17.276 5 18.3021 4.99998 19.114 5.10206C19.9554 5.20784 20.6704 5.43358 21.2577 5.96185C21.3561 6.05032 21.4497 6.14394 21.5382 6.24231C22.0665 6.82965 22.2922 7.54459 22.398 8.38601C22.5 9.1979 22.5 10.2241 22.5 11.497V13.8064C22.5 15.6442 22.5 17.0998 22.3469 18.239C22.1893 19.4115 21.8571 20.3604 21.1088 21.1088C20.3604 21.8571 19.4115 22.1893 18.239 22.3469C17.0998 22.5 15.6442 22.5 13.8064 22.5H9.69361C7.85584 22.5 6.40021 22.5 5.26099 22.3469C4.08857 22.1893 3.13962 21.8571 2.39126 21.1088C1.6429 20.3604 1.31078 19.4115 1.15315 18.239C0.999988 17.0998 1 15.6442 1.00002 13.8064L1.00002 6.69976C1.00002 6.66919 1.00001 6.63904 1.00001 6.60929C0.999896 5.81338 0.999824 5.30685 1.08237 4.86935C1.4449 2.94788 2.94788 1.4449 4.86935 1.08237C5.30685 0.999824 5.81338 0.999896 6.60929 1.00001ZM6.69976 2.50002C5.78312 2.50002 5.42873 2.50329 5.14746 2.55636C3.83277 2.80441 2.80441 3.83277 2.55636 5.14746C2.50329 5.42873 2.50002 5.78312 2.50002 6.69976V13.75C2.50002 15.6568 2.50161 17.0115 2.63978 18.0392C2.77504 19.0453 3.02871 19.6249 3.45192 20.0481C3.87513 20.4713 4.45478 20.725 5.46087 20.8603C6.48853 20.9984 7.8432 21 9.75002 21H13.75C15.6568 21 17.0115 20.9984 18.0392 20.8603C19.0453 20.725 19.6249 20.4713 20.0481 20.0481C20.4713 19.6249 20.725 19.0453 20.8603 18.0392C20.9984 17.0115 21 15.6568 21 13.75V11.5479C21 10.2121 20.9986 9.2805 20.9097 8.57312C20.8231 7.88448 20.6641 7.51356 20.4229 7.24539C20.3698 7.18637 20.3137 7.1302 20.2546 7.07712C19.9865 6.83592 19.6156 6.67692 18.9269 6.59034C18.2195 6.50141 17.288 6.50002 15.9521 6.50002H15.5784C15.5412 6.50002 15.5045 6.50002 15.4682 6.50003C14.4202 6.50025 13.7444 6.50038 13.1048 6.31806C12.7541 6.21811 12.4161 6.07811 12.0975 5.90083C11.5163 5.57747 11.0385 5.0995 10.2976 4.35833C10.272 4.33265 10.246 4.30666 10.2197 4.28035L9.66943 3.73009C9.38616 3.44682 9.27778 3.33951 9.16731 3.24793C8.66403 2.83073 8.04664 2.575 7.39576 2.51413C7.25289 2.50077 7.10038 2.50002 6.69976 2.50002ZM11.75 11C12.1642 11 12.5 11.3358 12.5 11.75V13H13.75C14.1642 13 14.5 13.3358 14.5 13.75C14.5 14.1642 14.1642 14.5 13.75 14.5H12.5V15.75C12.5 16.1642 12.1642 16.5 11.75 16.5C11.3358 16.5 11 16.1642 11 15.75V14.5H9.75002C9.3358 14.5 9.00002 14.1642 9.00002 13.75C9.00002 13.3358 9.3358 13 9.75002 13H11V11.75C11 11.3358 11.3358 11 11.75 11Z" fill="#5E6272" stroke="#5E6272" stroke-width="0.2"/>
</svg>
