<svg width="22" height="22" viewBox="0 0 22 22" fill="none" xmlns="http://www.w3.org/2000/svg">
<path fill-rule="evenodd" clip-rule="evenodd" d="M11 0.25C11.2189 0.25 11.427 0.345672 11.5694 0.511907L14.5694 4.01191C14.839 4.3264 14.8026 4.79988 14.4881 5.06944C14.1736 5.33901 13.7001 5.30259 13.4306 4.98809L11.75 3.02744L11.75 14C11.75 14.4142 11.4142 14.75 11 14.75C10.5858 14.75 10.25 14.4142 10.25 14L10.25 3.02744L8.56944 4.98809C8.29988 5.30259 7.8264 5.33901 7.51191 5.06944C7.19741 4.79988 7.16099 4.3264 7.43056 4.01191L10.4306 0.511906C10.573 0.345672 10.7811 0.25 11 0.25ZM5.99583 7.25196C6.41003 7.24966 6.74768 7.58357 6.74999 7.99778C6.7523 8.41199 6.41838 8.74964 6.00418 8.75194C4.91068 8.75803 4.1356 8.78643 3.54735 8.89448C2.98054 8.99859 2.65246 9.16577 2.40901 9.40922C2.13225 9.68599 1.9518 10.0746 1.85315 10.8083C1.75159 11.5637 1.75 12.5648 1.75 14.0002V15.0002C1.75 16.4356 1.75159 17.4367 1.85315 18.1921C1.9518 18.9259 2.13225 19.3144 2.40901 19.5912C2.68577 19.868 3.07434 20.0484 3.80812 20.1471C4.56347 20.2486 5.56458 20.2502 7 20.2502H15C16.4354 20.2502 17.4365 20.2486 18.1919 20.1471C18.9257 20.0484 19.3142 19.868 19.591 19.5912C19.8678 19.3144 20.0482 18.9259 20.1469 18.1921C20.2484 17.4367 20.25 16.4356 20.25 15.0002V14.0002C20.25 12.5648 20.2484 11.5637 20.1469 10.8083C20.0482 10.0746 19.8678 9.68599 19.591 9.40923C19.3475 9.16577 19.0195 8.99859 18.4527 8.89448C17.8644 8.78643 17.0893 8.75803 15.9958 8.75194C15.5816 8.74964 15.2477 8.41199 15.25 7.99778C15.2523 7.58357 15.59 7.24966 16.0042 7.25196C17.0857 7.25798 17.9871 7.28387 18.7236 7.41916C19.4816 7.55839 20.1267 7.82363 20.6517 8.34857C21.2536 8.95048 21.5125 9.70836 21.6335 10.6085C21.75 11.4754 21.75 12.5778 21.75 13.9453V15.0551C21.75 16.4227 21.75 17.525 21.6335 18.392C21.5125 19.2921 21.2536 20.05 20.6517 20.6519C20.0497 21.2538 19.2919 21.5127 18.3918 21.6337C17.5248 21.7503 16.4225 21.7502 15.0549 21.7502H6.94513C5.57754 21.7502 4.47522 21.7503 3.60825 21.6337C2.70814 21.5127 1.95027 21.2538 1.34835 20.6519C0.746434 20.05 0.48754 19.2921 0.366524 18.392C0.249963 17.525 0.24998 16.4227 0.250001 15.0551V13.9453C0.24998 12.5778 0.249963 11.4754 0.366524 10.6085C0.48754 9.70836 0.746434 8.95048 1.34835 8.34857C1.87328 7.82363 2.51835 7.55839 3.27635 7.41916C4.01291 7.28387 4.9143 7.25798 5.99583 7.25196Z" fill="#5E6272"/>
</svg>
