<svg width="20" height="21" viewBox="0 0 20 21" fill="none" xmlns="http://www.w3.org/2000/svg">
<path fill-rule="evenodd" clip-rule="evenodd" d="M12.5 1.80273H9.11965C7.58819 1.80272 6.37516 1.80271 5.42582 1.93035C4.4488 2.0617 3.65801 2.33847 3.03437 2.9621C2.41073 3.58574 2.13397 4.37653 2.00261 5.35355C1.87498 6.30289 1.87499 7.51592 1.875 9.04738V14.0944C1.875 15.6546 3.01838 16.9478 4.51293 17.1817C4.6279 17.8183 4.84794 18.3618 5.29029 18.8041C5.79189 19.3057 6.42345 19.5215 7.17354 19.6223C7.89602 19.7194 8.81462 19.7194 9.95428 19.7194H12.5457C13.6854 19.7194 14.604 19.7194 15.3265 19.6223C16.0766 19.5215 16.7081 19.3057 17.2097 18.8041C17.7113 18.3025 17.9271 17.671 18.0279 16.9209C18.125 16.1984 18.125 15.2798 18.125 14.1401V9.88201C18.125 8.74235 18.125 7.82375 18.0279 7.10128C17.9271 6.35119 17.7113 5.71962 17.2097 5.21803C16.7674 4.77567 16.2239 4.55564 15.5873 4.44066C15.3534 2.94611 14.0602 1.80273 12.5 1.80273ZM14.2744 4.32038C14.0221 3.58293 13.323 3.05274 12.5 3.05274H9.16667C7.57765 3.05274 6.44876 3.05406 5.59238 3.1692C4.75397 3.28192 4.27093 3.49331 3.91825 3.84599C3.56558 4.19866 3.35419 4.6817 3.24147 5.52011C3.12633 6.3765 3.125 7.50538 3.125 9.0944V14.0944C3.125 14.9174 3.6552 15.6165 4.39264 15.8688C4.37498 15.3605 4.37499 14.7858 4.375 14.1401V9.88201C4.37498 8.74235 4.37497 7.82375 4.4721 7.10128C4.57295 6.35119 4.7887 5.71962 5.29029 5.21803C5.79189 4.71643 6.42345 4.50068 7.17354 4.39984C7.89601 4.3027 8.81461 4.30272 9.95427 4.30273H12.5457C13.1914 4.30273 13.7661 4.30272 14.2744 4.32038ZM6.17418 6.10191C6.40481 5.87127 6.72862 5.7209 7.3401 5.63869C7.96956 5.55406 8.80382 5.55274 10 5.55274H12.5C13.6962 5.55274 14.5304 5.55406 15.1599 5.63869C15.7714 5.7209 16.0952 5.87127 16.3258 6.10191C16.5565 6.33255 16.7068 6.65636 16.789 7.26784C16.8737 7.89729 16.875 8.73155 16.875 9.92774V14.0944C16.875 15.2906 16.8737 16.1248 16.789 16.7543C16.7068 17.3658 16.5565 17.6896 16.3258 17.9202C16.0952 18.1509 15.7714 18.3012 15.1599 18.3834C14.5304 18.4681 13.6962 18.4694 12.5 18.4694H10C8.80382 18.4694 7.96956 18.4681 7.3401 18.3834C6.72862 18.3012 6.40481 18.1509 6.17418 17.9202C5.94354 17.6896 5.79317 17.3658 5.71096 16.7543C5.62633 16.1248 5.625 15.2906 5.625 14.0944V9.92773C5.625 8.73155 5.62633 7.89729 5.71096 7.26784C5.79317 6.65636 5.94354 6.33255 6.17418 6.10191Z" fill="#8F93A3"/>
</svg>
