<svg width="20" height="21" viewBox="0 0 20 21" fill="none" xmlns="http://www.w3.org/2000/svg">
<path fill-rule="evenodd" clip-rule="evenodd" d="M4.26438 7.22147C4.60879 7.19851 4.90661 7.4591 4.92957 7.80351L5.31285 13.5528C5.38773 14.676 5.44109 15.4575 5.55823 16.0455C5.67185 16.6159 5.83046 16.9178 6.05831 17.131C6.28615 17.3441 6.59795 17.4823 7.17462 17.5577C7.76912 17.6355 8.55246 17.6368 9.67816 17.6368H10.3226C11.4483 17.6368 12.2317 17.6355 12.8262 17.5577C13.4028 17.4823 13.7146 17.3441 13.9425 17.131C14.1703 16.9178 14.3289 16.6159 14.4426 16.0455C14.5597 15.4575 14.6131 14.676 14.6879 13.5528L15.0712 7.80351C15.0942 7.4591 15.392 7.19851 15.7364 7.22147C16.0808 7.24443 16.3414 7.54225 16.3185 7.88666L15.9322 13.6798C15.861 14.7487 15.8035 15.6122 15.6685 16.2897C15.5281 16.9942 15.2895 17.5825 14.7965 18.0438C14.3035 18.505 13.7005 18.704 12.9883 18.7972C12.3033 18.8868 11.4379 18.8868 10.3666 18.8868H9.63421C8.56289 18.8868 7.69752 18.8868 7.01249 18.7972C6.30028 18.704 5.69732 18.505 5.20433 18.0438C4.71133 17.5825 4.47265 16.9942 4.33232 16.2897C4.19734 15.6122 4.13979 14.7487 4.06854 13.6798L3.68234 7.88666C3.65937 7.54225 3.91996 7.24443 4.26438 7.22147Z" fill="#8F93A3"/>
<path fill-rule="evenodd" clip-rule="evenodd" d="M8.62978 2.63675L8.59146 2.63673C8.41113 2.63662 8.25403 2.63652 8.10568 2.66021C7.5196 2.7538 7.01243 3.11934 6.73831 3.64575C6.66893 3.779 6.61934 3.92808 6.56242 4.09919L6.55033 4.13554L6.46942 4.37825C6.4536 4.42573 6.44918 4.43881 6.44535 4.44942C6.29941 4.85285 5.92106 5.12555 5.49219 5.13642C5.48091 5.1367 5.4671 5.13675 5.41706 5.13675H2.91699C2.57181 5.13675 2.29199 5.41657 2.29199 5.76175C2.29199 6.10693 2.57181 6.38675 2.91699 6.38675L5.4242 6.38675L5.43815 6.38675H14.5626L14.5766 6.38675L17.0837 6.38675C17.4289 6.38675 17.7087 6.10693 17.7087 5.76175C17.7087 5.41657 17.4289 5.13675 17.0837 5.13675H14.5837C14.5337 5.13675 14.5199 5.1367 14.5086 5.13642C14.0797 5.12555 13.7014 4.85283 13.5554 4.4494C13.5516 4.43887 13.5471 4.42549 13.5314 4.37825L13.4505 4.13554L13.4384 4.09917C13.3814 3.92806 13.3319 3.77899 13.2625 3.64575C12.9884 3.11934 12.4812 2.7538 11.8951 2.66021C11.7468 2.63652 11.5897 2.63662 11.4093 2.63673L11.371 2.63675H8.62978ZM7.62081 4.87462C7.58808 4.96509 7.55004 5.05256 7.50712 5.13675H12.4937C12.4508 5.05257 12.4127 4.9651 12.38 4.87464L12.3477 4.78018L12.2646 4.53082C12.1886 4.30289 12.1711 4.25641 12.1538 4.22308C12.0624 4.04761 11.8934 3.92577 11.698 3.89457C11.6609 3.88865 11.6113 3.88675 11.371 3.88675H8.62978C8.38952 3.88675 8.3399 3.88865 8.30279 3.89457C8.10743 3.92577 7.93837 4.04761 7.847 4.22308C7.82965 4.25641 7.81215 4.3029 7.73618 4.53082L7.65301 4.78033C7.64049 4.8179 7.63074 4.84715 7.62081 4.87462Z" fill="#8F93A3"/>
</svg>
