<svg width="18" height="19" viewBox="0 0 18 19" fill="none" xmlns="http://www.w3.org/2000/svg">
<path fill-rule="evenodd" clip-rule="evenodd" d="M8.95251 0.802735L10.2503 0.802735C10.5955 0.802735 10.8753 1.08256 10.8753 1.42773C10.8753 1.77291 10.5955 2.05273 10.2503 2.05273H9.00033C7.01847 2.05273 5.59495 2.05406 4.51164 2.19971C3.4463 2.34294 2.80404 2.61535 2.32932 3.09006C1.85461 3.56478 1.5822 4.20705 1.43897 5.27238C1.29332 6.3557 1.29199 7.77921 1.29199 9.76107C1.29199 11.7429 1.29332 13.1664 1.43897 14.2498C1.5822 15.3151 1.85461 15.9574 2.32932 16.4321C2.80404 16.9068 3.4463 17.1792 4.51164 17.3224C5.59495 17.4681 7.01847 17.4694 9.00033 17.4694C10.9822 17.4694 12.4057 17.4681 13.489 17.3224C14.5543 17.1792 15.1966 16.9068 15.6713 16.4321C16.146 15.9574 16.4185 15.3151 16.5617 14.2498C16.7073 13.1664 16.7087 11.7429 16.7087 9.76107V8.51107C16.7087 8.16589 16.9885 7.88607 17.3337 7.88607C17.6788 7.88607 17.9587 8.16589 17.9587 8.51107V9.80888C17.9587 11.7325 17.9587 13.2401 17.8005 14.4163C17.6387 15.6203 17.3009 16.5703 16.5552 17.316C15.8095 18.0616 14.8595 18.3994 13.6556 18.5613C12.4793 18.7194 10.9718 18.7194 9.04814 18.7194H8.95252C7.02885 18.7194 5.52132 18.7194 4.34508 18.5613C3.14113 18.3994 2.19111 18.0616 1.44544 17.316C0.699764 16.5703 0.361981 15.6203 0.200114 14.4163C0.0419731 13.2401 0.0419816 11.7325 0.0419924 9.80888V9.71325C0.0419816 7.78959 0.0419731 6.28206 0.200114 5.10582C0.361981 3.90188 0.699764 2.95186 1.44544 2.20618C2.19111 1.46051 3.14113 1.12272 4.34508 0.960857C5.52132 0.802715 7.02885 0.802724 8.95251 0.802735ZM12.9758 1.65766C14.1157 0.517759 15.9638 0.517759 17.1037 1.65766C18.2436 2.79757 18.2436 4.64572 17.1037 5.78563L11.5636 11.3257C11.2542 11.6352 11.0604 11.829 10.8441 11.9977C10.5894 12.1964 10.3138 12.3667 10.0221 12.5057C9.7745 12.6237 9.51445 12.7104 9.09931 12.8488L6.67888 13.6556C6.232 13.8045 5.73933 13.6882 5.40625 13.3551C5.07318 13.0221 4.95687 12.5294 5.10583 12.0825L5.91263 9.66209C6.05098 9.24695 6.13765 8.98689 6.25566 8.73928C6.39465 8.44763 6.565 8.172 6.7637 7.91725C6.9324 7.70096 7.12624 7.50714 7.4357 7.19773L12.9758 1.65766ZM16.2198 2.54155C15.5681 1.8898 14.5114 1.8898 13.8597 2.54155L13.5458 2.8554C13.5647 2.93528 13.5912 3.03046 13.628 3.13662C13.7474 3.48084 13.9734 3.93416 14.4003 4.36106C14.8272 4.78796 15.2806 5.01395 15.6248 5.13338C15.7309 5.17021 15.8261 5.19667 15.906 5.21559L16.2198 4.90174C16.8716 4.24999 16.8716 3.1933 16.2198 2.54155ZM14.9213 6.20031C14.4913 6.0154 13.9905 5.71895 13.5164 5.24495C13.0424 4.77094 12.746 4.27009 12.5611 3.84011L8.34825 8.05295C8.00115 8.40004 7.86503 8.5377 7.74934 8.68603C7.60647 8.86918 7.48399 9.06736 7.38406 9.27705C7.30313 9.44687 7.24089 9.63018 7.08566 10.0959L6.72575 11.1756L7.5858 12.0356L8.66554 11.6757C9.13122 11.5205 9.31453 11.4583 9.48434 11.3773C9.69403 11.2774 9.89221 11.1549 10.0754 11.0121C10.2237 10.8964 10.3613 10.7602 10.7084 10.4131L14.9213 6.20031Z" fill="#8F93A3"/>
</svg>
