<svg width="25" height="33" viewBox="0 0 25 33" fill="none" xmlns="http://www.w3.org/2000/svg">
<g opacity="0.2">
<path d="M20.688 8.05666C19.8782 8.05588 19.1018 7.73383 18.5292 7.16121C17.9566 6.5886 17.6346 5.81219 17.6338 5.0024V0.761719H3.98591C2.92878 0.761719 1.91497 1.18168 1.16746 1.92918C0.419957 2.67669 0 3.6905 0 4.74763V28.7758C0 29.8329 0.419957 30.8467 1.16746 31.5943C1.91497 32.3418 2.92878 32.7617 3.98591 32.7617H20.3681C20.8916 32.7619 21.4101 32.6589 21.8939 32.4587C22.3776 32.2585 22.8172 31.9649 23.1875 31.5948C23.5578 31.2246 23.8515 30.7852 24.0519 30.3015C24.2523 29.8178 24.3555 29.2993 24.3555 28.7758V8.05666H20.688Z" fill="#00C650"/>
</g>
<path d="M24.3565 8.05666H20.689C19.8792 8.05588 19.1028 7.73383 18.5302 7.16121C17.9576 6.5886 17.6355 5.81219 17.6348 5.0024V0.761719L24.3565 8.05666Z" fill="#2EFF82"/>
<path d="M11.062 13.1641H4.59061C4.44355 13.1641 4.30248 13.1058 4.19836 13.002C4.09423 12.8981 4.03555 12.7572 4.03516 12.6101C4.03516 12.4628 4.09368 12.3215 4.19785 12.2174C4.30202 12.1132 4.44329 12.0547 4.59061 12.0547H11.0561C11.2034 12.0547 11.3447 12.1132 11.4489 12.2174C11.553 12.3215 11.6115 12.4628 11.6115 12.6101C11.6111 12.7562 11.5533 12.8962 11.4504 12.9999C11.3476 13.1035 11.208 13.1626 11.062 13.1641Z" fill="#00C650"/>
<path d="M11.062 16.4766H4.59061C4.44355 16.4766 4.30248 16.4183 4.19836 16.3144C4.09423 16.2106 4.03555 16.0697 4.03516 15.9226C4.03516 15.7753 4.09368 15.634 4.19785 15.5298C4.30202 15.4257 4.44329 15.3672 4.59061 15.3672H11.0561C11.2034 15.3672 11.3447 15.4257 11.4489 15.5298C11.553 15.634 11.6115 15.7753 11.6115 15.9226C11.6111 16.0687 11.5533 16.2087 11.4504 16.3124C11.3476 16.416 11.208 16.4751 11.062 16.4766Z" fill="#00C650"/>
<path d="M11.062 19.7901H4.59061C4.44329 19.7901 4.30202 19.7315 4.19785 19.6274C4.09368 19.5232 4.03516 19.3819 4.03516 19.2346C4.03633 19.0881 4.09536 18.9479 4.19941 18.8447C4.30345 18.7415 4.44406 18.6836 4.59061 18.6836H11.0561C11.2031 18.6836 11.3442 18.7419 11.4483 18.8457C11.5524 18.9496 11.6111 19.0905 11.6115 19.2376C11.6107 19.3833 11.5527 19.523 11.4499 19.6263C11.3471 19.7297 11.2078 19.7885 11.062 19.7901Z" fill="#00C650"/>
<path d="M11.062 23.1055H4.59061C4.44329 23.1055 4.30202 23.047 4.19785 22.9428C4.09368 22.8387 4.03516 22.6974 4.03516 22.5501C4.03555 22.403 4.09423 22.2621 4.19836 22.1582C4.30248 22.0544 4.44355 21.9961 4.59061 21.9961H11.0561C11.2031 21.9961 11.3442 22.0544 11.4483 22.1582C11.5524 22.2621 11.6111 22.403 11.6115 22.5501C11.6115 22.6964 11.5538 22.8367 11.451 22.9407C11.3481 23.0447 11.2083 23.104 11.062 23.1055Z" fill="#00C650"/>
<path d="M17.3674 18.2399V13.3164C16.168 13.3797 15.0385 13.9008 14.2117 14.7722C13.385 15.6435 12.9241 16.7988 12.9238 18C12.9236 18.6159 13.0448 19.2258 13.2804 19.7948C13.516 20.3639 13.8614 20.8809 14.2969 21.3164C14.7324 21.7519 15.2495 22.0973 15.8185 22.3329C16.3876 22.5685 16.9974 22.6897 17.6133 22.6895C18.8144 22.6896 19.9698 22.2287 20.841 21.4019C21.7122 20.575 22.2328 19.4453 22.2954 18.2459L17.3674 18.2399Z" fill="#00C650"/>
<path d="M18.2656 12.9414V17.385H22.7092C22.6499 16.2257 22.1627 15.1296 21.3418 14.3088C20.521 13.488 19.4249 13.0008 18.2656 12.9414Z" fill="#00C650"/>
</svg>
