<svg width="20" height="20" viewBox="0 0 20 20" fill="none" xmlns="http://www.w3.org/2000/svg">
<path d="M14.3333 16V13.3333C14.3333 12.4493 13.9821 11.6014 13.357 10.9763C12.7319 10.3512 11.8841 10 11 10H4.33333C3.44928 10 2.60143 10.3512 1.97631 10.9763C1.35119 11.6014 1 12.4493 1 13.3333V16" stroke="white" stroke-width="1.5" stroke-linecap="round" stroke-linejoin="round"/>
<path d="M7.66927 7.66667C9.51022 7.66667 11.0026 6.17428 11.0026 4.33333C11.0026 2.49238 9.51022 1 7.66927 1C5.82832 1 4.33594 2.49238 4.33594 4.33333C4.33594 6.17428 5.82832 7.66667 7.66927 7.66667Z" stroke="white" stroke-width="1.5" stroke-linecap="round" stroke-linejoin="round"/>
<path d="M18 16V13.9557C17.9996 13.0498 17.8029 12.1698 17.4409 11.4538C17.0789 10.7378 16.5721 10.2265 16 10" stroke="white" stroke-width="1.5" stroke-linecap="round" stroke-linejoin="round"/>
<path d="M13.5 1.1084C14.217 1.29198 14.8525 1.70898 15.3064 2.29366C15.7602 2.87833 16.0065 3.59742 16.0065 4.33757C16.0065 5.07771 15.7602 5.7968 15.3064 6.38147C14.8525 6.96615 14.217 7.38315 13.5 7.56673" stroke="white" stroke-width="1.66667" stroke-linecap="round" stroke-linejoin="round"/>
<path d="M8 13V19" stroke="white" stroke-width="1.5" stroke-linecap="round" stroke-linejoin="round"/>
<path d="M5 16H11" stroke="white" stroke-width="1.5" stroke-linecap="round" stroke-linejoin="round"/>
</svg>
