<svg width="13" height="14" viewBox="0 0 13 14" fill="none" xmlns="http://www.w3.org/2000/svg">
<path d="M0.981591 5.42741H11.7818C11.8629 5.42757 11.9406 5.46075 11.9979 5.51967C12.0552 5.5786 12.0875 5.65848 12.0876 5.74181V12.5512C12.0876 12.7167 12.0559 12.8805 11.9943 13.0334C11.9327 13.1863 11.8425 13.3252 11.7287 13.4422C11.6149 13.5592 11.4797 13.652 11.3311 13.7153C11.1824 13.7786 11.023 13.8112 10.8621 13.8112H1.90135C1.74041 13.8112 1.58104 13.7786 1.43235 13.7153C1.28365 13.652 1.14855 13.5592 1.03474 13.4422C0.920938 13.3252 0.830663 13.1863 0.769072 13.0334C0.707482 12.8805 0.675781 12.7167 0.675781 12.5512V5.73941C0.676549 5.6565 0.709089 5.57723 0.76634 5.51882C0.82359 5.46041 0.900935 5.42757 0.981591 5.42741ZM12.0876 4.27541V3.33281C12.0876 2.99864 11.9585 2.67816 11.7287 2.44186C11.4988 2.20556 11.1871 2.07281 10.8621 2.07281H9.63648V0.713814C9.63634 0.631506 9.60488 0.552521 9.54881 0.493762C9.49275 0.435004 9.41654 0.401139 9.3365 0.399414L8.31753 0.399414C8.23647 0.399573 8.15877 0.432748 8.10146 0.491675C8.04414 0.550602 8.01187 0.630479 8.01172 0.713814V2.07581H4.75169V0.713814C4.75154 0.630479 4.71927 0.550602 4.66195 0.491675C4.60463 0.432748 4.52694 0.399573 4.44588 0.399414H3.4269C3.34584 0.399573 3.26815 0.432748 3.21083 0.491675C3.15352 0.550602 3.12125 0.630479 3.12109 0.713814V2.07581H1.90135C1.57682 2.07581 1.26553 2.20815 1.03577 2.4438C0.806018 2.67945 0.676554 2.99916 0.675781 3.33281L0.675781 4.27541C0.675936 4.35875 0.708204 4.43863 0.765521 4.49755C0.822838 4.55648 0.900533 4.58966 0.981591 4.58981H11.7818C11.8629 4.58966 11.9406 4.55648 11.9979 4.49755C12.0552 4.43863 12.0875 4.35875 12.0876 4.27541Z" fill="#0996FF"/>
</svg>
