<svg width="304" height="241" viewBox="0 0 304 241" fill="none" xmlns="http://www.w3.org/2000/svg">
<g clip-path="url(#clip0_1814_90576)">
<path d="M89.3423 6.42928L87.5263 3.83452C87.0201 3.11237 86.0466 2.90352 85.2784 3.34247C82.8854 4.70534 80.765 6.42574 78.949 8.4789C78.365 9.13733 78.365 10.1285 78.9632 10.7728L81.1438 13.1233C81.6535 13.672 81.7456 14.4932 81.3562 15.1304C80.6907 16.2207 80.1385 17.3677 79.6995 18.5606C79.4694 19.1907 78.8641 19.6084 78.1915 19.6332L74.5277 19.7748C73.7135 19.8067 73.0444 20.412 72.9135 21.2156C72.4674 23.9873 72.4887 26.8334 72.9736 29.591C73.1223 30.4265 73.8586 31.0318 74.7047 30.9999L78.0888 30.8831C78.8039 30.8583 79.4694 31.2831 79.7172 31.9557C79.9402 32.554 80.1951 33.1487 80.4818 33.7363C80.7544 34.285 81.0447 34.8195 81.3597 35.3293C81.7243 35.9204 81.6677 36.678 81.2429 37.2267L79.08 40.0126C78.5703 40.6675 78.6163 41.5949 79.1756 42.2073C81.0588 44.2711 83.2996 46.0234 85.7599 47.3579C86.4962 47.758 87.4201 47.5668 87.9298 46.9013L90.0255 44.1543C90.4574 43.5915 91.1937 43.3507 91.8698 43.5667C93.1548 43.9808 94.4823 44.2605 95.831 44.4021C96.5921 44.48 97.2045 45.0641 97.3213 45.8216L97.7992 48.9191C97.9337 49.797 98.7266 50.4164 99.6116 50.3527C102.39 50.1545 105.091 49.4996 107.679 48.3916C108.412 48.0765 108.851 47.3119 108.709 46.5261L108.047 42.7737C107.934 42.1365 108.189 41.4746 108.723 41.11C109.75 40.4055 110.692 39.6161 111.541 38.7488C112.069 38.2143 112.89 38.101 113.548 38.4656L116.341 40.009C117.11 40.4338 118.072 40.2002 118.564 39.4781C120.129 37.1913 121.318 34.6354 122.065 31.9628C122.285 31.1734 121.92 30.3344 121.184 29.9733L117.952 28.3804C117.34 28.0795 116.957 27.4388 117.014 26.7626C117.113 25.5237 117.095 24.267 116.95 23.0139C116.869 22.2917 117.276 21.6014 117.938 21.3041L120.968 19.9483C121.75 19.5978 122.147 18.7164 121.899 17.8987C121.503 16.596 120.996 15.3216 120.395 14.0932C119.779 12.8436 119.06 11.6436 118.253 10.5179C117.75 9.817 116.802 9.59752 116.048 10.0152L113.166 11.6047C112.522 11.9587 111.718 11.8595 111.191 11.3498C110.203 10.3975 109.123 9.56212 107.976 8.8506C107.346 8.4612 107.049 7.70012 107.244 6.98151L108.097 3.82036C108.323 2.98493 107.881 2.11411 107.077 1.79552C104.518 0.776018 101.785 0.18131 99.0417 0.0397128C98.1815 -0.00276631 97.4239 0.599022 97.2753 1.44506L96.7124 4.7018C96.5885 5.42748 96.008 5.98679 95.2787 6.08237C93.9371 6.25583 92.599 6.57796 91.2857 7.04877C90.5742 7.30365 89.7777 7.04877 89.3423 6.42575V6.42928ZM102.203 13.0702C116.908 20.5678 110.115 40.5436 93.8876 37.5205C93.7141 37.4886 93.5371 37.4284 93.3813 37.347C78.6871 29.8459 85.4767 9.88071 101.697 12.8967C101.87 12.9286 102.047 12.9888 102.203 13.0702Z" fill="#113160"/>
<path d="M50.4922 29.9269L49.0267 27.8349C48.6196 27.2508 47.8337 27.0844 47.2142 27.4384C45.2885 28.5358 43.5787 29.9234 42.1132 31.5766C41.6424 32.1075 41.6424 32.904 42.1238 33.4244L43.8796 35.3183C44.2903 35.7608 44.3646 36.4227 44.0496 36.936C43.515 37.8139 43.069 38.7414 42.715 39.7007C42.5274 40.2104 42.0424 40.5432 41.5008 40.5644L38.5485 40.6777C37.8936 40.7025 37.352 41.191 37.2493 41.8388C36.8918 44.0725 36.906 46.3664 37.2989 48.5895C37.4157 49.262 38.0104 49.7506 38.6936 49.7258L41.4194 49.6302C41.9964 49.609 42.5309 49.9523 42.7327 50.4939C42.9132 50.9754 43.1185 51.4568 43.3486 51.9276C43.5681 52.3701 43.8053 52.7984 44.0566 53.2126C44.3504 53.6905 44.3044 54.2994 43.9611 54.7418L42.2194 56.9862C41.8088 57.5136 41.8442 58.2605 42.2973 58.7561C43.8159 60.4164 45.6213 61.8288 47.6036 62.9085C48.1984 63.2306 48.9417 63.0784 49.3524 62.5403L51.0409 60.3243C51.3878 59.8712 51.9825 59.6765 52.5277 59.8535C53.5613 60.1863 54.6339 60.4128 55.7172 60.5261C56.3296 60.5898 56.8252 61.0606 56.9172 61.6695L57.2995 64.1651C57.4093 64.8731 58.0464 65.3723 58.7615 65.3227C61.0023 65.1634 63.1758 64.6359 65.2608 63.7403C65.852 63.4855 66.2024 62.8695 66.0927 62.2359L65.5582 59.2128C65.4661 58.6995 65.6715 58.1685 66.1033 57.8711C66.9281 57.3048 67.6892 56.6676 68.3724 55.9702C68.7972 55.5383 69.4592 55.4463 69.9902 55.7401L72.2416 56.9826C72.8575 57.3225 73.6363 57.1384 74.0328 56.5543C75.293 54.7135 76.2523 52.6533 76.8541 50.4975C77.0311 49.8603 76.7373 49.1842 76.1426 48.8939L73.5407 47.6124C73.0487 47.3682 72.7407 46.8549 72.7832 46.3062C72.8646 45.3079 72.8469 44.2955 72.7336 43.2866C72.6664 42.7026 72.9956 42.1503 73.5301 41.9096L75.9727 40.8158C76.6028 40.5326 76.9249 39.8246 76.7231 39.1626C76.4045 38.1113 75.9974 37.0847 75.5089 36.097C75.0133 35.0882 74.4363 34.1253 73.7814 33.2155C73.3779 32.6492 72.6133 32.4757 72.0044 32.812L69.6822 34.0934C69.1618 34.3802 68.5176 34.2988 68.0892 33.8881C67.2927 33.12 66.4255 32.4474 65.498 31.8739C64.9883 31.5589 64.7511 30.9464 64.9068 30.3694L65.5936 27.8242C65.7741 27.1516 65.4201 26.4507 64.7723 26.1923C62.7085 25.3781 60.5067 24.9003 58.2942 24.787C57.6004 24.7516 56.9915 25.2365 56.8712 25.9198L56.4181 28.5428C56.3154 29.1269 55.8517 29.58 55.2641 29.6579C54.1808 29.7995 53.1047 30.0544 52.0463 30.4367C51.4728 30.642 50.8321 30.4367 50.4816 29.934L50.4922 29.9269ZM60.8571 35.2793C72.7088 41.322 67.2326 57.418 54.1561 54.9826C54.0145 54.9578 53.8729 54.9082 53.7454 54.8445C41.9044 48.7983 47.3771 32.7093 60.4465 35.1413C60.5881 35.166 60.7297 35.2156 60.8571 35.2793Z" fill="#113160"/>
<path d="M80.0611 107.658C79.9408 102.465 79.0523 97.2399 76.9248 92.5035C74.7937 87.767 71.3635 83.5368 66.8678 80.9385C63.6642 79.0871 59.2817 78.2305 56.4781 80.6447C55.5436 81.4483 54.8922 82.5421 54.4214 83.682C53.193 86.6697 53.1612 90.1317 54.3329 93.1406C55.3205 95.6717 57.0905 97.824 58.9985 99.7568C64.1031 104.932 70.8431 109.028 78.1142 108.996" fill="#3DA083"/>
<path d="M79.1316 118.068C75.9988 114.542 71.5491 112.238 66.8835 111.618C65.2303 111.399 61.5736 110.822 60.593 112.617C59.6479 114.348 61.9028 116.992 63.0533 117.958C64.4091 119.095 65.8675 120.135 67.5101 120.787C71.3757 122.32 76.0979 121.389 79.0927 118.504" fill="#3DA083"/>
<path d="M200.291 108.581C197.689 101.169 196.691 92.9562 199.003 85.4516C201.314 77.9434 207.367 71.3343 215.06 69.7555C216.115 69.5396 217.223 69.4192 218.263 69.6989C219.315 69.9821 220.217 70.6511 220.996 71.4122C224.685 75.0336 225.701 80.7789 224.593 85.8304C223.485 90.8818 220.536 95.3386 217.208 99.2998C213.552 103.654 208.932 107.781 203.279 108.401" fill="#3DA083"/>
<path d="M203.906 117.014C204.968 115.336 206.731 114.246 208.473 113.294C211.991 111.368 215.74 109.74 219.716 109.181C221.871 108.88 224.494 109.12 225.581 111.007C226.487 112.572 225.886 114.6 224.88 116.105C223.231 118.572 220.523 120.299 217.592 120.76C215.733 121.053 213.832 120.852 211.967 120.597C209.379 120.243 206.745 119.758 204.49 118.441" fill="#3DA083"/>
<path d="M213.311 78.808C207.251 86.2701 201.622 94.0828 196.482 102.207C195.038 104.49 193.633 106.795 192.263 109.124C192.1 109.404 192.532 109.655 192.695 109.375C197.527 101.152 202.836 93.2119 208.596 85.6117C210.249 83.4311 211.938 81.2824 213.662 79.1584C213.863 78.9106 213.509 78.5531 213.308 78.8044L213.311 78.808Z" fill="#14314D"/>
<path d="M219.447 115.183C212.455 116.624 205.312 117.254 198.175 117.066C197.853 117.059 197.853 117.558 198.175 117.569C205.354 117.757 212.544 117.116 219.578 115.668C219.893 115.604 219.758 115.119 219.443 115.183H219.447Z" fill="#14314D"/>
<path d="M60.6666 88.9595C69.3536 94.2021 77.3715 100.531 84.4868 107.767C86.4656 109.781 88.3736 111.863 90.2073 114.012C90.4162 114.256 90.7702 113.902 90.5613 113.658C83.9735 105.955 76.4264 99.0801 68.1394 93.2428C65.7889 91.5861 63.3817 90.0143 60.9179 88.5311C60.6418 88.3647 60.3905 88.7966 60.6666 88.963V88.9595Z" fill="#14314D"/>
<path d="M65.8096 115.881C71.3071 117.732 77.0206 118.918 82.8048 119.414C84.4473 119.552 86.0899 119.637 87.7359 119.665C88.0581 119.672 88.0581 119.17 87.7359 119.163C81.98 119.063 76.2418 118.281 70.6735 116.816C69.0805 116.398 67.5017 115.923 65.9441 115.396C65.6361 115.293 65.5052 115.778 65.8096 115.881Z" fill="#14314D"/>
<path d="M80.3743 128.958L206.233 128.706L192.137 44.9232C191.592 41.6877 188.788 39.323 185.51 39.3301L73.2484 39.5531C69.1067 39.5602 65.9597 43.2877 66.65 47.3728L80.3779 128.958H80.3743Z" fill="#243A5B"/>
<path d="M89.5431 68.0099C87.9501 66.7532 85.9147 66.7532 84.9943 68.0099C84.0739 69.2666 84.619 71.302 86.212 72.5587C87.805 73.8154 89.8404 73.8154 90.7608 72.5587C91.6812 71.302 91.1361 69.2666 89.5431 68.0099Z" fill="#8FC6C6"/>
<path d="M95.0273 70.4248H163.493" stroke="#648BBC" stroke-width="0.400012" stroke-miterlimit="10"/>
<path d="M96.638 99.9545C97.6614 98.7847 97.2528 96.7532 95.7254 95.417C94.198 94.0808 92.1302 93.946 91.1069 95.1158C90.0835 96.2856 90.4921 98.3171 92.0195 99.6532C93.5468 100.989 95.6146 101.124 96.638 99.9545Z" fill="#8FC6C6"/>
<path d="M101.023 97.686H169.489" stroke="#648BBC" stroke-width="0.400012" stroke-miterlimit="10"/>
<path d="M66.7518 48.1944L66.6492 47.3767C65.9624 43.2916 69.1059 39.5676 73.2476 39.557L185.509 39.334C188.787 39.3269 191.591 41.6951 192.136 44.9271L192.713 48.3644C193.014 47.8404 66.7483 48.1944 66.7483 48.1944H66.7518Z" fill="#206BC7"/>
<path d="M77.1285 43.281C76.3037 42.6296 75.2453 42.6296 74.7674 43.281C74.2895 43.9323 74.5727 44.9872 75.401 45.6421C76.2258 46.2935 77.2843 46.2935 77.7622 45.6421C78.2401 44.9908 77.9569 43.9359 77.1285 43.281Z" fill="#14314D"/>
<path d="M82.5816 43.281C81.7568 42.6296 80.6984 42.6296 80.2205 43.281C79.7426 43.9323 80.0258 44.9872 80.8542 45.6421C81.6825 46.297 82.7374 46.2935 83.2153 45.6421C83.6932 44.9908 83.41 43.9359 82.5816 43.281Z" fill="#FFB701"/>
<path d="M88.066 43.281C87.2412 42.6296 86.1828 42.6296 85.7049 43.281C85.227 43.9323 85.5102 44.9872 86.3385 45.6421C87.1669 46.297 88.2218 46.2935 88.6997 45.6421C89.1776 44.9908 88.8944 43.9359 88.066 43.281Z" fill="#8FC6C6"/>
<path d="M160.665 35.0783C163.035 35.0783 164.956 33.1575 164.956 30.788C164.956 28.4184 163.035 26.4976 160.665 26.4976C158.296 26.4976 156.375 28.4184 156.375 30.788C156.375 33.1575 158.296 35.0783 160.665 35.0783Z" fill="#206BC7" stroke="#206BC7" stroke-width="0.860203" stroke-miterlimit="10"/>
<path d="M152.528 45.1675L163.346 27.1599C163.973 25.666 162.217 21.1739 161.077 20.0128C157.958 16.8374 153.456 15.2409 149.017 14.933C146.553 14.7631 141.841 17.4392 140.443 20.5331C138.892 23.9598 137.976 27.3369 133.706 29.0042C124.591 32.5654 126.439 42.5409 126.439 42.5409" fill="#000400"/>
<path d="M151.001 17.1378C151.847 16.5218 152.736 16.0652 153.653 15.7536C152.761 15.4952 151.851 15.297 150.934 15.1519C150.771 15.2085 150.608 15.2581 150.449 15.3218C146.056 17.067 143.008 23.1344 144.109 27.7151C144.629 27.708 145.829 27.9452 146.332 27.8496C146.413 23.984 147.815 19.4529 151.001 17.1378Z" fill="#206BC7"/>
<path d="M147.047 28.1232C146.994 28.332 146.785 28.4559 146.579 28.3957C145.719 28.148 143.779 27.4046 142.866 29.5816C141.942 31.7835 143.754 33.6773 145.039 34.1163C145.411 34.2437 146.261 34.5658 146.438 34.9163C146.983 35.9924 145.447 44.5237 143.977 47.4158C143.868 52.9381 152.112 60.4852 152.112 60.4852C152.112 60.4852 154.282 57.4267 156.024 50.7469C156.024 50.7469 156.565 38.7005 156.647 38.6545C157.996 37.8969 163.33 38.3111 163.21 28.8807C163.1 20.1442 157.019 19.0539 155.436 18.8981C154.102 18.7671 149.617 17.8043 147.047 28.1232Z" fill="#FFB4A5"/>
<path d="M159.825 19.2721C159.825 19.2721 154.777 30.8725 146.784 28.3839C146.784 28.3839 144.897 13.4525 159.825 19.2721Z" fill="#000400"/>
<path d="M143.66 30.5118C143.66 30.5118 145.82 28.0338 146.46 32.349L143.66 30.5118Z" fill="#FF8164"/>
<path d="M154.539 30.2363C155.665 30.5265 156.341 31.6735 156.054 32.7956C155.764 33.9213 154.617 34.5974 153.495 34.3107C152.373 34.024 151.693 32.8735 151.98 31.7513C152.27 30.6256 153.417 29.9495 154.539 30.2363Z" fill="#FF9E87"/>
<path d="M162.763 33.3651C161.885 32.9368 161.397 31.935 161.648 30.9509C161.843 30.1933 162.427 29.6376 163.135 29.4429C163.135 29.4429 163.368 31.9279 162.763 33.3651Z" fill="#FF9E87"/>
<path d="M161.355 31.8438L157.836 32.5128C157.836 32.5128 159.036 34.035 160.024 33.6633C161.008 33.2916 161.358 31.8438 161.358 31.8438H161.355Z" fill="#14314D"/>
<path d="M159.619 28.9362L159.488 31.276L160.695 31.1026C160.918 31.0707 161.025 30.8123 160.89 30.6318L159.619 28.9326V28.9362Z" fill="#FF8164"/>
<path d="M155.891 26.997C155.52 27.2943 156.04 26.0341 156.564 25.8571C157.088 25.6801 157.637 25.9031 157.789 26.3562C157.789 26.3562 156.783 26.2784 155.888 26.997H155.891Z" fill="black"/>
<path d="M162.332 26.4296C162.739 26.6774 162.063 25.4915 161.518 25.3853C160.976 25.2756 160.459 25.5694 160.367 26.0366C160.367 26.0366 161.351 25.8313 162.332 26.4296Z" fill="black"/>
<path d="M157.213 29.1173C157.259 29.528 157.457 29.843 157.655 29.8218C157.853 29.8005 157.981 29.4501 157.935 29.0394C157.889 28.6288 157.69 28.3138 157.492 28.335C157.294 28.3562 157.167 28.7067 157.213 29.1173Z" fill="black"/>
<path d="M160.458 28.5619C160.5 28.9549 160.692 29.2558 160.879 29.2345C161.07 29.2133 161.187 28.877 161.145 28.4876C161.102 28.0947 160.911 27.7938 160.723 27.815C160.532 27.8363 160.415 28.1726 160.458 28.5619Z" fill="black"/>
<path d="M157.006 38.4772C157.006 38.4772 155.091 38.8807 153.183 38.2117C151.275 37.5391 155.017 42.3817 157.006 38.4772Z" fill="#FF8164"/>
<path d="M145.281 128.943C145.897 126.351 146.378 124.319 146.693 123.003C147.125 121.187 149.932 121.587 149.713 123.438C149.553 124.776 149.426 126.649 149.323 128.943H170.616C169.25 110.298 166.209 93.6318 160.326 83.9076C152.467 82.8244 142.881 84.2404 134.912 84.4776C130.948 91.4866 128.852 96.6195 126.576 105.526C125.839 108.4 123.995 117.254 121.684 128.939H145.281V128.943Z" fill="#2D2F3D"/>
<g style="mix-blend-mode:multiply" opacity="0.21">
<path d="M160.213 87.4414L124.602 113.421C124.602 113.421 127.359 98.1072 133.104 87.314L160.21 87.4414H160.213Z" fill="black"/>
</g>
<path d="M197.464 69.1535C197.464 69.1535 190.529 75.5572 179.318 83.7203L179.3 83.7592C179.283 83.7486 179.261 83.738 179.244 83.7309C178.56 83.8406 175.888 85.207 175.321 85.1575C175.321 85.1575 168.376 87.8797 163.583 71.9536C162.875 70.5305 152.807 53.3442 152.645 53.1459C152.645 53.1459 153.834 49.567 153.926 49.4892C160.273 44.0341 167.137 65.8967 173.374 73.3341C173.633 73.6421 174.058 73.7448 174.429 73.589C175.197 73.274 176.252 72.75 176.252 72.75L182.787 69.5499L194.256 62.0807C194.256 62.0807 195.145 58.1231 195.456 57.6806C196.033 57.5036 198.391 57.4151 198.391 57.4151C198.391 57.4151 205.637 51.3016 205.637 52.7919C205.637 53.6804 201.726 58.0841 201.726 58.0841C201.726 58.0841 203.726 60.5302 203.86 62.1303C203.995 63.7303 197.457 69.1535 197.457 69.1535H197.464Z" fill="#FF9E87"/>
<g style="mix-blend-mode:multiply">
<path d="M195.414 57.8501C196.196 57.797 196.979 57.7722 197.761 57.7687C198.15 57.7616 198.543 57.7687 198.933 57.7722L199.517 57.7864C199.712 57.8005 199.899 57.7651 200.165 57.8572C200.296 57.9067 200.416 58.0235 200.476 58.1474C200.54 58.2713 200.558 58.4023 200.554 58.5333C200.54 58.7882 200.409 59.0147 200.243 59.174C199.903 59.4784 199.503 59.62 199.127 59.7121C198.37 59.9174 197.602 60.0979 196.837 60.2501C197.563 59.9457 198.292 59.6661 199.025 59.4147C199.389 59.2908 199.743 59.1386 199.977 58.9014C200.087 58.7846 200.158 58.6501 200.165 58.5085C200.168 58.3704 200.112 58.2572 200.016 58.2253C199.913 58.1793 199.701 58.1864 199.506 58.1757L198.922 58.151C198.533 58.1262 198.143 58.112 197.754 58.0802C196.975 58.0271 196.196 57.9527 195.418 57.8465L195.414 57.8501Z" fill="#D18478"/>
<path d="M201.406 58.0728C201.183 58.3241 200.956 58.5648 200.751 58.8268C200.542 59.0816 200.344 59.3471 200.152 59.6162C199.777 60.1542 199.441 60.7171 199.161 61.3082L199.083 61.0498C199.299 61.1844 199.597 61.1419 199.883 61.0109C200.174 60.8905 200.436 60.6888 200.726 60.4976C201.009 60.3064 201.296 60.1188 201.583 59.9348C201.876 59.7578 202.163 59.5701 202.464 59.4038C202.216 59.6445 201.954 59.864 201.699 60.0941C201.441 60.3171 201.179 60.5365 200.91 60.7525C200.652 60.9684 200.372 61.1914 200.043 61.3578C199.876 61.4392 199.692 61.5029 199.49 61.5242C199.289 61.5419 199.062 61.5065 198.878 61.3967L198.719 61.3012L198.8 61.1348C199.101 60.5224 199.469 59.9454 199.908 59.4285C200.124 59.1666 200.361 58.9259 200.613 58.6958C200.867 58.4728 201.126 58.2568 201.409 58.0728H201.406Z" fill="#D18478"/>
<path d="M200.055 61.259C200.023 61.4608 199.981 61.6626 200.005 61.8396C200.023 62.0095 200.129 62.1652 200.246 62.2113C200.352 62.2537 200.483 62.2042 200.657 62.1015C200.83 62.0059 201.004 61.9139 201.174 61.8112C201.517 61.6201 201.853 61.4148 202.193 61.2095C202.533 61.0041 202.869 60.7882 203.223 60.5864C202.728 61.2378 202.076 61.7511 201.372 62.1582C201.191 62.2537 201.014 62.3529 200.827 62.4378C200.735 62.4803 200.628 62.5263 200.501 62.5511C200.377 62.5794 200.214 62.5582 200.097 62.4803C199.86 62.3245 199.786 62.059 199.814 61.8325C199.846 61.6059 199.949 61.4254 200.059 61.2519L200.055 61.259Z" fill="#D18478"/>
<path d="M203.481 62.105C203.392 62.3422 203.208 62.5369 202.989 62.6749C202.769 62.8165 202.514 62.8908 202.256 62.9192C201.998 62.9369 201.732 62.905 201.495 62.8023C201.258 62.7032 201.042 62.5404 200.918 62.3209C201.152 62.4094 201.368 62.4661 201.583 62.5015C201.799 62.5298 202.012 62.5404 202.224 62.5192C202.437 62.505 202.645 62.459 202.854 62.3953C203.063 62.328 203.265 62.236 203.481 62.1085V62.105Z" fill="#D18478"/>
</g>
<path d="M153.156 49.3829C153.156 49.3829 156.438 46.3775 160.654 48.8732C164.87 51.3688 172.729 68.4455 175.189 71.819L185.193 65.6843C185.193 65.6843 190.619 74.2049 192.662 75.8227C192.662 75.8227 177.295 89.6496 171.589 87.0265C165.882 84.4035 153.16 49.3865 153.16 49.3865L153.156 49.3829Z" fill="#8FC6C6"/>
<path opacity="0.93" d="M165.585 65.8476C163.578 59.5925 159.974 54.0844 155.496 49.3161C155.202 49.0011 155.036 48.6612 154.972 48.3179C153.836 48.7604 153.156 49.3798 153.156 49.3798C153.156 49.3798 161.472 72.2619 167.67 82.418C167.833 76.8143 167.309 71.2247 165.585 65.8476Z" fill="#749E9D"/>
<path d="M156.205 47.1878C155.975 47.7436 164.796 64.5476 164.524 69.9885C164.248 75.4683 163.295 85.3978 163.586 86.2226C163.586 86.2226 156.545 88.8705 133.082 85.1748C133.266 80.4419 134.629 50.6251 134.629 50.6251C134.629 50.6251 142.304 45.9064 144.289 45.7612C144.289 45.7612 145.695 47.6445 147.737 48.1719C149.097 48.5224 150.675 48.7914 152.155 48.8233C154.647 48.8728 155.139 48.5188 156.205 47.1843V47.1878Z" fill="#8FC6C6"/>
<g opacity="0.93">
<path d="M150.247 83.4692C133.974 75.6459 137.953 58.5481 135.422 50.1514C134.93 50.4452 134.629 50.6293 134.629 50.6293C134.629 50.6293 133.266 80.4425 133.082 85.179C149.539 87.7702 157.915 87.2427 161.451 86.694C159.741 85.8338 151.996 84.3081 150.247 83.4692Z" fill="#749E9D"/>
</g>
<path d="M148.626 33.4598C149.54 31.2735 148.508 28.7606 146.322 27.8469C144.136 26.9333 141.623 27.9649 140.709 30.1512C139.795 32.3375 140.827 34.8505 143.013 35.7642C145.2 36.6778 147.713 35.6461 148.626 33.4598Z" fill="#206BC7" stroke="#206BC7" stroke-width="0.860203" stroke-miterlimit="10"/>
<path d="M146.957 32.3096L149.407 34.9539C150.345 35.9663 151.739 36.43 153.099 36.1787L159.793 34.9468" stroke="#206BC7" stroke-width="0.400012" stroke-miterlimit="10"/>
<path d="M159.819 34.0679L158.643 34.3084C158.294 34.3797 158.07 34.7201 158.141 35.0687L158.171 35.2144C158.242 35.563 158.582 35.7878 158.931 35.7164L160.107 35.476C160.455 35.4047 160.68 35.0643 160.609 34.7157L160.579 34.57C160.508 34.2214 160.167 33.9966 159.819 34.0679Z" fill="#206BC7"/>
<path d="M144.661 34.6226C146.219 34.6226 147.482 33.3595 147.482 31.8013C147.482 30.2431 146.219 28.98 144.661 28.98C143.103 28.98 141.84 30.2431 141.84 31.8013C141.84 33.3595 143.103 34.6226 144.661 34.6226Z" stroke="#000400" stroke-width="0.400012" stroke-miterlimit="10"/>
<path d="M139.271 50.0128C134.73 46.3136 124.029 60.098 124.029 60.098L115.044 70.693L100.169 57.7015C99.9534 56.4024 99.5534 54.2005 99.1393 53.1775C98.6968 52.0872 98.8525 50.3314 98.9693 49.457C99.0047 49.1844 98.7357 48.965 98.4808 49.0712C98.049 49.2517 97.518 49.6517 97.4366 50.5261C97.3516 51.4712 96.8808 52.8553 96.8454 53.6094C96.8383 53.7899 96.679 53.8784 96.5126 53.8111C95.7374 53.5067 95.394 53.05 94.371 52.2111C94.0382 51.8748 93.1001 51.0712 92.1231 49.6092C91.1461 48.1472 89.8186 46.1224 89.3655 46.8481C89.0434 47.3649 90.7744 50.388 91.0859 50.8128C91.755 51.7226 92.4665 53.489 92.4842 53.5598C92.5621 53.8571 90.3355 51.7403 89.3726 50.427C88.4097 49.1136 87.5177 47.7189 87.0008 47.772C86.484 47.8286 87.2239 49.1632 87.2239 49.1632C87.2239 49.1632 86.2433 48.3738 85.9813 48.6995C85.8043 48.9189 86.8168 51.0783 87.5708 52.5014C86.1902 51.5173 86.1866 52.2642 86.1866 52.2642C86.1866 52.2642 88.3177 55.6236 89.3089 56.2501C90.1054 56.7563 91.1709 58.1369 91.3514 58.4166C91.5213 58.6821 94.2825 61.468 96.9197 62.7565C99.1711 65.7796 117.027 89.6033 119.246 87.5856C135.831 72.509 145.735 55.2802 139.275 50.0199L139.271 50.0128Z" fill="#FF9E87"/>
<g style="mix-blend-mode:multiply">
<path d="M87.5273 52.3662L88.3132 53.1202C88.5787 53.3574 88.8407 53.5769 89.1274 53.7645C89.4106 53.9521 89.7256 54.1256 90.0372 54.3379C90.3522 54.5397 90.6389 54.7946 90.9115 55.0459H90.4973C90.8159 54.7875 91.1381 54.5397 91.4744 54.3061C91.8142 54.076 92.1576 53.853 92.5328 53.6618C92.2992 54.0087 92.0337 54.3238 91.7611 54.6318C91.4885 54.9362 91.1982 55.2265 90.908 55.5097L90.7133 55.7008L90.4973 55.5061C90.2354 55.2725 89.9557 55.0707 89.6761 54.8619C89.3929 54.6601 89.0849 54.4618 88.7911 54.2105C88.4973 53.9627 88.2424 53.6689 88.0371 53.3574C87.8282 53.0459 87.6619 52.7131 87.5273 52.3662Z" fill="#D18478"/>
<path d="M97.003 54.1973C97.0596 54.5336 97.0986 54.838 97.134 55.146C97.1658 55.4539 97.1941 55.7548 97.2154 56.0557L97.3251 57.9106C97.0561 57.6912 96.8897 57.3797 96.7729 57.0717C96.6561 56.7566 96.5924 56.431 96.5711 56.1053C96.5499 55.7761 96.5676 55.4469 96.6278 55.1247C96.695 54.8026 96.7977 54.4769 97.003 54.2008V54.1973Z" fill="#D18478"/>
<path d="M87.2969 49.3369C87.6013 49.7829 87.9164 50.1865 88.2491 50.5759C88.5854 50.9617 88.9288 51.3405 89.2828 51.7157C89.6297 52.0981 89.9943 52.4733 90.3306 52.8804C90.6704 53.2839 91.0032 53.7123 91.2404 54.2008C90.7979 53.8857 90.3802 53.5778 89.9766 53.2379C89.566 52.9052 89.1801 52.5441 88.812 52.1547C88.4509 51.7582 88.1111 51.337 87.8385 50.8662C87.5659 50.3989 87.3535 49.8785 87.3004 49.3369H87.2969Z" fill="#D18478"/>
</g>
<path d="M139.268 50.0134C134.727 46.3142 124.025 60.0986 124.025 60.0986L115.041 70.6901L106.963 63.635C105.526 65.89 102.042 70.1202 100.715 72.4388C106.86 80.301 117.728 88.9491 119.236 87.5791C135.82 72.5026 145.725 55.2737 139.265 50.0134H139.268Z" fill="#8FC6C6"/>
<path d="M59.457 128.756H232.585" stroke="#206BC7" stroke-width="0.400012" stroke-miterlimit="10"/>
<path d="M177.469 29.8812L180.74 26.6103H193.055C195.561 26.6103 197.593 24.5784 197.593 22.0721V21.088C197.593 18.5817 195.561 16.5498 193.055 16.5498H182.007C179.501 16.5498 177.469 18.5817 177.469 21.088V29.8812Z" fill="#8FC6C6"/>
<path d="M191.055 21.4536C191.055 22.0801 191.561 22.5864 192.187 22.5864C192.814 22.5864 193.32 22.0801 193.32 21.4536C193.32 20.827 192.814 20.3208 192.187 20.3208C191.561 20.3208 191.055 20.827 191.055 21.4536Z" fill="#14314D"/>
<path d="M186.906 21.4536C186.906 22.0801 187.412 22.5864 188.039 22.5864C188.666 22.5864 189.172 22.0801 189.172 21.4536C189.172 20.827 188.666 20.3208 188.039 20.3208C187.412 20.3208 186.906 20.827 186.906 21.4536Z" fill="#14314D"/>
<path d="M182.754 21.4536C182.754 22.0801 183.26 22.5864 183.887 22.5864C184.513 22.5864 185.019 22.0801 185.019 21.4536C185.019 20.827 184.513 20.3208 183.887 20.3208C183.26 20.3208 182.754 20.827 182.754 21.4536Z" fill="#14314D"/>
<g style="mix-blend-mode:multiply">
<path d="M196.117 18.7835C197.411 18.7835 198.46 17.7344 198.46 16.4401C198.46 15.1459 197.411 14.0967 196.117 14.0967C194.823 14.0967 193.773 15.1459 193.773 16.4401C193.773 17.7344 194.823 18.7835 196.117 18.7835Z" fill="#206BC7"/>
</g>
<path d="M174.761 15.9139L171.49 12.643H159.175C156.669 12.643 154.637 10.6111 154.637 8.10481V7.12071C154.637 4.61444 156.669 2.58252 159.175 2.58252H170.223C172.729 2.58252 174.761 4.61444 174.761 7.12071V15.9139Z" fill="#FFB701"/>
<path d="M161.176 7.48483C161.176 8.1114 160.669 8.6176 160.043 8.6176C159.416 8.6176 158.91 8.1114 158.91 7.48483C158.91 6.85826 159.416 6.35205 160.043 6.35205C160.669 6.35205 161.176 6.85826 161.176 7.48483Z" fill="#14314D"/>
<path d="M165.328 7.48483C165.328 8.1114 164.822 8.6176 164.195 8.6176C163.569 8.6176 163.062 8.1114 163.062 7.48483C163.062 6.85826 163.569 6.35205 164.195 6.35205C164.822 6.35205 165.328 6.85826 165.328 7.48483Z" fill="#14314D"/>
<path d="M169.48 7.48483C169.48 8.1114 168.974 8.6176 168.348 8.6176C167.721 8.6176 167.215 8.1114 167.215 7.48483C167.215 6.85826 167.721 6.35205 168.348 6.35205C168.974 6.35205 169.48 6.85826 169.48 7.48483Z" fill="#14314D"/>
<path opacity="0.51" d="M201.023 58.3394L211.746 48.9161H252.119C260.335 48.9161 266.997 43.061 266.997 35.8361V32.997C266.997 25.772 260.335 19.917 252.119 19.917H215.905C207.689 19.917 201.027 25.772 201.027 32.997V58.3394H201.023Z" fill="#243A5B"/>
<path d="M228.188 28.1831H211.586V40.4313H228.188V28.1831Z" fill="#FFB701"/>
<path d="M211.578 27.9779L218.729 35.1286C219.362 35.7622 220.396 35.7587 221.033 35.1215L228.23 27.9248L211.582 27.9779H211.578Z" fill="#FFE25E"/>
<path opacity="0.73" d="M226.815 37.8642H222.588C222.475 37.8642 222.383 37.7722 222.383 37.6589C222.383 37.5456 222.475 37.4536 222.588 37.4536H226.815C226.928 37.4536 227.02 37.5456 227.02 37.6589C227.02 37.7722 226.928 37.8642 226.815 37.8642Z" fill="#14314D"/>
<path d="M217.241 36.689H213.014C212.901 36.689 212.809 36.5969 212.809 36.4836C212.809 36.3704 212.901 36.2783 213.014 36.2783H217.241C217.354 36.2783 217.446 36.3704 217.446 36.4836C217.446 36.5969 217.354 36.689 217.241 36.689Z" fill="#14314D"/>
<path d="M217.241 37.7895H213.014C212.901 37.7895 212.809 37.6975 212.809 37.5842C212.809 37.4709 212.901 37.3789 213.014 37.3789H217.241C217.354 37.3789 217.446 37.4709 217.446 37.5842C217.446 37.6975 217.354 37.7895 217.241 37.7895Z" fill="#14314D"/>
<path d="M257.573 31.6557H232.496C231.809 31.6557 231.25 31.0999 231.25 30.4096C231.25 29.7229 231.806 29.1636 232.496 29.1636H257.573C258.26 29.1636 258.819 29.7193 258.819 30.4096C258.819 31.0964 258.263 31.6557 257.573 31.6557Z" fill="#5592CA"/>
<path d="M245.774 35.6948H231.937C231.558 35.6948 231.25 35.3868 231.25 35.008C231.25 34.6293 231.558 34.3213 231.937 34.3213H245.774C246.153 34.3213 246.461 34.6293 246.461 35.008C246.461 35.3868 246.153 35.6948 245.774 35.6948Z" fill="#5592CA"/>
<path d="M245.774 38.7207H231.937C231.558 38.7207 231.25 38.4127 231.25 38.0339C231.25 37.6551 231.558 37.3472 231.937 37.3472H245.774C246.153 37.3472 246.461 37.6551 246.461 38.0339C246.461 38.4127 246.153 38.7207 245.774 38.7207Z" fill="#5592CA"/>
<path d="M222.537 102.968H185.434L182.348 90.3408H219.45L222.537 102.968Z" fill="#FFB701"/>
<path d="M194.75 98.0823C194.464 98.0823 194.205 98.0192 193.971 97.8928C193.741 97.7637 193.559 97.5879 193.427 97.3654C193.298 97.1429 193.234 96.8929 193.234 96.6154C193.234 96.338 193.298 96.088 193.427 95.8655C193.559 95.643 193.741 95.4686 193.971 95.3422C194.205 95.2131 194.464 95.1486 194.75 95.1486C195.036 95.1486 195.293 95.2117 195.521 95.3381C195.751 95.4645 195.933 95.6403 196.065 95.8655C196.196 96.088 196.262 96.338 196.262 96.6154C196.262 96.8929 196.196 97.1442 196.065 97.3695C195.933 97.592 195.751 97.7664 195.521 97.8928C195.293 98.0192 195.036 98.0823 194.75 98.0823ZM194.75 97.8104C194.978 97.8104 195.184 97.7596 195.368 97.6579C195.552 97.5535 195.696 97.4107 195.801 97.2294C195.905 97.0454 195.957 96.8407 195.957 96.6154C195.957 96.3902 195.905 96.1869 195.801 96.0056C195.696 95.8216 195.552 95.6787 195.368 95.5771C195.184 95.4727 194.978 95.4205 194.75 95.4205C194.522 95.4205 194.315 95.4727 194.128 95.5771C193.944 95.6787 193.798 95.8216 193.691 96.0056C193.587 96.1869 193.535 96.3902 193.535 96.6154C193.535 96.8407 193.587 97.0454 193.691 97.2294C193.798 97.4107 193.944 97.5535 194.128 97.6579C194.315 97.7596 194.522 97.8104 194.75 97.8104ZM199.356 95.1733V98.0576H199.105L197.251 95.7172V98.0576H196.946V95.1733H197.197L199.055 97.5137V95.1733H199.356ZM201.376 95.1733H201.681V97.7939H203.296V98.0576H201.376V95.1733ZM203.803 95.1733H204.107V98.0576H203.803V95.1733ZM207.456 95.1733V98.0576H207.205L205.351 95.7172V98.0576H205.046V95.1733H205.297L207.156 97.5137V95.1733H207.456ZM210.437 97.7939V98.0576H208.398V95.1733H210.376V95.437H208.703V96.463H210.194V96.7226H208.703V97.7939H210.437Z" fill="#14314D"/>
<path d="M181.422 109.06C182.027 108.369 181.785 107.167 180.882 106.377C179.978 105.586 178.755 105.506 178.15 106.198C177.545 106.89 177.787 108.091 178.691 108.881C179.594 109.672 180.817 109.752 181.422 109.06Z" fill="#206BC7"/>
<g style="mix-blend-mode:multiply">
<path d="M181.961 101.275C182.513 103.339 184.637 105.013 186.701 105.013C188.764 105.013 189.989 103.339 189.437 101.275C188.885 99.2115 186.761 97.5371 184.697 97.5371C182.633 97.5371 181.408 99.2115 181.961 101.275Z" fill="#206BC7"/>
</g>
<path d="M183.235 103.529L181.026 102.832C180.814 102.765 180.743 102.488 180.923 102.428L185.012 101.044C185.164 100.991 185.362 101.15 185.348 101.317L185.044 105.781C185.03 105.975 184.754 105.972 184.637 105.777L183.405 103.667C183.366 103.603 183.306 103.55 183.235 103.529Z" fill="#8FC6C6"/>
<path d="M102.288 34.8835C102.288 31.2657 99.3538 28.3311 95.736 28.3311C92.1182 28.3311 89.1836 31.2657 89.1836 34.8835C89.1836 38.5013 95.4174 44.1829 95.4174 44.1829C95.4174 44.1829 102.285 38.5013 102.285 34.8835H102.288Z" fill="#FFB701"/>
<path opacity="0.55" d="M91.3338 30.0408C91.0613 30.7063 90.8984 31.4356 90.8984 32.271C90.9055 35.0605 92.9091 38.0906 95.7446 38.6676C98.4633 39.2234 101.455 37.3543 102.258 34.7348C102.262 34.7171 102.269 34.6994 102.272 34.6817C102.166 31.1559 99.281 28.3311 95.7304 28.3311C94.0348 28.3311 92.4949 28.9824 91.3303 30.0373L91.3338 30.0408Z" fill="#FFE25E"/>
<path d="M94.6395 42.5262C94.2076 42.4271 93.7899 42.2855 93.3828 42.1191C94.5085 43.3475 95.4218 44.1794 95.4218 44.1794C95.4218 44.1794 96.0979 43.6201 97.0254 42.7386C96.2218 42.7705 95.4183 42.7068 94.6395 42.5227V42.5262Z" fill="#FFE25E"/>
<path d="M93.8337 41.2231C93.8337 41.2231 94.6798 34.3557 93.7275 34.7769C92.7753 35.1982 92.2478 36.2566 93.3063 36.469C94.3612 36.6814 98.5878 36.469 98.5878 36.469C98.5878 36.469 98.9631 35.269 98.2692 34.9893C97.2143 34.5681 97.2143 38.5823 97.002 41.4355" stroke="#14314D" stroke-width="0.173457" stroke-miterlimit="10"/>
<path d="M98.0644 42.7038H92.7828C92.3757 42.7038 92.043 42.3711 92.043 41.964C92.043 41.5569 92.3757 41.2241 92.7828 41.2241H98.0644C98.4715 41.2241 98.8042 41.5569 98.8042 41.964C98.8042 42.3711 98.4715 42.7038 98.0644 42.7038Z" fill="#243A5B"/>
<path d="M95.5265 46.0838C93.8344 46.0838 92.4609 44.7103 92.4609 43.0182V42.4907H98.5886V43.0182C98.5886 44.7103 97.2151 46.0838 95.523 46.0838H95.5265Z" fill="#243A5B"/>
<g style="mix-blend-mode:multiply">
<path d="M96.8008 45.8006C97.8557 45.3156 98.5885 44.2536 98.5885 43.0182V42.4907H92.875C94.1742 43.6058 95.4839 44.7067 96.8008 45.8006Z" fill="#243A5B"/>
</g>
<path d="M83.9258 34.9258H86.9029" stroke="#FFB701" stroke-width="0.446031" stroke-miterlimit="10" stroke-linecap="round"/>
<path d="M104.77 34.9258H107.747" stroke="#FFB701" stroke-width="0.446031" stroke-miterlimit="10" stroke-linecap="round"/>
<path d="M87.4141 26.5044L89.5203 28.6071" stroke="#FFB701" stroke-width="0.446031" stroke-miterlimit="10" stroke-linecap="round"/>
<path d="M95.8359 23.0146V25.9917" stroke="#FFB701" stroke-width="0.446031" stroke-miterlimit="10" stroke-linecap="round"/>
<path d="M104.263 26.5044L102.156 28.6071" stroke="#FFB701" stroke-width="0.446031" stroke-miterlimit="10" stroke-linecap="round"/>
<path d="M52.1038 109.119C54.3693 108.466 55.6765 106.1 55.0234 103.834C54.3704 101.569 52.0044 100.262 49.7388 100.915C47.4733 101.568 46.1661 103.934 46.8192 106.199C47.4722 108.465 49.8382 109.772 52.1038 109.119Z" fill="#FFB701"/>
<path d="M47.1554 94.8389C47.1554 93.6814 46.2173 92.7397 45.0562 92.7397C43.8951 92.7397 42.957 93.6778 42.957 94.8389C42.957 96 43.8951 96.9381 45.0562 96.9381C46.2173 96.9381 47.1554 96 47.1554 94.8389Z" fill="#FFB701"/>
<path d="M67.464 17.5167C67.464 16.3591 66.5259 15.4175 65.3648 15.4175C64.2037 15.4175 63.2656 16.3556 63.2656 17.5167C63.2656 18.6778 64.2037 19.6158 65.3648 19.6158C66.5259 19.6158 67.464 18.6778 67.464 17.5167Z" fill="#FFB701"/>
<path d="M233.882 122.652C233.882 121.495 232.944 120.553 231.783 120.553C230.622 120.553 229.684 121.491 229.684 122.652C229.684 123.813 230.622 124.752 231.783 124.752C232.944 124.752 233.882 123.813 233.882 122.652Z" fill="#FFB701"/>
<path d="M217.343 56.9981C217.343 55.8405 216.405 54.8989 215.244 54.8989C214.083 54.8989 213.145 55.837 213.145 56.9981C213.145 58.1592 214.083 59.0973 215.244 59.0973C216.405 59.0973 217.343 58.1592 217.343 56.9981Z" fill="#FFB701"/>
<path d="M129.351 27.0105C131.353 27.0105 132.976 25.3876 132.976 23.3856C132.976 21.3837 131.353 19.7607 129.351 19.7607C127.349 19.7607 125.727 21.3837 125.727 23.3856C125.727 25.3876 127.349 27.0105 129.351 27.0105Z" fill="#FFB701"/>
</g>
<path d="M63.416 175.774H65.656V186.958H63.416L58.344 179.294V186.958H56.104V175.774H58.344L63.416 183.454V175.774ZM76.4296 182.526C76.4296 185.31 74.3816 187.102 71.8056 187.102C69.2456 187.102 67.3096 185.31 67.3096 182.526C67.3096 179.726 69.3096 177.95 71.8696 177.95C74.4296 177.95 76.4296 179.726 76.4296 182.526ZM69.5816 182.526C69.5816 184.286 70.6056 185.15 71.8056 185.15C72.9896 185.15 74.1256 184.286 74.1256 182.526C74.1256 180.75 73.0216 179.902 71.8376 179.902C70.6536 179.902 69.5816 180.75 69.5816 182.526ZM81.3413 181.358C81.3413 178.014 83.7893 175.646 87.0053 175.646C89.4853 175.646 91.5013 176.974 92.2533 179.262H89.6773C89.1493 178.19 88.1893 177.662 86.9893 177.662C85.0373 177.662 83.6453 179.086 83.6453 181.358C83.6453 183.614 85.0373 185.054 86.9893 185.054C88.1893 185.054 89.1493 184.526 89.6773 183.438H92.2533C91.5013 185.742 89.4853 187.054 87.0053 187.054C83.7893 187.054 81.3413 184.702 81.3413 181.358ZM102.727 182.526C102.727 185.31 100.679 187.102 98.1025 187.102C95.5425 187.102 93.6065 185.31 93.6065 182.526C93.6065 179.726 95.6065 177.95 98.1665 177.95C100.727 177.95 102.727 179.726 102.727 182.526ZM95.8785 182.526C95.8785 184.286 96.9025 185.15 98.1025 185.15C99.2865 185.15 100.423 184.286 100.423 182.526C100.423 180.75 99.3185 179.902 98.1345 179.902C96.9505 179.902 95.8785 180.75 95.8785 182.526ZM110.578 186.958V182.062C110.578 180.638 109.794 179.87 108.61 179.87C107.394 179.87 106.61 180.638 106.61 182.062V186.958H104.37V178.094H106.61V179.198C107.186 178.446 108.146 177.966 109.282 177.966C111.346 177.966 112.818 179.31 112.818 181.758V186.958H110.578ZM115.3 184.206V179.934H114.244V178.094H115.3V175.902H117.556V178.094H119.54V179.934H117.556V184.222C117.556 184.814 117.796 185.07 118.5 185.07H119.54V186.958H118.132C116.436 186.958 115.3 186.238 115.3 184.206ZM120.575 182.494C120.575 179.726 122.367 177.95 124.623 177.95C126.047 177.95 127.023 178.622 127.551 179.358V178.094H129.807V186.958H127.551V185.662C127.023 186.43 126.015 187.102 124.607 187.102C122.367 187.102 120.575 185.262 120.575 182.494ZM127.551 182.526C127.551 180.846 126.431 179.918 125.199 179.918C123.999 179.918 122.863 180.814 122.863 182.494C122.863 184.174 123.999 185.134 125.199 185.134C126.431 185.134 127.551 184.206 127.551 182.526ZM131.419 182.526C131.419 179.742 133.243 177.95 135.803 177.95C138.011 177.95 139.499 179.102 139.979 181.086H137.563C137.307 180.334 136.715 179.854 135.787 179.854C134.539 179.854 133.707 180.798 133.707 182.526C133.707 184.254 134.539 185.182 135.787 185.182C136.715 185.182 137.291 184.766 137.563 183.966H139.979C139.499 185.854 138.011 187.102 135.803 187.102C133.243 187.102 131.419 185.31 131.419 182.526ZM141.972 184.206V179.934H140.916V178.094H141.972V175.902H144.228V178.094H146.212V179.934H144.228V184.222C144.228 184.814 144.468 185.07 145.172 185.07H146.212V186.958H144.804C143.108 186.958 141.972 186.238 141.972 184.206ZM154.703 184.43C154.703 185.95 153.375 187.102 151.215 187.102C148.991 187.102 147.439 185.806 147.343 184.158H149.599C149.679 184.83 150.303 185.342 151.199 185.342C152.079 185.342 152.559 184.942 152.559 184.43C152.559 182.846 147.551 183.854 147.551 180.606C147.551 179.134 148.863 177.95 151.055 177.95C153.199 177.95 154.495 179.118 154.623 180.878H152.479C152.415 180.19 151.871 179.726 150.991 179.726C150.159 179.726 149.727 180.062 149.727 180.574C149.727 182.19 154.639 181.182 154.703 184.43ZM159.778 182.494C159.778 179.726 161.57 177.95 163.826 177.95C165.25 177.95 166.226 178.622 166.754 179.358V178.094H169.01V186.958H166.754V185.662C166.226 186.43 165.218 187.102 163.81 187.102C161.57 187.102 159.778 185.262 159.778 182.494ZM166.754 182.526C166.754 180.846 165.634 179.918 164.402 179.918C163.202 179.918 162.066 180.814 162.066 182.494C162.066 184.174 163.202 185.134 164.402 185.134C165.634 185.134 166.754 184.206 166.754 182.526ZM170.622 182.494C170.622 179.726 172.414 177.95 174.686 177.95C175.854 177.95 176.974 178.494 177.582 179.326V175.118H179.854V186.958H177.582V185.646C177.054 186.462 176.062 187.102 174.67 187.102C172.414 187.102 170.622 185.262 170.622 182.494ZM177.598 182.526C177.598 180.846 176.478 179.918 175.246 179.918C174.046 179.918 172.91 180.814 172.91 182.494C172.91 184.174 174.046 185.134 175.246 185.134C176.478 185.134 177.598 184.206 177.598 182.526ZM181.465 182.494C181.465 179.726 183.258 177.95 185.53 177.95C186.698 177.95 187.818 178.494 188.426 179.326V175.118H190.698V186.958H188.426V185.646C187.898 186.462 186.906 187.102 185.514 187.102C183.258 187.102 181.465 185.262 181.465 182.494ZM188.442 182.526C188.442 180.846 187.322 179.918 186.09 179.918C184.89 179.918 183.754 180.814 183.754 182.494C183.754 184.174 184.89 185.134 186.09 185.134C187.322 185.134 188.442 184.206 188.442 182.526ZM196.693 179.79C195.621 179.79 194.773 180.478 194.597 181.694H198.805C198.773 180.526 197.845 179.79 196.693 179.79ZM200.901 184.174C200.421 185.806 198.949 187.102 196.757 187.102C194.181 187.102 192.309 185.31 192.309 182.526C192.309 179.726 194.133 177.95 196.757 177.95C199.317 177.95 201.125 179.694 201.125 182.334C201.125 182.622 201.109 182.91 201.061 183.198H194.581C194.693 184.51 195.589 185.246 196.709 185.246C197.669 185.246 198.197 184.766 198.485 184.174H200.901ZM202.184 182.494C202.184 179.726 203.976 177.95 206.248 177.95C207.416 177.95 208.536 178.494 209.144 179.326V175.118H211.416V186.958H209.144V185.646C208.616 186.462 207.624 187.102 206.232 187.102C203.976 187.102 202.184 185.262 202.184 182.494ZM209.16 182.526C209.16 180.846 208.04 179.918 206.808 179.918C205.608 179.918 204.472 180.814 204.472 182.494C204.472 184.174 205.608 185.134 206.808 185.134C208.04 185.134 209.16 184.206 209.16 182.526ZM220.281 183.07L216.489 175.79H219.017L221.417 180.894L223.801 175.79H226.297L222.521 183.07V186.958H220.281V183.07ZM231.396 179.79C230.324 179.79 229.476 180.478 229.3 181.694H233.508C233.476 180.526 232.548 179.79 231.396 179.79ZM235.604 184.174C235.124 185.806 233.652 187.102 231.46 187.102C228.884 187.102 227.012 185.31 227.012 182.526C227.012 179.726 228.836 177.95 231.46 177.95C234.02 177.95 235.828 179.694 235.828 182.334C235.828 182.622 235.812 182.91 235.764 183.198H229.284C229.396 184.51 230.292 185.246 231.412 185.246C232.372 185.246 232.9 184.766 233.188 184.174H235.604ZM237.815 184.206V179.934H236.759V178.094H237.815V175.902H240.071V178.094H242.055V179.934H240.071V184.222C240.071 184.814 240.311 185.07 241.015 185.07H242.055V186.958H240.647C238.951 186.958 237.815 186.238 237.815 184.206ZM244.419 183.326L244.147 175.598H246.562L246.307 183.326H244.419ZM246.771 185.758C246.771 186.494 246.195 187.07 245.411 187.07C244.595 187.07 244.019 186.494 244.019 185.758C244.019 185.022 244.595 184.446 245.411 184.446C246.195 184.446 246.771 185.022 246.771 185.758Z" fill="#0996FF"/>
<path d="M18.8364 209.072C18.8364 206.146 20.9784 204.074 23.7084 204.074C25.8224 204.074 27.5024 205.138 28.2304 207.028H26.7044C26.1724 205.852 25.1364 205.194 23.7084 205.194C21.6644 205.194 20.1384 206.678 20.1384 209.072C20.1384 211.452 21.6644 212.936 23.7084 212.936C25.1364 212.936 26.1724 212.278 26.7044 211.116H28.2304C27.5024 212.992 25.8224 214.042 23.7084 214.042C20.9784 214.042 18.8364 211.998 18.8364 209.072ZM30.1268 213.958V203.598H31.4008V213.958H30.1268ZM33.5721 213.958V206.286H34.8461V213.958H33.5721ZM34.2301 205.04C33.7401 205.04 33.3621 204.662 33.3621 204.172C33.3621 203.682 33.7401 203.304 34.2301 203.304C34.6921 203.304 35.0701 203.682 35.0701 204.172C35.0701 204.662 34.6921 205.04 34.2301 205.04ZM36.5415 210.108C36.5415 207.7 38.0955 206.16 40.2795 206.16C42.1835 206.16 43.4295 207.14 43.8215 208.75H42.4495C42.1835 207.826 41.4135 207.238 40.2795 207.238C38.8795 207.238 37.8435 208.232 37.8435 210.108C37.8435 212.012 38.8795 213.006 40.2795 213.006C41.4135 213.006 42.1695 212.46 42.4495 211.494H43.8215C43.4295 213.02 42.1835 214.084 40.2795 214.084C38.0955 214.084 36.5415 212.544 36.5415 210.108ZM45.5214 213.958V203.598H46.7954V209.688L49.7494 206.286H51.5274L47.9154 210.108L51.5414 213.958H49.8054L46.7954 210.57V213.958H45.5214ZM56.7389 211.858V207.336H55.7449V206.286H56.7389V204.354H58.0129V206.286H60.0149V207.336H58.0129V211.858C58.0129 212.614 58.2929 212.88 59.0769 212.88H60.0149V213.958H58.8669C57.5089 213.958 56.7389 213.398 56.7389 211.858ZM61.5585 213.958V203.598H62.8325V207.392C63.3365 206.58 64.2885 206.146 65.3665 206.146C67.0745 206.146 68.4325 207.238 68.4325 209.436V213.958H67.1725V209.618C67.1725 208.05 66.3185 207.252 65.0305 207.252C63.7285 207.252 62.8325 208.064 62.8325 209.716V213.958H61.5585ZM73.7755 207.238C72.5295 207.238 71.4935 208.064 71.3535 209.562H76.1975C76.2115 208.064 75.0915 207.238 73.7755 207.238ZM77.3595 211.592C76.9675 212.992 75.7355 214.084 73.8315 214.084C71.6475 214.084 70.0375 212.544 70.0375 210.108C70.0375 207.686 71.5915 206.16 73.8315 206.16C76.0575 206.16 77.5135 207.728 77.5135 209.828C77.5135 210.108 77.4995 210.332 77.4715 210.598H71.3395C71.4375 212.152 72.5295 213.006 73.8315 213.006C74.9795 213.006 75.7075 212.418 75.9875 211.592H77.3595ZM89.4796 213.958L88.6956 211.788H84.4396L83.6556 213.958H82.3116L85.8396 204.256H87.3096L90.8236 213.958H89.4796ZM88.3316 210.752L86.5676 205.824L84.8036 210.752H88.3316ZM91.8852 210.094C91.8852 207.7 93.4672 206.16 95.5392 206.16C96.7432 206.16 97.8492 206.776 98.3812 207.658V203.598H99.6692V213.958H98.3812V212.516C97.9192 213.37 96.9252 214.084 95.5252 214.084C93.4672 214.084 91.8852 212.474 91.8852 210.094ZM98.3812 210.108C98.3812 208.33 97.1772 207.266 95.7772 207.266C94.3772 207.266 93.1872 208.288 93.1872 210.094C93.1872 211.9 94.3772 212.964 95.7772 212.964C97.1772 212.964 98.3812 211.914 98.3812 210.108ZM101.346 210.094C101.346 207.7 102.928 206.16 105 206.16C106.204 206.16 107.31 206.776 107.842 207.658V203.598H109.13V213.958H107.842V212.516C107.38 213.37 106.386 214.084 104.986 214.084C102.928 214.084 101.346 212.474 101.346 210.094ZM107.842 210.108C107.842 208.33 106.638 207.266 105.238 207.266C103.838 207.266 102.648 208.288 102.648 210.094C102.648 211.9 103.838 212.964 105.238 212.964C106.638 212.964 107.842 211.914 107.842 210.108ZM114.54 209.072C114.54 206.146 116.682 204.074 119.412 204.074C121.526 204.074 123.206 205.138 123.934 207.028H122.408C121.876 205.852 120.84 205.194 119.412 205.194C117.368 205.194 115.842 206.678 115.842 209.072C115.842 211.452 117.368 212.936 119.412 212.936C120.84 212.936 121.876 212.278 122.408 211.116H123.934C123.206 212.992 121.526 214.042 119.412 214.042C116.682 214.042 114.54 211.998 114.54 209.072ZM133.11 210.108C133.11 212.544 131.36 214.084 129.176 214.084C127.006 214.084 125.354 212.544 125.354 210.108C125.354 207.686 127.062 206.16 129.232 206.16C131.416 206.16 133.11 207.686 133.11 210.108ZM126.656 210.108C126.656 212.054 127.846 212.964 129.176 212.964C130.506 212.964 131.808 212.054 131.808 210.108C131.808 208.176 130.534 207.266 129.218 207.266C127.874 207.266 126.656 208.176 126.656 210.108ZM140.399 213.958V209.618C140.399 208.05 139.545 207.252 138.257 207.252C136.955 207.252 136.059 208.064 136.059 209.716V213.958H134.785V206.286H136.059V207.378C136.563 206.58 137.487 206.146 138.523 206.146C140.301 206.146 141.659 207.238 141.659 209.436V213.958H140.399ZM144.02 211.858V207.336H143.026V206.286H144.02V204.354H145.294V206.286H147.296V207.336H145.294V211.858C145.294 212.614 145.574 212.88 146.358 212.88H147.296V213.958H146.148C144.79 213.958 144.02 213.398 144.02 211.858ZM148.364 210.094C148.364 207.7 149.946 206.16 152.004 206.16C153.432 206.16 154.412 206.888 154.86 207.686V206.286H156.148V213.958H154.86V212.53C154.398 213.356 153.404 214.084 151.99 214.084C149.946 214.084 148.364 212.474 148.364 210.094ZM154.86 210.108C154.86 208.33 153.656 207.266 152.256 207.266C150.856 207.266 149.666 208.288 149.666 210.094C149.666 211.9 150.856 212.964 152.256 212.964C153.656 212.964 154.86 211.914 154.86 210.108ZM157.825 210.108C157.825 207.7 159.379 206.16 161.563 206.16C163.467 206.16 164.713 207.14 165.105 208.75H163.733C163.467 207.826 162.697 207.238 161.563 207.238C160.163 207.238 159.127 208.232 159.127 210.108C159.127 212.012 160.163 213.006 161.563 213.006C162.697 213.006 163.453 212.46 163.733 211.494H165.105C164.713 213.02 163.467 214.084 161.563 214.084C159.379 214.084 157.825 212.544 157.825 210.108ZM167.085 211.858V207.336H166.091V206.286H167.085V204.354H168.359V206.286H170.361V207.336H168.359V211.858C168.359 212.614 168.639 212.88 169.423 212.88H170.361V213.958H169.213C167.855 213.958 167.085 213.398 167.085 211.858ZM177.42 211.872C177.42 213.132 176.314 214.084 174.62 214.084C172.828 214.084 171.568 213.104 171.484 211.704H172.8C172.87 212.446 173.528 213.006 174.606 213.006C175.614 213.006 176.174 212.502 176.174 211.872C176.174 210.164 171.638 211.158 171.638 208.302C171.638 207.126 172.744 206.16 174.452 206.16C176.146 206.16 177.266 207.07 177.35 208.568H176.076C176.02 207.798 175.432 207.238 174.41 207.238C173.472 207.238 172.912 207.686 172.912 208.302C172.912 210.122 177.364 209.128 177.42 211.872ZM184.225 207.714C184.715 206.86 185.737 206.16 187.095 206.16C189.167 206.16 190.735 207.7 190.735 210.094C190.735 212.474 189.153 214.084 187.095 214.084C185.695 214.084 184.701 213.384 184.225 212.544V213.958H182.951V203.598H184.225V207.714ZM189.433 210.094C189.433 208.288 188.243 207.266 186.829 207.266C185.443 207.266 184.225 208.33 184.225 210.108C184.225 211.914 185.443 212.964 186.829 212.964C188.243 212.964 189.433 211.9 189.433 210.094ZM199.216 206.286V213.958H197.942V212.824C197.452 213.622 196.514 214.07 195.492 214.07C193.728 214.07 192.342 212.978 192.342 210.78V206.286H193.602V210.612C193.602 212.166 194.456 212.964 195.744 212.964C197.06 212.964 197.942 212.152 197.942 210.5V206.286H199.216ZM201.647 211.858V207.336H200.653V206.286H201.647V204.354H202.921V206.286H204.923V207.336H202.921V211.858C202.921 212.614 203.201 212.88 203.985 212.88H204.923V213.958H203.775C202.417 213.958 201.647 213.398 201.647 211.858ZM206.747 211.858V207.336H205.753V206.286H206.747V204.354H208.021V206.286H210.023V207.336H208.021V211.858C208.021 212.614 208.301 212.88 209.085 212.88H210.023V213.958H208.875C207.517 213.958 206.747 213.398 206.747 211.858ZM218.846 210.108C218.846 212.544 217.096 214.084 214.912 214.084C212.742 214.084 211.09 212.544 211.09 210.108C211.09 207.686 212.798 206.16 214.968 206.16C217.152 206.16 218.846 207.686 218.846 210.108ZM212.392 210.108C212.392 212.054 213.582 212.964 214.912 212.964C216.242 212.964 217.544 212.054 217.544 210.108C217.544 208.176 216.27 207.266 214.954 207.266C213.61 207.266 212.392 208.176 212.392 210.108ZM226.135 213.958V209.618C226.135 208.05 225.281 207.252 223.993 207.252C222.691 207.252 221.795 208.064 221.795 209.716V213.958H220.521V206.286H221.795V207.378C222.299 206.58 223.223 206.146 224.259 206.146C226.037 206.146 227.395 207.238 227.395 209.436V213.958H226.135ZM233.489 211.858V207.336H232.495V206.286H233.489V204.354H234.763V206.286H236.765V207.336H234.763V211.858C234.763 212.614 235.043 212.88 235.827 212.88H236.765V213.958H235.617C234.259 213.958 233.489 213.398 233.489 211.858ZM245.588 210.108C245.588 212.544 243.838 214.084 241.654 214.084C239.484 214.084 237.832 212.544 237.832 210.108C237.832 207.686 239.54 206.16 241.71 206.16C243.894 206.16 245.588 207.686 245.588 210.108ZM239.134 210.108C239.134 212.054 240.324 212.964 241.654 212.964C242.984 212.964 244.286 212.054 244.286 210.108C244.286 208.176 243.012 207.266 241.696 207.266C240.352 207.266 239.134 208.176 239.134 210.108ZM250.52 210.094C250.52 207.7 252.102 206.16 254.16 206.16C255.588 206.16 256.568 206.888 257.016 207.686V206.286H258.304V213.958H257.016V212.53C256.554 213.356 255.56 214.084 254.146 214.084C252.102 214.084 250.52 212.474 250.52 210.094ZM257.016 210.108C257.016 208.33 255.812 207.266 254.412 207.266C253.012 207.266 251.822 208.288 251.822 210.094C251.822 211.9 253.012 212.964 254.412 212.964C255.812 212.964 257.016 211.914 257.016 210.108ZM259.981 210.094C259.981 207.7 261.563 206.16 263.635 206.16C264.839 206.16 265.945 206.776 266.477 207.658V203.598H267.765V213.958H266.477V212.516C266.015 213.37 265.021 214.084 263.621 214.084C261.563 214.084 259.981 212.474 259.981 210.094ZM266.477 210.108C266.477 208.33 265.273 207.266 263.873 207.266C262.473 207.266 261.283 208.288 261.283 210.094C261.283 211.9 262.473 212.964 263.873 212.964C265.273 212.964 266.477 211.914 266.477 210.108ZM269.442 210.094C269.442 207.7 271.024 206.16 273.096 206.16C274.3 206.16 275.406 206.776 275.938 207.658V203.598H277.226V213.958H275.938V212.516C275.476 213.37 274.482 214.084 273.082 214.084C271.024 214.084 269.442 212.474 269.442 210.094ZM275.938 210.108C275.938 208.33 274.734 207.266 273.334 207.266C271.934 207.266 270.744 208.288 270.744 210.094C270.744 211.9 271.934 212.964 273.334 212.964C274.734 212.964 275.938 211.914 275.938 210.108ZM99.6645 231.094C99.6645 228.7 101.247 227.16 103.305 227.16C104.733 227.16 105.713 227.888 106.161 228.686V227.286H107.449V234.958H106.161V233.53C105.699 234.356 104.705 235.084 103.291 235.084C101.247 235.084 99.6645 233.474 99.6645 231.094ZM106.161 231.108C106.161 229.33 104.957 228.266 103.557 228.266C102.157 228.266 100.967 229.288 100.967 231.094C100.967 232.9 102.157 233.964 103.557 233.964C104.957 233.964 106.161 232.914 106.161 231.108ZM118.948 234.958V230.618C118.948 229.05 118.094 228.252 116.806 228.252C115.504 228.252 114.608 229.064 114.608 230.716V234.958H113.334V227.286H114.608V228.378C115.112 227.58 116.036 227.146 117.072 227.146C118.85 227.146 120.208 228.238 120.208 230.436V234.958H118.948ZM125.551 228.238C124.305 228.238 123.269 229.064 123.129 230.562H127.973C127.987 229.064 126.867 228.238 125.551 228.238ZM129.135 232.592C128.743 233.992 127.511 235.084 125.607 235.084C123.423 235.084 121.813 233.544 121.813 231.108C121.813 228.686 123.367 227.16 125.607 227.16C127.833 227.16 129.289 228.728 129.289 230.828C129.289 231.108 129.275 231.332 129.247 231.598H123.115C123.213 233.152 124.305 234.006 125.607 234.006C126.755 234.006 127.483 233.418 127.763 232.592H129.135ZM132.469 234.958L130.061 227.286H131.363L133.127 233.726L135.031 227.286H136.333L138.195 233.74L139.931 227.286H141.191L138.797 234.958H137.481L135.633 228.868L133.785 234.958H132.469ZM145.711 230.072C145.711 227.146 147.853 225.074 150.583 225.074C152.697 225.074 154.377 226.138 155.105 228.028H153.579C153.047 226.852 152.011 226.194 150.583 226.194C148.539 226.194 147.013 227.678 147.013 230.072C147.013 232.452 148.539 233.936 150.583 233.936C152.011 233.936 153.047 233.278 153.579 232.116H155.105C154.377 233.992 152.697 235.042 150.583 235.042C147.853 235.042 145.711 232.998 145.711 230.072ZM164.282 231.108C164.282 233.544 162.532 235.084 160.348 235.084C158.178 235.084 156.526 233.544 156.526 231.108C156.526 228.686 158.234 227.16 160.404 227.16C162.588 227.16 164.282 228.686 164.282 231.108ZM157.828 231.108C157.828 233.054 159.018 233.964 160.348 233.964C161.678 233.964 162.98 233.054 162.98 231.108C162.98 229.176 161.706 228.266 160.39 228.266C159.046 228.266 157.828 229.176 157.828 231.108ZM171.571 234.958V230.618C171.571 229.05 170.717 228.252 169.429 228.252C168.127 228.252 167.231 229.064 167.231 230.716V234.958H165.957V227.286H167.231V228.378C167.735 227.58 168.659 227.146 169.695 227.146C171.473 227.146 172.831 228.238 172.831 230.436V234.958H171.571ZM175.192 232.858V228.336H174.198V227.286H175.192V225.354H176.466V227.286H178.468V228.336H176.466V232.858C176.466 233.614 176.746 233.88 177.53 233.88H178.468V234.958H177.32C175.962 234.958 175.192 234.398 175.192 232.858ZM179.536 231.094C179.536 228.7 181.118 227.16 183.176 227.16C184.604 227.16 185.584 227.888 186.032 228.686V227.286H187.32V234.958H186.032V233.53C185.57 234.356 184.576 235.084 183.162 235.084C181.118 235.084 179.536 233.474 179.536 231.094ZM186.032 231.108C186.032 229.33 184.828 228.266 183.428 228.266C182.028 228.266 180.838 229.288 180.838 231.094C180.838 232.9 182.028 233.964 183.428 233.964C184.828 233.964 186.032 232.914 186.032 231.108ZM188.997 231.108C188.997 228.7 190.551 227.16 192.735 227.16C194.639 227.16 195.885 228.14 196.277 229.75H194.905C194.639 228.826 193.869 228.238 192.735 228.238C191.335 228.238 190.299 229.232 190.299 231.108C190.299 233.012 191.335 234.006 192.735 234.006C193.869 234.006 194.625 233.46 194.905 232.494H196.277C195.885 234.02 194.639 235.084 192.735 235.084C190.551 235.084 188.997 233.544 188.997 231.108ZM198.256 232.858V228.336H197.262V227.286H198.256V225.354H199.53V227.286H201.532V228.336H199.53V232.858C199.53 233.614 199.81 233.88 200.594 233.88H201.532V234.958H200.384C199.026 234.958 198.256 234.398 198.256 232.858ZM204.322 234.174C204.322 234.664 203.944 235.042 203.482 235.042C202.992 235.042 202.614 234.664 202.614 234.174C202.614 233.684 202.992 233.306 203.482 233.306C203.944 233.306 204.322 233.684 204.322 234.174Z" fill="white"/>
<defs>
<clipPath id="clip0_1814_90576">
<rect width="230" height="128.917" fill="white" transform="translate(37 0.0415039)"/>
</clipPath>
</defs>
</svg>
