<svg width="24" height="24" viewBox="0 0 24 24" fill="none" xmlns="http://www.w3.org/2000/svg">
<path d="M5 20C5 20.5304 5.21071 21.0391 5.58579 21.4142C5.96086 21.7893 6.46957 22 7 22H19C19.5304 22 20.0391 21.7893 20.4142 21.4142C20.7893 21.0391 21 20.5304 21 20V7L17 2H7C6.46957 2 5.96086 2.21071 5.58579 2.58579C5.21071 2.96086 5 3.46957 5 4V8.03271" stroke="#6C7BAD" stroke-linecap="round" stroke-linejoin="round"/>
<path d="M16.418 2.06543V7.06543H20.418" stroke="#6C7BAD" stroke-linecap="round" stroke-linejoin="round"/>
<path d="M11 8L13 6L11 4" stroke="#6C7BAD" stroke-linecap="round" stroke-linejoin="round"/>
<path d="M8 7.9798C8 7.45472 8.18437 6.95115 8.51256 6.57987C8.84075 6.20859 9.28587 6 9.75 6H12" stroke="#6C7BAD" stroke-linecap="round" stroke-linejoin="round"/>
<path fill-rule="evenodd" clip-rule="evenodd" d="M4.33333 10C3.59635 10 3 10.597 3 11.3333V16.6667C3 16.8389 3.03125 17.0033 3.09115 17.154C3.1849 17.3926 3.34635 17.5977 3.54948 17.7461C3.77083 17.9059 4.04167 18 4.33333 18H17.6667C18.4036 18 19 17.403 19 16.6667V11.3333C19 10.597 18.4036 10 17.6667 10H4.33333ZM8.74479 14.6673L7.70052 14.3509C7.67188 14.4899 7.63281 14.61 7.58073 14.7116L7.52083 14.8164L7.44792 14.9105C7.33333 15.0387 7.16667 15.1025 6.93229 15.1025C6.69792 15.1025 6.51562 15.0225 6.38542 14.8639C6.25521 14.7044 6.19271 14.4105 6.19271 13.9818C6.19271 13.6361 6.24479 13.3828 6.35417 13.2207C6.42448 13.1146 6.51042 13.0342 6.60938 12.9798C6.71354 12.9225 6.83594 12.8939 6.97396 12.8939C7.01562 12.8939 7.05469 12.8968 7.09375 12.903C7.16667 12.9144 7.23438 12.9362 7.29688 12.9681C7.39323 13.0173 7.47396 13.0879 7.54167 13.1794C7.58073 13.2337 7.61979 13.32 7.65625 13.4378L8.70573 13.2035C8.57292 12.7949 8.36458 12.4932 8.08854 12.2956L8.01042 12.2435L7.9375 12.2028C7.88021 12.1725 7.81771 12.1452 7.7526 12.1217L7.625 12.0811C7.42708 12.027 7.20052 12 6.94531 12C6.80469 12 6.67188 12.0088 6.54688 12.026C6.39583 12.0472 6.2526 12.0814 6.1224 12.1286C5.88281 12.2145 5.67708 12.3434 5.50781 12.5156C5.16927 12.8594 5 13.3509 5 13.9906C5 14.4697 5.09635 14.8639 5.28906 15.1715C5.48177 15.4792 5.71094 15.694 5.97656 15.8164C6.13542 15.8906 6.32292 15.9424 6.54167 15.9717C6.68229 15.9906 6.83594 16 7 16C7.34635 16 7.63021 15.9492 7.85156 15.8493C8.07552 15.749 8.26302 15.6009 8.41146 15.4033C8.5625 15.2061 8.67448 14.9613 8.74479 14.6673ZM9.11458 14.6543L10.2474 14.5827C10.2708 14.7673 10.3229 14.9085 10.3958 15.0052C10.5182 15.1621 10.6927 15.2396 10.9219 15.2396C11.0911 15.2396 11.2214 15.1999 11.3151 15.1198C11.4062 15.0394 11.4531 14.9473 11.4531 14.8411C11.4531 14.7829 11.4401 14.7311 11.4141 14.6833C11.3906 14.6442 11.3594 14.6077 11.3203 14.5723C11.2344 14.4928 11.0312 14.418 10.7109 14.3483C10.1901 14.2301 9.81771 14.0739 9.59635 13.8783C9.3724 13.6836 9.26042 13.4342 9.26042 13.1318C9.26042 13.0501 9.27083 12.9704 9.28906 12.8923C9.31771 12.7806 9.36458 12.6725 9.43229 12.568C9.54427 12.3903 9.71875 12.2526 9.94792 12.1507C10.1771 12.0498 10.4948 11.999 10.8958 11.999C11.3854 11.999 11.7604 12.0911 12.0208 12.2747C12.0729 12.3122 12.1224 12.3542 12.1667 12.4007C12.2734 12.516 12.3568 12.6589 12.4141 12.8298C12.4453 12.9281 12.4688 13.0355 12.4818 13.1523L11.3594 13.2188C11.3307 13.0446 11.2682 12.918 11.1719 12.8385C11.1458 12.8161 11.1172 12.7969 11.0833 12.7809C11.0495 12.7646 11.013 12.7516 10.974 12.7419C10.9141 12.7272 10.849 12.7197 10.776 12.7197C10.638 12.7197 10.5339 12.749 10.4635 12.8086C10.4193 12.8477 10.388 12.8923 10.3724 12.9421C10.3646 12.9678 10.3594 12.9948 10.3594 13.0231C10.3594 13.0843 10.388 13.1403 10.4453 13.1895C10.5026 13.2406 10.6354 13.2878 10.8438 13.3317C11.3646 13.4447 11.737 13.5586 11.9609 13.6732C12.1042 13.7461 12.2214 13.8298 12.3151 13.9242C12.3698 13.9795 12.4167 14.0387 12.4531 14.1016C12.5547 14.2725 12.6068 14.4629 12.6068 14.6742C12.6068 14.9222 12.5365 15.1507 12.401 15.3604C12.2656 15.5697 12.0729 15.7282 11.8281 15.8359C11.5833 15.944 11.2734 15.998 10.9036 15.998C10.2474 15.998 9.79427 15.8714 9.54167 15.6178C9.39062 15.4645 9.27865 15.2861 9.20573 15.083C9.15885 14.9505 9.1276 14.8076 9.11458 14.6543ZM14.0703 12.0654H12.8281L14.2812 15.9336H15.5703L17 12.0654H15.7917L14.9375 14.849L14.0703 12.0654Z" fill="#6C7BAD"/>
</svg>
