<svg width="328" height="259" viewBox="0 0 328 259" fill="none" xmlns="http://www.w3.org/2000/svg">
<g clip-path="url(#clip0_5019_182813)">
<path opacity="0.6" d="M126.886 112.639C154.054 112.639 176.078 90.5447 176.078 63.2902C176.078 36.0356 154.054 13.9414 126.886 13.9414C99.7189 13.9414 77.6953 36.0356 77.6953 63.2902C77.6953 90.5447 99.7189 112.639 126.886 112.639Z" fill="#285A7E"/>
<path opacity="0.6" d="M221.606 66.7766C238.669 61.0955 247.911 42.6133 242.248 25.4954C236.585 8.37745 218.162 -0.893913 201.099 4.78719C184.036 10.4683 174.794 28.9505 180.457 46.0684C186.12 63.1864 204.543 72.4577 221.606 66.7766Z" fill="#285A7E"/>
<path opacity="0.22" d="M168.461 7.55417C169.065 4.31832 166.939 1.20423 163.714 0.598655C160.488 -0.00691782 157.384 2.12535 156.78 5.36119C156.177 8.59704 158.302 11.7111 161.528 12.3167C164.753 12.9223 167.857 10.79 168.461 7.55417Z" fill="url(#paint0_linear_5019_182813)"/>
<path opacity="0.22" d="M229.768 71.1321C231.845 73.6799 231.465 77.4342 228.925 79.5176C226.386 81.6011 222.644 81.2201 220.567 78.6723C218.49 76.1245 218.87 72.3703 221.409 70.2868C223.949 68.2033 227.691 68.5843 229.768 71.1321Z" fill="url(#paint1_linear_5019_182813)"/>
<path opacity="0.22" d="M80.8924 93.0144C82.5816 95.0899 82.277 98.1497 80.2081 99.8442C78.1391 101.539 75.0892 101.233 73.4 99.1577C71.7109 97.0821 72.0155 94.0224 74.0844 92.3278C76.1533 90.6333 79.2033 90.9388 80.8924 93.0144Z" fill="url(#paint2_linear_5019_182813)"/>
<path d="M178.605 102.749C178.605 102.749 181.608 77.2712 200.663 55.3967C219.719 33.5221 225.047 29.9544 225.182 26.8271C225.182 26.8271 235.067 76.2196 187.898 105.726L178.605 102.749Z" fill="#368577"/>
<mask id="mask0_5019_182813" style="mask-type:luminance" maskUnits="userSpaceOnUse" x="178" y="26" width="49" height="80">
<path d="M178.605 102.749C178.605 102.749 181.608 77.2712 200.663 55.3967C219.719 33.5221 225.047 29.9544 225.182 26.8271C225.182 26.8271 235.067 76.2196 187.898 105.726L178.605 102.749Z" fill="white"/>
</mask>
<g mask="url(#mask0_5019_182813)">
<path d="M179.738 107.119C179.766 107.142 179.794 107.166 179.817 107.19C179.837 107.206 179.853 107.234 179.845 107.261C179.79 107.543 179.434 107.698 179.252 107.428C179.058 107.138 179.414 106.769 179.572 106.587C180.225 105.829 181.008 105.15 181.696 104.42C184.386 101.571 186.867 98.5267 189.201 95.3796C193.896 89.0379 198.058 82.2953 202.093 75.5171C206.191 68.6317 210.076 61.6153 213.739 54.4838C217.153 47.8365 220.689 41.094 222.928 33.9387C224.178 29.9424 224.764 25.8826 225.151 21.7275C225.508 17.9257 225.852 14.1079 227.003 10.4529C227.031 10.3616 227.169 10.4172 227.141 10.5085C225.136 16.8939 225.583 23.7118 224.099 30.2043C222.576 36.8834 219.582 43.106 216.563 49.2136C210.008 62.4804 202.726 75.4338 194.624 87.8156C192.369 91.2603 190.019 94.6454 187.484 97.8917C186.238 99.4871 184.948 101.043 183.607 102.559C182.895 103.36 182.167 104.154 181.423 104.928C181.075 105.293 180.719 105.654 180.363 106.011C180.11 106.265 179.212 106.869 179.643 107.242C179.572 107.178 179.659 107.059 179.734 107.123L179.738 107.119Z" fill="#164169"/>
<path d="M208.478 66.3573C216.422 64.3889 223.902 60.841 230.457 55.928C230.536 55.8685 230.627 55.9915 230.548 56.047C223.97 60.976 216.469 64.5318 208.498 66.5081C208.403 66.5319 208.387 66.3811 208.478 66.3573Z" fill="#164169"/>
<path d="M215.519 59.425C219.863 58.0201 223.826 55.7144 227.201 52.6348C227.272 52.5713 227.363 52.6904 227.292 52.7539C223.906 55.8414 219.93 58.155 215.575 59.5639C215.484 59.5916 215.428 59.4527 215.519 59.425Z" fill="#164169"/>
<path d="M218.612 81.0807C215.78 81.2871 213.003 81.8149 210.293 82.6602C210.202 82.688 210.147 82.5491 210.238 82.5213C212.96 81.672 215.752 81.1442 218.597 80.9339C218.692 80.926 218.711 81.0768 218.616 81.0847L218.612 81.0807Z" fill="#164169"/>
<path d="M205.506 58.1351C204.644 52.984 205.629 47.8169 206.634 42.761C206.653 42.6658 206.8 42.6856 206.784 42.7809C205.779 47.8249 204.798 52.9721 205.657 58.1153C205.672 58.2105 205.522 58.2304 205.506 58.1351Z" fill="#164169"/>
<path d="M193.294 80.9067C190.945 74.4261 190.43 67.3939 191.815 60.6394C191.835 60.5442 191.981 60.564 191.965 60.6593C190.585 67.3899 191.095 74.3904 193.437 80.8512C193.469 80.9425 193.33 80.998 193.298 80.9067H193.294Z" fill="#164169"/>
<path d="M183.67 92.7919C181.906 89.5734 181.186 85.9223 181.597 82.2713C181.609 82.176 181.755 82.1959 181.747 82.2911C181.344 85.9223 182.06 89.5377 183.812 92.7363C183.86 92.8196 183.717 92.8752 183.674 92.7919H183.67Z" fill="#164169"/>
<path d="M212.494 48.1226C210.208 44.3326 210.133 39.8284 210.133 35.5265C210.133 35.4312 210.283 35.4114 210.283 35.5066C210.283 39.7728 210.346 44.2652 212.617 48.0313C212.665 48.1147 212.55 48.2059 212.498 48.1226H212.494Z" fill="#164169"/>
</g>
<path d="M146.603 109.08C146.603 109.08 143.703 84.4829 125.309 63.3703C106.914 42.2577 101.771 38.8091 101.641 35.793C101.641 35.793 92.0993 83.4749 137.631 111.953L146.603 109.08Z" fill="#368577"/>
<mask id="mask1_5019_182813" style="mask-type:luminance" maskUnits="userSpaceOnUse" x="100" y="35" width="47" height="77">
<path d="M146.603 109.08C146.603 109.08 143.703 84.4829 125.309 63.3703C106.914 42.2577 101.771 38.8091 101.641 35.793C101.641 35.793 92.0993 83.4749 137.631 111.953L146.603 109.08Z" fill="white"/>
</mask>
<g mask="url(#mask1_5019_182813)">
<path d="M145.515 113.299C145.488 113.322 145.464 113.342 145.436 113.366C145.416 113.382 145.404 113.406 145.408 113.434C145.464 113.703 145.804 113.854 145.978 113.596C146.168 113.314 145.824 112.961 145.67 112.787C145.037 112.052 144.285 111.402 143.616 110.695C141.017 107.945 138.624 105.008 136.373 101.968C131.84 95.8489 127.825 89.3366 123.928 82.7924C119.972 76.1451 116.222 69.3709 112.686 62.4894C109.39 56.0723 105.976 49.5639 103.813 42.6586C102.606 38.8012 102.04 34.8843 101.668 30.8681C101.324 27.1972 100.992 23.5144 99.8804 19.9824C99.8527 19.8951 99.7182 19.9507 99.7459 20.038C101.684 26.2051 101.253 32.7809 102.685 39.0512C104.157 45.4961 107.048 51.5045 109.96 57.3978C116.285 70.2043 123.315 82.7091 131.136 94.6623C133.311 97.988 135.582 101.258 138.031 104.389C139.233 105.929 140.475 107.433 141.773 108.894C142.461 109.667 143.161 110.433 143.881 111.179C144.218 111.533 144.562 111.882 144.906 112.227C145.151 112.473 146.018 113.057 145.602 113.414C145.673 113.354 145.586 113.239 145.515 113.299Z" fill="#164169"/>
<path d="M117.769 73.9506C110.098 72.0537 102.879 68.6249 96.5534 63.8824C96.4782 63.8269 96.3912 63.942 96.4663 63.9975C102.815 68.7558 110.059 72.1886 117.753 74.0935C117.844 74.1173 117.86 73.9705 117.769 73.9506Z" fill="#164169"/>
<path d="M110.971 67.2552C106.782 65.898 102.953 63.6716 99.6972 60.6992C99.63 60.6357 99.5429 60.7508 99.6102 60.8143C102.878 63.7946 106.715 66.0289 110.92 67.3901C111.007 67.4179 111.062 67.283 110.975 67.2552H110.971Z" fill="#164169"/>
<path d="M107.988 88.1617C110.722 88.3602 113.404 88.8681 116.019 89.6856C116.106 89.7134 116.161 89.5785 116.074 89.5507C113.447 88.7332 110.749 88.2213 108.004 88.0189C107.913 88.0109 107.893 88.1578 107.988 88.1617Z" fill="#164169"/>
<path d="M120.642 66.0129C121.473 61.0404 120.524 56.0559 119.554 51.1746C119.535 51.0833 119.392 51.1031 119.412 51.1944C120.381 56.0638 121.331 61.0324 120.5 65.9971C120.484 66.0883 120.626 66.1082 120.642 66.0129Z" fill="#164169"/>
<path d="M132.424 87.9909C134.691 81.7365 135.19 74.9463 133.853 68.426C133.833 68.3348 133.69 68.3546 133.71 68.4459C135.043 74.9424 134.553 81.7008 132.29 87.9354C132.258 88.0227 132.393 88.0782 132.424 87.9909Z" fill="#164169"/>
<path d="M141.717 99.4687C143.422 96.3614 144.115 92.8373 143.719 89.3132C143.707 89.222 143.565 89.2418 143.577 89.3331C143.968 92.8373 143.276 96.3257 141.583 99.4171C141.539 99.5005 141.674 99.5521 141.717 99.4727V99.4687Z" fill="#164169"/>
<path d="M113.892 56.346C116.099 52.687 116.17 48.3415 116.174 44.1864C116.174 44.0952 116.032 44.0753 116.032 44.1706C116.032 48.2899 115.972 52.6275 113.781 56.2587C113.733 56.3381 113.848 56.4254 113.896 56.346H113.892Z" fill="#164169"/>
</g>
<g style="mix-blend-mode:multiply" opacity="0.18">
<path d="M170.645 144.772C212.643 144.772 246.689 143.358 246.689 141.613C246.689 139.868 212.643 138.454 170.645 138.454C128.647 138.454 94.6016 139.868 94.6016 141.613C94.6016 143.358 128.647 144.772 170.645 144.772Z" fill="#B2AECC"/>
</g>
<path d="M142.88 81.3274C142.88 81.3274 131.487 83.4188 124.28 71.8387C117.068 60.2585 120.949 46.3726 120.949 46.3726C120.949 46.3726 134.854 48.6465 142.061 60.7982C149.269 72.9499 142.884 81.3274 142.884 81.3274H142.88Z" fill="#368577"/>
<mask id="mask2_5019_182813" style="mask-type:luminance" maskUnits="userSpaceOnUse" x="119" y="46" width="27" height="36">
<path d="M142.88 81.3274C142.88 81.3274 131.487 83.4188 124.28 71.8387C117.068 60.2585 120.949 46.3726 120.949 46.3726C120.949 46.3726 134.854 48.6465 142.061 60.7982C149.269 72.9499 142.884 81.3274 142.884 81.3274H142.88Z" fill="white"/>
</mask>
<g mask="url(#mask2_5019_182813)">
<path d="M122 48.7938C124.425 51.417 126.644 54.2228 128.697 57.1476C130.734 60.0525 132.606 63.0647 134.386 66.1323C136.178 69.2199 137.875 72.359 139.552 75.51C141.233 78.6689 142.895 81.8398 144.612 84.9829C146.325 88.118 148.089 91.2214 149.98 94.2494C150.213 94.6225 150.447 94.9915 150.684 95.3606C150.727 95.4281 150.834 95.3685 150.795 95.3011C148.864 92.281 147.064 89.1737 145.332 86.0345C143.603 82.8994 141.937 79.7325 140.26 76.5696C138.579 73.3987 136.886 70.2358 135.106 67.1165C133.337 64.0211 131.478 60.9732 129.469 58.0286C127.479 55.1157 125.331 52.306 122.981 49.6748C122.688 49.3494 122.396 49.024 122.099 48.7025C122.043 48.643 121.956 48.7303 122.008 48.7898L122 48.7938Z" fill="#2E497D"/>
<path d="M128.652 56.874C129.19 54.6079 129.732 52.3459 130.27 50.0798C130.29 50.0004 130.171 49.9647 130.151 50.0441C129.613 52.3101 129.071 54.5722 128.533 56.8382C128.514 56.9176 128.632 56.9533 128.652 56.874Z" fill="#2E497D"/>
<path d="M132.941 63.5008C134.986 61.4888 136.335 58.81 136.759 55.9686C136.881 55.1391 136.925 54.2978 136.889 53.4604C136.889 53.3811 136.763 53.3771 136.766 53.4604C136.893 56.3178 136.054 59.187 134.433 61.5404C133.97 62.215 133.44 62.8421 132.854 63.4135C132.799 63.4691 132.882 63.5604 132.941 63.5048V63.5008Z" fill="#2E497D"/>
<path d="M130.369 59.6872C127.252 61.3461 123.565 62.3382 120.116 61.1357C119.249 60.8341 118.438 60.3976 117.715 59.8261C117.651 59.7785 117.588 59.8856 117.651 59.9333C120.432 62.1239 124.222 62.1715 127.458 61.0921C128.486 60.7508 129.471 60.3063 130.429 59.7944C130.5 59.7587 130.441 59.6475 130.369 59.6833V59.6872Z" fill="#2E497D"/>
<path d="M135.515 68.4025C131.172 69.7796 126.543 70.2122 122.018 69.6605C120.708 69.5018 119.411 69.2597 118.129 68.9383C118.05 68.9184 118.018 69.0375 118.094 69.0573C122.544 70.1725 127.224 70.3154 131.737 69.478C133.023 69.2399 134.297 68.9184 135.543 68.5216C135.618 68.4978 135.59 68.3747 135.515 68.3986V68.4025Z" fill="#2E497D"/>
<path d="M138.303 73.2797C140.882 71.1089 143.469 68.8865 145.49 66.1641C147.235 63.8147 148.501 61.0645 148.774 58.1238C148.924 56.5444 148.762 54.945 148.236 53.4449C148.208 53.3695 148.089 53.3973 148.113 53.4727C149.063 56.1753 148.778 59.1318 147.785 61.7749C146.661 64.7592 144.632 67.2793 142.377 69.4858C141.048 70.7835 139.636 71.9899 138.216 73.1844C138.156 73.236 138.239 73.3273 138.303 73.2757V73.2797Z" fill="#2E497D"/>
</g>
<path d="M148.496 131.069C148.496 131.069 133.266 143.971 112.62 132.859C91.9743 121.747 85.9258 97.6739 85.9258 97.6739C85.9258 97.6739 108.636 89.1416 129.765 101.107C150.893 113.076 148.5 131.065 148.5 131.065L148.496 131.069Z" fill="#368577"/>
<mask id="mask3_5019_182813" style="mask-type:luminance" maskUnits="userSpaceOnUse" x="85" y="94" width="64" height="44">
<path d="M148.496 131.069C148.496 131.069 133.266 143.971 112.62 132.859C91.9743 121.747 85.9258 97.6739 85.9258 97.6739C85.9258 97.6739 108.636 89.1416 129.765 101.107C150.893 113.076 148.5 131.065 148.5 131.065L148.496 131.069Z" fill="white"/>
</mask>
<g mask="url(#mask3_5019_182813)">
<path d="M89.1131 112.714C89.0261 112.734 88.9391 112.758 88.852 112.778C88.7769 112.798 88.7294 112.877 88.7452 112.949C88.765 113.024 88.8441 113.072 88.9153 113.056C89.0024 113.036 89.0894 113.012 89.1764 112.992C89.2516 112.972 89.299 112.893 89.2832 112.822C89.2634 112.746 89.1883 112.699 89.1131 112.714Z" fill="#2E497D"/>
<path d="M89.5576 100.389C95.4162 102.222 101.124 104.512 106.682 107.119C112.201 109.707 117.569 112.604 122.842 115.656C128.151 118.731 133.365 121.966 138.555 125.236C143.761 128.514 148.947 131.827 154.188 135.046C159.418 138.26 164.703 141.384 170.111 144.281C170.775 144.638 171.44 144.991 172.108 145.34C172.231 145.404 172.342 145.221 172.219 145.158C166.756 142.3 161.424 139.205 156.154 136.002C150.897 132.804 145.707 129.502 140.505 126.216C135.287 122.922 130.062 119.648 124.745 116.521C119.46 113.413 114.088 110.453 108.573 107.786C103.114 105.147 97.5128 102.79 91.761 100.873C91.045 100.635 90.329 100.405 89.6129 100.178C89.4824 100.139 89.4231 100.345 89.5536 100.385L89.5576 100.389Z" fill="#2E497D"/>
<path d="M106.385 106.75L103.007 95.2135C102.967 95.0826 102.761 95.1302 102.797 95.2651L106.175 106.802C106.215 106.933 106.421 106.885 106.385 106.75Z" fill="#2E497D"/>
<path d="M118.442 112.968C119.783 108.206 119.51 103.047 117.722 98.4392C117.2 97.0939 116.547 95.8041 115.78 94.5818C115.705 94.4667 115.519 94.5659 115.59 94.685C118.217 98.848 119.412 103.848 118.996 108.757C118.877 110.162 118.62 111.551 118.237 112.909C118.201 113.039 118.403 113.103 118.442 112.968Z" fill="#2E497D"/>
<path d="M111.354 109.477C108.114 114.632 103.446 119.275 97.2712 120.442C95.7205 120.735 94.1342 120.775 92.5716 120.545C92.4371 120.525 92.4332 120.739 92.5677 120.759C98.5924 121.644 104.293 118.461 108.205 114.072C109.447 112.679 110.543 111.167 111.536 109.588C111.611 109.473 111.425 109.357 111.354 109.477Z" fill="#2E497D"/>
<path d="M126.467 118.076C121.151 123.866 114.604 128.477 107.38 131.541C105.288 132.426 103.14 133.18 100.956 133.799C100.825 133.835 100.873 134.045 101.007 134.01C108.611 131.859 115.719 128.053 121.744 122.929C123.465 121.469 125.091 119.898 126.618 118.235C126.709 118.135 126.566 117.977 126.471 118.08L126.467 118.076Z" fill="#2E497D"/>
<path d="M134.786 122.973C136.784 117.517 138.762 111.976 139.458 106.174C140.059 101.17 139.604 95.9753 137.512 91.348C136.388 88.8637 134.782 86.6096 132.717 84.8237C132.614 84.7324 132.456 84.8793 132.563 84.9706C136.285 88.193 138.382 92.8521 139.149 97.658C140.016 103.079 139.134 108.587 137.646 113.818C136.768 116.897 135.684 119.914 134.584 122.918C134.537 123.049 134.743 123.108 134.79 122.977L134.786 122.973Z" fill="#2E497D"/>
</g>
<path d="M194.567 118.909C194.567 118.909 186.236 106.809 195.81 92.4427C205.383 78.0766 223.37 75.3423 223.37 75.3423C223.37 75.3423 227.983 92.6213 217.753 107.281C207.523 121.941 194.567 118.909 194.567 118.909Z" fill="#368577"/>
<mask id="mask4_5019_182813" style="mask-type:luminance" maskUnits="userSpaceOnUse" x="191" y="75" width="34" height="45">
<path d="M194.567 118.909C194.567 118.909 186.236 106.809 195.81 92.4427C205.383 78.0766 223.37 75.3423 223.37 75.3423C223.37 75.3423 227.983 92.6213 217.753 107.281C207.523 121.941 194.567 118.909 194.567 118.909Z" fill="white"/>
</mask>
<g mask="url(#mask4_5019_182813)">
<path d="M212.172 76.6163C212.164 76.5528 212.152 76.4853 212.144 76.4218C212.136 76.3662 212.081 76.3226 212.026 76.3305C211.97 76.3385 211.927 76.394 211.935 76.4496C211.942 76.517 211.954 76.5805 211.962 76.644C211.97 76.6996 212.026 76.7433 212.081 76.7353C212.136 76.7274 212.18 76.6718 212.172 76.6163Z" fill="#2E497D"/>
<path d="M221.131 77.815C219.379 81.9859 217.302 86.014 215.004 89.9071C212.721 93.7725 210.229 97.5108 207.626 101.166C205.007 104.845 202.278 108.444 199.524 112.02C196.763 115.611 193.978 119.183 191.257 122.802C188.543 126.414 185.889 130.073 183.388 133.839C183.08 134.303 182.775 134.767 182.475 135.232C182.419 135.315 182.546 135.41 182.601 135.327C185.074 131.521 187.708 127.823 190.422 124.183C193.128 120.552 195.905 116.976 198.67 113.389C201.443 109.793 204.204 106.186 206.863 102.507C209.505 98.8482 212.045 95.1138 214.383 91.2564C216.697 87.4347 218.813 83.49 220.617 79.4064C220.843 78.8984 221.06 78.3904 221.274 77.8785C221.313 77.7832 221.167 77.7277 221.127 77.819L221.131 77.815Z" fill="#2E497D"/>
<path d="M215.295 89.7207C218.179 89.1651 221.067 88.6135 223.951 88.0579C224.05 88.038 224.03 87.8833 223.927 87.9031C221.043 88.4587 218.156 89.0103 215.272 89.5659C215.173 89.5858 215.193 89.7406 215.295 89.7207Z" fill="#2E497D"/>
<path d="M209.904 98.1304C213.282 99.4519 217.064 99.6186 220.553 98.6344C221.573 98.3487 222.558 97.9598 223.504 97.4796C223.595 97.4359 223.535 97.2891 223.444 97.3327C220.22 98.9638 216.486 99.4876 212.938 98.8328C211.921 98.6463 210.924 98.3606 209.963 97.9836C209.868 97.9478 209.809 98.0947 209.904 98.1304Z" fill="#2E497D"/>
<path d="M212.954 93.1735C209.425 90.4312 206.367 86.673 205.956 82.0576C205.853 80.8988 205.936 79.7321 206.213 78.601C206.237 78.5018 206.082 78.4859 206.055 78.5812C204.983 82.9426 206.901 87.3517 209.821 90.5384C210.746 91.5504 211.775 92.4631 212.855 93.3005C212.934 93.364 213.029 93.237 212.95 93.1735H212.954Z" fill="#2E497D"/>
<path d="M205.609 103.658C201.764 99.3443 198.864 94.209 197.144 88.6888C196.645 87.0895 196.25 85.4584 195.953 83.8114C195.933 83.7122 195.779 83.7321 195.799 83.8353C196.827 89.5698 199.098 95.0583 202.409 99.8483C203.354 101.213 204.383 102.519 205.487 103.757C205.554 103.833 205.68 103.737 205.613 103.662L205.609 103.658Z" fill="#2E497D"/>
<path d="M201.444 109.42C205.281 111.273 209.182 113.119 213.367 114.043C216.975 114.841 220.796 114.873 224.321 113.666C226.215 113.015 227.972 112 229.42 110.611C229.491 110.539 229.396 110.416 229.325 110.484C226.71 112.988 223.166 114.194 219.601 114.42C215.582 114.674 211.63 113.635 207.92 112.17C205.736 111.309 203.616 110.297 201.499 109.273C201.408 109.229 201.349 109.376 201.44 109.42H201.444Z" fill="#2E497D"/>
</g>
<path d="M235.913 69.7399C235.913 69.7399 231.997 70.4622 229.517 66.4778C227.036 62.4974 228.37 57.7192 228.37 57.7192C228.37 57.7192 233.152 58.501 235.629 62.6799C238.109 66.8588 235.913 69.7399 235.913 69.7399Z" fill="#368577"/>
<mask id="mask5_5019_182813" style="mask-type:luminance" maskUnits="userSpaceOnUse" x="228" y="57" width="9" height="13">
<path d="M235.913 69.7399C235.913 69.7399 231.997 70.4622 229.517 66.4778C227.036 62.4974 228.37 57.7192 228.37 57.7192C228.37 57.7192 233.152 58.501 235.629 62.6799C238.109 66.8588 235.913 69.7399 235.913 69.7399Z" fill="white"/>
</mask>
<g mask="url(#mask5_5019_182813)">
<path d="M228.727 58.5531C229.562 59.454 230.326 60.4183 231.03 61.4263C231.73 62.4264 232.375 63.4622 232.988 64.5138C233.605 65.5734 234.186 66.6569 234.764 67.7403C235.342 68.8276 235.915 69.919 236.505 70.9984C237.094 72.0779 237.699 73.1454 238.352 74.1852C238.431 74.3122 238.514 74.4392 238.593 74.5662C238.609 74.59 238.645 74.5662 238.629 74.5463C237.964 73.5066 237.347 72.439 236.75 71.3596C236.156 70.2801 235.583 69.1928 235.005 68.1054C234.428 67.014 233.846 65.9266 233.233 64.8551C232.624 63.7916 231.987 62.7439 231.295 61.7319C230.61 60.7318 229.871 59.7635 229.064 58.8587C228.965 58.7476 228.862 58.6364 228.759 58.5253C228.739 58.5055 228.712 58.5333 228.727 58.5571V58.5531Z" fill="#2E497D"/>
<path d="M231.021 61.331L231.579 58.9935C231.587 58.9658 231.543 58.9539 231.539 58.9816C231.353 59.7595 231.167 60.5413 230.981 61.3191C230.974 61.3469 231.017 61.3588 231.021 61.331Z" fill="#2E497D"/>
<path d="M232.495 63.6126C233.199 62.9221 233.662 61.9974 233.808 61.0212C233.852 60.7354 233.864 60.4457 233.852 60.16C233.852 60.1322 233.808 60.1322 233.808 60.16C233.852 61.1442 233.563 62.1284 233.005 62.938C232.847 63.1681 232.665 63.3864 232.463 63.5809C232.444 63.6007 232.475 63.6325 232.495 63.6126Z" fill="#2E497D"/>
<path d="M231.609 62.2993C230.537 62.8708 229.267 63.2121 228.085 62.7993C227.788 62.6962 227.507 62.5454 227.258 62.3509C227.238 62.335 227.214 62.3708 227.234 62.3866C228.191 63.1406 229.493 63.1565 230.608 62.7835C230.96 62.6644 231.301 62.5136 231.629 62.339C231.653 62.3271 231.629 62.2874 231.609 62.3033V62.2993Z" fill="#2E497D"/>
<path d="M233.38 65.295C231.885 65.7673 230.294 65.9181 228.74 65.7276C228.289 65.672 227.842 65.5887 227.403 65.4776C227.375 65.4696 227.363 65.5133 227.391 65.5173C228.922 65.9022 230.532 65.9498 232.082 65.6601C232.525 65.5768 232.961 65.4657 233.392 65.3307C233.419 65.3228 233.408 65.2792 233.384 65.2871L233.38 65.295Z" fill="#2E497D"/>
<path d="M234.339 66.9745C235.225 66.2284 236.115 65.4625 236.812 64.5259C237.413 63.7203 237.844 62.7718 237.939 61.7598C237.99 61.2161 237.935 60.6645 237.753 60.1526C237.745 60.1287 237.702 60.1367 237.71 60.1605C238.038 61.0891 237.939 62.1051 237.595 63.0178C237.207 64.0457 236.511 64.9108 235.736 65.6688C235.281 66.1173 234.794 66.53 234.304 66.9427C234.284 66.9586 234.312 66.9904 234.335 66.9745H234.339Z" fill="#2E497D"/>
</g>
<g style="mix-blend-mode:multiply" opacity="0.18">
<path d="M218.87 146.197C218.87 147.435 209.052 148.44 196.943 148.44C184.834 148.44 175.016 147.435 175.016 146.197C175.016 144.959 184.834 143.955 196.943 143.955C209.052 143.955 218.87 144.959 218.87 146.197Z" fill="#B2AECC"/>
</g>
<path d="M193.625 29.9351H135.43C131.955 29.9351 129.137 32.7619 129.137 36.249V135.308C129.137 138.795 131.955 141.622 135.43 141.622H193.625C197.101 141.622 199.919 138.795 199.919 135.308V36.249C199.919 32.7619 197.101 29.9351 193.625 29.9351Z" fill="#2E2562"/>
<path d="M194.221 41.2134H167.001H132.648V78.593V108.504V130.049H139.722H165.688H171.918H195.899V103.464V96.6181V68.0883V41.2134H194.221Z" fill="#5D7CAB"/>
<path d="M168.138 137.414C168.617 135.327 167.318 133.246 165.238 132.766C163.158 132.286 161.084 133.588 160.605 135.675C160.126 137.762 161.425 139.843 163.505 140.323C165.585 140.803 167.659 139.501 168.138 137.414Z" fill="#5758DB"/>
<path d="M154.733 35.7296C154.733 36.3844 154.203 36.9162 153.55 36.9162C152.897 36.9162 152.367 36.3844 152.367 35.7296C152.367 35.0748 152.897 34.543 153.55 34.543C154.203 34.543 154.733 35.0748 154.733 35.7296Z" fill="#5758DB"/>
<path d="M178.317 36.5743H157.355C156.861 36.5743 156.453 36.1655 156.453 35.6695C156.453 35.1734 156.861 34.7646 157.355 34.7646H178.317C178.812 34.7646 179.219 35.1734 179.219 35.6695C179.219 36.1655 178.812 36.5743 178.317 36.5743Z" fill="#5758DB"/>
<path d="M100.069 100.437L100.409 140.729H99.2227L99.5589 100.437H100.069Z" fill="#DD5366"/>
<path d="M99.9419 115.799H99.6887C99.6887 109.12 94.9654 105.985 94.918 105.957L95.0564 105.743C95.1039 105.774 99.9459 108.985 99.9459 115.799H99.9419Z" fill="#DD5366"/>
<path d="M99.9368 109.548L99.6836 109.512C99.6915 109.457 100.506 103.881 104.632 103.623L104.648 103.877C100.732 104.123 99.9447 109.493 99.9368 109.548Z" fill="#DD5366"/>
<path d="M99.6894 121.747C99.278 119.628 97.9844 118.255 95.8483 117.655C94.2382 117.207 92.7271 117.389 92.7152 117.393L92.6836 117.139C92.7469 117.131 98.9141 116.405 99.9426 121.695L99.6934 121.743L99.6894 121.747Z" fill="#DD5366"/>
<path d="M99.9327 117.739L99.6953 117.648C99.7111 117.612 101.171 113.949 105.032 114.207L105.016 114.461C101.341 114.211 99.9445 117.704 99.9327 117.739Z" fill="#DD5366"/>
<path d="M99.9247 127.189L99.7031 127.066C99.7031 127.066 100.455 125.689 101.594 124.343C103.137 122.522 104.636 121.601 106.044 121.601V121.855C102.852 121.855 99.9563 127.133 99.9286 127.185L99.9247 127.189Z" fill="#DD5366"/>
<path d="M100.073 135.788C99.3408 132.86 97.4182 132.824 97.3984 132.824V132.57C97.4182 132.57 99.5386 132.606 100.318 135.725L100.073 135.788Z" fill="#DD5366"/>
<path d="M93.3398 138.268H106.121L104.559 155.265H95.8162L93.3398 138.268Z" fill="#836FF2"/>
<path d="M92.0352 138.268H107.95L107.036 142.951H92.949L92.0352 138.268Z" fill="#9486FA"/>
<path d="M97.7789 100.182C97.7789 100.182 92.6957 99.4165 92.9488 96.1027C93.202 92.789 91.4219 90.4912 91.4219 90.4912C91.4219 90.4912 106.165 91.7651 99.8123 100.182H97.7789Z" fill="#5758DB"/>
<path d="M94.9844 117.267C94.9844 117.267 86.0876 118.033 82.5273 122.621C82.5273 122.621 82.7805 111.398 94.9844 117.267Z" fill="#5758DB"/>
<path d="M103.628 127.978C103.628 127.978 107.442 126.958 107.948 127.978C108.458 128.998 104.645 134.097 104.645 134.097C104.645 134.097 102.612 132.057 100.831 131.803C99.0513 131.549 94.7315 129.252 96.5116 128.232C98.2917 127.212 103.628 127.978 103.628 127.978Z" fill="#5758DB"/>
<path d="M96.1933 99.4564C96.1933 99.4564 93.4638 98.7262 93.0998 99.4564C92.7359 100.187 95.4654 103.838 95.4654 103.838C95.4654 103.838 96.9212 102.377 98.195 102.195C99.4688 102.012 102.562 100.369 101.288 99.6389C100.015 98.9087 96.1933 99.4564 96.1933 99.4564Z" fill="#5758DB"/>
<path d="M102.102 114.974C102.102 114.974 108.965 113.7 113.032 119.565C113.032 119.565 110.745 106.302 102.102 114.974Z" fill="#5758DB"/>
<path d="M95.4893 106.302C95.4893 106.302 88.1155 103.242 84.0489 109.108C84.0489 109.108 83.7957 105.282 86.5925 103.75C89.3893 102.218 93.2028 101.456 95.4893 106.302Z" fill="#5758DB"/>
<path d="M103.891 103.873C103.891 103.873 105.097 104.846 106.826 104.358C108.555 103.869 110.082 105.314 110.082 105.314C110.082 105.314 108.57 101.246 103.891 103.873Z" fill="#5758DB"/>
<path d="M103.371 122.878C103.371 122.878 107.948 120.838 110.488 123.39C110.488 123.39 105.658 116.251 103.371 122.878Z" fill="#5758DB"/>
<path d="M96.5079 131.55C96.5079 131.55 90.1509 131.038 89.6445 137.162C89.6445 137.162 91.6778 135.376 94.4746 135.888C97.2714 136.4 99.8111 133.082 96.5079 131.554V131.55Z" fill="#5758DB"/>
<path d="M235.311 106.964L232.76 116.711C232.447 117.901 232.938 119.156 233.966 119.822L242.42 125.271C244.869 126.851 243.872 130.648 240.968 130.815L230.94 131.391C229.714 131.462 228.673 132.315 228.365 133.506L225.813 143.252C225.073 146.074 221.165 146.3 220.109 143.582L216.461 134.192C216.014 133.045 214.887 132.315 213.661 132.387L203.633 132.962C200.729 133.129 199.305 129.47 201.56 127.62L209.337 121.239C210.286 120.461 210.627 119.156 210.184 118.009L206.536 108.619C205.48 105.901 208.51 103.412 210.959 104.988L219.413 110.437C220.445 111.103 221.786 111.024 222.735 110.246L230.513 103.865C232.764 102.015 236.059 104.139 235.319 106.964H235.311Z" fill="#D3B25A"/>
<mask id="mask6_5019_182813" style="mask-type:luminance" maskUnits="userSpaceOnUse" x="200" y="103" width="44" height="43">
<path d="M235.311 106.964L232.76 116.711C232.447 117.901 232.938 119.156 233.966 119.822L242.42 125.271C244.869 126.851 243.872 130.648 240.968 130.815L230.94 131.391C229.714 131.462 228.673 132.315 228.365 133.506L225.813 143.252C225.073 146.074 221.165 146.3 220.109 143.582L216.461 134.192C216.014 133.045 214.887 132.315 213.661 132.387L203.633 132.962C200.729 133.129 199.305 129.47 201.56 127.62L209.337 121.239C210.286 120.461 210.627 119.156 210.184 118.009L206.536 108.619C205.48 105.901 208.51 103.412 210.959 104.988L219.413 110.437C220.445 111.103 221.786 111.024 222.735 110.246L230.513 103.865C232.764 102.015 236.059 104.139 235.319 106.964H235.311Z" fill="white"/>
</mask>
<g mask="url(#mask6_5019_182813)">
<path d="M235.046 106.024L232.494 115.77C232.181 116.961 232.672 118.215 233.701 118.882L242.154 124.331C244.603 125.91 243.606 129.708 240.702 129.875L230.674 130.45C229.448 130.522 228.408 131.375 228.099 132.565L225.548 142.312C224.808 145.134 220.899 145.36 219.843 142.641L216.196 133.252C215.749 132.105 214.621 131.375 213.395 131.446L203.367 132.022C200.463 132.188 199.039 128.529 201.294 126.68L209.071 120.299C210.021 119.521 210.361 118.215 209.918 117.068L206.271 107.679C205.214 104.96 208.245 102.472 210.693 104.047L219.147 109.496C220.179 110.163 221.52 110.084 222.47 109.306L230.247 102.924C232.498 101.075 235.793 103.198 235.053 106.024H235.046Z" fill="#ECC649"/>
</g>
<path opacity="0.53" d="M216.113 110.644C217.067 111.041 217.992 111.489 218.902 111.961C219.017 112.021 219.132 112.08 219.238 112.128L219.401 112.207L219.567 112.271C219.788 112.362 220.022 112.418 220.255 112.465C220.722 112.56 221.201 112.568 221.667 112.493C222.134 112.426 222.593 112.279 223.008 112.053C223.218 111.941 223.424 111.814 223.61 111.664L223.752 111.552L223.898 111.429L224.195 111.183C224.986 110.529 225.789 109.89 226.64 109.298C225.971 110.092 225.263 110.834 224.535 111.56C224.349 111.743 224.187 111.922 223.974 112.104C223.772 112.287 223.546 112.445 223.313 112.592C222.838 112.874 222.308 113.053 221.766 113.14C221.22 113.215 220.659 113.199 220.125 113.068C219.859 112.997 219.598 112.914 219.349 112.799L219.163 112.711L218.985 112.612C218.863 112.545 218.76 112.473 218.649 112.406C217.787 111.85 216.932 111.279 216.113 110.648V110.644Z" fill="#164169"/>
<path opacity="0.53" d="M212.138 107.202C211.664 106.96 211.197 106.694 210.734 106.42C210.675 106.384 210.615 106.353 210.564 106.321L210.481 106.273L210.398 106.234C210.287 106.178 210.176 106.134 210.069 106.099C209.852 106.023 209.638 105.988 209.44 105.988C209.243 105.988 209.057 106.019 208.902 106.091C208.823 106.126 208.752 106.166 208.689 106.222L208.641 106.261L208.594 106.309L208.495 106.396C208.23 106.634 207.957 106.865 207.656 107.071C207.85 106.761 208.068 106.48 208.293 106.206C208.352 106.134 208.4 106.067 208.471 105.999C208.538 105.932 208.618 105.876 208.701 105.829C208.875 105.734 209.084 105.694 209.314 105.69C209.547 105.694 209.796 105.738 210.05 105.837C210.176 105.888 210.303 105.944 210.429 106.011L210.524 106.063L210.615 106.123C210.679 106.162 210.734 106.202 210.789 106.238C211.244 106.547 211.695 106.861 212.138 107.202Z" fill="#164169"/>
<path opacity="0.53" d="M204.358 126.906C203.911 127.195 203.448 127.469 202.981 127.735C202.922 127.767 202.862 127.803 202.811 127.834L202.732 127.882L202.657 127.934C202.554 128.001 202.463 128.076 202.376 128.152C202.202 128.303 202.063 128.469 201.968 128.644C201.865 128.815 201.802 128.993 201.79 129.164C201.782 129.251 201.782 129.335 201.798 129.418L201.81 129.481L201.826 129.545L201.853 129.676C201.929 130.025 201.988 130.378 202.016 130.739C201.846 130.418 201.711 130.089 201.584 129.751C201.553 129.664 201.517 129.589 201.497 129.493C201.47 129.402 201.462 129.307 201.466 129.208C201.47 129.009 201.541 128.807 201.652 128.604C201.77 128.406 201.937 128.211 202.146 128.041C202.253 127.957 202.364 127.874 202.486 127.799L202.577 127.743L202.672 127.692C202.736 127.656 202.799 127.628 202.862 127.596C203.357 127.354 203.855 127.12 204.369 126.906H204.358Z" fill="#164169"/>
<g style="mix-blend-mode:multiply" opacity="0.93">
<path d="M167.011 53.1591L170.357 62.6598C170.765 63.8186 171.872 64.5845 173.099 64.5528L183.143 64.2948C186.05 64.2194 187.356 67.9221 185.045 69.7L177.07 75.8314C176.097 76.5814 175.714 77.8712 176.125 79.034L179.472 88.5346C180.441 91.2888 177.335 93.6779 174.938 92.023L166.662 86.3083C165.654 85.6098 164.309 85.6456 163.336 86.3956L155.361 92.527C153.05 94.3009 149.826 92.0746 150.653 89.2768L153.513 79.6134C153.861 78.4347 153.414 77.1608 152.406 76.4663L144.13 70.7516C141.733 69.0968 142.848 65.3306 145.756 65.2552L155.8 64.9973C157.026 64.9655 158.094 64.144 158.442 62.9654L161.302 53.302C162.129 50.5042 166.045 50.401 167.015 53.1551L167.011 53.1591Z" fill="#5D7CAB"/>
</g>
<path d="M221.377 139.847C201.946 137.923 187.515 139.542 184.991 139.859C184.856 139.871 184.726 139.887 184.595 139.911C182.946 140.224 181.684 141.689 181.684 143.431C181.684 145.403 183.29 147.015 185.256 147.015H221.373C223.339 147.015 224.945 145.403 224.945 143.431C224.945 141.459 223.339 139.847 221.373 139.847H221.377Z" fill="#ECC649"/>
<mask id="mask7_5019_182813" style="mask-type:luminance" maskUnits="userSpaceOnUse" x="181" y="138" width="44" height="10">
<path d="M221.377 139.847C201.946 137.923 187.515 139.542 184.991 139.859C184.856 139.871 184.726 139.887 184.595 139.911C182.946 140.224 181.684 141.689 181.684 143.431C181.684 145.403 183.29 147.015 185.256 147.015H221.373C223.339 147.015 224.945 145.403 224.945 143.431C224.945 141.459 223.339 139.847 221.373 139.847H221.377Z" fill="white"/>
</mask>
<g mask="url(#mask7_5019_182813)">
<path d="M202.458 147.015C202.458 147.015 197.034 146.217 197.3 142.899C197.565 139.582 202.988 138.919 202.988 138.919C202.988 138.919 187.774 138.522 185.657 142.106C183.541 145.689 193.067 147.546 202.458 147.015Z" fill="url(#paint3_linear_5019_182813)"/>
<path d="M202.983 138.919C202.983 138.919 207.746 139.05 207.746 143.035C207.746 146.364 202.453 147.015 202.453 147.015C202.453 147.015 216.492 148.349 218.91 144.96C221.327 141.574 212.386 139.201 202.983 138.919Z" fill="url(#paint4_linear_5019_182813)"/>
</g>
<g style="mix-blend-mode:multiply">
<g style="mix-blend-mode:multiply" opacity="0.34">
<path d="M189.039 113.969H143.443C142.85 113.969 142.359 113.481 142.359 112.881C142.359 112.286 142.846 111.794 143.443 111.794H189.039C189.632 111.794 190.122 112.282 190.122 112.881C190.122 113.477 189.636 113.969 189.039 113.969Z" fill="#C3C5FA"/>
</g>
<g style="mix-blend-mode:multiply" opacity="0.34">
<path d="M189.039 118.016H143.443C142.85 118.016 142.359 117.528 142.359 116.929C142.359 116.333 142.846 115.841 143.443 115.841H189.039C189.632 115.841 190.122 116.329 190.122 116.929C190.122 117.524 189.636 118.016 189.039 118.016Z" fill="#C3C5FA"/>
</g>
<g style="mix-blend-mode:multiply" opacity="0.34">
<path d="M159.472 121.862H143.439C142.846 121.862 142.355 121.374 142.355 120.774C142.355 120.179 142.842 119.687 143.439 119.687H159.472C160.066 119.687 160.556 120.175 160.556 120.774C160.556 121.37 160.07 121.862 159.472 121.862Z" fill="#C3C5FA"/>
</g>
</g>
<path d="M144.247 105.067L144.792 106.179L146.015 106.357C146.3 106.397 146.41 106.75 146.205 106.949L145.323 107.814L145.532 109.036C145.58 109.318 145.283 109.536 145.03 109.401L143.938 108.826L142.846 109.401C142.593 109.536 142.296 109.318 142.344 109.036L142.553 107.814L141.671 106.949C141.466 106.746 141.58 106.397 141.861 106.357L143.084 106.179L143.629 105.067C143.756 104.81 144.124 104.81 144.25 105.067H144.247Z" fill="#FFD255"/>
<g style="mix-blend-mode:multiply" opacity="0.12">
<path d="M146.1 106.381C146.084 106.441 146.056 106.5 146.005 106.548L145.123 107.413L145.332 108.635C145.38 108.917 145.083 109.136 144.83 109.001L143.738 108.425L142.646 109.001C142.547 109.052 142.437 109.052 142.35 109.012V109.036C142.298 109.318 142.595 109.536 142.848 109.401L143.94 108.826L145.032 109.401C145.285 109.536 145.582 109.318 145.534 109.036L145.324 107.814L146.207 106.949C146.389 106.77 146.317 106.473 146.1 106.381Z" fill="#5D5D5D"/>
</g>
<path opacity="0.17" d="M143.414 106.146C143.56 105.825 143.71 105.504 143.857 105.182C143.888 105.111 143.785 105.051 143.754 105.123C143.607 105.444 143.457 105.765 143.311 106.087C143.279 106.158 143.382 106.218 143.414 106.146Z" fill="#164169"/>
<path opacity="0.17" d="M142.747 107.452C142.49 107.21 142.229 106.972 141.972 106.73C141.916 106.679 141.825 106.758 141.881 106.809C142.138 107.052 142.399 107.29 142.656 107.532C142.711 107.583 142.802 107.504 142.747 107.452Z" fill="#164169"/>
<path d="M150.493 105.067L151.039 106.179L152.261 106.357C152.546 106.397 152.656 106.75 152.451 106.949L151.569 107.814L151.778 109.036C151.826 109.318 151.529 109.536 151.276 109.401L150.184 108.826L149.092 109.401C148.839 109.536 148.542 109.318 148.59 109.036L148.8 107.814L147.917 106.949C147.712 106.746 147.826 106.397 148.107 106.357L149.33 106.179L149.875 105.067C150.002 104.81 150.37 104.81 150.497 105.067H150.493Z" fill="#FFD255"/>
<g style="mix-blend-mode:multiply" opacity="0.12">
<path d="M152.346 106.381C152.33 106.441 152.302 106.5 152.251 106.548L151.369 107.413L151.578 108.635C151.626 108.917 151.329 109.136 151.076 109.001L149.984 108.425L148.892 109.001C148.794 109.052 148.683 109.052 148.596 109.012V109.036C148.544 109.318 148.841 109.536 149.094 109.401L150.186 108.826L151.278 109.401C151.531 109.536 151.828 109.318 151.78 109.036L151.571 107.814L152.453 106.949C152.635 106.77 152.563 106.473 152.346 106.381Z" fill="#5D5D5D"/>
</g>
<path opacity="0.17" d="M149.66 106.146C149.806 105.825 149.956 105.504 150.103 105.182C150.134 105.111 150.031 105.051 150 105.123C149.853 105.444 149.703 105.765 149.557 106.087C149.525 106.158 149.628 106.218 149.66 106.146Z" fill="#164169"/>
<path opacity="0.17" d="M148.993 107.452C148.736 107.21 148.475 106.972 148.218 106.73C148.162 106.679 148.071 106.758 148.127 106.809C148.384 107.052 148.645 107.29 148.902 107.532C148.957 107.583 149.048 107.504 148.993 107.452Z" fill="#164169"/>
<path d="M156.739 105.166L157.285 106.277L158.507 106.456C158.792 106.496 158.903 106.849 158.697 107.047L157.815 107.912L158.024 109.135C158.072 109.416 157.775 109.635 157.522 109.5L156.43 108.924L155.338 109.5C155.085 109.635 154.788 109.416 154.836 109.135L155.046 107.912L154.163 107.047C153.958 106.845 154.072 106.496 154.353 106.456L155.576 106.277L156.122 105.166C156.248 104.908 156.616 104.908 156.743 105.166H156.739Z" fill="#FFD255"/>
<g style="mix-blend-mode:multiply" opacity="0.12">
<path d="M158.592 106.48C158.576 106.54 158.548 106.599 158.497 106.647L157.615 107.512L157.825 108.734C157.872 109.016 157.575 109.234 157.322 109.099L156.23 108.524L155.138 109.099C155.04 109.151 154.929 109.151 154.842 109.111V109.135C154.79 109.417 155.087 109.635 155.34 109.5L156.432 108.925L157.524 109.5C157.777 109.635 158.074 109.417 158.026 109.135L157.817 107.913L158.699 107.047C158.881 106.869 158.81 106.571 158.592 106.48Z" fill="#5D5D5D"/>
</g>
<path opacity="0.17" d="M155.906 106.245C156.052 105.924 156.202 105.602 156.349 105.281C156.38 105.209 156.278 105.15 156.246 105.221C156.1 105.543 155.949 105.864 155.803 106.186C155.771 106.257 155.874 106.317 155.906 106.245Z" fill="#164169"/>
<path opacity="0.17" d="M155.235 107.551C154.978 107.309 154.717 107.071 154.46 106.829C154.404 106.777 154.313 106.857 154.369 106.908C154.626 107.15 154.887 107.388 155.144 107.63C155.2 107.682 155.291 107.603 155.235 107.551Z" fill="#164169"/>
<g style="mix-blend-mode:multiply" opacity="0.34">
<path d="M163.266 105.166L163.812 106.277L165.034 106.456C165.319 106.496 165.43 106.849 165.224 107.047L164.342 107.912L164.552 109.135C164.599 109.416 164.302 109.635 164.049 109.5L162.957 108.924L161.866 109.5C161.613 109.635 161.316 109.416 161.363 109.135L161.573 107.912L160.691 107.047C160.485 106.845 160.6 106.496 160.881 106.456L162.103 106.277L162.649 105.166C162.776 104.908 163.143 104.908 163.27 105.166H163.266Z" fill="#5D5D5D"/>
<g style="mix-blend-mode:multiply" opacity="0.12">
<path d="M165.119 106.48C165.103 106.54 165.076 106.599 165.024 106.647L164.142 107.512L164.352 108.734C164.399 109.016 164.103 109.234 163.849 109.099L162.758 108.524L161.666 109.099C161.567 109.151 161.456 109.151 161.369 109.111V109.135C161.318 109.417 161.614 109.635 161.868 109.5L162.959 108.925L164.051 109.5C164.304 109.635 164.601 109.417 164.554 109.135L164.344 107.913L165.226 107.047C165.408 106.869 165.337 106.571 165.119 106.48Z" fill="#5D5D5D"/>
</g>
<path opacity="0.17" d="M162.433 106.245C162.579 105.924 162.73 105.602 162.876 105.281C162.908 105.209 162.805 105.15 162.773 105.221C162.627 105.543 162.477 105.864 162.33 106.186C162.299 106.257 162.401 106.317 162.433 106.245Z" fill="#5D5D5D"/>
<path opacity="0.17" d="M161.766 107.551L160.991 106.829C160.936 106.777 160.845 106.857 160.9 106.908C161.157 107.15 161.418 107.388 161.675 107.63C161.731 107.682 161.822 107.603 161.766 107.551Z" fill="#5D5D5D"/>
</g>
<g style="mix-blend-mode:multiply" opacity="0.34">
<path d="M170.204 105.166L170.749 106.277L171.972 106.456C172.257 106.496 172.367 106.849 172.162 107.047L171.28 107.912L171.489 109.135C171.537 109.416 171.24 109.635 170.987 109.5L169.895 108.924L168.803 109.5C168.55 109.635 168.253 109.416 168.301 109.135L168.51 107.912L167.628 107.047C167.423 106.845 167.537 106.496 167.818 106.456L169.041 106.277L169.586 105.166C169.713 104.908 170.081 104.908 170.208 105.166H170.204Z" fill="#5D5D5D"/>
<g style="mix-blend-mode:multiply" opacity="0.12">
<path d="M172.057 106.48C172.041 106.54 172.013 106.599 171.962 106.647L171.08 107.512L171.289 108.734C171.337 109.016 171.04 109.234 170.787 109.099L169.695 108.524L168.603 109.099C168.504 109.151 168.394 109.151 168.307 109.111V109.135C168.255 109.417 168.552 109.635 168.805 109.5L169.897 108.925L170.989 109.5C171.242 109.635 171.539 109.417 171.491 109.135L171.281 107.913L172.164 107.047C172.346 106.869 172.274 106.571 172.057 106.48Z" fill="#5D5D5D"/>
</g>
<path opacity="0.17" d="M169.371 106.245C169.517 105.924 169.667 105.602 169.814 105.281C169.845 105.209 169.742 105.15 169.711 105.221C169.564 105.543 169.414 105.864 169.268 106.186C169.236 106.257 169.339 106.317 169.371 106.245Z" fill="#5D5D5D"/>
<path opacity="0.17" d="M168.704 107.551L167.929 106.829C167.873 106.777 167.782 106.857 167.838 106.908C168.095 107.15 168.356 107.388 168.613 107.63C168.668 107.682 168.759 107.603 168.704 107.551Z" fill="#5D5D5D"/>
</g>
<g opacity="0.14">
<mask id="mask8_5019_182813" style="mask-type:luminance" maskUnits="userSpaceOnUse" x="132" y="41" width="65" height="89">
<path d="M194.752 41.0977H167.271H132.582V78.39V108.229V129.727H139.726H165.942H172.232H196.445V103.201V96.3714V67.9091V41.0977H194.752Z" fill="white"/>
</mask>
<g mask="url(#mask8_5019_182813)">
<path d="M129.281 69.4296L202.223 34.5065L177.716 26.3472L121.238 52.1585L129.281 69.4296Z" fill="#164169"/>
<path d="M129.085 88.7879L206.818 51.0193L204.713 46.2729L126.023 84.4225L129.085 88.7879Z" fill="#164169"/>
<path d="M124.496 128.072L211.224 80.0566L213.713 90.3034L149.576 123.139L206.822 98.2762L138.278 134.334L126.027 134.144L124.496 128.072Z" fill="#164169"/>
<path d="M199.544 74.1724L129.086 121.43L199.544 77.2083L198.393 74.1724" fill="#164169"/>
</g>
</g>
<path d="M124.085 67.0727L123.341 77.125C123.25 78.3513 123.959 79.4982 125.094 79.9665L134.394 83.7802C137.088 84.8835 136.799 88.8044 133.971 89.4949L124.212 91.8919C123.021 92.1856 122.151 93.2134 122.06 94.4397L121.316 104.492C121.102 107.405 117.297 108.338 115.766 105.853L110.477 97.2852C109.832 96.2375 108.586 95.7295 107.395 96.0192L97.6363 98.4162C94.8078 99.1107 92.7508 95.7692 94.6298 93.5428L101.121 85.8518C101.913 84.9113 102.011 83.5659 101.367 82.5222L96.0776 73.9541C94.5467 71.4738 97.0745 68.4736 99.7685 69.5768L109.069 73.3906C110.204 73.8549 111.509 73.5374 112.301 72.5969L118.792 64.9059C120.671 62.6755 124.295 64.1637 124.081 67.0766L124.085 67.0727Z" fill="#D3B25A"/>
<mask id="mask9_5019_182813" style="mask-type:luminance" maskUnits="userSpaceOnUse" x="93" y="63" width="44" height="45">
<path d="M124.085 67.0727L123.341 77.125C123.25 78.3513 123.959 79.4982 125.094 79.9665L134.394 83.7802C137.088 84.8835 136.799 88.8044 133.971 89.4949L124.212 91.8919C123.021 92.1856 122.151 93.2134 122.06 94.4397L121.316 104.492C121.102 107.405 117.297 108.338 115.766 105.853L110.477 97.2852C109.832 96.2375 108.586 95.7295 107.395 96.0192L97.6363 98.4162C94.8078 99.1107 92.7508 95.7692 94.6298 93.5428L101.121 85.8518C101.913 84.9113 102.011 83.5659 101.367 82.5222L96.0776 73.9541C94.5467 71.4738 97.0745 68.4736 99.7685 69.5768L109.069 73.3906C110.204 73.8549 111.509 73.5374 112.301 72.5969L118.792 64.9059C120.671 62.6755 124.295 64.1637 124.081 67.0766L124.085 67.0727Z" fill="white"/>
</mask>
<g mask="url(#mask9_5019_182813)">
<path d="M123.659 66.1962L122.916 76.2485C122.825 77.4748 123.533 78.6217 124.668 79.09L133.968 82.9038C136.662 84.007 136.373 87.9279 133.545 88.6184L123.786 91.0154C122.595 91.3091 121.725 92.337 121.634 93.5632L120.89 103.616C120.677 106.528 116.871 107.461 115.34 104.977L110.051 96.4087C109.406 95.361 108.16 94.853 106.97 95.1427L97.2105 97.5397C94.382 98.2342 92.325 94.8927 94.204 92.6664L100.696 84.9753C101.487 84.0348 101.586 82.6895 100.941 81.6457L95.6519 73.0777C94.1209 70.5973 96.6487 67.5971 99.3427 68.7004L108.643 72.5141C109.778 72.9784 111.084 72.661 111.875 71.7204L118.366 64.0294C120.245 61.7991 123.869 63.2873 123.655 66.2002L123.659 66.1962Z" fill="#ECC649"/>
</g>
<path opacity="0.53" d="M105.875 74.1886C106.888 74.4029 107.877 74.6767 108.858 74.9744C108.98 75.0101 109.107 75.0498 109.218 75.0775L109.392 75.1252L109.57 75.1569C109.803 75.2045 110.044 75.2204 110.282 75.2244C110.757 75.2323 111.231 75.1529 111.678 74.9942C112.125 74.8434 112.552 74.6172 112.92 74.3156C113.106 74.1648 113.284 74.006 113.439 73.8235L113.557 73.6885L113.68 73.5377L113.929 73.2441C114.586 72.4543 115.262 71.6805 115.994 70.9463C115.484 71.8471 114.918 72.7083 114.337 73.5536C114.186 73.7679 114.06 73.9743 113.882 74.1926C113.716 74.4108 113.522 74.6092 113.32 74.7918C112.905 75.1569 112.414 75.4268 111.896 75.6133C111.374 75.7839 110.82 75.8752 110.27 75.8435C109.997 75.8236 109.724 75.7879 109.459 75.7165L109.261 75.6649L109.067 75.5974C108.937 75.5538 108.818 75.5022 108.699 75.4545C107.75 75.0656 106.809 74.6569 105.887 74.1886H105.875Z" fill="#164169"/>
<path opacity="0.53" d="M101.345 71.5331C100.834 71.3783 100.328 71.2037 99.8216 71.0172C99.7583 70.9934 99.695 70.9696 99.6356 70.9537L99.5486 70.9219L99.4616 70.8981C99.3429 70.8624 99.2282 70.8426 99.1135 70.8267C98.884 70.795 98.6704 70.7949 98.4766 70.8346C98.2827 70.8664 98.1047 70.9338 97.9663 71.037C97.8951 71.0847 97.8318 71.1402 97.7803 71.2077L97.7408 71.2553L97.7012 71.3109L97.6182 71.418C97.4006 71.6998 97.1751 71.9776 96.918 72.2316C97.0525 71.8942 97.2147 71.5767 97.3887 71.2632C97.4322 71.1839 97.4678 71.1085 97.5272 71.0291C97.5786 70.9497 97.6458 70.8823 97.721 70.8188C97.8753 70.6957 98.0731 70.6164 98.2986 70.5727C98.528 70.537 98.7812 70.533 99.0462 70.5806C99.1807 70.6084 99.3152 70.6402 99.4497 70.6838L99.5526 70.7156L99.6515 70.7553C99.7187 70.783 99.782 70.8108 99.8453 70.8386C100.348 71.0608 100.85 71.287 101.345 71.541V71.5331Z" fill="#164169"/>
<path opacity="0.53" d="M97.2655 92.3243C96.8778 92.6894 96.4743 93.0426 96.0589 93.3918C96.0075 93.4355 95.9561 93.4791 95.9086 93.5188L95.8374 93.5823L95.7701 93.6458C95.6831 93.7291 95.604 93.8204 95.5328 93.9117C95.3904 94.0943 95.2836 94.2808 95.2203 94.4673C95.153 94.6538 95.1214 94.8403 95.1412 95.011C95.1491 95.0983 95.1649 95.1816 95.1926 95.257L95.2124 95.3166L95.2401 95.3761L95.2915 95.4991C95.426 95.8285 95.5526 96.1658 95.6436 96.5151C95.4181 96.2293 95.2242 95.9277 95.0423 95.6221C94.9948 95.5428 94.9473 95.4753 94.9078 95.384C94.8643 95.3007 94.8405 95.2054 94.8247 95.1102C94.793 94.9157 94.8247 94.7014 94.8999 94.4832C94.9829 94.2649 95.1056 94.0466 95.2836 93.8363C95.3746 93.7331 95.4695 93.6339 95.5763 93.5387L95.6554 93.4672L95.7385 93.3998C95.7978 93.3521 95.8493 93.3125 95.9046 93.2728C96.3437 92.9473 96.7947 92.6259 97.2615 92.3203L97.2655 92.3243Z" fill="#164169"/>
<path d="M110.358 156.619L107.368 161.508L107.866 165.401C107.866 165.401 110.612 166 109.615 166.6C108.618 167.199 106.62 167.199 106.371 166.6C106.122 166 104.124 160.313 104.622 160.012C105.121 159.714 106.371 159.115 106.371 159.115L108.119 154.623L110.362 156.619H110.358Z" fill="#E8AAAD"/>
<mask id="mask10_5019_182813" style="mask-type:luminance" maskUnits="userSpaceOnUse" x="104" y="154" width="7" height="14">
<path d="M110.358 156.619L107.368 161.508L107.866 165.401C107.866 165.401 110.612 166 109.615 166.6C108.618 167.199 106.62 167.199 106.371 166.6C106.122 166 104.124 160.313 104.622 160.012C105.121 159.714 106.371 159.115 106.371 159.115L108.119 154.623L110.362 156.619H110.358Z" fill="white"/>
</mask>
<g mask="url(#mask10_5019_182813)">
<path d="M107.616 162.706L107.367 161.507C107.367 161.507 106.37 161.507 106.37 160.611C106.37 159.714 106.62 158.515 105.373 158.515C104.127 158.515 103.625 162.107 103.625 162.107L104.875 166L106.125 167.496H109.622L110.619 165.698L107.624 162.706H107.616Z" fill="#6971BA"/>
</g>
<path d="M126.091 153.725V162.408C126.091 162.408 131.835 164.805 131.333 165.401C131.333 165.401 124.094 165.401 124.094 164.801C124.094 164.202 124.343 162.107 124.343 162.107L123.168 154.201L126.091 153.721V153.725Z" fill="#E8AAAD"/>
<mask id="mask11_5019_182813" style="mask-type:luminance" maskUnits="userSpaceOnUse" x="123" y="153" width="9" height="13">
<path d="M126.091 153.725V162.408C126.091 162.408 131.835 164.805 131.333 165.401C131.333 165.401 124.094 165.401 124.094 164.801C124.094 164.202 124.343 162.107 124.343 162.107L123.168 154.201L126.091 153.721V153.725Z" fill="white"/>
</mask>
<g mask="url(#mask11_5019_182813)">
<path d="M123.845 162.409C123.845 162.409 124.841 162.111 125.095 162.706C125.344 163.306 126.594 161.81 126.594 161.81L133.085 164.504L130.839 167.496L121.602 165.401L123.848 162.409H123.845Z" fill="#6971BA"/>
</g>
<path d="M121.099 115.699L112.111 119.592C112.111 119.592 109.615 128.875 109.864 130.97C110.113 133.066 110.861 144.146 110.363 145.043C109.864 145.939 107.617 155.523 107.617 155.523C107.617 155.523 111.114 157.02 110.861 157.02C110.608 157.02 117.353 147.737 117.602 144.146C117.851 140.554 118.1 138.756 118.1 138.756C118.1 138.756 122.345 148.638 123.342 155.226L126.839 154.627C126.839 154.627 126.589 133.966 125.09 127.379C123.591 120.791 121.095 115.703 121.095 115.703L121.099 115.699Z" fill="#423392"/>
<mask id="mask12_5019_182813" style="mask-type:luminance" maskUnits="userSpaceOnUse" x="107" y="115" width="20" height="43">
<path d="M121.099 115.699L112.111 119.592C112.111 119.592 109.615 128.875 109.864 130.97C110.113 133.066 110.861 144.146 110.363 145.043C109.864 145.939 107.617 155.523 107.617 155.523C107.617 155.523 111.114 157.02 110.861 157.02C110.608 157.02 117.353 147.737 117.602 144.146C117.851 140.554 118.1 138.756 118.1 138.756C118.1 138.756 122.345 148.638 123.342 155.226L126.839 154.627C126.839 154.627 126.589 133.966 125.09 127.379C123.591 120.791 121.095 115.703 121.095 115.703L121.099 115.699Z" fill="white"/>
</mask>
<g mask="url(#mask12_5019_182813)">
<g style="mix-blend-mode:multiply" opacity="0.55">
<path d="M119.098 142.348L118.102 138.757L118.6 130.375C118.6 130.375 119.098 133.967 119.597 134.268C120.095 134.566 120.095 135.764 119.597 136.364C119.098 136.963 119.098 139.356 119.098 139.356C119.098 139.356 120.095 143.848 119.098 143.547C118.102 143.245 119.098 142.348 119.098 142.348Z" fill="#5283BC"/>
</g>
<g style="mix-blend-mode:multiply" opacity="0.16">
<path d="M124.029 120.494H123.966C123.772 120.494 123.582 120.287 123.59 120.045C123.598 119.803 123.756 119.597 123.966 119.597H124.029C124.227 119.597 124.413 119.803 124.405 120.045C124.397 120.287 124.239 120.494 124.029 120.494Z" fill="#5283BC"/>
</g>
<g style="mix-blend-mode:multiply" opacity="0.16">
<path d="M113.955 118.461C113.722 120.1 113.453 121.89 112.392 123.085C111.578 124.005 110.438 124.287 109.437 123.652C109.331 123.585 109.426 123.39 109.532 123.458C110.862 124.299 112.214 123.347 112.911 121.93C113.433 120.858 113.607 119.608 113.777 118.402C113.797 118.259 113.979 118.318 113.959 118.461H113.955Z" fill="#405DBB"/>
</g>
<g style="mix-blend-mode:multiply" opacity="0.16">
<path d="M123.29 119.565C120.517 119.454 118.74 116.89 117.182 114.433C117.111 114.318 117.273 114.207 117.344 114.318C118.859 116.707 120.576 119.231 123.29 119.339C123.408 119.343 123.412 119.569 123.29 119.565Z" fill="#405DBB"/>
</g>
<g style="mix-blend-mode:multiply" opacity="0.16">
<path d="M122.501 116.216C117.769 119.553 112.417 121.292 106.926 121.276C106.808 121.276 106.804 121.05 106.926 121.05C112.386 121.069 117.698 119.343 122.406 116.021C122.509 115.946 122.604 116.141 122.501 116.216Z" fill="#405DBB"/>
</g>
<g style="mix-blend-mode:multiply" opacity="0.16">
<path d="M118.019 118.798C117.955 118.334 117.848 117.885 117.702 117.453C117.659 117.318 117.837 117.262 117.884 117.393C118.03 117.83 118.137 118.278 118.201 118.739C118.22 118.882 118.038 118.941 118.019 118.798Z" fill="#405DBB"/>
</g>
<g style="mix-blend-mode:multiply" opacity="0.16">
<path d="M116.383 119.477C116.197 118.803 115.952 118.168 115.647 117.556C115.584 117.433 115.746 117.318 115.809 117.441C116.122 118.068 116.371 118.723 116.561 119.418C116.601 119.557 116.419 119.612 116.379 119.477H116.383Z" fill="#405DBB"/>
</g>
<g style="mix-blend-mode:multiply" opacity="0.16">
<path d="M114.127 120.613C113.475 124.216 113.111 127.879 113.083 131.566C113.071 133.364 113.134 135.165 113.277 136.955C113.415 138.721 113.676 140.499 113.55 142.281C113.34 145.249 111.908 148.035 110.67 150.543C109.301 153.313 107.743 155.929 106.03 158.401C105.955 158.512 105.82 158.353 105.899 158.242C107.652 155.714 109.238 153.036 110.622 150.198C112.185 146.999 113.585 143.856 113.352 140.043C113.15 136.725 112.822 133.483 112.921 130.145C113.016 126.911 113.372 123.708 113.945 120.549C113.969 120.406 114.151 120.466 114.127 120.609V120.613Z" fill="#405DBB"/>
</g>
<g style="mix-blend-mode:multiply" opacity="0.16">
<path d="M126.69 145.793C126.631 136.133 124.938 127.085 120.768 118.751C120.705 118.628 120.867 118.513 120.93 118.636C125.116 126.994 126.817 136.098 126.88 145.789C126.88 145.932 126.694 145.932 126.694 145.789L126.69 145.793Z" fill="#405DBB"/>
</g>
</g>
<path d="M122.848 155.523H127.342V153.726L122.848 154.325V155.523Z" fill="#D96985"/>
<path d="M107.047 155.246L110.932 157.952L111.683 156.401L107.545 154.21L107.047 155.246Z" fill="#D96985"/>
<path d="M114.523 100.27C114.523 100.27 113.115 99.5318 112.695 99.0794C112.28 98.6269 110.828 96.8213 111.089 95.7418C111.089 95.7418 112.952 96.4522 113.514 94.964C114.242 93.0273 110.725 88.5231 109.863 88.273C109.004 88.0191 107.09 86.8523 105.294 88.3088C103.498 89.7652 106.077 95.976 108.023 96.2736C108.023 96.2736 110.112 99.7342 109.388 100.853C109.388 100.853 112.359 102.119 113.479 101.294C114.598 100.464 114.523 100.27 114.523 100.27Z" fill="#E8AAAD"/>
<mask id="mask13_5019_182813" style="mask-type:luminance" maskUnits="userSpaceOnUse" x="104" y="87" width="11" height="15">
<path d="M114.523 100.27C114.523 100.27 113.115 99.5318 112.695 99.0794C112.28 98.6269 110.828 96.8213 111.089 95.7418C111.089 95.7418 112.952 96.4522 113.514 94.964C114.242 93.0273 110.725 88.5231 109.863 88.273C109.004 88.0191 107.09 86.8523 105.294 88.3088C103.498 89.7652 106.077 95.976 108.023 96.2736C108.023 96.2736 110.112 99.7342 109.388 100.853C109.388 100.853 112.359 102.119 113.479 101.294C114.598 100.464 114.523 100.27 114.523 100.27Z" fill="white"/>
</mask>
<g mask="url(#mask13_5019_182813)">
<g style="mix-blend-mode:multiply" opacity="0.29">
<path d="M111.503 96.1942L111.088 95.7418C111.088 95.7418 109.794 95.4719 109.375 95.0195C109.375 95.0195 110.407 96.3688 111.278 96.4046C112.148 96.4403 111.503 96.1942 111.503 96.1942Z" fill="#866E4F"/>
</g>
</g>
<path d="M110.174 91.6693C110.087 91.5701 109.965 91.5027 109.834 91.4749C109.7 91.4431 109.545 91.463 109.415 91.5423C109.288 91.6217 109.201 91.7408 109.15 91.8638C109.126 91.9273 109.11 91.9908 109.098 92.0543C109.094 92.1217 109.09 92.1852 109.098 92.2487C109.138 92.1972 109.17 92.1416 109.201 92.09L109.3 91.9432C109.371 91.8559 109.442 91.7765 109.526 91.7249C109.692 91.6177 109.921 91.6257 110.174 91.6654V91.6693Z" fill="#6C543B"/>
<path d="M111.869 90.8244C111.805 90.757 111.722 90.7054 111.627 90.6855C111.532 90.6617 111.422 90.6776 111.331 90.7331C111.243 90.7887 111.18 90.872 111.145 90.9633C111.129 91.007 111.117 91.0546 111.109 91.0982C111.109 91.1459 111.101 91.1895 111.109 91.2371C111.16 91.1578 111.204 91.0863 111.251 91.0189C111.303 90.9554 111.35 90.8998 111.414 90.8641C111.532 90.7887 111.694 90.7966 111.872 90.8244H111.869Z" fill="#6C543B"/>
<path d="M111.586 90.1096C111.472 89.9747 111.298 89.8874 111.116 89.8556C111.025 89.8397 110.926 89.8159 110.839 89.8477C110.752 89.8755 110.669 89.9271 110.609 90.0104L110.617 90.0302C110.716 90.058 110.799 90.058 110.878 90.062C110.957 90.062 111.029 90.0342 111.108 90.0263C111.262 90.0183 111.428 90.0461 111.575 90.1255L111.59 90.1096H111.586Z" fill="#354F5F"/>
<path d="M108.722 91.3043C108.722 91.1376 108.778 90.9749 108.853 90.8439C108.896 90.7765 108.956 90.7249 108.987 90.6574C109.023 90.586 109.058 90.5146 109.082 90.4114L109.066 90.3955C108.963 90.4074 108.88 90.459 108.813 90.5265C108.742 90.59 108.718 90.6892 108.69 90.7765C108.635 90.9551 108.631 91.1456 108.698 91.3122H108.718L108.722 91.3043Z" fill="#354F5F"/>
<path d="M112.332 93.9038L110.793 94.2808C110.793 94.2808 111.426 94.7412 111.861 94.761C112.296 94.7769 112.332 93.9078 112.332 93.9078V93.9038Z" fill="#5E81AA"/>
<path d="M111.984 119.561C111.984 119.561 113.906 115.315 114.29 114.545C114.674 113.775 107.367 104.512 107.367 103.354C107.367 102.195 108.522 97.5634 112.367 97.9523C116.212 98.3373 121.984 101.04 121.217 103.354C120.449 105.667 120.449 111.842 121.217 115.704C121.695 118.112 119.183 119.918 117.221 120.938C115.987 121.581 114.496 121.454 113.38 120.617L111.984 119.565V119.561Z" fill="#FF74B2"/>
<mask id="mask14_5019_182813" style="mask-type:luminance" maskUnits="userSpaceOnUse" x="107" y="97" width="15" height="25">
<path d="M111.984 119.561C111.984 119.561 113.906 115.315 114.29 114.545C114.674 113.775 107.367 104.512 107.367 103.354C107.367 102.195 108.522 97.5634 112.367 97.9523C116.212 98.3373 121.984 101.04 121.217 103.354C120.449 105.667 120.449 111.842 121.217 115.704C121.695 118.112 119.183 119.918 117.221 120.938C115.987 121.581 114.496 121.454 113.38 120.617L111.984 119.565V119.561Z" fill="white"/>
</mask>
<g mask="url(#mask14_5019_182813)">
<g style="mix-blend-mode:multiply" opacity="0.23">
<path d="M120.497 100.754C120.062 100.972 112.894 103.274 111.588 102.885C111.588 102.885 114.413 110.568 110.283 113.402C106.153 116.235 107.89 102.714 107.89 102.714L115.311 99.7339L120.501 100.75L120.497 100.754Z" fill="#99374F"/>
</g>
</g>
<path d="M132.757 82.8988C131.99 82.5139 133.141 85.9863 131.99 86.7562C130.835 87.5261 122.757 94.475 122.757 94.475C119.814 95.3719 117.246 96.376 115.122 97.3165C114.888 98.3245 114.877 99.9953 116.633 101.44C119.968 100.313 123.469 98.9436 123.912 98.7214C124.679 98.3364 134.3 87.5301 135.067 86.7562C135.835 85.9863 133.528 83.2838 132.761 82.8988H132.757Z" fill="#E8AAAD"/>
<path d="M115.122 97.3169C110.861 99.2059 108.408 100.833 108.408 100.833C107.139 102.563 108.523 102.964 110.829 102.964C111.81 102.964 114.172 102.27 116.629 101.44C114.872 99.9957 114.884 98.3249 115.118 97.3169H115.122Z" fill="#FF74B2"/>
<path d="M108.141 88.3001C108.141 88.3001 106.986 88.3001 106.986 89.4589C106.986 90.6177 113.909 103.738 110.064 109.139C106.218 114.54 97.7529 114.155 96.9855 110.298C96.2181 106.44 101.602 107.21 100.063 104.508C98.5243 101.805 97.3692 100.261 101.218 98.7175C105.063 97.1738 104.68 96.0149 103.141 93.7013C101.602 91.3876 102.757 86.3674 107.374 87.1413C107.374 87.1413 108.529 86.7563 109.68 86.7563C110.831 86.7563 111.1 89.3796 111.1 89.3796C111.1 89.3796 108.908 87.1413 108.141 88.2961V88.3001Z" fill="#1F3054"/>
<path d="M234.14 154.17C233.384 152.857 232.272 150.571 231.584 147.574C230.464 142.709 225.986 137.84 225.986 137.84C225.615 133.347 223 119.87 223 119.493C223 119.493 219.641 113.127 217.402 120.989C215.163 128.851 221.88 135.966 221.88 138.213C221.88 140.459 232.704 155.436 232.704 155.436L232.696 155.456C233.178 155.305 233.74 154.956 234.14 154.174V154.17Z" fill="#302564"/>
<mask id="mask15_5019_182813" style="mask-type:luminance" maskUnits="userSpaceOnUse" x="216" y="117" width="19" height="39">
<path d="M234.14 154.17C233.384 152.857 232.272 150.571 231.584 147.574C230.464 142.709 225.986 137.84 225.986 137.84C225.615 133.347 223 119.87 223 119.493C223 119.493 219.641 113.127 217.402 120.989C215.163 128.851 221.88 135.966 221.88 138.213C221.88 140.459 232.704 155.436 232.704 155.436L232.696 155.456C233.178 155.305 233.74 154.956 234.14 154.174V154.17Z" fill="white"/>
</mask>
<g mask="url(#mask15_5019_182813)">
<g style="mix-blend-mode:multiply" opacity="0.21">
<path d="M223.337 116.282C220.149 116.282 216.763 112.294 216.763 112.294C216.763 112.294 215.236 113.369 214.484 118.663C214.132 121.152 212.993 135.137 212.245 138.506C211.509 141.82 208.974 159.246 208.891 159.829C209.377 160.139 210.081 160.317 211.019 159.912C211.47 157.678 212.502 153.392 214.112 151.237C216.351 148.241 215.604 142.252 216.351 140.379C217.099 138.506 220.086 126.156 223.068 124.279C227.005 121.807 224.101 116.282 223.337 116.282Z" fill="#44627D"/>
</g>
</g>
<path d="M234.141 154.17C233.741 154.952 233.176 155.301 232.697 155.452L231.957 157.305C231.957 157.305 230.838 158.055 230.09 158.428C229.342 158.801 231.957 159.178 232.701 158.428C233.449 157.678 234.94 155.432 234.94 155.432C234.94 155.432 234.608 154.988 234.137 154.166L234.141 154.17Z" fill="#1B2B41"/>
<path d="M222.72 114.441C219.532 114.441 216.146 110.452 216.146 110.452C216.146 110.452 214.619 111.528 213.867 116.822C213.515 119.31 212.376 133.295 211.628 136.664C210.892 139.978 208.357 157.404 208.273 157.987C208.76 158.297 209.464 158.475 210.402 158.071C210.853 155.836 211.885 151.55 213.495 149.395C215.734 146.399 214.987 140.411 215.734 138.537C216.482 136.664 219.469 124.314 222.451 122.437C226.387 119.965 223.484 114.441 222.72 114.441Z" fill="#302564"/>
<path d="M208.276 157.987V158.003L205.29 158.753C203.798 159.876 210.14 159.503 210.14 159.503C210.14 159.503 210.227 158.944 210.405 158.071C209.467 158.475 208.763 158.301 208.276 157.987Z" fill="#1B2B41"/>
<path d="M202.899 103.241C202.899 103.241 211.076 101.793 215.597 100.785C215.597 100.785 218.596 97.2366 221.654 97.566C223.624 97.7803 226.804 99.4352 223.054 101.05C219.304 102.666 216.44 103.939 216.44 103.939L203.295 104.586C203.295 104.586 202.8 106.273 202.116 106.356C201.431 106.44 197.717 106.42 198.12 105.904C198.524 105.392 200.755 104.658 200.755 104.658C200.755 104.658 198.469 104.932 198.413 104.475C198.358 104.015 202.903 103.237 202.903 103.237" fill="#E9BE84"/>
<path d="M211.41 101.559C211.41 101.559 212.474 103.226 211.64 104.079C211.64 104.079 212.075 104.051 212.526 104.448C212.977 104.845 213.412 104.829 213.55 104.686C213.689 104.543 213.974 104.392 213.974 104.392C213.974 104.392 217.506 105.777 221.897 103.245C226.288 100.714 227.103 99.2967 226.482 98.2133C225.861 97.1299 225.647 95.475 222.487 96.1576C219.326 96.8402 215.963 99.7452 215.109 100.194C214.258 100.642 213.293 100.956 213.293 100.956C213.293 100.956 212.996 100.563 212.617 100.714C212.237 100.864 211.679 100.999 211.41 101.563V101.559Z" fill="#C74B65"/>
<path d="M221.458 98.8796C221.458 98.8796 223.195 97.9708 223.709 97.4152C224.224 96.8556 226.012 94.6372 225.687 93.3078C225.687 93.3078 223.393 94.1808 222.705 92.3514C221.807 89.9702 226.138 84.4222 227.198 84.1127C228.259 83.8031 230.612 82.3625 232.824 84.1563C235.039 85.9501 231.858 93.5975 229.461 93.9626C229.461 93.9626 226.89 98.2208 227.78 99.6019C227.78 99.6019 224.125 101.162 222.744 100.142C221.363 99.1217 221.458 98.8796 221.458 98.8796Z" fill="#D29271"/>
<mask id="mask16_5019_182813" style="mask-type:luminance" maskUnits="userSpaceOnUse" x="221" y="83" width="13" height="18">
<path d="M221.458 98.8796C221.458 98.8796 223.195 97.9708 223.709 97.4152C224.224 96.8556 226.012 94.6372 225.687 93.3078C225.687 93.3078 223.393 94.1808 222.705 92.3514C221.807 89.9702 226.138 84.4222 227.198 84.1127C228.259 83.8031 230.612 82.3625 232.824 84.1563C235.039 85.9501 231.858 93.5975 229.461 93.9626C229.461 93.9626 226.89 98.2208 227.78 99.6019C227.78 99.6019 224.125 101.162 222.744 100.142C221.363 99.1217 221.458 98.8796 221.458 98.8796Z" fill="white"/>
</mask>
<g mask="url(#mask16_5019_182813)">
<g style="mix-blend-mode:multiply" opacity="0.29">
<path d="M225.176 93.8592L225.691 93.2996C225.691 93.2996 227.285 92.9662 227.799 92.4106C227.799 92.4106 226.525 94.0735 225.457 94.1171C224.389 94.1608 225.18 93.8592 225.18 93.8592H225.176Z" fill="#866E4F"/>
</g>
</g>
<path d="M218.132 116.742C221.036 117.203 223.057 117.449 223.635 115.667C224.007 114.524 224.125 111.516 226.539 109.071C228.275 107.313 231.574 102.531 229.85 99.646C228.129 96.7608 224.438 98.249 223.635 98.2808C222.832 98.3125 224.351 96.1021 224.351 96.1021C220.371 97.0664 218.247 98.888 216.542 101.789C214.093 105.952 213.306 115.167 213.998 116.282L218.128 116.742H218.132Z" fill="#DC4267"/>
<mask id="mask17_5019_182813" style="mask-type:luminance" maskUnits="userSpaceOnUse" x="213" y="96" width="18" height="22">
<path d="M218.132 116.742C221.036 117.203 223.057 117.449 223.635 115.667C224.007 114.524 224.125 111.516 226.539 109.071C228.275 107.313 231.574 102.531 229.85 99.646C228.129 96.7608 224.438 98.249 223.635 98.2808C222.832 98.3125 224.351 96.1021 224.351 96.1021C220.371 97.0664 218.247 98.888 216.542 101.789C214.093 105.952 213.306 115.167 213.998 116.282L218.128 116.742H218.132Z" fill="white"/>
</mask>
<g mask="url(#mask17_5019_182813)">
<g style="mix-blend-mode:multiply" opacity="0.2">
<path d="M211.191 108.452C211.191 108.452 225.322 111.373 228.763 103.118L221.651 100.332C221.651 100.332 217.169 103.916 214.206 103.495C211.243 103.075 211.188 108.452 211.188 108.452H211.191Z" fill="#5B2A36"/>
</g>
</g>
<path d="M226.816 88.2883C226.923 88.1653 227.074 88.0859 227.24 88.0502C227.406 88.0105 227.596 88.0383 227.754 88.1336C227.908 88.2328 228.015 88.3756 228.078 88.5304C228.11 88.6058 228.126 88.6892 228.142 88.7646C228.146 88.8439 228.154 88.9273 228.142 89.0066C228.09 88.9392 228.055 88.8757 228.015 88.8122L227.892 88.6336C227.805 88.5225 227.718 88.4272 227.612 88.3637C227.406 88.2328 227.125 88.2447 226.812 88.2923L226.816 88.2883Z" fill="#6C543B"/>
<path d="M224.727 87.2482C224.802 87.1649 224.909 87.1014 225.027 87.0776C225.146 87.0498 225.28 87.0696 225.391 87.1371C225.502 87.2085 225.577 87.3117 225.621 87.4189C225.64 87.4744 225.652 87.53 225.664 87.5856C225.664 87.6451 225.672 87.7006 225.664 87.7562C225.601 87.661 225.545 87.5697 225.486 87.4903C225.423 87.4109 225.364 87.3435 225.288 87.2998C225.142 87.2046 224.944 87.2125 224.723 87.2482H224.727Z" fill="#6C543B"/>
<path d="M225.078 86.367C225.221 86.2003 225.43 86.0932 225.656 86.0535C225.766 86.0376 225.889 86.0058 226 86.0455C226.111 86.0812 226.209 86.1447 226.285 86.2479L226.277 86.2717C226.154 86.3075 226.055 86.3075 225.956 86.3075C225.861 86.3075 225.77 86.2717 225.675 86.2638C225.486 86.2559 225.28 86.2876 225.098 86.3829L225.078 86.363V86.367Z" fill="#6971BA"/>
<path d="M228.603 87.8393C228.603 87.633 228.536 87.4346 228.445 87.2718C228.393 87.1885 228.318 87.125 228.279 87.0417C228.235 86.9544 228.192 86.8671 228.164 86.7401L228.18 86.7202C228.306 86.7361 228.409 86.7996 228.488 86.879C228.575 86.9583 228.603 87.0814 228.639 87.1885C228.706 87.4068 228.71 87.6449 228.627 87.8473L228.599 87.8393H228.603Z" fill="#6971BA"/>
<path d="M225.484 85.7045C225.484 85.7045 223.755 84.6131 224.364 83.5377C224.978 82.4622 226.659 83.5377 226.659 83.5377C226.659 83.5377 224.364 81.3907 225.741 80.6248C227.118 79.8588 229.871 82.0058 229.871 82.0058C229.871 82.0058 229.412 80.474 230.484 80.0136C231.556 79.5533 234.764 83.0813 234.001 85.2283C234.001 85.2283 237.363 86.4545 234.306 90.1373C231.248 93.8201 229.412 93.9709 229.412 93.9709C229.412 93.9709 228.985 92.6851 229.717 91.2088C229.717 91.2088 230.021 91.824 230.634 91.5144C231.248 91.2088 232.011 90.2881 231.857 89.8278C231.703 89.3674 229.871 89.9826 229.871 89.9826C229.871 89.9826 229.108 88.2959 229.871 87.53C230.634 86.7641 229.871 86.4545 229.871 86.4545C229.871 86.4545 226.975 86.5577 226.283 84.9703C226.283 84.9703 225.994 85.1092 225.484 85.7045Z" fill="#6971BA"/>
<path d="M229.641 89.1885C229.641 89.1885 228.185 90.9029 226.808 90.7482C225.432 90.5934 224.704 89.1568 223.082 89.5695C223.082 89.5695 221.765 91.0537 222.069 92.284C222.374 93.5142 227.113 95.3517 229.866 89.8314C229.866 89.8314 230.028 89.0139 229.641 89.1925V89.1885Z" fill="#6971BA"/>
<path d="M224.16 91.0425L226.055 91.5028C226.055 91.5028 225.276 92.0703 224.738 92.0941C224.204 92.114 224.16 91.0425 224.16 91.0425Z" fill="#5E81AA"/>
<path d="M199.549 73.0052L205.534 81.097C206.266 82.0852 207.548 82.49 208.711 82.0971L218.233 78.8866C220.99 77.9579 223.324 81.1089 221.639 83.4901L215.816 91.701C215.104 92.705 215.119 94.0503 215.847 95.0385L221.833 103.13C223.565 105.476 221.298 108.674 218.521 107.801L208.936 104.785C207.765 104.416 206.492 104.845 205.78 105.849L199.957 114.06C198.271 116.437 194.533 115.262 194.505 112.345L194.403 102.269C194.391 101.039 193.588 99.9555 192.421 99.5865L182.836 96.5704C180.059 95.6973 180.019 91.7684 182.776 90.8398L192.298 87.6293C193.461 87.2364 194.24 86.1371 194.229 84.9068L194.126 74.8307C194.098 71.9099 197.809 70.6598 199.541 73.0052H199.549Z" fill="#D3B25A"/>
<mask id="mask18_5019_182813" style="mask-type:luminance" maskUnits="userSpaceOnUse" x="180" y="71" width="43" height="45">
<path d="M199.549 73.0052L205.534 81.097C206.266 82.0852 207.548 82.49 208.711 82.0971L218.233 78.8866C220.99 77.9579 223.324 81.1089 221.639 83.4901L215.816 91.701C215.104 92.705 215.119 94.0503 215.847 95.0385L221.833 103.13C223.565 105.476 221.298 108.674 218.521 107.801L208.936 104.785C207.765 104.416 206.492 104.845 205.78 105.849L199.957 114.06C198.271 116.437 194.533 115.262 194.505 112.345L194.403 102.269C194.391 101.039 193.588 99.9555 192.421 99.5865L182.836 96.5704C180.059 95.6973 180.019 91.7684 182.776 90.8398L192.298 87.6293C193.461 87.2364 194.24 86.1371 194.229 84.9068L194.126 74.8307C194.098 71.9099 197.809 70.6598 199.541 73.0052H199.549Z" fill="white"/>
</mask>
<g mask="url(#mask18_5019_182813)">
<path d="M198.655 72.6243L204.64 80.7162C205.372 81.7043 206.653 82.1091 207.816 81.7162L217.338 78.5057C220.095 77.5771 222.429 80.7281 220.744 83.1092L214.921 91.3201C214.209 92.3242 214.225 93.6695 214.953 94.6576L220.938 102.749C222.671 105.095 220.404 108.294 217.627 107.42L208.042 104.404C206.871 104.035 205.597 104.464 204.885 105.468L199.062 113.679C197.377 116.056 193.639 114.881 193.611 111.964L193.508 101.888C193.496 100.658 192.693 99.5747 191.526 99.2056L181.941 96.1895C179.164 95.3164 179.125 91.3876 181.882 90.4589L191.404 87.2484C192.567 86.8555 193.346 85.7562 193.334 84.526L193.231 74.4499C193.203 71.529 196.914 70.2789 198.647 72.6243H198.655Z" fill="#ECC649"/>
</g>
<path opacity="0.53" d="M190.406 90.3316C191.312 89.8316 192.238 89.3911 193.175 88.9704C193.294 88.9188 193.413 88.8632 193.516 88.8116L193.678 88.7323L193.832 88.641C194.042 88.5219 194.232 88.3791 194.414 88.2243C194.777 87.9187 195.086 87.5457 195.319 87.133C195.561 86.7242 195.735 86.2758 195.814 85.8035C195.857 85.5694 195.889 85.3312 195.889 85.0931V84.9145V84.7201V84.3351C195.869 83.3073 195.877 82.2755 195.948 81.2437C196.146 82.2596 196.281 83.2835 196.391 84.3034C196.419 84.5653 196.455 84.8034 196.463 85.0852C196.478 85.359 196.463 85.6329 196.427 85.9067C196.352 86.4543 196.158 86.9822 195.885 87.4623C195.6 87.9346 195.24 88.3672 194.805 88.7045C194.584 88.8672 194.354 89.022 194.109 89.141L193.927 89.2323L193.737 89.3077C193.607 89.3593 193.488 89.399 193.365 89.4387C192.392 89.7681 191.415 90.0776 190.41 90.3237L190.406 90.3316Z" fill="#164169"/>
<path opacity="0.53" d="M185.245 91.2959C184.759 91.5142 184.26 91.7126 183.758 91.9031C183.695 91.9269 183.631 91.9507 183.576 91.9745L183.489 92.0102L183.406 92.0499C183.295 92.1015 183.192 92.161 183.097 92.2245C182.903 92.3476 182.741 92.4944 182.619 92.6492C182.492 92.8039 182.405 92.9667 182.365 93.1333C182.346 93.2167 182.33 93.3 182.334 93.3834V93.4469L182.342 93.5143L182.35 93.6492C182.369 94.0064 182.377 94.3636 182.35 94.7247C182.231 94.3834 182.148 94.0342 182.073 93.685C182.057 93.5937 182.033 93.5143 182.025 93.4191C182.013 93.3238 182.021 93.2286 182.037 93.1333C182.073 92.9389 182.172 92.7484 182.314 92.5658C182.464 92.3873 182.654 92.2206 182.888 92.0817C183.006 92.0142 183.129 91.9507 183.259 91.8952L183.358 91.8555L183.461 91.8197C183.532 91.7959 183.596 91.7761 183.663 91.7563C184.185 91.5935 184.715 91.4388 185.257 91.3038L185.245 91.2959Z" fill="#164169"/>
<path opacity="0.53" d="M195.705 109.706C195.65 110.238 195.575 110.77 195.488 111.301C195.476 111.369 195.464 111.436 195.46 111.496L195.448 111.587L195.44 111.678C195.429 111.801 195.429 111.92 195.436 112.036C195.444 112.266 195.492 112.48 195.563 112.663C195.63 112.849 195.729 113.008 195.856 113.127C195.919 113.186 195.982 113.242 196.058 113.282L196.113 113.313L196.172 113.341L196.291 113.401C196.607 113.56 196.92 113.734 197.221 113.94C196.865 113.873 196.52 113.774 196.184 113.659C196.097 113.631 196.018 113.607 195.931 113.567C195.844 113.532 195.765 113.476 195.69 113.417C195.539 113.29 195.425 113.107 195.338 112.893C195.258 112.675 195.207 112.425 195.207 112.155C195.207 112.02 195.215 111.881 195.231 111.738L195.243 111.631L195.262 111.524C195.274 111.452 195.29 111.385 195.306 111.317C195.429 110.782 195.555 110.246 195.709 109.706H195.705Z" fill="#164169"/>
<path d="M202.76 105.293C202.76 105.293 212.365 104.372 217.693 103.622C217.693 103.622 224.177 98.2569 227.686 98.9236C229.948 99.3522 230.799 103.098 226.305 104.622C221.811 106.146 218.377 107.357 218.377 107.357L203.092 106.892C203.092 106.892 202.364 108.801 201.561 108.833C200.758 108.865 196.458 108.5 196.972 107.94C197.487 107.381 200.137 106.738 200.137 106.738C200.137 106.738 197.463 106.845 197.443 106.309C197.423 105.773 202.76 105.289 202.76 105.289" fill="#D29271"/>
<path d="M214.312 104.011C214.312 104.011 215.321 106.297 214.439 107.242C214.439 107.242 214.898 107.214 215.373 107.655C215.847 108.095 216.306 108.079 216.453 107.917C216.599 107.758 216.9 107.591 216.9 107.591C216.9 107.591 220.634 109.131 225.266 106.337C229.899 103.543 230.753 101.972 230.096 100.773C229.436 99.5707 229.21 97.7372 225.875 98.4873C222.541 99.2334 218.992 102.444 218.094 102.944C217.196 103.44 216.176 103.781 216.176 103.781C216.176 103.781 215.863 103.349 215.464 103.511C215.064 103.678 214.593 103.388 214.312 104.015V104.011Z" fill="#DC4267"/>
</g>
<path d="M103.916 193.316H106.156V204.5H103.916L98.844 196.836V204.5H96.604V193.316H98.844L103.916 200.996V193.316ZM116.93 200.068C116.93 202.852 114.882 204.644 112.306 204.644C109.746 204.644 107.81 202.852 107.81 200.068C107.81 197.268 109.81 195.492 112.37 195.492C114.93 195.492 116.93 197.268 116.93 200.068ZM110.082 200.068C110.082 201.828 111.106 202.692 112.306 202.692C113.49 202.692 114.626 201.828 114.626 200.068C114.626 198.292 113.522 197.444 112.338 197.444C111.154 197.444 110.082 198.292 110.082 200.068ZM122.385 204.5V193.332H129.281V195.14H124.625V198.004H128.193V199.78H124.625V204.5H122.385ZM130.294 200.036C130.294 197.268 132.086 195.492 134.342 195.492C135.766 195.492 136.742 196.164 137.27 196.9V195.636H139.526V204.5H137.27V203.204C136.742 203.972 135.734 204.644 134.326 204.644C132.086 204.644 130.294 202.804 130.294 200.036ZM137.27 200.068C137.27 198.388 136.15 197.46 134.918 197.46C133.718 197.46 132.582 198.356 132.582 200.036C132.582 201.716 133.718 202.676 134.918 202.676C136.15 202.676 137.27 201.748 137.27 200.068ZM140.769 195.636H143.169L145.409 202.436L147.649 195.636H150.033L146.753 204.5H144.033L140.769 195.636ZM159.852 200.068C159.852 202.852 157.804 204.644 155.228 204.644C152.668 204.644 150.732 202.852 150.732 200.068C150.732 197.268 152.732 195.492 155.292 195.492C157.852 195.492 159.852 197.268 159.852 200.068ZM153.004 200.068C153.004 201.828 154.028 202.692 155.228 202.692C156.412 202.692 157.548 201.828 157.548 200.068C157.548 198.292 156.444 197.444 155.26 197.444C154.076 197.444 153.004 198.292 153.004 200.068ZM163.735 200.084V204.5H161.495V195.636H163.735V197.012C164.295 196.1 165.223 195.508 166.455 195.508V197.86H165.863C164.535 197.86 163.735 198.372 163.735 200.084ZM167.963 204.5V195.636H170.203V204.5H167.963ZM169.099 194.58C168.299 194.58 167.723 194.004 167.723 193.268C167.723 192.532 168.299 191.956 169.099 191.956C169.883 191.956 170.475 192.532 170.475 193.268C170.475 194.004 169.883 194.58 169.099 194.58ZM172.769 201.748V197.476H171.713V195.636H172.769V193.444H175.025V195.636H177.009V197.476H175.025V201.764C175.025 202.356 175.265 202.612 175.969 202.612H177.009V204.5H175.601C173.905 204.5 172.769 203.78 172.769 201.748ZM182.428 197.332C181.356 197.332 180.508 198.02 180.332 199.236H184.54C184.508 198.068 183.58 197.332 182.428 197.332ZM186.636 201.716C186.156 203.348 184.684 204.644 182.492 204.644C179.916 204.644 178.044 202.852 178.044 200.068C178.044 197.268 179.868 195.492 182.492 195.492C185.052 195.492 186.86 197.236 186.86 199.876C186.86 200.164 186.844 200.452 186.796 200.74H180.316C180.428 202.052 181.324 202.788 182.444 202.788C183.404 202.788 183.932 202.308 184.22 201.716H186.636ZM195.375 201.972C195.375 203.492 194.047 204.644 191.887 204.644C189.663 204.644 188.111 203.348 188.015 201.7H190.271C190.351 202.372 190.975 202.884 191.871 202.884C192.751 202.884 193.231 202.484 193.231 201.972C193.231 200.388 188.223 201.396 188.223 198.148C188.223 196.676 189.535 195.492 191.727 195.492C193.871 195.492 195.167 196.66 195.295 198.42H193.151C193.087 197.732 192.543 197.268 191.663 197.268C190.831 197.268 190.399 197.604 190.399 198.116C190.399 199.732 195.311 198.724 195.375 201.972ZM203.89 200.612L200.098 193.332H202.626L205.026 198.436L207.41 193.332H209.906L206.13 200.612V204.5H203.89V200.612ZM215.006 197.332C213.934 197.332 213.086 198.02 212.91 199.236H217.118C217.086 198.068 216.158 197.332 215.006 197.332ZM219.214 201.716C218.734 203.348 217.262 204.644 215.07 204.644C212.494 204.644 210.622 202.852 210.622 200.068C210.622 197.268 212.446 195.492 215.07 195.492C217.63 195.492 219.438 197.236 219.438 199.876C219.438 200.164 219.422 200.452 219.374 200.74H212.894C213.006 202.052 213.902 202.788 215.022 202.788C215.982 202.788 216.51 202.308 216.798 201.716H219.214ZM221.425 201.748V197.476H220.369V195.636H221.425V193.444H223.681V195.636H225.665V197.476H223.681V201.764C223.681 202.356 223.921 202.612 224.625 202.612H225.665V204.5H224.257C222.561 204.5 221.425 203.78 221.425 201.748ZM228.028 200.868L227.756 193.14H230.172L229.916 200.868H228.028ZM230.38 203.3C230.38 204.036 229.804 204.612 229.02 204.612C228.204 204.612 227.628 204.036 227.628 203.3C227.628 202.564 228.204 201.988 229.02 201.988C229.804 201.988 230.38 202.564 230.38 203.3Z" fill="#0996FF"/>
<path d="M75.6323 226.614C75.6323 223.688 77.7743 221.616 80.5043 221.616C82.6183 221.616 84.2983 222.68 85.0263 224.57H83.5003C82.9683 223.394 81.9323 222.736 80.5043 222.736C78.4603 222.736 76.9343 224.22 76.9343 226.614C76.9343 228.994 78.4603 230.478 80.5043 230.478C81.9323 230.478 82.9683 229.82 83.5003 228.658H85.0263C84.2983 230.534 82.6183 231.584 80.5043 231.584C77.7743 231.584 75.6323 229.54 75.6323 226.614ZM86.9227 231.5V221.14H88.1967V231.5H86.9227ZM90.368 231.5V223.828H91.642V231.5H90.368ZM91.026 222.582C90.536 222.582 90.158 222.204 90.158 221.714C90.158 221.224 90.536 220.846 91.026 220.846C91.488 220.846 91.866 221.224 91.866 221.714C91.866 222.204 91.488 222.582 91.026 222.582ZM93.3374 227.65C93.3374 225.242 94.8914 223.702 97.0754 223.702C98.9794 223.702 100.225 224.682 100.617 226.292H99.2454C98.9794 225.368 98.2094 224.78 97.0754 224.78C95.6754 224.78 94.6394 225.774 94.6394 227.65C94.6394 229.554 95.6754 230.548 97.0754 230.548C98.2094 230.548 98.9654 230.002 99.2454 229.036H100.617C100.225 230.562 98.9794 231.626 97.0754 231.626C94.8914 231.626 93.3374 230.086 93.3374 227.65ZM102.317 231.5V221.14H103.591V227.23L106.545 223.828H108.323L104.711 227.65L108.337 231.5H106.601L103.591 228.112V231.5H102.317ZM113.535 229.4V224.878H112.541V223.828H113.535V221.896H114.809V223.828H116.811V224.878H114.809V229.4C114.809 230.156 115.089 230.422 115.873 230.422H116.811V231.5H115.663C114.305 231.5 113.535 230.94 113.535 229.4ZM118.354 231.5V221.14H119.628V224.934C120.132 224.122 121.084 223.688 122.162 223.688C123.87 223.688 125.228 224.78 125.228 226.978V231.5H123.968V227.16C123.968 225.592 123.114 224.794 121.826 224.794C120.524 224.794 119.628 225.606 119.628 227.258V231.5H118.354ZM130.571 224.78C129.325 224.78 128.289 225.606 128.149 227.104H132.993C133.007 225.606 131.887 224.78 130.571 224.78ZM134.155 229.134C133.763 230.534 132.531 231.626 130.627 231.626C128.443 231.626 126.833 230.086 126.833 227.65C126.833 225.228 128.387 223.702 130.627 223.702C132.853 223.702 134.309 225.27 134.309 227.37C134.309 227.65 134.295 227.874 134.267 228.14H128.135C128.233 229.694 129.325 230.548 130.627 230.548C131.775 230.548 132.503 229.96 132.783 229.134H134.155ZM145.24 229.414C145.24 230.674 144.134 231.626 142.44 231.626C140.648 231.626 139.388 230.646 139.304 229.246H140.62C140.69 229.988 141.348 230.548 142.426 230.548C143.434 230.548 143.994 230.044 143.994 229.414C143.994 227.706 139.458 228.7 139.458 225.844C139.458 224.668 140.564 223.702 142.272 223.702C143.966 223.702 145.086 224.612 145.17 226.11H143.896C143.84 225.34 143.252 224.78 142.23 224.78C141.292 224.78 140.732 225.228 140.732 225.844C140.732 227.664 145.184 226.67 145.24 229.414ZM147.318 229.4V224.878H146.324V223.828H147.318V221.896H148.592V223.828H150.594V224.878H148.592V229.4C148.592 230.156 148.872 230.422 149.656 230.422H150.594V231.5H149.446C148.088 231.5 147.318 230.94 147.318 229.4ZM151.662 227.636C151.662 225.242 153.244 223.702 155.302 223.702C156.73 223.702 157.71 224.43 158.158 225.228V223.828H159.446V231.5H158.158V230.072C157.696 230.898 156.702 231.626 155.288 231.626C153.244 231.626 151.662 230.016 151.662 227.636ZM158.158 227.65C158.158 225.872 156.954 224.808 155.554 224.808C154.154 224.808 152.964 225.83 152.964 227.636C152.964 229.442 154.154 230.506 155.554 230.506C156.954 230.506 158.158 229.456 158.158 227.65ZM162.873 227.328V231.5H161.599V223.828H162.873V225.074C163.307 224.22 164.133 223.688 165.351 223.688V225.004H165.015C163.797 225.004 162.873 225.55 162.873 227.328ZM170.554 231.5V223.828H171.828V231.5H170.554ZM171.212 222.582C170.722 222.582 170.344 222.204 170.344 221.714C170.344 221.224 170.722 220.846 171.212 220.846C171.674 220.846 172.052 221.224 172.052 221.714C172.052 222.204 171.674 222.582 171.212 222.582ZM173.523 227.65C173.523 225.242 175.077 223.702 177.261 223.702C179.165 223.702 180.411 224.682 180.803 226.292H179.431C179.165 225.368 178.395 224.78 177.261 224.78C175.861 224.78 174.825 225.774 174.825 227.65C174.825 229.554 175.861 230.548 177.261 230.548C178.395 230.548 179.151 230.002 179.431 229.036H180.803C180.411 230.562 179.165 231.626 177.261 231.626C175.077 231.626 173.523 230.086 173.523 227.65ZM189.783 227.65C189.783 230.086 188.033 231.626 185.849 231.626C183.679 231.626 182.027 230.086 182.027 227.65C182.027 225.228 183.735 223.702 185.905 223.702C188.089 223.702 189.783 225.228 189.783 227.65ZM183.329 227.65C183.329 229.596 184.519 230.506 185.849 230.506C187.179 230.506 188.481 229.596 188.481 227.65C188.481 225.718 187.207 224.808 185.891 224.808C184.547 224.808 183.329 225.718 183.329 227.65ZM197.072 231.5V227.16C197.072 225.592 196.218 224.794 194.93 224.794C193.628 224.794 192.732 225.606 192.732 227.258V231.5H191.458V223.828H192.732V224.92C193.236 224.122 194.16 223.688 195.196 223.688C196.974 223.688 198.332 224.78 198.332 226.978V231.5H197.072ZM204.425 229.4V224.878H203.431V223.828H204.425V221.896H205.699V223.828H207.701V224.878H205.699V229.4C205.699 230.156 205.979 230.422 206.763 230.422H207.701V231.5H206.553C205.195 231.5 204.425 230.94 204.425 229.4ZM216.525 227.65C216.525 230.086 214.775 231.626 212.591 231.626C210.421 231.626 208.769 230.086 208.769 227.65C208.769 225.228 210.477 223.702 212.647 223.702C214.831 223.702 216.525 225.228 216.525 227.65ZM210.071 227.65C210.071 229.596 211.261 230.506 212.591 230.506C213.921 230.506 215.223 229.596 215.223 227.65C215.223 225.718 213.949 224.808 212.633 224.808C211.289 224.808 210.071 225.718 210.071 227.65ZM221.456 227.636C221.456 225.242 223.038 223.702 225.096 223.702C226.524 223.702 227.504 224.43 227.952 225.228V223.828H229.24V231.5H227.952V230.072C227.49 230.898 226.496 231.626 225.082 231.626C223.038 231.626 221.456 230.016 221.456 227.636ZM227.952 227.65C227.952 225.872 226.748 224.808 225.348 224.808C223.948 224.808 222.758 225.83 222.758 227.636C222.758 229.442 223.948 230.506 225.348 230.506C226.748 230.506 227.952 229.456 227.952 227.65ZM230.917 227.636C230.917 225.242 232.499 223.702 234.571 223.702C235.775 223.702 236.881 224.318 237.413 225.2V221.14H238.701V231.5H237.413V230.058C236.951 230.912 235.957 231.626 234.557 231.626C232.499 231.626 230.917 230.016 230.917 227.636ZM237.413 227.65C237.413 225.872 236.209 224.808 234.809 224.808C233.409 224.808 232.219 225.83 232.219 227.636C232.219 229.442 233.409 230.506 234.809 230.506C236.209 230.506 237.413 229.456 237.413 227.65ZM240.378 227.636C240.378 225.242 241.96 223.702 244.032 223.702C245.236 223.702 246.342 224.318 246.874 225.2V221.14H248.162V231.5H246.874V230.058C246.412 230.912 245.418 231.626 244.018 231.626C241.96 231.626 240.378 230.016 240.378 227.636ZM246.874 227.65C246.874 225.872 245.67 224.808 244.27 224.808C242.87 224.808 241.68 225.83 241.68 227.636C241.68 229.442 242.87 230.506 244.27 230.506C245.67 230.506 246.874 229.456 246.874 227.65ZM69.6372 248.636C69.6372 246.242 71.2192 244.702 73.2772 244.702C74.7052 244.702 75.6852 245.43 76.1332 246.228V244.828H77.4212V252.5H76.1332V251.072C75.6712 251.898 74.6772 252.626 73.2632 252.626C71.2192 252.626 69.6372 251.016 69.6372 248.636ZM76.1332 248.65C76.1332 246.872 74.9292 245.808 73.5292 245.808C72.1292 245.808 70.9392 246.83 70.9392 248.636C70.9392 250.442 72.1292 251.506 73.5292 251.506C74.9292 251.506 76.1332 250.456 76.1332 248.65ZM82.8305 247.614C82.8305 244.688 84.9725 242.616 87.7025 242.616C89.8165 242.616 91.4965 243.68 92.2245 245.57H90.6985C90.1665 244.394 89.1305 243.736 87.7025 243.736C85.6585 243.736 84.1325 245.22 84.1325 247.614C84.1325 249.994 85.6585 251.478 87.7025 251.478C89.1305 251.478 90.1665 250.82 90.6985 249.658H92.2245C91.4965 251.534 89.8165 252.584 87.7025 252.584C84.9725 252.584 82.8305 250.54 82.8305 247.614ZM101.401 248.65C101.401 251.086 99.651 252.626 97.467 252.626C95.297 252.626 93.645 251.086 93.645 248.65C93.645 246.228 95.353 244.702 97.523 244.702C99.707 244.702 101.401 246.228 101.401 248.65ZM94.947 248.65C94.947 250.596 96.137 251.506 97.467 251.506C98.797 251.506 100.099 250.596 100.099 248.65C100.099 246.718 98.825 245.808 97.509 245.808C96.165 245.808 94.947 246.718 94.947 248.65ZM108.69 252.5V248.16C108.69 246.592 107.836 245.794 106.548 245.794C105.246 245.794 104.35 246.606 104.35 248.258V252.5H103.076V244.828H104.35V245.92C104.854 245.122 105.778 244.688 106.814 244.688C108.592 244.688 109.95 245.78 109.95 247.978V252.5H108.69ZM112.311 250.4V245.878H111.317V244.828H112.311V242.896H113.585V244.828H115.587V245.878H113.585V250.4C113.585 251.156 113.865 251.422 114.649 251.422H115.587V252.5H114.439C113.081 252.5 112.311 251.94 112.311 250.4ZM116.655 248.636C116.655 246.242 118.237 244.702 120.295 244.702C121.723 244.702 122.703 245.43 123.151 246.228V244.828H124.439V252.5H123.151V251.072C122.689 251.898 121.695 252.626 120.281 252.626C118.237 252.626 116.655 251.016 116.655 248.636ZM123.151 248.65C123.151 246.872 121.947 245.808 120.547 245.808C119.147 245.808 117.957 246.83 117.957 248.636C117.957 250.442 119.147 251.506 120.547 251.506C121.947 251.506 123.151 250.456 123.151 248.65ZM126.116 248.65C126.116 246.242 127.67 244.702 129.854 244.702C131.758 244.702 133.004 245.682 133.396 247.292H132.024C131.758 246.368 130.988 245.78 129.854 245.78C128.454 245.78 127.418 246.774 127.418 248.65C127.418 250.554 128.454 251.548 129.854 251.548C130.988 251.548 131.744 251.002 132.024 250.036H133.396C133.004 251.562 131.758 252.626 129.854 252.626C127.67 252.626 126.116 251.086 126.116 248.65ZM135.376 250.4V245.878H134.382V244.828H135.376V242.896H136.65V244.828H138.652V245.878H136.65V250.4C136.65 251.156 136.93 251.422 137.714 251.422H138.652V252.5H137.504C136.146 252.5 135.376 251.94 135.376 250.4ZM144.208 250.4V245.878H143.214V244.828H144.208V242.896H145.482V244.828H147.484V245.878H145.482V250.4C145.482 251.156 145.762 251.422 146.546 251.422H147.484V252.5H146.336C144.978 252.5 144.208 251.94 144.208 250.4ZM156.307 248.65C156.307 251.086 154.557 252.626 152.373 252.626C150.203 252.626 148.551 251.086 148.551 248.65C148.551 246.228 150.259 244.702 152.429 244.702C154.613 244.702 156.307 246.228 156.307 248.65ZM149.853 248.65C149.853 250.596 151.043 251.506 152.373 251.506C153.703 251.506 155.005 250.596 155.005 248.65C155.005 246.718 153.731 245.808 152.415 245.808C151.071 245.808 149.853 246.718 149.853 248.65ZM164.627 251.044L167.007 244.828H168.323L163.703 256.112H162.387L163.899 252.416L160.805 244.828H162.219L164.627 251.044ZM176.883 248.65C176.883 251.086 175.133 252.626 172.949 252.626C170.779 252.626 169.127 251.086 169.127 248.65C169.127 246.228 170.835 244.702 173.005 244.702C175.189 244.702 176.883 246.228 176.883 248.65ZM170.429 248.65C170.429 250.596 171.619 251.506 172.949 251.506C174.279 251.506 175.581 250.596 175.581 248.65C175.581 246.718 174.307 245.808 172.991 245.808C171.647 245.808 170.429 246.718 170.429 248.65ZM185.362 244.828V252.5H184.088V251.366C183.598 252.164 182.66 252.612 181.638 252.612C179.874 252.612 178.488 251.52 178.488 249.322V244.828H179.748V249.154C179.748 250.708 180.602 251.506 181.89 251.506C183.206 251.506 184.088 250.694 184.088 249.042V244.828H185.362ZM188.788 248.328V252.5H187.514V244.828H188.788V246.074C189.222 245.22 190.048 244.688 191.266 244.688V246.004H190.93C189.712 246.004 188.788 246.55 188.788 248.328ZM196.707 252.5V245.878H195.713V244.828H196.707V244.282C196.707 242.574 197.547 241.804 199.507 241.804V242.868C198.359 242.868 197.981 243.288 197.981 244.282V244.828H199.591V245.878H197.981V252.5H196.707ZM200.6 248.636C200.6 246.242 202.182 244.702 204.24 244.702C205.668 244.702 206.648 245.43 207.096 246.228V244.828H208.384V252.5H207.096V251.072C206.634 251.898 205.64 252.626 204.226 252.626C202.182 252.626 200.6 251.016 200.6 248.636ZM207.096 248.65C207.096 246.872 205.892 245.808 204.492 245.808C203.092 245.808 201.902 246.83 201.902 248.636C201.902 250.442 203.092 251.506 204.492 251.506C205.892 251.506 207.096 250.456 207.096 248.65ZM209.627 244.828H210.999L213.393 251.324L215.773 244.828H217.131L214.121 252.5H212.637L209.627 244.828ZM225.665 248.65C225.665 251.086 223.915 252.626 221.731 252.626C219.561 252.626 217.909 251.086 217.909 248.65C217.909 246.228 219.617 244.702 221.787 244.702C223.971 244.702 225.665 246.228 225.665 248.65ZM219.211 248.65C219.211 250.596 220.401 251.506 221.731 251.506C223.061 251.506 224.363 250.596 224.363 248.65C224.363 246.718 223.089 245.808 221.773 245.808C220.429 245.808 219.211 246.718 219.211 248.65ZM228.614 248.328V252.5H227.34V244.828H228.614V246.074C229.048 245.22 229.874 244.688 231.092 244.688V246.004H230.756C229.538 246.004 228.614 246.55 228.614 248.328ZM232.562 252.5V244.828H233.836V252.5H232.562ZM233.22 243.582C232.73 243.582 232.352 243.204 232.352 242.714C232.352 242.224 232.73 241.846 233.22 241.846C233.682 241.846 234.06 242.224 234.06 242.714C234.06 243.204 233.682 243.582 233.22 243.582ZM236.288 250.4V245.878H235.294V244.828H236.288V242.896H237.562V244.828H239.564V245.878H237.562V250.4C237.562 251.156 237.842 251.422 238.626 251.422H239.564V252.5H238.416C237.058 252.5 236.288 251.94 236.288 250.4ZM244.369 245.78C243.123 245.78 242.087 246.606 241.947 248.104H246.791C246.805 246.606 245.685 245.78 244.369 245.78ZM247.953 250.134C247.561 251.534 246.329 252.626 244.425 252.626C242.241 252.626 240.631 251.086 240.631 248.65C240.631 246.228 242.185 244.702 244.425 244.702C246.651 244.702 248.107 246.27 248.107 248.37C248.107 248.65 248.093 248.874 248.065 249.14H241.933C242.031 250.694 243.123 251.548 244.425 251.548C245.573 251.548 246.301 250.96 246.581 250.134H247.953ZM255.305 250.414C255.305 251.674 254.199 252.626 252.505 252.626C250.713 252.626 249.453 251.646 249.369 250.246H250.685C250.755 250.988 251.413 251.548 252.491 251.548C253.499 251.548 254.059 251.044 254.059 250.414C254.059 248.706 249.523 249.7 249.523 246.844C249.523 245.668 250.629 244.702 252.337 244.702C254.031 244.702 255.151 245.612 255.235 247.11H253.961C253.905 246.34 253.317 245.78 252.295 245.78C251.357 245.78 250.797 246.228 250.797 246.844C250.797 248.664 255.249 247.67 255.305 250.414ZM258.349 251.716C258.349 252.206 257.971 252.584 257.509 252.584C257.019 252.584 256.641 252.206 256.641 251.716C256.641 251.226 257.019 250.848 257.509 250.848C257.971 250.848 258.349 251.226 258.349 251.716Z" fill="white"/>
<defs>
<linearGradient id="paint0_linear_5019_182813" x1="158.014" y1="10.2301" x2="167.24" y2="2.71628" gradientUnits="userSpaceOnUse">
<stop stop-color="#F4F2F7"/>
<stop offset="1" stop-color="#B6A8FB"/>
</linearGradient>
<linearGradient id="paint1_linear_5019_182813" x1="220.574" y1="78.6784" x2="229.796" y2="71.1671" gradientUnits="userSpaceOnUse">
<stop stop-color="#F4F2F7"/>
<stop offset="1" stop-color="#B6A8FB"/>
</linearGradient>
<linearGradient id="paint2_linear_5019_182813" x1="73.3927" y1="99.1779" x2="80.908" y2="93.0572" gradientUnits="userSpaceOnUse">
<stop stop-color="#F4F2F7"/>
<stop offset="1" stop-color="#B6A8FB"/>
</linearGradient>
<linearGradient id="paint3_linear_5019_182813" x1="185.357" y1="143.002" x2="202.984" y2="143.002" gradientUnits="userSpaceOnUse">
<stop stop-color="#D3B25A" stop-opacity="0"/>
<stop offset="0.06" stop-color="#D3B25A" stop-opacity="0.13"/>
<stop offset="0.19" stop-color="#D3B25A" stop-opacity="0.36"/>
<stop offset="0.31" stop-color="#D3B25A" stop-opacity="0.56"/>
<stop offset="0.44" stop-color="#D3B25A" stop-opacity="0.72"/>
<stop offset="0.57" stop-color="#D3B25A" stop-opacity="0.84"/>
<stop offset="0.71" stop-color="#D3B25A" stop-opacity="0.93"/>
<stop offset="0.85" stop-color="#D3B25A" stop-opacity="0.98"/>
<stop offset="1" stop-color="#D3B25A"/>
</linearGradient>
<linearGradient id="paint4_linear_5019_182813" x1="219.309" y1="143.094" x2="202.457" y2="143.094" gradientUnits="userSpaceOnUse">
<stop stop-color="#D3B25A" stop-opacity="0"/>
<stop offset="0.06" stop-color="#D3B25A" stop-opacity="0.13"/>
<stop offset="0.19" stop-color="#D3B25A" stop-opacity="0.36"/>
<stop offset="0.31" stop-color="#D3B25A" stop-opacity="0.56"/>
<stop offset="0.44" stop-color="#D3B25A" stop-opacity="0.72"/>
<stop offset="0.57" stop-color="#D3B25A" stop-opacity="0.84"/>
<stop offset="0.71" stop-color="#D3B25A" stop-opacity="0.93"/>
<stop offset="0.85" stop-color="#D3B25A" stop-opacity="0.98"/>
<stop offset="1" stop-color="#D3B25A"/>
</linearGradient>
<clipPath id="clip0_5019_182813">
<rect width="190" height="167" fill="white" transform="translate(69 0.5)"/>
</clipPath>
</defs>
</svg>
