<svg width="26" height="25" viewBox="0 0 26 25" fill="none" xmlns="http://www.w3.org/2000/svg">
<g id="Group 1000005160">
<path id="Vector" d="M12.9246 2.58984C7.15051 2.58984 2.44531 7.07984 2.44531 12.5898C2.44531 18.0998 7.15051 22.5898 12.9246 22.5898C18.6987 22.5898 23.4039 18.0998 23.4039 12.5898C23.4039 7.07984 18.6987 2.58984 12.9246 2.58984ZM16.4456 14.8898C16.7495 15.1798 16.7495 15.6598 16.4456 15.9498C16.2884 16.0998 16.0893 16.1698 15.8902 16.1698C15.6911 16.1698 15.492 16.0998 15.3348 15.9498L12.9246 13.6498L10.5144 15.9498C10.3572 16.0998 10.1581 16.1698 9.95895 16.1698C9.75985 16.1698 9.56074 16.0998 9.40355 15.9498C9.09965 15.6598 9.09965 15.1798 9.40355 14.8898L11.8138 12.5898L9.40355 10.2898C9.09965 9.99984 9.09965 9.51984 9.40355 9.22984C9.70745 8.93984 10.2105 8.93984 10.5144 9.22984L12.9246 11.5298L15.3348 9.22984C15.6387 8.93984 16.1417 8.93984 16.4456 9.22984C16.7495 9.51984 16.7495 9.99984 16.4456 10.2898L14.0354 12.5898L16.4456 14.8898Z" fill="#5E6272"/>
</g>
</svg>
