<svg width="22" height="17" viewBox="0 0 22 17" fill="none" xmlns="http://www.w3.org/2000/svg">
<path d="M15.4645 5.41632C15.4646 5.7405 15.3654 6.05743 15.1793 6.32701C14.9933 6.59658 14.7288 6.80669 14.4193 6.93075C14.1098 7.05481 13.7692 7.08724 13.4407 7.02394C13.1122 6.96064 12.8104 6.80445 12.5736 6.57514C12.3368 6.34583 12.1757 6.0537 12.1105 5.73572C12.0453 5.41773 12.0791 5.08818 12.2075 4.78877C12.3359 4.48936 12.5532 4.23353 12.8319 4.05366C13.1106 3.8738 13.4381 3.77798 13.7731 3.77832C14.2218 3.77878 14.6519 3.95154 14.969 4.25866C15.2862 4.56578 15.4644 4.98214 15.4645 5.41632Z" fill="url(#paint0_linear_1814_94819)"/>
<g filter="url(#filter0_d_1814_94819)">
<path d="M15.4645 5.41437C15.4646 5.73855 15.3654 6.05548 15.1793 6.32505C14.9933 6.59463 14.7288 6.80474 14.4193 6.9288C14.1098 7.05286 13.7692 7.08529 13.4407 7.02199C13.1122 6.95869 12.8104 6.8025 12.5736 6.57319C12.3368 6.34388 12.1757 6.05175 12.1105 5.73376C12.0453 5.41578 12.0791 5.08623 12.2075 4.78682C12.3359 4.4874 12.5532 4.23158 12.8319 4.05171C13.1106 3.87185 13.4381 3.77602 13.7731 3.77637C14.2218 3.77683 14.6519 3.94959 14.969 4.25671C15.2862 4.56383 15.4644 4.98019 15.4645 5.41437Z" fill="#0996FF"/>
</g>
<path d="M13.7662 7.68347C13.5808 7.68287 13.3961 7.66104 13.216 7.61844L11.5438 9.26747C11.5371 9.27366 11.5317 9.28109 11.5281 9.28932C11.5245 9.29756 11.5226 9.30642 11.5226 9.31538C11.5226 9.32433 11.5245 9.3332 11.5281 9.34143C11.5317 9.34967 11.5371 9.3571 11.5438 9.36328L14.2 12.101C14.2427 12.1422 14.2767 12.1911 14.2999 12.245C14.323 12.299 14.3349 12.3568 14.3349 12.4152C14.3349 12.4735 14.323 12.5313 14.2999 12.5853C14.2767 12.6392 14.2427 12.6881 14.2 12.7293C14.1138 12.8125 13.9971 12.8592 13.8754 12.8592C13.7537 12.8592 13.6369 12.8125 13.5508 12.7293L10.9054 10.0002C10.8918 9.98727 10.8735 9.97999 10.8544 9.97999C10.8353 9.97999 10.817 9.98727 10.8034 10.0002L10.1602 10.6361C9.89626 10.897 9.58127 11.1045 9.23359 11.2464C8.8859 11.3883 8.51249 11.4617 8.13517 11.4623C7.74951 11.4609 7.36802 11.385 7.01308 11.239C6.65813 11.0931 6.33688 10.88 6.06817 10.6122L5.44477 10.0014C5.43118 9.98843 5.41286 9.98115 5.39377 9.98115C5.37468 9.98115 5.35635 9.98843 5.34277 10.0014L2.69737 12.7304C2.61121 12.8136 2.49447 12.8603 2.37277 12.8603C2.25106 12.8603 2.13433 12.8136 2.04817 12.7304C2.00539 12.6893 1.97144 12.6403 1.94828 12.5864C1.92512 12.5325 1.91319 12.4747 1.91319 12.4163C1.91319 12.3579 1.92512 12.3001 1.94828 12.2462C1.97144 12.1923 2.00539 12.1434 2.04817 12.1022L4.70437 9.3627C4.71639 9.34946 4.72302 9.33243 4.72302 9.3148C4.72302 9.29717 4.71639 9.28014 4.70437 9.26689L0.905167 5.5258C0.895504 5.51597 0.883001 5.5092 0.869296 5.50637C0.85559 5.50354 0.84132 5.50477 0.828353 5.50992C0.815386 5.51506 0.804326 5.52388 0.796621 5.5352C0.788915 5.54653 0.784923 5.55985 0.785167 5.57341V13.0597C0.786116 13.3491 0.905327 13.6263 1.11677 13.831C1.32822 14.0356 1.61474 14.1509 1.91377 14.1519H14.3302C14.6292 14.1509 14.9157 14.0356 15.1272 13.831C15.3386 13.6263 15.4578 13.3491 15.4588 13.0597V6.9838C15.2402 7.20509 14.9775 7.38119 14.6865 7.50144C14.3956 7.6217 14.0825 7.68363 13.7662 7.68347Z" fill="#0996FF"/>
<path d="M11.4232 5.41349C11.4231 5.03167 11.5226 4.656 11.7125 4.32129H1.91324C1.65889 4.32061 1.41212 4.40514 1.21484 4.56052L6.74925 10.0122C6.92922 10.1897 7.14395 10.3307 7.3809 10.427C7.61785 10.5233 7.87226 10.5729 8.12925 10.5729C8.38623 10.5729 8.64064 10.5233 8.87759 10.427C9.11454 10.3307 9.32928 10.1897 9.50925 10.0122L12.3491 7.21639C12.0612 7.00562 11.8277 6.73311 11.6671 6.42028C11.5065 6.10745 11.423 5.76282 11.4232 5.41349Z" fill="#0996FF"/>
<defs>
<filter id="filter0_d_1814_94819" x="6.07812" y="0.776367" width="15.3867" height="15.2773" filterUnits="userSpaceOnUse" color-interpolation-filters="sRGB">
<feFlood flood-opacity="0" result="BackgroundImageFix"/>
<feColorMatrix in="SourceAlpha" type="matrix" values="0 0 0 0 0 0 0 0 0 0 0 0 0 0 0 0 0 0 127 0" result="hardAlpha"/>
<feOffset dy="3"/>
<feGaussianBlur stdDeviation="3"/>
<feColorMatrix type="matrix" values="0 0 0 0 0 0 0 0 0 0 0 0 0 0 0 0 0 0 0.161 0"/>
<feBlend mode="normal" in2="BackgroundImageFix" result="effect1_dropShadow_1814_94819"/>
<feBlend mode="normal" in="SourceGraphic" in2="effect1_dropShadow_1814_94819" result="shape"/>
</filter>
<linearGradient id="paint0_linear_1814_94819" x1="15.4645" y1="5.4169" x2="12.0781" y2="5.4169" gradientUnits="userSpaceOnUse">
<stop stop-color="#015391"/>
<stop offset="1" stop-color="#2D7EC1"/>
</linearGradient>
</defs>
</svg>
