<svg width="24" height="25" viewBox="0 0 24 25" fill="none" xmlns="http://www.w3.org/2000/svg">
<path d="M14.875 20.6641H4.875V7.66406L3.23178 9.63593C3.08202 9.81564 3 10.0422 3 10.2761V21.6641C3 22.2163 3.44772 22.6641 4 22.6641H16.875C17.4273 22.6641 17.875 22.2163 17.875 21.6641V20.6641H14.875Z" fill="#6C7BAD"/>
<path fill-rule="evenodd" clip-rule="evenodd" d="M6 3.66406C6 3.11178 6.44772 2.66406 7 2.66406H16.2108C16.476 2.66406 16.7304 2.76942 16.9179 2.95696L20.5821 6.62117C20.7696 6.80871 20.875 7.06306 20.875 7.32828V18.6641C20.875 19.2163 20.4273 19.6641 19.875 19.6641H7C6.44772 19.6641 6 19.2163 6 18.6641V3.66406ZM15 7.97656V4.41536C15 4.00043 15.3364 3.66406 15.7513 3.66406C15.9506 3.66406 16.1417 3.74322 16.2826 3.88411L20.0924 7.69401C20.2333 7.83491 20.3125 8.026 20.3125 8.22526C20.3125 8.64019 19.9761 8.97656 19.5612 8.97656H16C15.4477 8.97656 15 8.52885 15 7.97656ZM12.2929 18.3712C11.9024 17.9806 11.9024 17.3475 12.2929 16.957L13.5858 15.6641L8 15.6641C7.44771 15.6641 7 15.2163 7 14.6641C7 14.1118 7.44772 13.6641 8 13.6641H13.5858L12.2929 12.3712C11.9024 11.9806 11.9024 11.3475 12.2929 10.957C12.6834 10.5664 13.3166 10.5664 13.7071 10.957L16.7071 13.957C16.803 14.0528 16.8753 14.1633 16.9241 14.2813C16.9727 14.3983 16.9996 14.5266 17 14.6611L17 14.6641L17 14.6671C16.9992 14.922 16.9016 15.1767 16.7071 15.3712L13.7071 18.3712C13.3166 18.7617 12.6834 18.7617 12.2929 18.3712Z" fill="#6C7BAD"/>
</svg>
