<svg width="20" height="21" viewBox="0 0 20 21" fill="none" xmlns="http://www.w3.org/2000/svg">
<path d="M7.60194 6.06915C7.34508 6.06915 7.13208 5.85614 7.13208 5.59929V3.71986C7.13208 3.463 7.34508 3.25 7.60194 3.25C7.85879 3.25 8.0718 3.463 8.0718 3.71986V5.59929C8.0718 5.85614 7.85879 6.06915 7.60194 6.06915Z" fill="#5E6272"/>
<path d="M12.3004 6.06915C12.0436 6.06915 11.8306 5.85614 11.8306 5.59929V3.71986C11.8306 3.463 12.0436 3.25 12.3004 3.25C12.5573 3.25 12.7703 3.463 12.7703 3.71986V5.59929C12.7703 5.85614 12.5573 6.06915 12.3004 6.06915Z" fill="#5E6272"/>
<path d="M9.95104 11.293C10.2768 11.293 10.5149 11.0988 10.5149 10.7918C10.5149 10.4786 10.2768 10.2969 9.95104 10.2969C9.62527 10.2969 9.38721 10.4786 9.38721 10.7918C9.38721 11.0988 9.62527 11.293 9.95104 11.293Z" fill="#5E6272"/>
<path d="M9.95173 13.1184C10.3462 13.1184 10.6659 12.8575 10.6659 12.5357C10.6659 12.214 10.3462 11.9531 9.95173 11.9531C9.5573 11.9531 9.23755 12.214 9.23755 12.5357C9.23755 12.8575 9.5573 13.1184 9.95173 13.1184Z" fill="#5E6272"/>
<path d="M14.694 5.28663C14.2805 4.97966 13.6853 5.2741 13.6853 5.79408V5.85673C13.6853 6.58971 13.1591 7.2663 12.4261 7.34148C11.5804 7.42919 10.8662 6.76512 10.8662 5.93817V5.28663C10.8662 4.94207 10.5843 4.66016 10.2397 4.66016H9.66335C9.31879 4.66016 9.03688 4.94207 9.03688 5.28663V5.93817C9.03688 6.43309 8.78002 6.87162 8.39161 7.11595C8.33522 7.15354 8.27257 7.18486 8.20993 7.21618C8.15354 7.24751 8.0909 7.27257 8.02198 7.29136C7.94681 7.31642 7.86536 7.33521 7.77766 7.34148C7.67742 7.35401 7.57718 7.35401 7.47695 7.34148C7.38924 7.33521 7.3078 7.31642 7.23262 7.29136C7.16997 7.27257 7.10733 7.24751 7.04468 7.21618C6.98203 7.18486 6.91938 7.15354 6.863 7.11595C6.46832 6.8403 6.21773 6.36417 6.21773 5.85673V5.79408C6.21773 5.31169 5.70402 5.02351 5.29681 5.23025C5.29054 5.23652 5.28428 5.23652 5.27801 5.24278C5.25295 5.25531 5.23416 5.26784 5.2091 5.28663C5.19031 5.30543 5.16525 5.31796 5.14645 5.33675C4.97104 5.47458 4.81442 5.6312 4.68286 5.80034C4.61395 5.87552 4.55756 5.95696 4.50745 6.03841C4.50118 6.04467 4.49492 6.05094 4.48865 6.06346C4.43227 6.14491 4.38215 6.23888 4.3383 6.32659C4.32577 6.33912 4.3195 6.34538 4.3195 6.35791C4.28191 6.43309 4.24433 6.50826 4.21927 6.58971C4.20047 6.62103 4.19421 6.64609 4.18168 6.67741C4.14409 6.77138 4.11903 6.86536 4.09397 6.95933C4.06891 7.04703 4.05012 7.14101 4.03759 7.23498C4.02506 7.30389 4.01879 7.3728 4.01253 7.44798C4.00626 7.53569 4 7.62339 4 7.7111V13.199C4 14.8843 5.36572 16.25 7.05094 16.25H12.8521C14.5373 16.25 15.9031 14.8843 15.9031 13.199V7.7111C15.9031 6.715 15.4269 5.8442 14.694 5.28663ZM9.95153 13.9007C8.98049 13.9007 8.38534 13.4183 8.38534 12.6415C8.38534 12.2155 8.60461 11.8458 8.98676 11.6266C8.71111 11.4324 8.52943 11.1442 8.52943 10.7495C8.52943 9.93509 9.18097 9.51535 9.95153 9.51535C10.7221 9.51535 11.3674 9.93509 11.3674 10.7495C11.3674 11.1442 11.192 11.4324 10.91 11.6266C11.2985 11.8458 11.5177 12.2155 11.5177 12.6415C11.5177 13.4183 10.9163 13.9007 9.95153 13.9007Z" fill="#5E6272"/>
</svg>
