<svg width="16" height="16" viewBox="0 0 16 16" fill="none" xmlns="http://www.w3.org/2000/svg">
<path d="M8.0129 1.94141C5.80624 1.94141 4.0129 3.73474 4.0129 5.94141V7.86807C4.0129 8.27474 3.83957 8.89474 3.6329 9.24141L2.86624 10.5147C2.3929 11.3014 2.71957 12.1747 3.58624 12.4681C6.45957 13.4281 9.55957 13.4281 12.4329 12.4681C13.2396 12.2014 13.5929 11.2481 13.1529 10.5147L12.3862 9.24141C12.1862 8.89474 12.0129 8.27474 12.0129 7.86807V5.94141C12.0129 3.74141 10.2129 1.94141 8.0129 1.94141Z" stroke="#5E6272" stroke-width="1.8" stroke-miterlimit="10" stroke-linecap="round"/>
<path d="M9.24621 2.13297C9.03954 2.07297 8.82621 2.0263 8.60621 1.99964C7.96621 1.91964 7.35287 1.9663 6.77954 2.13297C6.97287 1.63964 7.45287 1.29297 8.01287 1.29297C8.57287 1.29297 9.05287 1.63964 9.24621 2.13297Z" stroke="#5E6272" stroke-width="1.8" stroke-miterlimit="10" stroke-linecap="round" stroke-linejoin="round"/>
<path d="M10.0129 12.707C10.0129 13.807 9.11294 14.707 8.01294 14.707C7.46627 14.707 6.95961 14.4804 6.59961 14.1204C6.23961 13.7604 6.01294 13.2537 6.01294 12.707" stroke="#5E6272" stroke-width="1.8" stroke-miterlimit="10"/>
</svg>
