<svg width="21" height="21" viewBox="0 0 21 21" fill="none" xmlns="http://www.w3.org/2000/svg">
<path fill-rule="evenodd" clip-rule="evenodd" d="M4.96169 15.3713C5.84037 16.25 7.25458 16.25 10.083 16.25C12.9114 16.25 14.3256 16.25 15.2043 15.3713C16.083 14.4926 16.083 13.0784 16.083 10.25C16.083 7.42157 16.083 6.00736 15.2043 5.12868C14.3256 4.25 12.9114 4.25 10.083 4.25C7.25458 4.25 5.84037 4.25 4.96169 5.12868C4.08301 6.00736 4.08301 7.42157 4.08301 10.25C4.08301 13.0784 4.08301 14.4926 4.96169 15.3713ZM8.58301 8.3C7.50605 8.3 6.63301 9.17304 6.63301 10.25C6.63301 11.327 7.50605 12.2 8.58301 12.2C9.65996 12.2 10.533 11.327 10.533 10.25C10.533 10.0015 10.7345 9.8 10.983 9.8C11.2315 9.8 11.433 10.0015 11.433 10.25C11.433 11.824 10.157 13.1 8.58301 13.1C7.009 13.1 5.73301 11.824 5.73301 10.25C5.73301 8.67599 7.009 7.4 8.58301 7.4C8.83154 7.4 9.03301 7.60147 9.03301 7.85C9.03301 8.09853 8.83154 8.3 8.58301 8.3ZM13.533 10.25C13.533 11.327 12.66 12.2 11.583 12.2C11.3345 12.2 11.133 12.4015 11.133 12.65C11.133 12.8985 11.3345 13.1 11.583 13.1C13.157 13.1 14.433 11.824 14.433 10.25C14.433 8.67599 13.157 7.4 11.583 7.4C10.009 7.4 8.73301 8.67599 8.73301 10.25C8.73301 10.4985 8.93448 10.7 9.18301 10.7C9.43154 10.7 9.63301 10.4985 9.63301 10.25C9.63301 9.17304 10.5061 8.3 11.583 8.3C12.66 8.3 13.533 9.17304 13.533 10.25Z" fill="#0E78F9"/>
</svg>
