<svg width="24" height="25" viewBox="0 0 24 25" fill="none" xmlns="http://www.w3.org/2000/svg">
<path d="M16.7127 11.186V12.733C16.7127 15.4855 14.3442 17.6939 11.5277 17.4272C11.2289 17.3952 10.9302 17.3419 10.6528 17.2459L16.7127 11.186Z" fill="#8F93A3"/>
<path d="M12.0473 1.71143C9.23594 1.71143 6.95459 3.99278 6.95459 6.80414V12.7034C6.95459 14.2196 7.6181 15.5816 8.67042 16.5147C12.0473 13.4927 13.7641 11.4934 17.14 8.1013V6.80414C17.14 3.99278 14.8587 1.71143 12.0473 1.71143ZM13.5567 9.71921C13.476 10.0188 13.211 10.2147 12.9115 10.2147C12.8538 10.2147 12.7962 10.2031 12.7386 10.1916C12.2893 10.0649 11.8169 10.0649 11.3675 10.1916C10.9988 10.2953 10.6416 10.0764 10.5494 9.71921C10.4458 9.36202 10.6647 8.99332 11.0219 8.90114C11.7016 8.71679 12.416 8.71679 13.0958 8.90114C13.4415 8.99332 13.6489 9.36202 13.5567 9.71921ZM14.1674 7.48394C14.0637 7.76047 13.8102 7.92178 13.5336 7.92178C13.453 7.92178 13.3839 7.91025 13.3032 7.88721C12.4967 7.58764 11.598 7.58764 10.7914 7.88721C10.4458 8.01395 10.054 7.8296 9.92726 7.48394C9.80052 7.13828 9.98487 6.74653 10.3305 6.63131C11.4366 6.22804 12.658 6.22804 13.7641 6.63131C14.1097 6.75806 14.2941 7.13828 14.1674 7.48394Z" fill="#8F93A3"/>
<path d="M21 10.7098V12.5423C21 17.233 17.3929 21.0939 12.8062 21.4972V23.9521C12.8062 24.4016 12.449 24.7588 11.9995 24.7588C11.5501 24.7588 11.1928 24.4016 11.1928 23.9521V21.4972C9.93669 21.382 8.74969 21.0132 7.68945 20.4254L8.87645 19.2383C9.82144 19.6763 10.8817 19.9298 11.9995 19.9298C16.0791 19.9298 19.3981 16.6106 19.3981 12.5423V10.7098C19.3981 10.2718 19.7554 9.91455 20.2048 9.91455C20.6427 9.91455 21 10.2718 21 10.7098Z" fill="#8F93A3"/>
<path d="M4.60188 12.5423C4.60188 14.4439 5.31638 16.1727 6.50338 17.475L5.36248 18.616C3.89889 17.014 3 14.8819 3 12.5423V10.7098C3 10.2718 3.35725 9.91455 3.79518 9.91455C4.24462 9.91455 4.60188 10.2718 4.60188 10.7098V12.5423Z" fill="#8F93A3"/>
<path d="M19.4201 3.96329C19.6902 3.69323 20.1313 3.69323 20.4013 3.96329C20.6804 4.23336 20.6804 4.66547 20.4013 4.93554L3.7843 21.5537C3.64928 21.6887 3.47825 21.7607 3.29821 21.7607C3.11818 21.7607 2.94715 21.6887 2.80312 21.5627C2.53307 21.2926 2.53307 20.8515 2.80312 20.5814L19.4201 3.96329Z" fill="#FF0000"/>
</svg>
