<svg width="140" height="136" viewBox="0 0 140 136" fill="none" xmlns="http://www.w3.org/2000/svg">
<path d="M90.1918 69.1126C98.0386 61.8274 101.586 52.6438 101.752 43.889C101.769 33.7438 99.4343 26.2004 94.5078 19.5147C83.1716 4.12821 62.2024 2.40889 48.8724 15.7513C34.4789 30.1595 34.9068 55.1 49.7821 68.9877C61.3467 79.7824 78.6022 79.8698 90.1918 69.1126Z" fill="#202223"/>
<path d="M20.5798 129.755H69.9869L69.9911 129.751C74.9363 129.751 79.8815 129.753 84.8268 129.755C96.6967 129.759 108.567 129.763 120.437 129.743C127.802 129.73 133.185 124.922 133.887 117.728C134.035 116.235 134.01 114.724 133.985 113.213C133.976 112.639 133.966 112.065 133.966 111.492C133.966 106.688 132.745 102.142 129.534 98.6117C126.394 95.1605 123.025 91.6511 119.099 89.2491C114.945 86.7086 110.567 84.5419 106.188 82.3744C103.634 81.1108 101.081 79.8469 98.5703 78.5085C96.161 77.2263 94.1547 77.243 91.816 78.6959C85.5227 82.6008 78.5898 84.6323 71.204 84.8446C62.8297 85.0861 55.095 82.8089 48 78.3628C46.5337 77.4428 45.0009 76.6727 43.3393 77.5261C41.2587 78.5952 39.1629 79.6401 37.0667 80.6851C31.4331 83.4938 25.7976 86.3034 20.451 89.5863C11.0755 95.3437 5.30985 103.374 6.06171 115.297C6.63911 124.426 11.4535 129.755 20.5798 129.755Z" fill="#202223"/>
</svg>
