<svg width="20" height="21" viewBox="0 0 20 21" fill="none" xmlns="http://www.w3.org/2000/svg">
<path d="M10.1311 9.62284C10.0705 9.61678 9.99783 9.61678 9.9312 9.62284C8.48956 9.57438 7.34473 8.3932 7.34473 6.93945C7.34473 5.45541 8.54407 4.25 10.0342 4.25C11.5182 4.25 12.7236 5.45541 12.7236 6.93945C12.7176 8.3932 11.5727 9.57438 10.1311 9.62284Z" fill="#5E6272"/>
<path d="M7.10013 11.8587C5.63427 12.84 5.63427 14.4391 7.10013 15.4144C8.7659 16.5289 11.4977 16.5289 13.1635 15.4144C14.6294 14.4331 14.6294 12.8339 13.1635 11.8587C11.5038 10.7502 8.77195 10.7502 7.10013 11.8587Z" fill="#5E6272"/>
</svg>
