<svg width="24" height="25" viewBox="0 0 24 25" fill="none" xmlns="http://www.w3.org/2000/svg">
<path d="M16.3204 14.3941V17.6701C16.3204 20.4061 15.2284 21.4981 12.4924 21.4981H9.22839C6.50439 21.4981 5.40039 20.4061 5.40039 17.6701V14.3941C5.40039 11.6701 6.49239 10.5781 9.22839 10.5781H12.5044C15.2284 10.5781 16.3204 11.6701 16.3204 14.3941Z" stroke="#8F93A3" stroke-width="1.5" stroke-linecap="round" stroke-linejoin="round"/>
<path d="M20.9981 9.71444V12.9904C20.9981 15.7264 19.9061 16.8184 17.1701 16.8184H16.3181V14.3944C16.3181 11.6704 15.2261 10.5784 12.4901 10.5784H10.0781V9.71444C10.0781 6.97844 11.1701 5.89844 13.9061 5.89844H17.1821C19.9061 5.89844 20.9981 6.99044 20.9981 9.71444Z" stroke="#8F93A3" stroke-width="1.5" stroke-linecap="round" stroke-linejoin="round"/>
<path d="M1.2002 10.0992C1.2002 5.45522 4.9562 1.69922 9.6002 1.69922L8.3402 3.79922" stroke="#8F93A3" stroke-width="1.5" stroke-linecap="round" stroke-linejoin="round"/>
</svg>
