<svg width="24" height="25" viewBox="0 0 24 25" fill="none" xmlns="http://www.w3.org/2000/svg">
<path d="M17.3031 7.14959C16.9242 4.73191 15.4895 3.7583 12.5146 3.7583H6.32985C2.80454 3.7583 1.43359 5.12925 1.43359 8.65454V16.9008C1.43359 18.5501 2.05715 20.2742 3.6513 21.1709C10.9684 13.8481 12.9063 11.4054 17.3031 7.14959ZM10.9684 12.1386C9.90669 12.1386 9.03051 11.2727 9.03051 10.2007C9.03051 9.1287 9.90669 8.26284 10.9684 8.26284C12.0301 8.26284 12.9063 9.1287 12.9063 10.2007C12.9063 11.2727 12.0301 12.1386 10.9684 12.1386Z" fill="#8F93A3"/>
<path d="M22.5654 9.00841V16.4709C22.5654 17.9448 21.8439 18.5323 21.4316 18.7488C21.2358 18.8519 20.9266 18.9652 20.5452 18.9652C20.102 18.9652 19.5557 18.8209 18.9167 18.3674L17.3912 17.2955C17.319 19.5734 16.5975 20.8721 14.9587 21.4184C14.299 21.6554 13.4847 21.7585 12.5055 21.7585H6.32117C6.0738 21.7585 5.83673 21.7482 5.58936 21.7173L14.9587 12.3583L20.7823 6.53467C21.0503 6.55528 21.2667 6.63774 21.4316 6.73051C21.8439 6.94696 22.5654 7.53447 22.5654 9.00841Z" fill="#8F93A3"/>
<path d="M19.345 3.32371C19.6452 3.02361 20.1353 3.02361 20.4354 3.32371C20.7455 3.62382 20.7455 4.10399 20.4354 4.4041L1.96879 22.8707C1.81874 23.0208 1.62867 23.1008 1.4286 23.1008C1.22853 23.1008 1.03846 23.0208 0.878401 22.8808C0.578293 22.5806 0.578293 22.0905 0.878401 21.7904L19.345 3.32371Z" fill="#FF0000"/>
</svg>
