<svg width="24" height="25" viewBox="0 0 24 25" fill="none" xmlns="http://www.w3.org/2000/svg">
<path d="M21.4114 6.76173C20.9897 6.53544 20.1051 6.29887 18.9017 7.1423L17.3897 8.21202C17.2765 5.01316 15.8879 3.7583 12.5142 3.7583H6.34276C2.82504 3.7583 1.45703 5.1263 1.45703 8.64402V16.8726C1.45703 19.2383 2.74275 21.7583 6.34276 21.7583H12.5142C15.8879 21.7583 17.2765 20.5034 17.3897 17.3046L18.9017 18.3743C19.5394 18.8269 20.0948 18.9709 20.5371 18.9709C20.9177 18.9709 21.216 18.8577 21.4114 18.7549C21.8331 18.5389 22.5428 17.9526 22.5428 16.4817V9.03487C22.5428 7.56402 21.8331 6.97773 21.4114 6.76173ZM10.9713 12.1206C9.91192 12.1206 9.03763 11.2566 9.03763 10.1869C9.03763 9.11716 9.91192 8.25316 10.9713 8.25316C12.0308 8.25316 12.9051 9.11716 12.9051 10.1869C12.9051 11.2566 12.0308 12.1206 10.9713 12.1206Z" fill="#0E78F9"/>
</svg>
