<svg width="14" height="11" viewBox="0 0 14 11" fill="none" xmlns="http://www.w3.org/2000/svg">
<path fill-rule="evenodd" clip-rule="evenodd" d="M0.5 10.4373C0.5 10.1892 0.703034 9.98818 0.953488 9.98818H13.0465C13.297 9.98818 13.5 10.1892 13.5 10.4373C13.5 10.6853 13.297 10.8864 13.0465 10.8864H0.953488C0.703034 10.8864 0.5 10.6853 0.5 10.4373Z" fill="#5E6272"/>
<path fill-rule="evenodd" clip-rule="evenodd" d="M2.08943 0.776143C1.55814 1.30229 1.55814 2.1491 1.55814 3.84273V6.83667C1.55814 7.96575 1.55814 8.53029 1.91234 8.88106C2.26653 9.23182 2.8366 9.23182 3.97674 9.23182H10.0233C11.1634 9.23182 11.7335 9.23182 12.0877 8.88106C12.4419 8.53029 12.4419 7.96575 12.4419 6.83667V3.84273C12.4419 2.1491 12.4419 1.30229 11.9106 0.776143C11.3793 0.25 10.5242 0.25 8.81395 0.25H5.18605C3.47583 0.25 2.62073 0.25 2.08943 0.776143ZM4.73256 7.43545C4.73256 7.18743 4.93559 6.98636 5.18605 6.98636H8.81395C9.06441 6.98636 9.26744 7.18743 9.26744 7.43545C9.26744 7.68348 9.06441 7.88455 8.81395 7.88455H5.18605C4.93559 7.88455 4.73256 7.68348 4.73256 7.43545Z" fill="#5E6272"/>
</svg>
