<svg width="20" height="20" viewBox="0 0 20 20" fill="none" xmlns="http://www.w3.org/2000/svg">
<g clip-path="url(#clip0_6389_70526)">
<path d="M5.00033 15.8333C5.00033 16.75 5.75033 17.5 6.66699 17.5H13.3337C14.2503 17.5 15.0003 16.75 15.0003 15.8333V7.5C15.0003 6.58333 14.2503 5.83333 13.3337 5.83333H6.66699C5.75033 5.83333 5.00033 6.58333 5.00033 7.5V15.8333ZM15.0003 3.33333H12.917L12.3253 2.74167C12.1753 2.59167 11.9587 2.5 11.742 2.5H8.25866C8.04199 2.5 7.82533 2.59167 7.67533 2.74167L7.08366 3.33333H5.00033C4.54199 3.33333 4.16699 3.70833 4.16699 4.16667C4.16699 4.625 4.54199 5 5.00033 5H15.0003C15.4587 5 15.8337 4.625 15.8337 4.16667C15.8337 3.70833 15.4587 3.33333 15.0003 3.33333Z" fill="#6C7BAD"/>
</g>
<defs>
<clipPath id="clip0_6389_70526">
<rect width="20" height="20" fill="white"/>
</clipPath>
</defs>
</svg>
