<svg width="32" height="32" viewBox="0 0 32 32" fill="none" xmlns="http://www.w3.org/2000/svg">
<g filter="url(#filter0_b_2564_24138)">
<rect width="32" height="32" rx="16" fill="#F6FAFF"/>
<g clip-path="url(#clip0_2564_24138)">
<path d="M12.6662 17.8418L12.6662 17.8418L12.6697 17.8402C13.5911 17.4308 14.722 17.125 16 17.125C17.2772 17.125 18.4086 17.4304 19.3318 17.8326C20.0455 18.1505 20.5 18.8678 20.5 19.65V20.1667C20.5 20.3489 20.3489 20.5 20.1667 20.5H11.8333C11.6511 20.5 11.5 20.3489 11.5 20.1667V19.6583C11.5 18.8655 11.9563 18.1507 12.6662 17.8418ZM9.33333 18.1667C9.39639 18.1667 9.45898 18.1681 9.5213 18.1707C9.34633 18.6355 9.25 19.1361 9.25 19.6583V20.5H6.83333C6.65114 20.5 6.5 20.3489 6.5 20.1667V19.6917C6.5 19.2185 6.77924 18.7974 7.21512 18.6089L7.21623 18.6084C7.86411 18.3264 8.57968 18.1667 9.33333 18.1667ZM24.7838 18.6085L24.7849 18.6089C25.2208 18.7974 25.5 19.2185 25.5 19.6917V20.1667C25.5 20.3489 25.3489 20.5 25.1667 20.5H22.75V19.6583C22.75 19.1361 22.6537 18.6355 22.4787 18.1707C22.541 18.1681 22.6036 18.1667 22.6667 18.1667C23.4203 18.1667 24.1359 18.3264 24.7838 18.6085ZM10.5 15.1667C10.5 15.8072 9.97386 16.3333 9.33333 16.3333C8.69281 16.3333 8.16667 15.8072 8.16667 15.1667C8.16667 14.5261 8.69281 14 9.33333 14C9.97386 14 10.5 14.5261 10.5 15.1667ZM23.8333 15.1667C23.8333 15.8072 23.3072 16.3333 22.6667 16.3333C22.0261 16.3333 21.5 15.8072 21.5 15.1667C21.5 14.5261 22.0261 14 22.6667 14C23.3072 14 23.8333 14.5261 23.8333 15.1667ZM16 11.5C17.1072 11.5 18 12.3928 18 13.5C18 14.6072 17.1072 15.5 16 15.5C14.8928 15.5 14 14.6072 14 13.5C14 12.3928 14.8928 11.5 16 11.5Z" fill="#3B5782" stroke="#3B5782"/>
</g>
</g>
<defs>
<filter id="filter0_b_2564_24138" x="-10" y="-10" width="52" height="52" filterUnits="userSpaceOnUse" color-interpolation-filters="sRGB">
<feFlood flood-opacity="0" result="BackgroundImageFix"/>
<feGaussianBlur in="BackgroundImageFix" stdDeviation="5"/>
<feComposite in2="SourceAlpha" operator="in" result="effect1_backgroundBlur_2564_24138"/>
<feBlend mode="normal" in="SourceGraphic" in2="effect1_backgroundBlur_2564_24138" result="shape"/>
</filter>
<clipPath id="clip0_2564_24138">
<rect width="20" height="20" fill="white" transform="translate(6 6)"/>
</clipPath>
</defs>
</svg>
