<svg width="20" height="24" viewBox="0 0 20 24" fill="none" xmlns="http://www.w3.org/2000/svg">
<g clip-path="url(#clip0_2556_24171)">
<path d="M9.83998 14.2549V15.7414C9.83998 17.1943 8.64388 18.3868 7.16783 18.3868C5.69178 18.3868 4.49567 17.2027 4.49567 15.7414V14.2549H3.3335V15.7414C3.3335 17.6394 4.75016 19.2014 6.59098 19.487V20.0077H5.16583V21.1666H9.18679V20.0077H7.76164V19.487C9.60246 19.2014 11.0191 17.6394 11.0191 15.7414V14.2549H9.84847H9.83998Z" fill="#3B5782"/>
<path d="M12.0116 6.84766C12.0116 6.84766 11.9946 6.89805 11.9861 6.92324L11.6553 7.92263H12.3678L12.0625 6.99882C12.0455 6.94843 12.0285 6.89805 12.0116 6.84766Z" fill="#3B5782"/>
<path d="M12.2663 2.83301C9.38203 2.83301 7.03223 5.15932 7.03223 8.01472C7.03223 9.0393 7.32913 10.0219 7.8975 10.8617L7.31217 13.6919L9.95887 12.6589C10.6714 13.0033 11.4689 13.188 12.2663 13.188C15.1505 13.188 17.5003 10.8617 17.5003 8.00632C17.5003 5.15092 15.1505 2.83301 12.2663 2.83301ZM13.1146 10.1227L12.665 8.81255H11.3755L10.9514 10.1227H9.96736L11.5791 5.36927H12.4274L14.141 10.1227H13.1146Z" fill="#3B5782"/>
<path d="M6.40457 14.7749L7.18501 10.9873C6.92203 10.5506 6.72692 10.0803 6.58271 9.60156C6.50637 9.62676 6.42154 9.65195 6.34519 9.67715C6.31974 9.68554 6.28581 9.69394 6.26036 9.71074C6.1416 9.76953 6.03132 9.83671 5.92104 9.9039C5.91255 9.9123 5.89559 9.92069 5.87862 9.92909C5.27633 10.3658 4.86914 11.1048 4.86914 11.9447V15.3627C4.86914 16.7149 5.89559 17.815 7.16804 17.815C7.21046 17.815 7.25287 17.8066 7.29529 17.7982C7.29529 17.7982 7.29529 17.8066 7.29529 17.815C7.38012 17.815 7.45647 17.7898 7.5413 17.773C7.57523 17.773 7.61764 17.7646 7.65158 17.7562C7.77034 17.731 7.88062 17.6891 7.9909 17.6471C8.01635 17.6387 8.05028 17.6303 8.07573 17.6135C8.19449 17.5547 8.30477 17.4875 8.41505 17.4203C8.42353 17.4119 8.4405 17.4035 8.45746 17.3951C9.05976 16.9584 9.46694 16.2194 9.46694 15.3795V13.5739L6.39609 14.7749H6.40457Z" fill="#3B5782"/>
</g>
<defs>
<clipPath id="clip0_2556_24171">
<rect width="14.1667" height="18.3333" fill="white" transform="translate(3.3335 2.83301)"/>
</clipPath>
</defs>
</svg>
