<svg width="38" height="38" viewBox="0 0 38 38" fill="none" xmlns="http://www.w3.org/2000/svg">
<rect width="38" height="38" rx="8" fill="#1D9BF0"/>
<path d="M21.3269 16.5576C20.904 16.8715 20.4755 17.177 20.0612 17.5009C18.1767 18.9738 16.3008 20.458 14.4064 21.9182C14.3144 21.9819 14.2101 22.0258 14.1002 22.0471C13.9902 22.0684 13.8771 22.0666 13.7679 22.0419C11.9195 21.4479 10.0803 20.8264 8.24045 20.2055C7.95566 20.1517 7.69771 20.0024 7.50904 19.7824C7.32037 19.5624 7.21223 19.2847 7.20242 18.995C7.20429 18.7142 7.2988 18.4419 7.47128 18.2203C7.64376 17.9987 7.88456 17.8403 8.15631 17.7696C11.9813 16.2318 15.8077 14.6974 19.6355 13.1663C21.5305 12.4026 23.4319 11.651 25.322 10.8739C25.8573 10.6539 26.3572 10.5712 26.826 10.9863C27.0352 11.1865 27.1718 11.4505 27.2145 11.7369C27.2571 12.0232 27.2033 12.3157 27.0615 12.5681C25.2155 17.2161 23.3676 21.8632 21.5178 26.5094C21.0751 27.6233 20.6344 28.7382 20.1955 29.854C20.1351 30.1284 19.9817 30.3736 19.7614 30.548C19.5411 30.7225 19.2673 30.8155 18.9864 30.8114C18.705 30.8082 18.4331 30.709 18.2159 30.5301C17.9987 30.3512 17.8491 30.1034 17.7921 29.8279C17.1648 27.966 16.5405 26.1042 15.943 24.2325C15.9162 24.1213 15.9127 24.0057 15.9327 23.893C15.9526 23.7804 15.9956 23.673 16.0589 23.5777C17.3947 21.8248 18.7551 20.091 20.1078 18.3522C20.5406 17.795 20.9754 17.2286 21.4089 16.6665L21.324 16.559" fill="white"/>
</svg>
