<svg width="20" height="20" viewBox="0 0 20 20" fill="none" xmlns="http://www.w3.org/2000/svg">
<path fill-rule="evenodd" clip-rule="evenodd" d="M6.87627 2.69959C6.47389 2.82845 6.25781 2.96287 6.00708 3.24044C5.80904 3.45958 5.59639 3.82887 5.59639 3.95355C5.59639 3.97184 5.81041 3.98676 6.07201 3.98676C6.50966 3.98676 6.56435 3.97209 6.75746 3.80252C6.87284 3.70119 7.05913 3.60161 7.17151 3.58126C7.28383 3.56085 8.92094 3.55248 10.8095 3.56259H14.0867C14.5004 3.56259 14.836 3.89726 14.8361 4.31103C14.8363 4.89457 14.8364 6.05943 14.8364 8.638C14.8364 12.5735 14.8265 13.0104 14.7322 13.2091C14.6322 13.42 14.3288 13.6631 14.1653 13.6636C14.104 13.6638 14.0873 13.0463 14.0873 10.7836C14.0873 8.76418 14.0653 7.8265 14.0139 7.64632C13.9537 7.43574 13.7086 7.15635 12.656 6.09861C11.4606 4.89741 11.3479 4.80101 11.0323 4.70948C10.7502 4.62757 10.2996 4.61128 8.34768 4.61209C7.62338 4.61239 6.7152 4.61236 5.91099 4.61227C4.95129 4.61217 4.25224 5.2775 4.24353 6.23716C4.23282 7.41754 4.23057 9.09408 4.23692 10.7733C4.24191 12.0949 4.24021 13.3862 4.23851 14.6757L4.23777 15.2559C4.23686 16.0144 4.85174 16.6294 5.61031 16.6294H9.15506H12.7137C13.4723 16.6294 14.0821 16.0148 14.0806 15.2562L14.0804 14.9789L14.1185 14.6394L14.4196 14.5627C14.9937 14.4166 15.4813 13.9478 15.6792 13.352C15.7639 13.0969 15.7739 12.4872 15.7589 8.50789L15.7457 4.01416C15.7435 3.25714 15.1301 2.64366 14.3731 2.64181C12.9964 2.63845 11.0673 2.63313 10.7471 2.63203C7.94705 2.62242 7.06937 2.63778 6.87627 2.69959ZM6.23145 8.61572C6.23145 8.3234 6.46842 8.08643 6.76074 8.08643H9.63574C9.92806 8.08643 10.165 8.3234 10.165 8.61572C10.165 8.90805 9.92806 9.14502 9.63574 9.14502H6.76074C6.46842 9.14502 6.23145 8.90805 6.23145 8.61572ZM11.8212 6.68365L10.5408 5.44501V6.40985C10.5408 7.23828 11.2124 7.90985 12.0408 7.90985H13.0603L11.8212 6.68365ZM6.23145 11.022C6.23145 10.7297 6.46842 10.4927 6.76074 10.4927H11.9268C12.2191 10.4927 12.4561 10.7297 12.4561 11.022C12.4561 11.3143 12.2191 11.5513 11.9268 11.5513H6.76074C6.46842 11.5513 6.23145 11.3143 6.23145 11.022ZM6.76074 12.8989C6.46842 12.8989 6.23145 13.1359 6.23145 13.4282C6.23145 13.7205 6.46842 13.9575 6.76074 13.9575H11.7744C12.0667 13.9575 12.3037 13.7205 12.3037 13.4282C12.3037 13.1359 12.0667 12.8989 11.7744 12.8989H6.76074Z" fill="white"/>
</svg>
