<svg width="24" height="25" viewBox="0 0 24 25" fill="none" xmlns="http://www.w3.org/2000/svg">
<rect x="9" y="2.5" width="6" height="12" rx="3" fill="#0075FF"/>
<path d="M7 11.5C7 10.9477 6.55228 10.5 6 10.5C5.44772 10.5 5 10.9477 5 11.5C5 15.0265 7.60771 17.9439 11 18.4291V20.5H9C8.44772 20.5 8 20.9477 8 21.5C8 22.0523 8.44772 22.5 9 22.5H15C15.5523 22.5 16 22.0523 16 21.5C16 20.9477 15.5523 20.5 15 20.5H13V18.4291C16.3923 17.9439 19 15.0265 19 11.5C19 10.9477 18.5523 10.5 18 10.5C17.4477 10.5 17 10.9477 17 11.5C17 14.2614 14.7614 16.5 12 16.5C9.23858 16.5 7 14.2614 7 11.5Z" fill="#9FCBFF"/>
</svg>
