<svg width="24" height="24" viewBox="0 0 24 24" fill="none" xmlns="http://www.w3.org/2000/svg">
<path fill-rule="evenodd" clip-rule="evenodd" d="M2 6C2 5.44772 2.44772 5 3 5H11C11.5523 5 12 5.44772 12 6C12 6.55228 11.5523 7 11 7H3C2.44772 7 2 6.55228 2 6Z" fill="#D3D6F0"/>
<path d="M3 10H11" stroke="#D3D6F0" stroke-width="2" stroke-linecap="round"/>
<path d="M3 14H6" stroke="#D3D6F0" stroke-width="2" stroke-linecap="round"/>
<path d="M16.2724 3.43207C14.9369 3.76595 14 4.9659 14 6.3425V13.5353C13.4117 13.1949 12.7286 13.0001 12 13.0001C9.79086 13.0001 8 14.791 8 17.0001C8 19.2093 9.79086 21.0001 12 21.0001C14.2091 21.0001 16 19.2093 16 17.0001V9.50017L19.7955 8.55131C21.0911 8.2274 22 7.06328 22 5.72778C22 3.83434 20.2206 2.44502 18.3837 2.90425L16.2724 3.43207Z" fill="#9296A5"/>
</svg>
