<svg width="24" height="24" viewBox="0 0 24 24" fill="none" xmlns="http://www.w3.org/2000/svg">
<path d="M12 14C12.5523 14 13 14.4477 13 15V16.5858L16.7071 20.2929C17.0976 20.6834 17.0976 21.3166 16.7071 21.7071C16.3166 22.0976 15.6834 22.0976 15.2929 21.7071L13 19.4142V20C13 20.5523 12.5523 21 12 21C11.4477 21 11 20.5523 11 20V19.4142L8.70711 21.7071C8.31658 22.0976 7.68342 22.0976 7.29289 21.7071C6.90237 21.3166 6.90237 20.6834 7.29289 20.2929L11 16.5858V15C11 14.4477 11.4477 14 12 14Z" fill="#D3D6F0"/>
<path d="M2 4C2 2.89543 2.89543 2 4 2H20C21.1046 2 22 2.89543 22 4V14C22 15.1046 21.1046 16 20 16H4C2.89543 16 2 15.1046 2 14V4Z" fill="#9296A5"/>
<path d="M4 6H20V14H4V6Z" fill="#D3D6F0"/>
<path fill-rule="evenodd" clip-rule="evenodd" d="M1 3C1 2.44772 1.44772 2 2 2H22C22.5523 2 23 2.44772 23 3C23 3.55228 22.5523 4 22 4H2C1.44772 4 1 3.55228 1 3Z" fill="#D3D6F0"/>
</svg>
