<svg width="24" height="24" viewBox="0 0 24 24" fill="none" xmlns="http://www.w3.org/2000/svg">
<rect x="2" y="3" width="20" height="15" rx="3" fill="#9FCBFF"/>
<path fill-rule="evenodd" clip-rule="evenodd" d="M12 10C13.1046 10 14 9.10457 14 8C14 6.89543 13.1046 6 12 6C10.8954 6 10 6.89543 10 8C10 9.10457 10.8954 10 12 10Z" fill="#0075FF"/>
<path fill-rule="evenodd" clip-rule="evenodd" d="M12 15C13.7757 15 15.1284 15 16.0008 15C16.5531 15 17.014 14.5421 16.8474 14.0155C16.2991 12.2824 14.3368 11 12 11C9.66322 11 7.70085 12.2824 7.15257 14.0155C6.98599 14.5421 7.44819 15 8.00048 15C9.18886 15 9.77683 15 12 15Z" fill="#0075FF"/>
<path fill-rule="evenodd" clip-rule="evenodd" d="M1 20C1 19.4477 1.44772 19 2 19H22C22.5523 19 23 19.4477 23 20C23 20.5523 22.5523 21 22 21H2C1.44772 21 1 20.5523 1 20Z" fill="#0075FF"/>
</svg>
