<svg width="199" height="48" viewBox="0 0 199 48" fill="none" xmlns="http://www.w3.org/2000/svg">
<path d="M23.0721 26.1941C23.0721 27.021 22.3826 27.7032 21.5468 27.7032C20.711 27.7032 20.0214 27.021 20.0214 26.1941C20.0214 25.3672 20.711 24.6851 21.5468 24.6851C22.3826 24.6851 23.0721 25.3672 23.0721 26.1941Z" fill="#204593"/>
<path d="M19.0587 26.1366C19.0587 26.9014 18.4319 27.5216 17.6588 27.5216C16.8856 27.5216 16.2587 26.9014 16.2587 26.1366C16.2587 25.3717 16.8856 24.7515 17.6588 24.7515C18.4319 24.7515 19.0587 25.3717 19.0587 26.1366Z" fill="#4692CF"/>
<path d="M18.9899 22.3921C18.9899 22.9917 18.4884 23.4878 17.8824 23.4878C17.2765 23.4878 16.7749 22.9917 16.7749 22.3921C16.7749 21.7926 17.2765 21.2965 17.8824 21.2965C18.4884 21.2759 18.9899 21.772 18.9899 22.3921Z" fill="#4692CF"/>
<path d="M18.9899 30.041C18.9899 30.6405 18.4884 31.1366 17.8824 31.1366C17.2765 31.1366 16.7749 30.6405 16.7749 30.041C16.7749 29.4415 17.2765 28.9453 17.8824 28.9453C18.4884 28.9454 18.9899 29.4415 18.9899 30.041Z" fill="#4692CF"/>
<path d="M26.8096 26.1322C26.8096 26.9179 26.1618 27.538 25.3888 27.538C24.5947 27.538 23.9679 26.8971 23.9679 26.1322C23.9679 25.3467 24.6157 24.7266 25.3888 24.7266C26.1618 24.7266 26.8096 25.3467 26.8096 26.1322Z" fill="#4692CF"/>
<path opacity="0.8" d="M29.937 26.1106C29.937 26.7308 29.4355 27.2476 28.7878 27.2476C28.161 27.2476 27.6385 26.7515 27.6385 26.1106C27.6385 25.4905 28.14 24.9736 28.7878 24.9736C29.4146 24.9736 29.937 25.4905 29.937 26.1106Z" fill="#4692CF"/>
<path opacity="0.8" d="M15.6079 26.1106C15.6079 26.7308 15.1065 27.2476 14.4587 27.2476C13.8318 27.2476 13.3094 26.7515 13.3094 26.1106C13.3094 25.4905 13.811 24.9736 14.4587 24.9736C15.1065 24.9736 15.6079 25.4905 15.6079 26.1106Z" fill="#4692CF"/>
<path opacity="0.3" d="M29.5052 29.9397C29.5052 30.3324 29.1918 30.6426 28.7948 30.6426C28.3977 30.6426 28.0843 30.3324 28.0843 29.9397C28.0843 29.5469 28.3977 29.2368 28.7948 29.2368C29.1918 29.2368 29.5052 29.5469 29.5052 29.9397Z" fill="#4692CF"/>
<path opacity="0.8" d="M22.4416 19.3121C22.4416 19.7876 22.0446 20.1803 21.5641 20.1803C21.0834 20.1803 20.6865 19.7876 20.6865 19.3121C20.6865 18.8367 21.0834 18.4438 21.5641 18.4438C22.0446 18.4438 22.4416 18.8367 22.4416 19.3121Z" fill="#4692CF"/>
<path opacity="0.4" d="M18.828 19.3129C18.828 19.7883 18.4519 20.1604 17.9713 20.1604C17.4907 20.1604 17.1145 19.7883 17.1145 19.3129C17.1145 18.8374 17.4907 18.4653 17.9713 18.4653C18.4519 18.4653 18.828 18.8374 18.828 19.3129Z" fill="#4692CF"/>
<path opacity="0.3" d="M26.2266 33.1013C26.2266 33.5561 25.8504 33.9281 25.3907 33.9281C24.9311 33.9281 24.555 33.5561 24.555 33.1013C24.555 32.6465 24.9311 32.2744 25.3907 32.2744C25.8504 32.2744 26.2266 32.6465 26.2266 33.1013Z" fill="#4692CF"/>
<path opacity="0.8" d="M22.6888 33.1009C22.6888 33.5764 22.2918 33.9692 21.8112 33.9692C21.3306 33.9692 20.9336 33.5764 20.9336 33.1009C20.9336 32.6254 21.3306 32.2327 21.8112 32.2327C22.2918 32.212 22.6888 32.6048 22.6888 33.1009Z" fill="#4692CF"/>
<path opacity="0.3" d="M15.3167 22.414C15.3167 22.8067 14.9824 23.1375 14.5853 23.1375C14.1883 23.1375 13.854 22.8067 13.854 22.414C13.854 22.0211 14.1883 21.6904 14.5853 21.6904C15.0032 21.7111 15.3167 22.0211 15.3167 22.414Z" fill="#4692CF"/>
<path d="M26.5343 29.8939C26.5343 30.5348 26.012 31.0516 25.3642 31.0516C24.7165 31.0516 24.1941 30.5348 24.1941 29.8939C24.1941 29.2531 24.7165 28.7363 25.3642 28.7363C26.012 28.7363 26.5343 29.2531 26.5343 29.8939Z" fill="#4692CF"/>
<path d="M26.4941 22.3921C26.4941 22.9917 25.9926 23.4878 25.3866 23.4878C24.7807 23.4878 24.2792 22.9917 24.2792 22.3921C24.2792 21.7926 24.7807 21.2965 25.3866 21.2965C25.9926 21.2759 26.4941 21.772 26.4941 22.3921Z" fill="#4692CF"/>
<path d="M22.964 22.3301C22.964 23.0742 22.358 23.6737 21.6058 23.6737C20.8536 23.6737 20.2477 23.0742 20.2477 22.3301C20.2477 21.5858 20.8536 20.9863 21.6058 20.9863C22.358 20.9863 22.964 21.5858 22.964 22.3301Z" fill="#4692CF"/>
<path d="M22.9845 30.0831C22.9845 30.8274 22.3577 31.4475 21.6055 31.4475C20.8532 31.4475 20.2264 30.8274 20.2264 30.0831C20.2264 29.339 20.8532 28.7188 21.6055 28.7188C22.3577 28.7188 22.9845 29.3183 22.9845 30.0831Z" fill="#4692CF"/>
<path d="M33.1605 28.3894C32.6382 28.3894 32.1785 28.7615 32.074 29.2576C31.9069 30.0638 31.6352 30.8286 31.2799 31.5522C31.2799 31.5729 31.2799 31.5729 31.2591 31.5729C31.0293 32.0484 30.7576 32.5031 30.4651 32.9165C30.4651 32.9165 30.4651 32.9373 30.4442 32.9373C29.6919 34.0329 28.7517 34.9632 27.6442 35.7073L27.6233 35.728C27.1845 36.0174 26.7457 36.2862 26.2651 36.5135C26.2651 36.5135 26.2443 36.5342 26.2443 36.5135C25.0741 37.0717 23.7786 37.4232 22.4413 37.5265C22.4204 37.5265 22.4204 37.5265 22.4204 37.5265C21.898 37.5678 21.3965 37.5678 20.8742 37.5265H20.8533C20.8324 37.5265 20.8324 37.5265 20.8114 37.5265C19.4533 37.4232 18.1578 37.0717 17.0085 36.5135C16.9876 36.5135 16.9876 36.5135 16.9876 36.4929C16.5071 36.2655 16.0474 35.9968 15.6295 35.7073C15.6295 35.7073 15.6086 35.7073 15.6086 35.6867C14.5011 34.9424 13.5609 34.0122 12.8086 32.9165L12.7877 32.8959C12.4952 32.4618 12.2235 32.0276 11.9937 31.5522C11.9937 31.5522 11.9728 31.5315 11.9937 31.5315C11.6385 30.808 11.3668 30.0225 11.1997 29.2369C11.0952 28.7201 10.6355 28.3687 10.1131 28.3687H6.31021C5.64156 28.3687 5.09829 28.9681 5.20276 29.6297C5.4535 31.2008 5.93409 32.6892 6.62364 34.0742C6.62364 34.0949 6.62364 34.1155 6.64453 34.1155C6.99976 34.8391 7.41765 35.5419 7.87735 36.2034C7.87735 36.2242 7.89824 36.2242 7.89824 36.2448C9.04748 37.9193 10.531 39.3869 12.2235 40.5447C12.2444 40.5653 12.2445 40.5653 12.2653 40.5653C12.934 41.0201 13.6444 41.4336 14.3757 41.7643C14.3966 41.7643 14.3966 41.785 14.4175 41.785C16.2354 42.6326 18.2205 43.1907 20.3309 43.3561C20.3518 43.3561 20.3518 43.3561 20.3726 43.3561C20.3936 43.3561 20.3936 43.3561 20.4145 43.3561C21.2294 43.4181 22.0234 43.4181 22.8174 43.3561C22.8383 43.3561 22.8383 43.3561 22.8592 43.3561C24.9487 43.2113 26.9547 42.6532 28.7725 41.785C28.7934 41.785 28.8143 41.785 28.8143 41.7643C29.5457 41.4128 30.2561 40.9994 30.9248 40.5447C30.9456 40.5447 30.9456 40.5239 30.9665 40.5239C32.6591 39.3869 34.1426 37.9193 35.3127 36.2448C35.3127 36.2242 35.3336 36.2242 35.3336 36.2034C35.7933 35.5419 36.2112 34.8391 36.5456 34.1155C36.5665 34.0949 36.5665 34.0949 36.5665 34.0742C37.2351 32.6892 37.7157 31.2008 37.9874 29.6297C38.0918 28.9681 37.5695 28.3687 36.8799 28.3687H33.1605V28.3894Z" fill="#204593"/>
<path d="M29.0057 15.4506C28.9431 15.4506 28.8595 15.4299 28.7968 15.3885C28.2953 15.0578 27.7938 14.7684 27.2923 14.541L27.2088 14.4996C27.1879 14.4996 27.1669 14.479 27.146 14.4583C27.146 14.4583 27.1251 14.4583 27.1043 14.4376C26.9789 14.3549 26.9162 14.2102 26.958 14.0655C26.9789 13.9621 26.9998 13.8588 27.0206 13.7348C27.1043 12.6391 26.2476 11.6675 25.1401 11.5848C25.0983 11.5848 25.0357 11.5848 24.9938 11.5848C24.0953 11.5848 23.3014 12.1843 23.0506 13.0319C23.0088 13.1766 22.8626 13.28 22.7163 13.28C22.6954 13.28 22.5909 13.28 22.57 13.28C22.5491 13.28 22.5282 13.28 22.5073 13.28C22.2148 13.2593 21.9431 13.2593 21.6506 13.2593C21.3581 13.2593 21.0655 13.28 20.794 13.3006H20.773C20.6686 13.3006 20.5849 13.2593 20.5014 13.1973C20.4178 13.1146 20.3969 13.0112 20.4178 12.9079C20.5432 12.1223 20.8775 11.3781 21.379 10.758C22.2775 9.66232 23.5939 9.02148 25.0148 9.02148C25.1192 9.02148 25.2446 9.02149 25.3491 9.04216C25.6416 9.06283 25.9133 9.10417 26.164 9.16619C27.9819 9.62098 29.34 11.0887 29.6325 12.9285C29.6744 13.3006 29.6953 13.6314 29.6744 13.9621C29.6326 14.4169 29.549 14.8511 29.3819 15.2645C29.34 15.3679 29.2565 15.4506 29.152 15.4712C29.0893 15.4506 29.0475 15.4506 29.0057 15.4506Z" fill="#EF3D3B"/>
<path d="M34.8355 27.2111C34.7519 27.2111 34.6683 27.1697 34.5847 27.1077C34.5012 27.0249 34.4594 26.9217 34.4803 26.8183C34.522 26.2394 34.522 25.6607 34.4803 25.1024C34.4803 25.0404 34.4803 24.9578 34.4803 24.9578C34.4803 24.9371 34.4803 24.9164 34.4803 24.8958C34.4803 24.7304 34.5847 24.6063 34.731 24.565C34.8355 24.5443 34.94 24.5029 35.0444 24.4409C36.0474 23.9448 36.4653 22.7458 35.9847 21.7535C35.6504 21.0714 34.94 20.6166 34.1668 20.6166C33.9996 20.6166 33.8534 20.6373 33.6862 20.6786C33.6653 20.6786 33.6236 20.6786 33.6027 20.6786C33.5399 20.6786 33.4773 20.6579 33.4146 20.6373C33.3519 20.5959 33.2892 20.5339 33.2683 20.4513V20.4305C33.2474 20.4099 33.2474 20.3892 33.2265 20.3479C32.9549 19.8104 32.6624 19.2935 32.3489 18.8388C32.2863 18.7561 32.2653 18.632 32.3072 18.5287C32.3489 18.4254 32.4116 18.3426 32.5161 18.3013C33.0385 18.0946 33.5817 17.9912 34.1459 17.9912C34.3967 17.9912 34.6266 18.0119 34.8772 18.0532C36.3817 18.2806 37.6981 19.2315 38.3667 20.5959C38.4921 20.8646 38.5966 21.092 38.6593 21.3401C39.1817 23.1386 38.5757 25.0404 37.0922 26.1981C36.8205 26.4048 36.528 26.5909 36.2146 26.7563C35.7967 26.9629 35.3579 27.087 34.9191 27.1697C34.8772 27.2111 34.8563 27.2111 34.8355 27.2111Z" fill="#4692CF"/>
<path d="M8.35854 27.2071C7.56452 27.0831 6.81229 26.7523 6.18543 26.2562C4.99441 25.3053 4.34666 23.8376 4.45114 22.3284C4.47203 22.0391 4.51382 21.7703 4.57651 21.5223C5.0362 19.7238 6.51976 18.38 8.37943 18.0907C8.63017 18.0493 8.86001 18.0493 9.11076 18.0493C9.21524 18.0493 9.31971 18.0493 9.42419 18.0493C9.88388 18.0907 10.3436 18.1734 10.7406 18.3388C10.8451 18.38 10.9286 18.4628 10.9495 18.5662C10.9913 18.6695 10.9704 18.7728 10.9077 18.8762C10.5734 19.3723 10.2809 19.8684 10.051 20.3646L10.0093 20.4267C10.0093 20.4473 9.96746 20.53 9.96746 20.53C9.90478 20.654 9.77941 20.7161 9.65404 20.7161C9.63314 20.7161 9.59135 20.7161 9.57045 20.6954C9.46598 20.6747 9.36151 20.654 9.25703 20.6333C9.21524 20.6333 9.17345 20.6333 9.11076 20.6333C8.0451 20.6333 7.14661 21.4602 7.08393 22.4938C7.02125 23.4241 7.6272 24.2923 8.52569 24.5611C8.67196 24.6025 8.77644 24.7471 8.77644 24.8918C8.77644 24.9125 8.77644 24.9538 8.77644 24.9745C8.77644 25.0158 8.77644 25.0366 8.77644 25.0572C8.77644 25.0778 8.77644 25.0986 8.77644 25.1192C8.73465 25.7394 8.73465 26.2976 8.77644 26.8144C8.77644 26.9177 8.73465 27.0211 8.67196 27.1037C8.60928 27.1658 8.52569 27.2071 8.42122 27.2071C8.40033 27.2071 8.37943 27.2071 8.35854 27.2071Z" fill="#4692CF"/>
<path d="M9.74209 20.5731C9.65851 20.5731 9.57492 20.5524 9.51224 20.4904C8.88539 19.9943 8.4048 19.3327 8.11227 18.5886C7.56899 17.1829 7.73616 15.5911 8.59286 14.3301C8.69733 14.1647 8.82271 14.02 8.94807 13.8753C9.82567 12.883 11.1003 12.3042 12.4376 12.3042C13.0226 12.3042 13.5868 12.4076 14.1301 12.6143C14.4435 12.7176 14.736 12.883 15.0495 13.0897C15.4255 13.3378 15.7808 13.6479 16.0524 13.9993C16.1151 14.082 16.136 14.1854 16.1151 14.2887C16.0942 14.3921 16.0106 14.4748 15.9271 14.5368C15.3838 14.8055 14.9032 15.0743 14.4226 15.405L14.2763 15.5084C14.2136 15.5497 14.151 15.5704 14.0882 15.5704C14.0047 15.5704 13.9002 15.5291 13.8375 15.4671C13.754 15.3844 13.6703 15.3224 13.5659 15.2603C13.2315 15.0329 12.8346 14.9089 12.4376 14.9089C11.7689 14.9089 11.1212 15.2397 10.745 15.7978C10.2227 16.5834 10.3063 17.6376 10.954 18.2991C11.0794 18.4232 11.0794 18.6092 10.9958 18.754C10.9749 18.7746 10.9749 18.7952 10.954 18.816L10.9122 18.878C10.557 19.4155 10.2645 19.9116 10.0346 20.4077C9.99283 20.5111 9.88835 20.5731 9.78388 20.5938C9.80477 20.5731 9.76298 20.5731 9.74209 20.5731Z" fill="#1DAE4B"/>
<path d="M14.255 15.4704C14.2132 15.4704 14.1923 15.4704 14.1505 15.4497C14.046 15.4084 13.9625 15.3464 13.9207 15.243C13.6281 14.4988 13.5446 13.6926 13.6699 12.9071C13.8998 11.4187 14.861 10.1163 16.24 9.45479C16.5534 9.31009 16.8878 9.18605 17.243 9.10336C17.5773 9.02067 17.9326 9 18.2669 9C19.6669 9 21.025 9.64084 21.9026 10.7365C22.1325 11.0052 22.3206 11.2946 22.4668 11.6047C22.6549 11.9975 22.8011 12.4316 22.8847 12.8657C22.9056 12.9691 22.8639 13.0724 22.8011 13.1551C22.7385 13.2378 22.634 13.2792 22.5295 13.2792H22.5086C22.2161 13.2585 21.9235 13.2585 21.631 13.2585C21.3385 13.2585 21.0459 13.2792 20.7743 13.2998L20.6908 12.9484L20.7325 13.2998C20.7116 13.2998 20.6907 13.2998 20.6699 13.2998C20.6489 13.2998 20.6071 13.2998 20.5862 13.2998C20.44 13.2998 20.2937 13.1965 20.252 13.0518C20.2101 12.9484 20.1683 12.845 20.1266 12.7417C19.7923 12.0388 19.0818 11.6047 18.3086 11.6047C17.9952 11.6047 17.7027 11.6667 17.431 11.8114C16.5743 12.2249 16.1146 13.1758 16.3445 14.0854C16.3863 14.2507 16.3028 14.4161 16.1565 14.4988L16.1146 14.5195C16.0729 14.5402 16.052 14.5608 16.0311 14.5608C15.4669 14.8296 14.9864 15.119 14.5057 15.4291C14.4013 15.4497 14.3177 15.4704 14.255 15.4704Z" fill="#FFC113"/>
<path d="M30.7165 18.1997C30.424 18.6338 29.818 18.7579 29.4001 18.4478C28.9613 18.1584 28.8359 17.5589 29.1493 17.1454C29.4419 16.7113 30.0478 16.5873 30.4866 16.8973C30.9045 17.1868 31.0299 17.7656 30.7165 18.1997Z" fill="#EE538C"/>
<path d="M33.4347 23.7399C32.9542 23.9673 32.39 23.7606 32.1602 23.3058C31.9303 22.8303 32.1393 22.2722 32.599 22.0448C33.0796 21.8174 33.6438 22.0034 33.8735 22.4789C34.1243 22.9544 33.9154 23.5125 33.4347 23.7399Z" fill="#4692CF"/>
<path d="M10.2597 22.0854C10.7821 22.1267 11.1791 22.5608 11.1373 23.0983C11.0955 23.6358 10.6567 24.0079 10.1135 23.9872C9.59108 23.9459 9.19408 23.4911 9.21497 22.9743C9.23587 22.4574 9.73735 22.0441 10.2597 22.0854Z" fill="#4692CF"/>
<path d="M13.7528 16.9806C14.1916 17.27 14.317 17.8695 14.0036 18.3036C13.7111 18.7377 13.1051 18.8618 12.6663 18.5516C12.2275 18.2623 12.1021 17.6628 12.4155 17.2286C12.729 16.7945 13.3349 16.6912 13.7528 16.9806Z" fill="#1DAE4B"/>
<path d="M19.371 14.289C19.6009 14.7644 19.3918 15.3226 18.9322 15.55C18.4516 15.7774 17.8874 15.5913 17.6575 15.1159C17.4278 14.6404 17.6158 14.0822 18.0963 13.8549C18.5561 13.6275 19.1412 13.8135 19.371 14.289Z" fill="#FFC113"/>
<path d="M25.5727 14.7468C25.5308 15.2636 25.0712 15.6564 24.5488 15.6151C24.0264 15.5737 23.6294 15.1396 23.6503 14.6021C23.6921 14.0647 24.1518 13.6926 24.6742 13.7132C25.2174 13.7546 25.6144 14.2094 25.5727 14.7468Z" fill="#EF3D3B"/>
<path d="M33.5102 20.5524C33.4893 20.5524 33.4684 20.5524 33.4266 20.5524C33.3221 20.5318 33.2386 20.4697 33.1759 20.3664C32.9252 19.8496 32.6327 19.3535 32.3192 18.878C32.2983 18.8574 32.2983 18.8366 32.2774 18.816C32.2565 18.7952 32.2565 18.7952 32.2565 18.7746C32.152 18.6299 32.152 18.4232 32.2774 18.2991C32.361 18.2165 32.4236 18.1337 32.4864 18.0511C33.1132 17.1208 32.8833 15.8805 31.9431 15.2603C31.6088 15.0329 31.2118 14.9089 30.8147 14.9089C30.2924 14.9089 29.7909 15.1156 29.4148 15.4671C29.3521 15.5291 29.2476 15.5704 29.164 15.5704C29.0804 15.5704 28.9969 15.5497 28.9133 15.4671C28.8924 15.4671 28.8506 15.4257 28.8506 15.4257C28.3282 15.0743 27.8058 14.7849 27.3252 14.5575C27.2207 14.5161 27.1581 14.4128 27.1372 14.3094C27.1163 14.206 27.1372 14.082 27.1998 13.9993C27.7014 13.3792 28.37 12.9037 29.1222 12.6143C29.6655 12.4076 30.2297 12.3042 30.8147 12.3042C31.7551 12.3042 32.6535 12.5729 33.4266 13.0898C33.5938 13.2138 33.74 13.3171 33.8863 13.4412C35.349 14.7229 35.8714 16.7901 35.1401 18.5886C35.0147 18.8986 34.8475 19.2087 34.6595 19.4981C34.4087 19.8702 34.1162 20.201 33.74 20.4904C33.6774 20.5318 33.5938 20.5524 33.5102 20.5524Z" fill="#EE538C"/>
<path d="M68.4425 25.9778C68.4425 21.2889 64.8115 18 60.2442 18C55.6997 18 52 21.2889 52 25.9778C52 30.6667 55.6997 33.9778 60.2442 33.9778C64.7887 33.9778 68.4425 30.6667 68.4425 25.9778ZM55.9965 25.9778C55.9965 23.2 57.6408 21.4444 60.2442 21.4444C62.8019 21.4444 64.469 23.2 64.469 25.9778C64.469 28.7111 62.8019 30.5111 60.2442 30.5111C57.6408 30.5111 55.9965 28.7111 55.9965 25.9778ZM70.3866 27.6H76.8603V24.4444H70.3866V27.6ZM79.6253 26C79.6253 30.6667 82.9594 33.9333 87.6866 33.9333C91.5003 33.9333 94.3778 31.8667 95.2912 28.4889H90.9979C90.3357 29.8222 89.1253 30.4889 87.6409 30.4889C85.2431 30.4889 83.5989 28.7556 83.5989 26C83.5989 23.2444 85.2431 21.5111 87.6409 21.5111C89.1253 21.5111 90.3357 22.1778 90.9979 23.5111H95.2912C94.3778 20.1333 91.5003 18.0444 87.6866 18.0444C82.9594 18.0444 79.6253 21.3333 79.6253 26ZM110.151 27.6222C110.151 23.6889 107.274 21.2444 103.529 21.2444C99.8066 21.2444 96.9063 23.6889 96.9063 27.6222C96.9063 31.5556 99.738 34 103.483 34C107.228 34 110.151 31.5556 110.151 27.6222ZM100.88 27.6222C100.88 25.5111 102.113 24.5333 103.529 24.5333C104.899 24.5333 106.178 25.5111 106.178 27.6222C106.178 29.7111 104.876 30.7111 103.483 30.7111C102.067 30.7111 100.88 29.7111 100.88 27.6222ZM121.015 33.8222H124.897V26.5778C124.897 23.2444 122.933 21.2889 119.987 21.2889C118.274 21.2889 116.904 22.0222 116.128 23.0667V21.4222H112.223V33.8222H116.128V27.0889C116.128 25.4 117.087 24.4667 118.571 24.4667C120.056 24.4667 121.015 25.4 121.015 27.0889V33.8222ZM136.403 33.8222H140.285V26.5778C140.285 23.2444 138.321 21.2889 135.375 21.2889C133.663 21.2889 132.292 22.0222 131.516 23.0667V21.4222H127.611V33.8222H131.516V27.0889C131.516 25.4 132.475 24.4667 133.959 24.4667C135.444 24.4667 136.403 25.4 136.403 27.0889V33.8222ZM148.617 24.2889C149.918 24.2889 151.015 25.0667 151.015 26.4222H146.128C146.356 25.0444 147.338 24.2889 148.617 24.2889ZM154.714 29.7111H150.558C150.238 30.3778 149.622 30.9111 148.525 30.9111C147.269 30.9111 146.242 30.1556 146.105 28.5333H154.943C154.988 28.1556 155.011 27.7778 155.011 27.4222C155.011 23.6444 152.385 21.2444 148.662 21.2444C144.872 21.2444 142.223 23.6889 142.223 27.6222C142.223 31.5556 144.917 34 148.662 34C151.837 34 154.098 32.1333 154.714 29.7111ZM156.295 27.6222C156.295 31.5556 158.944 34 162.689 34C165.886 34 168.147 32.2 168.81 29.3333H164.653C164.311 30.2444 163.694 30.7556 162.621 30.7556C161.228 30.7556 160.269 29.6889 160.269 27.6222C160.269 25.5556 161.228 24.4889 162.621 24.4889C163.694 24.4889 164.334 25.0444 164.653 25.9111H168.81C168.147 22.9556 165.886 21.2444 162.689 21.2444C158.944 21.2444 156.295 23.7111 156.295 27.6222ZM171.514 29.5111C171.514 32.7333 173.364 33.8222 176.013 33.8222H178V30.6H176.607C175.739 30.6 175.419 30.2889 175.419 29.5556V24.5778H177.977V21.4222H175.419V18.4H171.514V21.4222H169.961V24.5778H171.514V29.5111Z" fill="#0996FF"/>
</svg>
