<svg width="24" height="25" viewBox="0 0 24 25" fill="none" xmlns="http://www.w3.org/2000/svg">
<path d="M12 14.833C12.5523 14.833 13 15.2807 13 15.833V17.4188L16.7071 21.1259C17.0976 21.5164 17.0976 22.1496 16.7071 22.5401C16.3166 22.9306 15.6834 22.9306 15.2929 22.5401L13 20.2472V20.833C13 21.3853 12.5523 21.833 12 21.833C11.4477 21.833 11 21.3853 11 20.833V20.2472L8.70711 22.5401C8.31658 22.9306 7.68342 22.9306 7.29289 22.5401C6.90237 22.1496 6.90237 21.5164 7.29289 21.1259L11 17.4188V15.833C11 15.2807 11.4477 14.833 12 14.833Z" fill="#9FCBFF"/>
<path d="M2 4.83301C2 3.72844 2.89543 2.83301 4 2.83301H20C21.1046 2.83301 22 3.72844 22 4.83301V14.833C22 15.9376 21.1046 16.833 20 16.833H4C2.89543 16.833 2 15.9376 2 14.833V4.83301Z" fill="#0075FF"/>
<path d="M4 6.83301H20V14.833H4V6.83301Z" fill="#9FCBFF"/>
<path fill-rule="evenodd" clip-rule="evenodd" d="M1 3.83301C1 3.28072 1.44772 2.83301 2 2.83301H22C22.5523 2.83301 23 3.28072 23 3.83301C23 4.38529 22.5523 4.83301 22 4.83301H2C1.44772 4.83301 1 4.38529 1 3.83301Z" fill="#9FCBFF"/>
</svg>
