<svg width="18" height="16" viewBox="0 0 18 16" fill="none" xmlns="http://www.w3.org/2000/svg">
<g id="Frame" clip-path="url(#clip0_1704_68554)">
<path id="Vector" d="M12.6972 1.48032C12.4142 0.971767 12.4385 0.558694 12.7492 0.238276C13.0113 -0.0321369 13.4452 -0.076671 13.7473 0.135809C14.0831 0.371878 14.2146 0.795895 14.0729 1.18576C13.9158 1.61845 13.566 1.78093 12.9529 1.69243C12.7981 2.05266 12.6405 2.41912 12.4602 2.83861C12.735 2.83861 12.9634 2.83616 13.1917 2.83899C14.5951 2.85654 15.7426 3.84421 15.9972 5.27836C16.0573 5.6169 16.0461 5.96958 16.0684 6.32378C16.2175 6.3402 16.3603 6.35171 16.502 6.37247C17.3457 6.49607 17.9841 7.25636 17.9965 8.15666C18.002 8.55634 18.0011 8.95601 17.9969 9.35568C17.9853 10.4275 17.2628 11.202 16.2561 11.2269C16.2006 11.2282 16.1452 11.2344 16.0652 11.2401C16.0589 11.3597 16.052 11.4752 16.0472 11.5909C16.0244 12.1247 16.0621 12.6706 15.968 13.1898C15.7273 14.5156 14.5768 15.4961 13.302 15.5112C12.2357 15.5238 11.1692 15.5089 10.1029 15.522C9.97732 15.5235 9.82626 15.5933 9.73249 15.6842C9.29622 16.1071 8.67243 16.1081 8.26267 15.6656C7.87017 15.2417 7.87995 14.5728 8.28455 14.1548C8.7016 13.724 9.33181 13.7442 9.75189 14.1823C9.83622 14.2703 9.98088 14.3373 10.0985 14.3388C11.1246 14.3505 12.151 14.3467 13.1773 14.3444C14.1843 14.3422 14.9337 13.5691 14.9377 12.5025C14.9455 10.2832 14.9455 8.06363 14.9384 5.8441C14.935 4.80264 14.2005 4.02103 13.2161 4.01839C10.4018 4.01065 7.58745 4.01103 4.77323 4.01801C3.78095 4.02046 3.0536 4.8268 3.05128 5.90524C3.04755 7.57187 3.05004 9.23869 3.05004 10.9055C3.05004 10.9983 3.05004 11.0912 3.05004 11.2252C2.76536 11.2252 2.49652 11.228 2.22785 11.2244C1.83731 11.2191 1.44072 11.2731 1.06832 11.0853C0.420504 10.7587 0.0381462 10.2352 0.0103901 9.4606C-0.00455547 9.04451 0.00149393 8.62729 0.00683164 8.21063C0.0205318 7.16408 0.719772 6.40058 1.70867 6.34567C1.77877 6.34171 1.8487 6.33605 1.95349 6.3285C1.87467 5.27232 2.13604 4.35787 2.87656 3.62079C3.62011 2.88088 4.52627 2.78219 5.53777 2.85107C5.36305 2.43554 5.20932 2.07002 5.05719 1.7079C4.3197 1.72469 4.03146 1.57468 3.9046 1.11424C3.79856 0.728716 3.94535 0.329419 4.26899 0.123166C4.59175 -0.0825208 4.9919 -0.0289289 5.26252 0.25658C5.56036 0.570771 5.58029 0.967804 5.30451 1.47712C5.43012 1.60166 5.56143 1.73356 5.69434 1.86339C5.97742 2.13965 6.25533 2.42271 6.54891 2.68595C6.63769 2.76558 6.7706 2.8322 6.88376 2.83295C8.29487 2.8422 9.70598 2.83937 11.1171 2.83522C11.2005 2.83503 11.3071 2.82465 11.3633 2.77181C11.8115 2.34949 12.2503 1.91566 12.6979 1.47976L12.6972 1.48032Z" fill="#1D9BF0"/>
<path id="Vector_2" d="M3.92261 11.2256V10.4931C4.01139 10.4883 4.0895 10.4806 4.16761 10.4806C7.39016 10.48 10.6127 10.4817 13.8353 10.4761C14.0303 10.4757 14.1157 10.524 14.0922 10.7433C14.0764 10.8922 14.0892 11.0443 14.0892 11.2122C13.9821 11.2177 13.9041 11.2249 13.8264 11.225C13.4657 11.2264 13.1028 11.2516 12.7446 11.2198C12.1233 11.1645 11.5536 11.205 11.2079 11.867C9.81419 13.2559 7.60509 13.0623 6.42973 11.4396C6.31408 11.28 6.19896 11.2181 6.01179 11.2211C5.32358 11.2322 4.63501 11.2254 3.92261 11.2254V11.2256Z" fill="#FFC10E"/>
<path id="Vector_3" d="M12.9944 7.60762C12.9916 8.40301 12.3948 9.03252 11.6502 9.02535C10.9327 9.01837 10.3315 8.38433 10.3279 7.63027C10.3242 6.83696 10.9195 6.18763 11.6524 6.18555C12.3972 6.18348 12.9973 6.81941 12.9946 7.60762H12.9944ZM11.0647 7.59838C11.0611 7.96371 11.3237 8.25167 11.6625 8.25374C11.9924 8.25582 12.2722 7.9554 12.2706 7.60121C12.2692 7.25928 11.9965 6.96395 11.6774 6.95886C11.3348 6.95339 11.0684 7.23154 11.0647 7.59819V7.59838Z" fill="#FFC10E"/>
<path id="Vector_4" d="M5.01298 7.58391C5.0185 6.8057 5.61721 6.17845 6.3483 6.18486C7.09237 6.19147 7.67579 6.82948 7.66725 7.62731C7.65871 8.41987 7.05839 9.03693 6.3072 9.02542C5.58483 9.01429 5.00729 8.37118 5.01298 7.58372V7.58391ZM5.735 7.61033C5.73855 7.96208 6.00419 8.2506 6.32517 8.25192C6.67977 8.25325 6.94968 7.96358 6.94221 7.58939C6.93527 7.23896 6.66981 6.95949 6.34243 6.95817C6.01024 6.95685 5.73126 7.25632 5.735 7.61033Z" fill="#FFC10E"/>
</g>
<defs>
<clipPath id="clip0_1704_68554">
<rect width="18" height="16" fill="white"/>
</clipPath>
</defs>
</svg>
