<svg width="24" height="25" viewBox="0 0 24 25" fill="none" xmlns="http://www.w3.org/2000/svg">
<path d="M12 14.1665C12.5523 14.1665 13 14.6142 13 15.1665V16.7523L16.7071 20.4594C17.0976 20.8499 17.0976 21.4831 16.7071 21.8736C16.3166 22.2641 15.6834 22.2641 15.2929 21.8736L13 19.5807V20.1665C13 20.7188 12.5523 21.1665 12 21.1665C11.4477 21.1665 11 20.7188 11 20.1665V19.5807L8.70711 21.8736C8.31658 22.2641 7.68342 22.2641 7.29289 21.8736C6.90237 21.4831 6.90237 20.8499 7.29289 20.4594L11 16.7523V15.1665C11 14.6142 11.4477 14.1665 12 14.1665Z" fill="#9FCBFF"/>
<path d="M2 4.1665H22V13.1665C22 14.8234 20.6569 16.1665 19 16.1665H5C3.34315 16.1665 2 14.8234 2 13.1665V4.1665Z" fill="#0075FF"/>
<circle cx="8" cy="10.1665" r="3" fill="#9FCBFF"/>
<path fill-rule="evenodd" clip-rule="evenodd" d="M1 3.1665C1 2.61422 1.44772 2.1665 2 2.1665H22C22.5523 2.1665 23 2.61422 23 3.1665C23 3.71879 22.5523 4.1665 22 4.1665H2C1.44772 4.1665 1 3.71879 1 3.1665Z" fill="#9FCBFF"/>
<path fill-rule="evenodd" clip-rule="evenodd" d="M14 8.1665C14 7.61422 14.4477 7.1665 15 7.1665H18C18.5523 7.1665 19 7.61422 19 8.1665C19 8.71879 18.5523 9.1665 18 9.1665H15C14.4477 9.1665 14 8.71879 14 8.1665Z" fill="#9FCBFF"/>
<path fill-rule="evenodd" clip-rule="evenodd" d="M14 12.1665C14 11.6142 14.4477 11.1665 15 11.1665H18C18.5523 11.1665 19 11.6142 19 12.1665C19 12.7188 18.5523 13.1665 18 13.1665H15C14.4477 13.1665 14 12.7188 14 12.1665Z" fill="#9FCBFF"/>
</svg>
