<svg width="24" height="25" viewBox="0 0 24 25" fill="none" xmlns="http://www.w3.org/2000/svg">
<path d="M22 13.5C22 15.1569 20.6569 16.5 19 16.5H9C7.34315 16.5 6 15.1569 6 13.5V7.5C6 5.84315 7.34315 4.5 9 4.5H16L18.8906 2.57293C20.2197 1.68686 22 2.63964 22 4.23703V13.5Z" fill="#9FCBFF"/>
<path d="M2 11.5C2 9.84315 3.34315 8.5 5 8.5H15C16.6569 8.5 18 9.84315 18 11.5V17.5C18 19.1569 16.6569 20.5 15 20.5H7L5.24939 21.9005C3.93986 22.9481 2 22.0158 2 20.3388V11.5Z" fill="#0075FF"/>
<path d="M8.67963 12.79C8.30428 12.79 7.98646 12.478 8.10189 12.1209C8.21597 11.7679 8.42587 11.4512 8.73157 11.1709C9.21929 10.7236 9.80968 10.5 10.5028 10.5C11.1922 10.5 11.7807 10.7236 12.2684 11.1709C12.7561 11.6181 13 12.1578 13 12.79C13 13.5029 12.8166 14.0528 12.4499 14.4395C12.2299 14.6681 11.8431 14.9018 11.2893 15.1406C10.9116 15.302 10.7228 15.4668 10.7228 15.6349V15.7407C10.7228 16.1113 10.4223 16.4117 10.0517 16.4117C9.68109 16.4117 9.38064 16.1064 9.38064 15.7358C9.38064 15.2785 9.51632 14.9203 9.78768 14.6614C9.9527 14.5034 10.2644 14.3251 10.7228 14.1267C11.0601 13.9317 11.2893 13.7736 11.4103 13.6526C11.612 13.4475 11.7129 13.1599 11.7129 12.79C11.7129 12.4639 11.5992 12.1965 11.3718 11.988C11.1481 11.7829 10.8585 11.6803 10.5028 11.6803C10.1801 11.6803 9.90686 11.7829 9.68317 11.988C9.6058 12.059 9.53948 12.1367 9.48419 12.2213C9.29489 12.5109 9.02559 12.79 8.67963 12.79ZM9.38064 17.8821C9.38064 17.5408 9.65728 17.2642 9.99854 17.2642H10.1104C10.4516 17.2642 10.7283 17.5408 10.7283 17.8821C10.7283 18.2234 10.4516 18.5 10.1104 18.5H9.99854C9.65728 18.5 9.38064 18.2234 9.38064 17.8821Z" fill="#9FCBFF"/>
</svg>
