<svg width="25" height="25" viewBox="0 0 25 25" fill="none" xmlns="http://www.w3.org/2000/svg">
<path d="M2.33203 6.16699C2.33203 4.51014 3.67518 3.16699 5.33203 3.16699H19.332C20.9889 3.16699 22.332 4.51014 22.332 6.16699V16.167C22.332 17.8238 20.9889 19.167 19.332 19.167H8.33203L5.6124 21.4334C4.30974 22.5189 2.33203 21.5926 2.33203 19.8969V6.16699Z" fill="#0075FF"/>
<path fill-rule="evenodd" clip-rule="evenodd" d="M7.33203 9.16699C7.33203 8.61471 7.77975 8.16699 8.33203 8.16699H16.332C16.8843 8.16699 17.332 8.61471 17.332 9.16699C17.332 9.71928 16.8843 10.167 16.332 10.167H8.33203C7.77975 10.167 7.33203 9.71928 7.33203 9.16699Z" fill="#9FCBFF"/>
<path fill-rule="evenodd" clip-rule="evenodd" d="M7.33203 13.167C7.33203 12.6147 7.77975 12.167 8.33203 12.167H12.332C12.8843 12.167 13.332 12.6147 13.332 13.167C13.332 13.7193 12.8843 14.167 12.332 14.167H8.33203C7.77975 14.167 7.33203 13.7193 7.33203 13.167Z" fill="#9FCBFF"/>
</svg>
