<svg width="25" height="25" viewBox="0 0 25 25" fill="none" xmlns="http://www.w3.org/2000/svg">
<path fill-rule="evenodd" clip-rule="evenodd" d="M2.33203 5.83398C2.33203 4.17713 3.67518 2.83398 5.33203 2.83398H7.33203C7.88432 2.83398 8.33203 3.2817 8.33203 3.83398C8.33203 4.38627 7.88432 4.83398 7.33203 4.83398H5.33203C4.77975 4.83398 4.33203 5.2817 4.33203 5.83398V7.83398C4.33203 8.38627 3.88432 8.83398 3.33203 8.83398C2.77975 8.83398 2.33203 8.38627 2.33203 7.83398V5.83398Z" fill="#0075FF"/>
<path fill-rule="evenodd" clip-rule="evenodd" d="M2.33203 19.834C2.33203 21.4908 3.67518 22.834 5.33203 22.834H7.33203C7.88432 22.834 8.33203 22.3863 8.33203 21.834C8.33203 21.2817 7.88432 20.834 7.33203 20.834H5.33203C4.77975 20.834 4.33203 20.3863 4.33203 19.834V17.834C4.33203 17.2817 3.88432 16.834 3.33203 16.834C2.77975 16.834 2.33203 17.2817 2.33203 17.834V19.834Z" fill="#0075FF"/>
<path fill-rule="evenodd" clip-rule="evenodd" d="M22.332 19.834C22.332 21.4908 20.9889 22.834 19.332 22.834H17.332C16.7797 22.834 16.332 22.3863 16.332 21.834C16.332 21.2817 16.7797 20.834 17.332 20.834H19.332C19.8843 20.834 20.332 20.3863 20.332 19.834V17.834C20.332 17.2817 20.7797 16.834 21.332 16.834C21.8843 16.834 22.332 17.2817 22.332 17.834V19.834Z" fill="#0075FF"/>
<circle cx="12.332" cy="12.834" r="5" fill="#9FCBFF"/>
<circle cx="19.332" cy="5.83398" r="3" fill="#9FCBFF"/>
</svg>
