<svg width="24" height="24" viewBox="0 0 24 24" fill="none" xmlns="http://www.w3.org/2000/svg">
<path fill-rule="evenodd" clip-rule="evenodd" d="M3 15.3592C3 14.5948 3.32487 13.8663 3.8938 13.3549L10.1938 7.69222C11.2206 6.76926 12.7794 6.76926 13.8062 7.69222L20.1062 13.3549C20.6751 13.8663 21 14.5948 21 15.3592V21.3035C21 22.7927 19.7912 24 18.3 24H15.6L15.595 24H8.40503L8.4 24H5.7C4.20883 24 3 22.7927 3 21.3035V15.3592Z" fill="#9296A5"/>
<path d="M10 18C10 16.8954 10.8954 16 12 16H13C14.1046 16 15 16.8954 15 18V24H10V18Z" fill="#D7D7E8"/>
<path d="M10.6578 2.21489L1.26967 10.7128C0.545217 11.3686 0.425015 12.4622 0.989749 13.2597C1.64968 14.1915 2.96987 14.3501 3.83165 13.6009L10.6879 7.64067C11.4403 6.98653 12.5597 6.98653 13.3121 7.64067L20.1683 13.6009C21.0301 14.3501 22.3503 14.1915 23.0103 13.2597C23.575 12.4622 23.4548 11.3686 22.7303 10.7128L13.3422 2.21489C12.5803 1.52525 11.4197 1.52525 10.6578 2.21489Z" fill="#D7D7E8"/>
</svg>
