<svg width="16" height="16" viewBox="0 0 16 16" fill="none" xmlns="http://www.w3.org/2000/svg">
<g id="Group 283307">
<path id="Oval" fill-rule="evenodd" clip-rule="evenodd" d="M8.00384 12.4022C10.4343 12.4022 12.4047 10.4319 12.4047 8.0014C12.4047 5.5709 10.4343 3.60059 8.00384 3.60059C5.57334 3.60059 3.60303 5.5709 3.60303 8.0014C3.60303 10.4319 5.57334 12.4022 8.00384 12.4022Z" fill="#FFC10E"/>
<path id="Path (Stroke)" fill-rule="evenodd" clip-rule="evenodd" d="M7.99986 0C8.44177 0 8.8 0.358239 8.8 0.800148V1.6003C8.8 2.04221 8.44177 2.40045 7.99986 2.40045C7.55795 2.40045 7.19971 2.04221 7.19971 1.6003V0.800148C7.19971 0.358239 7.55795 0 7.99986 0Z" fill="#1D9BF0"/>
<path id="Path (Stroke)_2" fill-rule="evenodd" clip-rule="evenodd" d="M7.99986 13.6021C8.44177 13.6021 8.8 13.9603 8.8 14.4022V15.1998C8.8 15.6417 8.44177 15.9999 7.99986 15.9999C7.55795 15.9999 7.19971 15.6417 7.19971 15.1998V14.4022C7.19971 13.9603 7.55795 13.6021 7.99986 13.6021Z" fill="#1D9BF0"/>
<path id="Path (Stroke)_3" fill-rule="evenodd" clip-rule="evenodd" d="M2.34313 2.34315C2.65561 2.03067 3.16224 2.03067 3.47472 2.34315L4.16642 3.03485C4.4789 3.34733 4.4789 3.85395 4.16642 4.16643C3.85394 4.47891 3.34732 4.47891 3.03484 4.16643L2.34313 3.47473C2.03066 3.16225 2.03066 2.65562 2.34313 2.34315Z" fill="#1D9BF0"/>
<path id="Path (Stroke)_4" fill-rule="evenodd" clip-rule="evenodd" d="M11.8388 11.839C12.1512 11.5265 12.6579 11.5265 12.9703 11.839L13.6567 12.5254C13.9692 12.8379 13.9692 13.3445 13.6567 13.657C13.3442 13.9694 12.8376 13.9694 12.5251 13.657L11.8387 12.9706C11.5263 12.6581 11.5263 12.1514 11.8388 11.839Z" fill="#1D9BF0"/>
<path id="Path (Stroke)_5" fill-rule="evenodd" clip-rule="evenodd" d="M0 8.00014C0 7.55823 0.358239 7.2 0.800148 7.2H1.6003C2.04221 7.2 2.40045 7.55823 2.40045 8.00014C2.40045 8.44205 2.04221 8.80029 1.6003 8.80029H0.800148C0.358239 8.80029 0 8.44205 0 8.00014Z" fill="#1D9BF0"/>
<path id="Path (Stroke)_6" fill-rule="evenodd" clip-rule="evenodd" d="M13.6021 8.00014C13.6021 7.55823 13.9603 7.2 14.4022 7.2H15.1998C15.6417 7.2 15.9999 7.55823 15.9999 8.00014C15.9999 8.44205 15.6417 8.80029 15.1998 8.80029H14.4022C13.9603 8.80029 13.6021 8.44205 13.6021 8.00014Z" fill="#1D9BF0"/>
<path id="Path (Stroke)_7" fill-rule="evenodd" clip-rule="evenodd" d="M2.34315 13.6569C2.03067 13.3444 2.03067 12.8378 2.34315 12.5253L3.03202 11.8364C3.3445 11.5239 3.85112 11.5239 4.1636 11.8364C4.47608 12.1489 4.47608 12.6555 4.1636 12.968L3.47473 13.6569C3.16225 13.9693 2.65562 13.9693 2.34315 13.6569Z" fill="#1D9BF0"/>
<path id="Path (Stroke)_8" fill-rule="evenodd" clip-rule="evenodd" d="M11.8336 4.16661C11.5211 3.85413 11.5211 3.3475 11.8336 3.03503L12.5254 2.3433C12.8379 2.03083 13.3445 2.03084 13.657 2.34332C13.9694 2.65581 13.9694 3.16243 13.6569 3.4749L12.9652 4.16663C12.6527 4.4791 12.1461 4.47909 11.8336 4.16661Z" fill="#1D9BF0"/>
</g>
</svg>
