<svg width="24" height="24" viewBox="0 0 24 24" fill="none" xmlns="http://www.w3.org/2000/svg">
<rect x="4" y="22" width="20" height="18" rx="3" transform="rotate(-90 4 22)" fill="#9296A5"/>
<path fill-rule="evenodd" clip-rule="evenodd" d="M13.5 11C14.3284 11 15 10.3284 15 9.5C15 8.67157 14.3284 8 13.5 8C12.6716 8 12 8.67157 12 9.5C12 10.3284 12.6716 11 13.5 11Z" fill="#D7D7E8"/>
<path fill-rule="evenodd" clip-rule="evenodd" d="M13.5 16C14.555 16 15.3967 16 16.0006 16C16.5529 16 17.0119 15.5468 16.8915 15.0078C16.5053 13.2786 15.1333 12 13.5 12C11.8667 12 10.4947 13.2786 10.1085 15.0078C9.98814 15.5468 10.448 16 11.0003 16C11.6553 16 12.1415 16 13.5 16Z" fill="#D7D7E8"/>
<path fill-rule="evenodd" clip-rule="evenodd" d="M2 18C2 17.4477 2.44772 17 3 17L7 17C7.55228 17 8 17.4477 8 18C8 18.5523 7.55228 19 7 19L3 19C2.44772 19 2 18.5523 2 18Z" fill="#D7D7E8"/>
<path fill-rule="evenodd" clip-rule="evenodd" d="M2 6C2 5.44772 2.44772 5 3 5L7 5C7.55228 5 8 5.44772 8 6C8 6.55228 7.55228 7 7 7L3 7C2.44772 7 2 6.55228 2 6Z" fill="#D7D7E8"/>
<path fill-rule="evenodd" clip-rule="evenodd" d="M2 12C2 11.4477 2.44772 11 3 11L7 11C7.55228 11 8 11.4477 8 12C8 12.5523 7.55228 13 7 13L3 13C2.44772 13 2 12.5523 2 12Z" fill="#D7D7E8"/>
</svg>
