<svg width="24" height="25" viewBox="0 0 24 25" fill="none" xmlns="http://www.w3.org/2000/svg">
<path fill-rule="evenodd" clip-rule="evenodd" d="M2 6.66602C2 6.11373 2.44772 5.66602 3 5.66602H11C11.5523 5.66602 12 6.11373 12 6.66602C12 7.2183 11.5523 7.66602 11 7.66602H3C2.44772 7.66602 2 7.2183 2 6.66602Z" fill="#9FCBFF"/>
<path d="M3 10.666H11" stroke="#9FCBFF" stroke-width="2" stroke-linecap="round"/>
<path d="M3 14.666H6" stroke="#9FCBFF" stroke-width="2" stroke-linecap="round"/>
<path d="M16.2724 4.09858C14.9369 4.43245 14 5.6324 14 7.00901V14.2018C13.4117 13.8614 12.7286 13.6666 12 13.6666C9.79086 13.6666 8 15.4575 8 17.6666C8 19.8758 9.79086 21.6666 12 21.6666C14.2091 21.6666 16 19.8758 16 17.6666V10.1667L19.7955 9.21781C21.0911 8.89391 22 7.72978 22 6.39428C22 4.50084 20.2206 3.11153 18.3837 3.57075L16.2724 4.09858Z" fill="#0075FF"/>
</svg>
