<svg width="24" height="24" viewBox="0 0 24 24" fill="none" xmlns="http://www.w3.org/2000/svg">
<path d="M22 13C22 14.6569 20.6569 16 19 16H9C7.34315 16 6 14.6569 6 13V7C6 5.34315 7.34315 4 9 4H16L18.8906 2.07293C20.2197 1.18686 22 2.13964 22 3.73703V13Z" fill="#D3D6F0"/>
<path d="M2 11C2 9.34315 3.34315 8 5 8H15C16.6569 8 18 9.34315 18 11V17C18 18.6569 16.6569 20 15 20H7L5.24939 21.4005C3.93986 22.4481 2 21.5158 2 19.8388V11Z" fill="#9296A5"/>
<path d="M8.67963 12.29C8.30428 12.29 7.98646 11.978 8.10189 11.6209C8.21597 11.2679 8.42587 10.9512 8.73157 10.6709C9.21929 10.2236 9.80968 10 10.5028 10C11.1922 10 11.7807 10.2236 12.2684 10.6709C12.7561 11.1181 13 11.6578 13 12.29C13 13.0029 12.8166 13.5528 12.4499 13.9395C12.2299 14.1681 11.8431 14.4018 11.2893 14.6406C10.9116 14.802 10.7228 14.9668 10.7228 15.1349V15.2407C10.7228 15.6113 10.4223 15.9117 10.0517 15.9117C9.68109 15.9117 9.38064 15.6064 9.38064 15.2358C9.38064 14.7785 9.51632 14.4203 9.78768 14.1614C9.9527 14.0034 10.2644 13.8251 10.7228 13.6267C11.0601 13.4317 11.2893 13.2736 11.4103 13.1526C11.612 12.9475 11.7129 12.6599 11.7129 12.29C11.7129 11.9639 11.5992 11.6965 11.3718 11.488C11.1481 11.2829 10.8585 11.1803 10.5028 11.1803C10.1801 11.1803 9.90686 11.2829 9.68317 11.488C9.6058 11.559 9.53948 11.6367 9.48419 11.7213C9.29489 12.0109 9.02559 12.29 8.67963 12.29ZM9.38064 17.3821C9.38064 17.0408 9.65728 16.7642 9.99854 16.7642H10.1104C10.4516 16.7642 10.7283 17.0408 10.7283 17.3821C10.7283 17.7234 10.4516 18 10.1104 18H9.99854C9.65728 18 9.38064 17.7234 9.38064 17.3821Z" fill="#D3D6F0"/>
</svg>
