<svg width="20" height="21" viewBox="0 0 20 21" fill="none" xmlns="http://www.w3.org/2000/svg">
<g id="copy 20X20">
<path id="Vector" d="M16.6667 8.12305H9.16667C8.24619 8.12305 7.5 8.86924 7.5 9.78971V17.2897C7.5 18.2102 8.24619 18.9564 9.16667 18.9564H16.6667C17.5871 18.9564 18.3333 18.2102 18.3333 17.2897V9.78971C18.3333 8.86924 17.5871 8.12305 16.6667 8.12305Z" stroke="#3B5782" stroke-width="1.5" stroke-linecap="round" stroke-linejoin="round"/>
<path id="Vector_2" d="M4.16797 13.1224H3.33464C2.89261 13.1224 2.46868 12.9468 2.15612 12.6342C1.84356 12.3217 1.66797 11.8978 1.66797 11.4557V3.95573C1.66797 3.5137 1.84356 3.08978 2.15612 2.77722C2.46868 2.46466 2.89261 2.28906 3.33464 2.28906H10.8346C11.2767 2.28906 11.7006 2.46466 12.0131 2.77722C12.3257 3.08978 12.5013 3.5137 12.5013 3.95573V4.78906" stroke="#3B5782" stroke-width="1.5" stroke-linecap="round" stroke-linejoin="round"/>
</g>
</svg>
