<svg width="20" height="21" viewBox="0 0 20 21" fill="none" xmlns="http://www.w3.org/2000/svg">
<g id="Delete -2 20X20">
<path id="Vector" d="M2.5 5.62305H4.16667H17.5" stroke="#3B5782" stroke-width="1.5" stroke-linecap="round" stroke-linejoin="round"/>
<path id="Vector_2" d="M6.66797 5.6224V3.95573C6.66797 3.5137 6.84356 3.08978 7.15612 2.77722C7.46869 2.46466 7.89261 2.28906 8.33464 2.28906H11.668C12.11 2.28906 12.5339 2.46466 12.8465 2.77722C13.159 3.08978 13.3346 3.5137 13.3346 3.95573V5.6224M15.8346 5.6224V17.2891C15.8346 17.7311 15.659 18.155 15.3465 18.4676C15.0339 18.7801 14.61 18.9557 14.168 18.9557H5.83464C5.39261 18.9557 4.96868 18.7801 4.65612 18.4676C4.34356 18.155 4.16797 17.7311 4.16797 17.2891V5.6224H15.8346Z" stroke="#3B5782" stroke-width="1.5" stroke-linecap="round" stroke-linejoin="round"/>
<path id="Vector_3" d="M8.33203 9.78906V14.7891" stroke="#3B5782" stroke-width="1.5" stroke-linecap="round" stroke-linejoin="round"/>
<path id="Vector_4" d="M11.668 9.78906V14.7891" stroke="#3B5782" stroke-width="1.5" stroke-linecap="round" stroke-linejoin="round"/>
</g>
</svg>
