<svg width="66" height="66" viewBox="0 0 66 66" fill="none" xmlns="http://www.w3.org/2000/svg">
<path d="M29.1473 4.6567C31.1469 2.23963 34.8526 2.23963 36.8523 4.6567L37.355 5.26434C38.7112 6.90361 40.9561 7.50515 42.9503 6.76359L43.6894 6.48871C46.6297 5.39529 49.839 7.24814 50.3622 10.3412L50.4937 11.1188C50.8485 13.2165 52.492 14.86 54.5897 15.2148L55.3673 15.3464C58.4604 15.8696 60.3132 19.0788 59.2198 22.0191L58.9449 22.7583C58.2034 24.7524 58.8049 26.9974 60.4442 28.3535L61.0518 28.8562C63.4689 30.8559 63.4689 34.5616 61.0518 36.5613L60.4442 37.064C58.8049 38.4201 58.2034 40.6651 58.9449 42.6592L59.2198 43.3984C60.3132 46.3387 58.4604 49.5479 55.3673 50.0712L54.5897 50.2027C52.492 50.5575 50.8485 52.201 50.4937 54.2987L50.3622 55.0763C49.839 58.1694 46.6297 60.0222 43.6894 58.9288L42.9503 58.6539C40.9561 57.9124 38.7112 58.5139 37.355 60.1532L36.8523 60.7608C34.8526 63.1779 31.1469 63.1779 29.1473 60.7608L28.6446 60.1532C27.2884 58.5139 25.0434 57.9124 23.0493 58.6539L22.3101 58.9288C19.3698 60.0222 16.1606 58.1694 15.6374 55.0763L15.5058 54.2987C15.151 52.201 13.5076 50.5575 11.4098 50.2027L10.6322 50.0712C7.53916 49.5479 5.68631 46.3387 6.77973 43.3984L7.05461 42.6592C7.79617 40.6651 7.19463 38.4201 5.55536 37.064L4.94772 36.5613C2.53064 34.5616 2.53064 30.8559 4.94772 28.8562L5.55536 28.3535C7.19463 26.9974 7.79617 24.7524 7.05461 22.7583L6.77973 22.0191C5.68631 19.0788 7.53916 15.8696 10.6322 15.3464L11.4098 15.2148C13.5075 14.86 15.151 13.2165 15.5058 11.1188L15.6374 10.3412C16.1606 7.24814 19.3698 5.39529 22.3101 6.48871L23.0493 6.76359C25.0434 7.50515 27.2884 6.90361 28.6446 5.26434L29.1473 4.6567Z" fill="#37AC00"/>
<path d="M47.4782 26.4035L31.1665 43.1534C30.6772 43.6559 30.0348 43.9089 29.3924 43.9089C28.75 43.9089 28.1077 43.6559 27.6183 43.1534L19.4627 34.7785C18.4812 33.771 18.4812 32.1422 19.4627 31.1348C20.4437 30.1269 22.0294 30.1269 23.0109 31.1348L29.3924 37.6879L43.93 22.7598C44.911 21.7519 46.4967 21.7519 47.4782 22.7598C48.4593 23.7672 48.4593 25.3956 47.4782 26.4035Z" fill="white"/>
</svg>
