<svg width="36" height="36" viewBox="0 0 36 36" fill="none" xmlns="http://www.w3.org/2000/svg">
<path d="M27.6168 1.22812H25.9165C25.9165 0.645967 25.4072 0.173828 24.7785 0.173828H4.98564C4.3572 0.173828 3.84766 0.645831 3.84766 1.22812V29.2482C3.84766 29.8305 4.3572 30.3025 4.98564 30.3025C26.5612 30.3025 24.8796 30.364 25.2512 30.2064C25.5391 30.0843 25.7623 29.8544 25.8609 29.5724H27.6167C27.6168 29.37 27.6168 1.62323 27.6168 1.22812Z" fill="#60B7FF"/>
<path d="M27.143 0.173828H24.7773C25.4059 0.173828 25.9153 0.645831 25.9153 1.22812V29.2482C25.9153 29.8305 25.4059 30.3025 24.7773 30.3025H27.143C27.7715 30.3025 28.281 29.8305 28.281 29.2482V1.22812C28.281 0.645831 27.7715 0.173828 27.143 0.173828V0.173828Z" fill="#26A6FE"/>
<path d="M28.2827 7.39698L23.0264 2.52734H7.20191C6.33319 2.52734 5.62891 3.17983 5.62891 3.98466V30.0415C5.62891 30.1311 5.63891 30.2183 5.65561 30.3034H27.1447C27.7732 30.3034 28.2827 29.8314 28.2827 29.2491V7.39698Z" fill="#26A6FE"/>
<path d="M30.1447 7.66839L27.4775 6.12554L25.1749 2.52734H9.35035C8.48163 2.52734 7.77734 3.17983 7.77734 3.98466V30.0415C7.77734 30.8463 8.48163 31.4988 9.35035 31.4988H30.1142C30.1245 31.4988 30.1345 31.4976 30.1447 31.4974V7.66839Z" fill="#EAF6FF"/>
<path d="M31.6886 8.56179L29.323 7.19336V30.0427C29.323 30.8475 28.6187 31.5 27.75 31.5H30.1157C30.9844 31.5 31.6887 30.8475 31.6887 30.0427V8.56179H31.6886Z" fill="#D8ECFE"/>
<path d="M26.7527 8.56066H31.692L25.1797 2.52734V7.10335C25.1797 7.90817 25.884 8.56066 26.7527 8.56066Z" fill="#B3DAFE"/>
<path d="M27.9127 11.8609H11.5534C11.2391 11.8609 10.9844 11.6249 10.9844 11.3338C10.9844 11.0427 11.2391 10.8066 11.5534 10.8066H27.9127C28.227 10.8066 28.4817 11.0427 28.4817 11.3338C28.4817 11.6249 28.227 11.8609 27.9127 11.8609Z" fill="#82AEE3"/>
<path d="M27.9127 15.3512H11.5534C11.2391 15.3512 10.9844 15.1151 10.9844 14.824C10.9844 14.5329 11.2391 14.2969 11.5534 14.2969H27.9127C28.227 14.2969 28.4817 14.5329 28.4817 14.824C28.4817 15.1151 28.227 15.3512 27.9127 15.3512Z" fill="#82AEE3"/>
<path d="M34.1138 17.621H32.8806C32.6166 17.1981 32.1231 16.9145 31.5666 16.9145C30.7861 16.9145 13.5626 16.9145 12.4645 16.9145L10.4671 13.8527H9.25628C9.04359 13.5892 8.70759 13.4297 8.34548 13.4297H1.68877C1.06026 13.4297 0.550781 13.9018 0.550781 14.484V33.664C0.550781 34.4404 1.23013 35.0697 2.06809 35.0697H31.5666C31.8172 35.0697 32.072 35.0096 32.2973 34.8942H32.3002C32.4915 34.7961 32.6568 34.6605 32.7862 34.4987H34.1138V17.621H34.1138Z" fill="#FDB441"/>
<path d="M9.35203 13.9972L11.0008 16.9164H13.3665L11.7177 13.9972C11.5213 13.6495 11.1329 13.4316 10.7094 13.4316H8.34375C8.76722 13.4316 9.15567 13.6495 9.35203 13.9972Z" fill="#FEA613"/>
<path d="M33.9281 16.9141H31.5625C32.4005 16.9141 33.0798 17.5434 33.0798 18.3198V33.6636C33.0798 34.44 32.4005 35.0693 31.5625 35.0693H33.9281C34.7661 35.0693 35.4454 34.4399 35.4454 33.6636V18.3198C35.4454 17.5434 34.766 16.9141 33.9281 16.9141Z" fill="#FEA613"/>
</svg>
