<svg width="38" height="38" viewBox="0 0 38 38" fill="none" xmlns="http://www.w3.org/2000/svg">
<g filter="url(#filter0_d_3982_96677)">
<path fill-rule="evenodd" clip-rule="evenodd" d="M5 10.2067C5 8.43568 6.43569 7 8.20669 7H30.5937C32.3647 7 33.8004 8.43569 33.8004 10.2067V27.7933C33.8004 29.5643 32.3647 31 30.5937 31H8.20669C6.43569 31 5 29.5643 5 27.7933V10.2067ZM15.1858 15.4314L7.34196 26.9297C6.85794 27.6392 7.36607 28.6009 8.22496 28.6009H30.5921C31.4484 28.6009 31.9571 27.6445 31.4784 26.9345L26.5807 19.6697C26.2025 19.1088 25.4049 19.0358 24.9312 19.5189L23.0337 21.4538C22.5762 21.9204 21.8107 21.8709 21.4172 21.3491L16.9221 15.3901C16.4816 14.8061 15.5979 14.8272 15.1858 15.4314ZM28.3376 12.5355C28.2666 11.26 27.1666 9.91366 25.5107 9.9609C23.9968 9.91366 22.7667 11.26 22.7312 12.63C22.6839 14.307 24.0559 15.5353 25.4043 15.5589C27.0365 15.5944 28.444 14.3425 28.3376 12.5355Z" fill="white"/>
</g>
<defs>
<filter id="filter0_d_3982_96677" x="1" y="5" width="36.8008" height="32" filterUnits="userSpaceOnUse" color-interpolation-filters="sRGB">
<feFlood flood-opacity="0" result="BackgroundImageFix"/>
<feColorMatrix in="SourceAlpha" type="matrix" values="0 0 0 0 0 0 0 0 0 0 0 0 0 0 0 0 0 0 127 0" result="hardAlpha"/>
<feOffset dy="2"/>
<feGaussianBlur stdDeviation="2"/>
<feComposite in2="hardAlpha" operator="out"/>
<feColorMatrix type="matrix" values="0 0 0 0 0 0 0 0 0 0 0 0 0 0 0 0 0 0 0.4 0"/>
<feBlend mode="normal" in2="BackgroundImageFix" result="effect1_dropShadow_3982_96677"/>
<feBlend mode="normal" in="SourceGraphic" in2="effect1_dropShadow_3982_96677" result="shape"/>
</filter>
</defs>
</svg>
