<svg width="38" height="38" viewBox="0 0 38 38" fill="none" xmlns="http://www.w3.org/2000/svg">
<g filter="url(#filter0_d_3982_96682)">
<path d="M6.00149 26.9473C6.00149 28.2874 6.55672 29.5725 7.54504 30.5201C8.53335 31.4677 9.87381 32 11.2715 32C12.6692 32 14.0096 31.4677 14.998 30.5201C15.9863 29.5725 16.5415 28.2874 16.5415 26.9473C16.5415 26.7942 16.5072 26.6482 16.4937 26.4994C16.5189 26.4265 16.5349 26.3511 16.5415 26.2747V10.5606C16.5413 10.4814 16.5702 10.4047 16.6232 10.344C16.6762 10.2832 16.7498 10.2424 16.8311 10.2285L29.4788 8.02313C29.5295 8.0155 29.5813 8.01804 29.6308 8.03061C29.6804 8.04317 29.7268 8.06548 29.7669 8.09612C29.8068 8.12756 29.8388 8.16712 29.8608 8.21193C29.8827 8.25674 29.894 8.30566 29.8938 8.35516V18.8928C28.9474 18.2154 27.7902 17.8642 26.6097 17.8962C25.4292 17.9281 24.2945 18.3413 23.3895 19.0687C22.4845 19.7962 21.8622 20.7953 21.6235 21.9042C21.3847 23.0131 21.5435 24.1668 22.074 25.1784C22.6046 26.19 23.4758 27.0002 24.5467 27.4777C25.6175 27.9553 26.8251 28.0722 27.9738 27.8095C29.1226 27.5468 30.1452 26.9199 30.8759 26.0304C31.6067 25.1409 32.0028 24.0409 32 22.9086V8.35802C32.0001 8.01265 31.9211 7.67147 31.7685 7.35861C31.6159 7.04576 31.3934 6.76887 31.1169 6.54755C30.8404 6.32623 30.5165 6.16589 30.1681 6.07786C29.8198 5.98982 29.4555 5.97626 29.1011 6.03812L16.4504 8.24353C15.8842 8.34203 15.3719 8.62787 15.0028 9.05127C14.6338 9.47467 14.4314 10.0088 14.4308 10.5606V22.9401C13.5237 22.2722 12.413 21.9082 11.2693 21.9039C9.87237 21.9058 8.53325 22.4387 7.5455 23.3857C6.55775 24.3327 6.00197 25.6166 6 26.9559L6.00149 26.9473Z" fill="white"/>
</g>
<defs>
<filter id="filter0_d_3982_96682" x="2" y="4" width="34" height="34" filterUnits="userSpaceOnUse" color-interpolation-filters="sRGB">
<feFlood flood-opacity="0" result="BackgroundImageFix"/>
<feColorMatrix in="SourceAlpha" type="matrix" values="0 0 0 0 0 0 0 0 0 0 0 0 0 0 0 0 0 0 127 0" result="hardAlpha"/>
<feOffset dy="2"/>
<feGaussianBlur stdDeviation="2"/>
<feComposite in2="hardAlpha" operator="out"/>
<feColorMatrix type="matrix" values="0 0 0 0 0 0 0 0 0 0 0 0 0 0 0 0 0 0 0.4 0"/>
<feBlend mode="normal" in2="BackgroundImageFix" result="effect1_dropShadow_3982_96682"/>
<feBlend mode="normal" in="SourceGraphic" in2="effect1_dropShadow_3982_96682" result="shape"/>
</filter>
</defs>
</svg>
