<svg width="32" height="32" viewBox="0 0 32 32" fill="none" xmlns="http://www.w3.org/2000/svg">
<path d="M16.5242 29.5734V16.6804H29.4148V25.3586C29.4129 26.4756 28.9683 27.5466 28.1794 28.3374C27.3889 29.1268 26.319 29.5713 25.2018 29.5734H16.5242ZM19.8056 24.7427C19.8054 24.8164 19.8202 24.8894 19.8483 24.9575C19.8764 25.0256 19.9173 25.0875 19.9694 25.1397C20.0214 25.1918 20.0829 25.2331 20.1509 25.2613C20.219 25.2895 20.2921 25.304 20.3657 25.304H25.5816C25.7305 25.304 25.8738 25.2449 25.9791 25.1397C26.0844 25.0344 26.1429 24.8916 26.1429 24.7427C26.1427 24.6691 26.1285 24.5964 26.1002 24.5285C26.0719 24.4606 26.0301 24.3988 25.9779 24.3469C25.9258 24.295 25.8644 24.2539 25.7964 24.2258C25.7283 24.1978 25.6551 24.1836 25.5816 24.1837H20.3657C20.2918 24.1828 20.2183 24.1964 20.1497 24.2241C20.0811 24.2517 20.0184 24.2925 19.9658 24.3445C19.9132 24.3965 19.872 24.459 19.8436 24.5273C19.8151 24.5956 19.8007 24.6687 19.8008 24.7427H19.8056ZM19.8056 21.4613C19.8056 21.5348 19.8201 21.6076 19.8483 21.6755C19.8765 21.7434 19.9173 21.8051 19.9694 21.8571C20.0214 21.909 20.0842 21.9501 20.1521 21.9781C20.2201 22.0061 20.2922 22.0204 20.3657 22.0202H25.5816C25.73 22.0202 25.8727 21.9618 25.9779 21.8571C26.0832 21.7523 26.1423 21.6098 26.1429 21.4613C26.1429 21.3876 26.1284 21.3146 26.1002 21.2465C26.072 21.1784 26.0313 21.1164 25.9791 21.0643C25.927 21.0122 25.8645 20.9709 25.7964 20.9427C25.7283 20.9144 25.6553 20.8999 25.5816 20.8999H20.3657C20.2917 20.8993 20.2184 20.9135 20.1497 20.9415C20.0811 20.9694 20.0184 21.0103 19.9658 21.0625C19.9132 21.1147 19.8719 21.1769 19.8436 21.2453C19.8152 21.3137 19.8007 21.3872 19.8008 21.4613H19.8056ZM6.72864 29.5734C5.6122 29.5712 4.54184 29.1267 3.75223 28.3374C2.9627 27.5469 2.51848 26.4759 2.51562 25.3586V16.6804H15.4074V29.5734H6.72864ZM10.4254 25.3586C10.4714 25.4274 10.5321 25.4851 10.6034 25.5271C10.6747 25.5692 10.7547 25.5949 10.8372 25.6019C10.9189 25.6096 11.001 25.599 11.0781 25.571C11.1552 25.5431 11.2256 25.4981 11.2834 25.4399C11.3411 25.381 11.3849 25.3104 11.4128 25.2328C11.4407 25.1552 11.4518 25.0729 11.4448 24.9907C11.4374 24.9088 11.4121 24.8294 11.3701 24.7587C11.328 24.688 11.27 24.6275 11.2015 24.5819L9.75488 23.1239L11.2015 21.6654C11.2722 21.5576 11.3038 21.4286 11.2906 21.3005C11.2773 21.1723 11.2204 21.0527 11.1292 20.9617C11.0385 20.8703 10.9189 20.8135 10.7909 20.8003C10.6629 20.787 10.5341 20.8185 10.4266 20.8893L8.96806 22.3229L7.52021 20.878C7.41262 20.7906 7.2765 20.7464 7.13807 20.7534C6.99964 20.7603 6.86965 20.8182 6.77136 20.916C6.67381 21.0144 6.6155 21.1454 6.60877 21.2839C6.60204 21.4223 6.64703 21.558 6.73457 21.6654L8.17886 23.1322L6.73457 24.5807C6.65867 24.6582 6.60675 24.7566 6.58622 24.8631C6.5657 24.9697 6.5778 25.0798 6.61945 25.18C6.66067 25.2802 6.72978 25.3664 6.81883 25.428C6.90788 25.4897 7.01318 25.5244 7.12145 25.5277C7.26997 25.5268 7.41108 25.4666 7.51546 25.361L8.97399 23.9137L10.4254 25.3586ZM16.5277 15.5589V2.6665H25.2065C26.323 2.66875 27.3922 3.11324 28.1818 3.90252C28.9723 4.69237 29.4179 5.76319 29.4196 6.8807V15.5589H16.5277ZM19.8091 9.10826C19.8088 9.18203 19.8227 9.2554 19.8507 9.32366C19.8787 9.39191 19.9209 9.45354 19.9729 9.50582C20.025 9.5581 20.0864 9.59975 20.1545 9.62806C20.2226 9.65637 20.2955 9.67078 20.3693 9.67078H25.5851C25.7341 9.67046 25.8774 9.61131 25.9827 9.50582C26.0879 9.40034 26.1465 9.25727 26.1465 9.10826C26.1458 8.95977 26.0867 8.81783 25.9815 8.71307C25.8763 8.6083 25.7336 8.54929 25.5851 8.54929H20.3693C20.2951 8.548 20.2211 8.56153 20.1521 8.58905C20.0832 8.61656 20.0211 8.65747 19.9682 8.70951C19.9152 8.76154 19.8734 8.8238 19.8447 8.89227C19.816 8.96073 19.8008 9.03402 19.8008 9.10826H19.8091ZM2.51919 15.5589V6.8807C2.52191 5.76341 2.96615 4.69297 3.75579 3.90252C4.5454 3.11324 5.61576 2.66875 6.7322 2.6665H15.4122V15.5589H2.51919ZM5.7994 9.10826C5.7994 9.25748 5.85884 9.4009 5.96436 9.50642C6.06988 9.61194 6.21389 9.67078 6.36311 9.67078H8.40791V11.7221C8.40791 11.8704 8.46684 12.0131 8.57168 12.1179C8.67652 12.2227 8.81861 12.2817 8.96687 12.2817C9.04038 12.2818 9.11371 12.267 9.18168 12.2389C9.24964 12.2109 9.31121 12.1698 9.36325 12.1179C9.41529 12.066 9.45613 12.0042 9.4843 11.9363C9.51247 11.8684 9.52702 11.7956 9.52702 11.7221V9.67078H11.5789C11.728 9.67046 11.8701 9.61131 11.9753 9.50582C12.0806 9.40034 12.1403 9.25727 12.1403 9.10826C12.1396 8.95977 12.0794 8.81783 11.9741 8.71307C11.8689 8.6083 11.7274 8.54929 11.5789 8.54929H9.52702V6.5039C9.52719 6.43035 9.51241 6.35767 9.4843 6.28969C9.45619 6.22172 9.41532 6.16008 9.36325 6.10812C9.31118 6.05616 9.24971 6.01503 9.18168 5.98707C9.11364 5.9591 9.04043 5.94462 8.96687 5.94494C8.89342 5.94478 8.82115 5.95903 8.75325 5.98707C8.68536 6.01511 8.62362 6.05677 8.57168 6.10871C8.51974 6.16065 8.47867 6.22239 8.45063 6.29029C8.42259 6.35818 8.40775 6.43045 8.40791 6.5039V8.54929H6.36311C6.28847 8.54751 6.21426 8.5606 6.14475 8.58786C6.07524 8.61513 6.01077 8.65626 5.95724 8.70832C5.90371 8.76037 5.86182 8.82236 5.83263 8.89108C5.80344 8.9598 5.78783 9.03359 5.78753 9.10826H5.7994Z" fill="white"/>
</svg>
