<svg width="38" height="39" viewBox="0 0 38 39" fill="none" xmlns="http://www.w3.org/2000/svg">
<g filter="url(#filter0_d_3982_96684)">
<path fill-rule="evenodd" clip-rule="evenodd" d="M11.5256 5.41572C9.70588 5.97869 8.10483 7.09071 6.94189 8.59928C5.77895 10.1079 5.11104 11.9392 5.02972 13.8422C4.83582 16.2283 5.59643 18.5938 7.14465 20.4196C8.83423 22.391 11.2292 23.6216 13.8157 23.8474C14.377 23.9457 14.9518 23.9354 15.5092 23.8171C15.1607 23.0323 14.7694 22.2673 14.3369 21.5254C13.3897 19.8018 12.9486 19.2716 12.0301 18.7413C11.109 18.2151 10.3767 17.4124 9.93697 16.447C9.49722 15.4815 9.37228 14.4022 9.57984 13.3618C9.82747 12.24 10.4612 11.2407 11.3703 10.5383C12.2795 9.8359 13.4064 9.47505 14.5545 9.51869C17.964 9.50963 19.872 11.691 19.5397 15.2184L19.3886 16.8001L20.8554 16.6732C23.8405 16.4119 24.6049 15.4541 24.0384 12.6821C23.7432 11.1994 23.1036 9.80687 22.1713 8.61685C21.239 7.42682 20.04 6.47261 18.671 5.83119C16.4044 4.88985 13.886 4.74339 11.5256 5.41572ZM13.6405 14.2592C13.0362 14.9178 13.0997 15.7699 13.855 17.0645C15.3657 19.6674 19.1529 26.9911 19.0396 27.1028C18.4357 27.0223 17.8486 26.8453 17.3008 26.5786C16.5957 26.2732 15.8553 26.0565 15.0968 25.9336C14.7812 25.9659 14.4802 26.0833 14.2261 26.2732C13.9719 26.4632 13.7741 26.7186 13.6538 27.0122C13.5334 27.3057 13.4951 27.6265 13.5427 27.9402C13.5904 28.2539 13.7224 28.5487 13.9245 28.7933C16.4945 30.1828 19.183 31.341 21.9582 32.2542C24.0213 33.0394 26.2679 33.2089 28.4254 32.7422C30.1049 32.1844 31.4995 30.9915 32.3108 29.4187C33.6402 26.8641 33.2172 24.5423 30.4255 19.1114C29.4874 17.2865 29.0342 16.8349 28.1323 16.8349C27.4193 16.8349 26.5688 17.4981 26.5688 18.054C26.5688 18.4241 26.1428 18.4407 25.9162 18.0827C25.6883 17.848 25.4068 17.6722 25.0959 17.5706C24.8896 17.5072 24.6726 17.4864 24.458 17.5094C24.2435 17.5324 24.0358 17.5988 23.8477 17.7045C23.6595 17.8101 23.4948 17.9529 23.3635 18.1241C23.2322 18.2953 23.137 18.4914 23.0837 18.7005L22.9326 19.3048L22.3283 18.7005C22.0395 18.3921 21.6621 18.181 21.2482 18.0963C20.8481 18.1079 20.4654 18.2621 20.169 18.531C19.8726 18.8 19.6821 19.166 19.6318 19.5631C19.6318 20.1553 19.5215 20.0632 18.8176 18.8546C16.0984 14.1716 15.9065 13.9344 14.9714 13.8543C14.7322 13.806 14.4848 13.8177 14.2512 13.8884C14.0177 13.959 13.8053 14.0864 13.633 14.2592H13.6405Z" fill="white"/>
</g>
<defs>
<filter id="filter0_d_3982_96684" x="1" y="3" width="36.0361" height="36" filterUnits="userSpaceOnUse" color-interpolation-filters="sRGB">
<feFlood flood-opacity="0" result="BackgroundImageFix"/>
<feColorMatrix in="SourceAlpha" type="matrix" values="0 0 0 0 0 0 0 0 0 0 0 0 0 0 0 0 0 0 127 0" result="hardAlpha"/>
<feOffset dy="2"/>
<feGaussianBlur stdDeviation="2"/>
<feComposite in2="hardAlpha" operator="out"/>
<feColorMatrix type="matrix" values="0 0 0 0 0 0 0 0 0 0 0 0 0 0 0 0 0 0 0.4 0"/>
<feBlend mode="normal" in2="BackgroundImageFix" result="effect1_dropShadow_3982_96684"/>
<feBlend mode="normal" in="SourceGraphic" in2="effect1_dropShadow_3982_96684" result="shape"/>
</filter>
</defs>
</svg>
