<svg width="38" height="38" viewBox="0 0 38 38" fill="none" xmlns="http://www.w3.org/2000/svg">
<g filter="url(#filter0_d_3982_96667)">
<path d="M18.987 6C11.811 6 6 11.824 6 19C6 26.176 11.811 32 18.987 32C26.176 32 32 26.176 32 19C32 11.824 26.176 6 18.987 6ZM14.45 13.8C15.529 13.8 16.4 14.671 16.4 15.75C16.4 16.829 15.529 17.7 14.45 17.7C13.371 17.7 12.5 16.829 12.5 15.75C12.5 14.671 13.371 13.8 14.45 13.8ZM19 26.8C16.036 26.8 13.514 24.642 12.5 21.6H25.5C24.486 24.642 21.964 26.8 19 26.8ZM23.55 17.7C22.471 17.7 21.6 16.829 21.6 15.75C21.6 14.671 22.471 13.8 23.55 13.8C24.629 13.8 25.5 14.671 25.5 15.75C25.5 16.829 24.629 17.7 23.55 17.7Z" fill="white"/>
</g>
<defs>
<filter id="filter0_d_3982_96667" x="2" y="4" width="34" height="34" filterUnits="userSpaceOnUse" color-interpolation-filters="sRGB">
<feFlood flood-opacity="0" result="BackgroundImageFix"/>
<feColorMatrix in="SourceAlpha" type="matrix" values="0 0 0 0 0 0 0 0 0 0 0 0 0 0 0 0 0 0 127 0" result="hardAlpha"/>
<feOffset dy="2"/>
<feGaussianBlur stdDeviation="2"/>
<feComposite in2="hardAlpha" operator="out"/>
<feColorMatrix type="matrix" values="0 0 0 0 0 0 0 0 0 0 0 0 0 0 0 0 0 0 0.4 0"/>
<feBlend mode="normal" in2="BackgroundImageFix" result="effect1_dropShadow_3982_96667"/>
<feBlend mode="normal" in="SourceGraphic" in2="effect1_dropShadow_3982_96667" result="shape"/>
</filter>
</defs>
</svg>
