<svg width="42" height="43" viewBox="0 0 42 43" fill="none" xmlns="http://www.w3.org/2000/svg">
<rect x="2" y="2.5" width="38" height="38" rx="8" fill="url(#paint0_linear_2556_60862)"/>
<g filter="url(#filter0_d_2556_60862)">
<path d="M20.125 20.625V9.25H12.8333C11.55 9.25 10.5 10.475 10.5 11.9722V20.625H20.125ZM21.875 20.625H31.5V11.9722C31.5 10.475 30.45 9.25 29.1667 9.25H21.875V20.625ZM20.125 22.375H10.5V31.0278C10.5 32.525 11.55 33.75 12.8333 33.75H20.125V22.375ZM21.875 22.375V33.75H29.1667C30.45 33.75 31.5 32.525 31.5 31.0278V22.375H21.875Z" fill="white"/>
</g>
<defs>
<filter id="filter0_d_2556_60862" x="6.5" y="7.25" width="29" height="32.5" filterUnits="userSpaceOnUse" color-interpolation-filters="sRGB">
<feFlood flood-opacity="0" result="BackgroundImageFix"/>
<feColorMatrix in="SourceAlpha" type="matrix" values="0 0 0 0 0 0 0 0 0 0 0 0 0 0 0 0 0 0 127 0" result="hardAlpha"/>
<feOffset dy="2"/>
<feGaussianBlur stdDeviation="2"/>
<feComposite in2="hardAlpha" operator="out"/>
<feColorMatrix type="matrix" values="0 0 0 0 0 0 0 0 0 0 0 0 0 0 0 0 0 0 0.4 0"/>
<feBlend mode="normal" in2="BackgroundImageFix" result="effect1_dropShadow_2556_60862"/>
<feBlend mode="normal" in="SourceGraphic" in2="effect1_dropShadow_2556_60862" result="shape"/>
</filter>
<linearGradient id="paint0_linear_2556_60862" x1="21" y1="2.5" x2="21" y2="40.5" gradientUnits="userSpaceOnUse">
<stop stop-color="#0CBA9B"/>
<stop offset="1" stop-color="#006C7A"/>
</linearGradient>
</defs>
</svg>
