<svg width="39" height="38" viewBox="0 0 39 38" fill="none" xmlns="http://www.w3.org/2000/svg">
<g filter="url(#filter0_d_3982_96680)">
<path d="M15.9008 18.9008C14.7239 18.9008 13.5735 18.5518 12.595 17.898C11.6164 17.2442 10.8537 16.3148 10.4034 15.2275C9.95299 14.1402 9.83515 12.9438 10.0647 11.7895C10.2943 10.6353 10.8611 9.57502 11.6932 8.74284C12.5254 7.91066 13.5857 7.34394 14.74 7.11434C15.8942 6.88474 17.0907 7.00258 18.178 7.45295C19.2652 7.90332 20.1946 8.666 20.8484 9.64454C21.5023 10.6231 21.8512 11.7735 21.8512 12.9504C21.8512 14.5286 21.2243 16.0421 20.1084 17.158C18.9925 18.2739 17.479 18.9008 15.9008 18.9008ZM27.1074 15.9256V12.9504C27.1074 12.5559 27.2642 12.1775 27.5431 11.8985C27.8221 11.6195 28.2005 11.4628 28.595 11.4628C28.9896 11.4628 29.368 11.6195 29.6469 11.8985C29.9259 12.1775 30.0826 12.5559 30.0826 12.9504V15.9256H33.0578C33.4524 15.9256 33.8308 16.0824 34.1097 16.3613C34.3887 16.6403 34.5455 17.0187 34.5455 17.4132C34.5455 17.8078 34.3887 18.1861 34.1097 18.4651C33.8308 18.7441 33.4524 18.9008 33.0578 18.9008H30.0826V21.876C30.0826 22.2706 29.9259 22.6489 29.6469 22.9279C29.368 23.2069 28.9896 23.3636 28.595 23.3636C28.2005 23.3636 27.8221 23.2069 27.5431 22.9279C27.2642 22.6489 27.1074 22.2706 27.1074 21.876V18.9008H24.1322C23.7377 18.9008 23.3593 18.7441 23.0803 18.4651C22.8014 18.1861 22.6446 17.8078 22.6446 17.4132C22.6446 17.0187 22.8014 16.6403 23.0803 16.3613C23.3593 16.0824 23.7377 15.9256 24.1322 15.9256H27.1074ZM15.9008 21.876C19.8727 21.876 27.8017 23.8694 27.8017 27.8264V29.5124C27.8017 29.9069 27.6449 30.2853 27.3659 30.5643C27.087 30.8433 26.7086 31 26.314 31H5.4876C5.09307 31 4.71469 30.8433 4.43571 30.5643C4.15673 30.2853 4 29.9069 4 29.5124V27.8264C4 23.8694 11.9289 21.876 15.9008 21.876Z" fill="white"/>
</g>
<defs>
<filter id="filter0_d_3982_96680" x="0" y="5" width="38.5459" height="32" filterUnits="userSpaceOnUse" color-interpolation-filters="sRGB">
<feFlood flood-opacity="0" result="BackgroundImageFix"/>
<feColorMatrix in="SourceAlpha" type="matrix" values="0 0 0 0 0 0 0 0 0 0 0 0 0 0 0 0 0 0 127 0" result="hardAlpha"/>
<feOffset dy="2"/>
<feGaussianBlur stdDeviation="2"/>
<feComposite in2="hardAlpha" operator="out"/>
<feColorMatrix type="matrix" values="0 0 0 0 0 0 0 0 0 0 0 0 0 0 0 0 0 0 0.4 0"/>
<feBlend mode="normal" in2="BackgroundImageFix" result="effect1_dropShadow_3982_96680"/>
<feBlend mode="normal" in="SourceGraphic" in2="effect1_dropShadow_3982_96680" result="shape"/>
</filter>
</defs>
</svg>
