<svg width="38" height="40" viewBox="0 0 38 40" fill="none" xmlns="http://www.w3.org/2000/svg">
<g filter="url(#filter0_d_6389_226)">
<path d="M26.8836 15.1273H26.0633C25.8457 15.1273 25.6371 15.2162 25.4833 15.3746C25.3294 15.5329 25.243 15.7477 25.243 15.9716V18.503C25.242 19.4462 25.0491 20.3787 24.677 21.2405C24.3048 22.1024 23.7615 22.8745 23.0821 23.5073C22.4026 24.1401 21.602 24.6195 20.7317 24.9147C19.8614 25.2099 18.9408 25.3143 18.0289 25.2214C16.378 25.0051 14.8627 24.1693 13.7733 22.8742C12.684 21.5791 12.0974 19.9158 12.1259 18.203V15.9716C12.1259 15.8607 12.1046 15.7509 12.0634 15.6485C12.0222 15.546 11.9618 15.453 11.8856 15.3746C11.8094 15.2962 11.719 15.234 11.6195 15.1915C11.52 15.1491 11.4133 15.1273 11.3056 15.1273H10.4882C10.3805 15.1273 10.2738 15.1491 10.1743 15.1915C10.0748 15.234 9.98438 15.2962 9.90821 15.3746C9.83204 15.453 9.77162 15.546 9.7304 15.6485C9.68917 15.7509 9.66796 15.8607 9.66796 15.9716V18.0824C9.63591 20.375 10.4044 22.6034 11.8338 24.362C13.2631 26.1207 15.2582 27.2929 17.4562 27.6653V29.4671H14.5867C14.3692 29.4671 14.1605 29.556 14.0067 29.7143C13.8528 29.8727 13.7664 30.0874 13.7664 30.3114V31.1557C13.7664 31.3796 13.8528 31.5944 14.0067 31.7527C14.1605 31.911 14.3692 32 14.5867 32H22.7895C23.007 32 23.2157 31.911 23.3695 31.7527C23.5234 31.5944 23.6098 31.3796 23.6098 31.1557V30.3114C23.6098 30.0874 23.5234 29.8727 23.3695 29.7143C23.2157 29.556 23.007 29.4671 22.7895 29.4671H19.9214V27.6925C22.078 27.3849 24.0538 26.2855 25.485 24.5968C26.9162 22.9081 27.7063 20.7439 27.7097 18.503V15.9716C27.7097 15.8602 27.6883 15.7499 27.6467 15.6471C27.6051 15.5442 27.5442 15.4509 27.4674 15.3724C27.3906 15.2939 27.2995 15.2319 27.1993 15.1898C27.0991 15.1477 26.9918 15.1265 26.8836 15.1273ZM18.6808 23.5704C19.3276 23.5712 19.9682 23.4407 20.5659 23.1863C21.1636 22.932 21.7068 22.5588 22.1642 22.0881C22.6216 21.6174 22.9844 21.0585 23.2317 20.4433C23.479 19.8281 23.606 19.1688 23.6054 18.503H19.233C18.9313 18.503 18.6866 18.3146 18.6866 18.0809V17.2365C18.6866 17.0028 18.9313 16.8144 19.233 16.8144H23.6054V15.1273H19.233C18.9313 15.1273 18.6866 14.9388 18.6866 14.7051V13.8608C18.6866 13.6271 18.9313 13.4386 19.233 13.4386H23.6054V11.7515H19.233C18.9313 11.7515 18.6866 11.563 18.6866 11.3294V10.485C18.6866 10.2513 18.9313 10.0629 19.233 10.0629H23.6054C23.6054 8.72012 23.0872 7.43236 22.1647 6.48288C21.2423 5.53341 19.9912 5 18.6866 5C17.3821 5 16.131 5.53341 15.2086 6.48288C14.2861 7.43236 13.7679 8.72012 13.7679 10.0629V18.506C13.7687 19.8483 14.2872 21.1353 15.2096 22.0841C16.132 23.0329 17.3826 23.5659 18.6866 23.5659L18.6808 23.5704Z" fill="#25D366"/>
</g>
<defs>
<filter id="filter0_d_6389_226" x="4.60033" y="2.46667" width="28.1763" height="37.1333" filterUnits="userSpaceOnUse" color-interpolation-filters="sRGB">
<feFlood flood-opacity="0" result="BackgroundImageFix"/>
<feColorMatrix in="SourceAlpha" type="matrix" values="0 0 0 0 0 0 0 0 0 0 0 0 0 0 0 0 0 0 127 0" result="hardAlpha"/>
<feOffset dy="2.53333"/>
<feGaussianBlur stdDeviation="2.53333"/>
<feComposite in2="hardAlpha" operator="out"/>
<feColorMatrix type="matrix" values="0 0 0 0 0 0 0 0 0 0 0 0 0 0 0 0 0 0 0.4 0"/>
<feBlend mode="normal" in2="BackgroundImageFix" result="effect1_dropShadow_6389_226"/>
<feBlend mode="normal" in="SourceGraphic" in2="effect1_dropShadow_6389_226" result="shape"/>
</filter>
</defs>
</svg>
