<svg width="39" height="40" viewBox="0 0 39 40" fill="none" xmlns="http://www.w3.org/2000/svg">
<g filter="url(#filter0_d_3982_123988)">
<path d="M27.2166 15.1273H26.3963C26.1787 15.1273 25.9701 15.2162 25.8163 15.3746C25.6624 15.5329 25.576 15.7477 25.576 15.9716V18.503C25.575 19.4462 25.3822 20.3787 25.01 21.2405C24.6378 22.1024 24.0945 22.8745 23.4151 23.5073C22.7356 24.1401 21.935 24.6195 21.0647 24.9147C20.1945 25.2099 19.2738 25.3143 18.362 25.2214C16.711 25.0051 15.1957 24.1693 14.1064 22.8742C13.017 21.5791 12.4304 19.9158 12.4589 18.203V15.9716C12.4589 15.8607 12.4377 15.7509 12.3964 15.6485C12.3552 15.546 12.2948 15.453 12.2186 15.3746C12.1424 15.2962 12.052 15.234 11.9525 15.1915C11.853 15.1491 11.7463 15.1273 11.6386 15.1273H10.8212C10.7135 15.1273 10.6069 15.1491 10.5073 15.1915C10.4078 15.234 10.3174 15.2962 10.2412 15.3746C10.165 15.453 10.1046 15.546 10.0634 15.6485C10.0222 15.7509 10.001 15.8607 10.001 15.9716V18.0824C9.96892 20.375 10.7375 22.6034 12.1668 24.362C13.5961 26.1207 15.5912 27.2929 17.7892 27.6653V29.4671H14.9197C14.7022 29.4671 14.4935 29.556 14.3397 29.7143C14.1859 29.8727 14.0994 30.0874 14.0994 30.3114V31.1557C14.0994 31.3796 14.1859 31.5944 14.3397 31.7527C14.4935 31.911 14.7022 32 14.9197 32H23.1225C23.3401 32 23.5487 31.911 23.7025 31.7527C23.8564 31.5944 23.9428 31.3796 23.9428 31.1557V30.3114C23.9428 30.0874 23.8564 29.8727 23.7025 29.7143C23.5487 29.556 23.3401 29.4671 23.1225 29.4671H20.2545V27.6925C22.411 27.3849 24.3868 26.2855 25.818 24.5968C27.2492 22.9081 28.0393 20.7439 28.0427 18.503V15.9716C28.0427 15.8602 28.0213 15.7499 27.9797 15.6471C27.9381 15.5442 27.8772 15.4509 27.8004 15.3724C27.7236 15.2939 27.6325 15.2319 27.5323 15.1898C27.4321 15.1477 27.3248 15.1265 27.2166 15.1273ZM19.0138 23.5704C19.6606 23.5712 20.3012 23.4407 20.8989 23.1863C21.4967 22.932 22.0398 22.5588 22.4972 22.0881C22.9546 21.6174 23.3174 21.0585 23.5647 20.4433C23.812 19.8281 23.939 19.1688 23.9384 18.503H19.566C19.2643 18.503 19.0196 18.3146 19.0196 18.0809V17.2365C19.0196 17.0028 19.2643 16.8144 19.566 16.8144H23.9384V15.1273H19.566C19.2643 15.1273 19.0196 14.9388 19.0196 14.7051V13.8608C19.0196 13.6271 19.2643 13.4386 19.566 13.4386H23.9384V11.7515H19.566C19.2643 11.7515 19.0196 11.563 19.0196 11.3294V10.485C19.0196 10.2513 19.2643 10.0629 19.566 10.0629H23.9384C23.9384 8.72012 23.4202 7.43236 22.4977 6.48288C21.5753 5.53341 20.3242 5 19.0196 5C17.7151 5 16.464 5.53341 15.5416 6.48288C14.6191 7.43236 14.1009 8.72012 14.1009 10.0629V18.506C14.1017 19.8483 14.6202 21.1353 15.5426 22.0841C16.465 23.0329 17.7156 23.5659 19.0196 23.5659L19.0138 23.5704Z" fill="#25D366"/>
</g>
<g filter="url(#filter1_i_3982_123988)">
<path fill-rule="evenodd" clip-rule="evenodd" d="M6.28932 5.36488C6.78527 4.99135 7.50004 5.08293 7.8858 5.56944L32.6167 30.696C33.0025 31.1825 32.9131 31.8798 32.4172 32.2533C31.9212 32.6268 31.2065 32.5352 30.8207 32.0487L6.08979 6.92212C5.70403 6.43561 5.79336 5.73841 6.28932 5.36488Z" fill="#FF0000"/>
</g>
<defs>
<filter id="filter0_d_3982_123988" x="4.93333" y="2.46667" width="28.1763" height="37.1333" filterUnits="userSpaceOnUse" color-interpolation-filters="sRGB">
<feFlood flood-opacity="0" result="BackgroundImageFix"/>
<feColorMatrix in="SourceAlpha" type="matrix" values="0 0 0 0 0 0 0 0 0 0 0 0 0 0 0 0 0 0 127 0" result="hardAlpha"/>
<feOffset dy="2.53333"/>
<feGaussianBlur stdDeviation="2.53333"/>
<feComposite in2="hardAlpha" operator="out"/>
<feColorMatrix type="matrix" values="0 0 0 0 0 0 0 0 0 0 0 0 0 0 0 0 0 0 0.4 0"/>
<feBlend mode="normal" in2="BackgroundImageFix" result="effect1_dropShadow_3982_123988"/>
<feBlend mode="normal" in="SourceGraphic" in2="effect1_dropShadow_3982_123988" result="shape"/>
</filter>
<filter id="filter1_i_3982_123988" x="5.84961" y="5.13525" width="27.0068" height="27.3477" filterUnits="userSpaceOnUse" color-interpolation-filters="sRGB">
<feFlood flood-opacity="0" result="BackgroundImageFix"/>
<feBlend mode="normal" in="SourceGraphic" in2="BackgroundImageFix" result="shape"/>
<feColorMatrix in="SourceAlpha" type="matrix" values="0 0 0 0 0 0 0 0 0 0 0 0 0 0 0 0 0 0 127 0" result="hardAlpha"/>
<feOffset/>
<feGaussianBlur stdDeviation="2"/>
<feComposite in2="hardAlpha" operator="arithmetic" k2="-1" k3="1"/>
<feColorMatrix type="matrix" values="0 0 0 0 0.105882 0 0 0 0 0.576471 0 0 0 0 0.580392 0 0 0 0.3 0"/>
<feBlend mode="normal" in2="shape" result="effect1_innerShadow_3982_123988"/>
</filter>
</defs>
</svg>
