<svg width="38" height="39" viewBox="0 0 38 39" fill="none" xmlns="http://www.w3.org/2000/svg">
<g filter="url(#filter0_d_3982_96681)">
<path d="M27.1711 7.1013H23.8012C23.6243 6.88187 23.3996 6.70572 23.1443 6.58626C22.8833 6.46483 22.5991 6.40141 22.3112 6.40035H21.0635C20.9037 5.98435 20.617 5.6292 20.2441 5.38537C19.8594 5.13391 19.4098 5 18.9502 5C18.4907 5 18.0411 5.13391 17.6564 5.38537C17.2834 5.6292 16.9967 5.98435 16.837 6.40035H15.592C15.3041 6.40141 15.0199 6.46483 14.7589 6.58626C14.5036 6.70572 14.2789 6.88187 14.102 7.1013H10.7362C9.76063 7.09899 8.81999 7.46434 8.10172 8.12454C7.75877 8.43931 7.48404 8.8211 7.29454 9.24629C7.10504 9.67148 7.00479 10.131 7 10.5965V29.4993C7.00479 29.9648 7.10504 30.4243 7.29454 30.8495C7.48404 31.2747 7.75877 31.6565 8.10172 31.9713C8.8202 32.6344 9.76259 33.0018 10.7403 33H27.1711C28.1489 33.0018 29.0913 32.6344 29.8097 31.9713C30.1527 31.6565 30.4274 31.2747 30.6169 30.8495C30.8064 30.4243 30.9067 29.9648 30.9115 29.4993V10.6034C30.9067 10.1379 30.8064 9.67838 30.6169 9.25318C30.4274 8.82799 30.1527 8.44619 29.8097 8.13141C29.0915 7.46774 28.1491 7.09982 27.1711 7.1013ZM18.9537 6.40172C19.0998 6.40162 19.2429 6.44266 19.3668 6.52015C19.4879 6.59492 19.5839 6.70429 19.6422 6.83413C19.6987 6.96124 19.7137 7.10293 19.6849 7.23903C19.6551 7.37638 19.584 7.50132 19.4811 7.59708C19.3744 7.69611 19.2415 7.76254 19.0983 7.78851C18.9536 7.8152 18.8045 7.80137 18.6672 7.74856C18.5328 7.69677 18.4165 7.60678 18.3326 7.48968C18.2513 7.37647 18.2075 7.24066 18.2072 7.1013C18.2088 7.00845 18.2295 6.91691 18.2678 6.83235C18.3062 6.74778 18.3615 6.672 18.4303 6.60967C18.5724 6.47698 18.7593 6.40273 18.9537 6.40172ZM16.8397 7.80227C16.9992 8.21842 17.286 8.57361 17.6591 8.81723C18.0438 9.0687 18.4934 9.20262 18.953 9.20262C19.4125 9.20262 19.8621 9.0687 20.2468 8.81723C20.62 8.57361 20.9067 8.21842 21.0662 7.80227H22.3153C22.413 7.80296 22.5069 7.84032 22.5783 7.90694C22.6123 7.93823 22.6396 7.97608 22.6585 8.01821C22.6775 8.06035 22.6877 8.10588 22.6885 8.15207V10.2522C22.6876 10.2986 22.6774 10.3443 22.6585 10.3867C22.6395 10.429 22.6123 10.4672 22.5783 10.4987C22.5064 10.5645 22.4127 10.6013 22.3153 10.602H15.592C15.4946 10.6013 15.4009 10.5645 15.329 10.4987C15.2948 10.4673 15.2673 10.4292 15.2481 10.3868C15.2289 10.3445 15.2185 10.2987 15.2175 10.2522V8.15207C15.2185 8.10578 15.2289 8.06018 15.248 8.01804C15.2672 7.9759 15.2948 7.93811 15.329 7.90694C15.4005 7.84032 15.4943 7.80296 15.592 7.80227H16.8397ZM16.5863 25.6942L15.0921 27.7944C14.9871 27.9381 14.8343 28.0397 14.6611 28.0808C14.4849 28.1239 14.2993 28.1055 14.135 28.0285L12.6463 27.3275C12.5594 27.2871 12.4813 27.23 12.4163 27.1595C12.355 27.0906 12.3082 27.01 12.2786 26.9226C12.2475 26.8357 12.235 26.7433 12.2419 26.6512C12.2488 26.5592 12.2749 26.4696 12.3186 26.3883C12.3631 26.3049 12.424 26.2314 12.4976 26.1721C12.5725 26.1104 12.6585 26.0637 12.751 26.0344C12.939 25.9752 13.1424 25.9885 13.3211 26.0716L14.2245 26.4957L15.3524 24.9092C15.4071 24.8311 15.4769 24.7646 15.5576 24.7137C15.6418 24.661 15.7353 24.625 15.833 24.6076C15.93 24.5898 16.0294 24.5898 16.1264 24.6076C16.224 24.6246 16.3175 24.6602 16.4018 24.7123C16.4826 24.7631 16.5527 24.829 16.6084 24.9065C16.663 24.9827 16.701 25.0695 16.7199 25.1612C16.7395 25.252 16.7395 25.3459 16.7199 25.4367C16.7002 25.528 16.6617 25.6143 16.607 25.6901L16.5863 25.6942ZM16.5863 20.7929L15.0921 22.8931C14.9878 23.0372 14.8354 23.1392 14.6625 23.1809C14.4875 23.2257 14.3024 23.2097 14.1378 23.1355L12.6463 22.4304C12.4728 22.3503 12.3381 22.2047 12.2717 22.0255C12.2406 21.9384 12.2281 21.8457 12.235 21.7534C12.2418 21.6611 12.268 21.5713 12.3117 21.4898C12.4044 21.3207 12.5596 21.1947 12.7441 21.1386C12.9324 21.0806 13.1355 21.0943 13.3142 21.1772L14.2176 21.5999L15.3455 20.0148C15.4003 19.9367 15.47 19.8702 15.5507 19.8193C15.6349 19.7666 15.7284 19.7306 15.8262 19.7133C15.923 19.6943 16.0226 19.6943 16.1195 19.7133C16.2173 19.7297 16.3109 19.7653 16.3949 19.8179C16.4762 19.8681 16.5464 19.9341 16.6015 20.0121C16.6559 20.0879 16.6938 20.1742 16.713 20.2655C16.7325 20.3563 16.7325 20.4501 16.713 20.5409C16.6895 20.6333 16.6468 20.7196 16.5877 20.7943L16.5863 20.7929ZM16.5863 15.8917L15.0921 17.9918C14.9878 18.1359 14.8354 18.238 14.6625 18.2796C14.4866 18.3235 14.301 18.306 14.1364 18.2301L12.6463 17.5263C12.5602 17.487 12.4827 17.431 12.4184 17.3615C12.3541 17.292 12.3042 17.2104 12.2717 17.1214C12.2406 17.0345 12.2281 16.9421 12.235 16.8501C12.2419 16.758 12.268 16.6684 12.3117 16.5871C12.4041 16.4178 12.5594 16.2916 12.7441 16.236C12.9321 16.1768 13.1355 16.1901 13.3142 16.2731L14.2176 16.6973L15.3455 15.1108C15.4002 15.0326 15.47 14.9662 15.5507 14.9153C15.6349 14.8626 15.7284 14.8266 15.8262 14.8092C15.9231 14.7914 16.0225 14.7914 16.1195 14.8092C16.217 14.8267 16.3104 14.8622 16.3949 14.9139C16.4757 14.9646 16.5459 15.0306 16.6015 15.1081C16.6561 15.1842 16.6941 15.271 16.713 15.3628C16.7326 15.4536 16.7326 15.5475 16.713 15.6383C16.6933 15.7296 16.6548 15.8159 16.6001 15.8917H16.5863ZM24.9319 27.4046H18.9537C18.7577 27.4058 18.5687 27.3324 18.4248 27.1994C18.3558 27.1366 18.3007 27.06 18.263 26.9747C18.2253 26.8893 18.2058 26.797 18.2058 26.7037C18.2058 26.6103 18.2253 26.518 18.263 26.4327C18.3007 26.3473 18.3558 26.2708 18.4248 26.2079C18.569 26.0754 18.7578 26.0021 18.9537 26.0027H24.9305C25.1263 26.0021 25.3151 26.0754 25.4593 26.2079C25.5283 26.2708 25.5834 26.3473 25.6211 26.4327C25.6588 26.518 25.6783 26.6103 25.6783 26.7037C25.6783 26.797 25.6588 26.8893 25.6211 26.9747C25.5834 27.06 25.5283 27.1366 25.4593 27.1994C25.3154 27.3324 25.1264 27.4058 24.9305 27.4046H24.9319ZM24.9319 22.5034H18.9537C18.7577 22.5045 18.5687 22.4311 18.4248 22.2982C18.3558 22.2353 18.3007 22.1587 18.263 22.0734C18.2253 21.988 18.2058 21.8957 18.2058 21.8024C18.2058 21.7091 18.2253 21.6168 18.263 21.5314C18.3007 21.446 18.3558 21.3695 18.4248 21.3066C18.5689 21.174 18.7578 21.1007 18.9537 21.1014H24.9305C25.1263 21.1008 25.3151 21.1741 25.4593 21.3066C25.5283 21.3695 25.5834 21.446 25.6211 21.5314C25.6588 21.6168 25.6783 21.7091 25.6783 21.8024C25.6783 21.8957 25.6588 21.988 25.6211 22.0734C25.5834 22.1587 25.5283 22.2353 25.4593 22.2982C25.3154 22.4311 25.1264 22.5045 24.9305 22.5034H24.9319ZM24.9319 17.6021H18.9537C18.7577 17.6032 18.5687 17.5299 18.4248 17.3969C18.3559 17.3341 18.3008 17.2577 18.2631 17.1725C18.2254 17.0872 18.2059 16.995 18.2059 16.9018C18.2059 16.8086 18.2254 16.7164 18.2631 16.6311C18.3008 16.5459 18.3559 16.4694 18.4248 16.4067C18.5688 16.2739 18.7578 16.2005 18.9537 16.2015H24.9305C25.1264 16.2005 25.3154 16.2739 25.4593 16.4067C25.5283 16.4694 25.5834 16.5459 25.6211 16.6311C25.6588 16.7164 25.6782 16.8086 25.6782 16.9018C25.6782 16.995 25.6588 17.0872 25.6211 17.1725C25.5834 17.2577 25.5283 17.3341 25.4593 17.3969C25.3154 17.5299 25.1264 17.6032 24.9305 17.6021H24.9319Z" fill="white"/>
</g>
<defs>
<filter id="filter0_d_3982_96681" x="3" y="3" width="31.9111" height="36" filterUnits="userSpaceOnUse" color-interpolation-filters="sRGB">
<feFlood flood-opacity="0" result="BackgroundImageFix"/>
<feColorMatrix in="SourceAlpha" type="matrix" values="0 0 0 0 0 0 0 0 0 0 0 0 0 0 0 0 0 0 127 0" result="hardAlpha"/>
<feOffset dy="2"/>
<feGaussianBlur stdDeviation="2"/>
<feComposite in2="hardAlpha" operator="out"/>
<feColorMatrix type="matrix" values="0 0 0 0 0 0 0 0 0 0 0 0 0 0 0 0 0 0 0.4 0"/>
<feBlend mode="normal" in2="BackgroundImageFix" result="effect1_dropShadow_3982_96681"/>
<feBlend mode="normal" in="SourceGraphic" in2="effect1_dropShadow_3982_96681" result="shape"/>
</filter>
</defs>
</svg>
