<svg width="39" height="38" viewBox="0 0 39 38" fill="none" xmlns="http://www.w3.org/2000/svg">
<g filter="url(#filter0_d_3982_96686)">
<path d="M10.8593 11.655C12.421 11.655 13.6975 10.3891 13.7106 8.82749C13.7237 7.26591 12.4683 6 10.9067 6C9.34506 6 8.0685 7.26591 8.05542 8.82749C8.04234 10.3891 9.2977 11.655 10.8593 11.655Z" fill="white"/>
<path d="M18.8993 16.7457C18.0979 16.7138 16.9894 16.0366 16.1817 15.5416L15.8587 15.3436C15.4659 15.1072 14.9592 14.5387 14.5126 14.0372C14.2338 13.7242 13.9646 13.4272 13.6954 13.1685C13.6004 12.9896 13.4864 12.8459 13.3628 12.7277C13.29 12.6287 13.2108 12.568 13.1253 12.5393C12.4095 12.0857 11.3041 12.2167 9.6476 12.354C7.46533 12.5329 6.34728 14.4876 6.34728 14.4876C5.12787 15.9344 4.26637 18.2053 4.06683 18.7611C3.85779 19.3424 4.15551 19.9811 4.73196 20.1919C4.85548 20.2367 4.98218 20.259 5.10887 20.259C5.56179 20.259 5.98938 19.9748 6.15091 19.5212C6.56582 18.3714 7.20878 17.0619 7.79473 16.2379C7.86441 17.3014 7.95627 18.5056 8.01011 19.4126C8.01011 19.4254 8.12097 22.2616 7.52551 24.5133C6.87939 26.8449 6.09073 30.1059 6.04955 30.2816C5.90386 30.882 6.2681 31.4857 6.86355 31.6326C6.95223 31.655 7.04092 31.6646 7.12643 31.6646C7.62687 31.6646 8.07979 31.3228 8.20331 30.8118C8.21598 30.7575 9.55892 25.2096 10.1449 23.4817C10.205 23.306 10.2621 23.1208 10.3159 22.9323C10.4014 22.6417 10.715 22.5682 11.0032 22.6417C11.3611 22.7152 11.3643 23.322 11.3643 23.322V30.882C11.3643 31.4985 11.8615 31.9999 12.4728 31.9999C13.0841 31.9999 13.5814 31.4985 13.5814 30.882V25.8676C13.5814 24.8487 13.6257 22.1402 13.6574 20.2973C13.6764 20.1792 13.6922 20.061 13.6922 19.9364C13.6922 18.9783 13.6922 17.5506 13.6922 16.4327C14.0185 16.7553 14.3605 17.0555 14.7184 17.2695L15.0288 17.4579C16.0455 18.0808 17.436 18.9335 18.8106 18.9846C19.4219 19.0006 19.9381 18.5279 19.9603 17.9115C19.9825 17.2951 19.5074 16.7744 18.8961 16.7521L18.8993 16.7457Z" fill="white"/>
<path d="M33.2274 6.05078H17.6031C16.8525 6.05078 16.2412 6.66402 16.2412 7.42417V14.026C16.3457 14.1282 16.4408 14.2081 16.5073 14.2496L16.8367 14.4508C17.3688 14.7766 18.4742 15.4537 18.9461 15.4729C19.9691 15.5112 20.8148 16.2043 21.1125 17.1337H31.6754C32.1125 17.1337 32.4673 17.4914 32.4673 17.9322C32.4673 18.373 32.1125 18.7307 31.6754 18.7307H21.0682C20.7229 19.6314 19.8583 20.2638 18.8447 20.2638H18.7782C17.8724 20.2286 17.014 19.9476 16.2412 19.5899V20.8068C16.2412 21.5637 16.8493 22.1801 17.6031 22.1801H21.7048L19.4497 30.9347C19.3388 31.3627 19.5922 31.7971 20.0166 31.9089C20.0831 31.928 20.1497 31.9344 20.2162 31.9344C20.5677 31.9344 20.8876 31.6949 20.9827 31.3371L22.2907 26.2556H28.6475L30.0253 31.3467C30.1203 31.7013 30.4402 31.9344 30.7886 31.9344C30.8583 31.9344 30.928 31.9248 30.9976 31.9057C31.4189 31.7907 31.6691 31.3499 31.5519 30.9251L29.1828 22.1801H33.2274C33.9781 22.1801 34.5894 21.5669 34.5894 20.8068V7.42417C34.5894 6.66721 33.9812 6.05078 33.2274 6.05078ZM22.6993 24.6522L23.3391 22.1738H27.5421L28.2136 24.6522H22.6993ZM31.6786 14.5626H19.6904C19.2533 14.5626 18.8986 14.2049 18.8986 13.7641C18.8986 13.3234 19.2533 12.9656 19.6904 12.9656H31.6786C32.1157 12.9656 32.4704 13.3234 32.4704 13.7641C32.4704 14.2049 32.1157 14.5626 31.6786 14.5626ZM31.6786 10.3977H19.6904C19.2533 10.3977 18.8986 10.04 18.8986 9.59924C18.8986 9.15848 19.2533 8.80076 19.6904 8.80076H31.6786C32.1157 8.80076 32.4704 9.15848 32.4704 9.59924C32.4704 10.04 32.1157 10.3977 31.6786 10.3977Z" fill="white"/>
</g>
<defs>
<filter id="filter0_d_3982_96686" x="0" y="4" width="38.5889" height="34" filterUnits="userSpaceOnUse" color-interpolation-filters="sRGB">
<feFlood flood-opacity="0" result="BackgroundImageFix"/>
<feColorMatrix in="SourceAlpha" type="matrix" values="0 0 0 0 0 0 0 0 0 0 0 0 0 0 0 0 0 0 127 0" result="hardAlpha"/>
<feOffset dy="2"/>
<feGaussianBlur stdDeviation="2"/>
<feComposite in2="hardAlpha" operator="out"/>
<feColorMatrix type="matrix" values="0 0 0 0 0 0 0 0 0 0 0 0 0 0 0 0 0 0 0.4 0"/>
<feBlend mode="normal" in2="BackgroundImageFix" result="effect1_dropShadow_3982_96686"/>
<feBlend mode="normal" in="SourceGraphic" in2="effect1_dropShadow_3982_96686" result="shape"/>
</filter>
</defs>
</svg>
