<svg width="38" height="39" viewBox="0 0 38 39" fill="none" xmlns="http://www.w3.org/2000/svg">
<g filter="url(#filter0_d_3982_96685)">
<path fill-rule="evenodd" clip-rule="evenodd" d="M17.4586 5.09111C14.6396 5.4944 12.0213 6.78216 9.98108 8.76883C7.94083 10.7555 6.58388 13.3385 6.10571 16.1458C5.91986 17.8051 5.97931 19.4827 6.28216 21.1247C6.79478 23.0769 7.6877 24.9087 8.90973 26.5152C10.7829 28.7739 13.3317 30.3715 16.181 31.0728C18.4907 31.5347 20.8747 31.4721 23.1569 30.8895L24.3565 30.5147L27.4669 31.7908C28.5052 32.2478 29.5662 32.6514 30.6457 33C30.684 32.9631 30.5198 31.4667 30.2832 29.6748L29.851 26.4167L30.3612 25.6289C31.4448 24.0248 32.1631 22.2025 32.4652 20.2904C32.7674 18.3784 32.6461 16.4234 32.11 14.5633C31.5738 12.7033 30.6358 10.9837 29.3622 9.52591C28.0887 8.0681 26.5106 6.90765 24.7395 6.12653C22.4393 5.17059 19.9341 4.81433 17.4586 5.09111ZM22.4771 10.3681C23.4485 10.778 24.2647 11.4856 24.8084 12.3889C25.3521 13.2921 25.5952 14.3446 25.5027 15.3948C25.3659 17.3645 24.6109 18.467 22.0668 20.3696C20.9588 21.1985 20.6989 21.6007 20.6989 22.539V23.108H17.9989L18.0577 21.6034L18.1165 20.0988L19.7319 18.5942C20.4271 17.9819 21.0561 17.2984 21.6085 16.5548C21.9476 15.7117 21.9476 14.7702 21.6085 13.9272C21.3772 13.5584 21.0635 13.2484 20.6921 13.0212C20.3207 12.7941 19.9018 12.6562 19.4681 12.6183C19.0344 12.5804 18.5979 12.6435 18.1927 12.8028C17.7876 12.962 17.4249 13.213 17.133 13.536C16.5445 14.2854 16.1667 15.1783 16.0388 16.1225C16.0388 16.3961 15.9444 16.3961 14.329 16.1472C12.8504 15.9242 12.8408 15.9064 13.3004 14.343C13.5384 13.5048 13.9503 12.7261 14.5093 12.0577C15.0683 11.3893 15.7619 10.8463 16.5449 10.4639C17.6105 9.88337 18.8316 9.65273 20.0355 9.80462C20.8834 9.78969 21.7219 9.98369 22.4771 10.3695V10.3681ZM21.2023 26.6643V28.4014H18.0276V24.9272H21.2009L21.2023 26.6643Z" fill="white"/>
</g>
<defs>
<filter id="filter0_d_3982_96685" x="2" y="3" width="34.627" height="36" filterUnits="userSpaceOnUse" color-interpolation-filters="sRGB">
<feFlood flood-opacity="0" result="BackgroundImageFix"/>
<feColorMatrix in="SourceAlpha" type="matrix" values="0 0 0 0 0 0 0 0 0 0 0 0 0 0 0 0 0 0 127 0" result="hardAlpha"/>
<feOffset dy="2"/>
<feGaussianBlur stdDeviation="2"/>
<feComposite in2="hardAlpha" operator="out"/>
<feColorMatrix type="matrix" values="0 0 0 0 0 0 0 0 0 0 0 0 0 0 0 0 0 0 0.4 0"/>
<feBlend mode="normal" in2="BackgroundImageFix" result="effect1_dropShadow_3982_96685"/>
<feBlend mode="normal" in="SourceGraphic" in2="effect1_dropShadow_3982_96685" result="shape"/>
</filter>
</defs>
</svg>
