<svg width="38" height="39" viewBox="0 0 38 39" fill="none" xmlns="http://www.w3.org/2000/svg">
<g filter="url(#filter0_d_10491_34001)">
<path d="M5.88422 19C5.88422 11.7564 11.7566 5.88422 19.0002 5.88422C26.2439 5.88422 32.1162 11.7564 32.1162 19C32.1162 26.2436 26.2439 32.1158 19.0002 32.1158C11.7566 32.1158 5.88422 26.2436 5.88422 19Z" fill="#FF0000" stroke="white" stroke-width="1.76843"/>
<path d="M12.9995 14C12.9995 13.4477 13.4472 13 13.9995 13H23.9995C24.5518 13 24.9995 13.4477 24.9995 14V24C24.9995 24.5523 24.5518 25 23.9995 25H13.9995C13.4472 25 12.9995 24.5523 12.9995 24V14Z" fill="white"/>
</g>
<defs>
<filter id="filter0_d_10491_34001" x="-4" y="-2" width="46" height="46" filterUnits="userSpaceOnUse" color-interpolation-filters="sRGB">
<feFlood flood-opacity="0" result="BackgroundImageFix"/>
<feColorMatrix in="SourceAlpha" type="matrix" values="0 0 0 0 0 0 0 0 0 0 0 0 0 0 0 0 0 0 127 0" result="hardAlpha"/>
<feOffset dy="2"/>
<feGaussianBlur stdDeviation="2"/>
<feComposite in2="hardAlpha" operator="out"/>
<feColorMatrix type="matrix" values="0 0 0 0 0 0 0 0 0 0 0 0 0 0 0 0 0 0 0.4 0"/>
<feBlend mode="normal" in2="BackgroundImageFix" result="effect1_dropShadow_10491_34001"/>
<feBlend mode="normal" in="SourceGraphic" in2="effect1_dropShadow_10491_34001" result="shape"/>
</filter>
</defs>
</svg>
