<svg width="42" height="42" viewBox="0 0 42 42" fill="none" xmlns="http://www.w3.org/2000/svg">
<rect width="42" height="42" rx="8" fill="url(#paint0_linear_2556_40526)"/>
<path d="M9.8335 21.0002C9.8335 14.833 14.833 9.8335 21.0002 9.8335C27.1673 9.8335 32.1668 14.833 32.1668 21.0002C32.1668 27.1673 27.1673 32.1668 21.0002 32.1668C14.833 32.1668 9.8335 27.1673 9.8335 21.0002Z" fill="white" stroke="white"/>
<path d="M14.4116 20.9999C14.4116 17.3613 17.3613 14.4116 20.9999 14.4116C24.6384 14.4116 27.5881 17.3613 27.5881 20.9999C27.5881 24.6384 24.6384 27.5881 20.9999 27.5881C17.3613 27.5881 14.4116 24.6384 14.4116 20.9999Z" fill="#FF0000"/>
<defs>
<linearGradient id="paint0_linear_2556_40526" x1="21" y1="0" x2="21" y2="42" gradientUnits="userSpaceOnUse">
<stop stop-color="#F05B5A"/>
<stop offset="1" stop-color="#C61E1D"/>
</linearGradient>
</defs>
</svg>
