<svg width="42" height="42" viewBox="0 0 42 42" fill="none" xmlns="http://www.w3.org/2000/svg">
<rect x="2" y="2" width="38" height="38" rx="8" fill="url(#paint0_linear_2806_60351)"/>
<g filter="url(#filter0_d_2806_60351)">
<path d="M9.8335 20.9997C9.8335 14.8325 14.833 9.83301 21.0002 9.83301C27.1673 9.83301 32.1668 14.8325 32.1668 20.9997C32.1668 27.1669 27.1673 32.1663 21.0002 32.1663C14.833 32.1663 9.8335 27.1669 9.8335 20.9997Z" fill="#FF0000" stroke="white"/>
</g>
<path d="M16.3335 18.333C16.3335 17.2284 17.2289 16.333 18.3335 16.333H23.6668C24.7714 16.333 25.6668 17.2284 25.6668 18.333V23.6663C25.6668 24.7709 24.7714 25.6663 23.6668 25.6663H18.3335C17.2289 25.6663 16.3335 24.7709 16.3335 23.6663V18.333Z" fill="white"/>
<defs>
<filter id="filter0_d_2806_60351" x="5.3335" y="7.33301" width="31.3335" height="31.333" filterUnits="userSpaceOnUse" color-interpolation-filters="sRGB">
<feFlood flood-opacity="0" result="BackgroundImageFix"/>
<feColorMatrix in="SourceAlpha" type="matrix" values="0 0 0 0 0 0 0 0 0 0 0 0 0 0 0 0 0 0 127 0" result="hardAlpha"/>
<feOffset dy="2"/>
<feGaussianBlur stdDeviation="2"/>
<feComposite in2="hardAlpha" operator="out"/>
<feColorMatrix type="matrix" values="0 0 0 0 0 0 0 0 0 0 0 0 0 0 0 0 0 0 0.4 0"/>
<feBlend mode="normal" in2="BackgroundImageFix" result="effect1_dropShadow_2806_60351"/>
<feBlend mode="normal" in="SourceGraphic" in2="effect1_dropShadow_2806_60351" result="shape"/>
</filter>
<linearGradient id="paint0_linear_2806_60351" x1="21" y1="2" x2="21" y2="40" gradientUnits="userSpaceOnUse">
<stop stop-color="#F05B5A"/>
<stop offset="1" stop-color="#C61E1D"/>
</linearGradient>
</defs>
</svg>
