<svg width="40" height="38" viewBox="0 0 40 38" fill="none" xmlns="http://www.w3.org/2000/svg">
<g filter="url(#filter0_d_3982_96679)">
<path fill-rule="evenodd" clip-rule="evenodd" d="M7.59245 7.96533C6.04332 9.88045 5.0143 11.9799 4.29595 14.6907C4.04433 15.64 4.00043 16.223 4 18.6182C3.99958 21.1934 4.03102 21.5531 4.37284 22.8782C5.01232 25.358 6.59869 28.429 7.94433 29.7927C8.21983 30.0718 8.67128 30.0687 8.94288 29.7858L9.85199 28.8389L10.6274 28.0313C10.9843 27.6596 11.0003 27.0774 10.6643 26.6867L10.62 26.6353C8.53934 24.2158 7.44688 20.4471 7.86291 17.123C8.06455 15.5118 8.52646 13.978 9.16947 12.7841C9.64823 11.8953 10.6729 10.4436 11.0562 10.1111C11.2677 9.92753 11.153 9.76247 9.90467 8.45237C9.142 7.65224 8.48511 6.99867 8.44475 7C8.40425 7.00133 8.0208 7.43582 7.59245 7.96533ZM29.5545 8.53749L28.8117 9.3172C28.475 9.67059 28.4427 10.2154 28.7351 10.6062L29.0422 11.0165C30.0423 12.3526 30.8826 14.0691 31.2687 15.5642C31.6838 17.1711 31.6794 20.0748 31.2594 21.7269C30.867 23.2708 30.0337 25.011 29.0358 26.3709L28.7306 26.7869C28.4439 27.1775 28.4785 27.7175 28.8128 28.0684L29.6151 28.9103L30.2508 29.5774C30.6476 29.9937 31.3183 29.9721 31.6875 29.5311C33.1835 27.7441 34.4166 25.2766 35.0124 22.8782C35.4565 21.0902 35.613 18.0317 35.3559 16.1587C35.0247 13.7443 33.9497 10.9567 32.6225 9.06997C32.2482 8.53795 31.7487 7.92237 31.3921 7.53354C31.1478 7.26726 30.8697 7.35968 30.6111 7.61205C30.3527 7.86432 30.052 8.01522 29.5545 8.53749ZM13.4886 13.6311C12.0019 15.7481 11.5058 18.1513 12.0535 20.5802C12.2983 21.6658 13.0557 23.2867 13.6614 24.0214C13.8889 24.2974 14.3062 24.3134 14.5542 24.0556L15.4705 23.1032C16.7608 21.762 16.8376 21.649 16.6292 21.4008C15.5655 20.1336 15.4531 17.9359 16.3742 16.4175L16.4001 16.3748C16.6305 15.9951 16.5828 15.509 16.2831 15.1812L15.5015 14.3265C14.7935 13.5523 14.1635 12.9189 14.1015 12.9189C14.0394 12.9189 13.7636 13.2394 13.4886 13.6311ZM23.9019 14.3216L23.1158 15.1812C22.816 15.509 22.7684 15.9951 22.9988 16.3748L23.0247 16.4175C23.5839 17.3393 23.8022 18.4793 23.6044 19.4439C23.4407 20.242 23.1289 20.9728 22.7696 21.4008C22.5612 21.649 22.6381 21.762 23.9284 23.1032L24.8447 24.0556C25.0927 24.3134 25.5099 24.2974 25.7375 24.0214C26.3577 23.2691 27.1041 21.6539 27.3626 20.5046C27.665 19.1612 27.5602 17.1652 27.1223 15.9234C26.7971 15.001 25.6355 13.063 25.3476 12.9627C25.263 12.9332 24.6123 13.5446 23.9019 14.3216Z" fill="white"/>
</g>
<defs>
<filter id="filter0_d_3982_96679" x="0" y="5" width="39.4795" height="31" filterUnits="userSpaceOnUse" color-interpolation-filters="sRGB">
<feFlood flood-opacity="0" result="BackgroundImageFix"/>
<feColorMatrix in="SourceAlpha" type="matrix" values="0 0 0 0 0 0 0 0 0 0 0 0 0 0 0 0 0 0 127 0" result="hardAlpha"/>
<feOffset dy="2"/>
<feGaussianBlur stdDeviation="2"/>
<feComposite in2="hardAlpha" operator="out"/>
<feColorMatrix type="matrix" values="0 0 0 0 0 0 0 0 0 0 0 0 0 0 0 0 0 0 0.4 0"/>
<feBlend mode="normal" in2="BackgroundImageFix" result="effect1_dropShadow_3982_96679"/>
<feBlend mode="normal" in="SourceGraphic" in2="effect1_dropShadow_3982_96679" result="shape"/>
</filter>
</defs>
</svg>
