<svg width="38" height="38" viewBox="0 0 38 38" fill="none" xmlns="http://www.w3.org/2000/svg">
<g filter="url(#filter0_d_3982_96671)">
<path d="M14.7457 6H8.49545L6 8.50012V14.7457H9.40909V9.40909H14.7457V6ZM14.7457 31H8.49545L6 28.5057V22.2554H9.40909V27.5909H14.7457V31ZM22.2461 31H28.5057L31 28.5057V22.2554H27.5909V27.5909H22.2554L22.2461 31ZM27.251 13.5004C27.746 13.5095 28.2378 13.4188 28.6969 13.2336C29.156 13.0484 29.5731 12.7725 29.9232 12.4224C30.2733 12.0723 30.5492 11.6552 30.7344 11.1961C30.9196 10.737 31.0103 10.2452 31.0012 9.75018C31.0012 8.75557 30.6061 7.8017 29.9028 7.0984C29.1995 6.39511 28.2456 6 27.251 6C26.2564 6 25.3025 6.39511 24.5992 7.0984C23.8959 7.8017 23.5008 8.75557 23.5008 9.75018C23.4916 10.2452 23.5824 10.737 23.7676 11.1961C23.9528 11.6552 24.2287 12.0723 24.5788 12.4224C24.9289 12.7725 25.3459 13.0484 25.8051 13.2336C26.2642 13.4188 26.756 13.5095 27.251 13.5004ZM18.5006 12.2456C17.2644 12.2456 16.056 12.6122 15.0281 13.299C14.0003 13.9858 13.1991 14.9619 12.7261 16.104C12.253 17.2461 12.1292 18.5029 12.3704 19.7153C12.6116 20.9277 13.2068 22.0414 14.081 22.9155C14.9551 23.7897 16.0688 24.3849 17.2812 24.6261C18.4937 24.8673 19.7504 24.7435 20.8925 24.2704C22.0346 23.7974 23.0107 22.9963 23.6975 21.9684C24.3843 20.9405 24.7509 19.7321 24.7509 18.4959C24.745 16.8405 24.0845 15.2546 22.9135 14.0844C21.7424 12.9143 20.156 12.2549 18.5006 12.2503V12.2456Z" fill="white"/>
</g>
<defs>
<filter id="filter0_d_3982_96671" x="2" y="4" width="33.002" height="33" filterUnits="userSpaceOnUse" color-interpolation-filters="sRGB">
<feFlood flood-opacity="0" result="BackgroundImageFix"/>
<feColorMatrix in="SourceAlpha" type="matrix" values="0 0 0 0 0 0 0 0 0 0 0 0 0 0 0 0 0 0 127 0" result="hardAlpha"/>
<feOffset dy="2"/>
<feGaussianBlur stdDeviation="2"/>
<feComposite in2="hardAlpha" operator="out"/>
<feColorMatrix type="matrix" values="0 0 0 0 0 0 0 0 0 0 0 0 0 0 0 0 0 0 0.4 0"/>
<feBlend mode="normal" in2="BackgroundImageFix" result="effect1_dropShadow_3982_96671"/>
<feBlend mode="normal" in="SourceGraphic" in2="effect1_dropShadow_3982_96671" result="shape"/>
</filter>
</defs>
</svg>
