<svg width="38" height="39" viewBox="0 0 38 39" fill="none" xmlns="http://www.w3.org/2000/svg">
<g filter="url(#filter0_d_3982_96673)">
<path d="M12.6744 23.1003C11.4515 23.1003 10.2291 22.6349 9.29819 21.7039L6.3964 18.8021C4.53453 16.9403 4.53453 13.9115 6.3964 12.0496L7.06835 11.3777C8.93022 9.51629 11.959 9.51579 13.8209 11.3777L16.7227 14.2795C18.5845 16.1413 18.5845 19.1701 16.7227 21.032L16.0507 21.7039C15.1198 22.6349 13.8969 23.1003 12.6744 23.1003ZM10.4446 12.93C9.97714 12.93 9.51018 13.108 9.1542 13.4635L8.48225 14.1355C7.7708 14.8469 7.7708 16.0048 8.48225 16.7163L11.384 19.6181C12.0955 20.3295 13.2534 20.3295 13.9649 19.6181L14.6368 18.9461C15.3483 18.2347 15.3483 17.0768 14.6368 16.3653L11.735 13.4635C11.379 13.1075 10.9121 12.93 10.4446 12.93Z" fill="white"/>
<path d="M22.5739 32.9999C21.351 32.9999 20.1285 32.5345 19.1976 31.6035L16.2958 28.7017C14.4339 26.8399 14.4339 23.8111 16.2958 21.9492L16.9678 21.2773C18.8296 19.4154 21.8584 19.4154 23.7203 21.2773L26.6221 24.1791C28.4839 26.0409 28.4839 29.0697 26.6221 30.9316L25.9501 31.6035C25.0192 32.5345 23.7968 32.9999 22.5739 32.9999ZM20.344 22.8297C19.8766 22.8297 19.4096 23.0076 19.0536 23.3631L18.3817 24.0351C17.6702 24.7465 17.6702 25.9044 18.3817 26.6159L21.2835 29.5177C21.9949 30.2291 23.1528 30.2291 23.8643 29.5177L24.5362 28.8457C25.2477 28.1343 25.2477 26.9764 24.5362 26.2649L21.6344 23.3631C21.2785 23.0071 20.8115 22.8297 20.344 22.8297Z" fill="white"/>
<g filter="url(#filter1_d_3982_96673)">
<path d="M19.9838 26.4416C19.6063 26.4416 19.2288 26.2976 18.9408 26.0096L12.1253 19.1941C11.5494 18.6181 11.5494 17.6842 12.1253 17.1082C12.7013 16.5323 13.6352 16.5323 14.2112 17.1082L21.0267 23.9238C21.6026 24.4997 21.6026 25.4337 21.0267 26.0096C20.7387 26.2976 20.3612 26.4416 19.9838 26.4416Z" fill="white"/>
</g>
<path d="M25.222 5C21.0948 5 17.749 8.34575 17.749 12.473C17.749 16.6003 21.0948 19.946 25.222 19.946C29.3493 19.946 32.6951 16.6003 32.6951 12.473C32.6951 8.34575 29.3493 5 25.222 5ZM25.3436 14.2872V12.2718C25.1676 12.2718 24.9983 12.261 24.8308 12.2736C23.4335 12.3762 22.3899 13.0537 21.6638 14.2386C21.1934 15.0066 20.9251 15.8498 20.745 16.7254C20.7076 16.9064 20.6779 17.0883 20.6446 17.2702C20.6369 17.2711 20.6288 17.272 20.6212 17.2729C20.6014 17.0982 20.5784 16.924 20.5618 16.7493C20.4636 15.726 20.4956 14.7118 20.7828 13.7173C21.2649 12.0489 22.3229 10.8789 23.885 10.1483C24.3203 9.9448 24.7737 9.79263 25.2409 9.68369C25.3206 9.66523 25.344 9.63462 25.3436 9.55449C25.3404 8.93774 25.3418 8.32054 25.3418 7.67408C26.8787 8.78108 28.3994 9.87682 29.9336 10.9816C28.4008 12.0854 26.8819 13.1798 25.344 14.2877L25.3436 14.2872Z" fill="white"/>
</g>
<defs>
<filter id="filter0_d_3982_96673" x="1" y="3" width="35.6953" height="36" filterUnits="userSpaceOnUse" color-interpolation-filters="sRGB">
<feFlood flood-opacity="0" result="BackgroundImageFix"/>
<feColorMatrix in="SourceAlpha" type="matrix" values="0 0 0 0 0 0 0 0 0 0 0 0 0 0 0 0 0 0 127 0" result="hardAlpha"/>
<feOffset dy="2"/>
<feGaussianBlur stdDeviation="2"/>
<feComposite in2="hardAlpha" operator="out"/>
<feColorMatrix type="matrix" values="0 0 0 0 0 0 0 0 0 0 0 0 0 0 0 0 0 0 0.4 0"/>
<feBlend mode="normal" in2="BackgroundImageFix" result="effect1_dropShadow_3982_96673"/>
<feBlend mode="normal" in="SourceGraphic" in2="effect1_dropShadow_3982_96673" result="shape"/>
</filter>
<filter id="filter1_d_3982_96673" x="10.6934" y="16.6763" width="11.7656" height="11.7651" filterUnits="userSpaceOnUse" color-interpolation-filters="sRGB">
<feFlood flood-opacity="0" result="BackgroundImageFix"/>
<feColorMatrix in="SourceAlpha" type="matrix" values="0 0 0 0 0 0 0 0 0 0 0 0 0 0 0 0 0 0 127 0" result="hardAlpha"/>
<feOffset dy="1"/>
<feGaussianBlur stdDeviation="0.5"/>
<feComposite in2="hardAlpha" operator="out"/>
<feColorMatrix type="matrix" values="0 0 0 0 0 0 0 0 0 0 0 0 0 0 0 0 0 0 0.4 0"/>
<feBlend mode="normal" in2="BackgroundImageFix" result="effect1_dropShadow_3982_96673"/>
<feBlend mode="normal" in="SourceGraphic" in2="effect1_dropShadow_3982_96673" result="shape"/>
</filter>
</defs>
</svg>
