<svg width="42" height="43" viewBox="0 0 42 43" fill="none" xmlns="http://www.w3.org/2000/svg">
<rect x="2" y="2.5" width="38" height="38" rx="8" fill="url(#paint0_linear_2556_60674)"/>
<g filter="url(#filter0_d_2556_60674)">
<path d="M31.5 31.5227L31.5 11.4773C31.5 10.2523 30.45 9.25 29.1667 9.25L12.8333 9.25C11.55 9.25 10.5 10.2523 10.5 11.4773L10.5 31.5227C10.5 32.7477 11.55 33.75 12.8333 33.75L29.1667 33.75C30.45 33.75 31.5 32.7477 31.5 31.5227ZM22.1667 30.4091L22.1667 22.6136C22.1667 22.0011 22.6917 21.5 23.3333 21.5L28 21.5C28.6417 21.5 29.1667 22.0011 29.1667 22.6136L29.1667 30.4091C29.1667 31.0216 28.6417 31.5227 28 31.5227L23.3333 31.5227C22.6917 31.5227 22.1667 31.0216 22.1667 30.4091Z" fill="white"/>
</g>
<defs>
<filter id="filter0_d_2556_60674" x="6.5" y="7.25" width="29" height="32.5" filterUnits="userSpaceOnUse" color-interpolation-filters="sRGB">
<feFlood flood-opacity="0" result="BackgroundImageFix"/>
<feColorMatrix in="SourceAlpha" type="matrix" values="0 0 0 0 0 0 0 0 0 0 0 0 0 0 0 0 0 0 127 0" result="hardAlpha"/>
<feOffset dy="2"/>
<feGaussianBlur stdDeviation="2"/>
<feComposite in2="hardAlpha" operator="out"/>
<feColorMatrix type="matrix" values="0 0 0 0 0 0 0 0 0 0 0 0 0 0 0 0 0 0 0.4 0"/>
<feBlend mode="normal" in2="BackgroundImageFix" result="effect1_dropShadow_2556_60674"/>
<feBlend mode="normal" in="SourceGraphic" in2="effect1_dropShadow_2556_60674" result="shape"/>
</filter>
<linearGradient id="paint0_linear_2556_60674" x1="21" y1="2.5" x2="21" y2="40.5" gradientUnits="userSpaceOnUse">
<stop stop-color="#0CBA9B"/>
<stop offset="1" stop-color="#006C7A"/>
</linearGradient>
</defs>
</svg>
