<svg width="39" height="38" viewBox="0 0 39 38" fill="none" xmlns="http://www.w3.org/2000/svg">
<g filter="url(#filter0_d_3982_96676)">
<path d="M25.3212 19.8861C25.2884 19.9568 25.2542 19.9929 25.22 20.0636C24.2474 21.7614 21.9164 21.9735 20.8767 22.0081C20.2395 21.9877 19.6131 21.8297 19.0362 21.5439C18.4593 21.258 17.944 20.8505 17.5224 20.3463L16.4705 19.0755C18.6496 18.5475 19.677 17.7007 19.4335 17.092C18.2692 16.3581 17.4166 15.1808 17.0519 13.8031C16.4144 11.0089 18.4267 9.16973 17.3542 7.79069C15.8781 5.91543 10.0096 7.08386 6.8564 10.7262C5.29679 12.6964 4.32673 15.1103 4.06909 17.6622C3.81146 20.2142 4.27784 22.7893 5.40915 25.0616C6.54047 27.3338 8.28583 29.2009 10.4242 30.4264C12.5625 31.6518 14.9977 32.1805 17.4212 31.9455C23.2912 31.3801 28.6563 26.1452 28.0202 22.7856C27.7466 21.3705 26.8958 20.6218 25.3199 19.8861H25.3212ZM7.83039 22.8217C7.41914 22.8217 7.01713 22.6931 6.67519 22.4521C6.33324 22.2112 6.06673 21.8688 5.90936 21.4681C5.75198 21.0675 5.7108 20.6266 5.79104 20.2013C5.87127 19.776 6.0693 19.3853 6.3601 19.0786C6.6509 18.772 7.0214 18.5632 7.42474 18.4786C7.82809 18.3939 8.24616 18.4374 8.62611 18.6033C9.00605 18.7693 9.3308 19.0503 9.55928 19.4109C9.78776 19.7715 9.90971 20.1954 9.90971 20.629C9.91116 20.9174 9.85836 21.2032 9.75437 21.4699C9.65039 21.7366 9.4973 21.979 9.30392 22.1829C9.11055 22.3868 8.88075 22.5482 8.62782 22.6579C8.37489 22.7675 8.10385 22.8232 7.83039 22.8217ZM12.1231 29.2581C11.7118 29.2581 11.3098 29.1295 10.9679 28.8886C10.6259 28.6477 10.3594 28.3053 10.202 27.9046C10.0447 27.504 10.0035 27.0631 10.0837 26.6378C10.1639 26.2124 10.362 25.8217 10.6528 25.5151C10.9436 25.2085 11.3141 24.9996 11.7174 24.915C12.1208 24.8304 12.5388 24.8739 12.9188 25.0398C13.2987 25.2058 13.6235 25.4868 13.852 25.8474C14.0804 26.2079 14.2024 26.6319 14.2024 27.0655C14.1995 27.6456 13.9799 28.2011 13.5912 28.6116C13.2024 29.022 12.6759 29.2543 12.1258 29.2581H12.1231ZM14.0013 11.7518C13.7226 11.7518 13.4502 11.6647 13.2185 11.5014C12.9868 11.3382 12.8062 11.1061 12.6995 10.8346C12.5929 10.5631 12.565 10.2644 12.6194 9.97617C12.6737 9.68796 12.8079 9.42322 13.005 9.21543C13.202 9.00764 13.4531 8.86613 13.7264 8.8088C13.9997 8.75147 14.283 8.7809 14.5405 8.89336C14.798 9.00581 15.018 9.19625 15.1728 9.44058C15.3277 9.68492 15.4103 9.97218 15.4103 10.266C15.4081 10.6594 15.259 11.036 14.9952 11.3141C14.7315 11.5923 14.3743 11.7495 14.0013 11.7518ZM18.7974 30.2491C18.3861 30.2491 17.9841 30.1205 17.6422 29.8796C17.3002 29.6387 17.0337 29.2963 16.8764 28.8956C16.719 28.495 16.6778 28.0541 16.758 27.6288C16.8383 27.2034 17.0363 26.8128 17.3271 26.5061C17.6179 26.1995 17.9884 25.9906 18.3917 25.906C18.7951 25.8214 19.2132 25.8649 19.5931 26.0308C19.973 26.1968 20.2978 26.4778 20.5263 26.8384C20.7548 27.1989 20.8767 27.6229 20.8767 28.0565C20.8738 28.6371 20.6538 29.193 20.2645 29.6036C19.8752 30.0141 19.348 30.2461 18.7974 30.2491ZM23.9628 26.3948C23.5516 26.3948 23.1496 26.2662 22.8076 26.0252C22.4657 25.7843 22.1992 25.4419 22.0418 25.0412C21.8844 24.6406 21.8432 24.1997 21.9235 23.7744C22.0037 23.3491 22.2017 22.9584 22.4925 22.6517C22.7833 22.3451 23.1538 22.1362 23.5572 22.0516C23.9605 21.967 24.3786 22.0105 24.7585 22.1764C25.1385 22.3424 25.4632 22.6234 25.6917 22.984C25.9202 23.3446 26.0421 23.7685 26.0421 24.2021C26.0434 24.4904 25.9905 24.776 25.8864 25.0426C25.7824 25.3091 25.6292 25.5513 25.4359 25.755C25.2425 25.9588 25.0128 26.1201 24.7599 26.2297C24.5071 26.3392 24.2362 26.3948 23.9628 26.3933V26.3948Z" fill="white"/>
<path d="M34.5314 5.34566C34.3099 5.12375 34.0161 5 33.7106 5C33.4051 5 33.1112 5.12375 32.8898 5.34566L25.6136 11.8961C24.819 12.5983 24.2035 13.4988 23.8229 14.5157L23.749 14.7854C24.166 14.9096 24.5439 15.1492 24.8434 15.4793C25.1626 15.8216 25.3897 16.2473 25.5014 16.7126C25.5739 16.6737 25.6847 16.6737 25.7572 16.6362C26.7602 16.251 27.6447 15.5847 28.3153 14.709L34.5272 7.0406C34.7383 6.81471 34.8567 6.51029 34.8567 6.19314C34.8567 5.87598 34.7383 5.57156 34.5272 5.34566H34.5314Z" fill="white"/>
<path d="M18.436 19.3703L18.0898 19.4698L18.3416 19.7353C18.7135 20.1401 19.1577 20.4633 19.6486 20.6861C20.1396 20.9089 20.6675 21.027 21.202 21.0335H21.5166C22.097 21.0325 22.6691 20.8885 23.1873 20.613C23.7056 20.3376 24.1556 19.9382 24.5015 19.4468C24.533 19.4136 24.533 19.3804 24.5644 19.3472C24.876 18.7393 24.9762 18.0356 24.8476 17.358C24.754 16.8943 24.5361 16.4688 24.2197 16.1319C23.9352 15.8329 23.5753 15.6262 23.1828 15.5361C22.6723 15.3966 22.1323 15.4403 21.6479 15.6602C21.1819 15.8579 20.7787 16.1911 20.4852 16.6209C20.3542 16.8065 20.2679 17.0228 20.2335 17.2513C20.202 17.384 20.202 17.5167 20.1706 17.6494C20.1635 17.8905 20.1099 18.1275 20.0132 18.3461C19.6194 18.8719 19.0632 19.2354 18.4414 19.3732L18.436 19.3703Z" fill="white"/>
</g>
<defs>
<filter id="filter0_d_3982_96676" x="0" y="3" width="38.8564" height="35" filterUnits="userSpaceOnUse" color-interpolation-filters="sRGB">
<feFlood flood-opacity="0" result="BackgroundImageFix"/>
<feColorMatrix in="SourceAlpha" type="matrix" values="0 0 0 0 0 0 0 0 0 0 0 0 0 0 0 0 0 0 127 0" result="hardAlpha"/>
<feOffset dy="2"/>
<feGaussianBlur stdDeviation="2"/>
<feComposite in2="hardAlpha" operator="out"/>
<feColorMatrix type="matrix" values="0 0 0 0 0 0 0 0 0 0 0 0 0 0 0 0 0 0 0.4 0"/>
<feBlend mode="normal" in2="BackgroundImageFix" result="effect1_dropShadow_3982_96676"/>
<feBlend mode="normal" in="SourceGraphic" in2="effect1_dropShadow_3982_96676" result="shape"/>
</filter>
</defs>
</svg>
