<svg width="40" height="38" viewBox="0 0 40 38" fill="none" xmlns="http://www.w3.org/2000/svg">
<g filter="url(#filter0_d_3982_96675)">
<path d="M15.2932 24.3771C16.1229 24.3771 16.7954 23.6868 16.7954 22.8353C16.7954 21.9837 16.1229 21.2935 15.2932 21.2935C14.4636 21.2935 13.791 21.9837 13.791 22.8353C13.791 23.6868 14.4636 24.3771 15.2932 24.3771Z" fill="white"/>
<path d="M19.2362 16.9692C19.9905 16.195 19.9905 14.9398 19.2362 14.1655C18.4818 13.3913 17.2588 13.3913 16.5045 14.1655C15.7502 14.9398 15.7502 16.195 16.5045 16.9692C17.2588 17.7434 18.4818 17.7434 19.2362 16.9692Z" fill="white"/>
<path d="M19.1346 20.6093C19.5962 20.4975 19.8821 20.0228 19.7731 19.5491C19.6642 19.0753 19.2017 18.7819 18.7401 18.8937C18.2785 19.0055 17.9926 19.4802 18.1016 19.954C18.2105 20.4277 18.673 20.7212 19.1346 20.6093Z" fill="white"/>
<path d="M15.5312 19.9436C16.1079 19.8039 16.465 19.2109 16.3289 18.619C16.1928 18.0272 15.615 17.6606 15.0383 17.8003C14.4616 17.94 14.1045 18.533 14.2406 19.1249C14.3767 19.7168 14.9545 20.0833 15.5312 19.9436Z" fill="white"/>
<path d="M11.638 18.8683C12.4676 18.8683 13.1402 18.178 13.1402 17.3265C13.1402 16.475 12.4676 15.7847 11.638 15.7847C10.8083 15.7847 10.1357 16.475 10.1357 17.3265C10.1357 18.178 10.8083 18.8683 11.638 18.8683Z" fill="white"/>
<path d="M33.7434 13.2527H35.3636L35.3347 8.9718C35.3347 7.88256 34.4748 7 33.4135 7H5.86677C4.8055 7 4 7.88731 4 8.97655V13.0152H5.3888V24.2996H4V27.9819C4 29.0711 4.8055 30 5.86677 30H33.4135C34.4748 30 35.3347 29.1174 35.3347 28.0282L35.3636 24.2996H33.7434V13.2527ZM26.1571 8.28523H28.9324V9.82942H26.1571V8.28523ZM25.796 15.0963L28.0852 12.9356C28.3201 12.7135 28.687 12.7289 28.9023 12.9712C29.1187 13.2124 29.1036 13.5889 28.8675 13.8098L27.569 15.0357H31.3697C31.6891 15.0357 31.9484 15.3018 31.9484 15.6296C31.9484 15.9574 31.6891 16.2235 31.3697 16.2235H27.5922L28.8641 17.3995C29.1013 17.6192 29.121 17.9946 28.9069 18.2381C28.7923 18.3687 28.6349 18.4341 28.4764 18.4341C28.3386 18.4341 28.1998 18.3842 28.0887 18.2808L25.7995 16.1641C25.6027 16.0691 25.4662 15.866 25.4662 15.6284C25.4662 15.3908 25.6004 15.1913 25.7937 15.0951L25.796 15.0963ZM17.8312 8.28523H20.6065V9.82942H17.8312V8.28523ZM13.6683 8.28523H16.4436V9.82942H13.6683V8.28523ZM9.50542 8.28523H12.2807V9.82942H9.50542V8.28523ZM8.11778 28.716H5.34135V27.1718H8.11662V28.716H8.11778ZM8.11778 9.82942H5.34135V8.28523H8.11662V9.82942H8.11778ZM12.2807 28.716H9.50542V27.1718H12.2807V28.716ZM16.4436 28.716H13.6683V27.1718H16.4436V28.716ZM20.6065 28.716H17.8312V27.1718H20.6065V28.716ZM15.7469 25.845C11.8479 25.845 8.68719 22.601 8.68719 18.5992C8.68719 14.5974 11.8479 11.3534 15.7469 11.3534C19.6459 11.3534 22.8066 14.5974 22.8066 18.5992C22.8066 22.601 19.6459 25.845 15.7469 25.845ZM24.7694 28.716H21.9942V27.1718H24.7694V28.716ZM24.7694 9.82942H21.9942V8.28523H24.7694V9.82942ZM28.9324 28.716H26.1571V27.1718H28.9324V28.716ZM28.9069 24.77C28.7923 24.9006 28.6349 24.966 28.4764 24.966C28.3386 24.966 28.1998 24.9161 28.0887 24.8127L25.7995 22.6972C25.6027 22.6022 25.4662 22.3991 25.4662 22.1615C25.4662 21.9239 25.6004 21.7244 25.7937 21.6282L28.0829 19.4675C28.3178 19.2454 28.6847 19.2608 28.8999 19.5031C29.1164 19.7443 29.1013 20.1208 28.8652 20.3417L27.5667 21.5676H31.3674C31.6868 21.5676 31.946 21.8337 31.946 22.1615C31.946 22.4893 31.6868 22.7554 31.3674 22.7554H27.5899L28.8618 23.9314C29.099 24.1511 29.1187 24.5265 28.9046 24.77H28.9069ZM33.0953 28.716H30.32V27.1718H33.0953V28.716ZM33.0953 9.82942H30.32V8.28523H33.0953V9.82942Z" fill="white"/>
</g>
<defs>
<filter id="filter0_d_3982_96675" x="0" y="5" width="39.3633" height="31" filterUnits="userSpaceOnUse" color-interpolation-filters="sRGB">
<feFlood flood-opacity="0" result="BackgroundImageFix"/>
<feColorMatrix in="SourceAlpha" type="matrix" values="0 0 0 0 0 0 0 0 0 0 0 0 0 0 0 0 0 0 127 0" result="hardAlpha"/>
<feOffset dy="2"/>
<feGaussianBlur stdDeviation="2"/>
<feComposite in2="hardAlpha" operator="out"/>
<feColorMatrix type="matrix" values="0 0 0 0 0 0 0 0 0 0 0 0 0 0 0 0 0 0 0.4 0"/>
<feBlend mode="normal" in2="BackgroundImageFix" result="effect1_dropShadow_3982_96675"/>
<feBlend mode="normal" in="SourceGraphic" in2="effect1_dropShadow_3982_96675" result="shape"/>
</filter>
</defs>
</svg>
