<svg width="42" height="42" viewBox="0 0 42 42" fill="none" xmlns="http://www.w3.org/2000/svg">
<rect width="42" height="42" rx="8" fill="url(#paint0_linear_2556_40475)"/>
<g filter="url(#filter0_i_2556_40475)">
<path fill-rule="evenodd" clip-rule="evenodd" d="M13.4939 9.3724C13.1135 9.52672 12.8465 10.0395 12.8393 10.6294C12.8331 11.1373 13.0522 11.6299 13.3684 11.8188C13.5672 11.9377 13.611 11.9384 21.0065 11.9384H28.4446L28.6457 11.8073C28.7563 11.7352 28.9161 11.5459 29.0009 11.3865C29.2209 10.9732 29.2223 10.2848 29.0041 9.87479C28.9211 9.71873 28.7768 9.53592 28.6835 9.46852L28.5138 9.34601L21.0641 9.33477C16.9668 9.32859 13.5602 9.34554 13.4939 9.3724ZM14.0447 12.4772C13.9954 12.7452 14.0583 14.7471 14.1302 15.2007C14.2529 15.9733 14.424 16.4004 14.8652 17.0357C15.182 17.4918 15.3425 17.6665 16.4992 18.8129C18.7738 21.0672 19.0657 21.3956 19.0657 21.7012C19.0657 21.9068 18.5939 22.4707 17.4529 23.6289C15.8455 25.2605 15.5772 25.5451 15.1446 26.0773C14.6208 26.7216 14.3256 27.3023 14.1854 27.9648C14.0636 28.5394 13.9619 30.3059 14.0303 30.6584L14.0716 30.8714H14.6712H15.2709V29.8887C15.2709 29.2714 15.3051 28.7136 15.363 28.3886C15.5452 27.3648 15.7856 27.0497 18.4513 24.3416C20.1135 22.6528 20.4331 22.1347 20.269 21.395C20.1265 20.7521 19.7703 20.3317 17.3163 17.9096C15.3974 16.0154 15.3121 15.8332 15.3051 13.6133L15.301 12.2882L14.6903 12.288L14.0796 12.2879L14.0447 12.4772ZM26.7042 13.4093C26.7333 15.152 26.6027 15.7485 26.0322 16.4792C25.8614 16.698 24.9931 17.6066 24.1026 18.4984C21.9826 20.6216 21.6551 21.0796 21.7334 21.8126C21.8035 22.4699 22.1411 22.9113 24.0923 24.8977C26.0056 26.8455 26.4022 27.3487 26.5986 28.0776C26.6371 28.2204 26.6859 28.9009 26.7071 29.5898L26.7457 30.8423H27.348H27.9504L27.9459 29.648C27.9404 28.2046 27.8602 27.7559 27.4719 26.9974C27.1258 26.3214 26.627 25.7312 25.0644 24.1487C23.2995 22.3613 22.981 21.9789 22.981 21.6472C22.981 21.4334 23.4473 20.8625 24.3659 19.9514C25.9996 18.3312 26.6127 17.7036 26.9002 17.357C27.7423 16.3423 27.979 15.4579 27.98 13.3219L27.9805 12.2879L27.333 12.2879L26.6854 12.2878L26.7042 13.4093ZM16.6067 15.39C16.8714 15.7496 17.4567 16.4 18.7698 17.7933C19.4946 18.5624 20.1961 19.3313 20.3287 19.502C20.6209 19.8781 20.722 20.1899 20.8496 21.109C20.9033 21.4961 20.966 21.8463 20.9888 21.8873C21.0116 21.9284 21.0874 21.5876 21.1573 21.13C21.2991 20.2012 21.3894 19.8996 21.6228 19.5738C21.8064 19.3176 22.492 18.5649 23.6428 17.3561C24.4658 16.4917 25.355 15.4855 25.4583 15.3018C25.4995 15.2284 25.4078 15.2582 25.137 15.4066C24.22 15.9086 23.2792 16.2634 22.3485 16.4584C21.6886 16.5966 20.2966 16.5964 19.6379 16.4581C18.7248 16.2664 17.5899 15.829 16.8266 15.3748C16.6657 15.279 16.519 15.2007 16.5007 15.2007C16.4824 15.2007 16.5301 15.2859 16.6067 15.39ZM20.9392 23.5895C20.8989 23.7337 20.8129 24.0432 20.7481 24.2774C20.54 25.0291 20.3944 25.2327 19.3444 26.2401C18.81 26.7527 18.0312 27.4888 17.6137 27.8759C16.8661 28.5688 16.3716 29.1644 16.0707 29.7341C15.8889 30.0783 15.6925 30.6132 15.6925 30.7642C15.6925 30.8679 15.8806 30.8716 21.0233 30.8701C23.9553 30.8693 26.3541 30.8476 26.3541 30.822C26.3541 30.7342 26.0681 29.9619 25.9613 29.7611C25.6318 29.1423 25.2026 28.638 24.2536 27.7547C22.5466 26.1662 21.7969 25.4213 21.638 25.1557C21.5006 24.926 21.3391 24.4679 21.096 23.6186L21.0126 23.3273L20.9392 23.5895ZM13.3653 31.3327C13.2495 31.401 13.1116 31.5723 13.0089 31.7753C12.6928 32.4003 12.8166 33.2499 13.2786 33.6259C13.3856 33.713 13.532 33.798 13.604 33.8149C13.676 33.8319 17.0553 33.8384 21.1137 33.8295L28.4925 33.8133L28.6831 33.6818C28.9958 33.4661 29.1551 33.078 29.1551 32.5317C29.1551 31.9743 28.9788 31.5633 28.6492 31.3521L28.4446 31.2209L20.9994 31.2212C13.775 31.2214 13.5486 31.2247 13.3653 31.3327Z" fill="white"/>
</g>
<defs>
<filter id="filter0_i_2556_40475" x="12.8335" y="9.3335" width="16.3335" height="24.5" filterUnits="userSpaceOnUse" color-interpolation-filters="sRGB">
<feFlood flood-opacity="0" result="BackgroundImageFix"/>
<feBlend mode="normal" in="SourceGraphic" in2="BackgroundImageFix" result="shape"/>
<feColorMatrix in="SourceAlpha" type="matrix" values="0 0 0 0 0 0 0 0 0 0 0 0 0 0 0 0 0 0 127 0" result="hardAlpha"/>
<feOffset/>
<feGaussianBlur stdDeviation="2"/>
<feComposite in2="hardAlpha" operator="arithmetic" k2="-1" k3="1"/>
<feColorMatrix type="matrix" values="0 0 0 0 0.105882 0 0 0 0 0.576471 0 0 0 0 0.580392 0 0 0 0.3 0"/>
<feBlend mode="normal" in2="shape" result="effect1_innerShadow_2556_40475"/>
</filter>
<linearGradient id="paint0_linear_2556_40475" x1="21" y1="0" x2="21" y2="42" gradientUnits="userSpaceOnUse">
<stop stop-color="#F05B5A"/>
<stop offset="1" stop-color="#C61E1D"/>
</linearGradient>
</defs>
</svg>
