<svg width="38" height="38" viewBox="0 0 38 38" fill="none" xmlns="http://www.w3.org/2000/svg">
<g filter="url(#filter0_d_3982_96674)">
<path fill-rule="evenodd" clip-rule="evenodd" d="M10.7359 6.04128C10.312 6.20505 10.0144 6.74921 10.0064 7.37522C9.9996 7.91425 10.2437 8.43695 10.596 8.63751C10.8176 8.76362 10.8663 8.76436 19.107 8.76436H27.3952L27.6193 8.62526C27.7425 8.54873 27.9207 8.34781 28.0152 8.17872C28.2602 7.7401 28.2618 7.00954 28.0187 6.57444C27.9262 6.40882 27.7654 6.21482 27.6614 6.14329L27.4724 6.01328L19.1713 6.00135C14.6057 5.99479 10.8097 6.01278 10.7359 6.04128ZM11.3496 9.33622C11.2947 9.62054 11.3647 11.7451 11.4449 12.2264C11.5817 13.0464 11.7722 13.4996 12.2639 14.1738C12.6169 14.6578 12.7958 14.8431 14.0847 16.0597C16.6192 18.4521 16.9444 18.8006 16.9444 19.1249C16.9444 19.3431 16.4187 19.9416 15.1474 21.1706C13.3562 22.9021 13.0573 23.2041 12.5752 23.7689C11.9916 24.4527 11.6627 25.0689 11.5064 25.7719C11.3706 26.3818 11.2574 28.2565 11.3336 28.6305L11.3796 28.8566H12.0477H12.7159V27.8137C12.7159 27.1586 12.754 26.5667 12.8185 26.2218C13.0216 25.1353 13.2895 24.8009 16.2598 21.9269C18.112 20.1348 18.4681 19.585 18.2853 18.8C18.1265 18.1177 17.7296 17.6716 14.9952 15.1011C12.8569 13.091 12.7618 12.8977 12.7541 10.5419L12.7495 9.13561L12.069 9.13542L11.3885 9.1353L11.3496 9.33622ZM25.4559 10.3253C25.4883 12.1748 25.3428 12.8078 24.7072 13.5832C24.5168 13.8154 23.5492 14.7797 22.557 15.726C20.1947 17.9792 19.8298 18.4652 19.917 19.2432C19.9951 19.9406 20.3713 20.4091 22.5455 22.5171C24.6775 24.5842 25.1194 25.1182 25.3382 25.8917C25.3811 26.0433 25.4356 26.7654 25.4592 27.4965L25.5021 28.8256H26.1733H26.8445L26.8395 27.5583C26.8335 26.0265 26.7441 25.5503 26.3113 24.7454C25.9257 24.028 25.3699 23.4017 23.6287 21.7223C21.6621 19.8255 21.3072 19.4196 21.3072 19.0676C21.3072 18.8408 21.8268 18.2348 22.8504 17.268C24.6708 15.5485 25.3539 14.8825 25.6744 14.5148C26.6127 13.4379 26.8764 12.4993 26.8776 10.2326L26.8781 9.1353L26.1566 9.13523L25.435 9.13517L25.4559 10.3253ZM14.2044 12.4273C14.4993 12.809 15.1516 13.4991 16.6147 14.9777C17.4224 15.794 18.2041 16.61 18.3518 16.791C18.6774 17.1902 18.79 17.521 18.9322 18.4965C18.9921 18.9072 19.0619 19.2789 19.0873 19.3224C19.1127 19.366 19.1972 19.0043 19.2751 18.5187C19.4331 17.5331 19.5337 17.213 19.7938 16.8673C19.9984 16.5954 20.7624 15.7966 22.0447 14.5138C22.9617 13.5964 23.9526 12.5287 24.0676 12.3337C24.1136 12.2558 24.0114 12.2875 23.7096 12.4449C22.6878 12.9777 21.6395 13.3542 20.6024 13.5611C19.8671 13.7078 18.316 13.7076 17.5821 13.5608C16.5646 13.3573 15.2999 12.8932 14.4494 12.4112C14.2701 12.3096 14.1067 12.2264 14.0863 12.2264C14.0659 12.2264 14.119 12.3168 14.2044 12.4273ZM19.0321 21.1288C18.9871 21.2818 18.8913 21.6103 18.8191 21.8589C18.5872 22.6566 18.425 22.8727 17.255 23.9417C16.6596 24.4857 15.7917 25.2669 15.3265 25.6776C14.4935 26.413 13.9425 27.045 13.6071 27.6497C13.4046 28.0149 13.1858 28.5826 13.1858 28.7427C13.1858 28.8528 13.3954 28.8568 19.1258 28.8552C22.3928 28.8543 25.0659 28.8313 25.0659 28.8041C25.0659 28.7109 24.7471 27.8913 24.6281 27.6783C24.261 27.0216 23.7827 26.4864 22.7252 25.5491C20.8232 23.8633 19.9878 23.0727 19.8108 22.7909C19.6577 22.5472 19.4776 22.061 19.2068 21.1597L19.1139 20.8506L19.0321 21.1288ZM10.5926 29.3461C10.4636 29.4186 10.3099 29.6003 10.1955 29.8158C9.84321 30.479 9.98114 31.3807 10.4959 31.7797C10.6152 31.8721 10.7783 31.9624 10.8585 31.9803C10.9387 31.9983 14.7043 32.0052 19.2265 31.9958L27.4486 31.9786L27.661 31.839C28.0094 31.6101 28.1869 31.1982 28.1869 30.6185C28.1869 30.027 27.9905 29.5908 27.6232 29.3667L27.3952 29.2275L19.0991 29.2277C11.0491 29.2279 10.7968 29.2314 10.5926 29.3461Z" fill="white"/>
</g>
<defs>
<filter id="filter0_d_3982_96674" x="6" y="4" width="26.2002" height="34" filterUnits="userSpaceOnUse" color-interpolation-filters="sRGB">
<feFlood flood-opacity="0" result="BackgroundImageFix"/>
<feColorMatrix in="SourceAlpha" type="matrix" values="0 0 0 0 0 0 0 0 0 0 0 0 0 0 0 0 0 0 127 0" result="hardAlpha"/>
<feOffset dy="2"/>
<feGaussianBlur stdDeviation="2"/>
<feComposite in2="hardAlpha" operator="out"/>
<feColorMatrix type="matrix" values="0 0 0 0 0 0 0 0 0 0 0 0 0 0 0 0 0 0 0.4 0"/>
<feBlend mode="normal" in2="BackgroundImageFix" result="effect1_dropShadow_3982_96674"/>
<feBlend mode="normal" in="SourceGraphic" in2="effect1_dropShadow_3982_96674" result="shape"/>
</filter>
</defs>
</svg>
