<svg width="39" height="38" viewBox="0 0 39 38" fill="none" xmlns="http://www.w3.org/2000/svg">
<g filter="url(#filter0_d_3982_96632)">
<path d="M34.5455 9.72165V28.2784C34.2554 29.7221 33.4322 30.6313 32.0689 31H6.47666C5.18762 30.6858 4.3774 29.8433 4 28.5258V9.47423C4.37858 8.1567 5.18998 7.31794 6.47666 7C15.007 7 23.5385 7 32.0689 7C32.3201 7.09526 32.576 7.17567 32.8201 7.28701C33.8344 7.7534 34.2979 8.65526 34.5455 9.72165ZM26.862 9.02639H11.6517V28.9637H26.862V9.02639ZM7.83529 8.99423C5.98487 8.99423 5.89642 9.08577 5.89642 10.9922C5.89642 12.9431 5.98133 13.0309 7.85888 13.0309C9.63264 13.0309 9.75058 12.906 9.75058 11.028C9.75058 9.10433 9.6468 8.99546 7.83411 8.99546L7.83529 8.99423ZM28.7773 11.0021C28.7773 12.9258 28.8775 13.0309 30.6937 13.0309C32.5276 13.0309 32.6326 12.9233 32.6326 11.0194C32.6326 9.11546 32.5312 8.99546 30.7079 8.99546C28.8846 8.99546 28.7773 9.08948 28.7773 11.0033V11.0021ZM5.89642 26.9225C5.89642 28.934 5.96364 29.0058 7.87185 29.0058C9.62203 29.0058 9.75176 28.8709 9.75176 27.0548C9.75176 25.0532 9.67156 24.9691 7.76453 24.9691C6.01553 24.9691 5.89642 25.0928 5.89642 26.9225ZM28.7773 26.9485C28.7773 28.9216 28.8563 29.0058 30.7197 29.0058H30.7786C32.5111 29.0058 32.6326 28.8759 32.6326 27.0313C32.6326 25.0656 32.5418 24.9691 30.6819 24.9691C28.8221 24.9691 28.7773 25.0804 28.7773 26.9485ZM30.7102 20.988C31.0039 20.988 31.2987 20.9955 31.5924 20.9868C32.2198 20.9682 32.5913 20.628 32.622 19.9761C32.6538 19.3204 32.6527 18.6598 32.6208 18.0029C32.5901 17.3819 32.2222 17.0367 31.6325 17.0144C31.2999 17.0021 30.9662 17.0107 30.6336 17.0107C28.861 17.0107 28.7784 17.0973 28.7784 18.9468C28.7784 20.9373 28.8256 20.9868 30.7114 20.9868L30.7102 20.988ZM7.79755 20.988C8.03225 20.988 8.26812 20.988 8.50281 20.988C9.41328 20.9831 9.73761 20.6503 9.75058 19.6977C9.75766 19.1843 9.76237 18.6697 9.74822 18.1563C9.72699 17.388 9.3779 17.0268 8.66203 17.012C8.36836 17.0058 8.0747 17.0107 7.77986 17.0107C5.96836 17.0107 5.89642 17.0862 5.89642 18.9765C5.89642 20.9212 5.95892 20.9868 7.79755 20.9868V20.988Z" fill="white"/>
<path d="M14.4959 18.9822C14.4959 17.7266 14.4912 16.4709 14.4971 15.2152C14.5018 14.1921 15.1564 13.7493 16.0232 14.2008C18.4633 15.4688 20.8952 16.753 23.3329 18.0247C23.7327 18.2338 24.0134 18.5245 24.0063 19.0144C24.0004 19.5055 23.7044 19.7802 23.307 19.9868C20.8857 21.2474 18.4716 22.5229 16.0503 23.7835C15.1505 24.2511 14.5006 23.8132 14.4971 22.7517C14.4924 21.4961 14.4971 20.2404 14.4971 18.9847L14.4959 18.9822Z" fill="white"/>
</g>
<defs>
<filter id="filter0_d_3982_96632" x="0.267938" y="5.13397" width="38.01" height="31.4641" filterUnits="userSpaceOnUse" color-interpolation-filters="sRGB">
<feFlood flood-opacity="0" result="BackgroundImageFix"/>
<feColorMatrix in="SourceAlpha" type="matrix" values="0 0 0 0 0 0 0 0 0 0 0 0 0 0 0 0 0 0 127 0" result="hardAlpha"/>
<feOffset dy="1.86603"/>
<feGaussianBlur stdDeviation="1.86603"/>
<feComposite in2="hardAlpha" operator="out"/>
<feColorMatrix type="matrix" values="0 0 0 0 0 0 0 0 0 0 0 0 0 0 0 0 0 0 0.4 0"/>
<feBlend mode="normal" in2="BackgroundImageFix" result="effect1_dropShadow_3982_96632"/>
<feBlend mode="normal" in="SourceGraphic" in2="effect1_dropShadow_3982_96632" result="shape"/>
</filter>
</defs>
</svg>
