<svg width="42" height="42" viewBox="0 0 42 42" fill="none" xmlns="http://www.w3.org/2000/svg">
<rect width="42" height="42" rx="8" fill="url(#paint0_linear_2556_40463)"/>
<g filter="url(#filter0_d_2556_40463)">
<g filter="url(#filter1_i_2556_40463)">
<path d="M33.9389 26.8813L25.7051 20.9991L33.9389 15.1169V26.8813Z" fill="white"/>
</g>
<g filter="url(#filter2_i_2556_40463)">
<path d="M23.3521 29.2354H10.4125C9.78844 29.2354 9.18995 28.9874 8.7487 28.5462C8.30745 28.1049 8.05957 27.5064 8.05957 26.8824V15.118C8.05957 14.4939 8.30745 13.8954 8.7487 13.4542C9.18995 13.0129 9.78844 12.7651 10.4125 12.7651H23.3521C23.976 12.7654 24.5743 13.0134 25.0155 13.4546C25.4567 13.8958 25.7047 14.494 25.705 15.118V26.8824C25.705 27.5064 25.4571 28.1049 25.0159 28.5462C24.5746 28.9874 23.9761 29.2354 23.3521 29.2354Z" fill="white"/>
</g>
</g>
<defs>
<filter id="filter0_d_2556_40463" x="4.05957" y="10.7651" width="33.8794" height="24.4702" filterUnits="userSpaceOnUse" color-interpolation-filters="sRGB">
<feFlood flood-opacity="0" result="BackgroundImageFix"/>
<feColorMatrix in="SourceAlpha" type="matrix" values="0 0 0 0 0 0 0 0 0 0 0 0 0 0 0 0 0 0 127 0" result="hardAlpha"/>
<feOffset dy="2"/>
<feGaussianBlur stdDeviation="2"/>
<feComposite in2="hardAlpha" operator="out"/>
<feColorMatrix type="matrix" values="0 0 0 0 0 0 0 0 0 0 0 0 0 0 0 0 0 0 0.4 0"/>
<feBlend mode="normal" in2="BackgroundImageFix" result="effect1_dropShadow_2556_40463"/>
<feBlend mode="normal" in="SourceGraphic" in2="effect1_dropShadow_2556_40463" result="shape"/>
</filter>
<filter id="filter1_i_2556_40463" x="25.7051" y="15.1167" width="8.23389" height="11.7646" filterUnits="userSpaceOnUse" color-interpolation-filters="sRGB">
<feFlood flood-opacity="0" result="BackgroundImageFix"/>
<feBlend mode="normal" in="SourceGraphic" in2="BackgroundImageFix" result="shape"/>
<feColorMatrix in="SourceAlpha" type="matrix" values="0 0 0 0 0 0 0 0 0 0 0 0 0 0 0 0 0 0 127 0" result="hardAlpha"/>
<feOffset/>
<feGaussianBlur stdDeviation="2"/>
<feComposite in2="hardAlpha" operator="arithmetic" k2="-1" k3="1"/>
<feColorMatrix type="matrix" values="0 0 0 0 0.105882 0 0 0 0 0.576471 0 0 0 0 0.580392 0 0 0 0.3 0"/>
<feBlend mode="normal" in2="shape" result="effect1_innerShadow_2556_40463"/>
</filter>
<filter id="filter2_i_2556_40463" x="8.05957" y="12.7651" width="17.6455" height="16.4702" filterUnits="userSpaceOnUse" color-interpolation-filters="sRGB">
<feFlood flood-opacity="0" result="BackgroundImageFix"/>
<feBlend mode="normal" in="SourceGraphic" in2="BackgroundImageFix" result="shape"/>
<feColorMatrix in="SourceAlpha" type="matrix" values="0 0 0 0 0 0 0 0 0 0 0 0 0 0 0 0 0 0 127 0" result="hardAlpha"/>
<feOffset/>
<feGaussianBlur stdDeviation="2"/>
<feComposite in2="hardAlpha" operator="arithmetic" k2="-1" k3="1"/>
<feColorMatrix type="matrix" values="0 0 0 0 0.105882 0 0 0 0 0.576471 0 0 0 0 0.580392 0 0 0 0.3 0"/>
<feBlend mode="normal" in2="shape" result="effect1_innerShadow_2556_40463"/>
</filter>
<linearGradient id="paint0_linear_2556_40463" x1="21" y1="0" x2="21" y2="42" gradientUnits="userSpaceOnUse">
<stop stop-color="#57AF38"/>
<stop offset="1" stop-color="#157D05"/>
</linearGradient>
</defs>
</svg>
