<svg width="38" height="39" viewBox="0 0 38 39" fill="none" xmlns="http://www.w3.org/2000/svg">
<g filter="url(#filter0_d_3982_96687)">
<path fill-rule="evenodd" clip-rule="evenodd" d="M24.7763 32.8844C24.9485 32.9609 25.135 32.9999 25.3234 32.9986C25.6277 32.998 25.9227 32.894 26.1604 32.7039C26.2908 32.6014 26.3991 32.4735 26.4783 32.3277C26.5574 32.182 26.6061 32.0216 26.6209 31.8564C26.635 31.6937 26.6157 31.5296 26.5641 31.3747C26.5125 31.2196 26.4298 31.0768 26.3209 30.9549L22.4665 26.5729H30.0608C30.823 26.5902 31.561 26.3051 32.1137 25.7798C32.6663 25.2547 32.9884 24.532 33.0098 23.7699V9.73672C32.9902 8.97336 32.6688 8.24891 32.116 7.72206C31.5632 7.19521 30.8243 6.90891 30.0608 6.92587H20.2807V6.23237C20.2623 5.89943 20.1172 5.58616 19.875 5.35694C19.6328 5.12773 19.3121 5 18.9786 5C18.6451 5 18.3244 5.12773 18.0822 5.35694C17.84 5.58616 17.6948 5.89943 17.6765 6.23237V6.92587H7.94903C7.18572 6.90856 6.44669 7.19456 5.8939 7.7212C5.34111 8.24784 5.01966 8.97217 5 9.73541V23.7699C5.02136 24.532 5.34356 25.2547 5.89616 25.7798C6.44876 26.3051 7.18683 26.5902 7.94903 26.5729H14.7301L10.877 30.9616C10.7681 31.0834 10.6854 31.2262 10.6338 31.3812C10.5822 31.5363 10.5628 31.7002 10.577 31.8629C10.5919 32.0281 10.6404 32.1886 10.7196 32.3343C10.7988 32.4801 10.907 32.6081 11.0375 32.7104C11.2755 32.8982 11.57 33.0003 11.8732 33C12.0616 33.0013 12.2481 32.9623 12.4203 32.8859C12.5925 32.8093 12.7465 32.6971 12.872 32.5565L17.2909 27.5322V31.7182C17.306 32.0536 17.4498 32.3702 17.6925 32.6023C17.9352 32.8343 18.258 32.9637 18.5936 32.9637C18.9294 32.9637 19.2522 32.8343 19.4949 32.6023C19.7376 32.3702 19.8814 32.0536 19.8965 31.7182V27.5204L24.3246 32.5551C24.4501 32.6957 24.6041 32.8079 24.7763 32.8844ZM8.91696 9.66687C8.36468 9.66687 7.91696 10.1146 7.91696 10.6669V22.6669C7.91696 23.2191 8.36468 23.6669 8.91696 23.6669H29.0836C29.6359 23.6669 30.0836 23.2191 30.0836 22.6669V10.6669C30.0836 10.1146 29.6359 9.66687 29.0836 9.66687H8.91696Z" fill="white"/>
</g>
<defs>
<filter id="filter0_d_3982_96687" x="1" y="3" width="36.0098" height="36" filterUnits="userSpaceOnUse" color-interpolation-filters="sRGB">
<feFlood flood-opacity="0" result="BackgroundImageFix"/>
<feColorMatrix in="SourceAlpha" type="matrix" values="0 0 0 0 0 0 0 0 0 0 0 0 0 0 0 0 0 0 127 0" result="hardAlpha"/>
<feOffset dy="2"/>
<feGaussianBlur stdDeviation="2"/>
<feComposite in2="hardAlpha" operator="out"/>
<feColorMatrix type="matrix" values="0 0 0 0 0 0 0 0 0 0 0 0 0 0 0 0 0 0 0.4 0"/>
<feBlend mode="normal" in2="BackgroundImageFix" result="effect1_dropShadow_3982_96687"/>
<feBlend mode="normal" in="SourceGraphic" in2="effect1_dropShadow_3982_96687" result="shape"/>
</filter>
</defs>
</svg>
