<svg width="37" height="37" viewBox="0 0 37 37" fill="none" xmlns="http://www.w3.org/2000/svg">
<path d="M9.67518 18.2444H8.91768C7.20018 18.2444 5.81268 16.8569 5.81268 15.1394V7.38437C5.81268 7.09937 6.04518 6.86688 6.33018 6.86688H9.43518V4.79688H5.29518C4.44018 4.79688 3.74268 5.49437 3.74268 6.34937V15.1394C3.74268 17.9969 6.06018 20.3144 8.91768 20.3144H10.4102L9.67518 18.2444Z" fill="#F29C1F"/>
<path d="M27.8253 18.2444H28.5828C30.3003 18.2444 31.6878 16.8569 31.6878 15.1394V7.38437C31.6878 7.09937 31.4553 6.86688 31.1703 6.86688H28.0653V4.79688H32.2053C33.0603 4.79688 33.7578 5.49437 33.7578 6.34937V15.1394C33.7578 17.9969 31.4403 20.3144 28.5828 20.3144H27.0903L27.8253 18.2444Z" fill="#F29C1F"/>
<path d="M16.6802 25.25H20.8202V29.105H16.6802V25.25Z" fill="#F29C1F"/>
<path d="M10.4777 3.76172H27.0302C27.6002 3.76172 28.0652 4.22672 28.0652 4.79672V16.1742C28.0652 21.3192 23.8952 25.4817 18.7577 25.4817C13.6202 25.4817 9.4502 21.3117 9.4502 16.1742V4.79672C9.4502 4.22672 9.91519 3.76172 10.4852 3.76172H10.4777Z" fill="#F0C419"/>
<path d="M15.1276 28.5859H22.3726C22.9426 28.5859 23.4076 29.0509 23.4076 29.6209V31.1734H14.1001V29.6209C14.1001 29.0509 14.5651 28.5859 15.1351 28.5859H15.1276Z" fill="#F0C419"/>
<path d="M13.575 31.1758H23.9175C24.4875 31.1758 24.9525 31.6408 24.9525 32.2108V33.2458C24.9525 33.5308 24.72 33.7633 24.435 33.7633H13.0575C12.7725 33.7633 12.54 33.5308 12.54 33.2458V32.2108C12.54 31.6408 13.005 31.1758 13.575 31.1758Z" fill="#F3D55B"/>
</svg>
