<svg width="37" height="37" viewBox="0 0 37 37" fill="none" xmlns="http://www.w3.org/2000/svg">
<path d="M10.5252 15.0526L21.9627 26.4901C22.0827 26.6101 22.0377 26.8126 21.8802 26.8726L3.73768 33.7426C3.44518 33.8551 3.16018 33.5701 3.27268 33.2776L10.1427 15.1351C10.2027 14.9776 10.4052 14.9326 10.5252 15.0526Z" fill="#FFAC46"/>
<path d="M3.84268 31.7589L3.27268 33.2664C3.16018 33.5589 3.44518 33.8439 3.73768 33.7314L21.8802 26.8614C22.0377 26.8014 22.0827 26.5989 21.9627 26.4789L20.8002 25.3164L3.84268 31.7589Z" fill="#FF941D"/>
<path d="M18.6702 28.0862L16.8177 28.7912L8.22266 20.1962L8.92766 18.3438L18.6702 28.0862Z" fill="#00E2FF"/>
<path d="M18.6699 28.0816L16.8174 28.7866L15.3999 27.3691L17.2524 26.6641L18.6699 28.0816Z" fill="#00B5FF"/>
<path d="M16.7125 18.6723C16.3225 18.6723 15.955 18.4098 15.8425 18.0198C15.7075 17.5398 15.985 17.0373 16.465 16.9023C16.8025 16.8048 17.14 16.4823 17.38 16.0473C17.695 15.4623 17.77 14.7723 17.59 14.2023C17.4475 13.7598 17.005 13.1898 16.54 12.5973C15.9175 11.7948 15.205 10.8873 14.9125 9.85985C14.5 8.43485 14.1925 6.35735 16.2775 4.75235C17.74 3.62735 19.51 3.47735 21.6925 4.29485C22.1575 4.46735 22.3975 4.99235 22.2175 5.45735C22.045 5.92235 21.52 6.16235 21.055 5.98235C19.4575 5.38235 18.325 5.44235 17.3725 6.17735C16.3975 6.92735 16.195 7.81985 16.6375 9.35735C16.84 10.0473 17.4025 10.7823 17.9575 11.4873C18.5275 12.2148 19.06 12.9048 19.3 13.6548C19.6375 14.6973 19.51 15.8823 18.9625 16.9023C18.49 17.7798 17.7625 18.4173 16.9525 18.6423C16.87 18.6648 16.7875 18.6798 16.705 18.6798L16.7125 18.6723Z" fill="#FB1E43"/>
<path d="M20.755 22.9234C20.635 22.9234 20.5225 22.9009 20.4025 22.8559C19.945 22.6609 19.7275 22.1359 19.915 21.6709C20.5225 20.2234 21.3925 19.4284 22.5925 19.2409C23.575 19.0834 24.5875 19.3684 25.6525 19.6684C27.31 20.1409 28.8775 20.5834 30.4825 19.5259C31.675 18.7459 31.4725 17.0434 31.3375 16.7434C31.12 16.2934 31.3075 15.7534 31.75 15.5359C32.2 15.3184 32.74 15.5059 32.9575 15.9559C33.3925 16.8409 33.5875 19.6609 31.465 21.0484C29.1625 22.5484 26.9425 21.9184 25.15 21.4159C23.0425 20.8234 22.2775 20.6959 21.5725 22.3834C21.43 22.7284 21.0925 22.9384 20.74 22.9384L20.755 22.9234Z" fill="#00E2FF"/>
<path d="M22.4726 16.6474C22.0901 16.6474 21.7301 16.3999 21.6101 16.0174C21.4601 15.5449 21.7226 15.0349 22.1951 14.8774C24.4001 14.1724 25.1426 13.9399 26.4251 10.7074C27.9626 6.82993 30.8501 5.23243 30.9701 5.16493C31.4126 4.92493 31.9601 5.08993 32.2001 5.53243C32.4401 5.96743 32.2751 6.51493 31.8401 6.75493C31.8026 6.77743 29.3951 8.14993 28.1126 11.3749C27.3701 13.2499 26.7176 14.3224 25.8776 15.0724C25.0226 15.8374 24.0401 16.1899 22.7501 16.6024C22.6601 16.6324 22.5626 16.6474 22.4726 16.6474Z" fill="#FFDD5C"/>
<path d="M9.55773 11.0319L8.11023 9.58438C8.01273 9.48688 8.01273 9.33688 8.11023 9.23938L9.55773 7.79187C9.65523 7.69438 9.80523 7.69438 9.90273 7.79187L11.3502 9.23938C11.4477 9.33688 11.4477 9.48688 11.3502 9.58438L9.90273 11.0319C9.80523 11.1294 9.65523 11.1294 9.55773 11.0319Z" fill="#FFAC46"/>
<path d="M22.6301 11.3299L20.6276 10.8799C20.5001 10.8499 20.4176 10.7224 20.4476 10.5949L20.8976 8.59242C20.9276 8.46492 21.0551 8.38242 21.1826 8.41242L23.1851 8.86242C23.3126 8.89242 23.3951 9.01992 23.3651 9.14742L22.9151 11.1499C22.8851 11.2774 22.7576 11.3599 22.6301 11.3299Z" fill="#00E2FF"/>
<path d="M32.8674 11.9893L31.1424 13.0918C31.0299 13.1668 30.8799 13.1293 30.8124 13.0168L29.7099 11.2918C29.6349 11.1793 29.6724 11.0293 29.7849 10.9618L31.5099 9.85933C31.6224 9.78433 31.7724 9.82183 31.8399 9.93433L32.9424 11.6593C33.0174 11.7718 32.9799 11.9218 32.8674 11.9893Z" fill="#FB1E43"/>
<path d="M26.7327 27.1532L26.3352 25.1432C26.3127 25.0157 26.3952 24.8882 26.5227 24.8582L28.5327 24.4607C28.6602 24.4382 28.7877 24.5207 28.8177 24.6482L29.2152 26.6582C29.2377 26.7857 29.1552 26.9132 29.0277 26.9432L27.0177 27.3407C26.8902 27.3632 26.7627 27.2807 26.7327 27.1532Z" fill="#FFAC46"/>
</svg>
