<svg width="37" height="37" viewBox="0 0 37 37" fill="none" xmlns="http://www.w3.org/2000/svg">
<path d="M23.3625 23.3777C23.775 22.4702 23.97 21.4877 23.9401 20.4902C23.9401 17.5577 21.735 15.4202 18.75 14.7227H15.285C12.3 15.4202 10.095 17.5577 10.095 20.4902C10.065 21.4802 10.26 22.4702 10.6725 23.3777C9.53255 24.6452 8.91755 26.2877 8.94005 27.9902C8.94005 32.0402 12.5551 35.4902 17.0175 35.4902C21.4801 35.4902 25.095 32.0402 25.095 27.9902C25.1175 26.2877 24.5025 24.6377 23.3625 23.3777Z" fill="#F1C056"/>
<path d="M19.3278 2.03125H14.7153V7.79875H19.3278V2.03125Z" fill="#F1C056"/>
<path d="M14.7149 2.60938H12.9824V3.76437H14.7149V2.60938Z" fill="#D3843D"/>
<path d="M14.7149 4.92188H12.9824V6.07687H14.7149V4.92188Z" fill="#D3843D"/>
<path d="M21.0601 2.60938H19.3276V3.76437H21.0601V2.60938Z" fill="#D3843D"/>
<path d="M21.0601 4.92188H19.3276V6.07687H21.0601V4.92188Z" fill="#D3843D"/>
<path d="M18.7502 7.80469H15.2852V21.0722H18.7502V7.80469Z" fill="#D3843D"/>
<path d="M19.3273 30.3008H14.7148V31.4558H19.3273V30.3008Z" fill="#D3843D"/>
<path d="M18.1728 32.6094H15.8628V33.7644H18.1728V32.6094Z" fill="#D3843D"/>
<path d="M17.5949 2.03125H16.4399V3.76375H17.5949V2.03125Z" fill="#D3843D"/>
<path d="M32.5948 14.8331V9.89062L26.2498 12.0056V15.9881C25.3498 16.3031 24.8773 17.2931 25.1923 18.1931C25.5073 19.0931 26.4973 19.5656 27.3973 19.2506C28.2973 18.9356 28.7698 17.9456 28.4548 17.0456C28.2823 16.5506 27.8923 16.1681 27.3973 15.9881V15.1406L31.4323 13.7981V14.8331C30.5323 15.1481 30.0598 16.1381 30.3748 17.0381C30.6898 17.9381 31.6798 18.4106 32.5798 18.0956C33.4798 17.7806 33.9523 16.7906 33.6373 15.8906C33.4648 15.3956 33.0748 15.0131 32.5798 14.8331H32.5948ZM26.8273 18.1856C26.5123 18.1856 26.2498 17.9306 26.2498 17.6081C26.2498 17.2856 26.5048 17.0306 26.8273 17.0306C27.1498 17.0306 27.4048 17.2856 27.4048 17.6081C27.4048 17.9306 27.1498 18.1856 26.8273 18.1856ZM27.4048 13.9256V12.8381L31.4398 11.4881V12.5831L27.4048 13.9256ZM32.0173 17.0306C31.7023 17.0306 31.4398 16.7756 31.4398 16.4531C31.4398 16.1306 31.6948 15.8756 32.0173 15.8756C32.3398 15.8756 32.5948 16.1306 32.5948 16.4531C32.5948 16.7756 32.3398 17.0306 32.0173 17.0306Z" fill="#F98C96"/>
<path d="M4.9051 11.9441C4.0051 12.2591 3.5326 13.2491 3.8476 14.1491C4.1626 15.0491 5.1526 15.5216 6.0526 15.2066C6.9526 14.8916 7.4251 13.9016 7.1101 13.0016C6.9376 12.5066 6.5476 12.1241 6.0526 11.9441V9.33406L10.0876 7.60156V4.03906L4.8976 6.26656V11.9441H4.9051ZM6.0601 7.02406L8.9476 5.78656V6.83656L6.0601 8.07406V7.02406ZM5.4826 14.1416C5.1676 14.1416 4.9051 13.8866 4.9051 13.5641C4.9051 13.2416 5.1601 12.9866 5.4826 12.9866C5.8051 12.9866 6.0601 13.2416 6.0601 13.5641C6.0601 13.8866 5.8051 14.1416 5.4826 14.1416Z" fill="#F98C96"/>
<path d="M17.0174 28.5661C19.2459 28.5661 21.0524 26.7596 21.0524 24.5311C21.0524 22.3026 19.2459 20.4961 17.0174 20.4961C14.789 20.4961 12.9824 22.3026 12.9824 24.5311C12.9824 26.7596 14.789 28.5661 17.0174 28.5661Z" fill="#AD6327"/>
<path d="M17.0177 26.2658C17.9745 26.2658 18.7502 25.4901 18.7502 24.5333C18.7502 23.5764 17.9745 22.8008 17.0177 22.8008C16.0608 22.8008 15.2852 23.5764 15.2852 24.5333C15.2852 25.4901 16.0608 26.2658 17.0177 26.2658Z" fill="#D3843D"/>
</svg>
