<svg width="37" height="37" viewBox="0 0 37 37" fill="none" xmlns="http://www.w3.org/2000/svg">
<path d="M14.6202 22.1631L17.8602 17.1081C17.7627 16.9506 11.2152 6.74312 11.1102 6.57812C8.86767 8.99312 8.52267 12.6606 10.3152 15.4581L14.6127 22.1706L14.6202 22.1631Z" fill="#CCCCCC"/>
<path d="M21.8801 23.3711L18.6401 28.4261L21.3926 32.7236C21.7151 33.2336 22.2251 33.5861 22.8176 33.7136C23.4101 33.8411 24.0101 33.7361 24.5201 33.4061L25.3076 32.9036C26.3576 32.2286 26.6651 30.8261 25.9901 29.7761L21.8801 23.3711Z" fill="#CCCCCC"/>
<path d="M22.4128 10.0055L24.9028 6.11297C21.0628 2.97797 15.4378 2.97797 11.5903 6.11297L14.0803 10.0055C16.7428 8.94047 19.7428 8.94047 22.4053 10.0055H22.4128Z" fill="#EBB34C"/>
<path d="M25.3901 6.57031C24.5651 7.86031 11.1026 28.8603 10.5101 29.7753C9.83506 30.8253 10.1426 32.2278 11.1926 32.9028L11.9801 33.4053C13.0301 34.0803 14.4326 33.7728 15.1076 32.7228L26.1776 15.4503C27.9701 12.6528 27.6251 8.98531 25.3826 6.57031H25.3901Z" fill="#CCCCCC"/>
</svg>
