<svg width="37" height="37" viewBox="0 0 37 37" fill="none" xmlns="http://www.w3.org/2000/svg">
<path d="M29.3499 12.6094H25.3749C24.9249 12.6094 24.6249 12.9844 24.6249 13.3594V17.1844C24.6249 17.2594 24.6249 17.4094 24.6999 17.4844L22.9749 19.2094H22.8999H18.9249H18.8499L17.1249 17.4844C17.1999 17.4094 17.1999 17.2594 17.1999 17.1844V13.3594C17.1999 12.9094 16.8249 12.6094 16.4499 12.6094H12.4749C12.0249 12.6094 11.7249 12.9844 11.7249 13.3594V17.1844C11.7249 17.2594 11.7249 17.4094 11.7999 17.4844L10.0749 19.2094H9.9999H6.0249C5.5749 19.2094 5.2749 19.5844 5.2749 19.9594V23.7844C5.2749 24.2344 5.6499 24.5344 6.0249 24.5344H9.9999C10.4499 24.5344 10.7499 24.1594 10.7499 23.7844V19.9594C10.7499 19.8094 10.7499 19.7344 10.6749 19.6594L12.3249 18.0094H12.3999H16.3749C16.4499 18.0094 16.4499 18.0094 16.4499 18.0094L18.0999 19.6594C18.0249 19.7344 18.0249 19.8844 18.0249 20.0344V23.8594C18.0249 24.3094 18.3999 24.6094 18.7749 24.6094H22.7499C23.1999 24.6094 23.4999 24.2344 23.4999 23.8594V20.0344C23.4999 19.8844 23.4999 19.8094 23.4249 19.7344L25.0749 18.0844H25.1499H29.1249C29.5749 18.0844 29.8749 17.7094 29.8749 17.3344V13.5094C30.1749 12.9094 29.7999 12.6094 29.3499 12.6094Z" fill="url(#paint0_linear_603_114159)"/>
<path d="M15.2502 19.2852H12.5502C12.4002 19.2852 12.3252 19.3602 12.3252 19.5102V22.2102C12.3252 22.3602 12.4002 22.4352 12.5502 22.4352H15.2502C15.4002 22.4352 15.4752 22.3602 15.4752 22.2102V19.5102C15.5502 19.3602 15.4002 19.2852 15.2502 19.2852Z" fill="#146297"/>
<path d="M12.7 23.8594C12.625 23.8594 12.625 23.9344 12.625 24.0094V24.6094C12.625 24.6844 12.7 24.6844 12.7 24.6844H13.3C13.375 24.6844 13.375 24.6094 13.375 24.6094V24.0094C13.375 23.9344 13.3 23.9344 13.3 23.9344H12.7V23.8594Z" fill="#146297"/>
<path d="M10.2251 12.2367V12.6117C10.2251 12.6867 10.3001 12.8367 10.4501 12.8367H10.9001C10.9751 12.8367 11.1251 12.7617 11.1251 12.6117V12.2367C11.1251 12.1617 11.0501 12.0117 10.9001 12.0117H10.4501C10.3001 12.0117 10.2251 12.0867 10.2251 12.2367Z" fill="#146297"/>
<path d="M14.125 7.05859H10.9C10.6 7.05859 10.375 7.28359 10.375 7.58359V10.6586C10.375 10.9586 10.6 11.1836 10.9 11.1836H14.125C14.425 11.1836 14.65 10.9586 14.65 10.6586V7.58359C14.725 7.28359 14.5 7.05859 14.125 7.05859Z" fill="#146297"/>
<path d="M15.25 24.0102V25.1352C15.25 25.2852 15.325 25.3602 15.475 25.3602H16.6C16.75 25.3602 16.825 25.2852 16.825 25.1352V24.0102C16.825 23.8602 16.75 23.7852 16.6 23.7852H15.475C15.325 23.7852 15.25 23.8602 15.25 24.0102Z" fill="#146297"/>
<path d="M6.2499 16.2086H8.7999C9.1749 16.2086 9.3999 15.9086 9.3999 15.6086V12.9086C9.3999 12.5336 9.0999 12.3086 8.7999 12.3086H6.2499C5.8749 12.3086 5.6499 12.6086 5.6499 12.9086V15.6086C5.6499 15.9836 5.8749 16.2086 6.2499 16.2086Z" fill="#146297"/>
<path d="M9.02519 11.4836C9.10019 11.4836 9.2502 11.4086 9.2502 11.2586V9.90859C9.2502 9.83359 9.17519 9.68359 9.02519 9.68359H7.67519C7.60019 9.68359 7.4502 9.75859 7.4502 9.90859V11.2586C7.4502 11.3336 7.52519 11.4836 7.67519 11.4836H9.02519Z" fill="#146297"/>
<path d="M16.1499 28.2117V28.8117C16.1499 28.8867 16.2249 28.8867 16.2249 28.8867H16.8249C16.8999 28.8867 16.8999 28.8117 16.8999 28.8117V28.2117C16.8999 28.1367 16.8249 28.1367 16.8249 28.1367H16.2249C16.2249 28.1367 16.1499 28.1367 16.1499 28.2117Z" fill="#146297"/>
<path d="M16.6749 10.0586H15.9249C15.8499 10.0586 15.7749 10.1336 15.7749 10.2086V10.8836C15.7749 10.9586 15.8499 11.0336 15.9249 11.0336H16.6749C16.7499 11.0336 16.8249 10.9586 16.8249 10.8836V10.2086C16.8249 10.1336 16.7499 10.0586 16.6749 10.0586Z" fill="#146297"/>
<path d="M19.3002 9.46094C19.3752 9.46094 19.4502 9.38594 19.4502 9.31094V8.86094C19.4502 8.78594 19.3752 8.71094 19.3002 8.71094H18.8502C18.7752 8.71094 18.7002 8.78594 18.7002 8.86094V9.31094C18.7002 9.38594 18.7752 9.46094 18.8502 9.46094H19.3002Z" fill="#146297"/>
<path d="M22.7499 13.7344C22.8249 13.7344 22.8999 13.6594 22.8999 13.5844V13.1344C22.8999 13.0594 22.8249 12.9844 22.7499 12.9844H22.2999C22.2249 12.9844 22.1499 13.0594 22.1499 13.1344V13.5094C22.1499 13.5844 22.2249 13.6594 22.2999 13.6594H22.7499V13.7344Z" fill="#146297"/>
<path d="M19.9751 15.6872V17.7872C19.9751 18.0122 20.2001 18.2372 20.4251 18.2372H22.6751C22.9001 18.2372 23.1251 18.0122 23.1251 17.7872V15.6872C23.1251 15.4622 22.9001 15.2372 22.6751 15.2372H20.4251C20.2001 15.1622 19.9751 15.3872 19.9751 15.6872Z" fill="#146297"/>
<path d="M18.7002 27.4594C18.7002 27.6094 18.7752 27.6844 18.9252 27.6844H19.5252C19.6752 27.6844 19.7502 27.6094 19.7502 27.4594V26.7094C19.7502 26.5594 19.6752 26.4844 19.5252 26.4844H18.9252C18.7752 26.4844 18.7002 26.5594 18.7002 26.7094V27.4594Z" fill="#146297"/>
<path d="M4.6 18.4617H5.8C5.875 18.4617 6.025 18.3867 6.025 18.2367V17.1117C6.025 17.0367 5.95 16.8867 5.8 16.8867H4.6C4.525 16.8867 4.375 16.9617 4.375 17.1117V18.2367C4.45 18.3117 4.525 18.4617 4.6 18.4617Z" fill="#146297"/>
<path d="M9.6249 16.8867C9.5499 16.8867 9.3999 16.9617 9.3999 17.1117V17.6367C9.3999 17.7117 9.4749 17.8617 9.6249 17.8617H10.2249C10.2999 17.8617 10.4499 17.7867 10.4499 17.6367V17.1117C10.4499 17.0367 10.3749 16.8867 10.2249 16.8867H9.6249Z" fill="#146297"/>
<path d="M17.875 3.91016C13.675 3.91016 9.925 5.63516 7.225 8.33516C9.4 6.46016 12.25 5.33516 15.4 5.33516C15.625 5.33516 15.925 5.33516 16.15 5.33516H15.775C15.7 5.33516 15.55 5.41016 15.55 5.56016V6.83516C15.55 6.91016 15.625 7.06016 15.775 7.06016H17.125C17.2 7.06016 17.35 6.98516 17.35 6.83516V5.56016V5.48516C17.875 5.56016 18.4 5.71016 18.925 5.86016V6.46016C18.925 6.53516 19 6.68516 19.15 6.68516H19.825C19.9 6.68516 20.05 6.61016 20.05 6.46016V6.16016C20.65 6.38516 21.25 6.68516 21.775 6.98516H20.95C20.725 6.98516 20.575 7.13516 20.575 7.36016V10.6602C20.575 10.8852 20.725 11.0352 20.95 11.0352H24.4C24.625 11.0352 24.775 10.8852 24.775 10.6602V9.38516C25.45 10.1352 26.05 10.9602 26.5 11.8602H29.8C30.325 11.8602 30.775 12.3102 30.775 12.8352V17.5602C30.775 18.0852 30.325 18.5352 29.8 18.5352H27.925C27.85 19.5102 27.7 20.4102 27.4 21.3102H26.65C26.425 21.3102 26.2 21.5352 26.2 21.7602V24.0852C25.975 24.4602 25.675 24.9102 25.375 25.2852V24.8352C25.375 24.7602 25.3 24.7602 25.3 24.7602H24.625C24.55 24.7602 24.55 24.8352 24.55 24.8352V25.5102C24.55 25.5852 24.625 25.5852 24.625 25.5852H25.15C24.925 25.8852 24.7 26.1102 24.475 26.4102H21.325C21.1 26.4102 20.875 26.6352 20.875 26.8602V29.0352C19.225 29.8602 17.425 30.3102 15.475 30.3102H15.4V27.0102C15.4 26.7852 15.175 26.5602 14.95 26.5602H11.575C11.35 26.5602 11.125 26.7852 11.125 27.0102V29.4852C10.075 29.1102 9.1 28.5102 8.2 27.8352H9.55C9.775 27.8352 9.925 27.6852 9.925 27.4602V25.9602C9.925 25.7352 9.775 25.5852 9.55 25.5852H8.05C7.825 25.5852 7.675 25.7352 7.675 25.9602V27.4602C4.825 25.2852 3.025 22.0602 2.875 18.3102C2.875 18.4602 2.875 18.6852 2.875 18.8352C2.875 20.8602 3.25 22.7352 4 24.4602C4.15 24.8352 4.3 25.1352 4.45 25.4352C4.6 25.7352 4.75 26.1102 4.975 26.4102C5.125 26.7102 5.35 27.0102 5.575 27.3102C5.8 27.6102 6.025 27.9102 6.25 28.2102C6.475 28.5102 6.7 28.7352 6.925 29.0352C7.15 29.2602 7.45 29.5602 7.675 29.7852C7.9 30.0102 8.2 30.2352 8.5 30.4602C8.65 30.5352 8.8 30.6852 8.95 30.7602C9.1 30.8352 9.25 30.9852 9.325 31.0602C9.325 31.0602 9.325 31.0602 9.4 31.0602C9.55 31.1352 9.7 31.2852 9.85 31.3602C10 31.4352 10.15 31.5102 10.3 31.5852C10.3 31.5852 10.3 31.5852 10.375 31.5852C10.525 31.6602 10.675 31.7352 10.825 31.8102H10.9C11.05 31.8852 11.2 31.9602 11.35 32.0352C11.35 32.0352 11.35 32.0352 11.425 32.0352C11.575 32.1102 11.725 32.1852 11.875 32.2602H11.95C12.1 32.3352 12.25 32.4102 12.4 32.4102H12.475C12.625 32.4852 12.775 32.5602 12.925 32.5602H13C13.15 32.6352 13.3 32.6352 13.45 32.7102H13.525C13.675 32.7852 13.825 32.7852 13.975 32.8602H14.05C14.2 32.9352 14.35 32.9352 14.5 33.0102C14.5 33.0102 14.5 33.0102 14.575 33.0102C14.725 33.0852 14.875 33.0852 15.1 33.0852C15.175 33.0852 15.175 33.0852 15.25 33.0852C15.4 33.0852 15.55 33.1602 15.7 33.1602C15.7 33.1602 15.7 33.1602 15.775 33.1602C15.925 33.1602 16.075 33.2352 16.3 33.2352C16.375 33.2352 16.375 33.2352 16.45 33.2352C16.6 33.2352 16.75 33.2352 16.975 33.3102C17.125 33.3102 17.35 33.3102 17.5 33.3102C17.575 33.3102 17.575 33.3102 17.65 33.3102C17.8 33.3102 18.025 33.3102 18.175 33.3102C18.325 33.3102 18.55 33.3102 18.7 33.3102C18.775 33.3102 18.775 33.3102 18.85 33.3102C19 33.3102 19.225 33.3102 19.375 33.3102C19.525 33.3102 19.675 33.3102 19.9 33.2352C19.975 33.2352 19.975 33.2352 20.05 33.2352C20.2 33.2352 20.35 33.1602 20.575 33.1602C20.575 33.1602 20.575 33.1602 20.65 33.1602C20.8 33.1602 20.95 33.0852 21.1 33.0852C21.175 33.0852 21.175 33.0852 21.25 33.0852C21.4 33.0852 21.55 33.0102 21.775 33.0102C21.775 33.0102 21.775 33.0102 21.85 33.0102C22 33.0102 22.15 32.9352 22.3 32.8602H22.375C22.525 32.7852 22.675 32.7852 22.825 32.7102H22.9C23.05 32.6352 23.2 32.6352 23.35 32.5602H23.425C23.575 32.4852 23.725 32.4102 23.875 32.4102H23.95C24.1 32.3352 24.25 32.2602 24.4 32.2602H24.475C24.625 32.1852 24.775 32.1102 24.925 32.0352C24.925 32.0352 24.925 32.0352 25 32.0352C25.15 31.9602 25.3 31.8852 25.45 31.8102H25.525C25.675 31.7352 25.825 31.6602 25.975 31.5852C25.975 31.5852 25.975 31.5852 26.05 31.5852C26.2 31.5102 26.35 31.4352 26.5 31.3602C26.65 31.2852 26.8 31.2102 26.95 31.0602C26.95 31.0602 26.95 31.0602 27.025 31.0602C27.175 30.9852 27.325 30.8352 27.4 30.7602C27.55 30.6852 27.7 30.5352 27.85 30.4602C28.15 30.2352 28.375 30.0102 28.675 29.7852C28.9 29.5602 29.2 29.2602 29.425 29.0352C29.65 28.8102 29.875 28.5102 30.1 28.2102C30.325 27.9102 30.55 27.6102 30.775 27.3102C31 27.0102 31.15 26.7102 31.375 26.4102C31.525 26.1102 31.75 25.8102 31.9 25.4352C32.875 23.4102 33.475 21.1602 33.475 18.7602C32.875 10.5852 26.125 3.91016 17.875 3.91016Z" fill="#146297"/>
<path d="M18.7002 13.7367C18.7002 13.8117 18.7752 13.9617 18.9252 13.9617H20.1252C20.2002 13.9617 20.3502 13.8867 20.3502 13.7367V12.6117C20.3502 12.5367 20.2752 12.3867 20.1252 12.3867H18.9252C18.8502 12.3867 18.7002 12.4617 18.7002 12.6117V13.7367Z" fill="#146297"/>
<path d="M26.1998 19.5117H25.4498C25.3748 19.5117 25.2998 19.5867 25.2998 19.6617V20.3367C25.2998 20.4117 25.3748 20.4867 25.4498 20.4867H26.1998C26.2748 20.4867 26.3498 20.4117 26.3498 20.3367V19.6617C26.3498 19.5867 26.2748 19.5117 26.1998 19.5117Z" fill="#146297"/>
<path d="M15.55 19.2094V21.9094C15.55 22.0594 15.475 22.1344 15.325 22.1344H12.625C12.475 22.1344 12.4 22.0594 12.4 21.9094V19.2094C12.4 19.0594 12.475 18.9844 12.625 18.9844H15.325C15.4 18.9844 15.55 19.1344 15.55 19.2094ZM12.7 23.6344C12.625 23.6344 12.625 23.7094 12.625 23.7094V24.3094C12.625 24.3844 12.7 24.3844 12.7 24.3844H13.3C13.375 24.3844 13.375 24.3094 13.375 24.3094V23.7094C13.375 23.6344 13.3 23.6344 13.3 23.6344H12.7ZM10.225 11.9344V12.3094C10.225 12.3844 10.3 12.5344 10.45 12.5344H10.9C10.975 12.5344 11.125 12.4594 11.125 12.3094V11.9344C11.125 11.8594 11.05 11.7094 10.9 11.7094H10.45C10.3 11.7844 10.225 11.8594 10.225 11.9344ZM14.125 6.75937H10.9C10.675 6.75937 10.375 6.98438 10.375 7.35938V10.4344C10.375 10.7344 10.6 10.9594 10.9 10.9594H14.125C14.425 10.9594 14.65 10.7344 14.65 10.4344V7.35938C14.725 6.98438 14.5 6.75937 14.125 6.75937ZM15.25 23.7094V24.8344C15.25 24.9844 15.325 25.0594 15.475 25.0594H16.6C16.75 25.0594 16.825 24.9844 16.825 24.8344V23.7094C16.825 23.5594 16.75 23.4844 16.6 23.4844H15.475C15.325 23.4844 15.25 23.5594 15.25 23.7094ZM6.25 15.9844H8.8C9.175 15.9844 9.4 15.6844 9.4 15.3844V12.6844C9.4 12.3094 9.1 12.0844 8.8 12.0844H6.25C5.875 12.0844 5.65 12.3844 5.65 12.6844V15.3844C5.65 15.6844 5.875 15.9844 6.25 15.9844ZM9.025 11.1844C9.1 11.1844 9.25 11.1094 9.25 10.9594V9.60938C9.25 9.53438 9.175 9.38437 9.025 9.38437H7.675C7.6 9.38437 7.45 9.45937 7.45 9.60938V10.9594C7.45 11.0344 7.525 11.1844 7.675 11.1844H9.025ZM16.15 27.9844V28.5094C16.15 28.5844 16.225 28.5844 16.225 28.5844H16.825C16.9 28.5844 16.9 28.5094 16.9 28.5094V27.9094C16.9 27.8344 16.825 27.8344 16.825 27.8344H16.225C16.225 27.8344 16.15 27.9094 16.15 27.9844ZM16.675 9.75937H15.925C15.85 9.75937 15.775 9.83437 15.775 9.90937V10.5844C15.775 10.6594 15.85 10.7344 15.925 10.7344H16.675C16.75 10.7344 16.825 10.6594 16.825 10.5844V9.90937C16.825 9.83437 16.75 9.75937 16.675 9.75937ZM19.3 9.23438C19.375 9.23438 19.45 9.15938 19.45 9.08438V8.63437C19.45 8.55937 19.375 8.48438 19.3 8.48438H18.85C18.775 8.48438 18.7 8.55937 18.7 8.63437V9.08438C18.7 9.15938 18.775 9.23438 18.85 9.23438H19.3ZM22.75 13.4344C22.825 13.4344 22.9 13.3594 22.9 13.2844V12.8344C22.9 12.7594 22.825 12.6844 22.75 12.6844H22.3C22.225 12.6844 22.15 12.7594 22.15 12.8344V13.2844C22.15 13.3594 22.225 13.4344 22.3 13.4344H22.75ZM19.975 15.3844V17.4844C19.975 17.7094 20.2 17.9344 20.425 17.9344H22.675C22.9 17.9344 23.125 17.7094 23.125 17.4844V15.3844C23.125 15.1594 22.9 14.9344 22.675 14.9344H20.425C20.2 14.9344 19.975 15.1594 19.975 15.3844ZM18.7 27.2344C18.7 27.3844 18.775 27.4594 18.925 27.4594H19.525C19.675 27.4594 19.75 27.3844 19.75 27.2344V26.4844C19.75 26.3344 19.675 26.2594 19.525 26.2594H18.925C18.775 26.2594 18.7 26.3344 18.7 26.4844V27.2344ZM4.6 18.1594H5.8C5.875 18.1594 6.025 18.0844 6.025 17.9344V16.8094C6.025 16.7344 5.95 16.5844 5.8 16.5844H4.6C4.525 16.5844 4.375 16.6594 4.375 16.8094V17.9344C4.45 18.0844 4.525 18.1594 4.6 18.1594ZM9.625 16.6594C9.55 16.6594 9.4 16.7344 9.4 16.8844V17.4094C9.4 17.4844 9.475 17.6344 9.625 17.6344H10.225C10.3 17.6344 10.45 17.5594 10.45 17.4094V16.8844C10.45 16.8094 10.375 16.6594 10.225 16.6594H9.625ZM17.875 3.60938C13.675 3.60938 9.925 5.33437 7.225 8.03437C9.4 6.15937 12.25 5.03437 15.4 5.03437C15.625 5.03437 15.925 5.03437 16.15 5.03437H15.775C15.7 5.03437 15.55 5.10938 15.55 5.25938V6.53437C15.55 6.68437 15.625 6.75937 15.7 6.75937H17.05C17.125 6.75937 17.275 6.68437 17.275 6.53437V5.25938V5.18438C17.8 5.25938 18.325 5.40938 18.85 5.55938V6.15937C18.85 6.23438 18.925 6.38438 19.075 6.38438H19.75C19.825 6.38438 19.975 6.30937 19.975 6.15937V5.85938C20.5 6.15938 21.025 6.38437 21.625 6.75937H20.8C20.575 6.75937 20.425 6.90937 20.425 7.13437V10.4344C20.425 10.6594 20.575 10.8094 20.8 10.8094H24.25C24.475 10.8094 24.625 10.6594 24.625 10.4344V9.15937C25.3 9.90937 25.9 10.7344 26.35 11.6344H29.65C30.175 11.6344 30.625 12.0844 30.625 12.6094V17.3344C30.625 17.8594 30.175 18.3094 29.65 18.3094H27.775C27.7 19.2844 27.55 20.1844 27.25 21.0844H26.5C26.275 21.0844 26.05 21.3094 26.05 21.5344V23.8594C25.825 24.2344 25.525 24.6844 25.225 25.0594V24.6094C25.225 24.5344 25.15 24.5344 25.15 24.5344H24.625C24.55 24.5344 24.55 24.6094 24.55 24.6094V25.2094C24.55 25.2844 24.625 25.2844 24.625 25.2844H25.15C24.925 25.5844 24.7 25.8094 24.475 26.1094H21.325C21.1 26.1094 20.875 26.3344 20.875 26.5594V28.7344C19.225 29.5594 17.425 30.0094 15.475 30.0094H15.4V26.7094C15.4 26.4844 15.175 26.2594 14.95 26.2594H11.575C11.35 26.2594 11.125 26.4844 11.125 26.7094V29.1844C10.075 28.8094 9.1 28.2094 8.2 27.5344H9.55C9.775 27.5344 9.925 27.3844 9.925 27.1594V25.6594C9.925 25.4344 9.775 25.2844 9.55 25.2844H8.05C7.825 25.2844 7.675 25.4344 7.675 25.6594V27.1594C4.825 25.0594 3.025 21.7594 2.875 18.0844C2.875 18.2344 2.875 18.4594 2.875 18.6094C2.875 20.6344 3.25 22.5094 4 24.2344C4.15 24.6094 4.3 24.9094 4.45 25.2094C4.6 25.5094 4.75 25.8844 4.975 26.1844C5.125 26.4844 5.35 26.7844 5.575 27.0844C5.8 27.3844 6.025 27.6844 6.25 27.9844C6.475 28.2844 6.7 28.5094 6.925 28.8094C7.15 29.0344 7.45 29.3344 7.675 29.5594C7.9 29.7844 8.2 30.0094 8.5 30.2344C8.65 30.3094 8.8 30.4594 8.95 30.5344C9.1 30.6094 9.25 30.7594 9.325 30.8344C9.325 30.8344 9.325 30.8344 9.4 30.8344C9.55 30.9094 9.7 31.0594 9.85 31.1344C10 31.2094 10.15 31.2844 10.3 31.3594C10.3 31.3594 10.3 31.3594 10.375 31.3594C10.525 31.4344 10.675 31.5094 10.825 31.5844H10.9C11.05 31.6594 11.2 31.7344 11.35 31.8094C11.35 31.8094 11.35 31.8094 11.425 31.8094C11.575 31.8844 11.725 31.9594 11.875 32.0344H11.95C12.1 32.1094 12.25 32.1844 12.4 32.1844H12.475C12.625 32.2594 12.775 32.3344 12.925 32.3344H13C13.15 32.4094 13.3 32.4094 13.45 32.4844H13.525C13.675 32.5594 13.825 32.5594 13.975 32.6344H14.05C14.2 32.7094 14.35 32.7094 14.5 32.7844C14.5 32.7844 14.5 32.7844 14.575 32.7844C14.725 32.8594 14.875 32.8594 15.1 32.8594C15.175 32.8594 15.175 32.8594 15.25 32.8594C15.4 32.8594 15.55 32.9344 15.7 32.9344C15.7 32.9344 15.7 32.9344 15.775 32.9344C15.925 32.9344 16.075 33.0094 16.3 33.0094C16.375 33.0094 16.375 33.0094 16.45 33.0094C16.6 33.0094 16.75 33.0094 16.975 33.0844C17.125 33.0844 17.35 33.0844 17.5 33.0844C17.575 33.0844 17.575 33.0844 17.65 33.0844C17.8 33.0844 18.025 33.0844 18.175 33.0844C18.325 33.0844 18.55 33.0844 18.7 33.0844C18.775 33.0844 18.775 33.0844 18.85 33.0844C19 33.0844 19.225 33.0844 19.375 33.0844C19.525 33.0844 19.675 33.0844 19.9 33.0094C19.975 33.0094 19.975 33.0094 20.05 33.0094C20.2 33.0094 20.35 32.9344 20.575 32.9344C20.575 32.9344 20.575 32.9344 20.65 32.9344C20.8 32.9344 20.95 32.8594 21.1 32.8594C21.175 32.8594 21.175 32.8594 21.25 32.8594C21.4 32.8594 21.55 32.7844 21.775 32.7844C21.775 32.7844 21.775 32.7844 21.85 32.7844C22 32.7844 22.15 32.7094 22.3 32.6344H22.375C22.525 32.5594 22.675 32.5594 22.825 32.4844H22.9C23.05 32.4094 23.2 32.4094 23.35 32.3344H23.425C23.575 32.2594 23.725 32.1844 23.875 32.1844H23.95C24.1 32.1094 24.25 32.0344 24.4 32.0344H24.475C24.625 31.9594 24.775 31.8844 24.925 31.8094C24.925 31.8094 24.925 31.8094 25 31.8094C25.15 31.7344 25.3 31.6594 25.45 31.5844H25.525C25.675 31.5094 25.825 31.4344 25.975 31.3594C25.975 31.3594 25.975 31.3594 26.05 31.3594C26.2 31.2844 26.35 31.2094 26.5 31.1344C26.65 31.0594 26.8 30.9844 26.95 30.8344C26.95 30.8344 26.95 30.8344 27.025 30.8344C27.175 30.7594 27.325 30.6094 27.4 30.5344C27.55 30.4594 27.7 30.3094 27.85 30.2344C28.15 30.0094 28.375 29.7844 28.675 29.5594C28.9 29.3344 29.2 29.0344 29.425 28.8094C29.65 28.5844 29.875 28.2844 30.1 27.9844C30.325 27.6844 30.55 27.3844 30.775 27.0844C31 26.7844 31.15 26.4844 31.375 26.1844C31.525 25.8844 31.75 25.5844 31.9 25.2094C32.35 23.2594 32.875 21.0094 32.875 18.6094C32.875 10.3594 26.125 3.60938 17.875 3.60938ZM18.7 13.5094C18.7 13.5844 18.775 13.7344 18.925 13.7344H20.125C20.2 13.7344 20.35 13.6594 20.35 13.5094V12.3844C20.35 12.3094 20.275 12.1594 20.125 12.1594H18.925C18.85 12.1594 18.7 12.2344 18.7 12.3844V13.5094ZM26.2 19.3594H25.45C25.375 19.3594 25.3 19.4344 25.3 19.5094V20.2594C25.3 20.3344 25.375 20.4094 25.45 20.4094H26.2C26.275 20.4094 26.35 20.3344 26.35 20.2594V19.5844C26.35 19.4344 26.275 19.3594 26.2 19.3594Z" fill="url(#paint1_linear_603_114159)"/>
<path d="M13.3 23.6359C13.375 23.6359 13.375 23.7109 13.375 23.7109V24.3109C13.375 24.3859 13.3 24.3859 13.3 24.3859H12.7C12.625 24.3859 12.625 24.3109 12.625 24.3109V23.7109C12.625 23.6359 12.7 23.6359 12.7 23.6359H13.3ZM16.3 28.6609H16.9C16.975 28.6609 16.975 28.5859 16.975 28.5859V27.9859C16.975 27.9109 16.9 27.9109 16.9 27.9109H16.3C16.225 27.9109 16.225 27.9859 16.225 27.9859V28.5109C16.15 28.5859 16.225 28.6609 16.3 28.6609ZM16.825 24.8359V23.7109C16.825 23.5609 16.75 23.4859 16.6 23.4859H15.475C15.325 23.4859 15.25 23.5609 15.25 23.7109V24.8359C15.25 24.9859 15.325 25.0609 15.475 25.0609H16.6C16.75 25.0609 16.825 24.9859 16.825 24.8359ZM26.05 21.9859V23.9359C25.825 24.3109 25.525 24.7609 25.225 25.1359V24.6859C25.225 24.6109 25.15 24.6109 25.15 24.6109H24.625C24.55 24.6109 24.55 24.6859 24.55 24.6859V25.2859C24.55 25.3609 24.625 25.3609 24.625 25.3609H25.15C24.925 25.6609 24.7 25.8859 24.475 26.1859H21.325C21.1 26.1859 20.875 26.4109 20.875 26.6359V28.8109C19.225 29.6359 17.425 30.0859 15.475 30.0859H15.4V26.7859C15.4 26.5609 15.175 26.3359 14.95 26.3359H11.575C11.35 26.3359 11.125 26.5609 11.125 26.7859V29.2609C10.075 28.8859 9.1 28.2859 8.2 27.6109H9.55C9.775 27.6109 9.925 27.4609 9.925 27.2359V25.7359C9.925 25.5109 9.775 25.3609 9.55 25.3609H8.05C7.825 25.3609 7.675 25.5109 7.675 25.7359V27.2359C4.825 25.0609 3.025 21.7609 2.875 18.0859C2.875 18.2359 2.875 18.4609 2.875 18.6109C2.875 20.6359 3.25 22.5109 4 24.2359C4.15 24.6109 4.3 24.9109 4.45 25.2109C4.6 25.5109 4.75 25.8859 4.975 26.1859C5.125 26.4859 5.35 26.7859 5.575 27.0859C5.8 27.3859 6.025 27.6859 6.25 27.9859C6.475 28.2859 6.7 28.5109 6.925 28.8109C7.15 29.0359 7.45 29.3359 7.675 29.5609C7.9 29.7859 8.2 30.0109 8.5 30.2359C8.65 30.3109 8.8 30.4609 8.95 30.5359C9.1 30.6109 9.25 30.7609 9.325 30.8359C9.325 30.8359 9.325 30.8359 9.4 30.8359C9.55 30.9109 9.7 31.0609 9.85 31.1359C10 31.2109 10.15 31.2859 10.3 31.3609C10.3 31.3609 10.3 31.3609 10.375 31.3609C10.525 31.4359 10.675 31.5109 10.825 31.5859H10.9C11.05 31.6609 11.2 31.7359 11.35 31.8109C11.35 31.8109 11.35 31.8109 11.425 31.8109C11.575 31.8859 11.725 31.9609 11.875 32.0359H11.95C12.1 32.1109 12.25 32.1859 12.4 32.1859H12.475C12.625 32.2609 12.775 32.3359 12.925 32.3359H13C13.15 32.4109 13.3 32.4109 13.45 32.4859H13.525C13.675 32.5609 13.825 32.5609 13.975 32.6359H14.05C14.2 32.7109 14.35 32.7109 14.5 32.7859C14.5 32.7859 14.5 32.7859 14.575 32.7859C14.725 32.8609 14.875 32.8609 15.1 32.8609C15.175 32.8609 15.175 32.8609 15.25 32.8609C15.4 32.8609 15.55 32.9359 15.7 32.9359C15.7 32.9359 15.7 32.9359 15.775 32.9359C15.925 32.9359 16.075 33.0109 16.3 33.0109C16.375 33.0109 16.375 33.0109 16.45 33.0109C16.6 33.0109 16.75 33.0109 16.975 33.0859C17.125 33.0859 17.35 33.0859 17.5 33.0859C17.575 33.0859 17.575 33.0859 17.65 33.0859C17.8 33.0859 18.025 33.0859 18.175 33.0859C18.325 33.0859 18.55 33.0859 18.7 33.0859C18.775 33.0859 18.775 33.0859 18.85 33.0859C19 33.0859 19.225 33.0859 19.375 33.0859C19.525 33.0859 19.675 33.0859 19.9 33.0109C19.975 33.0109 19.975 33.0109 20.05 33.0109C20.2 33.0109 20.35 32.9359 20.575 32.9359C20.575 32.9359 20.575 32.9359 20.65 32.9359C20.8 32.9359 20.95 32.8609 21.1 32.8609C21.175 32.8609 21.175 32.8609 21.25 32.8609C21.4 32.8609 21.55 32.7859 21.775 32.7859C21.775 32.7859 21.775 32.7859 21.85 32.7859C22 32.7859 22.15 32.7109 22.3 32.6359H22.375C22.525 32.5609 22.675 32.5609 22.825 32.4859H22.9C23.05 32.4109 23.2 32.4109 23.35 32.3359H23.425C23.575 32.2609 23.725 32.1859 23.875 32.1859H23.95C24.1 32.1109 24.25 32.0359 24.4 32.0359H24.475C24.625 31.9609 24.775 31.8859 24.925 31.8109C24.925 31.8109 24.925 31.8109 25 31.8109C25.15 31.7359 25.3 31.6609 25.45 31.5859H25.525C25.675 31.5109 25.825 31.4359 25.975 31.3609C25.975 31.3609 25.975 31.3609 26.05 31.3609C26.2 31.2859 26.35 31.2109 26.5 31.1359C26.65 31.0609 26.8 30.9859 26.95 30.8359C26.95 30.8359 26.95 30.8359 27.025 30.8359C27.175 30.7609 27.325 30.6109 27.4 30.5359C27.55 30.4609 27.7 30.3109 27.85 30.2359C28.15 30.0109 28.375 29.7859 28.675 29.5609C28.9 29.3359 29.2 29.0359 29.425 28.8109C29.65 28.5859 29.875 28.2859 30.1 27.9859C30.325 27.6859 30.55 27.3859 30.775 27.0859C31 26.7859 31.15 26.4859 31.375 26.1859C31.525 25.8859 31.75 25.5859 31.9 25.2109C32.35 23.2609 32.875 21.0109 32.875 18.6109C32.875 18.3109 32.875 18.0109 32.875 17.7109C30.925 19.5859 28.6 21.0859 26.05 21.9859ZM18.925 27.4609H19.525C19.675 27.4609 19.75 27.3859 19.75 27.2359V26.4859C19.75 26.3359 19.675 26.2609 19.525 26.2609H18.925C18.775 26.2609 18.7 26.3359 18.7 26.4859V27.2359C18.7 27.3109 18.775 27.4609 18.925 27.4609Z" fill="url(#paint2_linear_603_114159)"/>
<path d="M29.3499 12.3125H25.3749C24.9249 12.3125 24.6249 12.6875 24.6249 13.0625V16.8875C24.6249 16.9625 24.6249 17.1125 24.6999 17.1875L22.9749 18.9125H22.8999H18.9249H18.8499L17.1249 17.1875C17.1999 17.1125 17.1999 16.9625 17.1999 16.8875V13.0625C17.1999 12.6125 16.8249 12.3125 16.4499 12.3125H12.4749C12.0249 12.3125 11.7249 12.6875 11.7249 13.0625V16.8875C11.7249 16.9625 11.7249 17.1125 11.7999 17.1875L10.0749 18.9125H9.9999H6.0249C5.5749 18.9125 5.2749 19.2875 5.2749 19.6625V23.4875C5.2749 23.9375 5.6499 24.2375 6.0249 24.2375H9.9999C10.4499 24.2375 10.7499 23.8625 10.7499 23.4875V19.6625C10.7499 19.5125 10.7499 19.4375 10.6749 19.3625L12.3249 17.7125H12.3999H16.3749C16.4499 17.7125 16.4499 17.7125 16.4499 17.7125L18.0999 19.3625C18.0249 19.4375 18.0249 19.5875 18.0249 19.7375V23.5625C18.0249 24.0125 18.3999 24.3125 18.7749 24.3125H22.7499C23.1999 24.3125 23.4999 23.9375 23.4999 23.5625V19.7375C23.4999 19.5875 23.4999 19.5125 23.4249 19.4375L25.0749 17.7875H25.1499H29.1249C29.5749 17.7875 29.8749 17.4125 29.8749 17.0375V13.2125C30.1749 12.6875 29.7999 12.3125 29.3499 12.3125Z" fill="url(#paint3_linear_603_114159)"/>
<path d="M12.0999 16.8828L12.6249 17.4078L10.2999 19.7328L9.7749 19.2078L12.0999 16.8828Z" fill="url(#paint4_linear_603_114159)"/>
<path d="M24.9251 16.9609L25.4501 17.4859L23.1251 19.8109L22.6001 19.2859L24.9251 16.9609Z" fill="url(#paint5_linear_603_114159)"/>
<path d="M16.2251 17.4078L16.8251 16.8828L19.1501 19.2078L18.6251 19.7328L16.2251 17.4078Z" fill="url(#paint6_linear_603_114159)"/>
<path d="M30.3252 27.0094C30.1002 27.3094 29.8002 27.5344 29.5752 27.8344C29.3502 28.0594 29.0502 28.3594 28.7502 28.5844C28.4502 28.8094 28.2252 29.0344 27.9252 29.2594C27.7752 29.3344 27.6252 29.4844 27.4752 29.5594C27.3252 29.6344 27.1752 29.7844 27.0252 29.8594C27.0252 29.8594 27.0252 29.8594 26.9502 29.8594C26.8002 29.9344 26.6502 30.0844 26.5002 30.1594C26.5002 30.1594 26.5002 30.1594 26.4252 30.1594C26.2752 30.2344 26.1252 30.3094 25.9752 30.3844C25.9752 30.3844 25.9752 30.3844 25.9002 30.3844C25.7502 30.4594 25.6002 30.5344 25.4502 30.6094H25.3752C25.2252 30.6844 25.0752 30.7594 24.9252 30.8344H24.8502C24.7002 30.9094 24.5502 30.9844 24.3252 31.0594H24.2502C24.1002 31.1344 23.9502 31.2094 23.8002 31.2094H23.7252C23.5752 31.2844 23.4252 31.3594 23.2002 31.3594H23.1252C22.9752 31.4344 22.8252 31.4344 22.6752 31.5094H22.6002C22.4502 31.5844 22.2252 31.5844 22.0752 31.6594H22.0002C21.8502 31.7344 21.7002 31.7344 21.5502 31.8094H21.4752C21.3252 31.8844 21.1002 31.8844 20.9502 31.8844C20.8752 31.8844 20.8752 31.8844 20.8002 31.8844C20.6502 31.8844 20.5002 31.9594 20.2752 31.9594C20.2752 31.9594 20.2752 31.9594 20.2002 31.9594C20.0502 31.9594 19.8252 32.0344 19.6752 32.0344C19.6002 32.0344 19.6002 32.0344 19.5252 32.0344C19.3752 32.0344 19.1502 32.0344 19.0002 32.1094C18.8502 32.1094 18.6252 32.1094 18.4752 32.1094C18.4002 32.1094 18.4002 32.1094 18.3252 32.1094C18.1752 32.1094 17.9502 32.1094 17.8002 32.1094C17.6502 32.1094 17.4252 32.1094 17.2752 32.1094C17.2002 32.1094 17.2002 32.1094 17.1252 32.1094C16.9752 32.1094 16.7502 32.1094 16.6002 32.1094C16.4502 32.1094 16.2252 32.1094 16.0752 32.0344C16.0002 32.0344 16.0002 32.0344 15.9252 32.0344C15.7752 32.0344 15.5502 31.9594 15.4002 31.9594C15.4002 31.9594 15.4002 31.9594 15.3252 31.9594C15.1752 31.9594 15.0252 31.8844 14.8002 31.8844C14.7252 31.8844 14.7252 31.8844 14.6502 31.8844C14.5002 31.8844 14.2752 31.8094 14.1252 31.8094H14.0502C13.9002 31.8094 13.7502 31.7344 13.6002 31.6594H13.5252C13.3752 31.5844 13.1502 31.5844 13.0002 31.5094H12.9252C12.7752 31.4344 12.6252 31.4344 12.4752 31.3594H12.4002C12.2502 31.2844 12.1002 31.2094 11.8752 31.2094H11.8002C11.6502 31.1344 11.5002 31.0594 11.3502 31.0594H11.2752C11.1252 30.9844 10.9752 30.9094 10.7502 30.8344H10.6752C10.5252 30.7594 10.3752 30.6844 10.2252 30.6094H10.1502C10.0002 30.5344 9.8502 30.4594 9.7002 30.3844C9.7002 30.3844 9.7002 30.3844 9.6252 30.3844C9.4752 30.3094 9.3252 30.2344 9.1752 30.1594C9.1752 30.1594 9.1752 30.1594 9.1002 30.1594C8.9502 30.0844 8.8002 29.9344 8.6502 29.8594C8.6502 29.8594 8.6502 29.8594 8.5752 29.8594C8.4252 29.7844 8.2752 29.6344 8.1252 29.5594C7.9752 29.4844 7.8252 29.3344 7.6752 29.2594C7.3752 29.0344 7.0752 28.8094 6.8502 28.5844C6.5502 28.3594 6.3252 28.0594 6.0252 27.8344C5.8752 27.6844 5.7252 27.5344 5.5752 27.3844C8.2752 31.2094 12.7752 33.6844 17.8002 33.6844C23.0502 33.6844 27.7002 30.9844 30.4002 26.8594C30.4002 26.8594 30.3252 26.9344 30.3252 27.0094Z" fill="url(#paint7_linear_603_114159)"/>
<path opacity="0.25" d="M30.175 14.8578V13.1328C30.175 12.6828 29.8 12.3828 29.425 12.3828H25.375C24.925 12.3828 24.625 12.7578 24.625 13.1328V16.5828C25.75 16.4328 27.55 16.0578 30.175 14.8578Z" fill="url(#paint8_linear_603_114159)"/>
<path opacity="0.25" d="M23.6498 21.4594V19.7344C23.6498 19.2844 23.2748 18.9844 22.8998 18.9844H18.9248C18.4748 18.9844 18.1748 19.3594 18.1748 19.7344V23.1844C19.2248 23.0344 21.0998 22.6594 23.6498 21.4594Z" fill="url(#paint9_linear_603_114159)"/>
<path opacity="0.25" d="M17.2001 14.8578V13.1328C17.2001 12.6828 16.8251 12.3828 16.4501 12.3828H12.4751C12.0251 12.3828 11.7251 12.7578 11.7251 13.1328V16.5828C12.7751 16.4328 14.5751 16.0578 17.2001 14.8578Z" fill="url(#paint10_linear_603_114159)"/>
<path opacity="0.25" d="M10.7499 21.4594V19.7344C10.7499 19.2844 10.3749 18.9844 9.9999 18.9844H6.0249C5.5749 18.9844 5.2749 19.3594 5.2749 19.7344V23.1844C6.3249 23.0344 8.1249 22.6594 10.7499 21.4594Z" fill="url(#paint11_linear_603_114159)"/>
<defs>
<linearGradient id="paint0_linear_603_114159" x1="5.22675" y1="18.5647" x2="30.1421" y2="18.5647" gradientUnits="userSpaceOnUse">
<stop stop-color="#CA952C"/>
<stop offset="0.1904" stop-color="#CB952B"/>
<stop offset="0.2048" stop-color="#C8962C"/>
<stop offset="0.2165" stop-color="#BE982E"/>
<stop offset="0.2273" stop-color="#AD9C32"/>
<stop offset="0.2376" stop-color="#94A137"/>
<stop offset="0.2475" stop-color="#75A83E"/>
<stop offset="0.2569" stop-color="#50B146"/>
<stop offset="0.2611" stop-color="#3DB54A"/>
<stop offset="0.4232" stop-color="#42B649"/>
<stop offset="0.4793" stop-color="#45B649"/>
<stop offset="0.501" stop-color="#896937"/>
<stop offset="0.5174" stop-color="#B6352C"/>
<stop offset="0.5254" stop-color="#C82127"/>
<stop offset="0.7275" stop-color="#C82127"/>
<stop offset="0.7388" stop-color="#C92D27" stop-opacity="0.9973"/>
<stop offset="0.7588" stop-color="#CB4B28" stop-opacity="0.9926"/>
<stop offset="0.77" stop-color="#CD5F28" stop-opacity="0.99"/>
<stop offset="1" stop-color="#CB5F28"/>
</linearGradient>
<linearGradient id="paint1_linear_603_114159" x1="12.7523" y1="32.0161" x2="24.4322" y2="4.37587" gradientUnits="userSpaceOnUse">
<stop stop-color="#2C7DC1"/>
<stop offset="0.467" stop-color="#3597CF"/>
<stop offset="1" stop-color="#3DB1DC"/>
</linearGradient>
<linearGradient id="paint2_linear_603_114159" x1="13.669" y1="31.9537" x2="20.2766" y2="12.585" gradientUnits="userSpaceOnUse">
<stop stop-color="#2B54A5"/>
<stop offset="0.2251" stop-color="#2C5DAB"/>
<stop offset="0.5874" stop-color="#2D74BB"/>
<stop offset="1" stop-color="#3097D2"/>
</linearGradient>
<linearGradient id="paint3_linear_603_114159" x1="5.22675" y1="18.304" x2="30.1421" y2="18.304" gradientUnits="userSpaceOnUse">
<stop stop-color="#FCBD12"/>
<stop offset="0.1645" stop-color="#FCBD12"/>
<stop offset="0.1904" stop-color="#FCBD12"/>
<stop offset="0.2048" stop-color="#F9BD13"/>
<stop offset="0.2166" stop-color="#EFBD17"/>
<stop offset="0.2275" stop-color="#DEBD1D"/>
<stop offset="0.2378" stop-color="#C5BD27"/>
<stop offset="0.2477" stop-color="#A6BE32"/>
<stop offset="0.2571" stop-color="#81BE40"/>
<stop offset="0.2611" stop-color="#6FBE47"/>
<stop offset="0.4793" stop-color="#6FBE47"/>
<stop offset="0.5006" stop-color="#B07438"/>
<stop offset="0.5172" stop-color="#DD402D"/>
<stop offset="0.5254" stop-color="#EE2C29"/>
<stop offset="0.7275" stop-color="#EE2C29"/>
<stop offset="0.7361" stop-color="#EF3828"/>
<stop offset="0.7514" stop-color="#F25624"/>
<stop offset="0.7715" stop-color="#F6881F"/>
<stop offset="0.7779" stop-color="#F8991D"/>
<stop offset="1" stop-color="#F8991D"/>
</linearGradient>
<linearGradient id="paint4_linear_603_114159" x1="10.0622" y1="19.4411" x2="12.3937" y2="17.1096" gradientUnits="userSpaceOnUse">
<stop offset="0.2234" stop-color="#FCBD12"/>
<stop offset="0.6003" stop-color="#A4BE36"/>
<stop offset="0.8346" stop-color="#72BF4B"/>
</linearGradient>
<linearGradient id="paint5_linear_603_114159" x1="22.8558" y1="19.5762" x2="25.1874" y2="17.2446" gradientUnits="userSpaceOnUse">
<stop offset="0.269" stop-color="#EE2C29"/>
<stop offset="0.5834" stop-color="#F67A22"/>
<stop offset="0.7665" stop-color="#FAA31F"/>
</linearGradient>
<linearGradient id="paint6_linear_603_114159" x1="16.525" y1="17.1096" x2="18.8566" y2="19.4411" gradientUnits="userSpaceOnUse">
<stop offset="0.1697" stop-color="#6FBE47"/>
<stop offset="0.3004" stop-color="#85A542"/>
<stop offset="0.5767" stop-color="#BC6535"/>
<stop offset="0.8037" stop-color="#EE2C29"/>
</linearGradient>
<linearGradient id="paint7_linear_603_114159" x1="17.9518" y1="33.6311" x2="18.0748" y2="26.5871" gradientUnits="userSpaceOnUse">
<stop stop-color="#1C489C"/>
<stop offset="1" stop-color="#1F489E"/>
</linearGradient>
<linearGradient id="paint8_linear_603_114159" x1="27.3786" y1="16.5749" x2="27.3786" y2="12.3222" gradientUnits="userSpaceOnUse">
<stop stop-color="white"/>
<stop offset="1" stop-color="white" stop-opacity="0"/>
</linearGradient>
<linearGradient id="paint9_linear_603_114159" x1="20.9157" y1="23.1711" x2="20.9157" y2="18.9184" gradientUnits="userSpaceOnUse">
<stop stop-color="white"/>
<stop offset="1" stop-color="white" stop-opacity="0"/>
</linearGradient>
<linearGradient id="paint10_linear_603_114159" x1="14.4533" y1="16.5749" x2="14.4533" y2="12.3222" gradientUnits="userSpaceOnUse">
<stop stop-color="white"/>
<stop offset="1" stop-color="white" stop-opacity="0"/>
</linearGradient>
<linearGradient id="paint11_linear_603_114159" x1="7.99035" y1="23.1711" x2="7.99035" y2="18.9184" gradientUnits="userSpaceOnUse">
<stop stop-color="white"/>
<stop offset="1" stop-color="white" stop-opacity="0"/>
</linearGradient>
</defs>
</svg>
