<svg width="37" height="37" viewBox="0 0 37 37" fill="none" xmlns="http://www.w3.org/2000/svg">
<path d="M3.75 16.7539H23.7525V33.7564H3.75V16.7539Z" fill="#D19E6D"/>
<path d="M5.75244 15.7578H21.7499V31.7553H5.75244V15.7578Z" fill="#E7E4DD"/>
<path d="M5.75244 15.7578V29.7453C5.91744 29.7453 6.08244 29.7603 6.25494 29.7603C13.6349 29.7603 19.6199 23.5128 19.7474 15.7578H5.75244Z" fill="#F5F4F1"/>
<path d="M16.7476 16.7553V4.75531C16.7476 4.20031 17.1976 3.75781 17.7451 3.75781H32.7451C33.3001 3.75781 33.7426 4.20781 33.7426 4.75531V16.7553C33.7426 17.3103 33.2926 17.7528 32.7451 17.7528H28.2451L25.7476 20.2503V17.7528H17.7451C17.1901 17.7528 16.7476 17.3028 16.7476 16.7553Z" fill="#9D958C"/>
<path d="M16.7476 4.755V15.2025C17.1601 15.2325 17.5726 15.255 18.0001 15.255C25.3201 15.255 31.2526 10.3275 31.2526 4.2525C31.2526 4.0875 31.2526 3.915 31.2376 3.75H17.7526C17.1976 3.75 16.7551 4.2 16.7551 4.7475L16.7476 4.755Z" fill="#C4BFBA"/>
<path d="M21.2476 5.75781V15.7553H29.2501V5.75781H27.2476V9.26031H23.2501V5.75781H21.2476Z" fill="#D5FBFE"/>
<path d="M29.2501 10.0664V5.75391H27.2476V9.25641H23.2501V5.75391H21.2476V14.9189C24.4126 14.3189 27.2551 12.5939 29.2501 10.0664Z" fill="#EEFDFF"/>
<path d="M21.2476 13.7539H29.2501V15.7564H21.2476V13.7539Z" fill="#A0BCBF"/>
<path d="M13.2524 15.7578H14.2499V31.7553H13.2524V15.7578Z" fill="#E3C5A7"/>
<path d="M12.2477 18.255H7.24518C6.96768 18.255 6.74268 18.03 6.74268 17.7525C6.74268 17.475 6.96768 17.25 7.24518 17.25H12.2477C12.5252 17.25 12.7502 17.475 12.7502 17.7525C12.7502 18.03 12.5252 18.255 12.2477 18.255Z" fill="#E3C5A7"/>
<path d="M12.2477 20.2589H7.24518C6.96768 20.2589 6.74268 20.0339 6.74268 19.7564C6.74268 19.4789 6.96768 19.2539 7.24518 19.2539H12.2477C12.5252 19.2539 12.7502 19.4789 12.7502 19.7564C12.7502 20.0339 12.5252 20.2589 12.2477 20.2589Z" fill="#E3C5A7"/>
<path d="M12.2477 22.2589H7.24518C6.96768 22.2589 6.74268 22.0339 6.74268 21.7564C6.74268 21.4789 6.96768 21.2539 7.24518 21.2539H12.2477C12.5252 21.2539 12.7502 21.4789 12.7502 21.7564C12.7502 22.0339 12.5252 22.2589 12.2477 22.2589Z" fill="#E3C5A7"/>
<path d="M12.2477 24.255H7.24518C6.96768 24.255 6.74268 24.03 6.74268 23.7525C6.74268 23.475 6.96768 23.25 7.24518 23.25H12.2477C12.5252 23.25 12.7502 23.475 12.7502 23.7525C12.7502 24.03 12.5252 24.255 12.2477 24.255Z" fill="#E3C5A7"/>
<path d="M12.2477 26.2589H7.24518C6.96768 26.2589 6.74268 26.0339 6.74268 25.7564C6.74268 25.4789 6.96768 25.2539 7.24518 25.2539H12.2477C12.5252 25.2539 12.7502 25.4789 12.7502 25.7564C12.7502 26.0339 12.5252 26.2589 12.2477 26.2589Z" fill="#E3C5A7"/>
<path d="M12.2477 28.2589H7.24518C6.96768 28.2589 6.74268 28.0339 6.74268 27.7564C6.74268 27.4789 6.96768 27.2539 7.24518 27.2539H12.2477C12.5252 27.2539 12.7502 27.4789 12.7502 27.7564C12.7502 28.0339 12.5252 28.2589 12.2477 28.2589Z" fill="#E3C5A7"/>
<path d="M12.2477 30.255H7.24518C6.96768 30.255 6.74268 30.03 6.74268 29.7525C6.74268 29.475 6.96768 29.25 7.24518 29.25H12.2477C12.5252 29.25 12.7502 29.475 12.7502 29.7525C12.7502 30.03 12.5252 30.255 12.2477 30.255Z" fill="#E3C5A7"/>
<path d="M20.2501 20.2589H15.2476C14.9701 20.2589 14.7451 20.0339 14.7451 19.7564C14.7451 19.4789 14.9701 19.2539 15.2476 19.2539H20.2501C20.5276 19.2539 20.7526 19.4789 20.7526 19.7564C20.7526 20.0339 20.5276 20.2589 20.2501 20.2589Z" fill="#E3C5A7"/>
<path d="M20.2501 22.2589H15.2476C14.9701 22.2589 14.7451 22.0339 14.7451 21.7564C14.7451 21.4789 14.9701 21.2539 15.2476 21.2539H20.2501C20.5276 21.2539 20.7526 21.4789 20.7526 21.7564C20.7526 22.0339 20.5276 22.2589 20.2501 22.2589Z" fill="#E3C5A7"/>
<path d="M20.2501 24.255H15.2476C14.9701 24.255 14.7451 24.03 14.7451 23.7525C14.7451 23.475 14.9701 23.25 15.2476 23.25H20.2501C20.5276 23.25 20.7526 23.475 20.7526 23.7525C20.7526 24.03 20.5276 24.255 20.2501 24.255Z" fill="#E3C5A7"/>
<path d="M20.2501 26.2589H15.2476C14.9701 26.2589 14.7451 26.0339 14.7451 25.7564C14.7451 25.4789 14.9701 25.2539 15.2476 25.2539H20.2501C20.5276 25.2539 20.7526 25.4789 20.7526 25.7564C20.7526 26.0339 20.5276 26.2589 20.2501 26.2589Z" fill="#E3C5A7"/>
<path d="M20.2501 28.2589H15.2476C14.9701 28.2589 14.7451 28.0339 14.7451 27.7564C14.7451 27.4789 14.9701 27.2539 15.2476 27.2539H20.2501C20.5276 27.2539 20.7526 27.4789 20.7526 27.7564C20.7526 28.0339 20.5276 28.2589 20.2501 28.2589Z" fill="#E3C5A7"/>
<path d="M20.2501 30.255H15.2476C14.9701 30.255 14.7451 30.03 14.7451 29.7525C14.7451 29.475 14.9701 29.25 15.2476 29.25H20.2501C20.5276 29.25 20.7526 29.475 20.7526 29.7525C20.7526 30.03 20.5276 30.255 20.2501 30.255Z" fill="#E3C5A7"/>
</svg>
