<svg width="37" height="37" viewBox="0 0 37 37" fill="none" xmlns="http://www.w3.org/2000/svg">
<path d="M23.1254 30.2419H20.8079C20.5454 30.2419 20.3354 30.0244 20.3354 29.7694C20.3354 29.5069 20.5529 29.2969 20.8079 29.2969H23.1254C23.3879 29.2969 23.5979 29.5144 23.5979 29.7694C23.6054 30.0319 23.3954 30.2419 23.1254 30.2419Z" fill="#8553E0"/>
<path d="M15.6928 30.2419H13.3753C13.1128 30.2419 12.9028 30.0244 12.9028 29.7694C12.9028 29.5069 13.1203 29.2969 13.3753 29.2969H15.6928C15.9553 29.2969 16.1653 29.5144 16.1653 29.7694C16.1728 30.0319 15.9553 30.2419 15.6928 30.2419Z" fill="#8553E0"/>
<path d="M30.5576 17.0231H29.1551C28.8926 17.0231 28.6826 16.8056 28.6826 16.5506C28.6826 16.2881 28.9001 16.0781 29.1551 16.0781H30.5576C30.8201 16.0781 31.0301 16.2956 31.0301 16.5506C31.0376 16.8131 30.8276 17.0231 30.5576 17.0231Z" fill="#C3B8C3"/>
<path d="M7.34521 17.0231H5.94271C5.68021 17.0231 5.47021 16.8056 5.47021 16.5506C5.47021 16.2881 5.68771 16.0781 5.94271 16.0781H7.34521C7.60771 16.0781 7.81771 16.2956 7.81771 16.5506C7.82521 16.8131 7.60771 17.0231 7.34521 17.0231Z" fill="#C3B8C3"/>
<path d="M27.6926 11.569C27.5276 11.569 27.3701 11.4865 27.2801 11.329C27.1451 11.104 27.2276 10.8115 27.4526 10.6765L28.6751 9.97154C28.9001 9.83654 29.1926 9.91904 29.3276 10.144C29.4626 10.369 29.3801 10.6615 29.1551 10.7965L27.9326 11.5015C27.8576 11.554 27.7751 11.569 27.6926 11.569Z" fill="#C3B8C3"/>
<path d="M7.58521 23.1784C7.42021 23.1784 7.26271 23.0959 7.17271 22.9384C7.03771 22.7134 7.12021 22.4209 7.34521 22.2859L8.56771 21.5809C8.79271 21.4459 9.08521 21.5284 9.22021 21.7534C9.35521 21.9784 9.27271 22.2709 9.04771 22.4059L7.82521 23.1109C7.75021 23.1634 7.66771 23.1784 7.58521 23.1784Z" fill="#C3B8C3"/>
<path d="M23.7024 7.57904C23.6199 7.57904 23.5374 7.55654 23.4624 7.51904C23.2374 7.38404 23.1549 7.09154 23.2899 6.86654L23.9949 5.64404C24.1299 5.41904 24.4224 5.33654 24.6474 5.47154C24.8724 5.60654 24.9549 5.89904 24.8199 6.12404L24.1149 7.34654C24.0249 7.49654 23.8674 7.57904 23.7024 7.57904Z" fill="#C3B8C3"/>
<path d="M18.2503 6.11672C17.9878 6.11672 17.7778 5.89922 17.7778 5.64422V4.23422C17.7778 3.97922 17.9878 3.76172 18.2503 3.76172C18.5128 3.76172 18.7228 3.97922 18.7228 4.23422V5.63672C18.7228 5.90672 18.5128 6.11672 18.2503 6.11672Z" fill="#C3B8C3"/>
<path d="M12.7975 7.57873C12.6325 7.57873 12.475 7.49623 12.385 7.33873L11.68 6.11623C11.545 5.89123 11.6275 5.59873 11.8525 5.46373C12.0775 5.32873 12.37 5.41123 12.505 5.63623L13.21 6.85873C13.345 7.08373 13.2625 7.37623 13.0375 7.51123C12.9625 7.56373 12.88 7.57873 12.7975 7.57873Z" fill="#C3B8C3"/>
<path d="M8.80771 11.5694C8.72521 11.5694 8.64271 11.5469 8.56771 11.5094L7.34521 10.8044C7.12021 10.6694 7.03771 10.3769 7.17271 10.1519C7.30771 9.92685 7.60021 9.84435 7.82521 9.97935L9.04771 10.6844C9.27271 10.8194 9.35521 11.1119 9.22021 11.3369C9.13021 11.4869 8.97271 11.5694 8.80771 11.5694Z" fill="#C3B8C3"/>
<path d="M28.9151 23.1787C28.8326 23.1787 28.7501 23.1562 28.6751 23.1187L27.4526 22.4137C27.2276 22.2787 27.1451 21.9862 27.2801 21.7612C27.4151 21.5362 27.7076 21.4537 27.9326 21.5887L29.1551 22.2937C29.3801 22.4287 29.4626 22.7212 29.3276 22.9462C29.2376 23.0962 29.0726 23.1787 28.9151 23.1787Z" fill="#C3B8C3"/>
<path d="M26.9204 16.5508C26.9204 11.6083 22.7804 7.62578 17.7779 7.89578C13.5254 8.12078 9.99285 11.5183 9.61785 15.7633C9.34785 18.8233 10.6679 21.5908 12.8504 23.3233C14.3204 24.5008 15.5054 26.0008 16.1579 27.7633L16.1954 27.8683H20.2979L20.3429 27.7633C20.9879 26.0158 22.1354 24.5158 23.6054 23.3608C25.6229 21.7858 26.9204 19.3183 26.9204 16.5508Z" fill="#FFCF1A"/>
<path d="M18.2503 30.0422C17.9878 30.0422 17.7778 29.8247 17.7778 29.5697V21.5897C17.7778 21.3272 17.9953 21.1172 18.2503 21.1172C18.5128 21.1172 18.7228 21.3347 18.7228 21.5897V29.5622C18.7228 29.8322 18.5128 30.0422 18.2503 30.0422Z" fill="#F47A76"/>
<path d="M23.77 16.6413C23.77 21.0438 18.2425 23.2863 18.2425 23.2863C18.2425 23.2863 12.73 21.0513 12.73 16.6413C12.73 15.0963 13.9825 13.8438 15.5275 13.8438C16.8475 13.8438 17.9425 14.7663 18.2425 15.9888C18.5425 14.7663 19.645 13.8438 20.965 13.8438C22.51 13.8363 23.77 15.0888 23.77 16.6413Z" fill="#EE3831"/>
<path d="M23.6425 15.8359C23.56 16.2334 23.425 16.6084 23.26 16.9609C21.325 21.1534 15.1525 21.1534 13.225 16.9534C13.06 16.6009 12.9325 16.2259 12.85 15.8359C12.775 16.0909 12.73 16.3609 12.73 16.6459C12.73 21.0484 18.2425 23.2909 18.2425 23.2909C18.2425 23.2909 23.77 21.0559 23.77 16.6459C23.77 16.3534 23.725 16.0834 23.6425 15.8359Z" fill="#D6332C"/>
<path d="M21.2878 27.875H15.2128C14.6878 27.875 14.2603 28.3025 14.2603 28.8275V30.725C14.2603 31.25 14.6878 31.6775 15.2128 31.6775H21.2878C21.8128 31.6775 22.2403 31.25 22.2403 30.725V28.8275C22.2328 28.3025 21.8128 27.875 21.2878 27.875Z" fill="#9866F0"/>
<path d="M21.2879 27.875H20.8904C20.8904 27.8975 20.8979 27.92 20.8979 27.95V29.8475C20.8979 30.3725 20.4704 30.8 19.9454 30.8H14.2754C14.3129 31.2875 14.7179 31.6775 15.2204 31.6775H21.2954C21.8204 31.6775 22.2479 31.25 22.2479 30.725V28.8275C22.2329 28.3025 21.8129 27.875 21.2879 27.875Z" fill="#8553E0"/>
<path d="M16.3677 31.6758V31.8783C16.3677 32.9133 17.2077 33.7608 18.2502 33.7608C19.2927 33.7608 20.1327 32.9208 20.1327 31.8783V31.6758H16.3677Z" fill="#C3B8C3"/>
<path d="M16.9077 16.1116C16.9077 16.9141 14.0127 16.9141 14.0127 16.1116C14.0127 15.3091 14.6577 14.6641 15.4602 14.6641C16.2627 14.6641 16.9077 15.3091 16.9077 16.1116Z" fill="#F47A76"/>
</svg>
