<svg width="37" height="37" viewBox="0 0 37 37" fill="none" xmlns="http://www.w3.org/2000/svg">
<path d="M18.8623 12.0192C18.2923 11.9517 17.7823 12.3567 17.7148 12.9267C17.7148 12.9267 17.7148 12.9342 17.7148 12.9417L17.2723 16.9467L14.2648 17.9817C14.1223 18.0267 13.9948 18.1092 13.8898 18.2142H13.5748V17.9967C14.8873 17.4267 15.4798 15.9042 14.9098 14.5917C14.3398 13.2792 12.8173 12.6867 11.5048 13.2567C10.1923 13.8267 9.59978 15.3492 10.1698 16.6617C10.4323 17.2617 10.9048 17.7342 11.5048 17.9967V18.2217H10.9873C10.7548 18.2517 10.5298 18.3192 10.3123 18.4167L7.59728 20.5692L4.93477 20.1642C4.37227 20.0742 3.83978 20.4642 3.75728 21.0267C3.68228 21.5292 3.97477 22.0167 4.46227 22.1667C4.51477 22.1892 4.57478 22.1967 4.62728 22.2117L7.73228 22.6842C8.01728 22.7292 8.30228 22.6467 8.52728 22.4742L9.95228 21.3342V29.0367L5.75977 31.8492C5.26477 32.1417 5.10728 32.7717 5.39228 33.2667C5.67728 33.7617 6.31477 33.9192 6.80977 33.6342C6.83978 33.6117 6.87727 33.5967 6.90728 33.5667L11.5648 30.4617C11.8498 30.2667 12.0223 29.9517 12.0223 29.6067V25.4667H13.1623L16.1548 28.4817V32.7042C16.1548 33.2742 16.6198 33.7392 17.1898 33.7392C17.7598 33.7392 18.2248 33.2742 18.2248 32.7042V28.0467C18.2248 27.7767 18.1198 27.5142 17.9248 27.3192L15.1198 24.4992V19.8792L18.5623 18.6792C18.9373 18.5517 19.2073 18.2142 19.2523 17.8167L19.7698 13.1592C19.8373 12.5892 19.4323 12.0792 18.8623 12.0117C18.8623 12.0117 18.8548 12.0117 18.8473 12.0117L18.8623 12.0192Z" fill="#F9E109"/>
<path d="M18.5251 15.6781L19.0426 12.0556C18.4951 11.8906 17.9176 12.2056 17.7526 12.7531C17.7376 12.8131 17.7226 12.8806 17.7151 12.9406L17.2726 16.9456L14.2651 17.9806C14.1226 18.0256 13.9951 18.1081 13.8901 18.2131H13.5751V17.9956C13.9801 17.8231 14.3401 17.5456 14.6101 17.1856C12.8926 17.1856 11.5126 15.7831 11.5201 14.0656C11.5201 13.7806 11.5651 13.4956 11.6401 13.2181C10.3051 13.7281 9.63759 15.2206 10.1401 16.5556C10.3876 17.2006 10.8751 17.7181 11.5051 17.9956V18.2131H10.9876C10.7551 18.2431 10.5301 18.3106 10.3126 18.4081L7.59759 20.5606L4.97259 20.1631C4.48509 20.0881 4.01259 20.3506 3.81759 20.8081C3.60759 21.3406 3.86259 21.9406 4.39509 22.1506C4.41759 22.1581 4.43259 22.1656 4.45509 22.1731C4.50759 22.1956 4.56759 22.2031 4.62009 22.2181L7.72509 22.6906C8.01009 22.7356 8.29509 22.6531 8.52009 22.4806L9.94509 21.3331V29.0356L5.80509 31.8181C5.34759 32.1031 5.18259 32.6881 5.41509 33.1756C5.67759 33.6856 6.30009 33.8881 6.81009 33.6256C6.84759 33.6106 6.87759 33.5881 6.91509 33.5656L11.5726 30.4606C11.8576 30.2656 12.0226 29.9431 12.0226 29.6056V29.0881C11.4526 29.0881 10.9876 28.6231 10.9876 28.0531V27.5356C10.9876 26.9656 11.4526 26.5006 12.0226 26.5006V25.4656H13.1626L16.1551 28.4806V32.6506C16.1326 33.1756 16.5001 33.6406 17.0101 33.7381C17.5726 33.8356 18.1051 33.4606 18.2026 32.8981C18.2101 32.8381 18.2176 32.7706 18.2176 32.7106C17.6476 32.7106 17.1826 32.2456 17.1826 31.6756V29.6056C17.1826 29.0356 17.6476 28.5706 18.2176 28.5706V28.0531C18.2176 27.7831 18.1126 27.5206 17.9176 27.3256L15.1126 24.5056V23.9131C14.5426 23.9131 14.0776 23.4481 14.0776 22.8781V21.3256C14.0776 20.7556 14.5426 20.2906 15.1126 20.2906V19.8856L18.5551 18.6856C18.9301 18.5581 19.2001 18.2206 19.2451 17.8231L19.3651 16.6756C18.8776 16.6756 18.4876 16.2781 18.4951 15.7906C18.4951 15.7531 18.4951 15.7156 18.5026 15.6781H18.5251Z" fill="#FCBC04"/>
<path d="M32.5426 7.88672C32.0251 7.99172 31.6651 8.44922 31.6876 8.97422V15.6417C31.6876 15.9267 31.4551 16.1592 31.1701 16.1592H28.5826V15.9417C29.8951 15.3717 30.4876 13.8492 29.9176 12.5367C29.3476 11.2242 27.8251 10.6317 26.5126 11.2017C25.2001 11.7717 24.6076 13.2942 25.1776 14.6067C25.4401 15.2067 25.9126 15.6792 26.5126 15.9417V16.1592H26.1901C26.0851 16.0542 25.9576 15.9717 25.8151 15.9267L22.8076 14.8917L22.3651 10.9317C22.3126 10.3917 21.8701 9.97172 21.3301 9.95672C20.7601 9.95672 20.2951 10.4142 20.2876 10.9842C20.2876 11.0217 20.2876 11.0667 20.2876 11.1042L20.8051 15.7617C20.8501 16.1592 21.1126 16.4967 21.4951 16.6242L24.9451 17.8242V22.4442L22.1401 25.2642C21.9451 25.4592 21.8401 25.7217 21.8401 25.9917V30.5892C21.8176 31.1142 22.1851 31.5792 22.6951 31.6767C23.2576 31.7742 23.7901 31.3992 23.8876 30.8367C23.8951 30.7767 23.9026 30.7092 23.9026 30.6492V26.4267L26.8951 23.4117H28.0351V32.6667C28.0126 33.1917 28.3801 33.6567 28.8901 33.7542C29.4526 33.8517 29.9851 33.4767 30.0826 32.9142C30.0901 32.8542 30.0976 32.7867 30.0976 32.7267V18.2442H31.1326C32.5576 18.2442 33.7201 17.0892 33.7201 15.6567V8.93672C33.7276 8.36672 33.2701 7.89422 32.7001 7.88672C32.6326 7.88672 32.5726 7.88672 32.5126 7.90172L32.5426 7.88672Z" fill="#F9E109"/>
<path d="M32.7151 13.5714V7.87891C32.6551 7.87891 32.5951 7.87891 32.5426 7.87891C32.0251 7.98391 31.6651 8.44141 31.6876 8.96641V15.6339C31.6876 15.9189 31.4551 16.1514 31.1701 16.1514H28.5826V15.9339C29.1826 15.6714 29.6626 15.1989 29.9251 14.5989C29.8201 14.5989 29.7226 14.5989 29.6176 14.5989C27.9001 14.5989 26.5126 13.2114 26.5126 11.4939C26.5126 11.3889 26.5126 11.2914 26.5126 11.1864C25.2001 11.7564 24.6001 13.2789 25.1701 14.5914C25.4326 15.1914 25.9126 15.6714 26.5126 15.9339V16.1514H26.1901C26.0851 16.0464 25.9576 15.9639 25.8151 15.9189L22.8076 14.8839L22.6876 13.8489C22.1851 13.8189 21.7801 13.4364 21.7201 12.9414L21.3901 9.94891H21.3301C20.7601 9.94891 20.2951 10.4064 20.2876 10.9764C20.2876 11.0139 20.2876 11.0589 20.2876 11.0964L20.8051 15.7539C20.8501 16.1514 21.1126 16.4889 21.4951 16.6164L24.9451 17.8164V22.4364L22.1401 25.2564C21.9451 25.4514 21.8401 25.7139 21.8401 25.9839V30.5814C21.8176 31.1064 22.1851 31.5714 22.6951 31.6689C23.2576 31.7664 23.7901 31.3914 23.8876 30.8289C23.8951 30.7689 23.9026 30.7014 23.9026 30.6414V26.4189L26.8951 23.4039H28.0351V32.6589C28.0126 33.1839 28.3801 33.6489 28.8901 33.7464C29.4526 33.8439 29.9851 33.4689 30.0826 32.9064C30.0901 32.8464 30.0976 32.7789 30.0976 32.7189V32.6289C29.4826 32.4114 29.0626 31.8264 29.0626 31.1739V20.3139C29.0626 19.7439 29.5276 19.2789 30.0976 19.2789V18.2439H31.1326C32.5576 18.2439 33.7201 17.0889 33.7201 15.6564V15.0489C33.1051 14.8314 32.6851 14.2464 32.6851 13.5939L32.7151 13.5714Z" fill="#FCBC04"/>
<path d="M10.4777 3.74937H6.33768C6.05268 3.74937 5.82018 3.98188 5.82018 4.26688V6.94437C5.01018 6.65937 4.12518 7.07938 3.84018 7.88937C3.55518 8.69938 3.97518 9.58438 4.78518 9.86938C5.59518 10.1544 6.48018 9.73438 6.76518 8.92438C6.82518 8.75938 6.85518 8.57938 6.85518 8.39937V6.84687H9.96018V7.97187C9.15018 7.68687 8.26518 8.10687 7.98018 8.91687C7.69518 9.72687 8.11518 10.6119 8.92518 10.8969C9.73518 11.1819 10.6202 10.7619 10.9052 9.95187C10.9652 9.78687 10.9952 9.60687 10.9952 9.42688V4.25188C10.9952 3.96688 10.7627 3.73438 10.4777 3.73438V3.74937ZM5.30268 8.92438C5.01768 8.92438 4.78518 8.69187 4.78518 8.40687C4.78518 8.12187 5.01768 7.88937 5.30268 7.88937C5.58768 7.88937 5.82018 8.12187 5.82018 8.40687C5.82018 8.69187 5.58768 8.92438 5.30268 8.92438ZM6.85518 4.78438H9.96018V5.81937H6.85518V4.78438ZM9.44268 9.95938C9.15768 9.95938 8.92518 9.72687 8.92518 9.44187C8.92518 9.15687 9.15768 8.92438 9.44268 8.92438C9.72768 8.92438 9.96018 9.15687 9.96018 9.44187C9.96018 9.72687 9.72768 9.95938 9.44268 9.95938Z" fill="#4891D3"/>
<path d="M31.68 5.81676C31.65 5.68176 31.5675 5.56926 31.455 5.49426L28.83 3.83676C28.59 3.67926 28.2675 3.75426 28.1175 3.99426L27.03 5.73426L26.1225 7.12176C26.0175 6.97926 25.8825 6.85926 25.7325 6.76176C24.99 6.33426 24.045 6.58176 23.61 7.32426C23.205 8.02176 23.4 8.91426 24.06 9.37176C24.3075 9.53676 24.6 9.61926 24.8925 9.61926C25.4175 9.61926 25.9125 9.34926 26.205 8.91426L27.5925 6.73176L29.775 8.11926C29.8575 8.17176 29.955 8.20176 30.0525 8.20176C30.225 8.20176 30.39 8.11176 30.4875 7.96176L31.5975 6.21426C31.68 6.09426 31.71 5.94426 31.68 5.80926V5.81676ZM25.005 8.57676C24.87 8.60676 24.735 8.57676 24.615 8.50926C24.375 8.35176 24.3075 8.03676 24.4575 7.79676C24.555 7.64676 24.7125 7.56426 24.8925 7.55676C24.99 7.55676 25.0875 7.58676 25.17 7.63176C25.2825 7.70676 25.365 7.82676 25.395 7.95426C25.425 8.08926 25.395 8.22426 25.3275 8.34426C25.2525 8.45676 25.14 8.53926 25.005 8.56926V8.57676ZM29.895 6.97176L28.155 5.86176L28.71 4.98426L30.45 6.09426L29.895 6.97176Z" fill="#4891D3"/>
<path d="M18.4273 5.7436C18.1873 5.5936 17.8648 5.6611 17.7148 5.9011L16.8223 7.2886C16.7173 7.1461 16.5898 7.0261 16.4398 6.9286C15.7198 6.4711 14.7598 6.6811 14.3023 7.4011C14.0773 7.7461 14.0023 8.1661 14.0923 8.5711C14.2498 9.2836 14.8723 9.7861 15.5998 9.7936C15.7123 9.7936 15.8248 9.7786 15.9373 9.7561C16.3348 9.6661 16.6873 9.4261 16.9123 9.0811L18.5848 6.4636C18.7423 6.2236 18.6748 5.9011 18.4348 5.7511L18.4273 5.7436ZM15.7198 8.7436C15.4423 8.8186 15.1573 8.6611 15.0823 8.3836C15.0073 8.1061 15.1648 7.8211 15.4423 7.7461C15.4573 7.7461 15.4798 7.7386 15.5023 7.7311C15.5398 7.7311 15.5773 7.7311 15.6148 7.7311C15.8998 7.7311 16.1323 7.9636 16.1248 8.2561C16.1248 8.3536 16.0948 8.4436 16.0498 8.5261C15.9748 8.6386 15.8548 8.7136 15.7273 8.7436H15.7198Z" fill="#F8664F"/>
<path d="M21.3373 4.78125C21.0523 4.78125 20.8198 5.01375 20.8198 5.29875V7.36875C20.8198 7.65375 21.0523 7.88625 21.3373 7.88625C21.6223 7.88625 21.8548 7.65375 21.8548 7.36875V5.29875C21.8548 5.01375 21.6223 4.78125 21.3373 4.78125Z" fill="#C4F236"/>
<path d="M5.82023 13.5703C5.53523 13.5703 5.30273 13.8028 5.30273 14.0878V15.6403C5.30273 15.9253 5.53523 16.1578 5.82023 16.1578C6.10523 16.1578 6.33773 15.9253 6.33773 15.6403V14.0878C6.33773 13.8028 6.10523 13.5703 5.82023 13.5703Z" fill="#C4F236"/>
<path d="M16.1625 12.535C16.4483 12.535 16.68 12.3033 16.68 12.0175C16.68 11.7317 16.4483 11.5 16.1625 11.5C15.8767 11.5 15.645 11.7317 15.645 12.0175C15.645 12.3033 15.8767 12.535 16.1625 12.535Z" fill="#F9E109"/>
<path d="M13.5824 5.30063C13.8682 5.30063 14.0999 5.06893 14.0999 4.78313C14.0999 4.49732 13.8682 4.26562 13.5824 4.26562C13.2966 4.26562 13.0649 4.49732 13.0649 4.78313C13.0649 5.06893 13.2966 5.30063 13.5824 5.30063Z" fill="#F9E109"/>
</svg>
