<svg width="37" height="37" viewBox="0 0 37 37" fill="none" xmlns="http://www.w3.org/2000/svg">
<path d="M33.25 18.7617C33.25 20.8242 32.83 22.7967 32.08 24.5892C29.8 29.9817 24.4675 33.7617 18.25 33.7617C12.0325 33.7617 6.7 29.9817 4.42 24.5892C3.67 22.7967 3.25 20.8242 3.25 18.7617C3.25 18.4692 3.2575 18.1767 3.2725 17.8842C3.3025 17.3967 3.355 16.9167 3.4225 16.4517C4.54 9.26672 10.75 3.76172 18.25 3.76172C25.75 3.76172 31.96 9.26672 33.07 16.4517C33.145 16.9242 33.19 17.4042 33.22 17.8842C33.2425 18.1767 33.25 18.4692 33.25 18.7617Z" fill="#96D6D4"/>
<path d="M27.535 7.67594C27.535 9.07094 26.4025 10.2034 25.0075 10.2034C23.6125 10.2034 22.48 9.07094 22.48 7.67594C22.48 6.28094 23.6125 5.14844 25.0075 5.14844C26.4025 5.14844 27.535 6.28094 27.535 7.67594Z" fill="#FFBB16"/>
<path d="M29.9349 17.2733H12.5274C12.2649 17.2733 12.0549 17.1833 11.8899 17.0333C11.4699 16.6583 11.4249 15.9308 11.9574 15.5408L16.8624 11.9408C17.1024 11.7683 17.4024 11.7158 17.6799 11.7908C17.7924 11.8208 17.8974 11.8733 17.9949 11.9408L19.5549 13.0808C19.9374 13.3583 20.4699 13.3208 20.7999 12.9833L23.7099 10.0508C24.0024 9.75831 24.4299 9.69081 24.7824 9.84831C24.8874 9.89331 24.9849 9.96081 25.0749 10.0508L30.6099 15.6383C31.2174 16.2458 30.7899 17.2733 29.9349 17.2733Z" fill="#757177"/>
<path d="M24.7899 9.86036C24.3699 9.68036 23.3724 11.2404 23.0274 11.9679C22.6824 12.7029 23.6649 12.6054 23.4099 13.0554C23.1549 13.5054 21.2799 15.5679 21.2799 15.5679L19.6149 16.1529L18.8799 15.4179L19.0599 14.7504L20.8074 12.9879L23.7174 10.0554C24.0099 9.77036 24.4374 9.70286 24.7899 9.86036Z" fill="#2F373B"/>
<path d="M17.6874 11.7911C17.1099 11.6186 15.5124 16.4411 15.5124 16.4411L11.8899 17.0336C11.4699 16.6586 11.4249 15.9311 11.9574 15.5411L16.8624 11.9411C17.1099 11.7686 17.4099 11.7161 17.6874 11.7911Z" fill="#2F373B"/>
<path d="M33.2051 17.6075C32.8151 18.3575 32.0276 18.8675 31.1276 18.8675C30.1676 18.8675 29.3426 18.29 28.9826 17.465C28.6226 18.29 27.7976 18.8675 26.8376 18.8675C25.8776 18.8675 25.0526 18.29 24.6926 17.465C24.3326 18.29 23.5076 18.8675 22.5476 18.8675C21.5876 18.8675 20.7626 18.29 20.4026 17.465C20.0426 18.29 19.2176 18.8675 18.2576 18.8675C17.2976 18.8675 16.4726 18.29 16.1126 17.465C15.7526 18.29 14.9276 18.8675 13.9676 18.8675C13.0076 18.8675 12.1826 18.29 11.8226 17.465C11.4626 18.29 10.6376 18.8675 9.67756 18.8675C8.71756 18.8675 7.89256 18.29 7.53256 17.465C7.17256 18.29 6.34756 18.8675 5.38756 18.8675C4.48006 18.8675 3.70006 18.3575 3.31006 17.6075C3.33256 17.345 3.35506 17.0825 3.39256 16.8275C3.48256 16.145 3.61756 15.47 3.79006 14.8175C4.21006 14.4275 4.77256 14.1875 5.38756 14.1875C6.34756 14.1875 7.17256 14.765 7.53256 15.59C7.89256 14.765 8.71756 14.1875 9.67756 14.1875C10.6376 14.1875 11.4626 14.765 11.8226 15.59C12.1826 14.765 13.0076 14.1875 13.9676 14.1875C14.9276 14.1875 15.7526 14.765 16.1126 15.59C16.4726 14.765 17.2976 14.1875 18.2576 14.1875C19.2176 14.1875 20.0426 14.765 20.4026 15.59C20.7626 14.765 21.5876 14.1875 22.5476 14.1875C23.5076 14.1875 24.3326 14.765 24.6926 15.59C25.0526 14.765 25.8776 14.1875 26.8376 14.1875C27.7976 14.1875 28.6226 14.765 28.9826 15.59C29.3426 14.765 30.1676 14.1875 31.1276 14.1875C31.7426 14.1875 32.3051 14.4275 32.7251 14.8175C32.9051 15.47 33.0401 16.1375 33.1226 16.8275C33.1601 17.0825 33.1826 17.345 33.2051 17.6075Z" fill="#0A9327"/>
<path d="M33.25 18.7631C33.25 27.0506 26.5375 33.7631 18.25 33.7631C9.9625 33.7631 3.25 27.0506 3.25 18.7631C3.25 17.9756 3.31 17.2031 3.43 16.4531H33.0775C33.19 17.2031 33.25 17.9756 33.25 18.7631Z" fill="#2CCE5A"/>
<path d="M28.1577 15.6985C27.9027 15.676 27.7002 15.496 27.6477 15.2635C27.4827 15.4435 27.2202 15.5035 26.9877 15.406C26.7552 15.3085 26.6277 15.0685 26.6427 14.8285C26.4327 14.941 26.1627 14.9185 25.9752 14.746C25.7877 14.5735 25.7427 14.3035 25.8402 14.086C25.6002 14.131 25.3527 14.0185 25.2327 13.7935C25.1127 13.5685 25.1577 13.2985 25.3227 13.126C25.0827 13.0885 24.8877 12.901 24.8427 12.6535C24.8052 12.406 24.9252 12.166 25.1427 12.0535C24.9327 11.941 24.8052 11.701 24.8427 11.4535C24.8877 11.206 25.0827 11.0185 25.3227 10.981C25.1577 10.8085 25.1202 10.5385 25.2402 10.3135C25.3602 10.0885 25.6077 9.97598 25.8477 10.021C25.7502 9.80348 25.7952 9.53348 25.9827 9.36098C26.1702 9.18848 26.4402 9.16598 26.6502 9.27848C26.6277 9.03848 26.7627 8.79848 26.9952 8.70098C27.2277 8.59598 27.4902 8.66348 27.6552 8.84348C27.7152 8.61098 27.9177 8.43098 28.1652 8.40848C28.4202 8.38598 28.6452 8.53598 28.7427 8.75348C28.8702 8.55098 29.1252 8.44598 29.3652 8.50598C29.6127 8.56598 29.7777 8.78348 29.8002 9.02348C29.9877 8.87348 30.2577 8.85848 30.4752 8.99348C30.6852 9.13598 30.7752 9.39098 30.7152 9.62348C30.9402 9.54098 31.2027 9.61598 31.3602 9.81098C31.5177 10.0135 31.5177 10.2835 31.3827 10.486C31.6227 10.486 31.8477 10.636 31.9302 10.876C32.0127 11.116 31.9302 11.371 31.7352 11.521C31.9602 11.596 32.1252 11.8135 32.1252 12.0685V12.076C32.1252 12.331 31.9602 12.5485 31.7352 12.6235C31.9227 12.7735 32.0127 13.0285 31.9302 13.2685C31.8477 13.5085 31.6227 13.6585 31.3827 13.6585C31.5177 13.861 31.5102 14.131 31.3527 14.3335C31.1952 14.536 30.9327 14.6035 30.7077 14.521C30.7677 14.7535 30.6777 15.0085 30.4677 15.151C30.2577 15.2935 29.9877 15.271 29.7927 15.121C29.7777 15.361 29.6052 15.571 29.3577 15.6385C29.1102 15.6985 28.8627 15.5935 28.7352 15.391C28.6452 15.601 28.4427 15.736 28.2102 15.736C28.1877 15.6985 28.1727 15.6985 28.1577 15.6985Z" fill="#21BF4A"/>
<path d="M28.1649 8.69094C28.2624 8.64594 28.3599 8.63094 28.4499 8.63094C28.5699 8.63094 28.6749 8.66844 28.7424 8.74344C28.6524 8.53344 28.4499 8.39844 28.2174 8.39844C28.2024 8.39844 28.1874 8.39844 28.1724 8.39844C28.0449 8.40594 27.9324 8.45844 27.8424 8.53344C27.7524 8.60844 27.6849 8.71344 27.6624 8.83344C27.5499 8.71344 27.3999 8.64594 27.2349 8.64594C27.1599 8.64594 27.0774 8.66094 27.0024 8.69094C26.7849 8.78844 26.6574 8.99844 26.6574 9.21594C26.6574 9.23094 26.6574 9.25344 26.6574 9.26844C26.5674 9.22344 26.4774 9.19344 26.3799 9.19344C26.2374 9.19344 26.1024 9.24594 25.9899 9.34344C25.8699 9.45594 25.8024 9.61344 25.8024 9.77094C25.8024 9.85344 25.8174 9.92844 25.8549 10.0034C25.8249 9.99594 25.7874 9.99594 25.7574 9.99594C25.5549 9.99594 25.3524 10.1084 25.2549 10.2959C25.2099 10.3859 25.1874 10.4759 25.1874 10.5734C25.1874 10.7159 25.2399 10.8584 25.3449 10.9634C25.2249 10.9859 25.1199 11.0384 25.0299 11.1209C24.9474 11.2034 24.8874 11.3159 24.8649 11.4359C24.8574 11.4659 24.8574 11.5034 24.8574 11.5334C24.8574 11.7509 24.9774 11.9459 25.1649 12.0434C24.9774 12.1409 24.8574 12.3359 24.8574 12.5534C24.8574 12.5834 24.8574 12.6134 24.8649 12.6509C24.8874 12.7784 24.9474 12.8834 25.0299 12.9659C25.1124 13.0484 25.2249 13.1009 25.3449 13.1234C25.2474 13.2284 25.1874 13.3709 25.1874 13.5209C25.1874 13.6109 25.2099 13.7084 25.2549 13.7909C25.3599 13.9859 25.5549 14.0909 25.7649 14.0909C25.7949 14.0909 25.8324 14.0909 25.8624 14.0834C25.8324 14.1584 25.8099 14.2409 25.8099 14.3159C25.8099 14.4734 25.8699 14.6234 25.9974 14.7359C26.1099 14.8409 26.2449 14.8859 26.3874 14.8859C26.4849 14.8859 26.5824 14.8634 26.6649 14.8184C26.6649 14.8334 26.6649 14.8559 26.6649 14.8709C26.6649 15.0884 26.7924 15.3059 27.0099 15.3959C27.0849 15.4259 27.1674 15.4484 27.2424 15.4484C27.3999 15.4484 27.5574 15.3809 27.6699 15.2609C27.7299 15.4934 27.9249 15.6734 28.1799 15.6959C28.1949 15.6959 28.2099 15.6959 28.2249 15.6959C28.3449 15.6959 28.4499 15.6584 28.5399 15.5984C28.5699 15.5759 28.5999 15.5534 28.6299 15.5234C28.5849 15.5384 28.5399 15.5384 28.4874 15.5384C28.3824 15.5384 28.2774 15.5084 28.1724 15.4634C27.9549 15.3659 27.8274 15.0959 27.8274 14.8634C27.8274 14.8484 27.8274 14.8259 27.8274 14.8109C27.7449 14.8559 27.6474 14.8784 27.5499 14.8784C27.4074 14.8784 27.2724 14.8259 27.1599 14.7284C27.0399 14.6159 26.9724 14.4584 26.9724 14.3084C26.9724 14.2259 26.9874 14.1509 27.0249 14.0759C26.9949 14.0834 26.9574 14.0834 26.9274 14.0834C26.7249 14.0834 26.5224 13.9709 26.4174 13.7834C26.3724 13.6934 26.3499 13.6034 26.3499 13.5134C26.3499 13.3709 26.4024 13.2284 26.5074 13.1159C26.3874 13.0934 26.2824 13.0409 26.1924 12.9584C26.1099 12.8759 26.0499 12.7634 26.0274 12.6434C26.0199 12.6134 26.0199 12.5834 26.0199 12.5459C26.0199 12.3284 26.1399 12.1334 26.3274 12.0359C26.1399 11.9384 26.0199 11.7434 26.0199 11.5259C26.0199 11.4959 26.0199 11.4659 26.0274 11.4284C26.0499 11.3009 26.1099 11.1959 26.1924 11.1134C26.2749 11.0309 26.3874 10.9784 26.5074 10.9559C26.4099 10.8509 26.3499 10.7084 26.3499 10.5659C26.3499 10.4759 26.3724 10.3784 26.4174 10.2884C26.5224 10.0934 26.7174 9.98844 26.9274 9.98844C26.9574 9.98844 26.9949 9.98844 27.0249 9.99594C26.9949 9.92094 26.9724 9.83844 26.9724 9.76344C26.9724 9.60594 27.0324 9.45594 27.1599 9.33594C27.2724 9.23094 27.4074 9.18594 27.5499 9.18594C27.6474 9.18594 27.7449 9.20844 27.8274 9.26094C27.8274 9.24594 27.8274 9.22344 27.8274 9.20844C27.8199 8.99844 27.9474 8.78094 28.1649 8.69094Z" fill="#17AA3D"/>
<path d="M30.2503 16.9184H26.7178C27.4228 16.9184 27.6778 16.3184 27.6778 16.1159V14.4359C27.7378 14.4734 27.8053 14.4959 27.8803 14.5109C27.8953 14.5109 27.9103 14.5184 27.9253 14.5184C27.9403 14.5184 27.9553 14.5184 27.9703 14.5184C28.1878 14.5184 28.3753 14.3984 28.4803 14.2109C28.5778 14.3984 28.7728 14.5184 28.9903 14.5184C29.0203 14.5184 29.0503 14.5184 29.0803 14.5109C29.1553 14.4959 29.2228 14.4734 29.2903 14.4359V16.1159C29.2903 16.3184 29.5453 16.9184 30.2503 16.9184Z" fill="#AB5816"/>
<path d="M27.9776 14.5161C28.0526 14.5161 28.1276 14.5011 28.1951 14.4711V16.1136C28.1951 16.3236 28.1051 16.9161 27.8501 16.9161H26.7251C27.4301 16.9161 27.6851 16.3161 27.6851 16.1136V14.4336C27.7451 14.4711 27.8126 14.4936 27.8876 14.5086C27.9026 14.5086 27.9176 14.5161 27.9326 14.5161C27.9476 14.5161 27.9626 14.5161 27.9776 14.5161Z" fill="#8C3E09"/>
<path d="M6.93233 15.6985C6.67733 15.676 6.47483 15.496 6.42233 15.2635C6.25733 15.4435 5.99483 15.5035 5.76233 15.406C5.52983 15.301 5.40233 15.0685 5.41733 14.8285C5.20733 14.941 4.93733 14.9185 4.74983 14.746C4.56233 14.5735 4.51733 14.3035 4.61483 14.086C4.37483 14.131 4.12733 14.0185 4.00733 13.7935C3.88733 13.5685 3.93233 13.2985 4.08983 13.126C3.84983 13.0885 3.65483 12.901 3.60983 12.6535C3.57233 12.406 3.69233 12.166 3.90983 12.0535C3.69983 11.941 3.57233 11.701 3.60983 11.4535C3.65483 11.206 3.84983 11.0185 4.08983 10.981C3.92483 10.8085 3.88733 10.5385 4.00733 10.3135C4.12733 10.0885 4.37483 9.97598 4.61483 10.021C4.51733 9.80348 4.56233 9.53348 4.74983 9.36098C4.93733 9.18848 5.20733 9.16598 5.41733 9.27848C5.39483 9.03848 5.52983 8.79848 5.76233 8.70098C5.99483 8.59598 6.25733 8.66348 6.42233 8.84348C6.48233 8.61098 6.68483 8.43098 6.93233 8.40848C7.18733 8.38598 7.41233 8.53598 7.50983 8.75348C7.63733 8.55098 7.89233 8.44598 8.13233 8.50598C8.37983 8.56598 8.54483 8.78348 8.56733 9.02348C8.75483 8.87348 9.02483 8.85848 9.24233 8.99348C9.45233 9.13598 9.54233 9.39098 9.48233 9.62348C9.70733 9.54098 9.96983 9.61598 10.1273 9.81098C10.2848 10.0135 10.2848 10.2835 10.1498 10.486C10.3898 10.486 10.6148 10.636 10.6973 10.876C10.7798 11.116 10.6973 11.371 10.5023 11.521C10.7273 11.596 10.8923 11.8135 10.8923 12.0685V12.076C10.8923 12.331 10.7273 12.5485 10.5023 12.6235C10.6898 12.7735 10.7798 13.0285 10.6973 13.2685C10.6148 13.5085 10.3898 13.6585 10.1498 13.6585C10.2848 13.861 10.2773 14.131 10.1198 14.3335C9.96233 14.536 9.69983 14.6035 9.47483 14.521C9.53483 14.7535 9.44483 15.0085 9.23483 15.151C9.02483 15.2935 8.75483 15.271 8.55983 15.121C8.54483 15.361 8.37233 15.571 8.12483 15.6385C7.87733 15.6985 7.62983 15.5935 7.50233 15.391C7.41233 15.601 7.20983 15.736 6.97733 15.736C6.96233 15.6985 6.94733 15.6985 6.93233 15.6985Z" fill="#21BF4A"/>
<path d="M6.94 8.69094C7.0375 8.64594 7.135 8.63094 7.225 8.63094C7.345 8.63094 7.45 8.66844 7.5175 8.74344C7.4275 8.53344 7.225 8.39844 6.9925 8.39844C6.9775 8.39844 6.9625 8.39844 6.9475 8.39844C6.82 8.40594 6.7075 8.45844 6.6175 8.53344C6.5275 8.60844 6.46 8.71344 6.4375 8.83344C6.325 8.71344 6.175 8.64594 6.01 8.64594C5.935 8.64594 5.8525 8.66094 5.7775 8.69094C5.56 8.78844 5.4325 8.99844 5.4325 9.21594C5.4325 9.23094 5.4325 9.25344 5.4325 9.26844C5.35 9.22344 5.2525 9.19344 5.155 9.19344C5.0125 9.19344 4.8775 9.24594 4.765 9.34344C4.645 9.45594 4.5775 9.61344 4.5775 9.77094C4.5775 9.85344 4.5925 9.92844 4.63 10.0034C4.6 9.99594 4.5625 9.99594 4.5325 9.99594C4.33 9.99594 4.1275 10.1084 4.0225 10.2959C3.9775 10.3859 3.955 10.4759 3.955 10.5734C3.955 10.7159 4.0075 10.8584 4.1125 10.9634C3.9925 10.9859 3.8875 11.0384 3.7975 11.1209C3.715 11.2034 3.655 11.3159 3.6325 11.4359C3.625 11.4659 3.625 11.5034 3.625 11.5334C3.625 11.7509 3.745 11.9459 3.9325 12.0434C3.745 12.1409 3.625 12.3359 3.625 12.5534C3.625 12.5834 3.625 12.6134 3.6325 12.6509C3.655 12.7784 3.715 12.8834 3.7975 12.9659C3.88 13.0484 3.9925 13.1009 4.1125 13.1234C4 13.2284 3.9475 13.3709 3.9475 13.5134C3.9475 13.6034 3.97 13.7009 4.015 13.7834C4.12 13.9784 4.315 14.0834 4.525 14.0834C4.555 14.0834 4.5925 14.0834 4.6225 14.0759C4.5925 14.1509 4.57 14.2334 4.57 14.3084C4.57 14.4659 4.63 14.6159 4.7575 14.7284C4.87 14.8334 5.005 14.8784 5.1475 14.8784C5.245 14.8784 5.335 14.8559 5.425 14.8109C5.425 14.8259 5.425 14.8484 5.425 14.8634C5.425 15.0809 5.5525 15.2984 5.77 15.3884C5.845 15.4184 5.9275 15.4409 6.0025 15.4409C6.16 15.4409 6.3175 15.3734 6.43 15.2534C6.49 15.4859 6.685 15.6659 6.94 15.6884C6.955 15.6884 6.97 15.6884 6.985 15.6884C7.105 15.6884 7.21 15.6509 7.3 15.5909C7.33 15.5684 7.36 15.5459 7.39 15.5159C7.345 15.5309 7.3 15.5309 7.2475 15.5309C7.1425 15.5309 7.0375 15.5009 6.9325 15.4559C6.715 15.3584 6.5875 15.0884 6.5875 14.8559C6.5875 14.8409 6.5875 14.8184 6.5875 14.8034C6.505 14.8484 6.4075 14.8709 6.31 14.8709C6.1675 14.8709 6.0325 14.8184 5.92 14.7209C5.8 14.6084 5.7325 14.4509 5.7325 14.3009C5.7325 14.2184 5.7475 14.1434 5.785 14.0684C5.755 14.0759 5.7175 14.0759 5.6875 14.0759C5.485 14.0759 5.2825 13.9634 5.1775 13.7759C5.14 13.7009 5.1175 13.6109 5.1175 13.5134C5.1175 13.3709 5.17 13.2284 5.275 13.1159C5.155 13.0934 5.05 13.0409 4.96 12.9584C4.8775 12.8759 4.8175 12.7634 4.795 12.6434C4.7875 12.6134 4.7875 12.5834 4.7875 12.5459C4.7875 12.3284 4.9075 12.1334 5.095 12.0359C4.9075 11.9384 4.7875 11.7434 4.7875 11.5259C4.7875 11.4959 4.7875 11.4659 4.795 11.4284C4.8175 11.3009 4.8775 11.1959 4.96 11.1134C5.0425 11.0309 5.155 10.9784 5.275 10.9559C5.1775 10.8509 5.1175 10.7084 5.1175 10.5659C5.1175 10.4759 5.14 10.3784 5.185 10.2884C5.29 10.0934 5.485 9.98844 5.6875 9.98844C5.7175 9.98844 5.755 9.98844 5.785 9.99594C5.755 9.92094 5.7325 9.83844 5.7325 9.76344C5.7325 9.60594 5.7925 9.45594 5.92 9.33594C6.0325 9.23094 6.1675 9.18594 6.31 9.18594C6.4075 9.18594 6.505 9.20844 6.5875 9.26094C6.5875 9.24594 6.5875 9.22344 6.5875 9.20844C6.595 8.99844 6.7225 8.78094 6.94 8.69094Z" fill="#17AA3D"/>
<path d="M9.025 16.9184H5.5C6.205 16.9184 6.46 16.3184 6.46 16.1159V14.4359C6.52 14.4734 6.5875 14.4959 6.6625 14.5109C6.6775 14.5109 6.6925 14.5184 6.7075 14.5184C6.7225 14.5184 6.7375 14.5184 6.7525 14.5184C6.9625 14.5184 7.1575 14.3984 7.2625 14.2109C7.36 14.3984 7.555 14.5184 7.7725 14.5184C7.8025 14.5184 7.8325 14.5184 7.8625 14.5109C7.9375 14.4959 8.005 14.4734 8.0725 14.4359V16.1159C8.0725 16.3184 8.32 16.9184 9.025 16.9184Z" fill="#AB5816"/>
<path d="M6.7525 14.5161C6.8275 14.5161 6.9025 14.5011 6.97 14.4711V16.1136C6.97 16.3236 6.88 16.9161 6.625 16.9161H5.5C6.205 16.9161 6.46 16.3161 6.46 16.1136V14.4336C6.52 14.4711 6.5875 14.4936 6.6625 14.5086C6.6775 14.5086 6.6925 14.5161 6.7075 14.5161C6.7225 14.5161 6.7375 14.5161 6.7525 14.5161Z" fill="#8C3E09"/>
<path d="M9.64739 16.167C9.37739 16.1445 9.16739 15.9495 9.09989 15.702C8.92739 15.8895 8.64989 15.957 8.40239 15.852C8.15489 15.7395 8.01239 15.492 8.04239 15.237C7.81739 15.357 7.53239 15.3345 7.32989 15.147C7.13489 14.967 7.08239 14.682 7.18739 14.4495C6.93239 14.4945 6.66989 14.3745 6.54239 14.1345C6.41489 13.8945 6.45989 13.6095 6.63239 13.422C6.37739 13.3845 6.16739 13.182 6.12239 12.9195C6.07739 12.657 6.21239 12.402 6.43739 12.282C6.21239 12.162 6.07739 11.907 6.12239 11.637C6.16739 11.367 6.37739 11.172 6.63239 11.1345C6.45989 10.947 6.41489 10.662 6.54239 10.422C6.66989 10.182 6.93239 10.0695 7.18739 10.1145C7.08239 9.88198 7.13489 9.59698 7.32989 9.41698C7.53239 9.23698 7.81739 9.20698 8.04239 9.33448C8.01989 9.07948 8.16239 8.82448 8.40989 8.71948C8.65739 8.61448 8.93489 8.68198 9.10739 8.86948C9.16739 8.62198 9.38489 8.42698 9.65489 8.40448C9.92489 8.38198 10.1649 8.53948 10.2699 8.77198C10.4049 8.55448 10.6749 8.44198 10.9374 8.50948C11.1999 8.57698 11.3799 8.80198 11.3949 9.05698C11.5974 8.89948 11.8824 8.87698 12.1074 9.02698C12.3324 9.17698 12.4299 9.44698 12.3624 9.69448C12.6024 9.61198 12.8799 9.67948 13.0524 9.89698C13.2174 10.107 13.2249 10.3995 13.0824 10.6095C13.3374 10.6095 13.5774 10.767 13.6674 11.022C13.7574 11.277 13.6674 11.5545 13.4574 11.7045C13.6974 11.787 13.8774 12.012 13.8774 12.282V12.2895C13.8774 12.5595 13.7049 12.792 13.4574 12.867C13.6599 13.0245 13.7499 13.2945 13.6599 13.5495C13.5699 13.8045 13.3299 13.962 13.0749 13.962C13.2174 14.172 13.2099 14.4645 13.0449 14.6745C12.8799 14.8845 12.6024 14.9595 12.3549 14.877C12.4224 15.1245 12.3249 15.3945 12.0999 15.5445C11.8749 15.6945 11.5824 15.672 11.3874 15.5145C11.3649 15.7695 11.1849 15.9945 10.9224 16.062C10.6599 16.1295 10.3974 16.017 10.2549 15.7995C10.1574 16.017 9.93989 16.167 9.69239 16.167C9.67739 16.167 9.66239 16.167 9.64739 16.167Z" fill="#21BF4A"/>
<path d="M9.64773 8.70563C9.75273 8.66063 9.85773 8.63812 9.94773 8.63812C10.0752 8.63812 10.1877 8.68312 10.2627 8.75812C10.1652 8.54062 9.94773 8.39062 9.70023 8.39062C9.68523 8.39062 9.67023 8.39062 9.64773 8.39062C9.51273 8.39812 9.39273 8.45812 9.29523 8.54062C9.19773 8.62312 9.13023 8.73562 9.10023 8.85562C8.98023 8.72812 8.81523 8.65313 8.64273 8.65313C8.56023 8.65313 8.47773 8.66813 8.39523 8.70563C8.16273 8.80313 8.02773 9.02813 8.02773 9.26813C8.02773 9.28313 8.02773 9.30562 8.02773 9.32062C7.93773 9.26812 7.83273 9.24563 7.73523 9.24563C7.58523 9.24563 7.43523 9.29812 7.32273 9.41062C7.18773 9.53062 7.12773 9.69563 7.12773 9.86063C7.12773 9.94313 7.14273 10.0331 7.18023 10.1081C7.14273 10.1006 7.11273 10.1006 7.07523 10.1006C6.85773 10.1006 6.64773 10.2131 6.53523 10.4231C6.48273 10.5131 6.46023 10.6181 6.46023 10.7156C6.46023 10.8731 6.52023 11.0231 6.62523 11.1356C6.49773 11.1581 6.38523 11.2181 6.29523 11.3006C6.20523 11.3906 6.13773 11.5031 6.12273 11.6381C6.11523 11.6756 6.11523 11.7056 6.11523 11.7431C6.11523 11.9681 6.24273 12.1781 6.43773 12.2831C6.24273 12.3881 6.11523 12.5981 6.11523 12.8231C6.11523 12.8531 6.11523 12.8906 6.12273 12.9206C6.14523 13.0556 6.20523 13.1681 6.29523 13.2581C6.38523 13.3481 6.49773 13.4081 6.62523 13.4231C6.52023 13.5356 6.46023 13.6856 6.46023 13.8431C6.46023 13.9406 6.48273 14.0381 6.53523 14.1356C6.64773 14.3381 6.85773 14.4581 7.07523 14.4581C7.11273 14.4581 7.14273 14.4581 7.18023 14.4506C7.14273 14.5331 7.12773 14.6156 7.12773 14.6981C7.12773 14.8631 7.19523 15.0281 7.32273 15.1481C7.44273 15.2531 7.59273 15.3131 7.73523 15.3131C7.84023 15.3131 7.93773 15.2906 8.02773 15.2381C8.02773 15.2606 8.02773 15.2756 8.02773 15.2906C8.02773 15.5231 8.16273 15.7481 8.39523 15.8531C8.47773 15.8906 8.56023 15.9056 8.64273 15.9056C8.81523 15.9056 8.98023 15.8306 9.09273 15.7031C9.15273 15.9506 9.37023 16.1456 9.64023 16.1681C9.65523 16.1681 9.67773 16.1681 9.69273 16.1681C9.82023 16.1681 9.93273 16.1306 10.0302 16.0631C10.0677 16.0406 10.0977 16.0106 10.1277 15.9881C10.0827 16.0031 10.0302 16.0106 9.97773 16.0106C9.86523 16.0106 9.75273 15.9806 9.64023 15.9356C9.40773 15.8381 9.27273 15.5381 9.27273 15.2981C9.27273 15.2756 9.27273 15.2606 9.27273 15.2381C9.18273 15.2906 9.07773 15.3131 8.98023 15.3131C8.83023 15.3131 8.68023 15.2606 8.56773 15.1481C8.44023 15.0281 8.37273 14.8631 8.37273 14.6981C8.37273 14.6156 8.38773 14.5256 8.42523 14.4506C8.38773 14.4581 8.35773 14.4581 8.32023 14.4581C8.10273 14.4581 7.89273 14.3381 7.78023 14.1356C7.72773 14.0456 7.70523 13.9406 7.70523 13.8431C7.70523 13.6856 7.76523 13.5356 7.87023 13.4231C7.74273 13.4006 7.63023 13.3406 7.54023 13.2581C7.45023 13.1681 7.39023 13.0556 7.36773 12.9206C7.36023 12.8906 7.36023 12.8531 7.36023 12.8231C7.36023 12.5981 7.48773 12.3881 7.68273 12.2831C7.48773 12.1781 7.36023 11.9681 7.36023 11.7431C7.36023 11.7131 7.36023 11.6756 7.36773 11.6381C7.39023 11.5031 7.45023 11.3906 7.54023 11.3006C7.63023 11.2106 7.74273 11.1506 7.87023 11.1356C7.76523 11.0231 7.70523 10.8731 7.70523 10.7156C7.70523 10.6181 7.72773 10.5131 7.78023 10.4231C7.89273 10.2206 8.10273 10.1006 8.32023 10.1006C8.35773 10.1006 8.38773 10.1006 8.42523 10.1081C8.38773 10.0256 8.37273 9.94313 8.37273 9.86063C8.37273 9.69563 8.44023 9.53062 8.56773 9.41062C8.68773 9.30562 8.83023 9.24563 8.98023 9.24563C9.08523 9.24563 9.18273 9.26812 9.27273 9.32062C9.27273 9.30562 9.27273 9.28313 9.27273 9.26813C9.28023 9.03563 9.42273 8.81063 9.64773 8.70563Z" fill="#17AA3D"/>
<path d="M11.8752 17.4659H8.11768C8.86768 17.4659 9.13768 16.8284 9.13768 16.6109V14.8184C9.20518 14.8559 9.27268 14.8859 9.35518 14.9009C9.37018 14.9009 9.39268 14.9084 9.40768 14.9084C9.42268 14.9084 9.44518 14.9084 9.46018 14.9084C9.68518 14.9084 9.89518 14.7809 10.0002 14.5859C10.1052 14.7809 10.3152 14.9159 10.5402 14.9159C10.5702 14.9159 10.6077 14.9159 10.6377 14.9084C10.7202 14.8934 10.7952 14.8709 10.8552 14.8259V16.6109C10.8552 16.8284 11.1252 17.4659 11.8752 17.4659Z" fill="#AB5816"/>
<path d="M9.45268 14.9064C9.53518 14.9064 9.61018 14.8914 9.68518 14.8614V16.6089C9.68518 16.8264 9.58768 17.4639 9.31768 17.4639H8.11768C8.86768 17.4639 9.13768 16.8264 9.13768 16.6089V14.8164C9.20518 14.8539 9.27268 14.8839 9.35518 14.8989C9.37018 14.8989 9.39268 14.9064 9.40768 14.9064C9.42268 14.9064 9.43768 14.9064 9.45268 14.9064Z" fill="#8C3E09"/>
<path d="M33.25 18.7603C33.25 20.8228 32.83 22.7953 32.08 24.5878H4.42C3.67 22.7953 3.25 20.8228 3.25 18.7603C3.25 18.4678 3.2575 18.1753 3.2725 17.8828H33.22C33.2425 18.1753 33.25 18.4678 33.25 18.7603Z" fill="#0084A6"/>
<path d="M23.9122 32.0212H22.6897V31.7137C22.6897 30.8737 21.8722 30.5662 21.8647 30.5662C21.7072 30.5062 21.6247 30.3337 21.6847 30.1762C21.7447 30.0187 21.9172 29.9362 22.0747 29.9962C22.1197 30.0112 23.1097 30.3862 23.2747 31.4137H23.3197C23.4847 30.3862 24.4747 30.0112 24.5197 29.9962C24.6772 29.9362 24.8572 30.0187 24.9097 30.1762C24.9697 30.3337 24.8872 30.5062 24.7297 30.5662C24.6922 30.5812 23.9047 30.8887 23.9047 31.7137V32.0212H23.9122Z" fill="#17AA3D"/>
<path d="M23.3576 32.0187C23.3351 32.0187 23.3126 32.0187 23.2901 32.0112C23.1251 31.9737 23.0201 31.8087 23.0651 31.6437C23.0726 31.6287 23.3426 30.3687 22.5851 29.6187C22.4651 29.4987 22.4651 29.3037 22.5851 29.1837C22.7051 29.0638 22.9001 29.0638 23.0201 29.1837C24.0176 30.1812 23.6726 31.7187 23.6576 31.7862C23.6201 31.9212 23.4926 32.0187 23.3576 32.0187Z" fill="#17AA3D"/>
<path d="M14.1177 31.5837H12.8952V31.2762C12.8952 30.4362 12.0777 30.1287 12.0702 30.1287C11.9127 30.0687 11.8302 29.8962 11.8902 29.7387C11.9502 29.5812 12.1227 29.4987 12.2802 29.5587C12.3252 29.5737 13.3152 29.9487 13.4802 30.9762H13.5252C13.6902 29.9487 14.6802 29.5737 14.7252 29.5587C14.8827 29.4987 15.0627 29.5812 15.1152 29.7387C15.1752 29.8962 15.0927 30.0687 14.9352 30.1287C14.8977 30.1437 14.1102 30.4512 14.1102 31.2762V31.5837H14.1177Z" fill="#17AA3D"/>
<path d="M13.5627 31.5852C13.5402 31.5852 13.5177 31.5852 13.4952 31.5777C13.3302 31.5402 13.2252 31.3752 13.2702 31.2102C13.2777 31.1952 13.5477 29.9352 12.7902 29.1852C12.6702 29.0652 12.6702 28.8702 12.7902 28.7502C12.9102 28.6302 13.1052 28.6302 13.2252 28.7502C14.2227 29.7477 13.8777 31.2852 13.8627 31.3527C13.8252 31.4877 13.6977 31.5852 13.5627 31.5852Z" fill="#17AA3D"/>
<path d="M33.25 18.7603H3.25C3.25 18.4678 3.2575 18.1753 3.2725 17.8828H33.22C33.2425 18.1753 33.25 18.4678 33.25 18.7603Z" fill="#17AA3D"/>
<path d="M24.2724 21.6567C21.7599 21.6567 17.2149 22.7367 20.9199 23.1492C24.6324 23.5692 23.5524 24.5892 21.1599 24.5892H11.8899C18.7149 24.5892 15.5424 22.9167 12.0699 22.9167C10.3374 22.9167 9.13737 21.5967 15.9024 21.5967C22.6674 21.5967 20.7324 20.3967 18.7824 20.3967C14.8749 20.3967 14.9574 18.7617 18.9474 18.7617H22.9599C20.7549 18.9117 19.5399 20.0367 22.1199 20.0367C25.8024 20.0367 26.7849 21.6567 24.2724 21.6567Z" fill="#69B8D4"/>
<path d="M14.6574 20.5022C14.6574 20.3297 13.8624 20.1797 12.8724 20.1797C11.8824 20.1797 11.0874 20.3222 11.0874 20.5022C11.0874 20.6822 11.8824 20.8247 12.8724 20.8247C13.8624 20.8247 14.6574 20.6822 14.6574 20.5022Z" fill="#69B8D4"/>
<path d="M27.3176 22.4983C27.3176 22.3258 26.5226 22.1758 25.5326 22.1758C24.5501 22.1758 23.7476 22.3183 23.7476 22.4983C23.7476 22.6783 24.5426 22.8208 25.5326 22.8208C26.5226 22.8208 27.3176 22.6783 27.3176 22.4983Z" fill="#69B8D4"/>
</svg>
