<svg width="37" height="37" viewBox="0 0 37 37" fill="none" xmlns="http://www.w3.org/2000/svg">
<path fill-rule="evenodd" clip-rule="evenodd" d="M19.0579 16.0917C18.8179 16.0917 18.5854 15.9117 18.5854 15.6792V9.74672H17.6329C17.5129 9.74672 17.3329 9.68672 17.2804 9.50672C17.2204 9.38672 17.2204 9.20672 17.2804 9.09422L20.3629 3.81422C20.4229 3.69422 20.6029 3.57422 20.7154 3.57422C20.8954 3.57422 21.0154 3.63422 21.1279 3.81422L24.2104 9.09422C24.2704 9.21422 24.2704 9.39422 24.2104 9.56672C24.0904 9.68672 23.9704 9.80672 23.7979 9.80672H22.9054V14.6742C22.9054 14.9142 22.6654 15.0867 22.4329 15.0867C22.3729 15.0867 22.3129 15.0867 22.2529 15.0867L20.8279 16.4517H20.7754L19.3504 15.9792C19.2904 16.0317 19.1704 16.0917 19.0579 16.0917Z" fill="#F9B439"/>
<path fill-rule="evenodd" clip-rule="evenodd" d="M16.9802 32.17H14.7827C14.6027 32.17 14.4302 32.05 14.3702 31.87L13.7177 29.08C13.2452 28.96 12.7652 28.78 12.3527 28.4875L10.0952 29.9125C9.91519 30.0325 9.6827 29.9725 9.5627 29.8525L7.9577 28.3075C7.8377 28.1875 7.7777 27.955 7.8977 27.775L9.3827 25.345C9.1427 24.9325 8.9702 24.4525 8.8502 23.98L6.2402 23.3275C6.0602 23.3275 5.8877 23.1475 5.8877 22.915V20.7175C5.8877 20.5375 6.0677 20.365 6.2402 20.305L9.03019 19.6525C9.2102 19.12 9.38269 18.7 9.62269 18.3475L8.1977 16.03C8.0777 15.85 8.1377 15.6175 8.2577 15.4975L9.86269 13.8925C9.98269 13.7725 10.2152 13.7725 10.3352 13.8325L12.7652 15.3175C13.2377 15.0775 13.7177 14.965 14.1902 14.785L14.7827 12.175C14.8427 11.995 14.9627 11.875 15.1952 11.875H17.3927C17.6327 11.875 17.7452 11.995 17.8052 12.175L18.5177 14.965C18.9302 15.085 19.4102 15.3175 19.8227 15.5575L22.0802 14.1325C22.2602 14.0725 22.4927 14.0725 22.6127 14.1925L24.2177 15.7375C24.3377 15.9175 24.3977 16.09 24.2777 16.27L22.7927 18.7C23.0327 19.1725 23.2052 19.6525 23.3252 20.125L26.4677 20.8375C26.7077 20.8975 26.8802 21.1375 26.8202 21.37C26.7602 21.49 26.6402 21.67 26.4677 21.67V23.5075V23.5675H26.4077L19.8227 28.195C19.8827 28.375 19.8227 28.5475 19.6427 28.6075C19.1702 28.9075 18.6302 29.14 18.0377 29.26L17.4452 31.87C17.3927 32.05 17.2127 32.17 16.9802 32.17Z" fill="#99A4AC"/>
<path fill-rule="evenodd" clip-rule="evenodd" d="M29.7976 25.6464C29.5576 25.6464 29.3851 25.4664 29.3851 25.2339V24.9339L26.6551 22.9164C26.5951 22.9764 26.4751 23.0364 26.4151 23.0364C26.1751 23.0364 25.9426 22.7964 25.9426 22.5639V13.6014H24.9901C24.8701 13.6014 24.6901 13.4814 24.6376 13.3614C24.5776 13.2414 24.5176 13.1214 24.6376 12.9489L27.7201 6.24391C27.7801 6.12391 27.9001 6.00391 28.0726 6.00391C28.2451 6.00391 28.4251 6.12391 28.4851 6.24391L31.5676 12.9489C31.6276 13.0689 31.6276 13.2489 31.5676 13.3614C31.4476 13.4814 31.3276 13.6014 31.1551 13.6014H30.2626V25.2339C30.2101 25.4664 30.0301 25.6464 29.7976 25.6464Z" fill="#DF5A49"/>
<path fill-rule="evenodd" clip-rule="evenodd" d="M29.7979 25.6481C29.5579 25.6481 29.3854 25.4681 29.3854 25.2356V24.9356L26.6554 22.9181C26.5954 22.9781 26.4754 23.0381 26.4154 23.0381C26.1754 23.0381 25.9429 22.7981 25.9429 22.5656V21.1406C27.7204 21.3206 29.2654 22.2056 30.2779 23.5106V25.2281C30.2104 25.4681 30.0304 25.6481 29.7979 25.6481Z" fill="#B5493B"/>
<path fill-rule="evenodd" clip-rule="evenodd" d="M16.0879 27.6022C13.0579 27.6022 10.6279 25.1722 10.6279 22.2022C10.6279 19.1722 13.0579 16.7422 16.0879 16.7422C19.1179 16.7422 21.5479 19.1722 21.5479 22.2022C21.5479 25.2322 19.1104 27.6022 16.0879 27.6022Z" fill="white"/>
<path fill-rule="evenodd" clip-rule="evenodd" d="M16.0876 25.5278C14.2501 25.5278 12.7651 24.0428 12.7651 22.2053C12.7651 20.3678 14.2501 18.8828 16.0876 18.8828C17.9251 18.8828 19.4101 20.3678 19.4101 22.2053C19.4101 24.0428 17.9251 25.5278 16.0876 25.5278Z" fill="#99A4AC"/>
<path fill-rule="evenodd" clip-rule="evenodd" d="M24.99 33.9498C21.6675 33.9498 18.9375 31.2798 18.9375 27.9573C18.9375 24.6348 21.6675 21.9648 24.99 21.9648C28.2525 21.9648 30.9225 24.6348 30.9225 27.9573C30.9225 31.2798 28.2525 33.9498 24.99 33.9498Z" fill="#F9B439"/>
<path fill-rule="evenodd" clip-rule="evenodd" d="M24.9905 32.2911C22.5605 32.2911 20.603 30.3336 20.603 27.9561C20.603 25.5786 22.5605 23.6211 24.9905 23.6211C27.3605 23.6211 29.2655 25.5786 29.2655 27.9561C29.2655 30.3336 27.3605 32.2911 24.9905 32.2911Z" fill="white"/>
<path fill-rule="evenodd" clip-rule="evenodd" d="M26.1754 29.4413C26.0554 29.4413 25.9354 29.3813 25.8754 29.3213L24.7504 28.1963C24.6904 28.1363 24.6304 28.0162 24.6304 27.8962V25.8187C24.6304 25.5787 24.8104 25.4062 25.1029 25.4062C25.3429 25.4062 25.5154 25.5862 25.5154 25.8187V27.7162L26.5279 28.6687C26.7079 28.8487 26.7079 29.1413 26.5279 29.3213C26.4154 29.3813 26.2954 29.4413 26.1754 29.4413Z" fill="#99A4AC"/>
</svg>
