<svg width="37" height="37" viewBox="0 0 37 37" fill="none" xmlns="http://www.w3.org/2000/svg">
<path d="M5.06415 32.2652H5.82297C6.1199 32.2652 6.35909 32.0199 6.35909 31.7154V29.2452C6.35909 28.9406 6.1199 28.6953 5.82297 28.6953H5.06415C4.76722 28.6953 4.52803 28.9406 4.52803 29.2452V31.7154C4.51978 32.0199 4.76722 32.2652 5.06415 32.2652Z" fill="#783C28"/>
<path d="M30.0972 29.2374V31.7075C30.0972 32.0121 30.3364 32.2574 30.6333 32.2574H31.3921C31.689 32.2574 31.9282 32.0121 31.9282 31.7075V29.2374C31.9282 28.9328 31.689 28.6875 31.3921 28.6875H30.6333C30.3446 28.6875 30.0972 28.9328 30.0972 29.2374Z" fill="#783C28"/>
<path d="M33.8416 25.8516H2.80432C2.2682 25.8516 1.83105 26.2999 1.83105 26.8498V28.5501C1.83105 29.1 2.2682 29.5484 2.80432 29.5484H33.8499C34.386 29.5484 34.8232 29.1 34.8232 28.5501V26.8498C34.8149 26.2999 34.3778 25.8516 33.8416 25.8516Z" fill="#C8D264"/>
<path d="M32.2417 25.8945H15.7787C15.0528 25.8945 14.459 25.2855 14.459 24.541C14.459 23.7966 15.0528 23.1875 15.7787 23.1875H32.2417C32.9676 23.1875 33.5614 23.7966 33.5614 24.541C33.5614 25.2855 32.9676 25.8945 32.2417 25.8945Z" fill="#414B82"/>
<path d="M29.4953 26.7695C29.2808 26.7695 29.0664 26.7187 28.8602 26.6172L21.6432 23.0219L16.4716 25.619C15.7458 25.9828 14.8798 25.6782 14.5251 24.9338C14.1704 24.1893 14.4674 23.3011 15.1932 22.9373L20.9998 20.0273C21.404 19.8242 21.8741 19.8242 22.2783 20.0273L30.1304 23.944C30.8562 24.3078 31.1531 25.196 30.8067 25.9405C30.551 26.4565 30.0314 26.7695 29.4953 26.7695Z" fill="#5F6E9B"/>
<path d="M10.0222 18.6764C8.47152 18.3126 6.93739 19.3109 6.58273 20.8928C6.22806 22.4832 7.20133 24.0566 8.74371 24.4204L14.707 25.7654C16.2329 26.1207 17.7423 25.1394 18.0887 23.5829L18.5011 21.2735L10.0222 18.6764Z" fill="#64AFFF"/>
<path d="M4.24816 21.5601C5.58741 21.5601 6.67308 20.4466 6.67308 19.073C6.67308 17.6994 5.58741 16.5859 4.24816 16.5859C2.90892 16.5859 1.82324 17.6994 1.82324 19.073C1.82324 20.4466 2.90892 21.5601 4.24816 21.5601Z" fill="#FFB69E"/>
<path d="M10.393 22.2389L8.70216 20.9446C8.19903 20.5639 7.4897 20.6654 7.11853 21.1815C6.74737 21.6975 6.84635 22.425 7.34948 22.8057L9.13105 24.1677L10.1456 23.4232L10.393 22.2389Z" fill="#4699F2"/>
<path d="M15.103 20.7366C14.6246 20.3221 13.9153 20.3813 13.5111 20.872L11.6141 23.1729L10.3933 22.2339L9.13965 24.1712L11.1192 25.6854C11.5976 26.0492 12.2739 25.973 12.6616 25.5078L15.2432 22.3778C15.6391 21.8871 15.5814 21.1511 15.103 20.7366Z" fill="#FFB69E"/>
<path d="M4.02552 21.5547H2.45014C2.11198 21.5547 1.83154 21.8339 1.83154 22.1891V25.2853C1.83154 25.6322 2.10373 25.9198 2.45014 25.9198H7.05254C7.39071 25.9198 7.67114 25.6406 7.67114 25.2853C7.6629 23.2297 6.03804 21.5547 4.02552 21.5547Z" fill="#82BE50"/>
<path d="M11.3584 14.0307C11.1439 14.0307 10.9707 13.853 10.9707 13.6331V10.4269C10.9707 10.2577 11.0779 10.1055 11.2346 10.0547L14.105 9.02266C14.2204 8.98036 14.3524 8.99728 14.4596 9.07342C14.5586 9.14955 14.6246 9.26798 14.6246 9.39488V12.7956C14.6246 13.0155 14.4514 13.1932 14.2369 13.1932C14.0225 13.1932 13.8493 13.0155 13.8493 12.7956V9.96166L11.7543 10.7146V13.6415C11.746 13.853 11.5728 14.0307 11.3584 14.0307Z" fill="#6C9BAA"/>
<path d="M18.1464 9.83706C17.932 9.83706 17.7588 9.65942 17.7588 9.43947V6.23332C17.7588 6.06413 17.866 5.91186 18.0227 5.8611L19.6228 5.28586C19.829 5.20972 20.0435 5.3197 20.1177 5.53118C20.192 5.74267 20.0847 5.96262 19.8785 6.03875L18.5341 6.52094V9.44793C18.5341 9.65942 18.3609 9.83706 18.1464 9.83706Z" fill="#6C9BAA"/>
<path d="M10.8708 14.2026C11.3582 14.2026 11.7534 13.964 11.7534 13.6697C11.7534 13.3753 11.3582 13.1367 10.8708 13.1367C10.3834 13.1367 9.98828 13.3753 9.98828 13.6697C9.98828 13.964 10.3834 14.2026 10.8708 14.2026Z" fill="#A5C8CD"/>
<path d="M13.7326 13.3628C14.22 13.3628 14.6152 13.1242 14.6152 12.8298C14.6152 12.5355 14.22 12.2969 13.7326 12.2969C13.2452 12.2969 12.8501 12.5355 12.8501 12.8298C12.8501 13.1242 13.2452 13.3628 13.7326 13.3628Z" fill="#A5C8CD"/>
<path d="M17.6589 10.019C18.1463 10.019 18.5414 9.78041 18.5414 9.48607C18.5414 9.19173 18.1463 8.95312 17.6589 8.95312C17.1715 8.95312 16.7764 9.19173 16.7764 9.48607C16.7764 9.78041 17.1715 10.019 17.6589 10.019Z" fill="#A5C8CD"/>
</svg>
