<svg width="37" height="37" viewBox="0 0 37 37" fill="none" xmlns="http://www.w3.org/2000/svg">
<path d="M27.915 7.17C24.885 5.5275 21.795 4.6875 18.75 4.6875C15.705 4.6875 12.615 5.52 9.58498 7.17L8.72998 7.635L11.535 11.745L12.2025 11.46C14.385 10.5225 16.59 10.05 18.7575 10.05C20.925 10.05 23.13 10.5225 25.305 11.46L25.9725 11.745L28.7775 7.635L27.915 7.17Z" fill="#FF9100"/>
<path d="M27.915 7.17C24.885 5.5275 21.8025 4.6875 18.75 4.6875V10.05C20.9175 10.05 23.1225 10.5225 25.2975 11.46L25.965 11.745L28.77 7.635L27.915 7.17Z" fill="#FF7D00"/>
<path d="M10.3423 15.3203H27.1498V27.4178H10.3423V15.3203Z" fill="#FFED94"/>
<path d="M18.75 15.3203H27.15V27.4178H18.75V15.3203Z" fill="#FFDA53"/>
<path d="M6.70459 10.7539H12.1121V27.4189H6.70459V10.7539Z" fill="#FF4E0A"/>
<path d="M25.3872 10.7539H30.7947V27.4189H25.3872V10.7539Z" fill="#FF4E0A"/>
<path d="M25.3872 10.7539H30.7947V27.4189H25.3872V10.7539Z" fill="#FF0019"/>
<path d="M9.41244 5.50391L4.62744 12.5239H14.1974L9.41244 5.50391Z" fill="#FF0019"/>
<path d="M28.0872 5.50391L23.3022 12.5239H32.8722L28.0872 5.50391Z" fill="#FF0019"/>
<path d="M28.0872 5.50391L23.3022 12.5239H32.8722L28.0872 5.50391Z" fill="#CC0014"/>
<path d="M21.9148 15.3203H15.5773L13.4473 27.4178H24.0448L21.9148 15.3203Z" fill="#FF9100"/>
<path d="M21.915 15.3203H18.75V27.4178H24.045L21.915 15.3203Z" fill="#FF7D00"/>
<path d="M30.2398 25.6562H7.2598C5.2798 25.6562 3.6748 27.2612 3.6748 29.2412C3.6748 31.2212 5.2798 32.8262 7.2598 32.8262H30.2473C32.2273 32.8262 33.8323 31.2212 33.8323 29.2412C33.8248 27.2612 32.2198 25.6562 30.2398 25.6562Z" fill="#FFDA53"/>
<path d="M30.24 25.6562H18.75V32.8262H30.24C32.22 32.8262 33.825 31.2212 33.825 29.2412C33.825 27.2612 32.22 25.6562 30.24 25.6562Z" fill="#FFCD00"/>
</svg>
