<svg width="32" height="32" viewBox="0 0 32 32" fill="none" xmlns="http://www.w3.org/2000/svg">
<g clip-path="url(#clip0_12091_360535)">
<path d="M21.5996 15.0996H10.7999C9.80586 15.0996 9 15.9055 9 16.8996V23.1994C9 24.1935 9.80586 24.9994 10.7999 24.9994H21.5996C22.5937 24.9994 23.3996 24.1935 23.3996 23.1994V16.8996C23.3996 15.9055 22.5937 15.0996 21.5996 15.0996Z" stroke="white" stroke-width="1.58823" stroke-linecap="round" stroke-linejoin="round"/>
<path d="M11.6997 15.0998V11.4999C11.6997 10.3065 12.1738 9.16189 13.0177 8.31799C13.8616 7.4741 15.0061 7 16.1996 7C17.393 7 18.5376 7.4741 19.3815 8.31799C19.7692 8.70569 20.0788 9.15685 20.3003 9.64706" stroke="white" stroke-width="1.58823" stroke-linecap="round" stroke-linejoin="round"/>
<ellipse cx="16.2001" cy="19.1605" rx="1.34996" ry="1.34997" fill="white"/>
<path fill-rule="evenodd" clip-rule="evenodd" d="M16.2 19.5898C16.5728 19.5898 16.875 19.892 16.875 20.2648L16.875 21.6148C16.875 21.9876 16.5728 22.2898 16.2 22.2898C15.8272 22.2898 15.525 21.9876 15.525 21.6148L15.525 20.2648C15.525 19.892 15.8272 19.5898 16.2 19.5898Z" fill="white"/>
</g>
<defs>
<clipPath id="clip0_12091_360535">
<rect width="32" height="32" rx="8" fill="white"/>
</clipPath>
</defs>
</svg>
