<svg width="24" height="24" viewBox="0 0 24 24" fill="none" xmlns="http://www.w3.org/2000/svg">
<path d="M21.4794 20.299C21.4082 20.0018 21.3392 19.7069 21.2706 19.4141C21.0185 18.3373 20.773 17.289 20.4522 16.2545L21.4794 20.299ZM21.4794 20.299H2.5169C2.58069 20.0244 2.64334 19.7516 2.70563 19.4805C2.93264 18.4923 3.15482 17.5251 3.40937 16.5619L21.4794 20.299ZM9.28 14.334C9.17612 14.0979 9.06388 13.9844 8.77015 14.0307L8.83428 14.4349C8.2842 14.5222 7.73311 14.6002 7.18598 14.6777C7.14115 14.684 7.09636 14.6904 7.05159 14.6967C6.45904 14.7806 5.87101 14.8649 5.28566 14.9613L8.83388 14.435C8.84957 14.4325 8.8621 14.4312 8.87185 14.4305M9.28 14.334L8.90514 14.4982C8.9052 14.4984 8.90526 14.4985 8.90532 14.4986M9.28 14.334L8.9054 14.4988C8.90537 14.4988 8.90535 14.4987 8.90532 14.4986M9.28 14.334L8.90532 14.4986M8.90532 14.4986C8.89148 14.4672 8.88042 14.4454 8.87185 14.4305M8.90532 14.4986C9.30934 15.4211 9.72289 16.3393 10.1353 17.2549C10.2321 17.4699 10.3289 17.6848 10.4255 17.8995C10.5018 18.0694 10.6087 18.2686 10.8254 18.4539L11.4122 18.9557L11.498 18.1883L11.4982 18.1871C11.5609 17.6265 11.6236 17.0658 11.6898 16.4709C11.9066 16.467 12.0989 16.4639 12.2921 16.4788C12.2931 16.4805 12.294 16.4822 12.2948 16.4838C12.3596 16.8875 12.4052 17.2918 12.4571 17.7517C12.4761 17.9198 12.4959 18.0954 12.5177 18.281L12.6733 19.6004L13.2871 18.4222C13.321 18.3573 13.3525 18.298 13.3819 18.2429C13.4454 18.1235 13.4986 18.0236 13.5426 17.9269L13.5431 17.9257C13.6582 17.6709 13.7737 17.4159 13.8894 17.1606C14.2921 16.2717 14.6961 15.3799 15.0869 14.4824L15.087 14.4821C15.097 14.4591 15.1054 14.4423 15.112 14.4303C15.1241 14.4311 15.1403 14.4328 15.1612 14.4361L15.1621 14.4363C15.7824 14.5328 16.4187 14.6243 17.0522 14.7154C17.5976 14.7938 18.141 14.872 18.6701 14.9528C19.5786 15.0917 20.2237 15.5194 20.4521 16.2543L8.90532 14.4986ZM8.87185 14.4305C8.89046 14.4291 8.89894 14.4302 8.89992 14.4303C8.90006 14.4303 8.89605 14.4297 8.88934 14.4272C8.88246 14.4246 8.87522 14.421 8.86849 14.4165C8.86005 14.4108 8.85607 14.4063 8.85607 14.4063C8.85607 14.4063 8.8577 14.4082 8.86085 14.4127C8.86391 14.4172 8.86757 14.423 8.87185 14.4305ZM4.06422 15.4819C4.37084 15.2232 4.77738 15.0451 5.28561 14.9613L3.40939 16.5618C3.53373 16.0917 3.76001 15.7386 4.06422 15.4819Z" fill="#6C7BAD" stroke="#6C7BAD" stroke-width="0.818484"/>
<path d="M8.01752 8.25654V8.25591V8.25507C8.02092 6.15093 9.83544 4.38632 12.0135 4.40947C14.199 4.43271 15.9843 6.19405 15.9811 8.2599C15.9779 10.3546 14.1646 12.1135 11.9706 12.0977C9.773 12.0819 8.01431 10.3477 8.01752 8.25654Z" fill="#6C7BAD" stroke="#6C7BAD" stroke-width="0.818484"/>
<path d="M11.8093 14.0485C11.7793 14.0516 11.7502 14.0546 11.7218 14.0575C11.539 14.0762 11.3859 14.0919 11.2228 14.134L11.8093 14.0485ZM11.8093 14.0485L11.8202 14.059H11.9861C12.0289 14.059 12.0646 14.0585 12.0969 14.0581C12.1505 14.0574 12.1947 14.0568 12.2465 14.0587L11.8093 14.0485ZM12.1303 15.0433L12.1307 15.0433C12.2822 15.0384 12.4842 14.944 12.6589 14.7593C12.8331 14.5752 12.9205 14.3641 12.919 14.2041C12.913 14.1983 12.8988 14.1866 12.8699 14.1717C12.771 14.1207 12.5765 14.0712 12.2465 14.0587L12.1303 15.0433ZM12.1303 15.0433C11.7356 15.0563 11.5388 15.0028 11.4203 14.925M12.1303 15.0433L11.4203 14.925M12.9203 14.2038C12.9193 14.2016 12.919 14.2 12.9189 14.2001C12.9189 14.2001 12.919 14.2012 12.919 14.204L12.9204 14.204L12.9203 14.2038ZM12.9203 14.2038L13.3282 14.1997L12.9203 14.2038ZM11.4203 14.925C11.3088 14.8517 11.1991 14.712 11.092 14.3798M11.4203 14.925L11.092 14.3798M11.092 14.3798L10.7025 14.5053M11.092 14.3798L10.7025 14.5053M10.7025 14.5053L11.0922 14.3803C11.0637 14.2913 11.0548 14.2354 11.0535 14.2031M10.7025 14.5053L11.0535 14.2031M11.0535 14.2031C11.0535 14.2009 11.0534 14.1989 11.0534 14.1971M11.0535 14.2031L11.0534 14.1971M11.0534 14.1971C11.054 14.1967 11.0546 14.1964 11.0552 14.196C11.0804 14.1806 11.1308 14.1578 11.2227 14.134L11.0534 14.1971Z" fill="#6C7BAD" stroke="#6C7BAD" stroke-width="0.818484"/>
</svg>
