<svg width="24" height="24" viewBox="0 0 24 24" fill="none" xmlns="http://www.w3.org/2000/svg">
<path d="M11 12C13.7614 12 16 9.76142 16 7C16 4.23858 13.7614 2 11 2C8.23858 2 6 4.23858 6 7C6 9.76142 8.23858 12 11 12Z" fill="white"/>
<path d="M12.71 20.89C11.69 19.87 11.1 18.45 11.1 17C11.1 15.92 11.42 14.89 12 14H7C4.24 14 2 16.24 2 19V20C2 21.1 2.9 22 4 22H14.35C13.75 21.73 13.18 21.36 12.71 20.89Z" fill="white"/>
<path fill-rule="evenodd" clip-rule="evenodd" d="M18 12C19.33 12 20.6 12.53 21.54 13.46C22.48 14.4 23 15.67 23 17C23 18.33 22.47 19.6 21.54 20.54C20.6 21.48 19.33 22 18 22C16.67 22 15.4 21.47 14.46 20.54C13.52 19.6 13 18.33 13 17C13 15.67 13.53 14.4 14.47 13.47C15.41 12.53 16.68 12.01 18 12ZM21.8 17C21.8 16.2 21.55 15.42 21.08 14.77L15.78 20.07C16.54 20.62 17.48 20.87 18.41 20.77C19.34 20.67 20.21 20.23 20.83 19.53C21.46 18.83 21.8 17.93 21.8 16.99V17ZM14.92 19.23L20.22 13.93C19.24 13.22 17.97 13.02 16.82 13.39C15.66 13.77 14.76 14.67 14.38 15.83C14 16.99 14.2 18.25 14.92 19.23Z" fill="#FF0000"/>
</svg>
