<svg width="13" height="14" viewBox="0 0 13 14" fill="none" xmlns="http://www.w3.org/2000/svg">
<path d="M12.5224 10.7019C11.8399 10.0923 11.0854 9.57357 10.2767 9.15811C9.60377 8.82571 9.3569 8.83291 8.88068 9.18571C8.48441 9.48031 8.22762 9.75451 7.77183 9.65131C6.92078 9.25422 6.16119 8.67634 5.54303 7.95571C4.84045 7.32098 4.27776 6.53936 3.89259 5.66311C3.79571 5.19031 4.06242 4.92991 4.34547 4.52311C4.68863 4.03351 4.69855 3.77971 4.37232 3.08791C3.97006 2.25501 3.46518 1.47883 2.87011 0.778506C2.38047 0.275106 2.27017 0.384306 2.00054 0.483906C1.72287 0.603703 1.45642 0.749307 1.2045 0.918906C0.792904 1.16068 0.460091 1.52226 0.24797 1.95811C0.0582981 2.37811 -0.160554 3.16411 0.957636 5.21191C1.78356 6.78105 2.82993 8.21647 4.06301 9.4719L4.06651 9.4755L4.07001 9.47911C5.2918 10.746 6.68789 11.8217 8.21362 12.6717C10.206 13.8225 10.9688 13.5963 11.3785 13.4013C11.8034 13.1853 12.1552 12.8429 12.3882 12.4185C12.5531 12.1595 12.6947 11.8856 12.8113 11.6001C12.9052 11.3181 13.0149 11.2053 12.5224 10.7019Z" fill="#1D9BF0"/>
</svg>
