<svg width="328" height="50" viewBox="0 0 328 50" fill="none" xmlns="http://www.w3.org/2000/svg">
<g clip-path="url(#clip0_1_121)">
<rect width="328" height="50" rx="10.0025" fill="#1C1E38"/>
<g opacity="0.4">
<path d="M247.766 162.319C229.502 166.408 213.263 166.079 187.651 158.353C168.245 150.305 154.024 135.501 154.175 112.428C154.325 89.3547 176.398 79.5583 174.273 56.1382C172.148 32.7181 198.01 -4.24488 229.251 -3.79021C260.492 -3.33554 308.331 -9.99866 350.7 49.9251C399.321 118.692 378.352 139.557 350.54 154.121C322.728 168.685 314.597 150.603 291.024 154.81C275.588 154.757 275.285 156.157 247.766 162.319Z" fill="#FFA234" fill-opacity="0.05"/>
<path opacity="0.2" d="M298.181 124.907C279.917 128.996 263.678 128.667 238.066 120.941C218.66 112.894 204.439 98.0892 204.59 75.016C204.74 51.9428 226.814 42.1464 224.688 18.7263C222.563 -4.69379 248.425 -41.6567 279.666 -41.2021C310.907 -40.7474 358.746 -47.4105 401.115 12.5132C449.736 81.2801 428.767 102.146 400.955 116.71C373.143 131.274 365.012 113.191 341.439 117.398C326.003 117.346 325.7 118.745 298.181 124.907Z" fill="#FFA234" fill-opacity="0.6"/>
<path opacity="0.2" d="M-8.92342 -19.4791C-2.63861 -28.5913 5.14542 -34.8424 21.415 -41.339C34.9569 -45.2372 49.8143 -43.9372 62.5243 -33.1099C75.2343 -22.2826 70.3272 -9.00438 84.2947 1.08725C98.2622 11.1789 106.629 38.6298 91.7524 50.7398C76.8757 62.8498 58.1715 84.8281 5.14541 73.5735C-55.706 60.6579 -57.4471 42.6495 -52.4946 24.883C-47.5422 7.11651 -33.7198 12.3483 -25.0143 1.08725C-17.7597 -4.97639 -18.3931 -5.74926 -8.92342 -19.4791Z" fill="#FFA234" fill-opacity="0.6"/>
</g>
</g>
<defs>
<clipPath id="clip0_1_121">
<rect width="328" height="50" rx="10.0025" fill="white"/>
</clipPath>
</defs>
</svg>
