<svg width="24" height="24" viewBox="0 0 24 24" fill="none" xmlns="http://www.w3.org/2000/svg">
<path d="M10.4624 6.48998L10.4486 6.4985L10.4519 6.48439C10.426 6.47832 10.3954 6.45637 10.3622 6.41719C10.3296 6.37858 10.2965 6.32587 10.2652 6.26322C10.2024 6.138 10.1475 5.97594 10.1148 5.8151C10.082 5.65385 10.0719 5.4963 10.0968 5.3793C10.1092 5.3209 10.1299 5.27438 10.1591 5.24231C10.1878 5.21086 10.2257 5.19202 10.2761 5.19026L10.3006 5.18941L10.2982 5.16504L10.2753 5.1673L10.2982 5.16504L10.2982 5.16501L10.2981 5.16484L10.2981 5.16413L10.2978 5.16121L10.2968 5.14953C10.2961 5.13922 10.295 5.12397 10.294 5.10437C10.292 5.06517 10.2901 5.00856 10.2907 4.93924C10.2919 4.80052 10.303 4.6112 10.3425 4.40854C10.4218 4.00235 10.6141 3.54813 11.0634 3.33461C11.467 3.15591 11.7298 3.07875 11.9201 3.04606C12.0719 3.02 12.1775 3.02209 12.2741 3.02401C12.2986 3.0245 12.3226 3.02497 12.3465 3.02497C12.3515 3.02497 12.3568 3.02497 12.3623 3.02496C12.6079 3.02461 13.2684 3.02368 13.8709 3.67149C14.0227 3.86155 14.1075 4.1368 14.1539 4.43105C14.2004 4.72511 14.2081 5.03512 14.2081 5.29189V5.33042L14.242 5.3121C14.2705 5.29668 14.2965 5.29295 14.3195 5.29753C14.3426 5.30214 14.3651 5.31564 14.3854 5.33881C14.4267 5.3857 14.4572 5.46985 14.4632 5.58296C14.4751 5.80809 14.3892 6.13758 14.1195 6.47669L14.1187 6.47604L14.1161 6.48255C13.9844 6.81636 13.7748 7.24962 13.4714 7.59521C13.1681 7.94055 12.7728 8.19643 12.2684 8.18124C11.4683 8.1506 10.8114 7.49402 10.4813 6.53846L10.5199 6.54749L10.4629 6.49051L10.4624 6.48998Z" fill="#6C7BAD" stroke="#6C7BAD" stroke-width="0.0459402"/>
<path d="M9.20854 8.99609C9.83511 8.88307 10.2634 8.80582 10.8459 8.33014C10.847 8.33151 10.8481 8.33293 10.8493 8.33441C10.8615 8.34986 10.8801 8.37155 10.9062 8.3972C10.9582 8.4485 11.0398 8.51554 11.1587 8.57992C11.3965 8.70874 11.7824 8.82622 12.3778 8.78716C12.7221 8.7792 13.0129 8.72835 13.2339 8.64549C13.4414 8.56772 13.5906 8.46056 13.6624 8.33125C13.6707 8.33729 13.679 8.34337 13.6874 8.34948C13.8456 8.4651 14.0195 8.59219 14.2519 8.70129C14.5074 8.82128 14.8331 8.91927 15.2871 8.95842C15.6714 9.01222 15.9457 9.16924 16.1263 9.40113C16.3034 9.62853 16.3921 9.93027 16.4031 10.2831H8.13195C8.13208 10.2764 8.1323 10.2683 8.13265 10.2589C8.13378 10.2284 8.1363 10.1845 8.14183 10.1313C8.1529 10.0248 8.17599 9.88144 8.22401 9.7335C8.32023 9.43705 8.51445 9.12745 8.90745 9.05171C9.01323 9.03132 9.11318 9.01329 9.20854 8.99609Z" fill="#6C7BAD" stroke="#6C7BAD" stroke-width="0.0459402"/>
<path d="M6.3874 10.9154L6.38455 10.8957C6.18432 9.51097 6.626 8.70707 6.94474 8.3234L6.95805 8.30739L6.97529 8.31906C7.16031 8.4443 7.38295 8.51697 7.62267 8.51697C8.26183 8.51697 8.77934 7.99895 8.77934 7.3603C8.77934 6.72166 8.26131 6.20363 7.62267 6.20363C6.98403 6.20363 6.466 6.72166 6.466 7.3603C6.466 7.55207 6.5129 7.73296 6.59589 7.89275L6.60317 7.90676L6.59269 7.91858C6.2012 8.36005 5.6383 9.29403 5.84603 10.8894L5.8494 10.9154H5.82325H5.55725C5.22765 10.9154 4.97714 11.2107 5.03005 11.5358L6.3874 10.9154ZM6.3874 10.9154H6.40729H18.9806C19.3103 10.9154 19.5613 11.2107 19.5078 11.5358L19.5078 11.5358L19.1646 13.6306C19.1222 13.8887 18.899 14.0782 18.6374 14.0782H16.3044H16.2843L16.2816 14.0981L15.3832 20.7401L15.3832 20.7401L15.3831 20.7412C15.3542 21.0673 15.0808 21.3174 14.7531 21.3174H9.78482C9.45711 21.3174 9.18371 21.0673 9.1548 20.7412L9.15482 20.7411L9.15468 20.7401L8.25628 14.0981L8.25359 14.0782H8.23352H5.90052C5.63894 14.0782 5.41566 13.8887 5.37332 13.6307C5.37332 13.6307 5.37332 13.6307 5.37332 13.6306L5.03006 11.5358L6.3874 10.9154Z" fill="#6C7BAD" stroke="#6C7BAD" stroke-width="0.0459402"/>
<path d="M18.3327 4.10568C18.6133 4.31031 18.8176 4.62049 18.9444 5.03943L17.9353 5.22167C17.897 5.01831 17.8159 4.86122 17.6892 4.75403C17.5586 4.64309 17.3895 4.58826 17.1844 4.58826C16.9115 4.58826 16.6919 4.68263 16.5283 4.87276C16.3641 5.06362 16.2841 5.37861 16.2841 5.81295C16.2841 6.29467 16.365 6.64112 16.5316 6.84571C16.6977 7.04962 16.9215 7.15171 17.1997 7.15171C17.4077 7.15171 17.5801 7.09244 17.7149 6.97242C17.8468 6.85496 17.9382 6.65731 17.9923 6.3845L18.9991 6.5559C18.8892 7.02342 18.6835 7.37531 18.3834 7.61438C18.0784 7.8568 17.6682 7.97946 17.1503 7.97946C16.5631 7.97946 16.0969 7.79421 15.7497 7.42577C15.4026 7.05739 15.2277 6.54637 15.2277 5.88917C15.2277 5.23186 15.4032 4.7099 15.7518 4.34318L15.7518 4.34316C16.1 3.97583 16.5719 3.79152 17.1692 3.79152C17.6592 3.79152 18.0466 3.89706 18.3327 4.10568Z" fill="#6C7BAD" stroke="#6C7BAD" stroke-width="0.0459402"/>
</svg>
