<svg width="24" height="24" viewBox="0 0 24 24" fill="none" xmlns="http://www.w3.org/2000/svg">
<path fill-rule="evenodd" clip-rule="evenodd" d="M4.349 3.07083C3.00514 3.36817 2 4.5667 2 6V19.7299C2 21.4256 3.97771 22.3519 5.28037 21.2664L8 19H19C19.3802 19 19.7438 18.9293 20.0785 18.8003L11.2782 10H8C7.44772 10 7 9.55228 7 9C7 8.44772 7.44772 8 8 8H9.27817L4.349 3.07083ZM14.1066 10H16C16.5523 10 17 9.55228 17 9C17 8.44772 16.5523 8 16 8H12.1066L7.1066 3H19C20.6569 3 22 4.34315 22 6V16C22 16.5444 21.855 17.0548 21.6016 17.495L14.1066 10ZM7 13C7 12.4477 7.44772 12 8 12H12C12.5523 12 13 12.4477 13 13C13 13.5523 12.5523 14 12 14H8C7.44772 14 7 13.5523 7 13Z" fill="white"/>
<path fill-rule="evenodd" clip-rule="evenodd" d="M2.29289 2.29289C2.68342 1.90237 3.31658 1.90237 3.70711 2.29289L21.7071 20.2929C22.0976 20.6834 22.0976 21.3166 21.7071 21.7071C21.3166 22.0976 20.6834 22.0976 20.2929 21.7071L2.29289 3.70711C1.90237 3.31658 1.90237 2.68342 2.29289 2.29289Z" fill="#FF0000"/>
</svg>
