<svg width="44" height="44" viewBox="0 0 44 44" fill="none" xmlns="http://www.w3.org/2000/svg">
<path d="M7.31055 29.3904V8.76076C7.31055 7.78849 8.09904 7 9.07131 7H35.302C36.2743 7 37.0628 7.78849 37.0628 8.76076V29.3904" fill="#D4E0FF"/>
<path d="M7.31055 29.3904V8.76076C7.31055 7.78849 8.09904 7 9.07131 7H35.302C36.2743 7 37.0628 7.78849 37.0628 8.76076V29.3904" stroke="#40A3FF" stroke-width="1.61913" stroke-miterlimit="10"/>
<path d="M32.5103 9.24634H11.8603C10.6883 9.24634 9.73828 10.1964 9.73828 11.3684V25.2188C9.73828 26.3908 10.6883 27.3408 11.8603 27.3408H32.5103C33.6823 27.3408 34.6323 26.3908 34.6323 25.2188V11.3684C34.6323 10.1964 33.6823 9.24634 32.5103 9.24634Z" fill="white" stroke="#40A3FF" stroke-width="1.61913" stroke-miterlimit="10"/>
<path d="M24.5766 17.497L20.4473 15.1143V19.8813L24.5766 17.497Z" fill="white" stroke="#40A3FF" stroke-width="1.61913" stroke-linecap="round" stroke-linejoin="round"/>
<path d="M12.021 24.3655H16.2713" stroke="#40A3FF" stroke-width="1.61913" stroke-linejoin="round"/>
<path d="M17.7285 22.7871V25.4589" stroke="#40A3FF" stroke-width="1.61913" stroke-linejoin="round"/>
<path d="M19.186 24.3655H31.9967" stroke="#40A3FF" stroke-width="1.61913" stroke-linejoin="round"/>
<path d="M41.8592 36.8117L3 37.0551L7.31 30.6184H37.4266L41.8592 36.8117Z" fill="white" stroke="#40A3FF" stroke-width="1.61913" stroke-linejoin="round"/>
<path d="M20.3042 34.7778H24.5545" stroke="#40A3FF" stroke-width="1.61913" stroke-linejoin="round"/>
</svg>
