<svg width="16" height="16" viewBox="0 0 16 16" fill="none" xmlns="http://www.w3.org/2000/svg">
<path d="M14.5841 2.80566H10.0273V15.8197H15.5967V3.84666C15.5967 3.57057 15.49 3.30579 15.3001 3.11057C15.1102 2.91534 14.8527 2.80566 14.5841 2.80566ZM12.0525 11.6551H11.0399V10.6141H12.0525V11.6551ZM12.0525 9.05226H11.0399V8.01246H12.0525V9.05226ZM12.0525 6.44946H11.0399V5.40846H12.0525V6.44946ZM14.0776 11.6551H13.065V10.6141H14.0776V11.6551ZM14.0776 9.05226H13.065V8.01246H14.0776V9.05226ZM14.0776 6.44946H13.065V5.40846H14.0776V6.44946Z" fill="#1D9BF0"/>
<path d="M7.94185 0.201172H1.98731C1.84632 0.201172 1.70672 0.229732 1.57646 0.285221C1.44621 0.340709 1.32787 0.422039 1.2282 0.524562C1.12854 0.627086 1.04949 0.748795 0.995592 0.882735C0.94169 1.01667 0.913986 1.16022 0.914063 1.30517V15.818H3.44575V14.258H6.484V15.818H9.01569V1.30517C9.01576 1.16017 8.98804 1.01658 8.9341 0.882596C8.88017 0.748617 8.80107 0.626882 8.70134 0.52435C8.60161 0.421818 8.4832 0.340502 8.35288 0.285048C8.22256 0.229595 8.08289 0.201093 7.94185 0.201172ZM3.44808 11.6534H2.43319V10.6124H3.44575L3.44808 11.6534ZM3.44808 9.05057H2.43319V8.00957H3.44575L3.44808 9.05057ZM3.44808 6.44777H2.43319V5.40677H3.44575L3.44808 6.44777ZM3.44808 3.84497H2.43319V2.80397H3.44575L3.44808 3.84497ZM5.4732 11.6534H4.4583V10.6124H5.47086L5.4732 11.6534ZM5.4732 9.05057H4.4583V8.00957H5.47086L5.4732 9.05057ZM5.4732 6.44777H4.4583V5.40677H5.47086L5.4732 6.44777ZM5.4732 3.84497H4.4583V2.80397H5.47086L5.4732 3.84497ZM7.49656 11.6534H6.484V10.6124H7.49656V11.6534ZM7.49656 9.05057H6.484V8.00957H7.49656V9.05057ZM7.49656 6.44777H6.484V5.40677H7.49656V6.44777ZM7.49656 3.84497H6.484V2.80397H7.49656V3.84497Z" fill="#1D9BF0"/>
</svg>
