<svg width="20" height="20" viewBox="0 0 20 20" fill="none" xmlns="http://www.w3.org/2000/svg">
<path d="M16.3077 7H8.69231C7.75767 7 7 7.75767 7 8.69231V16.3077C7 17.2423 7.75767 18 8.69231 18H16.3077C17.2423 18 18 17.2423 18 16.3077V8.69231C18 7.75767 17.2423 7 16.3077 7Z" stroke="#8186B3" stroke-width="1.5" stroke-linecap="round" stroke-linejoin="round"/>
<path d="M4.53846 13H3.69231C3.24348 13 2.81303 12.8217 2.49567 12.5043C2.1783 12.187 2 11.7565 2 11.3077V3.69231C2 3.24348 2.1783 2.81303 2.49567 2.49567C2.81303 2.1783 3.24348 2 3.69231 2H11.3077C11.7565 2 12.187 2.1783 12.5043 2.49567C12.8217 2.81303 13 3.24348 13 3.69231V4.53846" stroke="#8186B3" stroke-width="1.5" stroke-linecap="round" stroke-linejoin="round"/>
</svg>
