<svg width="24" height="24" viewBox="0 0 24 24" fill="none" xmlns="http://www.w3.org/2000/svg">
<path d="M18.2233 19.5139L18.2228 19.5134L12.3302 13.6071L12.155 13.4315L12.0012 13.2773L11.8473 13.4315L11.6721 13.6071L5.78001 19.5129L5.77956 19.5134C5.60986 19.6845 5.37402 19.7827 5.13392 19.7827C4.89375 19.7827 4.65793 19.6844 4.4888 19.5139L4.48754 19.5126C4.31542 19.3419 4.21732 19.106 4.21732 18.8661C4.21732 18.6259 4.31557 18.3901 4.4861 18.221L4.48655 18.2205L10.3929 12.3279L10.5685 12.1527L10.7227 11.9988L10.5685 11.845L10.3929 11.6698L10.3929 11.6698L4.48724 5.77784C4.48722 5.77782 4.4872 5.7778 4.48718 5.77778C4.31447 5.60504 4.21967 5.3762 4.21967 5.13158C4.21967 4.88698 4.31448 4.65808 4.48745 4.48512L4.48746 4.48511C4.66043 4.31213 4.88932 4.21732 5.13392 4.21732C5.37849 4.21732 5.60733 4.3121 5.78029 4.485C5.78032 4.48503 5.78035 4.48507 5.78038 4.4851L11.6721 10.3906L11.8473 10.5662L12.0012 10.7204L12.155 10.5662L12.3302 10.3906L18.2222 4.4849C18.3949 4.31215 18.6238 4.21732 18.8684 4.21732C19.113 4.21732 19.3419 4.31213 19.5149 4.48511L19.5149 4.48512C19.6879 4.65809 19.7827 4.88696 19.7827 5.13158C19.7827 5.37611 19.6879 5.60492 19.5151 5.77786L19.5149 5.77804L13.6094 11.6698L13.4338 11.845L13.2796 11.9988L13.4338 12.1527L13.6094 12.3279L19.5153 18.22L19.5157 18.2204C19.6868 18.3901 19.785 18.626 19.785 18.8661C19.785 19.1062 19.6868 19.3421 19.5162 19.5112L19.515 19.5125C19.3443 19.6846 19.1084 19.7827 18.8684 19.7827C18.6282 19.7827 18.3924 19.6844 18.2233 19.5139ZM10.2615 11.845L10.2612 11.8453L4.33306 18.0667L10.2394 12.174L10.2612 12.1523L10.2615 12.1527L10.415 11.9988L10.2615 11.845Z" fill="#6C7BAD" stroke="#6C7BAD" stroke-width="0.434646"/>
</svg>
