<svg width="24" height="24" viewBox="0 0 24 24" fill="none" xmlns="http://www.w3.org/2000/svg">
<rect width="24" height="24" rx="4" fill="#1C1E38"/>
<path fill-rule="evenodd" clip-rule="evenodd" d="M7.67994 8.89733C7.67994 13.4307 11.387 17.1058 15.9598 17.1058C17.0942 17.1058 18.1752 16.8796 19.1597 16.4704C17.6537 18.6043 15.1561 19.9999 12.3298 19.9999C7.72942 19.9999 4.00011 16.3027 4.00011 11.7421C4.00011 8.25226 6.18378 5.26804 9.27042 4.05908C8.27029 5.4158 7.67994 7.08822 7.67994 8.89733Z" fill="#FFC10E"/>
<path d="M12.6401 4L13.0532 5.26042L14.39 5.26042L13.3085 6.03941L13.7216 7.29983L12.6401 6.52085L11.5586 7.29983L11.9717 6.03941L10.8902 5.26042L12.227 5.26042L12.6401 4Z" fill="#0996FF"/>
<path d="M16.78 5.82422L17.5029 8.02996H19.8424L17.9497 9.39318L18.6727 11.5989L16.78 10.2357L14.8874 11.5989L15.6103 9.39318L13.7177 8.02996H16.0571L16.78 5.82422Z" fill="#0996FF"/>
</svg>
