<svg width="12" height="16" viewBox="0 0 12 16" fill="none" xmlns="http://www.w3.org/2000/svg">
<path d="M1.0013 13.8333C1.0013 14.75 1.7513 15.5 2.66797 15.5H9.33463C10.2513 15.5 11.0013 14.75 11.0013 13.8333V5.5C11.0013 4.58333 10.2513 3.83333 9.33463 3.83333H2.66797C1.7513 3.83333 1.0013 4.58333 1.0013 5.5V13.8333ZM11.0013 1.33333H8.91797L8.3263 0.741667C8.1763 0.591667 7.95964 0.5 7.74297 0.5H4.25963C4.04297 0.5 3.8263 0.591667 3.6763 0.741667L3.08464 1.33333H1.0013C0.542969 1.33333 0.167969 1.70833 0.167969 2.16667C0.167969 2.625 0.542969 3 1.0013 3H11.0013C11.4596 3 11.8346 2.625 11.8346 2.16667C11.8346 1.70833 11.4596 1.33333 11.0013 1.33333Z" fill="white"/>
</svg>
