<svg width="65" height="52" viewBox="0 0 65 52" fill="none" xmlns="http://www.w3.org/2000/svg">
<g clip-path="url(#clip0_5912_73094)">
<rect width="65" height="52" rx="2.95455" fill="white" fill-opacity="0.1"/>
<path d="M38.8005 13.8225C37.8979 13.8216 37.0325 13.4627 36.3942 12.8244C35.756 12.1862 35.397 11.3208 35.3962 10.4182V5.69141H20.1857C19.6021 5.69119 19.0242 5.80593 18.485 6.0291C17.9457 6.25227 17.4558 6.57951 17.0431 6.99208C16.6303 7.40465 16.3029 7.89449 16.0796 8.43363C15.8562 8.97276 15.7412 9.55061 15.7412 10.1342V36.9164C15.7412 37.5 15.8562 38.0779 16.0796 38.617C16.3029 39.1562 16.6303 39.646 17.0431 40.0586C17.4558 40.4712 17.9457 40.7984 18.485 41.0215C19.0242 41.2447 19.6021 41.3595 20.1857 41.3593H38.4455C39.029 41.3593 39.6067 41.2444 40.1457 41.0211C40.6847 40.7978 41.1745 40.4705 41.5871 40.058C41.9996 39.6454 42.3269 39.1557 42.5501 38.6166C42.7734 38.0776 42.8883 37.4999 42.8883 36.9164V13.8225H38.8005Z" fill="#E8F2FF"/>
<path d="M42.8896 13.8225H38.8018C37.8992 13.8216 37.0338 13.4627 36.3955 12.8244C35.7573 12.1862 35.3983 11.3208 35.3975 10.4182V5.69141L42.8896 13.8225Z" fill="#0072FF"/>
<path d="M37.3038 19.5178H20.2591C20.0953 19.5178 19.9383 19.4528 19.8225 19.337C19.7067 19.2212 19.6416 19.0641 19.6416 18.9004C19.6414 18.8191 19.6572 18.7387 19.6881 18.6636C19.7191 18.5885 19.7645 18.5202 19.8219 18.4627C19.8792 18.4052 19.9474 18.3595 20.0224 18.3284C20.0974 18.2973 20.1778 18.2812 20.2591 18.2813H37.3038C37.468 18.2813 37.6255 18.3465 37.7416 18.4626C37.8577 18.5787 37.923 18.7362 37.923 18.9004C37.9225 19.0643 37.8571 19.2213 37.741 19.3371C37.625 19.4528 37.4678 19.5178 37.3038 19.5178Z" fill="#0072FF"/>
<path d="M37.3038 23.2092H20.2591C20.0953 23.2092 19.9383 23.1442 19.8225 23.0284C19.7067 22.9126 19.6416 22.7555 19.6416 22.5918C19.6414 22.5105 19.6572 22.4301 19.6881 22.355C19.7191 22.2799 19.7645 22.2116 19.8219 22.1541C19.8792 22.0966 19.9474 22.0509 20.0224 22.0198C20.0974 21.9887 20.1778 21.9727 20.2591 21.9727H37.3038C37.468 21.9727 37.6255 22.0379 37.7416 22.154C37.8577 22.2701 37.923 22.4276 37.923 22.5918C37.9225 22.7557 37.8571 22.9127 37.741 23.0285C37.625 23.1442 37.4678 23.2092 37.3038 23.2092Z" fill="#0072FF"/>
<path d="M37.3038 26.9026H20.2591C20.1778 26.9026 20.0974 26.8866 20.0224 26.8554C19.9474 26.8243 19.8792 26.7787 19.8219 26.7212C19.7645 26.6637 19.7191 26.5954 19.6881 26.5203C19.6572 26.4452 19.6414 26.3647 19.6416 26.2835C19.6416 26.1197 19.7067 25.9627 19.8225 25.8469C19.9383 25.7311 20.0953 25.666 20.2591 25.666H37.3038C37.4678 25.666 37.625 25.731 37.741 25.8468C37.8571 25.9625 37.9225 26.1196 37.923 26.2835C37.923 26.4477 37.8577 26.6052 37.7416 26.7213C37.6255 26.8374 37.468 26.9026 37.3038 26.9026Z" fill="#0072FF"/>
<path d="M30.581 30.596H20.2591C20.1778 30.596 20.0974 30.5799 20.0224 30.5488C19.9474 30.5177 19.8792 30.472 19.8219 30.4145C19.7645 30.357 19.7191 30.2888 19.6881 30.2136C19.6572 30.1385 19.6414 30.0581 19.6416 29.9768C19.6416 29.8131 19.7067 29.656 19.8225 29.5402C19.9383 29.4244 20.0953 29.3594 20.2591 29.3594H30.581C30.7448 29.3594 30.9018 29.4244 31.0176 29.5402C31.1334 29.656 31.1985 29.8131 31.1985 29.9768C31.1987 30.0581 31.1829 30.1385 31.152 30.2136C31.121 30.2888 31.0756 30.357 31.0182 30.4145C30.9609 30.472 30.8927 30.5177 30.8177 30.5488C30.7427 30.5799 30.6622 30.596 30.581 30.596Z" fill="#0072FF"/>
<path d="M46.1118 33.8613H25.4679C24.0035 33.8613 22.8164 35.0484 22.8164 36.5128V42.6677C22.8164 44.132 24.0035 45.3192 25.4679 45.3192H46.1118C47.5761 45.3192 48.7632 44.132 48.7632 42.6677V36.5128C48.7632 35.0484 47.5761 33.8613 46.1118 33.8613Z" fill="#0072FF"/>
<path d="M28.3252 40.9219V42.1221H27.082V40.9219H28.3252Z" fill="white"/>
<path d="M33.1041 40.9247C32.8974 41.3001 32.5851 41.6066 32.2059 41.8063C31.7792 42.0245 31.3048 42.1329 30.8257 42.1216H28.9502V37.1571H30.8257C31.3052 37.1453 31.7803 37.2513 32.2092 37.4659C32.5869 37.6619 32.8982 37.9652 33.1041 38.3376C33.3175 38.7339 33.425 39.1786 33.4161 39.6287C33.4246 40.0802 33.3172 40.5264 33.1041 40.9247ZM31.813 40.6754C31.9472 40.5376 32.0512 40.3734 32.1183 40.1931C32.1854 40.0129 32.2141 39.8206 32.2026 39.6287C32.2142 39.4369 32.1855 39.2449 32.1184 39.0649C32.0513 38.8849 31.9473 38.721 31.813 38.5836C31.5122 38.3198 31.1193 38.1857 30.7201 38.2105H30.1538V41.0468H30.7217C31.1201 41.0709 31.512 40.9375 31.813 40.6754Z" fill="white"/>
<path d="M37.7316 37.4065C38.1094 37.621 38.4216 37.9343 38.6347 38.3129C38.8581 38.7126 38.972 39.1642 38.9649 39.6221C38.9725 40.0811 38.8586 40.5339 38.6347 40.9346C38.4209 41.3146 38.1075 41.6291 37.7283 41.8443C37.3424 42.0647 36.9048 42.1787 36.4604 42.1745C36.016 42.1784 35.5785 42.0645 35.1924 41.8443C34.8133 41.6295 34.5004 41.3149 34.2877 40.9346C34.0631 40.5342 33.9491 40.0811 33.9575 39.6221C33.9489 39.1641 34.0629 38.7121 34.2877 38.3129C34.5015 37.9343 34.8142 37.621 35.1924 37.4065C35.5785 37.1863 36.016 37.0724 36.4604 37.0763C36.9058 37.0721 37.3445 37.186 37.7316 37.4065ZM35.5193 38.5787C35.2758 38.87 35.1518 39.2429 35.1726 39.6221C35.1518 39.9998 35.2758 40.3712 35.5193 40.6606C35.6379 40.7895 35.7834 40.8909 35.9454 40.9576C36.1074 41.0244 36.282 41.0548 36.4571 41.0469C36.6316 41.0543 36.8056 41.0237 36.967 40.9569C37.1284 40.8902 37.2732 40.7891 37.3915 40.6606C37.6362 40.3716 37.7614 40.0002 37.7415 39.6221C37.7613 39.2446 37.6375 38.8735 37.3948 38.5836C37.2763 38.4546 37.1308 38.3531 36.9688 38.2864C36.8068 38.2196 36.6321 38.1892 36.4571 38.1973C36.2825 38.1892 36.1082 38.2192 35.9463 38.2851C35.7844 38.3509 35.6387 38.4511 35.5193 38.5787Z" fill="white"/>
<path d="M43.4746 37.6049C43.8934 37.9456 44.1782 38.4234 44.2787 38.9538H43.0074C42.9216 38.7339 42.7714 38.5452 42.5765 38.4122C42.371 38.2784 42.1299 38.21 41.8848 38.2158C41.7229 38.2106 41.562 38.2427 41.4145 38.3097C41.2671 38.3767 41.1371 38.4768 41.0345 38.6021C40.8046 38.8962 40.6875 39.2628 40.7043 39.6356C40.6875 40.007 40.8047 40.372 41.0345 40.6642C41.1379 40.7882 41.2682 40.8871 41.4155 40.9532C41.5629 41.0192 41.7234 41.0508 41.8848 41.0455C42.13 41.0521 42.3713 40.9835 42.5765 40.8491C42.7704 40.7185 42.9205 40.5328 43.0074 40.3158H44.2787C44.1765 40.8447 43.8919 41.3209 43.4746 41.6614C43.0255 42.0043 42.4708 42.1795 41.9062 42.1567C41.4614 42.1661 41.0222 42.0554 40.635 41.8364C40.2725 41.6257 39.9784 41.315 39.788 40.9416C39.5834 40.5319 39.4814 40.0786 39.4908 39.6208C39.4815 39.1629 39.5835 38.7097 39.788 38.3C39.9784 37.9265 40.2725 37.6158 40.635 37.4052C41.0222 37.1861 41.4614 37.0755 41.9062 37.0848C42.4737 37.0698 43.0286 37.2538 43.4746 37.6049Z" fill="white"/>
</g>
<defs>
<clipPath id="clip0_5912_73094">
<rect width="65" height="52" rx="2.95455" fill="white"/>
</clipPath>
</defs>
</svg>
