<svg width="169" height="38" viewBox="0 0 169 38" fill="none" xmlns="http://www.w3.org/2000/svg">
<path d="M46.5703 22.1061C46.5703 17.0394 49.3703 13.7061 53.9036 13.7061C58.437 13.7061 61.237 17.0394 61.237 22.1061C61.237 27.1727 58.437 30.5061 53.9036 30.5061C49.3703 30.5061 46.5703 27.1727 46.5703 22.1061ZM53.837 27.5061C56.237 27.5061 57.5036 25.3061 57.5036 22.1061C57.5036 18.8394 56.237 16.7061 53.837 16.7061C51.437 16.7061 50.1703 18.8394 50.1703 22.1061C50.237 25.3061 51.437 27.5061 53.837 27.5061Z" fill="#0996FF"/>
<path d="M63.4375 22.0389C63.4375 16.9722 66.7708 13.8389 71.4375 13.8389C73.1042 13.8389 74.7708 14.1722 76.2375 14.9055L75.1708 17.5722C74.1708 17.0389 72.8375 16.7722 71.6375 16.7722C69.1708 16.7722 67.1708 18.8389 67.1708 22.0389C67.1708 25.6389 69.3708 27.6389 71.7708 27.6389C73.1708 27.6389 74.3708 27.3055 75.3042 26.7055L76.2375 29.1055C74.9708 29.9055 73.4375 30.5055 71.3708 30.5055C66.6375 30.5055 63.4375 27.2389 63.4375 22.0389Z" fill="#0996FF"/>
<path d="M78.2383 22.1061C78.2383 17.0394 81.0383 13.7061 85.5716 13.7061C90.1049 13.7061 92.9049 17.0394 92.9049 22.1061C92.9049 27.1727 90.1049 30.5061 85.5716 30.5061C81.0383 30.5061 78.2383 27.1727 78.2383 22.1061ZM85.5049 27.5061C87.9049 27.5061 89.1716 25.3061 89.1716 22.1061C89.1716 18.8394 87.9049 16.7061 85.5049 16.7061C83.1049 16.7061 81.8383 18.8394 81.8383 22.1061C81.9049 25.3061 83.1049 27.5061 85.5049 27.5061Z" fill="#0996FF"/>
<path d="M95.5703 13.9717H98.9036L105.104 24.1717H105.17V13.9717H108.57V30.305H105.17L99.037 20.5717H98.9703V30.305H95.5703V13.9717Z" fill="#0996FF"/>
<path d="M111.77 13.9717H115.103L121.303 24.1717H121.37V13.9717H124.77V30.305H121.37L115.236 20.5717H115.17V30.305H111.77V13.9717Z" fill="#0996FF"/>
<path d="M138.435 13.9717V16.905H131.569V20.5717H137.769V23.2383H131.569V27.3717H138.435V30.305H127.969V13.9717H138.435Z" fill="#0996FF"/>
<path d="M140.703 22.0389C140.703 16.9722 144.036 13.8389 148.703 13.8389C150.37 13.8389 152.036 14.1722 153.503 14.9055L152.436 17.5722C151.436 17.0389 150.103 16.7722 148.903 16.7722C146.436 16.7722 144.436 18.8389 144.436 22.0389C144.436 25.6389 146.636 27.6389 149.036 27.6389C150.436 27.6389 151.636 27.3055 152.57 26.7055L153.503 29.1055C152.236 29.9055 150.703 30.5055 148.636 30.5055C143.903 30.5055 140.703 27.2389 140.703 22.0389Z" fill="#0996FF"/>
<path d="M155.238 16.905V13.9717H168.238V16.905H163.505V30.305H159.905V16.905H155.238Z" fill="#0996FF"/>
<path d="M20.368 19.371C20.368 20.2377 19.6346 20.971 18.768 20.971C17.9013 20.971 17.168 20.2377 17.168 19.371C17.168 18.5043 17.9013 17.771 18.768 17.771C19.6346 17.771 20.368 18.5043 20.368 19.371Z" fill="#204593"/>
<path d="M16.1013 19.3026C16.1013 20.1026 15.4346 20.7693 14.6346 20.7693C13.8346 20.7693 13.168 20.1026 13.168 19.3026C13.168 18.5026 13.8346 17.8359 14.6346 17.8359C15.4346 17.8359 16.1013 18.5026 16.1013 19.3026Z" fill="#4692CF"/>
<path d="M16.0367 15.3045C16.0367 15.9712 15.5034 16.5045 14.8367 16.5045C14.1701 16.5045 13.6367 15.9712 13.6367 15.3045C13.6367 14.6378 14.1701 14.1045 14.8367 14.1045C15.5034 14.1045 16.0367 14.6378 16.0367 15.3045Z" fill="#4692CF"/>
<path d="M16.0367 23.5701C16.0367 24.2368 15.5034 24.7701 14.8367 24.7701C14.1701 24.7701 13.6367 24.2368 13.6367 23.5701C13.6367 22.9035 14.1701 22.3701 14.8367 22.3701C15.5034 22.3701 16.0367 22.9035 16.0367 23.5701Z" fill="#4692CF"/>
<path d="M24.3674 19.3043C24.3674 20.171 23.7008 20.8377 22.8341 20.8377C21.9674 20.8377 21.3008 20.171 21.3008 19.3043C21.3008 18.4377 21.9674 17.771 22.8341 17.771C23.7008 17.8377 24.3674 18.5043 24.3674 19.3043Z" fill="#4692CF"/>
<path opacity="0.8" d="M27.7008 19.3045C27.7008 19.9712 27.1674 20.5045 26.5008 20.5045C25.8341 20.5045 25.3008 19.9712 25.3008 19.3045C25.3008 18.6378 25.8341 18.1045 26.5008 18.1045C27.1674 18.1045 27.7008 18.6378 27.7008 19.3045Z" fill="#4692CF"/>
<path opacity="0.8" d="M12.4352 19.3045C12.4352 19.9712 11.9018 20.5045 11.2352 20.5045C10.5685 20.5045 10.0352 19.9712 10.0352 19.3045C10.0352 18.6378 10.5685 18.1045 11.2352 18.1045C11.9018 18.1045 12.4352 18.6378 12.4352 19.3045Z" fill="#4692CF"/>
<path opacity="0.3" d="M27.2362 23.436C27.2362 23.836 26.9029 24.1693 26.5029 24.1693C26.1029 24.1693 25.7695 23.836 25.7695 23.436C25.7695 23.036 26.1029 22.7026 26.5029 22.7026C26.9029 22.636 27.2362 23.036 27.2362 23.436Z" fill="#4692CF"/>
<path opacity="0.8" d="M19.7026 11.97C19.7026 12.5033 19.3026 12.9033 18.7693 12.9033C18.2359 12.9033 17.8359 12.5033 17.8359 11.97C17.8359 11.4366 18.2359 11.0366 18.7693 11.0366C19.3026 11.0366 19.7026 11.4366 19.7026 11.97Z" fill="#4692CF"/>
<path opacity="0.4" d="M15.9018 11.97C15.9018 12.5033 15.5018 12.9033 14.9685 12.9033C14.4352 12.9033 14.0352 12.5033 14.0352 11.97C14.0352 11.4366 14.4352 11.0366 14.9685 11.0366C15.4352 11.0366 15.9018 11.4366 15.9018 11.97Z" fill="#4692CF"/>
<path opacity="0.3" d="M23.7685 26.8354C23.7685 27.3021 23.3685 27.7021 22.9018 27.7021C22.4352 27.7021 22.0352 27.3021 22.0352 26.8354C22.0352 26.3687 22.4352 25.9688 22.9018 25.9688C23.3685 25.9688 23.7685 26.3687 23.7685 26.8354Z" fill="#4692CF"/>
<path opacity="0.8" d="M19.9682 26.8371C19.9682 27.3705 19.5682 27.7705 19.0349 27.7705C18.5016 27.7705 18.1016 27.3705 18.1016 26.8371C18.1016 26.3038 18.5016 25.9038 19.0349 25.9038C19.5682 25.9038 19.9682 26.3038 19.9682 26.8371Z" fill="#4692CF"/>
<path opacity="0.3" d="M12.1 15.3029C12.1 15.7029 11.7667 16.1029 11.3 16.1029C10.9 16.1029 10.5 15.7696 10.5 15.3029C10.5 14.9029 10.8333 14.5029 11.3 14.5029C11.7667 14.5696 12.1 14.9029 12.1 15.3029Z" fill="#4692CF"/>
<path d="M24.1036 23.3712C24.1036 24.0378 23.5703 24.6378 22.837 24.6378C22.1703 24.6378 21.5703 24.1045 21.5703 23.3712C21.5703 22.7045 22.1036 22.1045 22.837 22.1045C23.5703 22.1045 24.1036 22.7045 24.1036 23.3712Z" fill="#4692CF"/>
<path d="M24.0367 15.3045C24.0367 15.9712 23.5034 16.5045 22.8367 16.5045C22.1701 16.5045 21.6367 15.9712 21.6367 15.3045C21.6367 14.6378 22.1701 14.1045 22.8367 14.1045C23.5034 14.1045 24.0367 14.6378 24.0367 15.3045Z" fill="#4692CF"/>
<path d="M20.3005 15.2377C20.3005 16.0377 19.6339 16.7043 18.8339 16.7043C18.0339 16.7043 17.3672 16.0377 17.3672 15.2377C17.3672 14.4377 18.0339 13.771 18.8339 13.771C19.6339 13.771 20.3005 14.4377 20.3005 15.2377Z" fill="#4692CF"/>
<path d="M20.3005 23.5712C20.3005 24.3712 19.6339 25.0378 18.8339 25.0378C18.0339 25.0378 17.3672 24.3712 17.3672 23.5712C17.3672 22.7712 18.0339 22.1045 18.8339 22.1045C19.6339 22.1045 20.3005 22.7712 20.3005 23.5712Z" fill="#4692CF"/>
<path d="M31.1686 21.771C30.6353 21.771 30.102 22.171 30.0353 22.7043C29.8353 23.571 29.5686 24.371 29.1686 25.171C28.902 25.7043 28.6353 26.171 28.302 26.6377C27.502 27.8377 26.502 28.8377 25.302 29.6377C24.8353 29.971 24.3686 30.2377 23.8353 30.5043C22.5686 31.1043 21.2353 31.5043 19.7687 31.571C19.2353 31.6377 18.702 31.6377 18.102 31.571C18.102 31.571 18.102 31.571 18.0353 31.571C16.5686 31.4377 15.2353 31.1043 13.9686 30.5043C13.4353 30.2377 12.9686 29.971 12.502 29.6377C11.302 28.8377 10.302 27.8377 9.50198 26.6377C9.16865 26.171 8.90198 25.7043 8.63531 25.171C8.23531 24.371 7.96865 23.571 7.76865 22.7043C7.63531 22.171 7.16865 21.771 6.63531 21.771H2.63531C1.90198 21.771 1.36865 22.4377 1.43531 23.1043C1.70198 24.771 2.23531 26.371 2.96865 27.9043V27.971C3.36865 28.771 3.76865 29.5043 4.30198 30.2377C4.30198 30.2377 4.30198 30.2377 4.30198 30.3043C5.56865 32.1043 7.10198 33.7043 8.90198 34.9043C8.90198 34.9043 8.90198 34.9043 8.96865 34.9043C9.70198 35.371 10.4353 35.8377 11.2353 36.2377C11.2353 36.2377 11.2353 36.2377 11.302 36.2377C13.2353 37.171 15.3686 37.771 17.6353 37.9043C17.6353 37.9043 17.6353 37.9043 17.702 37.9043C17.702 37.9043 17.702 37.9043 17.7687 37.9043C18.6353 37.971 19.502 37.971 20.3686 37.9043C20.3686 37.9043 20.3686 37.9043 20.4353 37.9043C22.702 37.771 24.8353 37.171 26.7687 36.2377H26.8353C27.6353 35.8377 28.3687 35.4377 29.102 34.9043C29.102 34.9043 29.102 34.9043 29.1686 34.9043C30.9686 33.6377 32.5686 32.1043 33.7687 30.3043C33.7687 30.3043 33.7687 30.3043 33.7687 30.2377C34.2353 29.5043 34.702 28.771 35.102 27.971C35.102 27.971 35.102 27.971 35.102 27.9043C35.8353 26.4377 36.302 24.8377 36.6353 23.1043C36.7686 22.371 36.1687 21.771 35.4353 21.771H31.1686Z" fill="#204593"/>
<path d="M26.7037 7.84131C26.637 7.84131 26.5703 7.84131 26.5037 7.77464C25.9703 7.44131 25.437 7.10798 24.9037 6.84131L24.837 6.77464C24.837 6.77464 24.7703 6.77464 24.7703 6.70797C24.7703 6.70797 24.7703 6.70797 24.7037 6.70797C24.5703 6.64131 24.5037 6.44131 24.5703 6.30798C24.5703 6.17464 24.637 6.10798 24.637 5.97464C24.7037 4.77464 23.837 3.77464 22.637 3.64131C22.5703 3.64131 22.5037 3.64131 22.5037 3.64131C21.5703 3.64131 20.7037 4.30798 20.437 5.17464C20.3703 5.30798 20.237 5.44131 20.037 5.44131H19.9037H19.837C19.5037 5.44131 19.237 5.44131 18.9037 5.44131C18.5703 5.44131 18.3037 5.44131 17.9703 5.50798C17.837 5.50798 17.7703 5.44131 17.7037 5.37464C17.637 5.30797 17.5703 5.17464 17.637 5.04131C17.7703 4.17464 18.1037 3.37464 18.637 2.70797C19.5703 1.50797 20.9703 0.841309 22.5037 0.841309C22.637 0.841309 22.7703 0.841309 22.837 0.841309C23.1703 0.841309 23.437 0.907975 23.7037 0.974642C25.637 1.44131 27.1037 3.04131 27.3703 5.04131C27.437 5.44131 27.437 5.77464 27.437 6.17464C27.3703 6.64131 27.3037 7.17464 27.1037 7.57464C27.037 7.70798 26.9703 7.77464 26.837 7.77464C26.837 7.84131 26.7703 7.84131 26.7037 7.84131Z" fill="#EF3D3B"/>
<path d="M32.9724 20.509C32.9058 20.509 32.7724 20.4423 32.7058 20.3757C32.6391 20.309 32.5724 20.1757 32.5724 20.0423C32.6391 19.4423 32.6391 18.7757 32.5724 18.1757C32.5724 18.109 32.5724 18.0423 32.5724 18.0423V17.9757C32.5724 17.7757 32.7058 17.6424 32.8391 17.6424C32.9724 17.6424 33.0391 17.5757 33.1724 17.509C34.2391 16.9757 34.7058 15.709 34.1724 14.6424C33.8391 13.909 33.0391 13.4424 32.2391 13.4424C32.0391 13.4424 31.9058 13.4424 31.7058 13.509H31.6391C31.5724 13.509 31.5058 13.509 31.4391 13.4424C31.3724 13.3757 31.3058 13.309 31.3058 13.2423C31.3058 13.2423 31.3058 13.1757 31.2391 13.1757C30.9724 12.5757 30.6391 12.0424 30.3058 11.509C30.1724 11.3757 30.1724 11.309 30.2391 11.1757C30.3058 11.0424 30.3724 10.9757 30.4391 10.909C30.9724 10.709 31.5724 10.5757 32.1724 10.5757C32.4391 10.5757 32.7058 10.5757 32.9724 10.6424C34.5724 10.909 35.9724 11.909 36.7058 13.3757C36.8391 13.6423 36.9724 13.909 37.0391 14.1757C37.5724 16.109 36.9724 18.1757 35.3724 19.4424C35.1058 19.6424 34.7724 19.8424 34.4391 20.0423C33.9724 20.2423 33.5058 20.4424 32.9724 20.509Z" fill="#4692CF"/>
<path d="M4.70456 20.5063C3.83789 20.373 3.03789 20.0396 2.37122 19.5063C1.10456 18.5063 0.437891 16.9063 0.504558 15.3063C0.504558 14.973 0.571225 14.7063 0.637892 14.4396C1.10456 12.5063 2.70456 11.0396 4.70456 10.7063C4.97122 10.6396 5.23789 10.6396 5.50456 10.6396C5.63789 10.6396 5.70456 10.6396 5.83789 10.6396C6.37122 10.7063 6.83789 10.773 7.23789 10.973C7.37122 11.0396 7.43789 11.1063 7.43789 11.2396C7.50456 11.373 7.43789 11.4396 7.37122 11.573C7.03789 12.1063 6.70456 12.6396 6.43789 13.173L6.37122 13.2396L6.30456 13.373C6.23789 13.5063 6.10456 13.573 5.97123 13.573H5.90456C5.77122 13.573 5.70456 13.5063 5.57123 13.5063C5.50456 13.5063 5.50456 13.5063 5.43789 13.5063C4.30456 13.5063 3.37123 14.373 3.30456 15.5063C3.23789 16.5063 3.90456 17.4396 4.83789 17.7063C4.97122 17.773 5.10456 17.9063 5.10456 18.1063V18.173C5.10456 18.2396 5.10456 18.2396 5.10456 18.2396V18.3063C5.03789 18.973 5.03789 19.573 5.10456 20.1063C5.10456 20.2396 5.03789 20.3063 4.97123 20.4396C4.97123 20.4396 4.83789 20.5063 4.70456 20.5063Z" fill="#4692CF"/>
<path d="M6.17209 13.3042C6.10542 13.3042 5.97209 13.3042 5.90542 13.2375C5.23876 12.7042 4.70542 11.9708 4.43876 11.1708C3.83876 9.6375 4.03876 7.90417 4.97209 6.57083C5.10542 6.37083 5.23876 6.2375 5.37209 6.10417C6.30542 5.0375 7.70542 4.4375 9.10542 4.4375C9.70542 4.4375 10.3054 4.57083 10.9054 4.77083C11.2388 4.90417 11.5721 5.0375 11.9054 5.30417C12.3054 5.57083 12.7054 5.90417 12.9721 6.30417C13.0388 6.37083 13.0388 6.50417 13.0388 6.6375C13.0388 6.77083 12.9054 6.8375 12.8388 6.90417C12.2388 7.17083 11.7721 7.50417 11.2388 7.8375L11.1054 7.97083C11.0388 8.0375 10.9721 8.0375 10.9054 8.0375C10.8388 8.0375 10.7054 7.97083 10.6388 7.90417C10.5721 7.8375 10.4388 7.77083 10.3721 7.70417C10.0388 7.4375 9.57209 7.30417 9.17209 7.30417C8.43876 7.30417 7.77209 7.6375 7.37209 8.2375C6.83876 9.10417 6.90542 10.2375 7.57209 10.9708C7.70542 11.1042 7.70542 11.3042 7.63876 11.4375C7.63876 11.4375 7.63876 11.5042 7.57209 11.5042L7.50542 11.5708C7.10542 12.1708 6.83876 12.7042 6.57209 13.2375C6.50542 13.3708 6.43876 13.4375 6.30542 13.4375C6.23876 13.3042 6.17209 13.3042 6.17209 13.3042Z" fill="#1DAE4B"/>
<path d="M10.9693 7.84131C10.9027 7.84131 10.9027 7.84131 10.836 7.84131C10.7027 7.77464 10.636 7.70798 10.5693 7.64131C10.236 6.84131 10.1693 5.97464 10.3027 5.10798C10.5693 3.50798 11.5693 2.10798 13.036 1.37464C13.3693 1.24131 13.7027 1.10798 14.1027 0.974642C14.436 0.907975 14.836 0.841309 15.1693 0.841309C16.636 0.841309 18.1027 1.50797 19.036 2.70797C19.3027 2.97464 19.5027 3.30798 19.636 3.64131C19.836 4.04131 19.9693 4.50798 20.1027 4.97464C20.1027 5.10798 20.1027 5.17464 20.036 5.30798C19.9693 5.37464 19.836 5.44131 19.7693 5.44131C19.436 5.44131 19.1693 5.44131 18.836 5.44131C18.5027 5.44131 18.236 5.44131 17.9027 5.50798H17.836C17.7693 5.50798 17.7693 5.50798 17.7693 5.50798C17.636 5.50798 17.436 5.37464 17.436 5.24131C17.3693 5.10798 17.3693 5.04131 17.3027 4.90798C16.9693 4.17464 16.1693 3.70797 15.3693 3.70797C15.036 3.70797 14.7027 3.77464 14.436 3.90798C13.5027 4.37464 13.036 5.37464 13.3027 6.37464C13.3693 6.57464 13.236 6.70798 13.1027 6.84131H13.036C12.9693 6.84131 12.9693 6.90798 12.9693 6.90798C12.3693 7.17464 11.836 7.50798 11.3693 7.84131C11.1027 7.77464 11.036 7.84131 10.9693 7.84131Z" fill="#FFC113"/>
<path d="M28.5706 10.7741C28.2372 11.2408 27.6372 11.3741 27.1706 11.0408C26.7039 10.7075 26.5706 10.1075 26.9039 9.6408C27.2372 9.17413 27.8372 9.0408 28.3039 9.37413C28.7706 9.6408 28.9039 10.3075 28.5706 10.7741Z" fill="#EE538C"/>
<path d="M31.4393 16.7736C30.9059 17.0402 30.3059 16.7736 30.1059 16.3069C29.8393 15.7736 30.1059 15.1736 30.5726 14.9736C31.1059 14.7069 31.7059 14.9069 31.9059 15.4402C32.1726 15.9069 31.9726 16.5069 31.4393 16.7736Z" fill="#4692CF"/>
<path d="M6.70585 14.9741C7.23918 15.0408 7.70585 15.5075 7.63918 16.0408C7.57251 16.5741 7.10585 17.0408 6.57251 16.9741C6.03918 16.9075 5.57251 16.4408 5.63918 15.9075C5.70585 15.3741 6.17251 14.9075 6.70585 14.9741Z" fill="#4692CF"/>
<path d="M10.4367 9.43907C10.9034 9.7724 11.0367 10.3724 10.7034 10.8391C10.3701 11.3057 9.77006 11.4391 9.30339 11.1057C8.83673 10.7724 8.70339 10.1724 9.03673 9.70574C9.37006 9.23907 9.97006 9.10574 10.4367 9.43907Z" fill="#1DAE4B"/>
<path d="M16.4371 6.57255C16.7038 7.10588 16.4371 7.70588 15.9705 7.90588C15.5038 8.10588 14.8371 7.97255 14.6371 7.43922C14.3705 6.90588 14.5705 6.30588 15.1038 6.10588C15.5705 5.83922 16.1705 6.03922 16.4371 6.57255Z" fill="#FFC113"/>
<path d="M23.104 7.03875C23.0374 7.57209 22.5707 8.03875 22.0374 7.97209C21.504 7.90542 21.0374 7.43875 21.104 6.90542C21.1707 6.30542 21.6374 5.90542 22.1707 5.97209C22.704 5.97209 23.104 6.43875 23.104 7.03875Z" fill="#EF3D3B"/>
<path d="M31.5036 13.3074H31.437C31.3036 13.3074 31.237 13.174 31.1703 13.1074C30.9036 12.574 30.5703 12.0407 30.237 11.5074C30.237 11.5074 30.237 11.4407 30.1703 11.4407C30.1703 11.4407 30.1703 11.4407 30.1703 11.374C30.037 11.2407 30.037 10.974 30.1703 10.8407C30.237 10.774 30.3036 10.6407 30.3703 10.574C31.037 9.57402 30.7703 8.24069 29.7703 7.57402C29.437 7.30736 28.9703 7.17402 28.5703 7.17402C28.037 7.17402 27.5036 7.37402 27.037 7.77402C26.9703 7.84069 26.837 7.90736 26.7703 7.90736C26.7036 7.90736 26.5703 7.84069 26.5036 7.77402L26.437 7.70736C25.837 7.30736 25.3036 7.04069 24.7703 6.77402C24.637 6.70736 24.5703 6.64069 24.5703 6.50736C24.5703 6.37402 24.5703 6.24069 24.637 6.17402C25.1703 5.50736 25.9036 4.97402 26.7036 4.70736C27.3036 4.50736 27.9036 4.37402 28.5036 4.37402C29.5036 4.37402 30.437 4.64069 31.3036 5.24069C31.5036 5.37402 31.637 5.50736 31.7703 5.64069C33.3703 7.04069 33.9036 9.24069 33.1036 11.174C32.9703 11.5074 32.7703 11.8407 32.5703 12.174C32.3036 12.574 31.9703 12.9074 31.5703 13.2407C31.7036 13.3074 31.637 13.3074 31.5036 13.3074Z" fill="#EE538C"/>
</svg>
