<svg width="30" height="30" viewBox="0 0 30 30" fill="none" xmlns="http://www.w3.org/2000/svg">
<rect width="30" height="30" rx="4" fill="#1C1E38"/>
<path d="M14.4167 9.16669H9.42593C9.04775 9.16669 8.68506 9.31692 8.41764 9.58433C8.15023 9.85174 8 10.2144 8 10.5926V20.5741C8 20.9523 8.15023 21.315 8.41764 21.5824C8.68506 21.8498 9.04775 22 9.42593 22H19.4074C19.7856 22 20.1483 21.8498 20.4157 21.5824C20.6831 21.315 20.8333 20.9523 20.8333 20.5741V15.5834" stroke="#6C7BAD" stroke-linecap="round" stroke-linejoin="round"/>
<path d="M19.3073 8.46199C19.6031 8.16618 20.0043 8 20.4227 8C20.841 8 21.2422 8.16618 21.538 8.46199C21.8338 8.75779 22 9.15899 22 9.57732C22 9.99565 21.8338 10.3969 21.538 10.6927L14.4742 17.7564L11.5 18.5L12.2436 15.5258L19.3073 8.46199Z" stroke="#6C7BAD" stroke-linecap="round" stroke-linejoin="round"/>
</svg>
