<svg width="24" height="24" viewBox="0 0 24 24" fill="none" xmlns="http://www.w3.org/2000/svg">
<path d="M11.9907 2.57129C6.78611 2.57129 2.57153 6.79529 2.57153 11.9999C2.57153 17.2044 6.78611 21.4284 11.9907 21.4284C17.2047 21.4284 21.4287 17.2044 21.4287 11.9999C21.4287 6.79529 17.2047 2.57129 11.9907 2.57129ZM8.70011 8.22843C9.48268 8.22843 10.1144 8.86015 10.1144 9.64272C10.1144 10.4253 9.48268 11.057 8.70011 11.057C7.91754 11.057 7.28582 10.4253 7.28582 9.64272C7.28582 8.86015 7.91754 8.22843 8.70011 8.22843ZM12.0001 17.657C9.85039 17.657 8.02125 16.0919 7.28582 13.8856H16.7144C15.979 16.0919 14.1498 17.657 12.0001 17.657ZM15.3001 11.057C14.5175 11.057 13.8858 10.4253 13.8858 9.64272C13.8858 8.86015 14.5175 8.22843 15.3001 8.22843C16.0827 8.22843 16.7144 8.86015 16.7144 9.64272C16.7144 10.4253 16.0827 11.057 15.3001 11.057Z" fill="white"/>
</svg>
