<svg width="24" height="24" viewBox="0 0 24 24" fill="none" xmlns="http://www.w3.org/2000/svg">
<rect width="24" height="24" rx="4" fill="#1C1E38"/>
<path d="M5 6.50006C5 6.22392 4.77614 6.00006 4.5 6.00006C4.22386 6.00006 4 6.22392 4 6.50006V18.4C4 19.28 4.72 20 5.6 20H17.5C17.7762 20 18 19.7762 18 19.5C18 19.2239 17.7762 19.0001 17.5 19.0001H11H6C5.44772 19.0001 5 18.5523 5 18.0001V6.50006Z" fill="#0996FF"/>
<path d="M7.75 4.5H18.25C18.9364 4.5 19.5 5.06364 19.5 5.75V16.25C19.5 16.9364 18.9364 17.5 18.25 17.5H7.75C7.06364 17.5 6.5 16.9364 6.5 16.25V5.75C6.5 5.06364 7.06364 4.5 7.75 4.5Z" stroke="#0996FF"/>
<path d="M11.5962 14.16C11.5962 14.624 11.9975 15 12.5121 15C13.0268 15 13.4106 14.624 13.4193 14.16C13.4193 13.688 13.0268 13.328 12.5121 13.328C12.0062 13.328 11.5962 13.688 11.5962 14.16Z" fill="#FFC10E"/>
<path d="M13.332 11.512C13.6199 11.032 14.1433 10.808 14.6928 10.064C15.19 9.392 15.0068 8.496 14.6841 8.008C14.309 7.448 13.5676 7 12.4947 7C11.2124 7 10.3315 7.768 10 8.672L11.195 9.128C11.352 8.68 11.7358 8.144 12.5034 8.144C13.681 8.144 13.9165 9.152 13.4978 9.696C13.1053 10.208 12.4336 10.552 12.076 11.136C11.7969 11.592 11.8492 12.128 11.8492 12.456H13.175C13.175 11.832 13.2187 11.704 13.332 11.512Z" fill="#FFC10E"/>
</svg>
