<svg width="22" height="16" viewBox="0 0 22 16" fill="none" xmlns="http://www.w3.org/2000/svg">
<path d="M14.65 6.46154C16.393 6.46154 17.7895 5.01846 17.7895 3.23077C17.7895 1.44308 16.393 0 14.65 0C12.907 0 11.5 1.44308 11.5 3.23077C11.5 5.01846 12.907 6.46154 14.65 6.46154ZM7.35 6.46154C9.093 6.46154 10.4895 5.01846 10.4895 3.23077C10.4895 1.44308 9.093 0 7.35 0C5.607 0 4.2 1.44308 4.2 3.23077C4.2 5.01846 5.607 6.46154 7.35 6.46154ZM7.35 7.53846C4.9035 7.53846 0 8.79846 0 11.3077V14.9231C0 15.5154 0.4725 16 1.05 16H13.65C14.2275 16 14.7 15.5154 14.7 14.9231V11.3077C14.7 8.79846 9.7965 7.53846 7.35 7.53846ZM14.65 7.53846C14.3455 7.53846 13.999 7.56 13.6315 7.59231C13.6525 7.60308 13.663 7.62462 13.6735 7.63538C14.8705 8.52923 15.7 9.72462 15.7 11.3077V14.9231C15.7 15.3 15.6265 15.6662 15.511 16H20.95C21.5275 16 22 15.5154 22 14.9231V11.3077C22 8.79846 17.0965 7.53846 14.65 7.53846Z" fill="#0996FF"/>
</svg>
