<svg width="24" height="24" viewBox="0 0 24 24" fill="none" xmlns="http://www.w3.org/2000/svg">
<path d="M11.529 16.4583L11.5282 16.4575H11.5116H11.4951H11.4785H11.4619H11.4453H11.4288H11.4122H11.3956H11.379H11.3625H11.3459H11.3293H11.3128H11.2962H11.2796H11.263H11.2465H11.2299H11.2133H11.1967H11.1802H11.1636H11.147H11.1304H11.1139H11.0973H11.0807H11.0641H11.0476H11.031H11.0144H10.9979H10.9813H10.9647H10.9481H10.9316H10.915H10.8984H10.8818H10.8653H10.8487H10.8321H10.8155H10.799H10.7824H10.7658H10.7492H10.7327H10.7161H10.6995H10.683H10.6664H10.6498H10.6332H10.6167H10.6001H10.5835H10.5669H10.5504H10.5338H10.5172H10.5006H10.4841H10.4675H10.4509H10.4344H10.4178H10.4012H10.3846H10.3681H10.3515H10.3349H10.3183H10.3018H10.2852H10.2686H10.2521H10.2355H10.2189H10.2023H10.1858H10.1692H10.1526H10.136H10.1195H10.1029H10.0863H10.0697H10.0532H10.0366H10.02H10.0035H9.98688H9.97031H9.95374H9.93716H9.92059H9.90402H9.88745H9.87087H9.8543H9.83773H9.82116H9.80458H9.78801H9.77144H9.75486H9.73829H9.72172H9.70515H9.68857H9.672H9.65543H9.63886H9.62228H9.60571H9.58914H9.57257H9.55599H9.53942H9.52285H9.50627H9.4897H9.47313H9.45656H9.43998H9.42341H9.40684H9.39027H9.37369H9.35712H9.34055H9.32398H9.3074H9.29083H9.27426H9.25769H9.24112H9.22454H9.20797H9.1914H9.17483H9.15825H9.14168H9.12511H9.10854H9.09196H9.07539H9.05882H9.04225H9.02567H9.0091H8.99253H8.97596H8.95939H8.94281H8.92624H8.90967H8.8931H8.87652H8.85995H8.84338H8.82681H8.81024H8.79366H8.77709H8.76052H8.74395H8.72737H8.7108H8.69423H8.67766H8.66109H8.64451H8.62794H8.61137H8.5948H8.57822H8.56165H8.54508H8.52851H8.51194H8.49536H8.47879H8.46222H8.44565H8.42908H8.4125H8.39593H8.37936H8.36279H8.34621H8.32964H8.31307H8.2965H8.27993H8.26335H8.24678H8.23021H8.21364H8.19707H8.18049H8.16392H8.14735H8.13078H8.11421H8.09763H8.08106H8.06449H8.04792H8.03135H8.01477H7.9982H7.98163H7.96506H7.94849H7.93191H7.91534H7.89877H7.8822H7.86563H7.84905H7.83248H7.81591H7.79934H7.78277H7.76619H7.74962H7.73305H7.71648H7.69991H7.68333H7.66676H7.65019H7.63362H7.61705H7.60047H7.5839H7.56733H7.55076H7.53419H7.51761H7.50104H7.48447H7.4679H7.45133H7.43475H7.41818H7.40161H7.38504H7.36847H7.35189H7.33532H7.31875H7.30218H7.28561H7.26903H7.25246H7.23589H7.21932H7.20275H7.18617H7.1696H7.15303H7.13646H7.11989H7.10331H7.08674H7.07017H7.0536H7.03703H7.02045H7.00388H6.98731H6.97074H6.95417H6.93759H6.92102H6.90445H6.88788H6.87131H6.85473H6.83816H6.82159H6.80502H6.78845H6.77187H6.7553H6.73873H6.72216H6.70559H6.68901H6.67244H6.65587H6.6393H6.62273H6.60615H6.58958H6.57301H6.55644H6.53987H6.52329H6.50672H6.49015H6.47358H6.457H6.44043H6.42386H6.40729H6.39072H6.37414H6.35757H6.341H6.32443H6.30786H6.29128H6.27471H6.25814H6.24157H6.22499H6.20842H6.19185H6.17528H6.15871H6.14213H6.12556H6.10899H6.09242H6.07584H6.05927H6.0427H6.02613H6.00956H5.99298H5.97641H5.95984H5.94327H5.92669H5.91012H5.89355H5.87698H5.86041H5.84383H5.82726H5.81069H5.79412H5.77754H5.76097H5.7444H5.72783H5.71125H5.69468H5.67811H5.66154H5.64496H5.62839H5.61182H5.59525H5.57867H5.5621H5.54553H5.52896H5.51238H5.49581H5.47924H5.46267H5.44609H5.42952H5.41295H5.39638H5.3798H5.36323H5.34666H5.33009H5.31351H5.29694H5.28037H5.2638H5.24722H5.23065H5.21408H5.19751H5.18093H5.16436H5.14779H5.13122H5.11464H5.09807H5.0815H5.06492H5.04835H5.03178H5.01521H4.99863H4.98206H4.96549H4.94891H4.93234H4.91577H4.8992H4.88262H4.86605H4.84948H4.8329H4.81633H4.79976H4.78319H4.76661H4.75004H4.73347H4.71689H4.70032H4.68375H4.66718H4.6506H4.63403H4.61746H4.60088H4.58431H4.56774H4.55116H4.53459H4.51802H4.50144H4.48487H4.4683H4.45172H4.43515H4.41858H4.402H4.38543H4.36886H4.35229H4.33571H4.31914H4.30257H4.28599H4.26942H4.25285H4.23627H4.2197H4.20312H4.18655H4.16998H4.1534H4.13683H4.12026H4.10368H4.08711H4.07054H4.05396H4.03739H4.02082H4.00424H3.98767H3.9711H3.95452H3.93795H3.92138H3.9048H3.88823H3.87165H3.85508H3.83851H3.82193H3.80536H3.78879H3.77221H3.75564H3.73906H3.72249H3.70592H3.68934H3.67277H3.65619H3.63962H3.62305H3.60647H3.5899H3.57332H3.55675H3.54018H3.5236H3.50703H3.49045H3.47388H3.45731H3.44073H3.42416H3.40758H3.39101H3.37444H3.35786H3.34129H3.32471H3.30814H3.29156H3.27499H3.25841H3.24184H3.22527H3.20869C3.18207 16.4575 3.15724 16.4574 3.13386 16.4573C3.02769 16.4569 2.95168 16.4566 2.87539 16.4663L2.87487 16.4664C2.5467 16.5078 2.39199 16.7155 2.41084 16.9741L11.529 16.4583ZM11.529 16.4583H11.6948M11.529 16.4583H11.6948M11.6948 16.4583H11.7114H11.7279H11.7445H11.7611H11.7777H11.7942H11.8108H11.8274H11.844H11.8605H11.8771H11.8937H11.9103H11.9268H11.9434H11.96H11.9766H11.9931H12.0097H12.0263H12.0429H12.0594H12.076H12.0926H12.1091H12.1257H12.1423H12.1589H12.1754H12.192H12.2086H12.2252H12.2417H12.2583H12.2749H12.2915H12.308H12.3246H12.3412H12.3578H12.3743H12.3909H12.4075H12.424H12.4406H12.4572H12.4738H12.4903H12.5069H12.5235H12.5401H12.5566H12.5732H12.5898H12.6064H12.6229H12.6395H12.6561H12.6727H12.6892H12.7058H12.7224H12.7389H12.7555H12.7721H12.7887H12.8052H12.8218H12.8384H12.855H12.8715H12.8881H12.9047H12.9213H12.9378H12.9544H12.971H12.9875H13.0041H13.0207H13.0373H13.0538H13.0704H13.087H13.1036H13.1201H13.1367H13.1533H13.1698H13.1864H13.203H13.2196H13.2361H13.2527H13.2693H13.2859H13.3024H13.319H13.3356H13.3521H13.3687H13.3853H13.4019H13.4184H13.435H13.4516H13.4682H13.4847H13.5013H13.5179H13.5345H13.551H13.5676H13.5842H13.6007H13.6173H13.6339H13.6505H13.667H13.6836H13.7002H13.7168H13.7333H13.7499H13.7665H13.783H13.7996H13.8162H13.8328H13.8493H13.8659H13.8825H13.899H13.9156H13.9322H13.9488H13.9653H13.9819H13.9985H14.0151H14.0316H14.0482H14.0648H14.0813H14.0979H14.1145H14.1311H14.1476H14.1642H14.1808H14.1974H14.2139H14.2305H14.2471H14.2636H14.2802H14.2968H14.3134H14.3299H14.3465H14.3631H14.3796H14.3962H14.4128H14.4294H14.4459H14.4625H14.4791H14.4957H14.5122H14.5288H14.5454H14.5619H14.5785H14.5951H14.6117H14.6282H14.6448H14.6614H14.6779H14.6945H14.7111H14.7277H14.7442H14.7608H14.7774H14.794H14.8105H14.8271H14.8437H14.8602H14.8768H14.8934H14.91H14.9265H14.9431H14.9597H14.9762H14.9928H15.0094H15.026H15.0425H15.0591H15.0757H15.0923H15.1088H15.1254H15.142H15.1585H15.1751H15.1917H15.2083H15.2248H15.2414H15.258H15.2745H15.2911H15.3077H15.3243H15.3408H15.3574H15.374H15.3905H15.4071H15.4237H15.4403H15.4568H15.4734H15.49H15.5066H15.5231H15.5397H15.5563H15.5728H15.5894H15.606H15.6226H15.6391H15.6557H15.6723H15.6888H15.7054H15.722H15.7386H15.7551H15.7717H15.7883H15.8048H15.8214H15.838H15.8546H15.8711H15.8877H15.9043H15.9209H15.9374H15.954H15.9706H15.9871H16.0037H16.0203H16.0369H16.0534H16.07H16.0866H16.1031H16.1197H16.1363H16.1529H16.1694H16.186H16.2026H16.2191H16.2357H16.2523H16.2689H16.2854H16.302H16.3186H16.3352H16.3517H16.3683H16.3849H16.4014H16.418H16.4346H16.4512H16.4677H16.4843H16.5009H16.5174H16.534H16.5506H16.5672H16.5837H16.6003H16.6169H16.6334H16.65H16.6666H16.6832H16.6997H16.7163H16.7329H16.7495H16.766H16.7826H16.7992H16.8157H16.8323H16.8489H16.8655H16.882H16.8986H16.9152H16.9317H16.9483H16.9649H16.9815H16.998H17.0146H17.0312H17.0478H17.0643H17.0809H17.0975H17.114H17.1306H17.1472H17.1638H17.1803H17.1969H17.2135H17.23H17.2466H17.2632H17.2798H17.2963H17.3129H17.3295H17.3461H17.3626H17.3792H17.3958H17.4123H17.4289H17.4455H17.4621H17.4786H17.4952H17.5118H17.5283H17.5449H17.5615H17.5781H17.5946H17.6112H17.6278H17.6444H17.6609H17.6775H17.6941H17.7106H17.7272H17.7438H17.7604H17.7769H17.7935H17.8101H17.8266H17.8432H17.8598H17.8764H17.8929H17.9095H17.9261H17.9427H17.9592H17.9758H17.9924H18.0089H18.0255H18.0421H18.0587H18.0752H18.0918H18.1084H18.125H18.1415H18.1581H18.1747H18.1912H18.2078H18.2244H18.241H18.2575H18.2741H18.2907H18.3073H18.3238H18.3404H18.357H18.3735H18.3901H18.4067H18.4233H18.4398H18.4564H18.473H18.4896H18.5061H18.5227H18.5393H18.5558H18.5724H18.589H18.6056H18.6221H18.6387H18.6553H18.6719H18.6884H18.705H18.7216H18.7381H18.7547H18.7713H18.7879H18.8044H18.821H18.8376H18.8542H18.8707H18.8873H18.9039H18.9205H18.937H18.9536H18.9702H18.9867H19.0033H19.0199H19.0365H19.053H19.0696H19.0862H19.1028H19.1193H19.1359H19.1525H19.1691H19.1856H19.2022H19.2188H19.2353H19.2519H19.2685H19.2851H19.3016H19.3182H19.3348H19.3514H19.3679H19.3845H19.4011H19.4177H19.4342H19.4508H19.4674H19.4839H19.5005H19.5171H19.5337H19.5502H19.5668H19.5834H19.6H19.6165H19.6331H19.6497H19.6663H19.6828H19.6994H19.716H19.7326H19.7491H19.7657H19.7823H19.7989H19.8154H19.832H19.8486H19.8651H19.8817H19.8983H19.9149H19.9314H19.948H19.9646H19.9812H19.9977H20.0143H20.0309H20.0475H20.064H20.0806H20.0972H20.1138H20.1303H20.1469H20.1635H20.1801C20.6025 16.4583 20.7609 16.5412 20.8245 16.6077C20.884 16.6699 20.9559 16.8188 20.9233 17.2199L20.9232 17.2203M11.6948 16.4583L20.9232 17.2203M20.9232 17.2203C20.8584 18.0275 20.7928 18.8328 20.7198 19.6369L20.7198 19.637M20.9232 17.2203L20.7198 19.637M20.7198 19.637C20.683 20.0426 20.5149 20.3554 20.2623 20.5694C20.0072 20.7854 19.6385 20.9235 19.167 20.9235H19.1669M20.7198 19.637L19.1669 20.9235M19.1669 20.9235C16.0602 20.9245 12.9531 20.9242 9.84614 20.9238C8.29265 20.9236 6.73915 20.9235 5.1857 20.9235C5.06552 20.9235 4.94753 20.9241 4.83083 20.9247C4.57403 20.9261 4.32345 20.9274 4.06946 20.922C3.27486 20.9043 2.72298 20.4091 2.64491 19.691L2.6449 19.6909M19.1669 20.9235L2.6449 19.6909M2.6449 19.6909C2.54679 18.7908 2.47737 17.8852 2.41085 16.9741L2.6449 19.6909Z" fill="#6C7BAD" stroke="#6C7BAD" stroke-width="0.818484"/>
<path d="M4.79706 15.1512C5.03493 14.1439 5.24619 13.1601 5.50319 12.1876C5.70364 11.4296 6.25175 10.9941 7.03939 10.8643C7.86197 10.7288 8.68954 10.628 9.51294 10.4974C9.71755 10.4651 9.79573 10.5441 9.86809 10.7086C10.2149 11.5005 10.5717 12.2876 10.926 13.0755C10.971 13.1754 11.0242 13.2714 11.1298 13.3617C11.1822 12.8932 11.2346 12.4247 11.2912 11.915C11.5598 11.915 11.8152 11.8981 12.0647 11.9255C12.1362 11.9336 12.2344 12.0642 12.2477 12.1489C12.3117 12.5448 12.35 12.9448 12.4065 13.4246C12.488 13.2682 12.5371 13.1827 12.5779 13.0932C12.938 12.2957 13.3023 11.5005 13.6516 10.6982C13.7273 10.524 13.8155 10.4675 14.0093 10.4982C14.8227 10.6248 15.6386 10.7336 16.452 10.8578C17.1482 10.9643 17.7196 11.3086 17.9225 11.9618C18.2444 12.9996 18.4615 14.0681 18.7285 15.1487H4.79706V15.1512Z" fill="#6C7BAD"/>
<path d="M8.70362 6.47448C8.70611 4.84391 10.1059 3.49317 11.7752 3.51091C13.4436 3.52866 14.8235 4.87294 14.821 6.47851C14.8185 8.10423 13.4178 9.44852 11.7402 9.43642C10.0618 9.42433 8.70112 8.09778 8.70362 6.47528V6.47448Z" fill="#6C7BAD"/>
<path d="M11.7531 10.2324C11.8171 10.2324 11.8812 10.23 11.9452 10.2324C12.4351 10.2509 12.6854 10.3799 12.6879 10.6154C12.6921 11.0267 12.2679 11.475 11.8629 11.488C11.274 11.5073 11.0253 11.3444 10.859 10.8283C10.7616 10.5251 10.8315 10.3759 11.1501 10.2937C11.3439 10.2437 11.5493 10.2356 11.7497 10.209C11.7506 10.2162 11.7514 10.2235 11.7522 10.2316L11.7531 10.2324Z" fill="#6C7BAD"/>
<path d="M18.9657 3.16874L19.5662 4.95978C19.6003 5.06058 19.6968 5.12832 19.8058 5.12832H21.7479C21.9915 5.12832 22.093 5.43153 21.8959 5.57023L20.3248 6.67663C20.2366 6.73872 20.1992 6.8492 20.2333 6.95L20.8338 8.74104C20.9095 8.96603 20.6433 9.15312 20.4462 9.01442L18.8751 7.90802C18.7869 7.84593 18.6671 7.84593 18.579 7.90802L17.0078 9.01442C16.8107 9.15312 16.5446 8.96603 16.6203 8.74104L17.2208 6.95C17.2549 6.8492 17.2174 6.73872 17.1293 6.67663L15.5582 5.57023C15.361 5.43153 15.4625 5.12832 15.7062 5.12832H17.6483C17.7572 5.12832 17.8545 5.05978 17.8878 4.95978L18.4883 3.16874C18.564 2.94375 18.8925 2.94375 18.9674 3.16874H18.9657Z" fill="#6C7BAD"/>
</svg>
