<svg width="24" height="18" viewBox="0 0 24 18" fill="none" xmlns="http://www.w3.org/2000/svg">
<path fill-rule="evenodd" clip-rule="evenodd" d="M4.37591 1.05083C2.44277 1.74533 1.8653 4.55765 3.37247 5.93773C4.83915 7.28092 7.10776 6.88503 7.97323 5.13487C8.72755 3.6094 8.15048 1.88031 6.65256 1.17744C5.88255 0.816136 5.14351 0.77506 4.37591 1.05083ZM17.3474 1.17744C15.8495 1.88031 15.2724 3.6094 16.0268 5.13487C17.383 7.87733 21.4793 6.89503 21.4793 3.82707C21.4793 1.60886 19.3449 0.240134 17.3474 1.17744ZM11.2791 3.28026C10.0308 3.59102 9.11517 4.7914 9.12027 6.10987C9.12831 8.17215 10.9361 9.52831 12.8905 8.93812C15.2117 8.23727 15.607 4.86517 13.5113 3.64088C12.8621 3.26147 11.9476 3.11379 11.2791 3.28026ZM2.94972 7.3451C1.9495 7.55318 0.950346 8.34848 0.439642 9.3432C0.00522896 10.1893 0 10.2219 0 12.0597V13.9199L0.972067 14.2087C2.1895 14.5705 2.98659 14.7172 4.39106 14.838L5.49721 14.9331V14.2008C5.49721 11.8253 6.46874 10.0308 8.23964 9.13458C8.61171 8.94637 8.93792 8.77261 8.96434 8.74869C8.99088 8.72478 8.88523 8.52507 8.7297 8.30497C8.57417 8.08486 8.44693 7.8403 8.44693 7.76153C8.44693 7.39874 7.79598 7.27727 5.69832 7.24876C4.51844 7.23268 3.28156 7.27606 2.94972 7.3451ZM16.2788 7.33078C15.7679 7.45387 15.5531 7.58223 15.5531 7.76477C15.5531 7.84179 15.4258 8.08486 15.2703 8.30497C15.1148 8.52507 15.0091 8.72478 15.0357 8.74869C15.0621 8.77261 15.3883 8.94637 15.7604 9.13458C17.5313 10.0308 18.5028 11.8253 18.5028 14.2008V14.9331L19.6089 14.838C21.0134 14.7172 21.8105 14.5705 23.0279 14.2087L24 13.9199V12.0597C24 10.2219 23.9948 10.1893 23.5604 9.3432C23.0206 8.29186 22.0466 7.54953 20.9315 7.33943C20.1135 7.18539 16.9073 7.17931 16.2788 7.33078ZM9.08353 9.82314C8.4543 10.0558 7.75187 10.5899 7.3137 11.1688C6.72027 11.953 6.56983 12.6286 6.56983 14.5113V16.2454L7.40782 16.5052C9.09211 17.0277 9.83866 17.1292 12 17.1292C14.1613 17.1292 14.9079 17.0277 16.5922 16.5052L17.4302 16.2454V14.5183C17.4302 12.5209 17.2602 11.8492 16.5402 11.0015C16.2798 10.695 15.7853 10.2775 15.4413 10.0736C14.8234 9.70761 14.7831 9.70261 12.2011 9.67005C10.2457 9.64532 9.45975 9.68397 9.08353 9.82314Z" fill="white"/>
</svg>
