<svg width="14" height="14" viewBox="0 0 14 14" fill="none" xmlns="http://www.w3.org/2000/svg">
<path d="M4.64303 1.66707C4.64303 1.42707 4.63778 1.22666 4.64303 1.02926C4.63454 0.945193 4.64439 0.860248 4.67185 0.780583C4.6993 0.700918 4.74368 0.628532 4.80176 0.568711C4.85983 0.508891 4.93014 0.46313 5.00757 0.434751C5.08501 0.406373 5.16761 0.396103 5.2494 0.404667C6.57224 0.400267 7.89507 0.400267 9.21792 0.404667C9.29965 0.395644 9.38235 0.405363 9.45999 0.433122C9.53764 0.460881 9.60833 0.505981 9.66698 0.565196C9.72564 0.624411 9.77079 0.696257 9.79921 0.775566C9.82762 0.854875 9.83858 0.939672 9.8313 1.02386C9.84005 1.22186 9.8313 1.41986 9.8313 1.66526H10.5363C11.0347 1.66526 11.5337 1.66106 12.0321 1.66526C12.2847 1.65591 12.5364 1.69961 12.7721 1.79369C13.0077 1.88776 13.2222 2.03025 13.4024 2.21241C13.5826 2.39458 13.7249 2.61261 13.8204 2.85319C13.9159 3.09377 13.9627 3.35186 13.958 3.61167C13.977 6.33167 13.977 9.05167 13.958 11.7717C13.9596 12.0267 13.9113 12.2795 13.8159 12.515C13.7205 12.7505 13.5799 12.9638 13.4026 13.1422C13.2252 13.3206 13.0148 13.4604 12.7837 13.5534C12.5527 13.6463 12.3058 13.6905 12.0578 13.6833C8.84248 13.6921 5.6274 13.6921 2.41251 13.6833C2.15976 13.6887 1.90855 13.6414 1.67413 13.5441C1.43971 13.4468 1.22692 13.3015 1.04871 13.1172C0.87049 12.9328 0.730539 12.7132 0.637325 12.4716C0.544111 12.23 0.49957 11.9715 0.50642 11.7117C0.49786 9.00247 0.49786 6.29325 0.50642 3.58406C0.50781 3.07578 0.705179 2.5888 1.05526 2.2299C1.40534 1.871 1.87957 1.66947 2.37397 1.66947C3.1169 1.65867 3.85808 1.66707 4.64303 1.66707ZM2.0915 11.6973H8.94948C8.95417 10.8136 8.62915 9.96179 8.04137 9.31707C7.4567 8.66701 6.65809 8.26331 5.80034 8.18427C6.34966 8.10227 6.84942 7.81242 7.20179 7.37148C7.55417 6.93054 7.7338 6.37026 7.70547 5.80033C7.67714 5.23039 7.44292 4.69186 7.04866 4.29015C6.6544 3.88843 6.12849 3.65246 5.5739 3.62846C5.04552 3.61198 4.52854 3.7885 4.11474 4.12671C3.70095 4.46491 3.41709 4.94292 3.31357 5.47586C3.25553 5.77447 3.2574 6.0821 3.31902 6.37995C3.38063 6.67779 3.5007 6.95958 3.67191 7.20806C3.84719 7.46358 4.07019 7.6807 4.3279 7.84675C4.5856 8.0128 4.87286 8.12447 5.17296 8.17526C3.24355 8.56766 1.93976 10.0707 2.0915 11.6973ZM11.0586 5.19266C11.5062 5.19266 11.9533 5.18905 12.4009 5.19266C12.6122 5.19266 12.7733 5.13267 12.7733 4.88727C12.7733 4.64187 12.604 4.57526 12.3992 4.57526C11.5144 4.57526 10.6298 4.57526 9.74549 4.57526C9.53656 4.57526 9.36616 4.66227 9.36791 4.88907C9.36966 5.11587 9.53075 5.19746 9.74727 5.19386C10.1844 5.18546 10.6215 5.19266 11.0586 5.19266ZM11.0878 6.49587C10.6408 6.49587 10.1943 6.49887 9.74549 6.49587C9.53481 6.49587 9.36498 6.56846 9.36382 6.79886C9.36265 7.02926 9.53891 7.10666 9.74492 7.10666C10.6285 7.10666 11.5115 7.10666 12.3951 7.10666C12.5929 7.10666 12.7738 7.05026 12.7721 6.80006C12.7703 6.54986 12.6017 6.49646 12.3957 6.50006C11.9609 6.49706 11.5244 6.49527 11.0878 6.49587ZM7.22025 2.30186C7.6171 2.30186 8.01395 2.30186 8.41022 2.30186C8.60806 2.30186 8.7353 2.25326 8.74113 2.00186C8.74697 1.75046 8.65999 1.64847 8.43063 1.64847H6.05011C5.82426 1.64847 5.72913 1.74986 5.73555 1.99646C5.74197 2.24306 5.85868 2.30126 6.06119 2.29946C6.44695 2.29946 6.8339 2.30186 7.22025 2.30186Z" fill="#1D9BF0"/>
</svg>
