<svg width="25" height="24" viewBox="0 0 25 24" fill="none" xmlns="http://www.w3.org/2000/svg">
<rect width="24.6826" height="24" rx="4" fill="#1C1E38"/>
<g clip-path="url(#clip0_6389_59730)">
<path d="M17.0081 10H15.6748L12.6748 18H14.0081L14.7548 16H17.9215L18.6748 18H20.0081L17.0081 10ZM15.2615 14.6667L16.3415 11.78L17.4215 14.6667H15.2615Z" fill="#0996FF"/>
<path d="M13.2546 13.7133L11.5613 12.04L11.5813 12.02C12.7413 10.7267 13.568 9.24 14.0546 7.66667H16.008V6.33333H11.3413V5H10.008V6.33333H5.34131V7.66H12.788C12.3413 8.94667 11.6346 10.1667 10.6746 11.2333C10.0546 10.5467 9.54131 9.79333 9.13464 9H7.80131C8.28798 10.0867 8.95464 11.1133 9.78798 12.04L6.39464 15.3867L7.34131 16.3333L10.6746 13L12.748 15.0733L13.2546 13.7133Z" fill="#FFC10E"/>
</g>
<defs>
<clipPath id="clip0_6389_59730">
<rect width="16" height="16" fill="white" transform="translate(4.34131 4)"/>
</clipPath>
</defs>
</svg>
