<svg width="43" height="43" viewBox="0 0 43 43" fill="none" xmlns="http://www.w3.org/2000/svg">
<rect x="0.666992" y="0.91748" width="41.9997" height="41.9997" rx="8.99993" fill="#00C146"/>
<rect x="11.165" y="12.9175" width="20.9998" height="14.2499" rx="2.99998" fill="white"/>
<path fill-rule="evenodd" clip-rule="evenodd" d="M21.9964 19.5841C23.0089 19.5841 23.8297 18.7633 23.8297 17.7508C23.8297 16.7383 23.0089 15.9175 21.9964 15.9175C20.9839 15.9175 20.1631 16.7383 20.1631 17.7508C20.1631 18.7633 20.9839 19.5841 21.9964 19.5841Z" fill="#39D389"/>
<path fill-rule="evenodd" clip-rule="evenodd" d="M22.0381 24.1677C23.5548 24.1677 24.6975 24.1677 25.4136 24.1677C25.8278 24.1677 26.1714 23.8279 26.0818 23.4235C25.7021 21.7089 24.0359 20.4177 22.0381 20.4177C20.0402 20.4177 18.3741 21.7089 17.9943 23.4235C17.9047 23.8279 18.2495 24.1677 18.6637 24.1677C19.6954 24.1677 20.1579 24.1677 22.0381 24.1677Z" fill="#39D389"/>
<path fill-rule="evenodd" clip-rule="evenodd" d="M10.665 29.9175C10.665 29.3652 11.1128 28.9175 11.665 28.9175H31.6649C32.2171 28.9175 32.6649 29.3652 32.6649 29.9175C32.6649 30.4698 32.2171 30.9175 31.6649 30.9175H11.665C11.1128 30.9175 10.665 30.4698 10.665 29.9175Z" fill="#1D9BF0"/>
<path fill-rule="evenodd" clip-rule="evenodd" d="M10.665 29.9175C10.665 29.3652 11.1128 28.9175 11.665 28.9175H31.6649C32.2171 28.9175 32.6649 29.3652 32.6649 29.9175C32.6649 30.4698 32.2171 30.9175 31.6649 30.9175H11.665C11.1128 30.9175 10.665 30.4698 10.665 29.9175Z" fill="white"/>
</svg>
