<svg width="24" height="24" viewBox="0 0 24 24" fill="none" xmlns="http://www.w3.org/2000/svg">
<rect width="24" height="24" rx="4" fill="#1C1E38"/>
<g clip-path="url(#clip0_1019_94672)">
<path d="M7.69981 12.8374C7.91003 12.8374 8.08026 12.6668 8.08026 12.4565C8.08026 12.2463 7.91003 12.0756 7.69981 12.0756C7.48959 12.0756 7.31859 12.2463 7.31859 12.4565C7.31859 12.6668 7.48921 12.8374 7.69981 12.8374ZM7.43589 12.6089H7.54824C7.56042 12.6565 7.57794 12.7022 7.60079 12.7445C7.53072 12.7205 7.47245 12.6717 7.43589 12.6089ZM7.69943 12.7597C7.66782 12.714 7.64306 12.6633 7.62669 12.6089H7.77217C7.75579 12.6633 7.73104 12.714 7.69943 12.7597ZM7.99419 12.3803C8.00029 12.4047 8.00409 12.4302 8.00409 12.4565C8.00409 12.4828 8.00029 12.5083 7.99419 12.5327H7.86547C7.86852 12.5076 7.8708 12.4824 7.8708 12.4565C7.8708 12.4306 7.86852 12.4055 7.86547 12.3803H7.99419ZM7.96296 12.3042H7.85062C7.83843 12.2566 7.82091 12.2109 7.79806 12.1686C7.86814 12.1926 7.9264 12.2409 7.96296 12.3042ZM7.85062 12.6089H7.96296C7.9264 12.6721 7.86814 12.7205 7.79806 12.7445C7.82091 12.7022 7.83843 12.6565 7.85062 12.6089ZM7.69943 12.1533C7.73104 12.199 7.75579 12.2497 7.77217 12.3042H7.62669C7.64306 12.2497 7.66782 12.199 7.69943 12.1533ZM7.61031 12.3803H7.78854C7.79197 12.4055 7.79464 12.4306 7.79464 12.4565C7.79464 12.4824 7.79197 12.5079 7.78854 12.5327H7.61031C7.60688 12.5079 7.60422 12.4824 7.60422 12.4565C7.60422 12.4306 7.60688 12.4055 7.61031 12.3803ZM7.60079 12.1686C7.57794 12.2109 7.56042 12.2566 7.54824 12.3042H7.43589C7.47245 12.2413 7.53072 12.1926 7.60079 12.1686ZM7.53338 12.3803C7.53034 12.4055 7.52805 12.4306 7.52805 12.4565C7.52805 12.4824 7.53034 12.5076 7.53338 12.5327H7.40466C7.39857 12.5083 7.39476 12.4828 7.39476 12.4565C7.39476 12.4302 7.39857 12.4047 7.40466 12.3803H7.53338Z" fill="white"/>
<path d="M9.84544 11.5549C9.79974 11.6029 9.75442 11.6532 9.70644 11.7011C8.56241 12.8457 7.41762 13.9899 6.2736 15.1344C5.66464 15.7434 5.66541 16.4435 6.27474 17.0537C6.52152 17.3005 6.76678 17.5492 7.01546 17.7937C7.54063 18.3098 8.27526 18.3125 8.79891 17.791C9.96845 16.6271 11.1334 15.4581 12.3003 14.2919C12.3479 14.2443 12.3986 14.199 12.4648 14.1365C12.6682 14.6743 12.7204 15.2014 12.6274 15.7427C12.5155 16.394 12.2199 16.9501 11.7504 17.4159C11.1917 17.9704 10.6387 18.5303 10.08 19.0845C8.84728 20.3075 6.95834 20.3045 5.72634 19.0796C5.44719 18.8023 5.16804 18.525 4.89155 18.2447C3.70944 17.0464 3.70068 15.1584 4.87708 13.9594C5.46356 13.3614 6.04776 12.7596 6.6571 12.1852C7.52312 11.369 8.54566 11.1485 9.68816 11.4715C9.73081 11.4837 9.77232 11.4993 9.81345 11.516C9.82297 11.5199 9.82831 11.5339 9.84544 11.5553V11.5549Z" fill="#1D9BF0"/>
<path d="M14.1111 12.4017C14.1721 12.3674 14.2444 12.3441 14.2924 12.2965C15.4387 11.1546 16.5828 10.0101 17.7272 8.86556C18.3354 8.2573 18.3354 7.55419 17.7275 6.94593C17.4808 6.69912 17.2359 6.4504 16.9868 6.20588C16.4605 5.6894 15.7259 5.68712 15.203 6.20778C14.0338 7.37213 12.8681 8.53991 11.7035 9.70883C11.6559 9.75644 11.6334 9.82957 11.5767 9.87299C11.384 9.49668 11.328 9.13561 11.331 8.76844C11.3379 7.95373 11.6129 7.2392 12.1856 6.65379C12.7759 6.05048 13.3712 5.45212 13.9756 4.8629C15.1592 3.70959 17.0356 3.71416 18.2192 4.86632C18.533 5.17179 18.8434 5.48068 19.1477 5.79567C20.281 6.96878 20.2856 8.84042 19.15 10.0112C18.5581 10.6218 17.9618 11.2289 17.3444 11.8132C16.4792 12.6313 15.4559 12.8484 14.3137 12.5289C14.2612 12.514 14.2117 12.4889 14.1606 12.4687C14.1439 12.4462 14.1271 12.4241 14.1104 12.4017H14.1111Z" fill="#1D9BF0"/>
<path d="M7.66258 15.1116C7.65992 14.7905 7.77455 14.5152 8 14.2897C9.58313 12.7045 12.7035 9.55769 14.292 7.97742C14.7745 7.49713 15.5243 7.51656 16 8.00027C16.4707 8.47904 16.4821 9.2168 16.0065 9.69481C14.4306 11.2785 11.3117 14.4177 9.72899 15.9945C9.35234 16.37 8.89915 16.4409 8.41244 16.2485C7.95125 16.0661 7.66144 15.6109 7.66258 15.1116Z" fill="#FFC10E"/>
</g>
<defs>
<clipPath id="clip0_1019_94672">
<rect width="16" height="16" fill="white" transform="matrix(-1 0 0 -1 20 20)"/>
</clipPath>
</defs>
</svg>
