<svg width="24" height="24" viewBox="0 0 24 24" fill="none" xmlns="http://www.w3.org/2000/svg">
<rect width="24" height="24" rx="4" fill="#1C1E38"/>
<g clip-path="url(#clip0_8868_82767)">
<path d="M7.69962 12.8376C7.90984 12.8376 8.08008 12.6669 8.08008 12.4567C8.08008 12.2464 7.90984 12.0758 7.69962 12.0758C7.4894 12.0758 7.31841 12.2464 7.31841 12.4567C7.31841 12.6669 7.48902 12.8376 7.69962 12.8376ZM7.43571 12.609H7.54805C7.56024 12.6566 7.57776 12.7023 7.60061 12.7446C7.53053 12.7206 7.47227 12.6719 7.43571 12.609ZM7.69924 12.7599C7.66763 12.7142 7.64288 12.6635 7.6265 12.609H7.77198C7.75561 12.6635 7.73085 12.7142 7.69924 12.7599ZM7.99401 12.3805C8.0001 12.4049 8.00391 12.4304 8.00391 12.4567C8.00391 12.483 8.0001 12.5085 7.99401 12.5329H7.86529C7.86833 12.5077 7.87062 12.4826 7.87062 12.4567C7.87062 12.4308 7.86833 12.4056 7.86529 12.3805H7.99401ZM7.96278 12.3043H7.85043C7.83825 12.2567 7.82073 12.211 7.79788 12.1687C7.86795 12.1927 7.92622 12.2411 7.96278 12.3043ZM7.85043 12.609H7.96278C7.92622 12.6723 7.86795 12.7206 7.79788 12.7446C7.82073 12.7023 7.83825 12.6566 7.85043 12.609ZM7.69924 12.1535C7.73085 12.1992 7.75561 12.2499 7.77198 12.3043H7.6265C7.64288 12.2499 7.66763 12.1992 7.69924 12.1535ZM7.61013 12.3805H7.78836C7.79179 12.4056 7.79445 12.4308 7.79445 12.4567C7.79445 12.4826 7.79179 12.5081 7.78836 12.5329H7.61013C7.6067 12.5081 7.60404 12.4826 7.60404 12.4567C7.60404 12.4308 7.6067 12.4056 7.61013 12.3805ZM7.60061 12.1687C7.57776 12.211 7.56024 12.2567 7.54805 12.3043H7.43571C7.47227 12.2415 7.53053 12.1927 7.60061 12.1687ZM7.5332 12.3805C7.53015 12.4056 7.52787 12.4308 7.52787 12.4567C7.52787 12.4826 7.53015 12.5077 7.5332 12.5329H7.40448C7.39838 12.5085 7.39458 12.483 7.39458 12.4567C7.39458 12.4304 7.39838 12.4049 7.40448 12.3805H7.5332Z" fill="white"/>
<path d="M9.84544 11.5551C9.79974 11.6031 9.75442 11.6534 9.70644 11.7014C8.56241 12.8459 7.41762 13.9901 6.2736 15.1346C5.66464 15.7437 5.66541 16.4437 6.27474 17.0539C6.52152 17.3007 6.76678 17.5494 7.01546 17.7939C7.54063 18.31 8.27526 18.3127 8.79891 17.7913C9.96845 16.6273 11.1334 15.4584 12.3003 14.2921C12.3479 14.2445 12.3986 14.1992 12.4648 14.1367C12.6682 14.6745 12.7204 15.2017 12.6274 15.7429C12.5155 16.3942 12.2199 16.9503 11.7504 17.4161C11.1917 17.9707 10.6387 18.5306 10.08 19.0847C8.84728 20.3078 6.95834 20.3047 5.72634 19.0798C5.44719 18.8025 5.16804 18.5252 4.89155 18.2449C3.70944 17.0467 3.70068 15.1586 4.87708 13.9596C5.46356 13.3616 6.04776 12.7599 6.6571 12.1855C7.52312 11.3693 8.54566 11.1487 9.68816 11.4717C9.73081 11.4839 9.77232 11.4995 9.81345 11.5163C9.82297 11.5201 9.82831 11.5342 9.84544 11.5555V11.5551Z" fill="#1D9BF0"/>
<path d="M14.1114 12.4014C14.1724 12.3672 14.2447 12.3439 14.2927 12.2963C15.439 11.1544 16.5831 10.0099 17.7275 8.86535C18.3357 8.25708 18.3357 7.55398 17.7278 6.94571C17.4811 6.6989 17.2362 6.45019 16.9871 6.20566C16.4608 5.68919 15.7262 5.68691 15.2033 6.20757C14.0341 7.37192 12.8684 8.5397 11.7038 9.70862C11.6562 9.75623 11.6337 9.82935 11.577 9.87277C11.3843 9.49647 11.3283 9.13539 11.3313 8.76822C11.3382 7.95352 11.6132 7.23899 12.1859 6.65358C12.7762 6.05026 13.3715 5.4519 13.9759 4.86268C15.1595 3.70938 17.0359 3.71395 18.2195 4.86611C18.5333 5.17158 18.8437 5.48047 19.148 5.79546C20.2813 6.96857 20.2859 8.84021 19.1503 10.011C18.5584 10.6216 17.9621 11.2287 17.3447 11.813C16.4795 12.6311 15.4562 12.8482 14.314 12.5287C14.2615 12.5138 14.212 12.4887 14.1609 12.4685C14.1442 12.446 14.1274 12.4239 14.1107 12.4014H14.1114Z" fill="#1D9BF0"/>
<path d="M7.66283 15.1114C7.66016 14.7903 7.77479 14.5149 8.00024 14.2895C9.58337 12.7042 12.7037 9.55748 14.2922 7.97721C14.7747 7.49692 15.5246 7.51634 16.0002 8.00006C16.471 8.47883 16.4824 9.21659 16.0067 9.69459C14.4308 11.2783 11.312 14.4174 9.72923 15.9943C9.35259 16.3698 8.89939 16.4407 8.41269 16.2483C7.9515 16.0659 7.66168 15.6107 7.66283 15.1114Z" fill="#FFC10E"/>
</g>
<defs>
<clipPath id="clip0_8868_82767">
<rect width="16" height="16" fill="white" transform="matrix(-1 0 0 -1 20 20)"/>
</clipPath>
</defs>
</svg>
