<svg width="33" height="32" viewBox="0 0 33 32" fill="none" xmlns="http://www.w3.org/2000/svg">
<path d="M16.1309 16.086C16.1309 19.026 13.9049 21.098 11.1329 21.098C8.37486 21.098 6.12086 19.026 6.12086 16.086C6.12086 13.16 8.37486 11.088 11.1329 11.088C13.9189 11.088 16.1309 13.16 16.1309 16.086ZM8.13686 16.086C8.13686 18.074 9.35486 19.348 11.1329 19.348C12.8969 19.348 14.1149 18.074 14.1149 16.086C14.1149 14.098 12.8969 12.852 11.1329 12.852C9.35486 12.852 8.13686 14.098 8.13686 16.086ZM17.113 16.1C17.113 13.174 19.255 11.102 22.069 11.102C24.239 11.102 26.003 12.264 26.661 14.266H24.407C23.945 13.328 23.105 12.866 22.055 12.866C20.347 12.866 19.129 14.112 19.129 16.1C19.129 18.074 20.347 19.334 22.055 19.334C23.105 19.334 23.945 18.872 24.407 17.92H26.661C26.003 19.936 24.239 21.084 22.069 21.084C19.255 21.084 17.113 19.026 17.113 16.1Z" fill="white"/>
<rect x="1.5" y="1" width="30" height="30" rx="15" stroke="white" stroke-width="2"/>
</svg>
