<svg width="20" height="19" viewBox="0 0 20 19" fill="none" xmlns="http://www.w3.org/2000/svg">
<path d="M11.1734 9.44031C11.1734 9.8943 10.7948 10.2688 10.336 10.2688C9.87712 10.2688 9.49854 9.8943 9.49854 9.44031C9.49854 8.98633 9.87712 8.61182 10.336 8.61182C10.7948 8.61182 11.1734 8.98633 11.1734 9.44031Z" fill="#204593"/>
<path d="M8.96988 9.40791C8.96988 9.8278 8.62573 10.1683 8.20127 10.1683C7.77681 10.1683 7.43262 9.8278 7.43262 9.40791C7.43262 8.98798 7.77681 8.64746 8.20127 8.64746C8.62573 8.64746 8.96988 8.98798 8.96988 9.40791Z" fill="#4692CF"/>
<path d="M8.93234 7.35233C8.93234 7.68151 8.65703 7.95389 8.32432 7.95389C7.99166 7.95389 7.71631 7.68151 7.71631 7.35233C7.71631 7.0232 7.99166 6.75083 8.32432 6.75083C8.65703 6.7395 8.93234 7.01187 8.93234 7.35233Z" fill="#4692CF"/>
<path d="M8.93234 11.5517C8.93234 11.8809 8.65703 12.1533 8.32432 12.1533C7.99166 12.1533 7.71631 11.8809 7.71631 11.5517C7.71631 11.2226 7.99166 10.9502 8.32432 10.9502C8.65703 10.9502 8.93234 11.2226 8.93234 11.5517Z" fill="#4692CF"/>
<path d="M13.2256 9.40552C13.2256 9.83685 12.87 10.1773 12.4456 10.1773C12.0097 10.1773 11.6655 9.82546 11.6655 9.40552C11.6655 8.97425 12.0212 8.63379 12.4456 8.63379C12.87 8.63379 13.2256 8.97425 13.2256 9.40552Z" fill="#4692CF"/>
<path opacity="0.8" d="M14.9426 9.39375C14.9426 9.73426 14.6673 10.018 14.3116 10.018C13.9675 10.018 13.6807 9.74559 13.6807 9.39375C13.6807 9.05328 13.956 8.76953 14.3116 8.76953C14.6558 8.76953 14.9426 9.05328 14.9426 9.39375Z" fill="#4692CF"/>
<path opacity="0.8" d="M7.07538 9.39375C7.07538 9.73426 6.80008 10.018 6.44445 10.018C6.10026 10.018 5.81348 9.74559 5.81348 9.39375C5.81348 9.05328 6.08883 8.76953 6.44445 8.76953C6.80008 8.76953 7.07538 9.05328 7.07538 9.39375Z" fill="#4692CF"/>
<path opacity="0.3" d="M14.7054 11.4962C14.7054 11.7119 14.5333 11.8821 14.3154 11.8821C14.0974 11.8821 13.9253 11.7119 13.9253 11.4962C13.9253 11.2806 14.0974 11.1104 14.3154 11.1104C14.5333 11.1104 14.7054 11.2806 14.7054 11.4962Z" fill="#4692CF"/>
<path opacity="0.8" d="M10.8274 5.66176C10.8274 5.9228 10.6094 6.13841 10.3456 6.13841C10.0817 6.13841 9.86377 5.9228 9.86377 5.66176C9.86377 5.40072 10.0817 5.18506 10.3456 5.18506C10.6094 5.18506 10.8274 5.40072 10.8274 5.66176Z" fill="#4692CF"/>
<path opacity="0.4" d="M8.84356 5.66161C8.84356 5.92265 8.63704 6.12692 8.37322 6.12692C8.10935 6.12692 7.90283 5.92265 7.90283 5.66161C7.90283 5.40057 8.10935 5.19629 8.37322 5.19629C8.63704 5.19629 8.84356 5.40057 8.84356 5.66161Z" fill="#4692CF"/>
<path opacity="0.3" d="M12.9056 13.2318C12.9056 13.4815 12.699 13.6858 12.4466 13.6858C12.1943 13.6858 11.9878 13.4815 11.9878 13.2318C11.9878 12.9821 12.1943 12.7778 12.4466 12.7778C12.699 12.7778 12.9056 12.9821 12.9056 13.2318Z" fill="#4692CF"/>
<path opacity="0.8" d="M10.9632 13.232C10.9632 13.493 10.7452 13.7087 10.4813 13.7087C10.2175 13.7087 9.99951 13.493 9.99951 13.232C9.99951 12.9709 10.2175 12.7553 10.4813 12.7553C10.7452 12.7439 10.9632 12.9596 10.9632 13.232Z" fill="#4692CF"/>
<path opacity="0.3" d="M6.91584 7.36451C6.91584 7.58012 6.73229 7.76173 6.51429 7.76173C6.29635 7.76173 6.11279 7.58012 6.11279 7.36451C6.11279 7.14885 6.29635 6.96729 6.51429 6.96729C6.74372 6.97862 6.91584 7.14885 6.91584 7.36451Z" fill="#4692CF"/>
<path d="M13.0744 11.471C13.0744 11.8228 12.7876 12.1066 12.432 12.1066C12.0763 12.1066 11.7896 11.8228 11.7896 11.471C11.7896 11.1192 12.0763 10.8354 12.432 10.8354C12.7876 10.8354 13.0744 11.1192 13.0744 11.471Z" fill="#4692CF"/>
<path d="M13.0525 7.35233C13.0525 7.68151 12.7771 7.95389 12.4444 7.95389C12.1118 7.95389 11.8364 7.68151 11.8364 7.35233C11.8364 7.0232 12.1118 6.75083 12.4444 6.75083C12.7771 6.7395 13.0525 7.01187 13.0525 7.35233Z" fill="#4692CF"/>
<path d="M11.1144 7.31831C11.1144 7.72686 10.7817 8.05599 10.3687 8.05599C9.95571 8.05599 9.62305 7.72686 9.62305 7.31831C9.62305 6.9097 9.95571 6.58057 10.3687 6.58057C10.7817 6.58057 11.1144 6.9097 11.1144 7.31831Z" fill="#4692CF"/>
<path d="M11.1256 11.5748C11.1256 11.9834 10.7814 12.3238 10.3685 12.3238C9.95547 12.3238 9.61133 11.9834 9.61133 11.5748C9.61133 11.1662 9.95547 10.8257 10.3685 10.8257C10.7814 10.8257 11.1256 11.1549 11.1256 11.5748Z" fill="#4692CF"/>
<path d="M16.7123 10.6452C16.4256 10.6452 16.1732 10.8494 16.1158 11.1218C16.0241 11.5645 15.8749 11.9844 15.6799 12.3816C15.6799 12.393 15.6799 12.393 15.6684 12.393C15.5422 12.654 15.3931 12.9037 15.2325 13.1307C15.2325 13.1307 15.2325 13.142 15.221 13.142C14.808 13.7435 14.2918 14.2543 13.6838 14.6628L13.6723 14.6742C13.4314 14.8331 13.1905 14.9806 12.9266 15.1055C12.9266 15.1055 12.9152 15.1168 12.9152 15.1055C12.2727 15.4119 11.5615 15.6049 10.8273 15.6616C10.8159 15.6616 10.8159 15.6616 10.8159 15.6616C10.529 15.6843 10.2537 15.6843 9.96693 15.6616H9.95545C9.94397 15.6616 9.94397 15.6616 9.93249 15.6616C9.18685 15.6049 8.4756 15.4119 7.84462 15.1055C7.83314 15.1055 7.83314 15.1055 7.83314 15.0941C7.56932 14.9693 7.31693 14.8217 7.0875 14.6628C7.0875 14.6628 7.07602 14.6628 7.07602 14.6515C6.468 14.2429 5.95179 13.7322 5.5388 13.1307L5.52733 13.1193C5.36672 12.881 5.21759 12.6426 5.0914 12.3816C5.0914 12.3816 5.07992 12.3703 5.0914 12.3703C4.89638 11.973 4.74724 11.5418 4.65547 11.1105C4.59811 10.8267 4.34573 10.6338 4.05893 10.6338H1.97106C1.60396 10.6338 1.3057 10.9629 1.36305 11.3261C1.50072 12.1887 1.76457 13.0059 2.14314 13.7663C2.14314 13.7776 2.14314 13.7889 2.15461 13.7889C2.34963 14.1861 2.57907 14.572 2.83145 14.9352C2.83145 14.9466 2.84292 14.9466 2.84292 14.9579C3.47387 15.8772 4.28837 16.683 5.21759 17.3186C5.22906 17.33 5.22906 17.33 5.24053 17.33C5.60765 17.5797 5.99767 17.8066 6.39917 17.9882C6.41065 17.9882 6.41065 17.9996 6.42213 17.9996C7.42016 18.4649 8.50999 18.7713 9.66866 18.8621C9.68015 18.8621 9.68015 18.8621 9.69158 18.8621C9.70306 18.8621 9.70306 18.8621 9.71454 18.8621C10.162 18.8962 10.5979 18.8962 11.0338 18.8621C11.0453 18.8621 11.0453 18.8621 11.0568 18.8621C12.2039 18.7827 13.3052 18.4762 14.3033 17.9996C14.3147 17.9996 14.3262 17.9996 14.3262 17.9882C14.7277 17.7953 15.1178 17.5683 15.4849 17.3186C15.4963 17.3186 15.4963 17.3072 15.5078 17.3072C16.437 16.683 17.2515 15.8772 17.8939 14.9579C17.8939 14.9466 17.9054 14.9466 17.9054 14.9352C18.1578 14.572 18.3872 14.1861 18.5708 13.7889C18.5823 13.7776 18.5823 13.7776 18.5823 13.7663C18.9494 13.0059 19.2132 12.1887 19.3624 11.3261C19.4197 10.9629 19.1329 10.6338 18.7543 10.6338H16.7123V10.6452Z" fill="#204593"/>
<path d="M14.4315 3.54138C14.3971 3.54138 14.3512 3.53004 14.3167 3.50734C14.0414 3.32575 13.7661 3.16685 13.4908 3.04201L13.4449 3.01931C13.4334 3.01931 13.4219 3.00796 13.4105 2.99662C13.4105 2.99662 13.399 2.99661 13.3875 2.98527C13.3187 2.93987 13.2843 2.86042 13.3072 2.78098C13.3187 2.72423 13.3302 2.66748 13.3416 2.59939C13.3875 1.99786 12.9172 1.46444 12.3092 1.41905C12.2862 1.41905 12.2518 1.41905 12.2289 1.41905C11.7356 1.41905 11.2997 1.74818 11.162 2.2135C11.139 2.29295 11.0588 2.3497 10.9784 2.3497C10.967 2.3497 10.9096 2.3497 10.8981 2.3497C10.8866 2.3497 10.8752 2.3497 10.8637 2.3497C10.7031 2.33835 10.554 2.33835 10.3934 2.33835C10.2328 2.33835 10.0722 2.3497 9.92306 2.36105H9.91158C9.85422 2.36105 9.80829 2.33835 9.76242 2.3043C9.71654 2.2589 9.70506 2.20216 9.71654 2.14541C9.78538 1.71413 9.96893 1.30555 10.2442 0.96507C10.7375 0.36355 11.4603 0.0117188 12.2404 0.0117188C12.2977 0.0117188 12.3665 0.0117194 12.4239 0.0230688C12.5845 0.0344183 12.7337 0.0571161 12.8713 0.0911645C13.8694 0.340852 14.615 1.14666 14.7756 2.15676C14.7986 2.36105 14.81 2.54264 14.7986 2.72423C14.7756 2.97391 14.7297 3.21225 14.638 3.43924C14.615 3.49599 14.5691 3.54138 14.5118 3.55274C14.4773 3.54138 14.4544 3.54138 14.4315 3.54138Z" fill="#EF3D3B"/>
<path d="M17.632 9.99839C17.5861 9.99839 17.5402 9.97567 17.4943 9.94163C17.4484 9.8962 17.4255 9.83949 17.4369 9.78273C17.4599 9.46493 17.4599 9.14718 17.4369 8.84071C17.4369 8.80666 17.4369 8.76128 17.4369 8.76128C17.4369 8.74995 17.4369 8.73857 17.4369 8.72724C17.4369 8.63643 17.4943 8.56834 17.5746 8.54562C17.632 8.53429 17.6893 8.51158 17.7467 8.47753C18.2974 8.20516 18.5268 7.5469 18.2629 7.0021C18.0794 6.62759 17.6893 6.37789 17.2649 6.37789C17.1731 6.37789 17.0928 6.38927 17.001 6.41193C16.9895 6.41193 16.9666 6.41193 16.9551 6.41193C16.9207 6.41193 16.8863 6.4006 16.8519 6.38927C16.8175 6.36655 16.7831 6.33251 16.7716 6.28713V6.27575C16.7601 6.26441 16.7601 6.25308 16.7486 6.23037C16.5995 5.93528 16.4389 5.65153 16.2668 5.40187C16.2324 5.35644 16.2209 5.28835 16.2439 5.23159C16.2668 5.17488 16.3012 5.12945 16.3586 5.10679C16.6454 4.99326 16.9436 4.93652 17.2534 4.93652C17.3911 4.93652 17.5173 4.94788 17.6549 4.97055C18.4809 5.0954 19.2036 5.61748 19.5707 6.36655C19.6395 6.51407 19.6969 6.63892 19.7313 6.77511C20.0181 7.76251 19.6854 8.80666 18.8709 9.44226C18.7218 9.55573 18.5612 9.65787 18.3891 9.74868C18.1597 9.86215 17.9188 9.93024 17.6779 9.97567C17.6549 9.99839 17.6434 9.99839 17.632 9.99839Z" fill="#4692CF"/>
<path d="M3.09558 9.99605C2.65965 9.92796 2.24666 9.74635 1.90251 9.47398C1.24862 8.9519 0.892991 8.14612 0.95035 7.31757C0.961821 7.15872 0.984765 7.01115 1.01918 6.87497C1.27156 5.88757 2.08606 5.14983 3.10705 4.99098C3.24471 4.96826 3.3709 4.96826 3.50856 4.96826C3.56592 4.96826 3.62328 4.96826 3.68064 4.96826C3.93302 4.99098 4.1854 5.03636 4.40336 5.12717C4.46072 5.14983 4.50661 5.19526 4.51808 5.25202C4.54102 5.30873 4.52955 5.36549 4.49513 5.42225C4.31159 5.69462 4.15098 5.967 4.02479 6.23942L4.00185 6.27346C4.00185 6.28479 3.97891 6.33017 3.97891 6.33017C3.94449 6.39827 3.87566 6.43236 3.80683 6.43236C3.79536 6.43236 3.77241 6.43236 3.76094 6.42098C3.70358 6.40965 3.64623 6.39827 3.58886 6.38693C3.56592 6.38693 3.54298 6.38693 3.50856 6.38693C2.9235 6.38693 2.43021 6.84092 2.3958 7.40838C2.36138 7.91912 2.69406 8.39577 3.18735 8.54334C3.26765 8.56605 3.32501 8.64548 3.32501 8.7249C3.32501 8.73629 3.32501 8.75895 3.32501 8.77033C3.32501 8.793 3.32501 8.80438 3.32501 8.81571C3.32501 8.82704 3.32501 8.83843 3.32501 8.84976C3.30207 9.19027 3.30207 9.49669 3.32501 9.78044C3.32501 9.83715 3.30207 9.89392 3.26765 9.93929C3.23324 9.97334 3.18735 9.99605 3.12999 9.99605C3.11852 9.99605 3.10705 9.99605 3.09558 9.99605Z" fill="#4692CF"/>
<path d="M3.85508 6.35421C3.8092 6.35421 3.76331 6.34288 3.72889 6.30884C3.38474 6.03646 3.12089 5.67324 2.96028 5.26468C2.66202 4.49292 2.75379 3.61901 3.22414 2.9267C3.28149 2.8359 3.35033 2.75646 3.41916 2.67701C3.90097 2.13224 4.60075 1.81445 5.33494 1.81445C5.65614 1.81445 5.96588 1.8712 6.26415 1.9847C6.43622 2.04144 6.59681 2.13224 6.76893 2.24573C6.9754 2.38192 7.17043 2.55217 7.31954 2.74511C7.35398 2.79051 7.36547 2.84725 7.35398 2.904C7.3425 2.96074 7.29663 3.00614 7.25075 3.04019C6.95248 3.18773 6.68861 3.33527 6.42474 3.51687L6.34447 3.57361C6.31003 3.59631 6.27563 3.60766 6.24119 3.60766C6.19531 3.60766 6.13796 3.58496 6.10356 3.55092C6.05769 3.50552 6.01176 3.47147 5.9544 3.43742C5.77085 3.31258 5.5529 3.24448 5.33494 3.24448C4.96785 3.24448 4.61222 3.42607 4.40573 3.7325C4.11894 4.16379 4.16482 4.7426 4.52045 5.10578C4.58927 5.17387 4.58927 5.27601 4.54339 5.35549C4.53192 5.36682 4.53192 5.37815 4.52045 5.38953L4.4975 5.42358C4.30248 5.71866 4.14188 5.99103 4.01569 6.26341C3.99275 6.32017 3.93538 6.35421 3.87803 6.3656C3.8895 6.35421 3.86656 6.35421 3.85508 6.35421Z" fill="#1DAE4B"/>
<path d="M6.33263 3.55236C6.30972 3.55236 6.29823 3.55236 6.27527 3.54102C6.21791 3.51832 6.17204 3.48427 6.14913 3.42752C5.98849 3.01894 5.94261 2.57632 6.01145 2.14504C6.13764 1.32788 6.66534 0.61287 7.42246 0.249689C7.59453 0.170243 7.77809 0.102145 7.97312 0.0567472C8.15667 0.0113494 8.35171 0 8.53526 0C9.30386 0 10.0495 0.351833 10.5313 0.95335C10.6575 1.10089 10.7608 1.25979 10.8411 1.43002C10.9444 1.64567 11.0246 1.884 11.0705 2.12234C11.082 2.17909 11.0591 2.23584 11.0246 2.28123C10.9902 2.32663 10.9329 2.34933 10.8755 2.34933H10.864C10.7034 2.33798 10.5428 2.33798 10.3822 2.33798C10.2216 2.33798 10.061 2.34933 9.91188 2.36067L9.866 2.16774L9.88891 2.36067C9.87743 2.36067 9.86595 2.36067 9.85452 2.36067C9.84304 2.36067 9.82008 2.36067 9.80859 2.36067C9.72832 2.36067 9.64801 2.30393 9.62509 2.22448C9.60213 2.16774 9.57917 2.11099 9.55625 2.05424C9.3727 1.66836 8.98263 1.43002 8.55817 1.43002C8.3861 1.43002 8.22551 1.46408 8.07635 1.54352C7.60601 1.77051 7.35362 2.29258 7.47982 2.79196C7.50278 2.88275 7.45691 2.97355 7.37659 3.01894L7.35362 3.03029C7.33071 3.04164 7.31923 3.05299 7.30775 3.05299C6.998 3.20053 6.73418 3.35943 6.47031 3.52966C6.41295 3.54102 6.36707 3.55236 6.33263 3.55236Z" fill="#FFC113"/>
<path d="M15.3705 5.05077C15.2099 5.28914 14.8772 5.35724 14.6478 5.187C14.4069 5.0281 14.3381 4.69896 14.5101 4.47197C14.6708 4.23363 15.0034 4.16554 15.2443 4.33578C15.4738 4.49467 15.5426 4.81245 15.3705 5.05077Z" fill="#EE538C"/>
<path d="M16.8627 8.09254C16.5989 8.21739 16.2891 8.10392 16.1629 7.85421C16.0367 7.59318 16.1515 7.28676 16.4038 7.1619C16.6677 7.03705 16.9775 7.13919 17.1036 7.40023C17.2413 7.66127 17.1266 7.96769 16.8627 8.09254Z" fill="#4692CF"/>
<path d="M4.13945 7.18418C4.42625 7.20689 4.64421 7.44522 4.62127 7.7403C4.59833 8.03539 4.35742 8.23967 4.05915 8.22834C3.77235 8.20562 3.55439 7.95596 3.56586 7.67221C3.57733 7.38846 3.85266 7.16151 4.13945 7.18418Z" fill="#4692CF"/>
<path d="M6.05682 4.38158C6.29773 4.54047 6.36657 4.86961 6.1945 5.10793C6.03391 5.34631 5.7012 5.4144 5.4603 5.24412C5.21939 5.08527 5.15056 4.75611 5.32264 4.51777C5.49472 4.27944 5.82739 4.22269 6.05682 4.38158Z" fill="#1DAE4B"/>
<path d="M9.14174 2.90365C9.26794 3.16469 9.15317 3.47112 8.90083 3.59596C8.63696 3.72081 8.32721 3.61866 8.20102 3.35763C8.07487 3.09659 8.1781 2.79016 8.44193 2.66531C8.69432 2.54047 9.01555 2.64262 9.14174 2.90365Z" fill="#FFC113"/>
<path d="M12.5465 3.15484C12.5236 3.43857 12.2712 3.65421 11.9844 3.63151C11.6976 3.60881 11.4797 3.37047 11.4912 3.07539C11.5141 2.78031 11.7665 2.57602 12.0532 2.58736C12.3515 2.61006 12.5695 2.85975 12.5465 3.15484Z" fill="#EF3D3B"/>
<path d="M16.9041 6.34288C16.8926 6.34288 16.8812 6.34288 16.8582 6.34288C16.8008 6.33155 16.755 6.29745 16.7206 6.24074C16.5829 5.95699 16.4223 5.68462 16.2502 5.42358C16.2387 5.41225 16.2387 5.40086 16.2273 5.38953C16.2158 5.37815 16.2158 5.37815 16.2158 5.36682C16.1584 5.28739 16.1584 5.17387 16.2273 5.10578C16.2731 5.0604 16.3075 5.01497 16.342 4.96959C16.6861 4.45887 16.5599 3.7779 16.0437 3.43742C15.8602 3.31258 15.6422 3.24448 15.4242 3.24448C15.1374 3.24448 14.8621 3.35797 14.6556 3.55092C14.6212 3.58496 14.5639 3.60766 14.5179 3.60766C14.4721 3.60766 14.4262 3.59631 14.3803 3.55092C14.3688 3.55092 14.3459 3.52822 14.3459 3.52822C14.0591 3.33527 13.7723 3.17638 13.5084 3.05154C13.4511 3.02884 13.4167 2.9721 13.4052 2.91535C13.3937 2.8586 13.4052 2.79051 13.4396 2.74511C13.7149 2.40462 14.082 2.14359 14.495 1.9847C14.7933 1.8712 15.103 1.81445 15.4242 1.81445C15.9405 1.81445 16.4337 1.962 16.8582 2.24573C16.95 2.31383 17.0303 2.37057 17.1106 2.43867C17.9136 3.14234 18.2004 4.27728 17.7989 5.26468C17.7301 5.43491 17.6383 5.60514 17.535 5.76404C17.3974 5.96832 17.2368 6.14993 17.0303 6.30883C16.9959 6.33155 16.95 6.34288 16.9041 6.34288Z" fill="#EE538C"/>
</svg>
