<svg width="24" height="24" viewBox="0 0 24 24" fill="none" xmlns="http://www.w3.org/2000/svg">
<g clip-path="url(#clip0_5523_9986)">
<path d="M18.2 3H5.8V4.83333H18.2V3ZM5.8 21H18.2V19.1667H5.8V21ZM18.2 5.66667H5.8C4.81 5.66667 4 6.49167 4 7.5V16.5C4 17.5083 4.81 18.3333 5.8 18.3333H18.2C19.19 18.3333 20 17.5083 20 16.5V7.5C20 6.49167 19.19 5.66667 18.2 5.66667ZM12 7.1875C13.116 7.1875 14.025 8.11333 14.025 9.25C14.025 10.3867 13.116 11.3125 12 11.3125C10.884 11.3125 9.975 10.3867 9.975 9.25C9.975 8.11333 10.884 7.1875 12 7.1875ZM16.5 15.5833H7.5V14.2083C7.5 12.6775 10.497 11.9167 12 11.9167C13.503 11.9167 16.5 12.6775 16.5 14.2083V15.5833Z" fill="#6C7BAD"/>
</g>
<defs>
<clipPath id="clip0_5523_9986">
<rect width="24" height="24" fill="white"/>
</clipPath>
</defs>
</svg>
