<svg width="230" height="129" viewBox="0 0 230 129" fill="none" xmlns="http://www.w3.org/2000/svg">
<path d="M52.3423 6.42928L50.5263 3.83452C50.0201 3.11237 49.0466 2.90352 48.2784 3.34247C45.8854 4.70534 43.765 6.42574 41.949 8.4789C41.365 9.13733 41.365 10.1285 41.9632 10.7728L44.1438 13.1233C44.6535 13.672 44.7456 14.4932 44.3562 15.1304C43.6907 16.2207 43.1385 17.3677 42.6995 18.5606C42.4694 19.1907 41.8641 19.6084 41.1915 19.6332L37.5277 19.7748C36.7135 19.8067 36.0444 20.412 35.9135 21.2156C35.4674 23.9873 35.4887 26.8334 35.9736 29.591C36.1223 30.4265 36.8586 31.0318 37.7047 30.9999L41.0888 30.8831C41.8039 30.8583 42.4694 31.2831 42.7172 31.9557C42.9402 32.554 43.1951 33.1487 43.4818 33.7363C43.7544 34.285 44.0447 34.8195 44.3597 35.3293C44.7243 35.9204 44.6677 36.678 44.2429 37.2267L42.08 40.0126C41.5703 40.6675 41.6163 41.5949 42.1756 42.2073C44.0588 44.2711 46.2996 46.0234 48.7599 47.3579C49.4962 47.758 50.4201 47.5668 50.9298 46.9013L53.0255 44.1543C53.4574 43.5915 54.1937 43.3507 54.8698 43.5667C56.1548 43.9808 57.4823 44.2605 58.831 44.4021C59.5921 44.48 60.2045 45.0641 60.3213 45.8216L60.7992 48.9191C60.9337 49.797 61.7266 50.4164 62.6116 50.3527C65.3905 50.1545 68.0914 49.4996 70.6791 48.3916C71.4119 48.0765 71.8508 47.3119 71.7092 46.5261L71.0473 42.7737C70.934 42.1365 71.1889 41.4746 71.7234 41.11C72.75 40.4055 73.6916 39.6161 74.5412 38.7488C75.0686 38.2143 75.8899 38.101 76.5483 38.4656L79.3413 40.009C80.1095 40.4338 81.0724 40.2002 81.5644 39.4781C83.1291 37.1913 84.3185 34.6354 85.0654 31.9628C85.2849 31.1734 84.9203 30.3344 84.184 29.9733L80.952 28.3804C80.3396 28.0795 79.9573 27.4388 80.0139 26.7626C80.113 25.5237 80.0953 24.267 79.9502 23.0139C79.8688 22.2917 80.2759 21.6014 80.9378 21.3041L83.968 19.9483C84.7504 19.5978 85.1468 18.7164 84.899 17.8987C84.5026 16.596 83.9963 15.3216 83.3946 14.0932C82.7786 12.8436 82.06 11.6436 81.2529 10.5179C80.7502 9.817 79.8015 9.59752 79.0475 10.0152L76.166 11.6047C75.5218 11.9587 74.7182 11.8595 74.1907 11.3498C73.2031 10.3975 72.1234 9.56212 70.9765 8.8506C70.3464 8.4612 70.049 7.70012 70.2437 6.98151L71.0968 3.82036C71.3234 2.98493 70.8809 2.11411 70.0773 1.79552C67.518 0.776018 64.7851 0.18131 62.0417 0.0397128C61.1815 -0.00276631 60.4239 0.599022 60.2753 1.44506L59.7124 4.7018C59.5885 5.42748 59.008 5.98679 58.2787 6.08237C56.9371 6.25583 55.599 6.57796 54.2857 7.04877C53.5742 7.30365 52.7777 7.04877 52.3423 6.42575V6.42928ZM65.2029 13.0702C79.9077 20.5678 73.1146 40.5436 56.8876 37.5205C56.7141 37.4886 56.5371 37.4284 56.3813 37.347C41.6871 29.8459 48.4767 9.88071 64.6966 12.8967C64.8701 12.9286 65.0471 12.9888 65.2029 13.0702Z" fill="#113160"/>
<path d="M13.4922 29.9269L12.0267 27.8349C11.6196 27.2508 10.8337 27.0844 10.2142 27.4384C8.28853 28.5358 6.57874 29.9234 5.11321 31.5766C4.6424 32.1075 4.6424 32.904 5.12383 33.4244L6.87963 35.3183C7.29027 35.7608 7.3646 36.4227 7.04955 36.936C6.51502 37.8139 6.06899 38.7414 5.715 39.7007C5.52738 40.2104 5.04241 40.5432 4.5008 40.5644L1.5485 40.6777C0.893607 40.7025 0.351998 41.191 0.24934 41.8388C-0.108193 44.0725 -0.0940336 46.3664 0.298899 48.5895C0.415717 49.262 1.01043 49.7506 1.69363 49.7258L4.41938 49.6302C4.99639 49.609 5.53092 49.9523 5.7327 50.4939C5.91323 50.9754 6.11855 51.4568 6.34864 51.9276C6.56812 52.3701 6.80529 52.7984 7.05663 53.2126C7.35044 53.6905 7.30443 54.2994 6.96105 54.7418L5.2194 56.9862C4.80877 57.5136 4.84417 58.2605 5.29728 58.7561C6.81591 60.4164 8.62128 61.8288 10.6036 62.9085C11.1984 63.2306 11.9417 63.0784 12.3524 62.5403L14.0409 60.3243C14.3878 59.8712 14.9825 59.6765 15.5277 59.8535C16.5613 60.1863 17.6339 60.4128 18.7172 60.5261C19.3296 60.5898 19.8252 61.0606 19.9172 61.6695L20.2995 64.1651C20.4093 64.8731 21.0464 65.3723 21.7615 65.3227C24.0023 65.1634 26.1758 64.6359 28.2608 63.7403C28.852 63.4855 29.2024 62.8695 29.0927 62.2359L28.5582 59.2128C28.4661 58.6995 28.6715 58.1685 29.1033 57.8711C29.9281 57.3048 30.6892 56.6676 31.3724 55.9702C31.7972 55.5383 32.4592 55.4463 32.9902 55.7401L35.2416 56.9826C35.8575 57.3225 36.6363 57.1384 37.0328 56.5543C38.293 54.7135 39.2523 52.6533 39.8541 50.4975C40.0311 49.8603 39.7373 49.1842 39.1426 48.8939L36.5407 47.6124C36.0487 47.3682 35.7407 46.8549 35.7832 46.3062C35.8646 45.3079 35.8469 44.2955 35.7336 43.2866C35.6664 42.7026 35.9956 42.1503 36.5301 41.9096L38.9727 40.8158C39.6028 40.5326 39.9249 39.8246 39.7231 39.1626C39.4045 38.1113 38.9974 37.0847 38.5089 36.097C38.0133 35.0882 37.4363 34.1253 36.7814 33.2155C36.3779 32.6492 35.6133 32.4757 35.0044 32.812L32.6822 34.0934C32.1618 34.3802 31.5176 34.2988 31.0892 33.8881C30.2927 33.12 29.4255 32.4474 28.498 31.8739C27.9883 31.5589 27.7511 30.9464 27.9068 30.3694L28.5936 27.8242C28.7741 27.1516 28.4201 26.4507 27.7723 26.1923C25.7085 25.3781 23.5067 24.9003 21.2942 24.787C20.6004 24.7516 19.9915 25.2365 19.8712 25.9198L19.4181 28.5428C19.3154 29.1269 18.8517 29.58 18.2641 29.6579C17.1808 29.7995 16.1047 30.0544 15.0463 30.4367C14.4728 30.642 13.8321 30.4367 13.4816 29.934L13.4922 29.9269ZM23.8571 35.2793C35.7088 41.322 30.2326 57.418 17.1561 54.9826C17.0145 54.9578 16.8729 54.9082 16.7454 54.8445C4.90435 48.7983 10.3771 32.7093 23.4465 35.1413C23.5881 35.166 23.7297 35.2156 23.8571 35.2793Z" fill="#113160"/>
<path d="M43.0611 107.658C42.9408 102.465 42.0523 97.2399 39.9248 92.5035C37.7937 87.767 34.3635 83.5368 29.8678 80.9385C26.6642 79.0871 22.2817 78.2305 19.4781 80.6447C18.5436 81.4483 17.8922 82.5421 17.4214 83.682C16.193 86.6697 16.1612 90.1317 17.3329 93.1406C18.3205 95.6717 20.0905 97.824 21.9985 99.7568C27.1031 104.932 33.8431 109.028 41.1142 108.996" fill="#3DA083"/>
<path d="M42.1316 118.068C38.9988 114.542 34.5491 112.238 29.8835 111.618C28.2303 111.399 24.5736 110.822 23.593 112.617C22.6479 114.348 24.9028 116.992 26.0533 117.958C27.4091 119.095 28.8675 120.135 30.5101 120.787C34.3757 122.32 39.0979 121.389 42.0927 118.504" fill="#3DA083"/>
<path d="M163.291 108.581C160.689 101.169 159.691 92.9562 162.003 85.4516C164.314 77.9434 170.367 71.3343 178.06 69.7555C179.115 69.5396 180.223 69.4192 181.263 69.6989C182.315 69.9821 183.217 70.6511 183.996 71.4122C187.685 75.0336 188.701 80.7789 187.593 85.8304C186.485 90.8818 183.536 95.3386 180.208 99.2998C176.552 103.654 171.932 107.781 166.279 108.401" fill="#3DA083"/>
<path d="M166.906 117.014C167.968 115.336 169.731 114.246 171.473 113.294C174.991 111.368 178.74 109.74 182.716 109.181C184.871 108.88 187.494 109.12 188.581 111.007C189.487 112.572 188.886 114.6 187.88 116.105C186.231 118.572 183.523 120.299 180.592 120.76C178.733 121.053 176.832 120.852 174.967 120.597C172.379 120.243 169.745 119.758 167.49 118.441" fill="#3DA083"/>
<path d="M176.311 78.808C170.251 86.2701 164.622 94.0828 159.482 102.207C158.038 104.49 156.633 106.795 155.263 109.124C155.1 109.404 155.532 109.655 155.695 109.375C160.527 101.152 165.836 93.2119 171.596 85.6117C173.249 83.4311 174.938 81.2824 176.662 79.1584C176.863 78.9106 176.509 78.5531 176.308 78.8044L176.311 78.808Z" fill="#14314D"/>
<path d="M182.447 115.183C175.455 116.624 168.312 117.254 161.175 117.066C160.853 117.059 160.853 117.558 161.175 117.569C168.354 117.757 175.544 117.116 182.578 115.668C182.893 115.604 182.758 115.119 182.443 115.183H182.447Z" fill="#14314D"/>
<path d="M23.6666 88.9595C32.3536 94.2021 40.3715 100.531 47.4868 107.767C49.4656 109.781 51.3736 111.863 53.2073 114.012C53.4162 114.256 53.7702 113.902 53.5613 113.658C46.9735 105.955 39.4264 99.0801 31.1394 93.2428C28.7889 91.5861 26.3817 90.0143 23.9179 88.5311C23.6418 88.3647 23.3905 88.7966 23.6666 88.963V88.9595Z" fill="#14314D"/>
<path d="M28.8096 115.881C34.3071 117.732 40.0206 118.918 45.8048 119.414C47.4473 119.552 49.0899 119.637 50.7359 119.665C51.0581 119.672 51.0581 119.17 50.7359 119.163C44.98 119.063 39.2418 118.281 33.6735 116.816C32.0805 116.398 30.5017 115.923 28.9441 115.396C28.6361 115.293 28.5052 115.778 28.8096 115.881Z" fill="#14314D"/>
<path d="M43.3743 128.958L169.233 128.706L155.137 44.9232C154.592 41.6877 151.788 39.323 148.51 39.3301L36.2484 39.5531C32.1067 39.5602 28.9597 43.2877 29.65 47.3728L43.3779 128.958H43.3743Z" fill="#243A5B"/>
<path d="M52.5431 68.0099C50.9501 66.7532 48.9147 66.7532 47.9943 68.0099C47.0739 69.2666 47.619 71.302 49.212 72.5587C50.805 73.8154 52.8404 73.8154 53.7608 72.5587C54.6812 71.302 54.1361 69.2666 52.5431 68.0099Z" fill="#8FC6C6"/>
<path d="M58.0273 70.4248H126.493" stroke="#648BBC" stroke-width="0.400012" stroke-miterlimit="10"/>
<path d="M59.638 99.9545C60.6614 98.7847 60.2528 96.7532 58.7254 95.417C57.198 94.0808 55.1302 93.946 54.1069 95.1158C53.0835 96.2856 53.4921 98.3171 55.0195 99.6532C56.5468 100.989 58.6146 101.124 59.638 99.9545Z" fill="#8FC6C6"/>
<path d="M64.0234 97.686H132.489" stroke="#648BBC" stroke-width="0.400012" stroke-miterlimit="10"/>
<path d="M29.7518 48.1944L29.6492 47.3767C28.9624 43.2916 32.1059 39.5676 36.2476 39.557L148.509 39.334C151.787 39.3269 154.591 41.6951 155.136 44.9271L155.713 48.3644C156.014 47.8404 29.7483 48.1944 29.7483 48.1944H29.7518Z" fill="#206BC7"/>
<path d="M40.1285 43.281C39.3037 42.6296 38.2453 42.6296 37.7674 43.281C37.2895 43.9323 37.5727 44.9872 38.401 45.6421C39.2258 46.2935 40.2843 46.2935 40.7622 45.6421C41.2401 44.9908 40.9569 43.9359 40.1285 43.281Z" fill="#14314D"/>
<path d="M45.5816 43.281C44.7568 42.6296 43.6984 42.6296 43.2205 43.281C42.7426 43.9323 43.0258 44.9872 43.8542 45.6421C44.6825 46.297 45.7374 46.2935 46.2153 45.6421C46.6932 44.9908 46.41 43.9359 45.5816 43.281Z" fill="#FFB701"/>
<path d="M51.066 43.281C50.2412 42.6296 49.1828 42.6296 48.7049 43.281C48.227 43.9323 48.5102 44.9872 49.3385 45.6421C50.1669 46.297 51.2218 46.2935 51.6997 45.6421C52.1776 44.9908 51.8944 43.9359 51.066 43.281Z" fill="#8FC6C6"/>
<path d="M123.665 35.0783C126.035 35.0783 127.956 33.1575 127.956 30.788C127.956 28.4184 126.035 26.4976 123.665 26.4976C121.296 26.4976 119.375 28.4184 119.375 30.788C119.375 33.1575 121.296 35.0783 123.665 35.0783Z" fill="#206BC7" stroke="#206BC7" stroke-width="0.860203" stroke-miterlimit="10"/>
<path d="M115.528 45.1675L126.346 27.1599C126.973 25.666 125.217 21.1739 124.077 20.0128C120.958 16.8374 116.456 15.2409 112.017 14.933C109.553 14.7631 104.841 17.4392 103.443 20.5331C101.892 23.9598 100.976 27.3369 96.7064 29.0042C87.5911 32.5654 89.4389 42.5409 89.4389 42.5409" fill="#000400"/>
<path d="M114.001 17.1378C114.847 16.5218 115.736 16.0652 116.653 15.7536C115.761 15.4952 114.851 15.297 113.934 15.1519C113.771 15.2085 113.608 15.2581 113.449 15.3218C109.056 17.067 106.008 23.1344 107.109 27.7151C107.629 27.708 108.829 27.9452 109.332 27.8496C109.413 23.984 110.815 19.4529 114.001 17.1378Z" fill="#206BC7"/>
<path d="M110.047 28.1232C109.994 28.332 109.785 28.4559 109.579 28.3957C108.719 28.148 106.779 27.4046 105.866 29.5816C104.942 31.7835 106.754 33.6773 108.039 34.1163C108.411 34.2437 109.261 34.5658 109.438 34.9163C109.983 35.9924 108.447 44.5237 106.977 47.4158C106.868 52.9381 115.112 60.4852 115.112 60.4852C115.112 60.4852 117.282 57.4267 119.024 50.7469C119.024 50.7469 119.565 38.7005 119.647 38.6545C120.996 37.8969 126.33 38.3111 126.21 28.8807C126.1 20.1442 120.019 19.0539 118.436 18.8981C117.102 18.7671 112.617 17.8043 110.047 28.1232Z" fill="#FFB4A5"/>
<path d="M122.825 19.2721C122.825 19.2721 117.777 30.8725 109.784 28.3839C109.784 28.3839 107.897 13.4525 122.825 19.2721Z" fill="#000400"/>
<path d="M106.66 30.5118C106.66 30.5118 108.82 28.0338 109.46 32.349L106.66 30.5118Z" fill="#FF8164"/>
<path d="M117.539 30.2363C118.665 30.5265 119.341 31.6735 119.054 32.7956C118.764 33.9213 117.617 34.5974 116.495 34.3107C115.373 34.024 114.693 32.8735 114.98 31.7513C115.27 30.6256 116.417 29.9495 117.539 30.2363Z" fill="#FF9E87"/>
<path d="M125.763 33.3651C124.885 32.9368 124.397 31.935 124.648 30.9509C124.843 30.1933 125.427 29.6376 126.135 29.4429C126.135 29.4429 126.368 31.9279 125.763 33.3651Z" fill="#FF9E87"/>
<path d="M124.355 31.8438L120.836 32.5128C120.836 32.5128 122.036 34.035 123.024 33.6633C124.008 33.2916 124.358 31.8438 124.358 31.8438H124.355Z" fill="#14314D"/>
<path d="M122.619 28.9362L122.488 31.276L123.695 31.1026C123.918 31.0707 124.025 30.8123 123.89 30.6318L122.619 28.9326V28.9362Z" fill="#FF8164"/>
<path d="M118.891 26.997C118.52 27.2943 119.04 26.0341 119.564 25.8571C120.088 25.6801 120.637 25.9031 120.789 26.3562C120.789 26.3562 119.783 26.2784 118.888 26.997H118.891Z" fill="black"/>
<path d="M125.332 26.4296C125.739 26.6774 125.063 25.4915 124.518 25.3853C123.976 25.2756 123.459 25.5694 123.367 26.0366C123.367 26.0366 124.351 25.8313 125.332 26.4296Z" fill="black"/>
<path d="M120.213 29.1173C120.259 29.528 120.457 29.843 120.655 29.8218C120.853 29.8005 120.981 29.4501 120.935 29.0394C120.889 28.6288 120.69 28.3138 120.492 28.335C120.294 28.3562 120.167 28.7067 120.213 29.1173Z" fill="black"/>
<path d="M123.458 28.5619C123.5 28.9549 123.692 29.2558 123.879 29.2345C124.07 29.2133 124.187 28.877 124.145 28.4876C124.102 28.0947 123.911 27.7938 123.723 27.815C123.532 27.8363 123.415 28.1726 123.458 28.5619Z" fill="black"/>
<path d="M120.006 38.4772C120.006 38.4772 118.091 38.8807 116.183 38.2117C114.275 37.5391 118.017 42.3817 120.006 38.4772Z" fill="#FF8164"/>
<path d="M108.281 128.943C108.897 126.351 109.378 124.319 109.693 123.003C110.125 121.187 112.932 121.587 112.713 123.438C112.553 124.776 112.426 126.649 112.323 128.943H133.616C132.25 110.298 129.209 93.6318 123.326 83.9076C115.467 82.8244 105.881 84.2404 97.9123 84.4776C93.9476 91.4866 91.852 96.6195 89.5758 105.526C88.8395 108.4 86.9952 117.254 84.6836 128.939H108.281V128.943Z" fill="#2D2F3D"/>
<g style="mix-blend-mode:multiply" opacity="0.21">
<path d="M123.213 87.4414L87.6016 113.421C87.6016 113.421 90.3592 98.1072 96.1045 87.314L123.21 87.4414H123.213Z" fill="black"/>
</g>
<path d="M160.464 69.1535C160.464 69.1535 153.529 75.5572 142.318 83.7203L142.3 83.7592C142.283 83.7486 142.261 83.738 142.244 83.7309C141.56 83.8406 138.888 85.207 138.321 85.1575C138.321 85.1575 131.376 87.8797 126.583 71.9536C125.875 70.5305 115.807 53.3442 115.645 53.1459C115.645 53.1459 116.834 49.567 116.926 49.4892C123.273 44.0341 130.137 65.8967 136.374 73.3341C136.633 73.6421 137.058 73.7448 137.429 73.589C138.197 73.274 139.252 72.75 139.252 72.75L145.787 69.5499L157.256 62.0807C157.256 62.0807 158.145 58.1231 158.456 57.6806C159.033 57.5036 161.391 57.4151 161.391 57.4151C161.391 57.4151 168.637 51.3016 168.637 52.7919C168.637 53.6804 164.726 58.0841 164.726 58.0841C164.726 58.0841 166.726 60.5302 166.86 62.1303C166.995 63.7303 160.457 69.1535 160.457 69.1535H160.464Z" fill="#FF9E87"/>
<g style="mix-blend-mode:multiply">
<path d="M158.414 57.8501C159.196 57.797 159.979 57.7722 160.761 57.7687C161.15 57.7616 161.543 57.7687 161.933 57.7722L162.517 57.7864C162.712 57.8005 162.899 57.7651 163.165 57.8572C163.296 57.9067 163.416 58.0235 163.476 58.1474C163.54 58.2713 163.558 58.4023 163.554 58.5333C163.54 58.7882 163.409 59.0147 163.243 59.174C162.903 59.4784 162.503 59.62 162.127 59.7121C161.37 59.9174 160.602 60.0979 159.837 60.2501C160.563 59.9457 161.292 59.6661 162.025 59.4147C162.389 59.2908 162.743 59.1386 162.977 58.9014C163.087 58.7846 163.158 58.6501 163.165 58.5085C163.168 58.3704 163.112 58.2572 163.016 58.2253C162.913 58.1793 162.701 58.1864 162.506 58.1757L161.922 58.151C161.533 58.1262 161.143 58.112 160.754 58.0802C159.975 58.0271 159.196 57.9527 158.418 57.8465L158.414 57.8501Z" fill="#D18478"/>
<path d="M164.406 58.0728C164.183 58.3241 163.956 58.5648 163.751 58.8268C163.542 59.0816 163.344 59.3471 163.152 59.6162C162.777 60.1542 162.441 60.7171 162.161 61.3082L162.083 61.0498C162.299 61.1844 162.597 61.1419 162.883 61.0109C163.174 60.8905 163.436 60.6888 163.726 60.4976C164.009 60.3064 164.296 60.1188 164.583 59.9348C164.876 59.7578 165.163 59.5701 165.464 59.4038C165.216 59.6445 164.954 59.864 164.699 60.0941C164.441 60.3171 164.179 60.5365 163.91 60.7525C163.652 60.9684 163.372 61.1914 163.043 61.3578C162.876 61.4392 162.692 61.5029 162.49 61.5242C162.289 61.5419 162.062 61.5065 161.878 61.3967L161.719 61.3012L161.8 61.1348C162.101 60.5224 162.469 59.9454 162.908 59.4285C163.124 59.1666 163.361 58.9259 163.613 58.6958C163.867 58.4728 164.126 58.2568 164.409 58.0728H164.406Z" fill="#D18478"/>
<path d="M163.055 61.259C163.023 61.4608 162.981 61.6626 163.005 61.8396C163.023 62.0095 163.129 62.1652 163.246 62.2113C163.352 62.2537 163.483 62.2042 163.657 62.1015C163.83 62.0059 164.004 61.9139 164.174 61.8112C164.517 61.6201 164.853 61.4148 165.193 61.2095C165.533 61.0041 165.869 60.7882 166.223 60.5864C165.728 61.2378 165.076 61.7511 164.372 62.1582C164.191 62.2537 164.014 62.3529 163.827 62.4378C163.735 62.4803 163.628 62.5263 163.501 62.5511C163.377 62.5794 163.214 62.5582 163.097 62.4803C162.86 62.3245 162.786 62.059 162.814 61.8325C162.846 61.6059 162.949 61.4254 163.059 61.2519L163.055 61.259Z" fill="#D18478"/>
<path d="M166.481 62.105C166.392 62.3422 166.208 62.5369 165.989 62.6749C165.769 62.8165 165.514 62.8908 165.256 62.9192C164.998 62.9369 164.732 62.905 164.495 62.8023C164.258 62.7032 164.042 62.5404 163.918 62.3209C164.152 62.4094 164.368 62.4661 164.583 62.5015C164.799 62.5298 165.012 62.5404 165.224 62.5192C165.437 62.505 165.645 62.459 165.854 62.3953C166.063 62.328 166.265 62.236 166.481 62.1085V62.105Z" fill="#D18478"/>
</g>
<path d="M116.156 49.3829C116.156 49.3829 119.438 46.3775 123.654 48.8732C127.87 51.3688 135.729 68.4455 138.189 71.819L148.193 65.6843C148.193 65.6843 153.619 74.2049 155.662 75.8227C155.662 75.8227 140.295 89.6496 134.589 87.0265C128.882 84.4035 116.16 49.3865 116.16 49.3865L116.156 49.3829Z" fill="#8FC6C6"/>
<path opacity="0.93" d="M128.585 65.8476C126.578 59.5925 122.974 54.0844 118.496 49.3161C118.202 49.0011 118.036 48.6612 117.972 48.3179C116.836 48.7604 116.156 49.3798 116.156 49.3798C116.156 49.3798 124.472 72.2619 130.67 82.418C130.833 76.8143 130.309 71.2247 128.585 65.8476Z" fill="#749E9D"/>
<path d="M119.205 47.1878C118.975 47.7436 127.796 64.5476 127.524 69.9885C127.248 75.4683 126.295 85.3978 126.586 86.2226C126.586 86.2226 119.545 88.8705 96.082 85.1748C96.2661 80.4419 97.629 50.6251 97.629 50.6251C97.629 50.6251 105.304 45.9064 107.289 45.7612C107.289 45.7612 108.695 47.6445 110.737 48.1719C112.097 48.5224 113.675 48.7914 115.155 48.8233C117.647 48.8728 118.139 48.5188 119.205 47.1843V47.1878Z" fill="#8FC6C6"/>
<g opacity="0.93">
<path d="M113.247 83.4692C96.9741 75.6459 100.953 58.5481 98.4219 50.1514C97.9299 50.4452 97.629 50.6293 97.629 50.6293C97.629 50.6293 96.2661 80.4425 96.082 85.179C112.539 87.7702 120.915 87.2427 124.451 86.694C122.741 85.8338 114.996 84.3081 113.247 83.4692Z" fill="#749E9D"/>
</g>
<path d="M111.626 33.4598C112.54 31.2735 111.508 28.7606 109.322 27.8469C107.136 26.9333 104.623 27.9649 103.709 30.1512C102.795 32.3375 103.827 34.8505 106.013 35.7642C108.2 36.6778 110.713 35.6461 111.626 33.4598Z" fill="#206BC7" stroke="#206BC7" stroke-width="0.860203" stroke-miterlimit="10"/>
<path d="M109.957 32.3096L112.407 34.9539C113.345 35.9663 114.739 36.43 116.099 36.1787L122.793 34.9468" stroke="#206BC7" stroke-width="0.400012" stroke-miterlimit="10"/>
<path d="M122.819 34.0679L121.643 34.3084C121.294 34.3797 121.07 34.7201 121.141 35.0687L121.171 35.2144C121.242 35.563 121.582 35.7878 121.931 35.7164L123.107 35.476C123.455 35.4047 123.68 35.0643 123.609 34.7157L123.579 34.57C123.508 34.2214 123.167 33.9966 122.819 34.0679Z" fill="#206BC7"/>
<path d="M107.661 34.6226C109.219 34.6226 110.482 33.3595 110.482 31.8013C110.482 30.2431 109.219 28.98 107.661 28.98C106.103 28.98 104.84 30.2431 104.84 31.8013C104.84 33.3595 106.103 34.6226 107.661 34.6226Z" stroke="#000400" stroke-width="0.400012" stroke-miterlimit="10"/>
<path d="M102.271 50.0128C97.7297 46.3136 87.0285 60.098 87.0285 60.098L78.0442 70.693L63.1694 57.7015C62.9534 56.4024 62.5534 54.2005 62.1393 53.1775C61.6968 52.0872 61.8525 50.3314 61.9693 49.457C62.0047 49.1844 61.7357 48.965 61.4808 49.0712C61.049 49.2517 60.518 49.6517 60.4366 50.5261C60.3516 51.4712 59.8808 52.8553 59.8454 53.6094C59.8383 53.7899 59.679 53.8784 59.5126 53.8111C58.7374 53.5067 58.394 53.05 57.371 52.2111C57.0382 51.8748 56.1001 51.0712 55.1231 49.6092C54.1461 48.1472 52.8186 46.1224 52.3655 46.8481C52.0434 47.3649 53.7744 50.388 54.0859 50.8128C54.755 51.7226 55.4665 53.489 55.4842 53.5598C55.5621 53.8571 53.3355 51.7403 52.3726 50.427C51.4097 49.1136 50.5177 47.7189 50.0008 47.772C49.484 47.8286 50.2239 49.1632 50.2239 49.1632C50.2239 49.1632 49.2433 48.3738 48.9813 48.6995C48.8043 48.9189 49.8168 51.0783 50.5708 52.5014C49.1902 51.5173 49.1866 52.2642 49.1866 52.2642C49.1866 52.2642 51.3177 55.6236 52.3089 56.2501C53.1054 56.7563 54.1709 58.1369 54.3514 58.4166C54.5213 58.6821 57.2825 61.468 59.9197 62.7565C62.1711 65.7796 80.0265 89.6033 82.2461 87.5856C98.8307 72.509 108.735 55.2802 102.275 50.0199L102.271 50.0128Z" fill="#FF9E87"/>
<g style="mix-blend-mode:multiply">
<path d="M50.5273 52.3662L51.3132 53.1202C51.5787 53.3574 51.8407 53.5769 52.1274 53.7645C52.4106 53.9521 52.7256 54.1256 53.0372 54.3379C53.3522 54.5397 53.6389 54.7946 53.9115 55.0459H53.4973C53.8159 54.7875 54.1381 54.5397 54.4744 54.3061C54.8142 54.076 55.1576 53.853 55.5328 53.6618C55.2992 54.0087 55.0337 54.3238 54.7611 54.6318C54.4885 54.9362 54.1982 55.2265 53.908 55.5097L53.7133 55.7008L53.4973 55.5061C53.2354 55.2725 52.9557 55.0707 52.6761 54.8619C52.3929 54.6601 52.0849 54.4618 51.7911 54.2105C51.4973 53.9627 51.2424 53.6689 51.0371 53.3574C50.8282 53.0459 50.6619 52.7131 50.5273 52.3662Z" fill="#D18478"/>
<path d="M60.003 54.1973C60.0596 54.5336 60.0986 54.838 60.134 55.146C60.1658 55.4539 60.1941 55.7548 60.2154 56.0557L60.3251 57.9106C60.0561 57.6912 59.8897 57.3797 59.7729 57.0717C59.6561 56.7566 59.5924 56.431 59.5711 56.1053C59.5499 55.7761 59.5676 55.4469 59.6278 55.1247C59.695 54.8026 59.7977 54.4769 60.003 54.2008V54.1973Z" fill="#D18478"/>
<path d="M50.2969 49.3369C50.6013 49.7829 50.9164 50.1865 51.2491 50.5759C51.5854 50.9617 51.9288 51.3405 52.2828 51.7157C52.6297 52.0981 52.9943 52.4733 53.3306 52.8804C53.6704 53.2839 54.0032 53.7123 54.2404 54.2008C53.7979 53.8857 53.3802 53.5778 52.9766 53.2379C52.566 52.9052 52.1801 52.5441 51.812 52.1547C51.4509 51.7582 51.1111 51.337 50.8385 50.8662C50.5659 50.3989 50.3535 49.8785 50.3004 49.3369H50.2969Z" fill="#D18478"/>
</g>
<path d="M102.268 50.0134C97.7265 46.3142 87.0253 60.0986 87.0253 60.0986L78.0409 70.6901L69.9628 63.635C68.5256 65.89 65.0423 70.1202 63.7148 72.4388C69.8602 80.301 80.7278 88.9491 82.2358 87.5791C98.8204 72.5026 108.725 55.2737 102.265 50.0134H102.268Z" fill="#8FC6C6"/>
<path d="M22.457 128.756H195.585" stroke="#206BC7" stroke-width="0.400012" stroke-miterlimit="10"/>
<path d="M140.469 29.8812L143.74 26.6103H156.055C158.561 26.6103 160.593 24.5784 160.593 22.0721V21.088C160.593 18.5817 158.561 16.5498 156.055 16.5498H145.007C142.501 16.5498 140.469 18.5817 140.469 21.088V29.8812Z" fill="#8FC6C6"/>
<path d="M154.055 21.4536C154.055 22.0801 154.561 22.5864 155.187 22.5864C155.814 22.5864 156.32 22.0801 156.32 21.4536C156.32 20.827 155.814 20.3208 155.187 20.3208C154.561 20.3208 154.055 20.827 154.055 21.4536Z" fill="#14314D"/>
<path d="M149.906 21.4536C149.906 22.0801 150.412 22.5864 151.039 22.5864C151.666 22.5864 152.172 22.0801 152.172 21.4536C152.172 20.827 151.666 20.3208 151.039 20.3208C150.412 20.3208 149.906 20.827 149.906 21.4536Z" fill="#14314D"/>
<path d="M145.754 21.4536C145.754 22.0801 146.26 22.5864 146.887 22.5864C147.513 22.5864 148.019 22.0801 148.019 21.4536C148.019 20.827 147.513 20.3208 146.887 20.3208C146.26 20.3208 145.754 20.827 145.754 21.4536Z" fill="#14314D"/>
<g style="mix-blend-mode:multiply">
<path d="M159.117 18.7835C160.411 18.7835 161.46 17.7344 161.46 16.4401C161.46 15.1459 160.411 14.0967 159.117 14.0967C157.823 14.0967 156.773 15.1459 156.773 16.4401C156.773 17.7344 157.823 18.7835 159.117 18.7835Z" fill="#206BC7"/>
</g>
<path d="M137.761 15.9139L134.49 12.643H122.175C119.669 12.643 117.637 10.6111 117.637 8.10481V7.12071C117.637 4.61444 119.669 2.58252 122.175 2.58252H133.223C135.729 2.58252 137.761 4.61444 137.761 7.12071V15.9139Z" fill="#FFB701"/>
<path d="M124.176 7.48483C124.176 8.1114 123.669 8.6176 123.043 8.6176C122.416 8.6176 121.91 8.1114 121.91 7.48483C121.91 6.85826 122.416 6.35205 123.043 6.35205C123.669 6.35205 124.176 6.85826 124.176 7.48483Z" fill="#14314D"/>
<path d="M128.328 7.48483C128.328 8.1114 127.822 8.6176 127.195 8.6176C126.569 8.6176 126.062 8.1114 126.062 7.48483C126.062 6.85826 126.569 6.35205 127.195 6.35205C127.822 6.35205 128.328 6.85826 128.328 7.48483Z" fill="#14314D"/>
<path d="M132.48 7.48483C132.48 8.1114 131.974 8.6176 131.348 8.6176C130.721 8.6176 130.215 8.1114 130.215 7.48483C130.215 6.85826 130.721 6.35205 131.348 6.35205C131.974 6.35205 132.48 6.85826 132.48 7.48483Z" fill="#14314D"/>
<path opacity="0.51" d="M164.023 58.3394L174.746 48.9161H215.119C223.335 48.9161 229.997 43.061 229.997 35.8361V32.997C229.997 25.772 223.335 19.917 215.119 19.917H178.905C170.689 19.917 164.027 25.772 164.027 32.997V58.3394H164.023Z" fill="#243A5B"/>
<path d="M191.188 28.1831H174.586V40.4313H191.188V28.1831Z" fill="#FFB701"/>
<path d="M174.578 27.9779L181.729 35.1286C182.362 35.7622 183.396 35.7587 184.033 35.1215L191.23 27.9248L174.582 27.9779H174.578Z" fill="#FFE25E"/>
<path opacity="0.73" d="M189.815 37.8642H185.588C185.475 37.8642 185.383 37.7722 185.383 37.6589C185.383 37.5456 185.475 37.4536 185.588 37.4536H189.815C189.928 37.4536 190.02 37.5456 190.02 37.6589C190.02 37.7722 189.928 37.8642 189.815 37.8642Z" fill="#14314D"/>
<path d="M180.241 36.689H176.014C175.901 36.689 175.809 36.5969 175.809 36.4836C175.809 36.3704 175.901 36.2783 176.014 36.2783H180.241C180.354 36.2783 180.446 36.3704 180.446 36.4836C180.446 36.5969 180.354 36.689 180.241 36.689Z" fill="#14314D"/>
<path d="M180.241 37.7895H176.014C175.901 37.7895 175.809 37.6975 175.809 37.5842C175.809 37.4709 175.901 37.3789 176.014 37.3789H180.241C180.354 37.3789 180.446 37.4709 180.446 37.5842C180.446 37.6975 180.354 37.7895 180.241 37.7895Z" fill="#14314D"/>
<path d="M220.573 31.6557H195.496C194.809 31.6557 194.25 31.0999 194.25 30.4096C194.25 29.7229 194.806 29.1636 195.496 29.1636H220.573C221.26 29.1636 221.819 29.7193 221.819 30.4096C221.819 31.0964 221.263 31.6557 220.573 31.6557Z" fill="#5592CA"/>
<path d="M208.774 35.6948H194.937C194.558 35.6948 194.25 35.3868 194.25 35.008C194.25 34.6293 194.558 34.3213 194.937 34.3213H208.774C209.153 34.3213 209.461 34.6293 209.461 35.008C209.461 35.3868 209.153 35.6948 208.774 35.6948Z" fill="#5592CA"/>
<path d="M208.774 38.7207H194.937C194.558 38.7207 194.25 38.4127 194.25 38.0339C194.25 37.6551 194.558 37.3472 194.937 37.3472H208.774C209.153 37.3472 209.461 37.6551 209.461 38.0339C209.461 38.4127 209.153 38.7207 208.774 38.7207Z" fill="#5592CA"/>
<path d="M185.537 102.968H148.434L145.348 90.3408H182.45L185.537 102.968Z" fill="#FFB701"/>
<path d="M157.75 98.0823C157.464 98.0823 157.205 98.0192 156.971 97.8928C156.741 97.7637 156.559 97.5879 156.427 97.3654C156.298 97.1429 156.234 96.8929 156.234 96.6154C156.234 96.338 156.298 96.088 156.427 95.8655C156.559 95.643 156.741 95.4686 156.971 95.3422C157.205 95.2131 157.464 95.1486 157.75 95.1486C158.036 95.1486 158.293 95.2117 158.521 95.3381C158.751 95.4645 158.933 95.6403 159.065 95.8655C159.196 96.088 159.262 96.338 159.262 96.6154C159.262 96.8929 159.196 97.1442 159.065 97.3695C158.933 97.592 158.751 97.7664 158.521 97.8928C158.293 98.0192 158.036 98.0823 157.75 98.0823ZM157.75 97.8104C157.978 97.8104 158.184 97.7596 158.368 97.6579C158.552 97.5535 158.696 97.4107 158.801 97.2294C158.905 97.0454 158.957 96.8407 158.957 96.6154C158.957 96.3902 158.905 96.1869 158.801 96.0056C158.696 95.8216 158.552 95.6787 158.368 95.5771C158.184 95.4727 157.978 95.4205 157.75 95.4205C157.522 95.4205 157.315 95.4727 157.128 95.5771C156.944 95.6787 156.798 95.8216 156.691 96.0056C156.587 96.1869 156.535 96.3902 156.535 96.6154C156.535 96.8407 156.587 97.0454 156.691 97.2294C156.798 97.4107 156.944 97.5535 157.128 97.6579C157.315 97.7596 157.522 97.8104 157.75 97.8104ZM162.356 95.1733V98.0576H162.105L160.251 95.7172V98.0576H159.946V95.1733H160.197L162.055 97.5137V95.1733H162.356ZM164.376 95.1733H164.681V97.7939H166.296V98.0576H164.376V95.1733ZM166.803 95.1733H167.107V98.0576H166.803V95.1733ZM170.456 95.1733V98.0576H170.205L168.351 95.7172V98.0576H168.046V95.1733H168.297L170.156 97.5137V95.1733H170.456ZM173.437 97.7939V98.0576H171.398V95.1733H173.376V95.437H171.703V96.463H173.194V96.7226H171.703V97.7939H173.437Z" fill="#14314D"/>
<path d="M144.422 109.06C145.027 108.369 144.785 107.167 143.882 106.377C142.978 105.586 141.755 105.506 141.15 106.198C140.545 106.89 140.787 108.091 141.691 108.881C142.594 109.672 143.817 109.752 144.422 109.06Z" fill="#206BC7"/>
<g style="mix-blend-mode:multiply">
<path d="M144.961 101.275C145.513 103.339 147.637 105.013 149.701 105.013C151.764 105.013 152.989 103.339 152.437 101.275C151.885 99.2115 149.761 97.5371 147.697 97.5371C145.633 97.5371 144.408 99.2115 144.961 101.275Z" fill="#206BC7"/>
</g>
<path d="M146.235 103.529L144.026 102.832C143.814 102.765 143.743 102.488 143.923 102.428L148.012 101.044C148.164 100.991 148.362 101.15 148.348 101.317L148.044 105.781C148.03 105.975 147.754 105.972 147.637 105.777L146.405 103.667C146.366 103.603 146.306 103.55 146.235 103.529Z" fill="#8FC6C6"/>
<path d="M65.2884 34.8835C65.2884 31.2657 62.3538 28.3311 58.736 28.3311C55.1182 28.3311 52.1836 31.2657 52.1836 34.8835C52.1836 38.5013 58.4174 44.1829 58.4174 44.1829C58.4174 44.1829 65.2849 38.5013 65.2849 34.8835H65.2884Z" fill="#FFB701"/>
<path opacity="0.55" d="M54.3338 30.0408C54.0613 30.7063 53.8984 31.4356 53.8984 32.271C53.9055 35.0605 55.9091 38.0906 58.7446 38.6676C61.4633 39.2234 64.4545 37.3543 65.2581 34.7348C65.2616 34.7171 65.2687 34.6994 65.2722 34.6817C65.166 31.1559 62.281 28.3311 58.7304 28.3311C57.0348 28.3311 55.4949 28.9824 54.3303 30.0373L54.3338 30.0408Z" fill="#FFE25E"/>
<path d="M57.6395 42.5262C57.2076 42.4271 56.7899 42.2855 56.3828 42.1191C57.5085 43.3475 58.4218 44.1794 58.4218 44.1794C58.4218 44.1794 59.0979 43.6201 60.0254 42.7386C59.2218 42.7705 58.4183 42.7068 57.6395 42.5227V42.5262Z" fill="#FFE25E"/>
<path d="M56.8337 41.2231C56.8337 41.2231 57.6798 34.3557 56.7275 34.7769C55.7753 35.1982 55.2478 36.2566 56.3063 36.469C57.3612 36.6814 61.5878 36.469 61.5878 36.469C61.5878 36.469 61.9631 35.269 61.2692 34.9893C60.2143 34.5681 60.2143 38.5823 60.002 41.4355" stroke="#14314D" stroke-width="0.173457" stroke-miterlimit="10"/>
<path d="M61.0644 42.7038H55.7828C55.3757 42.7038 55.043 42.3711 55.043 41.964C55.043 41.5569 55.3757 41.2241 55.7828 41.2241H61.0644C61.4715 41.2241 61.8042 41.5569 61.8042 41.964C61.8042 42.3711 61.4715 42.7038 61.0644 42.7038Z" fill="#243A5B"/>
<path d="M58.5265 46.0838C56.8344 46.0838 55.4609 44.7103 55.4609 43.0182V42.4907H61.5886V43.0182C61.5886 44.7103 60.2151 46.0838 58.523 46.0838H58.5265Z" fill="#243A5B"/>
<g style="mix-blend-mode:multiply">
<path d="M59.8008 45.8006C60.8557 45.3156 61.5885 44.2536 61.5885 43.0182V42.4907H55.875C57.1742 43.6058 58.4839 44.7067 59.8008 45.8006Z" fill="#243A5B"/>
</g>
<path d="M46.9258 34.9258H49.9029" stroke="#FFB701" stroke-width="0.446031" stroke-miterlimit="10" stroke-linecap="round"/>
<path d="M67.7695 34.9258H70.7466" stroke="#FFB701" stroke-width="0.446031" stroke-miterlimit="10" stroke-linecap="round"/>
<path d="M50.4141 26.5044L52.5203 28.6071" stroke="#FFB701" stroke-width="0.446031" stroke-miterlimit="10" stroke-linecap="round"/>
<path d="M58.8359 23.0146V25.9917" stroke="#FFB701" stroke-width="0.446031" stroke-miterlimit="10" stroke-linecap="round"/>
<path d="M67.2625 26.5044L65.1562 28.6071" stroke="#FFB701" stroke-width="0.446031" stroke-miterlimit="10" stroke-linecap="round"/>
<path d="M15.1038 109.119C17.3693 108.466 18.6765 106.1 18.0234 103.834C17.3704 101.569 15.0044 100.262 12.7388 100.915C10.4733 101.568 9.16613 103.934 9.81919 106.199C10.4722 108.465 12.8382 109.772 15.1038 109.119Z" fill="#FFB701"/>
<path d="M10.1554 94.8389C10.1554 93.6814 9.21731 92.7397 8.05621 92.7397C6.89511 92.7397 5.95703 93.6778 5.95703 94.8389C5.95703 96 6.89511 96.9381 8.05621 96.9381C9.21731 96.9381 10.1554 96 10.1554 94.8389Z" fill="#FFB701"/>
<path d="M30.464 17.5167C30.464 16.3591 29.5259 15.4175 28.3648 15.4175C27.2037 15.4175 26.2656 16.3556 26.2656 17.5167C26.2656 18.6778 27.2037 19.6158 28.3648 19.6158C29.5259 19.6158 30.464 18.6778 30.464 17.5167Z" fill="#FFB701"/>
<path d="M196.882 122.652C196.882 121.495 195.944 120.553 194.783 120.553C193.622 120.553 192.684 121.491 192.684 122.652C192.684 123.813 193.622 124.752 194.783 124.752C195.944 124.752 196.882 123.813 196.882 122.652Z" fill="#FFB701"/>
<path d="M180.343 56.9981C180.343 55.8405 179.405 54.8989 178.244 54.8989C177.083 54.8989 176.145 55.837 176.145 56.9981C176.145 58.1592 177.083 59.0973 178.244 59.0973C179.405 59.0973 180.343 58.1592 180.343 56.9981Z" fill="#FFB701"/>
<path d="M92.3515 27.0105C94.3534 27.0105 95.9763 25.3876 95.9763 23.3856C95.9763 21.3837 94.3534 19.7607 92.3515 19.7607C90.3495 19.7607 88.7266 21.3837 88.7266 23.3856C88.7266 25.3876 90.3495 27.0105 92.3515 27.0105Z" fill="#FFB701"/>
</svg>
