<svg width="24" height="24" viewBox="0 0 24 24" fill="none" xmlns="http://www.w3.org/2000/svg">
<path d="M12 22C13.1 22 14 21.1 14 20H10C10 21.1 10.89 22 12 22ZM18.8787 16.8787C18.3161 16.3161 18 15.553 18 14.7574V11C18 7.93 16.36 5.36 13.5 4.68V4C13.5 3.17 12.83 2.5 12 2.5C11.17 2.5 10.5 3.17 10.5 4V4.68C7.63 5.36 6 7.92 6 11V14.7574C6 15.553 5.68393 16.3161 5.12132 16.8787L4.20711 17.7929C4.0745 17.9255 4 18.1054 4 18.2929C4 18.6834 4.31658 19 4.70711 19H19.2929C19.6834 19 20 18.6834 20 18.2929C20 18.1054 19.9255 17.9255 19.7929 17.7929L18.8787 16.8787Z" fill="#6C7BAD"/>
</svg>
