<svg width="20" height="20" viewBox="0 0 20 20" fill="none" xmlns="http://www.w3.org/2000/svg">
<path d="M10.6971 9.99212C10.6973 10.1072 10.6748 10.2212 10.6308 10.3275C10.5868 10.4339 10.5223 10.5305 10.441 10.6119C10.3596 10.6932 10.263 10.7578 10.1566 10.8017C10.0503 10.8457 9.93629 10.8682 9.82122 10.868C9.70614 10.8682 9.59216 10.8457 9.48581 10.8017C9.37946 10.7578 9.28284 10.6932 9.20147 10.6119C9.1201 10.5305 9.05558 10.4339 9.01163 10.3275C8.96767 10.2212 8.94514 10.1072 8.94531 9.99212C8.94514 9.87704 8.96767 9.76307 9.01163 9.65672C9.05558 9.55037 9.1201 9.45374 9.20147 9.37237C9.28284 9.291 9.37946 9.22649 9.48581 9.18253C9.59216 9.13857 9.70614 9.11604 9.82122 9.11621C10.0534 9.11656 10.276 9.20896 10.4402 9.37315C10.6044 9.53733 10.6968 9.75992 10.6971 9.99212Z" fill="#1F4393"/>
<path d="M8.38889 9.95811C8.38889 10.1703 8.30461 10.3737 8.1546 10.5237C8.00459 10.6738 7.80113 10.758 7.58898 10.758C7.48393 10.758 7.37991 10.7373 7.28286 10.6971C7.18581 10.6569 7.09763 10.598 7.02335 10.5237C6.94907 10.4495 6.89015 10.3613 6.84995 10.2642C6.80975 10.1672 6.78906 10.0632 6.78906 9.95811C6.78906 9.85307 6.80975 9.74906 6.84995 9.65201C6.89015 9.55496 6.94907 9.46677 7.02335 9.39249C7.09763 9.31821 7.18581 9.25929 7.28286 9.21909C7.37991 9.17889 7.48393 9.1582 7.58898 9.1582C7.80113 9.1582 8.00459 9.24248 8.1546 9.39249C8.30461 9.5425 8.38889 9.74596 8.38889 9.95811Z" fill="#4592CF"/>
<path d="M8.35789 7.77851C8.35825 7.948 8.29135 8.11071 8.17188 8.23093C8.05241 8.35115 7.89012 8.41907 7.72063 8.41977C7.55137 8.41942 7.38915 8.35203 7.26947 8.23234C7.14978 8.11266 7.08238 7.95043 7.08203 7.78118C7.08238 7.61192 7.14978 7.44969 7.26947 7.33001C7.38915 7.21032 7.55137 7.14293 7.72063 7.14258C7.8893 7.14293 8.05099 7.21 8.17039 7.32915C8.28978 7.44829 8.35719 7.60984 8.35789 7.77851Z" fill="#4592CF"/>
<path d="M8.35389 12.2209C8.35407 12.3045 8.33774 12.3872 8.30584 12.4645C8.27395 12.5417 8.22711 12.6119 8.16803 12.671C8.10894 12.73 8.03876 12.7769 7.96153 12.8088C7.8843 12.8407 7.80153 12.857 7.71797 12.8568C7.6344 12.857 7.55163 12.8407 7.4744 12.8088C7.39716 12.7769 7.32699 12.73 7.2679 12.671C7.20881 12.6119 7.16198 12.5417 7.13008 12.4645C7.09819 12.3872 7.08186 12.3045 7.08203 12.2209C7.08186 12.1373 7.09819 12.0546 7.13008 11.9773C7.16198 11.9001 7.20881 11.8299 7.2679 11.7708C7.32699 11.7117 7.39716 11.6649 7.4744 11.633C7.55163 11.6011 7.6344 11.5848 7.71797 11.585C7.88662 11.585 8.04837 11.652 8.16763 11.7712C8.28689 11.8905 8.35389 12.0522 8.35389 12.2209Z" fill="#4592CF"/>
<path d="M12.8483 9.95979C12.8485 10.0679 12.8273 10.1749 12.786 10.2748C12.7447 10.3747 12.6842 10.4654 12.6077 10.5418C12.5313 10.6182 12.4406 10.6788 12.3407 10.7201C12.2408 10.7614 12.1338 10.7825 12.0257 10.7824C11.9176 10.7825 11.8106 10.7614 11.7107 10.7201C11.6108 10.6788 11.5201 10.6182 11.4437 10.5418C11.3672 10.4654 11.3067 10.3747 11.2654 10.2748C11.2241 10.1749 11.203 10.0679 11.2031 9.95979C11.203 9.85171 11.2241 9.74467 11.2654 9.64479C11.3067 9.54491 11.3672 9.45417 11.4437 9.37775C11.5201 9.30133 11.6108 9.24074 11.7107 9.19947C11.8106 9.15819 11.9176 9.13703 12.0257 9.13721C12.1338 9.13703 12.2408 9.15819 12.3407 9.19947C12.4406 9.24074 12.5313 9.30133 12.6077 9.37775C12.6842 9.45417 12.7447 9.54491 12.786 9.64479C12.8273 9.74467 12.8485 9.85171 12.8483 9.95979Z" fill="#4592CF"/>
<path opacity="0.8" d="M14.6426 9.94535C14.6426 10.0317 14.6256 10.1171 14.5926 10.1969C14.5596 10.2766 14.5112 10.3491 14.4501 10.4101C14.3891 10.4711 14.3166 10.5195 14.2369 10.5526C14.1572 10.5856 14.0717 10.6026 13.9854 10.6026C13.8111 10.6026 13.6439 10.5334 13.5206 10.4101C13.3974 10.2868 13.3281 10.1197 13.3281 9.94535C13.3281 9.85904 13.3451 9.77357 13.3782 9.69382C13.4112 9.61408 13.4596 9.54163 13.5206 9.4806C13.5817 9.41956 13.6541 9.37114 13.7339 9.33811C13.8136 9.30508 13.8991 9.28809 13.9854 9.28809C14.0717 9.28809 14.1572 9.30508 14.2369 9.33811C14.3166 9.37114 14.3891 9.41956 14.4501 9.4806C14.5112 9.54163 14.5596 9.61408 14.5926 9.69382C14.6256 9.77357 14.6426 9.85904 14.6426 9.94535Z" fill="#4592CF"/>
<path opacity="0.8" d="M6.41609 9.94535C6.41609 10.1197 6.34684 10.2868 6.22358 10.4101C6.10032 10.5334 5.93314 10.6026 5.75882 10.6026C5.58451 10.6026 5.41733 10.5334 5.29407 10.4101C5.17081 10.2868 5.10156 10.1197 5.10156 9.94535C5.10156 9.85904 5.11856 9.77357 5.15159 9.69382C5.18462 9.61408 5.23304 9.54163 5.29407 9.4806C5.3551 9.41956 5.42756 9.37114 5.5073 9.33811C5.58705 9.30508 5.67251 9.28809 5.75882 9.28809C5.84514 9.28809 5.93061 9.30508 6.01035 9.33811C6.09009 9.37114 6.16255 9.41956 6.22358 9.4806C6.28461 9.54163 6.33303 9.61408 6.36606 9.69382C6.39909 9.77357 6.41609 9.85904 6.41609 9.94535Z" fill="#4592CF"/>
<path opacity="0.3" d="M14.3898 12.1568C14.3898 12.2629 14.3476 12.3646 14.2726 12.4396C14.1976 12.5146 14.0959 12.5567 13.9898 12.5567C13.8837 12.5567 13.782 12.5146 13.707 12.4396C13.632 12.3646 13.5898 12.2629 13.5898 12.1568C13.5898 12.0507 13.632 11.949 13.707 11.874C13.782 11.799 13.8837 11.7568 13.9898 11.7568C14.0959 11.7568 14.1976 11.799 14.2726 11.874C14.3476 11.949 14.3898 12.0507 14.3898 12.1568Z" fill="#4592CF"/>
<path opacity="0.8" d="M10.3371 5.99031C10.3372 6.05584 10.3245 6.12076 10.2995 6.18133C10.2745 6.2419 10.2378 6.29694 10.1914 6.34328C10.1451 6.38961 10.0901 6.42633 10.0295 6.45133C9.9689 6.47632 9.90399 6.4891 9.83846 6.48893C9.77293 6.4891 9.70801 6.47632 9.64744 6.45133C9.58687 6.42633 9.53183 6.38961 9.4855 6.34328C9.43916 6.29694 9.40244 6.2419 9.37744 6.18133C9.35245 6.12076 9.33967 6.05584 9.33985 5.99031C9.33967 5.92478 9.35245 5.85987 9.37744 5.79929C9.40244 5.73872 9.43916 5.68368 9.4855 5.63735C9.53183 5.59101 9.58687 5.55429 9.64744 5.5293C9.70801 5.5043 9.77293 5.49153 9.83846 5.4917C9.90399 5.49153 9.9689 5.5043 10.0295 5.5293C10.0901 5.55429 10.1451 5.59101 10.1914 5.63735C10.2378 5.68368 10.2745 5.73872 10.2995 5.79929C10.3245 5.85987 10.3372 5.92478 10.3371 5.99031Z" fill="#4592CF"/>
<path opacity="0.4" d="M8.26924 5.99302C8.26924 6.12455 8.21699 6.2507 8.12398 6.3437C8.03097 6.43671 7.90482 6.48896 7.77329 6.48896C7.64175 6.48896 7.51561 6.43671 7.4226 6.3437C7.32959 6.2507 7.27734 6.12455 7.27734 5.99302C7.27734 5.86149 7.32959 5.73534 7.4226 5.64233C7.51561 5.54932 7.64175 5.49707 7.77329 5.49707C7.90482 5.49707 8.03097 5.54932 8.12398 5.64233C8.21699 5.73534 8.26924 5.86149 8.26924 5.99302Z" fill="#4592CF"/>
<path opacity="0.3" d="M12.5093 13.9944C12.5093 14.121 12.459 14.2424 12.3695 14.3319C12.28 14.4214 12.1586 14.4717 12.032 14.4717C11.9054 14.4717 11.784 14.4214 11.6945 14.3319C11.605 14.2424 11.5547 14.121 11.5547 13.9944C11.5547 13.8678 11.605 13.7464 11.6945 13.6569C11.784 13.5674 11.9054 13.5171 12.032 13.5171C12.0947 13.5167 12.157 13.5288 12.215 13.5527C12.2731 13.5766 12.3259 13.6117 12.3702 13.6561C12.4146 13.7005 12.4498 13.7532 12.4736 13.8113C12.4975 13.8694 12.5096 13.9316 12.5093 13.9944Z" fill="#4592CF"/>
<path opacity="0.8" d="M10.4859 13.9925C10.4861 14.059 10.4731 14.125 10.4477 14.1865C10.4223 14.2481 10.385 14.304 10.3379 14.3511C10.2908 14.3982 10.2349 14.4355 10.1733 14.4609C10.1118 14.4863 10.0458 14.4993 9.97927 14.4991C9.91269 14.4993 9.84673 14.4863 9.78519 14.4609C9.72365 14.4355 9.66773 14.3982 9.62065 14.3511C9.57357 14.304 9.53626 14.2481 9.51086 14.1865C9.48546 14.125 9.47248 14.059 9.47266 13.9925C9.47248 13.9259 9.48546 13.8599 9.51086 13.7984C9.53626 13.7368 9.57357 13.6809 9.62065 13.6338C9.66773 13.5868 9.72365 13.5495 9.78519 13.5241C9.84673 13.4987 9.91269 13.4857 9.97927 13.4859C10.0459 13.4853 10.1121 13.4981 10.1738 13.5233C10.2355 13.5486 10.2915 13.5859 10.3387 13.6331C10.3858 13.6802 10.4231 13.7363 10.4484 13.798C10.4737 13.8597 10.4864 13.9258 10.4859 13.9925Z" fill="#4592CF"/>
<path opacity="0.3" d="M6.24597 7.79828C6.24562 7.90849 6.20169 8.01408 6.12376 8.09201C6.04583 8.16995 5.94023 8.21388 5.83002 8.21423C5.71981 8.21388 5.61421 8.16995 5.53628 8.09201C5.45835 8.01408 5.41441 7.90849 5.41406 7.79828C5.41441 7.68807 5.45835 7.58247 5.53628 7.50454C5.61421 7.42661 5.71981 7.38268 5.83002 7.38232C5.94023 7.38268 6.04583 7.42661 6.12376 7.50454C6.20169 7.58247 6.24562 7.68807 6.24597 7.79828Z" fill="#4592CF"/>
<path d="M12.7004 12.1314C12.7004 12.3082 12.6301 12.4778 12.5051 12.6028C12.3801 12.7278 12.2106 12.798 12.0338 12.798C11.857 12.798 11.6874 12.7278 11.5624 12.6028C11.4374 12.4778 11.3672 12.3082 11.3672 12.1314C11.3672 11.9546 11.4374 11.7851 11.5624 11.6601C11.6874 11.5351 11.857 11.4648 12.0338 11.4648C12.2106 11.4648 12.3801 11.5351 12.5051 11.6601C12.6301 11.7851 12.7004 11.9546 12.7004 12.1314Z" fill="#4592CF"/>
<path d="M12.6639 7.7758C12.6636 7.94506 12.5962 8.10728 12.4765 8.22697C12.3568 8.34665 12.1946 8.41405 12.0253 8.4144C11.8561 8.41405 11.6938 8.34665 11.5741 8.22697C11.4545 8.10728 11.3871 7.94506 11.3867 7.7758C11.3871 7.60655 11.4545 7.44432 11.5741 7.32464C11.6938 7.20495 11.8561 7.13756 12.0253 7.13721C12.1947 7.13721 12.3571 7.20448 12.4769 7.32424C12.5966 7.444 12.6639 7.60644 12.6639 7.7758Z" fill="#4592CF"/>
<path d="M10.6394 7.74303C10.6394 7.95058 10.5569 8.14964 10.4102 8.2964C10.2634 8.44316 10.0644 8.52561 9.8568 8.52561C9.75403 8.52561 9.65227 8.50537 9.55732 8.46604C9.46237 8.42672 9.3761 8.36907 9.30343 8.2964C9.23076 8.22373 9.17312 8.13746 9.13379 8.04251C9.09446 7.94756 9.07422 7.8458 9.07422 7.74303C9.07422 7.64026 9.09446 7.5385 9.13379 7.44355C9.17312 7.3486 9.23076 7.26233 9.30343 7.18966C9.3761 7.11699 9.46237 7.05935 9.55732 7.02002C9.65227 6.98069 9.75403 6.96045 9.8568 6.96045C10.0644 6.96045 10.2634 7.0429 10.4102 7.18966C10.5569 7.33642 10.6394 7.53547 10.6394 7.74303Z" fill="#4592CF"/>
<path d="M10.6488 12.2385C10.6488 12.4478 10.5657 12.6485 10.4176 12.7966C10.2696 12.9446 10.0689 13.0277 9.85956 13.0277C9.65024 13.0277 9.44949 12.9446 9.30148 12.7966C9.15347 12.6485 9.07031 12.4478 9.07031 12.2385C9.07031 12.0291 9.15347 11.8284 9.30148 11.6804C9.44949 11.5324 9.65024 11.4492 9.85956 11.4492C10.0687 11.4499 10.269 11.5333 10.4169 11.6812C10.5647 11.829 10.6481 12.0294 10.6488 12.2385Z" fill="#4592CF"/>
<path d="M16.4961 11.2681C16.35 11.2682 16.2085 11.3186 16.0953 11.4109C15.9821 11.5032 15.9043 11.6317 15.8748 11.7747C15.7762 12.2356 15.6231 12.6832 15.4189 13.1079C15.4187 13.1143 15.4163 13.1204 15.4122 13.1253C15.282 13.3974 15.1309 13.6591 14.9602 13.9078C14.9602 13.9078 14.9602 13.9145 14.9536 13.9225C14.5239 14.5502 13.9814 15.0927 13.3537 15.5223L13.3391 15.533C13.0898 15.7029 12.8282 15.854 12.5565 15.9849C12.5516 15.9891 12.5455 15.9914 12.5392 15.9916C11.8532 16.3244 11.1104 16.5243 10.3501 16.5809C10.3434 16.5809 10.3394 16.5809 10.3327 16.5809C10.0363 16.6025 9.73863 16.6025 9.44217 16.5809H9.40484C8.64531 16.5224 7.90314 16.3239 7.21574 15.9956C7.20908 15.9956 7.20508 15.9889 7.20108 15.9889C6.92892 15.8588 6.66727 15.7077 6.4185 15.537L6.40383 15.5263C5.77613 15.0967 5.23366 14.5542 4.804 13.9265C4.80032 13.9224 4.79799 13.9173 4.79734 13.9118C4.62613 13.6627 4.47373 13.4011 4.34139 13.1293C4.33726 13.1244 4.33491 13.1183 4.33472 13.1119C4.13075 12.6867 3.97641 12.2393 3.87477 11.7787C3.84486 11.6359 3.76685 11.5077 3.65377 11.4155C3.5407 11.3233 3.39941 11.2727 3.25351 11.2721H1.08041C0.988574 11.2719 0.897769 11.2915 0.814215 11.3296C0.730661 11.3677 0.65633 11.4234 0.596315 11.4929C0.5363 11.5624 0.492017 11.6441 0.4665 11.7323C0.440983 11.8205 0.434835 11.9132 0.448476 12.004C0.595397 12.8997 0.869702 13.7698 1.26305 14.5878C1.26305 14.5944 1.26972 14.6051 1.26972 14.6131C1.47297 15.0355 1.70923 15.4411 1.97631 15.8263C1.97631 15.833 1.98298 15.841 1.99097 15.8476C2.65962 16.824 3.50304 17.6683 4.47871 18.338C4.48629 18.3443 4.49484 18.3492 4.50404 18.3527C4.89132 18.6179 5.29823 18.8532 5.72124 19.0566L5.74657 19.0673C6.81393 19.5774 7.96662 19.8852 9.1462 19.9752C9.15589 19.9733 9.16584 19.9733 9.17553 19.9752H9.19686C9.65796 20.0093 10.1209 20.0093 10.582 19.9752H10.6074C11.7881 19.8866 12.9416 19.5759 14.007 19.0593C14.0137 19.0593 14.0243 19.0526 14.0323 19.0526C14.4539 18.8489 14.8595 18.6136 15.2455 18.3487C15.2535 18.344 15.2606 18.3381 15.2669 18.3314C16.2433 17.6627 17.0876 16.8193 17.7573 15.8436C17.7573 15.837 17.7679 15.829 17.7679 15.8223C18.0331 15.435 18.2684 15.0281 18.4719 14.6051C18.4797 14.5941 18.4843 14.5812 18.4852 14.5678C18.8766 13.7517 19.1495 12.8839 19.2958 11.9907C19.3094 11.8999 19.3033 11.8072 19.2777 11.719C19.2522 11.6308 19.2079 11.5491 19.1479 11.4796C19.0879 11.4101 19.0136 11.3544 18.93 11.3162C18.8465 11.2781 18.7557 11.2585 18.6638 11.2588H16.4961V11.2681Z" fill="#1F4393"/>
<path d="M14.1149 3.7551C14.0738 3.75532 14.0338 3.74274 14.0002 3.71911C13.7246 3.53238 13.4354 3.3666 13.135 3.22316L13.0817 3.19383C13.0687 3.19026 13.0565 3.18439 13.0457 3.1765C13.0365 3.1729 13.028 3.16796 13.0203 3.16184C12.9853 3.13849 12.9581 3.10518 12.9421 3.06621C12.9262 3.02724 12.9223 2.98439 12.931 2.94319C12.9455 2.88034 12.9562 2.81668 12.963 2.75255C12.9828 2.44406 12.8801 2.14022 12.6771 1.90705C12.4742 1.67389 12.1874 1.53025 11.8791 1.50735C11.8516 1.50564 11.824 1.50564 11.7965 1.50735C11.5454 1.50838 11.3013 1.59023 11.1003 1.74078C10.8993 1.89132 10.7522 2.10257 10.6806 2.34326C10.6675 2.3855 10.6414 2.42249 10.6059 2.44886C10.5704 2.47523 10.5275 2.48961 10.4833 2.48991C10.4534 2.48945 10.4236 2.48723 10.3939 2.48324C10.3807 2.4849 10.3672 2.4849 10.354 2.48324C10.1926 2.47258 10.0313 2.46858 9.87 2.46858C9.70868 2.46858 9.5327 2.47524 9.37805 2.48591H9.35806C9.30136 2.48531 9.2472 2.46231 9.20741 2.42192C9.18674 2.39873 9.17129 2.37138 9.16209 2.34171C9.1529 2.31204 9.15016 2.28075 9.15408 2.24994C9.22507 1.79202 9.41596 1.36104 9.70735 1.00074C9.95742 0.687992 10.2747 0.435587 10.6357 0.262256C10.9967 0.0889257 11.392 -0.000877357 11.7925 -0.000487014C11.8565 -0.000487014 11.9258 -0.000486861 11.9858 0.00617908C12.1435 0.0157449 12.2998 0.0412048 12.4524 0.082171C12.964 0.207565 13.4267 0.482494 13.7814 0.871899C14.1362 1.2613 14.3669 1.74754 14.4442 2.2686C14.4718 2.4673 14.4803 2.66821 14.4695 2.86853C14.4499 3.12871 14.3942 3.3849 14.3042 3.62979C14.2933 3.65934 14.2755 3.68587 14.2523 3.70719C14.2291 3.72852 14.2012 3.74403 14.1709 3.75244C14.1523 3.75481 14.1336 3.7557 14.1149 3.7551Z" fill="#EE3A3A"/>
<path d="M17.4603 10.5794C17.4086 10.5797 17.3587 10.5607 17.3203 10.5261C17.2974 10.5055 17.2797 10.4798 17.2686 10.4511C17.2574 10.4224 17.2532 10.3914 17.2563 10.3608C17.2833 10.0312 17.2833 9.69988 17.2563 9.37024C17.2563 9.33025 17.2563 9.28758 17.2563 9.28358C17.2563 9.27958 17.2563 9.26225 17.2563 9.25425C17.2564 9.21038 17.2704 9.16767 17.2963 9.13224C17.3222 9.0968 17.3586 9.07044 17.4003 9.05694C17.4627 9.03843 17.5237 9.01571 17.5829 8.98895C17.8422 8.86335 18.0458 8.64638 18.1548 8.37974C18.2637 8.1131 18.2703 7.8156 18.1732 7.5444C18.0762 7.2732 17.8823 7.04745 17.6289 6.91051C17.3755 6.77357 17.0804 6.73511 16.8004 6.80252C16.7838 6.80652 16.7668 6.80875 16.7497 6.80919C16.7118 6.80842 16.6748 6.79835 16.6417 6.77986C16.6015 6.75465 16.571 6.7166 16.5551 6.67187V6.6652L16.5337 6.62254C16.3854 6.31789 16.2161 6.02388 16.0271 5.74264C16.0099 5.71712 15.9987 5.68803 15.9943 5.65755C15.9899 5.62707 15.9925 5.596 16.0018 5.56666C16.0102 5.5363 16.0257 5.50838 16.047 5.4852C16.0684 5.46202 16.0949 5.44424 16.1244 5.43334C16.4239 5.3161 16.7428 5.25639 17.0643 5.25736C17.6197 5.25465 18.1621 5.42481 18.6164 5.74424C19.0707 6.06366 19.4143 6.51653 19.5996 7.04003C19.785 7.56353 19.8029 8.13173 19.6508 8.66585C19.4987 9.19996 19.1841 9.67351 18.7508 10.0208C18.5976 10.1485 18.4287 10.256 18.2482 10.3408C18.0136 10.455 17.7634 10.5336 17.5056 10.5741L17.4603 10.5794Z" fill="#4592CF"/>
<path d="M2.25433 10.5821C1.79508 10.5115 1.36269 10.3206 1.00113 10.0288C0.663863 9.75712 0.397286 9.40792 0.224112 9.01097C0.0509384 8.61402 -0.023697 8.18108 0.00656815 7.74905C0.0161567 7.59267 0.0416184 7.43767 0.0825601 7.28644C0.208358 6.77423 0.483236 6.31084 0.872423 5.95488C1.26161 5.59892 1.74762 5.36637 2.26899 5.28665C2.40821 5.26796 2.54848 5.25816 2.68895 5.25732C2.74627 5.25732 2.8036 5.25732 2.86493 5.25732C3.1254 5.27752 3.3817 5.33452 3.62618 5.42664C3.65535 5.43817 3.68154 5.45615 3.70278 5.47924C3.72402 5.50233 3.73976 5.52993 3.74883 5.55996C3.75826 5.58929 3.76088 5.62038 3.75649 5.65087C3.7521 5.68137 3.74082 5.71046 3.7235 5.73594C3.53551 6.00935 3.36966 6.29735 3.22755 6.59718C3.22755 6.59718 3.20622 6.63317 3.20622 6.63717L3.18089 6.6905C3.16408 6.72467 3.13809 6.75349 3.10583 6.77374C3.07358 6.79399 3.03633 6.80486 2.99825 6.80516C2.9803 6.80467 2.96243 6.80243 2.94492 6.79849C2.88538 6.78123 2.82413 6.7705 2.76227 6.76649C2.73475 6.76462 2.70713 6.76462 2.67961 6.76649C2.3995 6.7671 2.12893 6.86837 1.91725 7.05183C1.70557 7.23528 1.56689 7.48872 1.52648 7.7659C1.48608 8.04309 1.54664 8.32556 1.69714 8.56182C1.84763 8.79807 2.07803 8.97236 2.34632 9.05291C2.38889 9.06538 2.42624 9.09139 2.45271 9.12699C2.47917 9.1626 2.4933 9.20586 2.49296 9.25023C2.49296 9.26089 2.49296 9.28222 2.49296 9.29289C2.49503 9.30703 2.49503 9.3214 2.49296 9.33555C2.49459 9.34749 2.49459 9.3596 2.49296 9.37154C2.46946 9.69909 2.46946 10.0279 2.49296 10.3554C2.49536 10.3866 2.49088 10.418 2.47982 10.4472C2.46876 10.4765 2.4514 10.5029 2.42897 10.5248C2.39227 10.5578 2.34502 10.5767 2.29565 10.5781C2.27566 10.5821 2.26766 10.5821 2.25433 10.5821Z" fill="#4592CF"/>
<path d="M3.04481 6.72286C2.99603 6.72495 2.94831 6.70825 2.91149 6.6762C2.39243 6.25454 2.04989 5.65397 1.9512 4.99255C1.85252 4.33113 2.00484 3.65672 2.37821 3.10192C2.44158 3.00855 2.51106 2.91948 2.58619 2.83528C2.94905 2.42332 3.42974 2.13282 3.96318 2.0031C4.49661 1.87337 5.05702 1.9107 5.56853 2.11003C5.75679 2.18014 5.93585 2.2728 6.10181 2.386C6.32158 2.53067 6.51577 2.71089 6.67641 2.91927C6.6958 2.94297 6.70949 2.97079 6.71642 3.00061C6.72336 3.03043 6.72335 3.06144 6.71641 3.09125C6.70863 3.12012 6.69472 3.14698 6.67563 3.16998C6.65653 3.19299 6.6327 3.21161 6.60575 3.22457C6.30756 3.36991 6.02097 3.53794 5.74851 3.72718L5.66186 3.78051C5.62866 3.80125 5.59035 3.81233 5.5512 3.81251C5.5263 3.81219 5.50171 3.80697 5.47883 3.79713C5.45595 3.78729 5.43524 3.77304 5.41788 3.75518C5.36957 3.71038 5.31786 3.66938 5.26323 3.63253C5.07185 3.50194 4.84566 3.43181 4.61397 3.43122C4.38564 3.43097 4.16225 3.49774 3.9715 3.62324C3.78075 3.74875 3.63103 3.92748 3.54089 4.13727C3.45076 4.34706 3.42418 4.5787 3.46444 4.80345C3.5047 5.02821 3.61004 5.23621 3.7674 5.40167C3.79997 5.43586 3.81984 5.48017 3.82373 5.52722C3.82761 5.57428 3.81526 5.62125 3.78873 5.66031C3.78141 5.67182 3.77292 5.68254 3.7634 5.69231L3.74607 5.72164C3.55427 6.00255 3.38403 6.29758 3.23679 6.60421C3.22399 6.6317 3.20548 6.65614 3.18249 6.67591C3.1595 6.69568 3.13256 6.71032 3.10347 6.71886C3.07681 6.72019 3.06347 6.72286 3.04481 6.72286Z" fill="#17AE4B"/>
<path d="M5.63696 3.75837C5.61606 3.75835 5.59531 3.75474 5.57563 3.7477C5.54577 3.73829 5.51834 3.72243 5.4953 3.70123C5.47226 3.68003 5.45417 3.65402 5.44231 3.62505C5.27502 3.19245 5.22534 2.72324 5.29833 2.2652C5.36472 1.8377 5.53348 1.43259 5.79022 1.08439C6.04696 0.736188 6.38407 0.455214 6.77283 0.265413C6.95717 0.177044 7.15079 0.109522 7.35011 0.0641012C7.84018 -0.0453201 8.3511 -0.0152659 8.82496 0.150857C9.29882 0.31698 9.71668 0.612529 10.0311 1.004C10.1597 1.15896 10.2673 1.33019 10.3511 1.51328C10.4644 1.74483 10.5442 1.99125 10.5884 2.2452C10.5937 2.27583 10.5919 2.30727 10.5831 2.3371C10.5744 2.36692 10.5588 2.39432 10.5378 2.41718C10.5182 2.43877 10.4944 2.45598 10.4677 2.4677C10.4411 2.47942 10.4122 2.48537 10.3831 2.48517H10.3738C10.2045 2.47451 10.0405 2.46784 9.87116 2.46784C9.70185 2.46784 9.53387 2.47451 9.37922 2.48517L9.32589 2.28119L9.34322 2.48517H9.31123H9.26056C9.21669 2.48505 9.17399 2.47106 9.13855 2.4452C9.10311 2.41934 9.07675 2.38293 9.06325 2.34119C9.04394 2.27856 9.01987 2.2175 8.99126 2.15854C8.86634 1.89955 8.65007 1.6959 8.38406 1.58675C8.11804 1.47761 7.82106 1.47067 7.55024 1.56729C7.27942 1.66391 7.05388 1.85724 6.91702 2.11012C6.78015 2.363 6.74162 2.65755 6.80883 2.93712C6.81959 2.98249 6.81479 3.03015 6.7952 3.07246C6.77562 3.11477 6.74239 3.14927 6.70084 3.17043C6.69038 3.1738 6.68048 3.17874 6.67151 3.1851L6.62485 3.21043C6.32026 3.35749 6.02743 3.52775 5.74895 3.71971C5.71658 3.744 5.67741 3.75752 5.63696 3.75837Z" fill="#FFC10E"/>
<path d="M15.0984 5.33994C15.0373 5.4295 14.9511 5.49895 14.8506 5.53949C14.7501 5.58004 14.6398 5.58987 14.5337 5.56773C14.4276 5.5456 14.3305 5.4925 14.2545 5.41515C14.1786 5.33779 14.1273 5.23967 14.1072 5.13317C14.0871 5.02668 14.099 4.9166 14.1414 4.81687C14.1838 4.71713 14.2548 4.63222 14.3455 4.57287C14.4362 4.51352 14.5425 4.48239 14.6508 4.48342C14.7592 4.48446 14.8649 4.51762 14.9544 4.57869C15.0735 4.66125 15.1554 4.78737 15.1824 4.92981C15.2093 5.07225 15.1791 5.21957 15.0984 5.33994Z" fill="#EE518B"/>
<path d="M16.66 8.56687C16.5625 8.61365 16.4533 8.63052 16.3462 8.61538C16.2391 8.60024 16.1389 8.55375 16.0582 8.48178C15.9775 8.4098 15.9199 8.31555 15.8927 8.2109C15.8654 8.10624 15.8698 7.99587 15.9051 7.89367C15.9405 7.79147 16.0053 7.70203 16.0914 7.63659C16.1775 7.57116 16.281 7.53266 16.389 7.52596C16.4969 7.51925 16.6044 7.54463 16.6979 7.59891C16.7915 7.65318 16.8669 7.73391 16.9146 7.83095C16.9466 7.89592 16.9653 7.96659 16.9698 8.03886C16.9743 8.11113 16.9644 8.18358 16.9408 8.25201C16.9171 8.32045 16.8801 8.38351 16.8319 8.43755C16.7837 8.49159 16.7252 8.53555 16.66 8.56687Z" fill="#4592CF"/>
<path d="M3.34833 7.60148C3.48862 7.61811 3.61711 7.68817 3.7071 7.79708C3.79708 7.90599 3.84164 8.04539 3.83151 8.1863C3.82138 8.32721 3.75735 8.4588 3.65272 8.55373C3.54809 8.64866 3.4109 8.69962 3.26967 8.69602C3.19542 8.69413 3.12233 8.6772 3.05481 8.64626C2.98729 8.61532 2.92675 8.57101 2.87685 8.516C2.82694 8.46099 2.78871 8.39644 2.76446 8.32623C2.74022 8.25603 2.73046 8.18164 2.73579 8.10756C2.74111 8.03348 2.7614 7.96124 2.79544 7.89523C2.82947 7.82921 2.87654 7.77079 2.9338 7.72348C2.99106 7.67618 3.05731 7.64098 3.12856 7.62001C3.19981 7.59903 3.27457 7.59273 3.34833 7.60148Z" fill="#4592CF"/>
<path d="M5.3514 4.6359C5.4411 4.69668 5.51076 4.78269 5.55159 4.88306C5.59241 4.98342 5.60257 5.09364 5.58077 5.19977C5.55896 5.30591 5.50618 5.4032 5.4291 5.47934C5.35201 5.55549 5.25408 5.60707 5.14768 5.62756C5.04129 5.64806 4.93121 5.63655 4.83135 5.5945C4.73149 5.55244 4.64635 5.48172 4.58667 5.39128C4.527 5.30084 4.49548 5.19474 4.4961 5.08639C4.49672 4.97804 4.52945 4.87231 4.59015 4.78255C4.63024 4.72263 4.68182 4.67126 4.74191 4.63141C4.80199 4.59155 4.86937 4.56401 4.94017 4.55037C5.01096 4.53673 5.08376 4.53727 5.15435 4.55195C5.22494 4.56663 5.29191 4.59517 5.3514 4.6359Z" fill="#17AE4B"/>
<path d="M8.57636 3.07936C8.62355 3.17692 8.64075 3.28628 8.62579 3.39361C8.61083 3.50094 8.56438 3.60143 8.49231 3.68236C8.42024 3.76329 8.32579 3.82104 8.2209 3.84829C8.11602 3.87554 8.0054 3.87109 7.90305 3.83548C7.8007 3.79987 7.71121 3.73471 7.64589 3.64824C7.58057 3.56177 7.54235 3.45787 7.53608 3.34968C7.5298 3.24149 7.55575 3.13387 7.61064 3.04043C7.66553 2.94699 7.74689 2.87193 7.84444 2.82472C7.90922 2.79338 7.97954 2.7751 8.05138 2.77094C8.12322 2.76677 8.19518 2.7768 8.26314 2.80045C8.33111 2.82409 8.39375 2.86089 8.4475 2.90875C8.50124 2.95661 8.54503 3.01458 8.57636 3.07936Z" fill="#FFC10E"/>
<path d="M12.1388 3.33974C12.1309 3.44834 12.0909 3.55215 12.024 3.63804C11.9571 3.72394 11.8662 3.78806 11.7628 3.82231C11.6595 3.85655 11.5483 3.85937 11.4433 3.83042C11.3383 3.80148 11.2443 3.74205 11.1731 3.65967C11.1019 3.57728 11.0567 3.47563 11.0433 3.36758C11.0298 3.25952 11.0487 3.1499 11.0976 3.05259C11.1464 2.95528 11.2231 2.87463 11.3177 2.82086C11.4124 2.76708 11.5209 2.74258 11.6295 2.75047C11.7017 2.75571 11.7721 2.7751 11.8367 2.80756C11.9013 2.84001 11.959 2.88487 12.0063 2.9396C12.0535 2.99432 12.0896 3.05782 12.1123 3.12648C12.1351 3.19514 12.1441 3.26761 12.1388 3.33974Z" fill="#EE3A3A"/>
<path d="M16.6985 6.7154C16.6843 6.71714 16.67 6.71714 16.6558 6.7154C16.6268 6.70804 16.5997 6.69429 16.5766 6.67515C16.5536 6.656 16.5351 6.63195 16.5225 6.60474C16.3765 6.30697 16.2108 6.01925 16.0265 5.7435C16.0175 5.73334 16.009 5.72266 16.0012 5.71151C15.9944 5.70526 15.9886 5.69808 15.9839 5.69017C15.9552 5.64883 15.9403 5.59943 15.9415 5.5491C15.9427 5.49877 15.9599 5.45013 15.9905 5.41021C16.0345 5.36358 16.0742 5.31317 16.1092 5.25955C16.2707 5.02134 16.3385 4.7319 16.2997 4.44675C16.2609 4.1616 16.1182 3.90081 15.8989 3.71443C15.6796 3.52804 15.3993 3.42917 15.1116 3.43679C14.8239 3.44441 14.5492 3.55798 14.3401 3.75572C14.3212 3.7745 14.2987 3.78926 14.2739 3.79911C14.2492 3.80896 14.2227 3.8137 14.1961 3.81305C14.1467 3.81166 14.0995 3.79276 14.0628 3.75972C14.0561 3.75972 14.0268 3.73439 14.0268 3.73439C13.7455 3.54393 13.4505 3.3746 13.1442 3.22777C13.1162 3.21415 13.0917 3.19444 13.0724 3.17008C13.0531 3.14572 13.0394 3.11734 13.0325 3.08703C13.0256 3.05672 13.0256 3.02524 13.0325 2.99492C13.0393 2.96459 13.0529 2.93619 13.0722 2.91181C13.3647 2.55167 13.7455 2.27334 14.1774 2.1039C14.5801 1.94649 15.015 1.88936 15.4447 1.93744C15.8743 1.98551 16.2859 2.13735 16.6438 2.37987C16.7372 2.44324 16.8263 2.51271 16.9104 2.58784C17.3221 2.95093 17.6124 3.43162 17.7421 3.96497C17.8718 4.49831 17.8346 5.05862 17.6357 5.57019C17.5655 5.75839 17.4728 5.93744 17.3597 6.10346C17.2155 6.32064 17.0388 6.51443 16.8358 6.67807C16.7965 6.70777 16.7473 6.72114 16.6985 6.7154Z" fill="#EE518B"/>
</svg>
