<svg xmlns="http://www.w3.org/2000/svg" xmlns:xlink="http://www.w3.org/1999/xlink" width="257.971" height="260.24" viewBox="0 0 257.971 260.24">
  <defs>
    <linearGradient id="linear-gradient" y1="0.616" x2="1" y2="0.616" gradientUnits="objectBoundingBox">
      <stop offset="0" stop-color="#cc9401"/>
      <stop offset="0.19" stop-color="#cd9502"/>
      <stop offset="0.2" stop-color="#ca9603"/>
      <stop offset="0.22" stop-color="#c09807"/>
      <stop offset="0.23" stop-color="#af9c0f"/>
      <stop offset="0.24" stop-color="#96a118"/>
      <stop offset="0.25" stop-color="#77a825"/>
      <stop offset="0.26" stop-color="#52b035"/>
      <stop offset="0.26" stop-color="#3bb53e"/>
      <stop offset="0.48" stop-color="#3bb93c"/>
      <stop offset="0.48" stop-color="#3fb43b"/>
      <stop offset="0.5" stop-color="#88622a"/>
      <stop offset="0.52" stop-color="#b62e1f"/>
      <stop offset="0.53" stop-color="#c81a1b"/>
      <stop offset="0.73" stop-color="#c81a1b"/>
      <stop offset="0.74" stop-color="#c9261a"/>
      <stop offset="0.76" stop-color="#cb4417" stop-opacity="0.988"/>
      <stop offset="0.77" stop-color="#cd5d15" stop-opacity="0.988"/>
      <stop offset="1" stop-color="#cc5d15"/>
    </linearGradient>
    <linearGradient id="linear-gradient-2" x1="0.329" y1="0.096" x2="0.719" y2="1.017" gradientUnits="objectBoundingBox">
      <stop offset="0" stop-color="#277dc6"/>
      <stop offset="0.48" stop-color="#3298d2"/>
      <stop offset="1" stop-color="#3db2dd"/>
    </linearGradient>
    <linearGradient id="linear-gradient-3" x1="0.36" y1="-0.706" x2="0.58" y2="0.515" gradientUnits="objectBoundingBox">
      <stop offset="0" stop-color="#184fb4"/>
      <stop offset="0.21" stop-color="#1b58b7"/>
      <stop offset="0.56" stop-color="#226fc1"/>
      <stop offset="0.99" stop-color="#2f96d0"/>
      <stop offset="1" stop-color="#2f97d1"/>
    </linearGradient>
    <linearGradient id="linear-gradient-4" y1="0.66" x2="1" y2="0.66" gradientUnits="objectBoundingBox">
      <stop offset="0" stop-color="#febd01"/>
      <stop offset="0.16" stop-color="#febd01"/>
      <stop offset="0.19" stop-color="#febd01"/>
      <stop offset="0.2" stop-color="#fbbe02"/>
      <stop offset="0.21" stop-color="#f1c007"/>
      <stop offset="0.22" stop-color="#e0c40e"/>
      <stop offset="0.23" stop-color="#c7c917"/>
      <stop offset="0.24" stop-color="#a8d024"/>
      <stop offset="0.25" stop-color="#82d934"/>
      <stop offset="0.26" stop-color="#56e246"/>
      <stop offset="0.26" stop-color="#4ae54b"/>
      <stop offset="0.48" stop-color="#4ae54b"/>
      <stop offset="0.49" stop-color="#6fbb42"/>
      <stop offset="0.51" stop-color="#b96931"/>
      <stop offset="0.52" stop-color="#e73526"/>
      <stop offset="0.53" stop-color="#f92122"/>
      <stop offset="0.73" stop-color="#f92122"/>
      <stop offset="0.74" stop-color="#fa2d1f"/>
      <stop offset="0.75" stop-color="#fb4b16"/>
      <stop offset="0.77" stop-color="#fe7d08"/>
      <stop offset="0.78" stop-color="#f90"/>
      <stop offset="1" stop-color="#fe9900"/>
    </linearGradient>
    <linearGradient id="linear-gradient-5" x1="0.092" y1="0.779" x2="0.908" y2="1.594" gradientUnits="objectBoundingBox">
      <stop offset="0.22" stop-color="#febd01"/>
      <stop offset="0.64" stop-color="#84da3a"/>
      <stop offset="0.83" stop-color="#52e652"/>
    </linearGradient>
    <linearGradient id="linear-gradient-6" x1="0.092" y1="0.686" x2="0.908" y2="1.502" gradientUnits="objectBoundingBox">
      <stop offset="0.27" stop-color="#f92122"/>
      <stop offset="0.6" stop-color="#fc7b1c"/>
      <stop offset="0.77" stop-color="#fea41a"/>
    </linearGradient>
    <linearGradient id="linear-gradient-7" x1="0.092" y1="1.594" x2="0.908" y2="0.779" gradientUnits="objectBoundingBox">
      <stop offset="0.17" stop-color="#4ae54b"/>
      <stop offset="0.27" stop-color="#60cc46"/>
      <stop offset="0.48" stop-color="#9a8b38"/>
      <stop offset="0.79" stop-color="#f62523"/>
      <stop offset="0.8" stop-color="#f92122"/>
    </linearGradient>
    <linearGradient id="linear-gradient-8" x1="0.495" y1="-3.211" x2="0.5" y2="-2.179" gradientUnits="objectBoundingBox">
      <stop offset="0" stop-color="#1544a0"/>
      <stop offset="1" stop-color="#1745a3"/>
    </linearGradient>
    <linearGradient id="linear-gradient-9" x1="0.5" y1="2.262" x2="0.5" y2="3.262" gradientUnits="objectBoundingBox">
      <stop offset="0" stop-color="#fff"/>
      <stop offset="1" stop-color="#fff" stop-opacity="0"/>
    </linearGradient>
    <linearGradient id="linear-gradient-10" x1="0.5" y1="-0.84" x2="0.5" y2="0.16" xlink:href="#linear-gradient-9"/>
  </defs>
  <g id="Group_265246" data-name="Group 265246" transform="translate(22980.406 19593.691)">
    <path id="Path_192603" data-name="Path 192603" d="M227.85,93.41H193.54a6.611,6.611,0,0,0-6.61,6.61v32.87a6.52,6.52,0,0,0,.56,2.65l-14.61,14.61q-.3-.03-.6-.03H137.97a2.8,2.8,0,0,0-.5.03L122.8,135.48a6.5,6.5,0,0,0,.52-2.58V100.03a6.611,6.611,0,0,0-6.61-6.61H82.4a6.611,6.611,0,0,0-6.61,6.61V132.9a6.52,6.52,0,0,0,.56,2.65L61.74,150.16q-.3-.03-.6-.03H26.83a6.611,6.611,0,0,0-6.61,6.61v32.87a6.611,6.611,0,0,0,6.61,6.61H61.14a6.611,6.611,0,0,0,6.61-6.61V156.74a6.489,6.489,0,0,0-.66-2.85l14.44-14.44a6.361,6.361,0,0,0,.87.06h34.31a6.016,6.016,0,0,0,.96-.08l14.38,14.38a6.518,6.518,0,0,0-.69,2.93v32.87a6.611,6.611,0,0,0,6.61,6.61h34.31a6.611,6.611,0,0,0,6.61-6.61V156.74a6.489,6.489,0,0,0-.66-2.85l14.44-14.44a6.361,6.361,0,0,0,.87.06h34.31a6.611,6.611,0,0,0,6.61-6.61V100.03a6.613,6.613,0,0,0-6.61-6.62Z" transform="translate(-22980.406 -19610.051)" fill="url(#linear-gradient)"/>
    <g id="Group_263805" data-name="Group 263805" transform="translate(-22980.406 -19610.051)">
      <path id="Path_192604" data-name="Path 192604" d="M106.69,150.84H83.45a1.989,1.989,0,0,0-1.99,1.99v23.24a1.989,1.989,0,0,0,1.99,1.99h23.24a1.989,1.989,0,0,0,1.99-1.99V152.83A1.989,1.989,0,0,0,106.69,150.84Z" fill="#106196"/>
      <path id="Path_192605" data-name="Path 192605" d="M84.67,190.53a.928.928,0,0,0-.93.93v4.94a.928.928,0,0,0,.93.93h4.94a.928.928,0,0,0,.93-.93v-4.94a.928.928,0,0,0-.93-.93Z" fill="#106196"/>
      <path id="Path_192606" data-name="Path 192606" d="M63.32,90.11v3.51a1.652,1.652,0,0,0,1.65,1.65h3.72a1.652,1.652,0,0,0,1.65-1.65V90.11a1.652,1.652,0,0,0-1.65-1.65H64.97A1.645,1.645,0,0,0,63.32,90.11Z" fill="#106196"/>
      <path id="Path_192607" data-name="Path 192607" d="M97.04,45.62H69.55a4.827,4.827,0,0,0-4.83,4.83V76.82a4.827,4.827,0,0,0,4.83,4.83H97.04a4.827,4.827,0,0,0,4.83-4.83V50.45a4.833,4.833,0,0,0-4.83-4.83Z" fill="#106196"/>
      <path id="Path_192608" data-name="Path 192608" d="M106.41,191.39v9.63a1.989,1.989,0,0,0,1.99,1.99h9.63a1.989,1.989,0,0,0,1.99-1.99v-9.63a1.989,1.989,0,0,0-1.99-1.99H108.4A1.989,1.989,0,0,0,106.41,191.39Z" fill="#106196"/>
      <path id="Path_192609" data-name="Path 192609" d="M29.08,124.75H51.05a5.461,5.461,0,0,0,5.46-5.46V96.18a5.461,5.461,0,0,0-5.46-5.46H29.08a5.461,5.461,0,0,0-5.46,5.46v23.11a5.461,5.461,0,0,0,5.46,5.46Z" fill="#106196"/>
      <path id="Path_192610" data-name="Path 192610" d="M53.06,83.92a1.652,1.652,0,0,0,1.65-1.65V70.82a1.652,1.652,0,0,0-1.65-1.65H41.15a1.652,1.652,0,0,0-1.65,1.65V82.27a1.652,1.652,0,0,0,1.65,1.65Z" fill="#106196"/>
      <path id="Path_192611" data-name="Path 192611" d="M114.35,227.76v4.94a.928.928,0,0,0,.93.93h4.94a.928.928,0,0,0,.93-.93v-4.94a.928.928,0,0,0-.93-.93h-4.94A.922.922,0,0,0,114.35,227.76Z" fill="#106196"/>
      <path id="Path_192612" data-name="Path 192612" d="M118.63,71.38h-6.29a1.387,1.387,0,0,0-1.39,1.39v6.02a1.387,1.387,0,0,0,1.39,1.39h6.29a1.387,1.387,0,0,0,1.39-1.39V72.77A1.387,1.387,0,0,0,118.63,71.38Z" fill="#106196"/>
      <path id="Path_192613" data-name="Path 192613" d="M141.31,66.64a1.387,1.387,0,0,0,1.39-1.39V61.43a1.387,1.387,0,0,0-1.39-1.39h-4.02a1.387,1.387,0,0,0-1.39,1.39v3.82a1.387,1.387,0,0,0,1.39,1.39Z" fill="#106196"/>
      <path id="Path_192614" data-name="Path 192614" d="M170.8,102.96a1.387,1.387,0,0,0,1.39-1.39V97.75a1.387,1.387,0,0,0-1.39-1.39h-4.02a1.387,1.387,0,0,0-1.39,1.39v3.82a1.387,1.387,0,0,0,1.39,1.39Z" fill="#106196"/>
      <path id="Path_192615" data-name="Path 192615" d="M147.24,119.76v18.23a4.084,4.084,0,0,0,4.08,4.08h19.06a4.084,4.084,0,0,0,4.08-4.08V119.76a4.084,4.084,0,0,0-4.08-4.08H151.32a4.084,4.084,0,0,0-4.08,4.08Z" fill="#106196"/>
      <path id="Path_192616" data-name="Path 192616" d="M135.9,221.43a1.989,1.989,0,0,0,1.99,1.99h5.1a1.989,1.989,0,0,0,1.99-1.99V215.2a1.989,1.989,0,0,0-1.99-1.99h-5.1a1.989,1.989,0,0,0-1.99,1.99v6.23Z" fill="#106196"/>
      <path id="Path_192617" data-name="Path 192617" d="M15.06,143.59H25.38a1.652,1.652,0,0,0,1.65-1.65v-9.9a1.652,1.652,0,0,0-1.65-1.65H15.06a1.652,1.652,0,0,0-1.65,1.65v9.9A1.658,1.658,0,0,0,15.06,143.59Z" fill="#106196"/>
      <path id="Path_192618" data-name="Path 192618" d="M57.91,130.42a1.652,1.652,0,0,0-1.65,1.65v4.65a1.652,1.652,0,0,0,1.65,1.65H62.8a1.652,1.652,0,0,0,1.65-1.65v-4.65a1.652,1.652,0,0,0-1.65-1.65H57.91Z" fill="#106196"/>
      <path id="Path_192619" data-name="Path 192619" d="M128.98,18.63A128.559,128.559,0,0,0,37.35,56.86a106.879,106.879,0,0,1,69.98-25.99q3.24,0,6.42.2h-3.42a1.652,1.652,0,0,0-1.65,1.65v11a1.652,1.652,0,0,0,1.65,1.65h11.45a1.652,1.652,0,0,0,1.65-1.65v-11a1.592,1.592,0,0,0-.14-.66,106.008,106.008,0,0,1,13.75,2.99v5.28a1.652,1.652,0,0,0,1.65,1.65h5.78a1.652,1.652,0,0,0,1.65-1.65V38.11a107.608,107.608,0,0,1,14.99,7.2H154.1a3.44,3.44,0,0,0-3.44,3.44V77.07a3.44,3.44,0,0,0,3.44,3.44h29.42a3.44,3.44,0,0,0,3.44-3.44V66.24a107.613,107.613,0,0,1,14.89,21.11h28.64a8.642,8.642,0,0,1,8.64,8.64v40.56a8.642,8.642,0,0,1-8.64,8.64H214.44a107.081,107.081,0,0,1-4.25,23.82h-6.67a4.084,4.084,0,0,0-4.08,4.08v20.29a108.676,108.676,0,0,1-6.8,10.01v-3.96a.928.928,0,0,0-.93-.93h-4.94a.928.928,0,0,0-.93.93v4.94a.928.928,0,0,0,.93.93h4.37q-2.82,3.525-5.93,6.8H158.13a4.084,4.084,0,0,0-4.08,4.08v18.69a106.874,106.874,0,0,1-46.72,10.68c-.31,0-.61-.01-.92-.01V217.32a4.084,4.084,0,0,0-4.08-4.08H73.07a4.084,4.084,0,0,0-4.08,4.08V238.5A107.012,107.012,0,0,1,43.6,224.58H55.51a3.271,3.271,0,0,0,3.27-3.27V208.56a3.271,3.271,0,0,0-3.27-3.27H42.76a3.271,3.271,0,0,0-3.27,3.27V221.4A107.145,107.145,0,0,1,.12,142.93C.06,144.5,0,146.06,0,147.64a128.594,128.594,0,0,0,9.44,48.5h0q1.8,4.425,3.9,8.67a.01.01,0,0,0,.01.01q2.1,4.245,4.5,8.3c0,.02.02.03.03.05q2.385,4.035,5.05,7.88a.351.351,0,0,1,.05.08q2.655,3.825,5.57,7.43l.09.12q2.9,3.585,6.04,6.95c.05.05.1.1.15.16q3.12,3.33,6.47,6.44c.07.07.14.13.21.2q3.33,3.075,6.87,5.91c.09.07.18.15.28.22,1.18.94,2.37,1.86,3.59,2.76a1.047,1.047,0,0,1,.11.08c1.16.86,2.35,1.7,3.54,2.52.11.08.23.16.34.24,1.22.84,2.46,1.65,3.71,2.45.1.06.21.13.31.19,1.17.74,2.36,1.46,3.56,2.16.14.08.27.16.41.24,1.26.73,2.54,1.45,3.83,2.14.16.09.32.17.49.26,1.18.63,2.38,1.24,3.59,1.83.15.08.31.15.46.23q1.95.945,3.93,1.83c.21.1.43.19.64.28,1.2.53,2.42,1.04,3.64,1.53.16.07.33.14.49.2,1.33.53,2.68,1.04,4.03,1.52.26.09.52.18.78.28,1.23.43,2.47.85,3.72,1.25.16.05.33.11.49.16,1.37.43,2.74.83,4.13,1.22.3.08.6.16.89.24,1.27.34,2.54.67,3.82.97.15.04.31.08.46.11,1.4.33,2.81.62,4.23.9.32.06.65.13.98.19,1.32.25,2.65.48,3.98.69l.38.06c1.43.22,2.87.41,4.32.58l1.05.12c1.39.16,2.79.29,4.2.4.08.01.15.01.23.02,1.47.11,2.94.19,4.42.26.36.02.73.03,1.09.04,1.49.05,2.98.09,4.49.09s3-.04,4.49-.09c.36-.01.73-.03,1.09-.04,1.48-.06,2.95-.14,4.42-.26.08-.01.15-.01.23-.02,1.41-.11,2.81-.25,4.2-.4l1.05-.12c1.45-.17,2.89-.36,4.32-.58l.38-.06c1.33-.21,2.66-.44,3.98-.69.33-.06.65-.12.98-.19,1.42-.28,2.83-.58,4.22-.9.15-.04.3-.08.46-.11,1.28-.3,2.56-.63,3.83-.97.3-.08.6-.16.89-.24,1.38-.38,2.76-.79,4.13-1.21.17-.05.33-.11.5-.16,1.25-.4,2.48-.81,3.71-1.25.26-.09.52-.18.78-.28,1.35-.49,2.7-.99,4.03-1.52.17-.07.33-.14.49-.2,1.22-.49,2.44-1,3.64-1.53.21-.09.43-.19.64-.28q1.98-.885,3.93-1.83c.15-.08.31-.15.46-.23,1.21-.59,2.4-1.21,3.59-1.84.16-.09.32-.17.49-.26,1.29-.69,2.56-1.4,3.83-2.14.14-.08.27-.16.41-.24,1.2-.7,2.38-1.42,3.56-2.16.1-.06.21-.13.31-.19q1.875-1.185,3.71-2.45c.12-.08.23-.16.35-.24q1.785-1.23,3.53-2.52l.12-.09c1.21-.9,2.41-1.82,3.58-2.76l.28-.22q3.54-2.835,6.87-5.91c.07-.06.14-.13.21-.19q3.345-3.105,6.47-6.44c.05-.05.1-.11.15-.16q3.135-3.36,6.04-6.95l.09-.12q2.91-3.615,5.57-7.43a.351.351,0,0,0,.05-.08q2.67-3.84,5.05-7.88a.076.076,0,0,0,.02-.04q2.4-4.05,4.5-8.3a.01.01,0,0,1,.01-.01A129.049,129.049,0,0,0,128.98,18.63Z" fill="#106196"/>
      <path id="Path_192620" data-name="Path 192620" d="M135.9,103.38a1.652,1.652,0,0,0,1.65,1.65h10.32a1.652,1.652,0,0,0,1.65-1.65v-9.9a1.652,1.652,0,0,0-1.65-1.65H137.55a1.652,1.652,0,0,0-1.65,1.65Z" fill="#106196"/>
      <path id="Path_192621" data-name="Path 192621" d="M200.29,153.04H194a1.387,1.387,0,0,0-1.39,1.39v6.02a1.387,1.387,0,0,0,1.39,1.39h6.29a1.387,1.387,0,0,0,1.39-1.39v-6.02A1.387,1.387,0,0,0,200.29,153.04Z" fill="#106196"/>
    </g>
    <path id="Path_192622" data-name="Path 192622" d="M108.68,150.56V173.8a1.989,1.989,0,0,1-1.99,1.99H83.45a1.989,1.989,0,0,1-1.99-1.99V150.56a1.989,1.989,0,0,1,1.99-1.99h23.24A1.989,1.989,0,0,1,108.68,150.56Zm-24.01,37.7a.928.928,0,0,0-.93.93v4.94a.928.928,0,0,0,.93.93h4.94a.928.928,0,0,0,.93-.93v-4.94a.928.928,0,0,0-.93-.93ZM63.32,87.84v3.51A1.652,1.652,0,0,0,64.97,93h3.72a1.652,1.652,0,0,0,1.65-1.65V87.84a1.652,1.652,0,0,0-1.65-1.65H64.97A1.645,1.645,0,0,0,63.32,87.84ZM97.04,43.36H69.55a4.827,4.827,0,0,0-4.83,4.83V74.56a4.827,4.827,0,0,0,4.83,4.83H97.04a4.827,4.827,0,0,0,4.83-4.83V48.19a4.827,4.827,0,0,0-4.83-4.83Zm9.37,145.76v9.63a1.989,1.989,0,0,0,1.99,1.99h9.63a1.989,1.989,0,0,0,1.99-1.99v-9.63a1.989,1.989,0,0,0-1.99-1.99H108.4A1.989,1.989,0,0,0,106.41,189.12ZM29.08,122.48H51.05a5.461,5.461,0,0,0,5.46-5.46V93.91a5.461,5.461,0,0,0-5.46-5.46H29.08a5.461,5.461,0,0,0-5.46,5.46v23.11a5.461,5.461,0,0,0,5.46,5.46ZM53.06,81.66a1.652,1.652,0,0,0,1.65-1.65V68.56a1.652,1.652,0,0,0-1.65-1.65H41.15a1.652,1.652,0,0,0-1.65,1.65V80.01a1.652,1.652,0,0,0,1.65,1.65Zm61.29,143.83v4.94a.928.928,0,0,0,.93.93h4.94a.928.928,0,0,0,.93-.93v-4.94a.928.928,0,0,0-.93-.93h-4.94A.922.922,0,0,0,114.35,225.49Zm4.28-156.38h-6.29a1.387,1.387,0,0,0-1.39,1.39v6.02a1.387,1.387,0,0,0,1.39,1.39h6.29a1.387,1.387,0,0,0,1.39-1.39V70.5A1.393,1.393,0,0,0,118.63,69.11Zm22.68-4.74a1.387,1.387,0,0,0,1.39-1.39V59.16a1.387,1.387,0,0,0-1.39-1.39h-4.02a1.387,1.387,0,0,0-1.39,1.39v3.82a1.387,1.387,0,0,0,1.39,1.39ZM170.8,100.7a1.387,1.387,0,0,0,1.39-1.39V95.49a1.387,1.387,0,0,0-1.39-1.39h-4.02a1.387,1.387,0,0,0-1.39,1.39v3.82a1.387,1.387,0,0,0,1.39,1.39Zm-23.56,16.79v18.23a4.084,4.084,0,0,0,4.08,4.08h19.06a4.084,4.084,0,0,0,4.08-4.08V117.49a4.084,4.084,0,0,0-4.08-4.08H151.32A4.084,4.084,0,0,0,147.24,117.49ZM135.9,219.16a1.989,1.989,0,0,0,1.99,1.99h5.1a1.989,1.989,0,0,0,1.99-1.99v-6.23a1.989,1.989,0,0,0-1.99-1.99h-5.1a1.989,1.989,0,0,0-1.99,1.99v6.23ZM15.06,141.32H25.38a1.652,1.652,0,0,0,1.65-1.65v-9.9a1.652,1.652,0,0,0-1.65-1.65H15.06a1.652,1.652,0,0,0-1.65,1.65v9.9A1.658,1.658,0,0,0,15.06,141.32Zm42.85-13.17a1.652,1.652,0,0,0-1.65,1.65v4.65a1.652,1.652,0,0,0,1.65,1.65H62.8a1.652,1.652,0,0,0,1.65-1.65V129.8a1.652,1.652,0,0,0-1.65-1.65H57.91ZM128.98,16.36A128.559,128.559,0,0,0,37.35,54.59,106.879,106.879,0,0,1,107.33,28.6q3.24,0,6.42.2h-3.42a1.652,1.652,0,0,0-1.65,1.65v11a1.652,1.652,0,0,0,1.65,1.65h11.45a1.652,1.652,0,0,0,1.65-1.65v-11a1.592,1.592,0,0,0-.14-.66,106.008,106.008,0,0,1,13.75,2.99v5.28a1.652,1.652,0,0,0,1.65,1.65h5.78a1.652,1.652,0,0,0,1.65-1.65V35.84a107.608,107.608,0,0,1,14.99,7.2H154.1a3.44,3.44,0,0,0-3.44,3.44V74.8a3.44,3.44,0,0,0,3.44,3.44h29.42a3.44,3.44,0,0,0,3.44-3.44V63.97a107.613,107.613,0,0,1,14.89,21.11h28.64a8.642,8.642,0,0,1,8.64,8.64v40.56a8.642,8.642,0,0,1-8.64,8.64H214.44a107.081,107.081,0,0,1-4.25,23.82h-6.67a4.084,4.084,0,0,0-4.08,4.08v20.29a108.676,108.676,0,0,1-6.8,10.01v-3.96a.928.928,0,0,0-.93-.93h-4.94a.928.928,0,0,0-.93.93v4.94a.928.928,0,0,0,.93.93h4.37q-2.82,3.525-5.93,6.8H158.13a4.084,4.084,0,0,0-4.08,4.08V232.6a106.874,106.874,0,0,1-46.72,10.68c-.31,0-.61-.01-.92-.01V215.05a4.084,4.084,0,0,0-4.08-4.08H73.07a4.084,4.084,0,0,0-4.08,4.08v21.18A107.012,107.012,0,0,1,43.6,222.31H55.51a3.271,3.271,0,0,0,3.27-3.27V206.27A3.271,3.271,0,0,0,55.51,203H42.76a3.271,3.271,0,0,0-3.27,3.27v12.84A107.145,107.145,0,0,1,.12,140.64c-.06,1.57-.12,3.13-.12,4.71a128.594,128.594,0,0,0,9.44,48.5h0q1.8,4.425,3.9,8.67a.01.01,0,0,0,.01.01q2.1,4.245,4.5,8.3c0,.02.02.03.03.05q2.385,4.035,5.05,7.88a.351.351,0,0,1,.05.08q2.655,3.825,5.57,7.43l.09.12q2.9,3.585,6.04,6.95c.05.05.1.1.15.16q3.12,3.33,6.47,6.44c.07.07.14.13.21.2q3.33,3.075,6.87,5.91c.09.07.18.15.28.22,1.18.94,2.37,1.86,3.59,2.76a1.047,1.047,0,0,1,.11.08c1.16.86,2.35,1.7,3.54,2.52.11.08.23.16.34.24,1.22.84,2.46,1.65,3.71,2.45.1.06.21.13.31.19,1.17.74,2.36,1.46,3.56,2.16.14.08.27.16.41.24,1.26.73,2.54,1.45,3.83,2.14.16.09.32.17.49.26,1.18.63,2.38,1.24,3.59,1.83.15.08.31.15.46.23q1.95.945,3.93,1.83c.21.1.43.19.64.28,1.2.53,2.42,1.04,3.64,1.53.16.07.33.14.49.2,1.33.53,2.68,1.04,4.03,1.52.26.09.52.18.78.28,1.23.43,2.47.85,3.72,1.25.16.05.33.11.49.16,1.37.43,2.74.83,4.13,1.22.3.08.6.16.89.24,1.27.34,2.54.67,3.82.97.15.04.31.08.46.11,1.4.33,2.81.62,4.23.9.32.06.65.13.98.19,1.32.25,2.65.48,3.98.69l.38.06c1.43.22,2.87.41,4.32.58l1.05.12c1.39.16,2.79.29,4.2.4.08.01.15.01.23.02,1.47.11,2.94.19,4.42.26.36.02.73.03,1.09.04,1.49.05,2.98.09,4.49.09s3-.04,4.49-.09c.36-.01.73-.03,1.09-.04,1.48-.06,2.95-.14,4.42-.26.08-.01.15-.01.23-.02,1.41-.11,2.81-.25,4.2-.4l1.05-.12c1.45-.17,2.89-.36,4.32-.58l.38-.06c1.33-.21,2.66-.44,3.98-.69.33-.06.65-.12.98-.19,1.42-.28,2.83-.58,4.22-.9.15-.04.3-.08.46-.11,1.28-.3,2.56-.63,3.83-.97.3-.08.6-.16.89-.24,1.38-.38,2.76-.79,4.13-1.21.17-.05.33-.11.5-.16,1.25-.4,2.48-.81,3.71-1.25.26-.09.52-.18.78-.28,1.35-.49,2.7-.99,4.03-1.52.17-.07.33-.14.49-.2,1.22-.49,2.44-1,3.64-1.53.21-.09.43-.19.64-.28q1.98-.885,3.93-1.83c.15-.08.31-.15.46-.23,1.21-.59,2.4-1.21,3.59-1.84.16-.09.32-.17.49-.26,1.29-.69,2.56-1.4,3.83-2.14.14-.08.27-.16.41-.24,1.2-.7,2.38-1.42,3.56-2.16.1-.06.21-.13.31-.19q1.875-1.185,3.71-2.45c.12-.08.23-.16.35-.24q1.785-1.23,3.53-2.52l.12-.09c1.21-.9,2.41-1.82,3.58-2.76l.28-.22q3.54-2.835,6.87-5.91c.07-.06.14-.13.21-.19q3.345-3.105,6.47-6.44c.05-.05.1-.11.15-.16q3.135-3.36,6.04-6.95l.09-.12q2.91-3.615,5.57-7.43a.351.351,0,0,0,.05-.08q2.67-3.84,5.05-7.88a.076.076,0,0,0,.02-.04q2.4-4.05,4.5-8.3a.01.01,0,0,1,.01-.01A129.033,129.033,0,0,0,128.98,16.36Zm6.92,84.75a1.652,1.652,0,0,0,1.65,1.65h10.32a1.652,1.652,0,0,0,1.65-1.65v-9.9a1.652,1.652,0,0,0-1.65-1.65H137.55a1.652,1.652,0,0,0-1.65,1.65Zm64.39,50.79H194a1.387,1.387,0,0,0-1.39,1.39v6.02A1.387,1.387,0,0,0,194,160.7h6.29a1.387,1.387,0,0,0,1.39-1.39v-6.02A1.393,1.393,0,0,0,200.29,151.9Z" transform="translate(-22980.406 -19610.051)" fill="url(#linear-gradient-2)"/>
    <path id="Path_192623" data-name="Path 192623" d="M89.6,188.26a.928.928,0,0,1,.93.93v4.94a.928.928,0,0,1-.93.93H84.66a.928.928,0,0,1-.93-.93v-4.94a.928.928,0,0,1,.93-.93Zm25.69,43.1h4.94a.928.928,0,0,0,.93-.93v-4.94a.928.928,0,0,0-.93-.93h-4.94a.928.928,0,0,0-.93.93v4.94A.922.922,0,0,0,115.29,231.36Zm4.73-32.61v-9.63a1.989,1.989,0,0,0-1.99-1.99H108.4a1.989,1.989,0,0,0-1.99,1.99v9.63a1.989,1.989,0,0,0,1.99,1.99h9.63A1.989,1.989,0,0,0,120.02,198.75Zm79.39-24.66v16.99a108.676,108.676,0,0,1-6.8,10.01v-3.96a.928.928,0,0,0-.93-.93h-4.94a.928.928,0,0,0-.93.93v4.94a.928.928,0,0,0,.93.93h4.37q-2.82,3.525-5.93,6.8H158.13a4.084,4.084,0,0,0-4.08,4.08v18.69a106.874,106.874,0,0,1-46.72,10.68c-.31,0-.61-.01-.92-.01V215.02a4.084,4.084,0,0,0-4.08-4.08H73.07a4.084,4.084,0,0,0-4.08,4.08V236.2A107.012,107.012,0,0,1,43.6,222.28H55.51a3.271,3.271,0,0,0,3.27-3.27V206.27A3.271,3.271,0,0,0,55.51,203H42.76a3.271,3.271,0,0,0-3.27,3.27v12.84A107.145,107.145,0,0,1,.12,140.64c-.06,1.57-.12,3.13-.12,4.71a128.594,128.594,0,0,0,9.44,48.5h0q1.8,4.425,3.9,8.67a.01.01,0,0,0,.01.01q2.1,4.245,4.5,8.3c0,.02.02.03.03.05q2.385,4.035,5.05,7.88a.351.351,0,0,1,.05.08q2.655,3.825,5.57,7.43l.09.12q2.9,3.585,6.04,6.95c.05.05.1.1.15.16q3.12,3.33,6.47,6.44c.07.07.14.13.21.2q3.33,3.075,6.87,5.91c.09.07.18.15.28.22,1.18.94,2.37,1.86,3.59,2.76a1.047,1.047,0,0,1,.11.08c1.16.86,2.35,1.7,3.54,2.52.11.08.23.16.34.24,1.22.84,2.46,1.65,3.71,2.45.1.06.21.13.31.19,1.17.74,2.36,1.46,3.56,2.16.14.08.27.16.41.24,1.26.73,2.54,1.45,3.83,2.14.16.09.32.17.49.26,1.18.63,2.38,1.24,3.59,1.83.15.08.31.15.46.23q1.95.945,3.93,1.83c.21.1.43.19.64.28,1.2.53,2.42,1.04,3.64,1.53.16.07.33.14.49.2,1.33.53,2.68,1.04,4.03,1.52.26.09.52.18.78.28,1.23.43,2.47.85,3.72,1.25.16.05.33.11.49.16,1.37.43,2.74.83,4.13,1.22.3.08.6.16.89.24,1.27.34,2.54.67,3.82.97.15.04.31.08.46.11,1.4.33,2.81.62,4.23.9.32.06.65.13.98.19,1.32.25,2.65.48,3.98.69l.38.06c1.43.22,2.87.41,4.32.58l1.05.12c1.39.16,2.79.29,4.2.4.08.01.15.01.23.02,1.47.11,2.94.19,4.42.26.36.02.73.03,1.09.04,1.49.05,2.98.09,4.49.09s3-.04,4.49-.09c.36-.01.73-.03,1.09-.04,1.48-.06,2.95-.14,4.42-.26.08-.01.15-.01.23-.02,1.41-.11,2.81-.25,4.2-.4l1.05-.12c1.45-.17,2.89-.36,4.32-.58l.38-.06c1.33-.21,2.66-.44,3.98-.69.33-.06.65-.12.98-.19,1.42-.28,2.83-.58,4.22-.9.15-.04.3-.08.46-.11,1.28-.3,2.56-.63,3.83-.97.3-.08.6-.16.89-.24,1.38-.38,2.76-.79,4.13-1.21.17-.05.33-.11.5-.16,1.25-.4,2.48-.81,3.71-1.25.26-.09.52-.18.78-.28,1.35-.49,2.7-.99,4.03-1.52.17-.07.33-.14.49-.2,1.22-.49,2.44-1,3.64-1.53.21-.09.43-.19.64-.28q1.98-.885,3.93-1.83c.15-.08.31-.15.46-.23,1.21-.59,2.4-1.21,3.59-1.84.16-.09.32-.17.49-.26,1.29-.69,2.56-1.4,3.83-2.14.14-.08.27-.16.41-.24,1.2-.7,2.38-1.42,3.56-2.16.1-.06.21-.13.31-.19q1.875-1.185,3.71-2.45c.12-.08.23-.16.35-.24q1.785-1.23,3.53-2.52l.12-.09c1.21-.9,2.41-1.82,3.58-2.76l.28-.22q3.54-2.835,6.87-5.91c.07-.06.14-.13.21-.19q3.345-3.105,6.47-6.44c.05-.05.1-.11.15-.16q3.135-3.36,6.04-6.95l.09-.12q2.91-3.615,5.57-7.43a.351.351,0,0,0,.05-.08q2.67-3.84,5.05-7.88a.076.076,0,0,0,.02-.04q2.4-4.05,4.5-8.3a.01.01,0,0,1,.01-.01,128.375,128.375,0,0,0,13.34-57.17c0-2.5-.08-4.99-.22-7.46a164.882,164.882,0,0,1-58.34,36.19Zm-61.52,47.06h5.1a1.989,1.989,0,0,0,1.99-1.99v-6.23a1.989,1.989,0,0,0-1.99-1.99h-5.1a1.989,1.989,0,0,0-1.99,1.99v6.23A1.989,1.989,0,0,0,137.89,221.15Z" transform="translate(-22980.406 -19610.051)" fill="url(#linear-gradient-3)"/>
    <path id="Path_192624" data-name="Path 192624" d="M227.85,91.14H193.54a6.611,6.611,0,0,0-6.61,6.61v32.87a6.52,6.52,0,0,0,.56,2.65l-14.61,14.61q-.3-.03-.6-.03H137.97a2.8,2.8,0,0,0-.5.03L122.8,133.21a6.5,6.5,0,0,0,.52-2.58V97.76a6.611,6.611,0,0,0-6.61-6.61H82.4a6.611,6.611,0,0,0-6.61,6.61v32.87a6.52,6.52,0,0,0,.56,2.65L61.74,147.89q-.3-.03-.6-.03H26.83a6.611,6.611,0,0,0-6.61,6.61v32.87a6.611,6.611,0,0,0,6.61,6.61H61.14a6.611,6.611,0,0,0,6.61-6.61V154.47a6.489,6.489,0,0,0-.66-2.85l14.44-14.44a6.361,6.361,0,0,0,.87.06h34.31a6.016,6.016,0,0,0,.96-.08l14.38,14.38a6.518,6.518,0,0,0-.69,2.93v32.87a6.611,6.611,0,0,0,6.61,6.61h34.31a6.611,6.611,0,0,0,6.61-6.61V154.47a6.489,6.489,0,0,0-.66-2.85l14.44-14.44a6.361,6.361,0,0,0,.87.06h34.31a6.611,6.611,0,0,0,6.61-6.61V97.76a6.613,6.613,0,0,0-6.61-6.62Z" transform="translate(-22980.406 -19610.051)" fill="url(#linear-gradient-4)"/>
    <path id="Path_192644" data-name="Path 192644" d="M79.58,130.04l4.54,4.54L64.07,154.62l-4.54-4.53Z" transform="translate(-22980.406 -19610.051)" fill="url(#linear-gradient-5)"/>
    <path id="Path_192645" data-name="Path 192645" d="M189.59,131.17l4.53,4.54-20.04,20.05-4.54-4.54Z" transform="translate(-22980.406 -19610.051)" fill="url(#linear-gradient-6)"/>
    <path id="Path_192646" data-name="Path 192646" d="M115.1,134.58l4.54-4.54,20.05,20.05-4.54,4.53Z" transform="translate(-22980.406 -19610.051)" fill="url(#linear-gradient-7)"/>
    <path id="Path_192647" data-name="Path 192647" d="M235.82,217.19s-.07.08-.1.12c-2.06,2.39-4.22,4.71-6.45,6.95l-.16.16q-3.33,3.33-6.92,6.44l-.22.19q-3.555,3.075-7.34,5.91c-.1.07-.2.15-.3.22q-1.89,1.41-3.83,2.76a1.462,1.462,0,0,1-.13.09q-1.86,1.29-3.77,2.52c-.12.08-.25.16-.37.24-1.31.84-2.63,1.65-3.97,2.45-.11.06-.22.13-.33.19-1.25.74-2.52,1.46-3.8,2.16-.15.08-.29.16-.44.24-1.35.73-2.71,1.45-4.09,2.14-.17.09-.35.17-.52.26-1.27.63-2.54,1.24-3.83,1.84-.17.08-.33.15-.49.23q-2.085.945-4.2,1.83c-.23.1-.46.19-.69.28-1.29.53-2.58,1.04-3.89,1.53-.18.07-.35.14-.53.2-1.42.53-2.86,1.04-4.3,1.52-.28.09-.56.18-.84.28-1.31.43-2.63.85-3.96,1.25-.18.05-.35.11-.53.16-1.46.43-2.93.83-4.41,1.21l-.95.24c-1.36.34-2.72.67-4.09.97-.16.04-.32.08-.49.11-1.49.33-3,.62-4.51.9-.35.06-.7.13-1.05.19-1.41.25-2.83.48-4.25.69l-.4.06c-1.53.22-3.07.41-4.61.58l-1.12.12c-1.49.16-2.98.29-4.49.4-.08.01-.16.01-.24.02-1.57.11-3.14.19-4.72.26-.39.02-.78.03-1.17.04-1.59.05-3.19.09-4.79.09s-3.2-.04-4.79-.09c-.39-.01-.78-.03-1.17-.04-1.58-.06-3.16-.14-4.72-.26-.08-.01-.16-.01-.24-.02-1.5-.11-3-.25-4.49-.4L112,264.3c-1.55-.17-3.09-.36-4.61-.58-.14-.02-.27-.04-.4-.06-1.43-.21-2.84-.44-4.26-.69-.35-.06-.7-.12-1.04-.19-1.51-.28-3.02-.58-4.51-.9-.16-.04-.33-.08-.49-.11-1.37-.3-2.73-.63-4.09-.97l-.96-.24c-1.48-.38-2.95-.79-4.41-1.22-.18-.05-.35-.11-.53-.16-1.33-.4-2.66-.81-3.97-1.25-.28-.09-.56-.18-.83-.28-1.45-.49-2.88-.99-4.3-1.52-.18-.07-.35-.13-.53-.2-1.31-.49-2.6-1-3.89-1.53-.23-.09-.46-.19-.69-.28q-2.115-.885-4.2-1.83c-.17-.08-.33-.15-.49-.23-1.29-.59-2.57-1.21-3.83-1.83-.17-.09-.35-.17-.52-.26q-2.07-1.035-4.09-2.14c-.15-.08-.29-.16-.44-.24-1.28-.7-2.55-1.42-3.8-2.16-.11-.06-.22-.13-.33-.19-1.34-.8-2.66-1.61-3.97-2.45-.12-.08-.24-.16-.37-.24q-1.92-1.23-3.78-2.52c-.04-.03-.08-.05-.12-.08-1.3-.9-2.57-1.82-3.83-2.76-.1-.07-.2-.15-.29-.22q-3.78-2.835-7.34-5.91l-.23-.2q-3.585-3.105-6.92-6.44l-.16-.16c-1.25-1.25-2.46-2.53-3.66-3.83a128.783,128.783,0,0,0,104.85,53.89c43.22,0,85.12-23.36,108.13-58.68-.42.52-.84,1.05-1.28,1.55Z" transform="translate(-22980.406 -19610.051)" fill="url(#linear-gradient-8)"/>
    <path id="Path_192648" data-name="Path 192648" d="M234.46,112.85V97.74a6.611,6.611,0,0,0-6.61-6.61H193.54a6.611,6.611,0,0,0-6.61,6.61V127.7C196.41,126.4,212.01,123.43,234.46,112.85Z" transform="translate(-22980.406 -19610.051)" opacity="0.25" fill="url(#linear-gradient-9)"/>
    <path id="Path_192649" data-name="Path 192649" d="M178.89,169.56V154.45a6.611,6.611,0,0,0-6.61-6.61H137.97a6.611,6.611,0,0,0-6.61,6.61v29.96C140.84,183.1,156.44,180.13,178.89,169.56Z" transform="translate(-22980.406 -19610.051)" opacity="0.25" fill="url(#linear-gradient-10)"/>
    <path id="Path_192650" data-name="Path 192650" d="M123.32,112.85V97.74a6.611,6.611,0,0,0-6.61-6.61H82.4a6.611,6.611,0,0,0-6.61,6.61V127.7c9.48-1.3,25.08-4.27,47.53-14.85Z" transform="translate(-22980.406 -19610.051)" opacity="0.25" fill="url(#linear-gradient-9)"/>
    <path id="Path_192651" data-name="Path 192651" d="M67.75,169.56V154.45a6.611,6.611,0,0,0-6.61-6.61H26.83a6.611,6.611,0,0,0-6.61,6.61v29.96C29.7,183.1,45.29,180.13,67.75,169.56Z" transform="translate(-22980.406 -19610.051)" opacity="0.25" fill="url(#linear-gradient-10)"/>
  </g>
</svg>
