<svg width="20" height="20" viewBox="0 0 20 20" fill="none" xmlns="http://www.w3.org/2000/svg">
<g clip-path="url(#clip0_1814_94906)">
<path d="M9.9454 0.343262C8.00156 0.343262 6.10138 0.919676 4.48514 1.99961C2.8689 3.07955 1.60919 4.61451 0.865319 6.41037C0.121445 8.20624 -0.0731851 10.1824 0.306038 12.0889C0.685262 13.9953 1.62131 15.7466 2.99581 17.1211C4.3703 18.4956 6.12152 19.4316 8.02801 19.8108C9.93449 20.19 11.9106 19.9954 13.7065 19.2515C15.5024 18.5077 17.0373 17.248 18.1173 15.6317C19.1972 14.0155 19.7736 12.1153 19.7736 10.1715C19.7736 7.56486 18.7381 5.06502 16.895 3.22188C15.0518 1.37873 12.552 0.343262 9.9454 0.343262ZM9.9454 17.0213C8.59062 17.0213 7.26627 16.6196 6.13981 15.8669C5.01336 15.1142 4.1354 14.0444 3.61695 12.7928C3.0985 11.5411 2.96285 10.1639 3.22715 8.83512C3.49145 7.50638 4.14384 6.28585 5.10181 5.32788C6.05978 4.36991 7.28031 3.71752 8.60905 3.45322C9.9378 3.18892 11.3151 3.32456 12.5667 3.84301C13.8184 4.36146 14.8882 5.23943 15.6409 6.36588C16.3935 7.49234 16.7953 8.81669 16.7953 10.1715C16.7953 11.071 16.6181 11.9617 16.2738 12.7928C15.9296 13.6239 15.425 14.379 14.789 15.0151C14.1529 15.6511 13.3978 16.1557 12.5667 16.4999C11.7357 16.8442 10.8449 17.0213 9.9454 17.0213Z" fill="#4592CF"/>
<path d="M9.94393 0.343262C7.94431 0.344354 5.9926 0.955359 4.34932 2.09472C2.70605 3.23407 1.44941 4.84757 0.747142 6.71981C0.0448782 8.59206 -0.0695904 10.634 0.419016 12.573C0.907623 14.512 1.97606 16.2558 3.48169 17.5717L7.16216 16.4316H7.16688C6.1291 15.9705 5.22224 15.2587 4.52785 14.3601C3.83346 13.4616 3.37334 12.4045 3.18887 11.284C3.0044 10.1635 3.10138 9.01466 3.47107 7.94092C3.84076 6.86718 4.47158 5.90219 5.30676 5.13275C6.14195 4.3633 7.15532 3.81355 8.2557 3.53294C9.35608 3.25233 10.509 3.24966 11.6106 3.52518C12.7123 3.8007 13.7282 4.34576 14.5669 5.11133C15.4057 5.8769 16.041 6.83896 16.4156 7.91098V7.90626L17.5903 3.98992C16.6678 2.85095 15.5026 1.93245 14.1797 1.30154C12.8567 0.670619 11.4096 0.343221 9.94393 0.343262Z" fill="#1F4393"/>
<path d="M3.41805 8.07715L0.828125 9.41378L2.27798 9.92485L3.10827 9.72357C3.14092 9.1638 3.24503 8.61051 3.41805 8.07715Z" fill="#1B2A47"/>
<path d="M14.6695 13.7246C14.6451 13.381 11.6864 6.48633 11.6864 6.48633L2.37557 8.96775L0.827433 9.41985C0.75264 9.4531 0.689419 9.50784 0.645807 9.5771C0.598254 9.64324 0.564802 9.71844 0.547525 9.79804C0.543664 9.88344 0.557033 9.96874 0.586837 10.0489L3.19092 16.997C3.22911 17.0982 3.29173 17.1885 3.37321 17.2597C3.4547 17.3309 3.55251 17.3808 3.65795 17.4051C3.79619 17.435 3.93972 17.4299 4.07546 17.3901L14.3314 14.2058C14.4288 14.1678 14.5129 14.1018 14.573 14.0162C14.6332 13.9306 14.6667 13.8292 14.6695 13.7246Z" fill="white"/>
<path d="M0.830063 9.41824C0.755654 9.44982 0.692397 9.50294 0.648438 9.57077L8.49134 13.6349L10.604 6.56885L0.830063 9.41824Z" fill="#EE3A3A"/>
<path d="M0.543956 9.79688C0.539592 9.87511 0.549722 9.95348 0.573834 10.028L3.1732 16.9597C3.21002 17.0772 3.27794 17.1826 3.36976 17.2647L5.86141 12.5818L0.543956 9.79688Z" fill="#FFC10E"/>
<path d="M6.09161 12.7118L3.60547 17.39C3.74479 17.4399 3.89654 17.4432 4.03791 17.3994L14.2592 14.2253C14.4023 14.1819 14.5269 14.092 14.6131 13.9698L9.42848 11.4585L8.68626 14.0767L6.09161 12.7118Z" fill="#1F4393"/>
<path d="M7.4242 6.18506L10.353 7.37388L8.49036 13.6396L5.83203 12.2589L7.4242 6.18506Z" fill="#EE518B"/>
<path d="M11.1299 4.7998L14.668 13.7238L9.25781 11.0655L11.1299 4.7998Z" fill="#4592CF"/>
<path d="M9.25604 11.0665L8.92188 6.79639L10.3568 7.38136L9.25604 11.0665Z" fill="#B52D65"/>
<path d="M5.83056 12.2608L5.57031 8.03937L7.04926 7.60693L5.83056 12.2608Z" fill="#A81F23"/>
<path d="M15.1238 0.328536L14.0273 -0.000488281L13.7096 1.05835L14.8061 1.38737L15.1238 0.328536Z" fill="#8F3F97"/>
<path d="M16.4598 1.67082L15.3633 1.3418L15.0456 2.40063L16.142 2.72965L16.4598 1.67082Z" fill="#EE3A3A"/>
<path d="M15.7762 3.74992L14.6797 3.4209L14.362 4.47973L15.4584 4.80876L15.7762 3.74992Z" fill="#17AE4B"/>
<path d="M17.6785 3.46428L16.582 3.13525L16.2643 4.19409L17.3608 4.52311L17.6785 3.46428Z" fill="#EE518B"/>
<path d="M18.5066 0.607833L17.4102 0.278809L17.0924 1.33764L18.1889 1.66667L18.5066 0.607833Z" fill="#FFC10E"/>
<path d="M14.409 2.21135L13.3125 1.88232L12.9948 2.94116L14.0913 3.27018L14.409 2.21135Z" fill="#FFC10E"/>
<path d="M11.4692 5.64583L12.0298 5.8133L11.8183 6.52093L14.6638 13.7002L14.674 13.7246L17.2781 5.05142L16.1821 4.72197L15.8675 5.7787L13.6071 5.09073L13.9216 4.04422L11.5856 3.34131L11.1484 4.80532L11.4692 5.64583ZM14.354 6.55474L15.45 6.88418L15.1308 7.94562L14.0348 7.61618L14.354 6.55474ZM12.4033 4.74163L13.4993 5.07107L13.1801 6.13252L12.0841 5.80308L12.4033 4.74163Z" fill="url(#paint0_linear_1814_94906)"/>
</g>
<defs>
<linearGradient id="paint0_linear_1814_94906" x1="12.4479" y1="8.92752" x2="17.2587" y2="7.94326" gradientUnits="userSpaceOnUse">
<stop stop-color="#8F3F97"/>
<stop offset="1" stop-color="#EE518B"/>
</linearGradient>
<clipPath id="clip0_1814_94906">
<rect width="19.6564" height="20" fill="white" transform="translate(0.117188 -0.000488281)"/>
</clipPath>
</defs>
</svg>
