<svg width="65" height="52" viewBox="0 0 65 52" fill="none" xmlns="http://www.w3.org/2000/svg">
<g clip-path="url(#clip0_5912_69884)">
<rect width="65" height="52" rx="2.95455" fill="white" fill-opacity="0.1"/>
<path d="M39.0488 13.6452C38.1461 13.6443 37.2807 13.2853 36.6424 12.6471C36.0041 12.0088 35.6452 11.1433 35.6443 10.2407V5.51367H20.4313C19.2529 5.51367 18.1228 5.98179 17.2896 6.81502C16.4564 7.64825 15.9883 8.77833 15.9883 9.95669V36.7404C15.99 37.9176 16.4589 39.046 17.2919 39.8778C18.125 40.7096 19.2541 41.1768 20.4313 41.1768H38.6938C39.871 41.1768 41.0001 40.7096 41.8332 39.8778C42.6662 39.046 43.1351 37.9176 43.1368 36.7404V13.6452H39.0488Z" fill="#FFEEEF"/>
<path d="M43.1371 13.6452H39.049C38.1464 13.6443 37.2809 13.2853 36.6427 12.6471C36.0044 12.0088 35.6454 11.1433 35.6445 10.2407V5.51367L43.1371 13.6452Z" fill="#FF3E4C"/>
<path d="M37.5515 30.4183H20.5059C20.3417 30.4183 20.1842 30.3531 20.0681 30.2369C19.9519 30.1208 19.8867 29.9633 19.8867 29.7991C19.8872 29.6352 19.9526 29.4781 20.0686 29.3624C20.1847 29.2466 20.3419 29.1816 20.5059 29.1816H37.5515C37.7153 29.1816 37.8724 29.2467 37.9882 29.3625C38.104 29.4783 38.169 29.6354 38.169 29.7991C38.1692 29.8804 38.1534 29.9608 38.1225 30.036C38.0916 30.1111 38.0461 30.1793 37.9888 30.2368C37.9314 30.2943 37.8632 30.34 37.7882 30.3711C37.7132 30.4023 37.6328 30.4183 37.5515 30.4183Z" fill="#FF3E4C"/>
<path d="M37.5515 23.4437H20.5059C20.3419 23.4437 20.1847 23.3787 20.0686 23.2629C19.9526 23.1471 19.8872 22.9901 19.8867 22.8262C19.8867 22.662 19.9519 22.5045 20.0681 22.3883C20.1842 22.2722 20.3417 22.207 20.5059 22.207H37.5515C37.6328 22.207 37.7132 22.2231 37.7882 22.2542C37.8632 22.2853 37.9314 22.3309 37.9888 22.3885C38.0461 22.446 38.0916 22.5143 38.1225 22.5894C38.1534 22.6645 38.1692 22.745 38.169 22.8262C38.169 22.99 38.104 23.147 37.9882 23.2628C37.8724 23.3786 37.7153 23.4437 37.5515 23.4437Z" fill="#FF3E4C"/>
<path d="M37.5515 26.9339H20.5059C20.3417 26.9339 20.1842 26.8687 20.0681 26.7526C19.9519 26.6365 19.8867 26.479 19.8867 26.3148C19.8872 26.1508 19.9526 25.9938 20.0686 25.878C20.1847 25.7623 20.3419 25.6973 20.5059 25.6973H37.5515C37.7153 25.6973 37.8724 25.7623 37.9882 25.8781C38.104 25.9939 38.169 26.151 38.169 26.3148C38.1692 26.396 38.1534 26.4765 38.1225 26.5516C38.0916 26.6267 38.0461 26.695 37.9888 26.7525C37.9314 26.81 37.8632 26.8556 37.7882 26.8868C37.7132 26.9179 37.6328 26.9339 37.5515 26.9339Z" fill="#FF3E4C"/>
<path d="M30.8284 19.9593H20.5059C20.3419 19.9593 20.1847 19.8943 20.0686 19.7786C19.9526 19.6628 19.8872 19.5057 19.8867 19.3418C19.8867 19.1776 19.9519 19.0201 20.0681 18.904C20.1842 18.7879 20.3417 18.7227 20.5059 18.7227H30.8284C30.9923 18.7231 31.1494 18.7885 31.2651 18.9046C31.3809 19.0206 31.4459 19.1779 31.4459 19.3418C31.4454 19.5054 31.3802 19.6622 31.2645 19.778C31.1488 19.8937 30.992 19.9589 30.8284 19.9593Z" fill="#FF3E4C"/>
<path d="M30.8284 16.471H20.5059C20.3419 16.471 20.1847 16.406 20.0686 16.2902C19.9526 16.1745 19.8872 16.0175 19.8867 15.8535C19.8867 15.6893 19.9519 15.5318 20.0681 15.4157C20.1842 15.2996 20.3417 15.2344 20.5059 15.2344H30.8284C30.9923 15.2348 31.1494 15.3002 31.2651 15.4163C31.3809 15.5324 31.4459 15.6896 31.4459 15.8535C31.4454 16.0172 31.3802 16.174 31.2645 16.2897C31.1488 16.4054 30.992 16.4706 30.8284 16.471Z" fill="#FF3E4C"/>
<path d="M46.3581 33.6836H25.7131C24.2487 33.6836 23.0615 34.8708 23.0615 36.3352V42.4904C23.0615 43.9549 24.2487 45.142 25.7131 45.142H46.3581C47.8226 45.142 49.0098 43.9549 49.0098 42.4904V36.3352C49.0098 34.8708 47.8226 33.6836 46.3581 33.6836Z" fill="#FF3E4C"/>
<path d="M29.8344 40.7461V41.9464H28.5928V40.7461H29.8344Z" fill="white"/>
<path d="M31.6603 40.2034V41.9452H30.46V36.9805H32.4049C32.9944 36.9805 33.4451 37.1274 33.7538 37.4196C33.9101 37.5732 34.032 37.758 34.1117 37.962C34.1914 38.1661 34.227 38.3847 34.2161 38.6034C34.2222 38.8921 34.1509 39.1771 34.0098 39.429C33.8656 39.6752 33.652 39.8734 33.3956 39.9986C33.0863 40.1448 32.7468 40.2155 32.4049 40.205L31.6603 40.2034ZM32.9944 38.6034C32.9944 38.1632 32.7533 37.943 32.2712 37.943H31.6603V39.2358H32.2712C32.7533 39.2402 32.9944 39.0294 32.9944 38.6034Z" fill="white"/>
<path d="M38.9601 40.7491C38.7533 41.1245 38.4411 41.4311 38.0619 41.6308C37.6352 41.8492 37.1608 41.9576 36.6816 41.9461H34.8076V36.9814H36.6816C37.1611 36.9693 37.6363 37.0753 38.0652 37.2901C38.4433 37.4856 38.7548 37.789 38.9601 38.1619C39.1749 38.5578 39.283 39.0027 39.2738 39.453C39.2827 39.9049 39.1747 40.3514 38.9601 40.7491ZM37.6689 40.4998C37.8031 40.362 37.9071 40.1978 37.9742 40.0175C38.0413 39.8373 38.07 39.645 38.0586 39.453C38.0701 39.2613 38.0414 39.0692 37.9743 38.8892C37.9072 38.7092 37.8032 38.5453 37.6689 38.4079C37.3686 38.1444 36.9763 38.0103 36.5776 38.0348H36.0079V40.8713H36.5776C36.976 40.8955 37.368 40.7621 37.6689 40.4998Z" fill="white"/>
<path d="M43.1909 36.9805V37.9364H41.1551V39.0245H42.7269V39.9375H41.1551V41.9452H39.9531V36.9805H43.1909Z" fill="white"/>
<path d="M37.2496 15.2344H34.3305C33.8217 15.2344 33.4092 15.6469 33.4092 16.1557V19.0748C33.4092 19.5836 33.8217 19.9961 34.3305 19.9961H37.2496C37.7584 19.9961 38.1709 19.5836 38.1709 19.0748V16.1557C38.1709 15.6469 37.7584 15.2344 37.2496 15.2344Z" fill="#FF3E4C"/>
</g>
<defs>
<clipPath id="clip0_5912_69884">
<rect width="65" height="52" rx="2.95455" fill="white"/>
</clipPath>
</defs>
</svg>
