<svg width="24" height="24" viewBox="0 0 24 24" fill="none" xmlns="http://www.w3.org/2000/svg">
<path d="M15.0062 4.334H14.5062V4.834V9.419C14.5062 10.9856 15.5308 12.3615 16.9625 12.6247V13.504H12.5254H12.0254V14.004V20.2323L11.7067 20.5893L11.3879 20.2323V14.004V13.504H10.8879H6.5V12.6247C7.93166 12.3615 8.95625 10.9856 8.95625 9.419V4.834V4.334H8.45625H7.6375C7.5151 4.334 7.31875 4.2 7.31875 3.917C7.31875 3.634 7.5151 3.5 7.6375 3.5H15.825C15.9474 3.5 16.1437 3.634 16.1437 3.917C16.1437 4.2 15.9474 4.334 15.825 4.334H15.0062Z" fill="#6C7BAD" stroke="#6C7BAD"/>
</svg>
