<svg width="16" height="17" viewBox="0 0 16 17" fill="none" xmlns="http://www.w3.org/2000/svg">
<g clip-path="url(#clip0_10322_42465)">
<g filter="url(#filter0_d_10322_42465)">
<path d="M1.41613 14.1472C1.41613 14.3719 1.50134 14.5931 1.65609 14.7699L1.66522 14.7804L1.67503 14.7902C1.85001 14.9652 2.08058 15.0615 2.32425 15.0615C2.56048 15.0615 2.7844 14.9709 2.95729 14.806L7.09907 11.3867L9.01374 13.2629C9.37787 13.6253 9.94708 13.6248 10.3106 13.2613C10.9566 12.6152 11.2842 11.7486 11.2842 10.6854C11.2842 9.76952 11.0396 8.91144 10.8828 8.3985L11.9598 7.32155C13.2925 7.56135 14.2684 6.60463 14.3117 6.56135C14.4866 6.38638 14.583 6.15581 14.583 5.91213C14.583 5.66844 14.4866 5.43788 14.3117 5.26291L11.178 2.12922C11.0003 1.95157 10.767 1.85577 10.521 1.85951C10.2749 1.86324 10.044 1.96666 9.87074 2.15073L9.85479 2.16768L9.84843 2.17617L9.84453 2.18061C9.35226 2.73887 9.08115 3.40775 9.08115 4.06395C9.08115 4.06403 9.08115 4.06405 9.08115 4.06413C9.08117 4.20753 9.09402 4.35116 9.11949 4.49344L8.0421 5.57081C7.02184 5.26498 4.59421 4.64487 3.07243 6.16665C2.89745 6.34162 2.80109 6.56999 2.80109 6.80966C2.80109 7.04933 2.89745 7.27769 3.07243 7.45266L3.07536 7.4556L3.07837 7.45849L5.0306 9.33434L1.66938 13.5228C1.50586 13.6952 1.41613 13.9159 1.41613 14.1472Z" fill="#0996FF"/>
</g>
</g>
<defs>
<filter id="filter0_d_10322_42465" x="1.41602" y="1.85938" width="13.167" height="14.2021" filterUnits="userSpaceOnUse" color-interpolation-filters="sRGB">
<feFlood flood-opacity="0" result="BackgroundImageFix"/>
<feColorMatrix in="SourceAlpha" type="matrix" values="0 0 0 0 0 0 0 0 0 0 0 0 0 0 0 0 0 0 127 0" result="hardAlpha"/>
<feOffset dy="1"/>
<feColorMatrix type="matrix" values="0 0 0 0 0 0 0 0 0 0 0 0 0 0 0 0 0 0 0.161 0"/>
<feBlend mode="normal" in2="BackgroundImageFix" result="effect1_dropShadow_10322_42465"/>
<feBlend mode="normal" in="SourceGraphic" in2="effect1_dropShadow_10322_42465" result="shape"/>
</filter>
<clipPath id="clip0_10322_42465">
<rect width="16" height="16" fill="white" transform="translate(0 0.458984)"/>
</clipPath>
</defs>
</svg>
