<svg width="60" height="52" viewBox="0 0 60 52" fill="none" xmlns="http://www.w3.org/2000/svg">
<path d="M36.3681 13.6432C35.4655 13.6424 34.6 13.2834 33.9617 12.6451C33.3235 12.0068 32.9645 11.1414 32.9636 10.2387V5.51172H17.7506C16.5723 5.51172 15.4422 5.97984 14.609 6.81307C13.7757 7.6463 13.3076 8.77637 13.3076 9.95474V36.7384C13.3076 37.9168 13.7757 39.0469 14.609 39.8801C15.4422 40.7134 16.5723 41.1815 17.7506 41.1815H36.0115C36.5951 41.1817 37.173 41.0669 37.7123 40.8437C38.2515 40.6205 38.7415 40.2933 39.1543 39.8807C39.567 39.4681 39.8944 38.9783 40.1178 38.4391C40.3412 37.8999 40.4562 37.322 40.4562 36.7384V13.6432H36.3681Z" fill="#FFEEEF"/>
<path d="M40.4564 13.6432H36.3684C35.4657 13.6424 34.6002 13.2834 33.962 12.6451C33.3237 12.0068 32.9647 11.1414 32.9639 10.2387V5.51172L40.4564 13.6432Z" fill="#FF3E4C"/>
<path d="M43.6775 33.6816H23.0324C21.568 33.6816 20.3809 34.8688 20.3809 36.3333V42.4885C20.3809 43.9529 21.568 45.1401 23.0324 45.1401H43.6775C45.1419 45.1401 46.3291 43.9529 46.3291 42.4885V36.3333C46.3291 34.8688 45.1419 33.6816 43.6775 33.6816Z" fill="#FF3E4C"/>
<path d="M27.6388 40.7422V41.9425H26.3955V40.7422H27.6388Z" fill="white"/>
<path d="M29.465 40.2014V41.9433H28.2646V36.9785H30.2096C30.7996 36.9785 31.2487 37.1249 31.5569 37.4177C31.7133 37.5711 31.8355 37.7559 31.9155 37.96C31.9955 38.164 32.0314 38.3826 32.0208 38.6015C32.0261 38.8901 31.9548 39.1749 31.8145 39.427C31.6701 39.6737 31.4558 39.872 31.1986 39.9967C30.8896 40.1434 30.5499 40.2142 30.208 40.2031L29.465 40.2014ZM30.799 38.6015C30.799 38.1612 30.558 37.9411 30.0759 37.9411H29.465V39.2339H30.0759C30.558 39.2383 30.799 39.0275 30.799 38.6015Z" fill="white"/>
<path d="M33.8123 40.2014V41.9433H32.6104V36.9785H34.5553C35.1464 36.9785 35.5961 37.1249 35.9043 37.4177C36.0607 37.5711 36.1829 37.7559 36.2629 37.96C36.3428 38.164 36.3787 38.3826 36.3682 38.6015C36.3736 38.8903 36.3018 39.1753 36.1602 39.427C36.0169 39.674 35.803 39.8724 35.546 39.9967C35.2369 40.1434 34.8973 40.2142 34.5553 40.2031L33.8123 40.2014ZM35.1464 38.6015C35.1464 38.1612 34.9053 37.9411 34.4232 37.9411H33.8123V39.2339H34.4232C34.9053 39.2383 35.1464 39.0275 35.1464 38.6015Z" fill="white"/>
<path d="M40.5254 36.9785V37.9345H39.1764V41.9433H37.9695V37.9345H36.6338V36.9785H40.5254Z" fill="white"/>
<path d="M25.6393 19.3363H18.4258C18.2619 19.3363 18.1046 19.2713 17.9886 19.1555C17.8725 19.0398 17.8071 18.8827 17.8066 18.7188C17.8066 18.5546 17.8719 18.3971 17.988 18.281C18.1041 18.1648 18.2616 18.0996 18.4258 18.0996H25.6327C25.7969 18.0996 25.9544 18.1648 26.0705 18.281C26.1867 18.3971 26.2519 18.5546 26.2519 18.7188C26.2514 18.8815 26.1869 19.0376 26.0723 19.1532C25.9576 19.2687 25.8021 19.3345 25.6393 19.3363Z" fill="#FF3E4C"/>
<path d="M25.6393 23.0296H18.4258C18.2619 23.0296 18.1046 22.9646 17.9886 22.8488C17.8725 22.7331 17.8071 22.576 17.8066 22.4121C17.8066 22.2479 17.8719 22.0904 17.988 21.9743C18.1041 21.8582 18.2616 21.793 18.4258 21.793H25.6327C25.7969 21.793 25.9544 21.8582 26.0705 21.9743C26.1867 22.0904 26.2519 22.2479 26.2519 22.4121C26.2514 22.5749 26.1869 22.731 26.0723 22.8465C25.9576 22.9621 25.8021 23.0279 25.6393 23.0296Z" fill="#FF3E4C"/>
<path d="M25.6393 26.7236H18.4258C18.2616 26.7236 18.1041 26.6583 17.988 26.5422C17.8719 26.4261 17.8066 26.2686 17.8066 26.1044C17.8079 25.9411 17.8738 25.7849 17.9897 25.6698C18.1057 25.5548 18.2624 25.4902 18.4258 25.4902H25.6327C25.7966 25.4902 25.9539 25.5552 26.0699 25.671C26.186 25.7867 26.2514 25.9438 26.2519 26.1077C26.251 26.2702 26.1863 26.4259 26.0717 26.5411C25.9571 26.6563 25.8018 26.7218 25.6393 26.7236Z" fill="#FF3E4C"/>
<path d="M25.6393 30.4163H18.4258C18.2616 30.4163 18.1041 30.3511 17.988 30.235C17.8719 30.1189 17.8066 29.9614 17.8066 29.7972C17.8071 29.6333 17.8725 29.4762 17.9886 29.3604C18.1046 29.2447 18.2619 29.1797 18.4258 29.1797H25.6327C25.7966 29.1797 25.9539 29.2447 26.0699 29.3604C26.186 29.4762 26.2514 29.6333 26.2519 29.7972C26.2519 29.9603 26.1876 30.1167 26.0729 30.2326C25.9582 30.3486 25.8024 30.4146 25.6393 30.4163Z" fill="#FF3E4C"/>
<path d="M32.6661 24.994V19.5059C31.3291 19.5765 30.07 20.1573 29.1485 21.1286C28.227 22.0999 27.7131 23.3876 27.7129 24.7265C27.7127 25.413 27.8477 26.0929 28.1103 26.7272C28.373 27.3615 28.758 27.9379 29.2434 28.4233C29.7289 28.9087 30.3052 29.2938 30.9395 29.5564C31.5738 29.819 32.2537 29.9541 32.9402 29.9538C34.279 29.954 35.5669 29.4402 36.538 28.5186C37.5091 27.5969 38.0894 26.3377 38.1592 25.0006L32.6661 24.994Z" fill="#FF3E4C"/>
<path d="M33.667 19.0898V24.0431H38.6202C38.5541 22.7508 38.0109 21.529 37.096 20.6141C36.181 19.6991 34.9592 19.156 33.667 19.0898Z" fill="#FF3E4C"/>
</svg>
