<svg width="24" height="24" viewBox="0 0 24 24" fill="none" xmlns="http://www.w3.org/2000/svg">
<path d="M16.4616 5.29989C16.4616 6.53915 15.457 7.54376 14.2177 7.54376C12.9785 7.54376 11.9739 6.53915 11.9739 5.29989C11.9739 4.06063 12.9785 3.05602 14.2177 3.05602C15.457 3.05602 16.4616 4.06063 16.4616 5.29989Z" fill="#6C7BAD" stroke="#6C7BAD" stroke-width="0.112031"/>
<path d="M6.6649 15.1611L6.65777 15.1134H6.6095H6.47367C6.24323 15.1134 6.05602 14.9262 6.05602 14.6957V12.0557C6.05602 11.8253 6.24323 11.638 6.47367 11.638H14.9873C15.2177 11.638 15.4049 11.8253 15.4049 12.0557V14.6957C15.4049 14.9262 15.2177 15.1134 14.9873 15.1134H14.896H14.8462L14.8403 15.1628L14.1089 21.2837H7.57887L6.6649 15.1611Z" fill="#6C7BAD" stroke="#6C7BAD" stroke-width="0.112031"/>
<path d="M8.46899 5.76568L8.46894 5.76573L8.46404 5.77064L9.39917 6.70577L9.43878 6.74538L9.39917 6.78499L8.95631 7.22784L8.9167 7.26745L8.87709 7.22784L7.94196 6.29271L7.83627 6.3984L8.77141 7.33353L8.81102 7.37314L8.77141 7.41275L8.32855 7.85561L8.28894 7.89521L8.24933 7.85561L7.3142 6.92047L7.1446 7.09008L8.07973 8.02521L8.11934 8.06482L8.07973 8.10443L7.63687 8.54728L7.59726 8.58689L7.55765 8.54728L6.67262 7.66226C6.50287 8.02083 6.52399 8.44626 6.73414 8.78763L6.75216 8.8169L6.73422 8.84623C6.59373 9.07581 6.43247 9.34272 6.32263 9.54768L6.32259 9.54775C6.09686 9.96759 6.11018 10.6132 6.45566 11.1303L6.45647 11.1315L6.45645 11.1315L7.27703 12.4315L7.74745 12.0611L7.74512 12.0572L7.67026 11.9334C7.60766 11.8299 7.52261 11.6894 7.43282 11.5414C7.25302 11.2453 7.05484 10.9204 6.97938 10.8024C6.90211 10.6821 6.80328 10.5081 6.78066 10.2865C6.75785 10.063 6.81315 9.79782 7.03142 9.49636L7.03146 9.4963L7.04165 9.48228C7.09817 9.40443 7.14932 9.33399 7.19537 9.26866L7.22185 9.2311L7.26386 9.24973C7.6988 9.44267 8.22515 9.36084 8.58148 9.00566L8.46899 5.76568ZM8.46899 5.76568C8.93102 5.30256 9.68079 5.30249 10.144 5.76573L10.1452 5.76687L10.1452 5.76692C10.6083 6.22895 10.6084 6.97872 10.1452 7.44196L8.58154 9.0056L8.46899 5.76568Z" fill="#6C7BAD" stroke="#6C7BAD" stroke-width="0.112031"/>
<path d="M16.8791 21.2825H14.9107L15.5708 15.7597C15.9463 15.5532 16.2013 15.1543 16.2013 14.6957V12.0557C16.2013 11.3856 15.6569 10.8412 14.9868 10.8412H13.4281C13.4199 10.7509 13.3963 10.6641 13.356 10.5899C13.3107 10.5055 13.2466 10.3979 13.1881 10.3027C13.2853 10.1217 13.2845 9.90155 13.1845 9.7207L13.1485 9.65555L13.145 9.65904C13.1249 9.62822 13.1016 9.59817 13.0735 9.57008L12.391 8.88753C12.1522 8.64881 11.7664 8.64879 11.5277 8.88747C11.2899 9.12407 11.2902 9.50991 11.5275 9.74849L11.5439 9.76501H11.5452L12.2113 10.4311L12.2227 10.4426C12.3946 10.6145 12.6427 10.6617 12.8563 10.5855C12.8711 10.6062 12.8869 10.628 12.904 10.6515C12.9549 10.7225 12.982 10.7853 12.9941 10.84H10.1611V9.42479C10.1611 8.76518 10.6965 8.22984 11.3561 8.22984H17.0042L17.0031 8.23098H17.1383C17.7979 8.23098 18.3333 8.76633 18.3333 9.42593V13.4253C18.3333 14.0849 17.7979 14.6203 17.1383 14.6203H16.9351H16.8791V14.6763V21.2825Z" fill="#6C7BAD" stroke="#6C7BAD" stroke-width="0.112031"/>
</svg>
