<svg width="24" height="24" viewBox="0 0 24 24" fill="none" xmlns="http://www.w3.org/2000/svg">
<mask id="path-1-inside-1_6389_65651" fill="white">
<path fill-rule="evenodd" clip-rule="evenodd" d="M2.7195 20.2795C2.47275 20.2383 2.41109 19.9301 2.6167 19.7861C3.43882 19.2516 3.89104 18.4911 4.15829 17.8128C2.80164 16.3534 2 14.5035 2 12.4891C2 7.80264 6.33706 4 11.6813 4C17.0256 4 21.3626 7.80264 21.3626 12.4891C21.3626 12.8797 21.3421 13.2498 21.2805 13.6197C20.7049 13.0852 19.965 12.7564 19.1222 12.7152H18.9989C17.1284 12.7152 15.6279 14.2364 15.6279 16.0862V16.2095C15.2373 16.5179 14.9907 16.9701 14.9907 17.5045V20.3411V20.4439C13.963 20.7728 12.8531 20.9578 11.6814 20.9578C9.72869 20.9578 7.94046 20.4644 6.41937 19.6011C5.06275 20.4234 3.5828 20.4028 2.7195 20.2795ZM21.3215 16.1274V16.8879H21.3832C21.7326 16.8879 21.9999 17.1551 21.9999 17.5046L22 20.3822C22 20.7316 21.7327 20.9988 21.3833 20.9988H16.6352C16.2857 20.9988 16.0185 20.7316 16.0185 20.3822V17.525C16.0185 17.1756 16.2857 16.9084 16.6352 16.9084H16.6557V16.0862C16.6557 14.7912 17.7039 13.743 18.9989 13.743H19.0811C20.3349 13.7841 21.3215 14.853 21.3215 16.1274ZM19.3483 19.7861C19.4305 19.7861 19.4921 19.7243 19.4716 19.6422L19.3278 19.005C19.4511 18.9022 19.5128 18.7173 19.4923 18.5323C19.4511 18.3062 19.2662 18.1211 19.0401 18.1006H18.9784C18.6907 18.1006 18.4645 18.3267 18.4645 18.6144C18.4645 18.7584 18.5262 18.9022 18.6495 19.005L18.5262 19.6422C18.5262 19.7245 18.5674 19.7861 18.6495 19.7861H19.3483ZM17.6627 16.8879H20.2938L20.2937 16.0862C20.2937 15.4081 19.7799 14.8119 19.1016 14.7502H18.9783C18.2588 14.7502 17.6627 15.3463 17.6627 16.0658V16.8879ZM7.88171 13.9062C8.65782 13.9062 9.28699 13.2771 9.28699 12.501C9.28699 11.7249 8.65782 11.0957 7.88171 11.0957C7.1056 11.0957 6.47644 11.7249 6.47644 12.501C6.47644 13.2771 7.1056 13.9062 7.88171 13.9062ZM11.4592 13.9062C12.2353 13.9062 12.8645 13.2771 12.8645 12.501C12.8645 11.7249 12.2353 11.0957 11.4592 11.0957C10.6831 11.0957 10.054 11.7249 10.054 12.501C10.054 13.2771 10.6831 13.9062 11.4592 13.9062ZM16.4421 12.501C16.4421 13.2771 15.813 13.9062 15.0369 13.9062C14.2608 13.9062 13.6316 13.2771 13.6316 12.501C13.6316 11.7249 14.2608 11.0957 15.0369 11.0957C15.813 11.0957 16.4421 11.7249 16.4421 12.501Z"/>
</mask>
<path fill-rule="evenodd" clip-rule="evenodd" d="M2.7195 20.2795C2.47275 20.2383 2.41109 19.9301 2.6167 19.7861C3.43882 19.2516 3.89104 18.4911 4.15829 17.8128C2.80164 16.3534 2 14.5035 2 12.4891C2 7.80264 6.33706 4 11.6813 4C17.0256 4 21.3626 7.80264 21.3626 12.4891C21.3626 12.8797 21.3421 13.2498 21.2805 13.6197C20.7049 13.0852 19.965 12.7564 19.1222 12.7152H18.9989C17.1284 12.7152 15.6279 14.2364 15.6279 16.0862V16.2095C15.2373 16.5179 14.9907 16.9701 14.9907 17.5045V20.3411V20.4439C13.963 20.7728 12.8531 20.9578 11.6814 20.9578C9.72869 20.9578 7.94046 20.4644 6.41937 19.6011C5.06275 20.4234 3.5828 20.4028 2.7195 20.2795ZM21.3215 16.1274V16.8879H21.3832C21.7326 16.8879 21.9999 17.1551 21.9999 17.5046L22 20.3822C22 20.7316 21.7327 20.9988 21.3833 20.9988H16.6352C16.2857 20.9988 16.0185 20.7316 16.0185 20.3822V17.525C16.0185 17.1756 16.2857 16.9084 16.6352 16.9084H16.6557V16.0862C16.6557 14.7912 17.7039 13.743 18.9989 13.743H19.0811C20.3349 13.7841 21.3215 14.853 21.3215 16.1274ZM19.3483 19.7861C19.4305 19.7861 19.4921 19.7243 19.4716 19.6422L19.3278 19.005C19.4511 18.9022 19.5128 18.7173 19.4923 18.5323C19.4511 18.3062 19.2662 18.1211 19.0401 18.1006H18.9784C18.6907 18.1006 18.4645 18.3267 18.4645 18.6144C18.4645 18.7584 18.5262 18.9022 18.6495 19.005L18.5262 19.6422C18.5262 19.7245 18.5674 19.7861 18.6495 19.7861H19.3483ZM17.6627 16.8879H20.2938L20.2937 16.0862C20.2937 15.4081 19.7799 14.8119 19.1016 14.7502H18.9783C18.2588 14.7502 17.6627 15.3463 17.6627 16.0658V16.8879ZM7.88171 13.9062C8.65782 13.9062 9.28699 13.2771 9.28699 12.501C9.28699 11.7249 8.65782 11.0957 7.88171 11.0957C7.1056 11.0957 6.47644 11.7249 6.47644 12.501C6.47644 13.2771 7.1056 13.9062 7.88171 13.9062ZM11.4592 13.9062C12.2353 13.9062 12.8645 13.2771 12.8645 12.501C12.8645 11.7249 12.2353 11.0957 11.4592 11.0957C10.6831 11.0957 10.054 11.7249 10.054 12.501C10.054 13.2771 10.6831 13.9062 11.4592 13.9062ZM16.4421 12.501C16.4421 13.2771 15.813 13.9062 15.0369 13.9062C14.2608 13.9062 13.6316 13.2771 13.6316 12.501C13.6316 11.7249 14.2608 11.0957 15.0369 11.0957C15.813 11.0957 16.4421 11.7249 16.4421 12.501Z" fill="#6C7BAD"/>
<path d="M2.6167 19.7861L1.8899 18.6683L1.87072 18.6807L1.85198 18.6939L2.6167 19.7861ZM2.7195 20.2795L2.5002 21.5946L2.51556 21.5972L2.53097 21.5994L2.7195 20.2795ZM4.15829 17.8128L5.39881 18.3016L5.70669 17.5202L5.13485 16.905L4.15829 17.8128ZM21.2805 13.6197L20.3731 14.5967L22.1884 16.2826L22.5957 13.8389L21.2805 13.6197ZM19.1222 12.7152L19.1872 11.3835L19.1547 11.3819H19.1222V12.7152ZM15.6279 16.2095L16.4542 17.256L16.9612 16.8556V16.2095H15.6279ZM14.9907 20.4439L15.3971 21.7138L16.3241 21.4172V20.4439H14.9907ZM6.41937 19.6011L7.0775 18.4416L6.3972 18.0555L5.72826 18.4609L6.41937 19.6011ZM21.3215 16.8879H19.9882V18.2212H21.3215V16.8879ZM21.9999 17.5046H20.6665V17.5046L21.9999 17.5046ZM22 20.3822H23.3333V20.3821L22 20.3822ZM16.6557 16.9084V18.2417H17.989V16.9084H16.6557ZM19.0811 13.743L19.1248 12.4104L19.1029 12.4097H19.0811V13.743ZM19.4716 19.6422L18.171 19.9358L18.1743 19.9504L18.178 19.965L19.4716 19.6422ZM19.3278 19.005L18.474 17.981L17.8477 18.5032L18.0272 19.2986L19.3278 19.005ZM19.4923 18.5323L20.8175 18.3854L20.8124 18.3393L20.8041 18.2936L19.4923 18.5323ZM19.0401 18.1006L19.1605 16.7727L19.1004 16.7672H19.0401V18.1006ZM18.6495 19.005L19.9586 19.2584L20.1082 18.4852L19.5033 17.9809L18.6495 19.005ZM18.5262 19.6422L17.2172 19.3888L17.1929 19.5144V19.6422H18.5262ZM20.2938 16.8879V18.2212H21.6271L21.6271 16.8878L20.2938 16.8879ZM17.6627 16.8879H16.3294V18.2212H17.6627V16.8879ZM20.2937 16.0862H18.9604V16.0863L20.2937 16.0862ZM19.1016 14.7502L19.2223 13.4224L19.162 13.4169H19.1016V14.7502ZM1.85198 18.6939C0.747379 19.4672 0.981454 21.3414 2.5002 21.5946L2.9388 18.9643C3.38903 19.0394 3.72047 19.3933 3.80459 19.8034C3.88685 20.2043 3.73033 20.6341 3.38142 20.8783L1.85198 18.6939ZM2.91777 17.3241C2.7116 17.8473 2.40135 18.3357 1.8899 18.6683L3.3435 20.9039C4.47628 20.1674 5.07047 19.1349 5.39881 18.3016L2.91777 17.3241ZM0.666667 12.4891C0.666667 14.8718 1.61817 17.0387 3.18174 18.7206L5.13485 16.905C3.98511 15.6682 3.33333 14.1351 3.33333 12.4891H0.666667ZM11.6813 2.66667C5.77072 2.66667 0.666667 6.90702 0.666667 12.4891H3.33333C3.33333 8.69826 6.90341 5.33333 11.6813 5.33333V2.66667ZM22.696 12.4891C22.696 6.90702 17.5919 2.66667 11.6813 2.66667V5.33333C16.4592 5.33333 20.0293 8.69826 20.0293 12.4891H22.696ZM22.5957 13.8389C22.6732 13.3736 22.696 12.9255 22.696 12.4891H20.0293C20.0293 12.8339 20.011 13.126 19.9653 13.4005L22.5957 13.8389ZM19.0572 14.047C19.5792 14.0725 20.0227 14.2712 20.3731 14.5967L22.1878 12.6427C21.3872 11.8991 20.3507 11.4403 19.1872 11.3835L19.0572 14.047ZM18.9989 14.0486H19.1222V11.3819H18.9989V14.0486ZM16.9612 16.0862C16.9612 14.9674 17.87 14.0486 18.9989 14.0486V11.3819C16.3867 11.3819 14.2946 13.5053 14.2946 16.0862H16.9612ZM16.9612 16.2095V16.0862H14.2946V16.2095H16.9612ZM16.3241 17.5045C16.3241 17.4469 16.3363 17.4064 16.3526 17.3741C16.37 17.3397 16.4008 17.2981 16.4542 17.256L14.8016 15.1631C14.1178 15.7031 13.6574 16.5289 13.6574 17.5045H16.3241ZM16.3241 20.3411V17.5045H13.6574V20.3411H16.3241ZM16.3241 20.4439V20.3411H13.6574V20.4439H16.3241ZM11.6814 22.2911C12.9946 22.2911 14.2414 22.0837 15.3971 21.7138L14.5843 19.174C13.6846 19.462 12.7116 19.6245 11.6814 19.6245V22.2911ZM5.76124 20.7607C7.48536 21.7393 9.50073 22.2911 11.6814 22.2911V19.6245C9.95665 19.6245 8.39556 19.1896 7.0775 18.4416L5.76124 20.7607ZM2.53097 21.5994C3.5442 21.7441 5.38167 21.7892 7.11048 20.7414L5.72826 18.4609C4.74383 19.0576 3.62141 19.0614 2.90803 18.9595L2.53097 21.5994ZM22.6548 16.8879V16.1274H19.9882V16.8879H22.6548ZM21.3832 15.5545H21.3215V18.2212H21.3832V15.5545ZM23.3332 17.5046C23.3332 16.4188 22.469 15.5545 21.3832 15.5545V18.2212C21.2091 18.2212 21.0227 18.1509 20.8797 18.008C20.7368 17.8651 20.6665 17.6787 20.6665 17.5046H23.3332ZM23.3333 20.3821L23.3332 17.5045L20.6665 17.5046L20.6667 20.3822L23.3333 20.3821ZM21.3833 22.3322C22.4691 22.3322 23.3333 21.468 23.3333 20.3822H20.6667C20.6667 20.208 20.737 20.0216 20.8799 19.8787C21.0228 19.7358 21.2092 19.6655 21.3833 19.6655V22.3322ZM16.6352 22.3322H21.3833V19.6655H16.6352V22.3322ZM14.6851 20.3822C14.6851 21.4679 15.5493 22.3322 16.6352 22.3322V19.6655C16.8093 19.6655 16.9957 19.7358 17.1386 19.8787C17.2815 20.0217 17.3518 20.208 17.3518 20.3822H14.6851ZM14.6851 17.525V20.3822H17.3518V17.525H14.6851ZM16.6352 15.575C15.5494 15.575 14.6851 16.4392 14.6851 17.525H17.3518C17.3518 17.6991 17.2815 17.8855 17.1386 18.0285C16.9957 18.1714 16.8093 18.2417 16.6352 18.2417V15.575ZM16.6557 15.575H16.6352V18.2417H16.6557V15.575ZM15.3223 16.0862V16.9084H17.989V16.0862H15.3223ZM18.9989 12.4097C16.9675 12.4097 15.3223 14.0549 15.3223 16.0862H17.989C17.989 15.5276 18.4403 15.0763 18.9989 15.0763V12.4097ZM19.0811 12.4097H18.9989V15.0763H19.0811V12.4097ZM22.6548 16.1274C22.6548 14.1772 21.1404 12.4765 19.1248 12.4104L19.0373 15.0756C19.5294 15.0918 19.9882 15.5288 19.9882 16.1274H22.6548ZM18.178 19.965C18.0846 19.5908 18.1741 19.1682 18.4569 18.8536C18.7184 18.5627 19.0613 18.4528 19.3483 18.4528V21.1195C19.7175 21.1195 20.1324 20.9786 20.4401 20.6364C20.7691 20.2703 20.8792 19.7758 20.7653 19.3194L18.178 19.965ZM18.0272 19.2986L18.171 19.9358L20.7723 19.3486L20.6284 18.7114L18.0272 19.2986ZM18.1671 18.6792C18.1563 18.5822 18.1652 18.4761 18.2031 18.366C18.2403 18.2577 18.3186 18.1105 18.474 17.981L20.1817 20.0291C20.7247 19.5763 20.8753 18.9067 20.8175 18.3854L18.1671 18.6792ZM18.9197 19.4285C18.4867 19.3892 18.235 19.0704 18.1805 18.771L20.8041 18.2936C20.6673 17.5419 20.0457 16.853 19.1605 16.7727L18.9197 19.4285ZM18.9784 19.4339H19.0401V16.7672H18.9784V19.4339ZM19.7979 18.6144C19.7979 19.0631 19.427 19.4339 18.9784 19.4339V16.7672C17.9543 16.7672 17.1312 17.5903 17.1312 18.6144H19.7979ZM19.5033 17.9809C19.6922 18.1384 19.7979 18.3738 19.7979 18.6144H17.1312C17.1312 19.1431 17.3602 19.6661 17.7957 20.0291L19.5033 17.9809ZM19.8352 19.8955L19.9586 19.2584L17.3405 18.7517L17.2172 19.3888L19.8352 19.8955ZM18.6495 18.4528C18.977 18.4528 19.3438 18.5941 19.5983 18.9122C19.8207 19.1903 19.8595 19.48 19.8595 19.6422H17.1929C17.1929 19.8867 17.2523 20.2484 17.5158 20.5779C17.8114 20.9474 18.2399 21.1195 18.6495 21.1195V18.4528ZM19.3483 18.4528H18.6495V21.1195H19.3483V18.4528ZM20.2938 15.5545H17.6627V18.2212H20.2938V15.5545ZM18.9604 16.0863L18.9604 16.8879L21.6271 16.8878L21.6271 16.0862L18.9604 16.0863ZM18.9809 16.0781C18.9765 16.0777 18.9717 16.0768 18.9668 16.0754C18.9621 16.074 18.9583 16.0723 18.9556 16.0709C18.9504 16.0682 18.9502 16.0669 18.9525 16.0696C18.955 16.0723 18.9575 16.0763 18.959 16.0803C18.9604 16.0838 18.9604 16.0856 18.9604 16.0862H21.6271C21.6271 14.7592 20.6271 13.5501 19.2223 13.4224L18.9809 16.0781ZM18.9783 16.0836H19.1016V13.4169H18.9783V16.0836ZM18.9961 16.0658C18.9961 16.0681 18.9958 16.071 18.9952 16.074C18.9946 16.077 18.9938 16.0792 18.9932 16.0806C18.9921 16.0831 18.9919 16.0826 18.9935 16.081C18.9951 16.0794 18.9956 16.0796 18.9931 16.0807C18.9917 16.0813 18.9895 16.0821 18.9865 16.0827C18.9835 16.0833 18.9806 16.0836 18.9783 16.0836V13.4169C17.5224 13.4169 16.3294 14.6099 16.3294 16.0658H18.9961ZM18.9961 16.8879V16.0658H16.3294V16.8879H18.9961ZM7.95365 12.501C7.95365 12.5407 7.92144 12.5729 7.88171 12.5729V15.2396C9.3942 15.2396 10.6203 14.0135 10.6203 12.501H7.95365ZM7.88171 12.429C7.92144 12.429 7.95365 12.4612 7.95365 12.501H10.6203C10.6203 10.9885 9.3942 9.76237 7.88171 9.76237V12.429ZM7.80977 12.501C7.80977 12.4612 7.84198 12.429 7.88171 12.429V9.76237C6.36922 9.76237 5.14311 10.9885 5.14311 12.501H7.80977ZM7.88171 12.5729C7.84198 12.5729 7.80977 12.5407 7.80977 12.501H5.14311C5.14311 14.0135 6.36922 15.2396 7.88171 15.2396V12.5729ZM11.5312 12.501C11.5312 12.5407 11.499 12.5729 11.4592 12.5729V15.2396C12.9717 15.2396 14.1978 14.0135 14.1978 12.501H11.5312ZM11.4592 12.429C11.499 12.429 11.5312 12.4612 11.5312 12.501H14.1978C14.1978 10.9885 12.9717 9.76237 11.4592 9.76237V12.429ZM11.3873 12.501C11.3873 12.4612 11.4195 12.429 11.4592 12.429V9.76237C9.94674 9.76237 8.72062 10.9885 8.72062 12.501H11.3873ZM11.4592 12.5729C11.4195 12.5729 11.3873 12.5407 11.3873 12.501H8.72062C8.72062 14.0135 9.94674 15.2396 11.4592 15.2396V12.5729ZM15.0369 15.2396C16.5494 15.2396 17.7755 14.0135 17.7755 12.501H15.1088C15.1088 12.5407 15.0766 12.5729 15.0369 12.5729V15.2396ZM12.2983 12.501C12.2983 14.0135 13.5244 15.2396 15.0369 15.2396V12.5729C14.9971 12.5729 14.9649 12.5407 14.9649 12.501H12.2983ZM15.0369 9.76237C13.5244 9.76237 12.2983 10.9885 12.2983 12.501H14.9649C14.9649 12.4612 14.9971 12.429 15.0369 12.429V9.76237ZM17.7755 12.501C17.7755 10.9885 16.5494 9.76237 15.0369 9.76237V12.429C15.0766 12.429 15.1088 12.4612 15.1088 12.501H17.7755Z" fill="#6C7BAD" mask="url(#path-1-inside-1_6389_65651)"/>
</svg>
