<svg width="184" height="156" viewBox="0 0 184 156" fill="none" xmlns="http://www.w3.org/2000/svg">
<path opacity="0.3" d="M44.5563 126.708C38.4187 128.182 45.6151 130.571 36.5078 131.68C27.6423 132.759 16.7515 130.99 8.39687 131.919C-3.99729 133.297 -1.73411 139.601 16.3869 143.519C21.8362 144.697 26.3898 145.155 28.4066 146.487C32.7373 149.348 17.5178 151.05 20.414 152.465C26.9351 155.651 127.227 158.324 167.468 148.749C186.263 144.278 189.075 137.821 172.283 132.916C141.94 124.054 58.3284 123.401 44.5563 126.708Z" fill="#BEB9E6"/>
<path d="M161.873 28.3752L158.788 28.3807C158.576 26.3485 158.086 24.3972 157.357 22.5645L159.965 21.0558C160.677 20.6432 160.921 19.7138 160.51 18.9766L159.414 17.0106C159.001 16.2691 158.083 15.9969 157.363 16.4046L154.788 17.8625C153.589 16.1871 152.159 14.6762 150.539 13.3768L152.02 10.8387C152.445 10.1103 152.193 9.15184 151.455 8.69557L149.484 7.47539C148.739 7.01421 147.783 7.23223 147.35 7.96499L145.865 10.4775C143.958 9.59116 141.897 8.95184 139.723 8.60869V5.62956C139.723 4.7509 138.998 4.00503 138.102 3.96459L135.701 3.8553C134.793 3.81378 134.054 4.50064 134.054 5.38913V8.40104C131.813 8.58738 129.653 9.09009 127.622 9.86766L126.02 7.1448C125.549 6.34483 124.503 6.03446 123.683 6.45412L121.488 7.57703C120.658 8.0016 120.373 9.00102 120.853 9.80646L122.514 12.5922C120.697 13.8735 119.072 15.4079 117.697 17.1472L114.694 15.4522C113.843 14.9718 112.75 15.221 112.256 16.0112L110.936 18.1204C110.438 18.916 110.734 19.9487 111.595 20.4241L114.701 22.1394C113.84 24.1185 113.258 26.2403 113.005 28.4588L109.278 28.4654C108.275 28.467 107.459 29.2254 107.459 30.1593V32.6428C107.459 33.5766 108.275 34.3236 109.278 34.311L113.104 34.2635C113.427 36.4301 114.064 38.4929 114.971 40.4075L111.595 42.3195C110.734 42.8069 110.438 43.844 110.936 44.6325L112.256 46.7232C112.75 47.5067 113.843 47.7401 114.694 47.2477L118.11 45.2719C119.475 46.8822 121.062 48.2969 122.823 49.4744L120.854 52.8071C120.374 53.6196 120.659 54.6147 121.489 55.0278L123.683 56.1196C124.504 56.5277 125.55 56.2026 126.021 55.3961L127.973 52.0492C129.902 52.7279 131.942 53.1585 134.054 53.3071V57.0381C134.054 57.9266 134.793 58.6031 135.701 58.549L138.102 58.4058C138.998 58.3523 139.723 57.5965 139.723 56.7179V53.0273C141.773 52.6776 143.723 52.0656 145.538 51.2334L147.35 54.2743C147.782 55.001 148.739 55.2054 149.484 54.7333L151.455 53.4852C152.193 53.0186 152.445 52.0563 152.02 51.3339L150.261 48.3444C151.835 47.1013 153.237 45.6636 154.429 44.073L157.363 45.6926C158.083 46.0904 159 45.8052 159.414 45.0577L160.51 43.0763C160.921 42.3337 160.677 41.407 159.964 41.0048L157.128 39.4038C157.896 37.6055 158.433 35.6919 158.705 33.698L161.872 33.6586C162.689 33.6482 163.348 32.9603 163.348 32.1215V29.891C163.348 29.0522 162.688 28.3736 161.872 28.3752H161.873ZM136.905 46.7352C127.779 47.0729 120.142 40.007 120.142 30.9423C120.142 21.8776 127.779 14.7145 136.905 14.9358C145.72 15.15 152.65 22.2202 152.65 30.7352C152.65 39.2502 145.72 46.409 136.905 46.7352Z" fill="#97A6B7"/>
<path d="M126.694 6.33718L124.498 6.26123L123.74 8.22619L126.694 6.33718Z" fill="#97A6B7"/>
<path d="M148.475 7.24371L151.008 7.26885V9.13272L148.475 7.24371Z" fill="#97A6B7"/>
<path d="M158.128 16.2346L160.652 16.3368L160.021 17.7471L158.128 16.2346Z" fill="#97A6B7"/>
<path d="M162.092 28.402L164.641 28.6031L163.808 29.8374L162.092 28.402Z" fill="#97A6B7"/>
<path d="M157.85 45.8571L160.324 46.2101L160.627 44.1948L157.85 45.8571Z" fill="#97A6B7"/>
<path d="M148.382 54.9502L150.603 55.3529L150.78 53.7158L148.382 54.9502Z" fill="#97A6B7"/>
<path d="M137.273 58.8795L135.278 58.5265L136.995 55.9829L137.273 58.8795Z" fill="#97A6B7"/>
<path d="M126.466 56.7386L124.144 56.26L125.936 54.0939L126.466 56.7386Z" fill="#97A6B7"/>
<path d="M113.414 15.2281L115.838 15.304L114.878 17.0668L113.414 15.2281Z" fill="#97A6B7"/>
<path d="M108.592 34.1951L110.814 34.5225L110.637 32.7089L108.592 34.1951Z" fill="#97A6B7"/>
<path d="M113.363 47.469L115.535 47.822L115.711 46.386L113.363 47.469Z" fill="#97A6B7"/>
<path d="M164.364 28.5752L161.255 28.5806C161.041 26.5315 160.547 24.5649 159.812 22.7169L162.441 21.1962C163.16 20.7804 163.405 19.8432 162.991 19.1001L161.886 17.1182C161.469 16.3707 160.544 16.0964 159.818 16.5073L157.221 17.9772C156.013 16.2882 154.57 14.7647 152.937 13.4549L154.431 10.896C154.859 10.1616 154.605 9.19553 153.862 8.73544L151.874 7.50543C151.123 7.04042 150.159 7.26008 149.722 7.99886L148.225 10.5316C146.302 9.63814 144.224 8.99335 142.032 8.64747V5.64375C142.032 4.75744 141.301 4.0061 140.397 3.96512L137.977 3.85474C137.061 3.81321 136.316 4.50554 136.316 5.40113V8.43764C134.056 8.62561 131.879 9.13215 129.831 9.91627L128.215 7.17102C127.741 6.36449 126.686 6.05138 125.859 6.47487L123.646 7.60707C122.809 8.03547 122.521 9.04253 123.005 9.85507L124.679 12.6637C122.847 13.9555 121.21 15.5024 119.823 17.2559L116.795 15.5472C115.937 15.0625 114.836 15.3139 114.337 16.1106L113.006 18.2367C112.504 19.0389 112.802 20.0798 113.67 20.5591L116.803 22.2885C115.934 24.2841 115.348 26.4228 115.093 28.6593L111.335 28.6659C110.324 28.6675 109.501 29.432 109.501 30.3735V32.8772C109.501 33.8187 110.324 34.5717 111.335 34.5591L115.192 34.511C115.518 36.6951 116.161 38.7748 117.075 40.7048L113.671 42.6326C112.803 43.1244 112.505 44.1691 113.006 44.9647L114.337 47.0723C114.836 47.8619 115.938 48.098 116.796 47.6013L120.24 45.609C121.615 47.2324 123.216 48.6586 124.992 49.846L123.006 53.2054C122.522 54.0245 122.809 55.0278 123.646 55.4442L125.859 56.5452C126.687 56.9567 127.741 56.6294 128.215 55.8157L130.184 52.4415C132.129 53.1257 134.187 53.5595 136.316 53.7098V57.4709C136.316 58.3665 137.061 59.0484 137.977 58.9938L140.397 58.8495C141.301 58.7954 142.032 58.0337 142.032 57.1479V53.4273C144.099 53.0748 146.065 52.4579 147.895 51.6186L149.721 54.6841C150.158 55.4163 151.122 55.6228 151.873 55.1469L153.861 53.8885C154.604 53.418 154.859 52.4481 154.43 51.7197L152.657 48.7061C154.244 47.4532 155.657 46.0035 156.86 44.3997L159.818 46.0325C160.544 46.433 161.469 46.1456 161.886 45.3921L162.99 43.3943C163.405 42.6457 163.159 41.7113 162.441 41.3059L159.58 39.6917C160.355 37.8792 160.897 35.9492 161.17 33.9395L164.364 33.8996C165.187 33.8892 165.852 33.1958 165.852 32.3504V30.1019C165.852 29.2566 165.187 28.5719 164.364 28.5735L164.364 28.5752ZM139.189 47.0849C129.988 47.4253 122.288 40.3021 122.288 31.1636C122.288 22.0251 129.988 14.8035 139.189 15.0265C148.078 15.2423 155.065 22.3705 155.065 30.9543C155.065 39.5382 148.078 46.7559 139.189 47.0849Z" fill="#D8DEE8"/>
<path d="M143.577 34.8881C136.321 31.8658 128.387 32.9963 121.994 37.2065C119.658 25.4731 112.236 15.3587 101.184 10.755C83.0741 3.21159 62.0774 13.3211 54.2856 33.3351C52.2776 38.4923 51.3454 43.8041 51.3739 48.9772C50.4406 48.3619 49.4421 47.8269 48.3817 47.3849C38.4872 43.2637 27.0153 48.787 22.7584 59.7216C18.5016 70.6562 22.926 83.2612 32.9662 86.9835C38.3289 88.9714 46.8136 89.2921 46.8136 89.2921C46.8136 89.2921 129.345 85.9469 131.891 86.054C142.058 86.4818 152.078 79.8793 156.332 68.9524C161.651 55.289 155.94 40.0376 143.577 34.8881Z" fill="url(#paint0_linear_9225_84680)"/>
<path d="M146.031 34.9809C138.775 31.9586 130.841 33.0892 124.448 37.2994C122.112 25.566 114.69 15.4516 103.638 10.8479C85.528 3.30448 64.5312 13.414 56.7394 33.428C54.7315 38.5852 53.7992 43.897 53.8277 49.0701C52.8944 48.4548 51.8959 47.9198 50.8361 47.4778C40.9416 43.3566 29.4696 48.8799 25.2128 59.8145C20.9559 70.7496 25.5261 82.9546 35.4206 87.0764C37.5145 87.9485 49.268 89.385 49.268 89.385C49.268 89.385 131.8 86.0398 134.345 86.1469C144.512 86.5747 154.532 79.9722 158.786 69.0453C164.105 55.3819 158.395 40.131 146.032 34.9809H146.031Z" fill="url(#paint1_linear_9225_84680)"/>
<path d="M162.934 140.746L31.2969 139.626V142.939C31.2969 143.838 31.8709 144.602 32.6486 144.738L69.8715 151.26C70.3135 151.338 70.761 151.358 71.2068 151.322L161.503 143.885C162.309 143.819 162.934 143.052 162.934 142.129V140.746Z" fill="#26264F"/>
<path d="M115.163 135.439L32.6572 141.498C31.1811 141.606 29.9805 140.454 29.9805 138.924V77.6297C29.9805 76.0997 31.1811 74.8593 32.6572 74.8593H115.163C116.379 74.8593 117.362 75.9806 117.362 77.3636V132.773C117.362 134.156 116.378 135.35 115.163 135.439V135.439Z" fill="#26264F"/>
<path d="M116.478 135.439L33.9736 141.498C32.4969 141.606 31.2969 140.454 31.2969 138.924V77.6297C31.2969 76.0997 32.4975 74.8593 33.9736 74.8593H116.478C117.695 74.8593 118.678 75.9806 118.678 77.3636V132.773C118.678 134.156 117.695 135.35 116.478 135.439V135.439Z" fill="url(#paint2_linear_9225_84680)"/>
<path d="M113.909 131.532L37.0644 136.795C35.8628 136.877 34.8867 135.931 34.8867 134.682V81.0187C34.8867 79.7695 35.8633 78.7532 37.0644 78.7477L113.909 78.4171C114.913 78.4128 115.724 79.3313 115.724 80.469V129.347C115.724 130.485 114.913 131.462 113.909 131.531V131.532Z" fill="white"/>
<path d="M78.1398 76.5358C78.1398 77.1051 77.7154 77.5685 77.1906 77.5701C76.6654 77.5718 76.2393 77.1106 76.2393 76.5396C76.2393 75.9686 76.6654 75.5057 77.1906 75.5052C77.7148 75.5052 78.1398 75.9664 78.1398 76.5358Z" fill="white"/>
<path d="M119.767 135.102L31.2969 141.48L69.8715 148.239C70.3135 148.317 70.761 148.337 71.2068 148.3L162.934 140.746L121.175 135.145C120.707 135.082 120.236 135.068 119.767 135.102Z" fill="url(#paint3_linear_9225_84680)"/>
<path d="M44.2061 141.535L117.86 136.146L140.655 139.179L67.6358 144.939L44.2061 141.535Z" fill="#26264F"/>
<path d="M68.0696 134.582L36.7211 136.686C35.8014 136.748 35.0215 136.02 35.0215 135.1V80.3263C35.0215 79.4509 35.7308 78.7406 36.6077 78.7373L68.0696 78.6105V134.582Z" fill="#D8DEE8"/>
<path d="M108.553 104.712L75.5244 105.87V102.538L108.553 101.505V104.712Z" fill="#D8DEE8"/>
<path d="M108.553 109.966L75.5244 111.329V107.996L108.553 106.759V109.966Z" fill="#D8DEE8"/>
<path d="M64.8369 105.311L45.8711 105.955V103.465L64.8369 102.872V105.311Z" fill="white"/>
<path d="M64.8369 109.305L45.8711 110.035V107.545L64.8369 106.867V109.305Z" fill="white"/>
<path d="M64.8369 113.299L45.8711 114.115V111.625L64.8369 110.861V113.299Z" fill="white"/>
<path d="M64.8369 117.294L45.8711 118.194V115.704L64.8369 114.856V117.294Z" fill="white"/>
<path d="M90.12 116.094L75.5244 116.787V113.455L90.12 112.818V116.094Z" fill="#D8DEE8"/>
<path d="M87.7691 89.9856V94.9903C87.7691 96.4372 88.9894 97.5787 90.4902 97.5394L94.2108 97.4427C95.6935 97.4039 96.8913 96.2121 96.8913 94.7805V89.8282L87.7686 89.9856H87.7691ZM91.1962 95.1597L91.8879 93.0691C91.5916 92.9166 91.3912 92.6161 91.3912 92.2658C91.3912 91.7522 91.8228 91.3276 92.3551 91.3172C92.8864 91.3074 93.3169 91.7145 93.3169 92.227C93.3169 92.5762 93.117 92.8844 92.8218 93.0488L93.5108 95.105L91.1967 95.1591L91.1962 95.1597Z" fill="#D8DEE8"/>
<path d="M95.8336 89.3948C95.4387 89.4014 95.1188 89.0965 95.1188 88.714C95.1188 87.243 93.881 86.0622 92.3545 86.0813C90.8226 86.101 89.5721 87.3217 89.5721 88.802C89.5721 89.1872 89.2473 89.5047 88.8469 89.5112C88.446 89.5178 88.1201 89.2107 88.1201 88.8249C88.1201 86.5715 90.0251 84.7174 92.3545 84.6912C94.6719 84.6655 96.5478 86.4594 96.5478 88.691C96.5478 89.073 96.2285 89.3883 95.8342 89.3948H95.8336Z" fill="#D8DEE8"/>
<g style="mix-blend-mode:soft-light" opacity="0.48">
<path d="M33.9736 141.497L116.061 135.469L116.479 135.438C117.037 135.397 117.544 135.122 117.932 134.704C112.025 134.382 108.356 132.29 105.989 130.129C101.236 125.79 102.06 121.51 96.9348 118.657C90.5418 115.098 85.5149 119.608 80.6637 115.158C77.7225 112.461 79.1668 110.449 75.5475 106.418C71.5393 101.953 68.9294 103.454 64.9015 99.436C59.8083 94.3553 62.3557 90.4019 57.968 86.7545C52.6453 82.329 46.9052 86.425 41.8388 82.1809C39.6534 80.3504 38.4544 77.6893 37.8284 74.8588H33.9736C32.4969 74.8588 31.2969 76.0992 31.2969 77.6292V138.924C31.2969 140.454 32.4969 141.606 33.9736 141.497Z" fill="white"/>
</g>
<path d="M69.3751 94.3624C68.1504 94.3979 66.9564 94.0898 65.9217 93.4712C62.7702 91.586 58.1129 88.4736 53.9229 84.3988C48.6062 79.228 45.5516 73.9724 44.8834 68.8114L44.873 68.7305L44.7432 46.7084C44.7432 42.3561 47.5886 38.8234 52.931 36.5016C57.3445 34.5837 63.1947 33.6334 69.3751 33.8116C75.4832 33.9881 81.1357 35.2454 85.3192 37.3404C90.2924 39.831 92.9017 43.3309 92.9017 47.4805L92.7834 68.5229L92.7741 68.6005C92.1634 73.5429 89.3531 78.6515 84.3853 83.8174C80.4006 87.961 75.8984 91.2445 72.806 93.2789C71.7829 93.952 70.5971 94.3269 69.3751 94.3624Z" fill="url(#paint4_linear_9225_84680)"/>
<path d="M70.5878 94.3624C69.3796 94.3979 68.2009 94.0898 67.1799 93.4712C64.07 91.586 59.4741 88.4736 55.3399 84.3988C50.0939 79.228 47.0793 73.9724 46.4198 68.8114L46.4094 68.7305L46.2812 46.7084C46.2812 42.3561 49.0888 38.8234 54.3606 36.5016C58.7161 34.5837 64.489 33.6334 70.5873 33.8116C76.6149 33.9881 82.1923 35.2454 86.3205 37.3404C91.228 39.831 93.8028 43.3309 93.8028 47.4805L93.6862 68.5229L93.6769 68.6005C93.0744 73.5429 90.3007 78.6515 85.3987 83.8174C81.4671 87.961 77.0241 91.2445 73.9727 93.2789C72.9633 93.952 71.7928 94.3269 70.5873 94.3624H70.5878Z" fill="url(#paint5_linear_9225_84680)"/>
<path d="M47.7393 46.7242L47.868 68.6355C49.3134 79.8148 62.4833 88.8664 68.2189 92.3051C69.8621 93.2903 71.9626 93.2318 73.5942 92.1608C79.2105 88.4741 91.6585 79.1925 92.9884 68.4437L93.1067 47.4592C93.1067 31.8903 47.7393 30.4674 47.7393 46.7242Z" fill="url(#paint6_linear_9225_84680)"/>
<path d="M70.9125 88.9277C70.8073 88.9298 70.6485 88.9129 70.4875 88.8156C68.1257 87.3889 63.5479 84.4005 59.5649 80.4974C55.2631 76.2817 52.782 72.1829 52.2129 68.3333L52.0869 46.7849C52.0924 44.7172 53.7328 42.9479 56.9485 41.5321C60.5382 39.9513 65.6363 39.1218 70.9125 39.2469C76.1361 39.3704 81.0852 40.4196 84.5145 42.1173C87.5478 43.6189 89.0808 45.3888 89.0858 47.3849L88.968 68.1869C88.4373 71.9119 86.1084 75.9281 82.0197 80.1498C78.1752 84.1191 73.6845 87.266 71.337 88.796C71.1765 88.9003 71.0177 88.9255 70.9125 88.9282V88.9277Z" fill="url(#paint7_linear_9225_84680)"/>
<path d="M70.3738 87.4545C67.9885 85.989 63.7475 83.159 60.0471 79.5264C56.0044 75.5571 53.6646 71.748 53.1147 68.2235L52.9893 46.8002C52.9931 45.3221 54.3553 43.9659 57.027 42.7856C60.4278 41.2835 65.3003 40.4917 70.3733 40.6054C75.3975 40.7179 80.1336 41.708 83.3876 43.3145C85.9164 44.5626 87.1953 45.9243 87.1991 47.3658L87.0819 68.0913C86.566 71.5108 84.3592 75.2506 80.5 79.228C76.9174 82.9208 72.7476 85.8895 70.3733 87.4545H70.3738Z" fill="#F4F7FA"/>
<path d="M78.9079 59.4063L62.8472 59.5489C61.6126 59.5599 60.6064 60.5199 60.6064 61.6931V71.9589C60.6064 73.1249 61.6088 74.0287 62.8389 73.9785L78.8427 73.3249C79.9808 73.2785 80.9043 72.3381 80.9098 71.2245L80.9607 61.4172C80.9667 60.297 80.0499 59.3965 78.9073 59.4069L78.9079 59.4063Z" fill="url(#paint8_linear_9225_84680)"/>
<path d="M73.0754 65.293C73.0793 64.1592 72.1038 63.263 70.9125 63.3379C69.8581 63.4045 68.9834 64.2537 68.9243 65.2733C68.8783 66.064 69.3071 66.7492 69.96 67.0973C70.2377 67.2454 70.3746 67.5552 70.3199 67.8612L69.8559 70.4546C69.7968 70.7846 70.0591 71.0753 70.4048 71.0627L71.5796 71.0217C71.923 71.0097 72.1843 70.7026 72.1279 70.3781L71.6787 67.8093C71.6251 67.5027 71.7834 67.1984 72.0621 67.0312C72.6674 66.6678 73.0738 66.0214 73.076 65.2924L73.0754 65.293Z" fill="url(#paint9_linear_9225_84680)"/>
<path d="M78.6819 58.3878C78.1993 58.391 77.8093 58.0085 77.8115 57.5337L77.8214 55.2977C77.8312 53.0519 75.9701 51.2039 73.6505 51.1809L68.4083 51.129C66.0077 51.105 64.0337 52.9727 64.0321 55.2895L64.0299 57.5965C64.0299 58.0861 63.6114 58.4861 63.0949 58.4894C62.5773 58.4927 62.1572 58.0971 62.1572 57.6047L62.1583 55.2884C62.1594 51.9771 64.9862 49.3176 68.4116 49.3651L73.656 49.4378C76.9505 49.4837 79.5823 52.1142 79.567 55.2983L79.556 57.5255C79.5538 57.9982 79.1627 58.3845 78.6813 58.3872L78.6819 58.3878Z" fill="url(#paint10_linear_9225_84680)"/>
<path d="M126.166 76.7729C130.625 74.6003 139.323 82.47 143.556 90.0074C145.243 93.0111 147.223 96.5378 146.737 100.731C145.875 108.164 137.611 114.684 126.235 116.86C125.914 115.719 125.594 114.578 125.274 113.437C126.518 112.144 128.378 110.278 130.755 108.141C134.407 104.857 135.157 104.638 135.332 103.601C135.906 100.205 127.153 97.3623 124.039 91.3915C121.362 86.2578 122.74 78.4417 126.166 76.7729Z" fill="url(#paint11_linear_9225_84680)"/>
<path d="M132.024 136.513C132.024 136.513 131.292 138.316 131.656 139.021C132.021 139.726 133.777 139.281 136.254 139.658C138.731 140.036 140.441 140.613 140.577 140.102C140.714 139.59 135.582 136.887 135.172 136.514C134.761 136.14 132.024 136.514 132.024 136.514V136.513Z" fill="url(#paint12_linear_9225_84680)"/>
<path d="M132.68 133.82L134.412 136.513C134.412 136.513 133.614 137.299 132.257 137.007L130.352 134.455L132.679 133.82L132.68 133.82Z" fill="url(#paint13_linear_9225_84680)"/>
<path style="mix-blend-mode:multiply" opacity="0.3" d="M124.038 91.3915C121.361 86.2578 122.739 78.4417 126.165 76.7729C127.063 76.3352 128.135 76.3106 129.306 76.6035C128.69 78.3799 128.812 79.6646 129.116 80.5744C130.474 84.6327 136.341 84.171 138.175 88.7899C139.333 91.7101 137.49 93.1586 139.135 95.4995C140.84 97.9251 143.627 97.5186 144.488 99.8813C145.129 101.642 143.865 102.643 144.351 104.126C144.486 104.539 144.753 104.954 145.202 105.348C142.188 110.757 135.172 115.15 126.234 116.86C125.913 115.719 125.593 114.578 125.273 113.437C126.517 112.144 128.377 110.278 130.754 108.141C134.406 104.857 135.156 104.638 135.331 103.601C135.905 100.205 127.152 97.3623 124.038 91.3915Z" fill="url(#paint14_linear_9225_84680)"/>
<path d="M129.208 78.3838C129.015 86.1638 129.123 94.5761 129.688 103.531C130.409 114.966 131.76 125.468 133.411 134.907C132.678 135.14 131.944 135.372 131.211 135.605C123.666 128.271 121.408 121.82 120.79 117.179C120.353 113.899 121.014 113.617 120.425 109.511C119.302 101.692 116.372 99.0147 114.315 91.6953C113.542 88.9479 112.683 84.7978 112.738 79.3876C118.228 79.0526 123.718 78.7182 129.208 78.3832L129.208 78.3838Z" fill="url(#paint15_linear_9225_84680)"/>
<path d="M134.613 64.4482C134.476 64.4793 133.882 64.6771 133.647 67.1557C133.08 73.1331 136.199 75.5527 135.431 78.7947C134.694 81.906 130.934 83.4158 127.063 84.9693C124.477 86.0075 116.477 89.2189 111.824 85.6081C109.866 84.0885 109.652 82.2536 108.255 75.5084C104.706 58.3714 103.332 56.8993 104.824 53.1896C107.387 46.8188 114.25 44.1806 115.392 43.7418C127.568 39.0611 141.946 47.6635 147.628 57.5462C148.376 58.8473 152.843 66.6191 149.705 70.3054C147.806 72.5353 143.441 72.8954 140.561 71.3747C136.713 69.3431 135.895 64.1553 134.613 64.4482Z" fill="url(#paint16_linear_9225_84680)"/>
<path d="M147.919 68.9814C147.957 68.9814 147.996 68.9732 148.033 68.9568C148.171 68.894 148.232 68.7317 148.169 68.594C148.064 68.3661 145.551 62.9849 139.743 60.8615C139.601 60.809 139.443 60.8822 139.391 61.0243C139.339 61.1664 139.412 61.3237 139.554 61.3756C145.14 63.4182 147.644 68.7677 147.668 68.8213C147.714 68.9224 147.814 68.9814 147.919 68.9814H147.919Z" fill="url(#paint17_linear_9225_84680)"/>
<path style="mix-blend-mode:multiply" opacity="0.3" d="M112.785 50.9984C113.553 53.0852 111.247 54.8939 112.236 57.1599C113.652 60.4074 119.282 58.7408 121.294 61.9521C123.679 65.7585 118.217 72.0015 120.471 74.1386C121.498 75.1123 122.684 73.8653 125.686 74.5495C129.962 75.5238 131.246 78.8947 133.235 78.3832C133.86 78.2226 134.618 77.6559 135.256 75.9123C135.535 76.88 135.667 77.798 135.431 78.7941C134.694 81.9055 130.934 83.4153 127.063 84.9688C124.477 86.007 116.477 89.2184 111.824 85.6076C109.866 84.0879 109.652 82.253 108.255 75.5079C104.706 58.3708 103.332 56.8987 104.824 53.189C105.638 51.1662 106.886 49.5209 108.246 48.2018C111.178 48.8482 112.382 49.9055 112.785 50.9984Z" fill="url(#paint18_linear_9225_84680)"/>
<path d="M120.144 64.0914C119.815 64.3892 116.485 67.3164 112.478 66.317C108.988 65.4466 106.846 62.062 106.47 59.214C105.578 52.4405 114.423 46.7554 113.333 45.3844C112.684 44.5681 109.201 46.1494 106.882 47.5751C104.475 49.0553 97.9709 53.0552 96.5846 60.9052C96.4668 61.5724 94.9371 70.931 100.293 74.7959C105.244 78.3696 114.942 76.4259 121.511 67.9727C121.056 66.6793 120.6 65.3854 120.145 64.092L120.144 64.0914Z" fill="url(#paint19_linear_9225_84680)"/>
<path d="M141.62 57.9047L137.654 70.5436C137.524 70.9578 137.146 71.2458 136.711 71.2611L115.368 72.013C114.7 72.0365 114.188 71.4256 114.329 70.7731L117.089 58.0823C117.189 57.6233 117.589 57.2906 118.06 57.2764L140.609 56.5758C141.314 56.554 141.831 57.2326 141.62 57.9047Z" fill="#D8DEE8"/>
<path d="M141.43 58.32L137.58 70.5868C137.454 70.9889 137.087 71.2682 136.665 71.2829L115.951 72.0129C115.302 72.0359 114.805 71.4425 114.943 70.8092L117.621 58.4921C117.718 58.0468 118.107 57.7238 118.563 57.7096L140.448 57.0299C141.132 57.0086 141.634 57.6675 141.429 58.3194L141.43 58.32Z" fill="url(#paint20_linear_9225_84680)"/>
<path d="M114.944 70.8091L117.5 59.0527C117.934 60.0762 118.494 60.5931 119.029 60.857C120.57 61.6166 121.771 60.2478 125.137 60.3778C126.424 60.4275 129.055 60.5292 130.695 62.2264C132.237 63.8214 131.581 65.4602 132.548 67.7032C133.036 68.8354 133.942 70.119 135.688 71.3173L115.952 72.0129C115.303 72.0359 114.806 71.4425 114.944 70.8097L114.944 70.8091Z" fill="url(#paint21_linear_9225_84680)"/>
<path d="M127.943 42.5233C127.716 43.3178 128.195 44.1435 129 44.3369C129.975 44.5719 131.162 44.8959 131.675 45.1888C132.617 45.7265 128.808 45.1052 125.304 45.0232C123.117 44.9719 121.482 44.7271 120.563 44.5506C120.316 44.503 120.297 44.1593 120.537 44.0817C121.412 43.7976 122.835 43.379 124.039 43.2282C125.528 43.0413 127.125 39.7628 127.125 39.7628L128.401 40.9195L127.943 42.5228L127.943 42.5233Z" fill="url(#paint22_linear_9225_84680)"/>
<path d="M140.62 61.933L140.378 61.5379C140.164 60.7172 139.373 60.1817 138.53 60.2855L137.258 60.4423C136.859 60.4915 136.59 60.8691 136.672 61.2609C136.79 61.8275 137.095 62.5056 137.877 62.4526C139.205 62.363 140.054 64.2941 140.054 64.2941L140.564 63.5777C140.911 63.0898 140.933 62.4428 140.62 61.9324L140.62 61.933Z" fill="url(#paint23_linear_9225_84680)"/>
<path d="M130.788 40.843C131.888 40.6802 133.121 39.7573 133.097 38.9944C133.064 37.9458 130.662 37.3721 129.449 37.0819C128.233 36.7912 127.717 36.8962 127.369 37.1606C127.013 37.4311 126.779 37.9147 126.703 38.3316C126.661 38.5589 126.659 38.8715 126.698 39.495C126.732 40.048 126.722 40.0239 126.737 40.1873C126.771 40.5796 126.878 41.2703 127.262 42.2271C127.422 42.0523 127.633 41.8435 127.9 41.6381C128.003 41.5588 128.41 41.2523 128.872 41.0665C129.666 40.7479 130.12 40.9408 130.788 40.8425L130.788 40.843Z" fill="url(#paint24_linear_9225_84680)"/>
<path d="M126.676 41.1616C126.676 41.1616 126.747 42.6916 128.192 43.3632C129.486 43.9648 131.203 41.2698 130.73 40.2409C130.572 39.8977 130.084 39.5245 129.584 39.4087C129.289 39.3404 129.144 39.3994 128.664 39.2781C128.22 39.1666 128.134 39.0639 127.964 39.0983C127.749 39.1415 127.477 39.3841 127.273 40.3349C127.167 39.9639 126.931 39.7152 126.676 39.6999C126.636 39.6977 126.518 39.7087 126.421 39.7704C126.071 39.9945 126.14 40.5616 126.675 41.1616H126.676Z" fill="url(#paint25_linear_9225_84680)"/>
<defs>
<linearGradient id="paint0_linear_9225_84680" x1="19.4162" y1="47.1528" x2="156.555" y2="51.809" gradientUnits="userSpaceOnUse">
<stop stop-color="#40447E"/>
<stop offset="1" stop-color="#3C3B6B"/>
</linearGradient>
<linearGradient id="paint1_linear_9225_84680" x1="119.825" y1="33.008" x2="58.2743" y2="98.0851" gradientUnits="userSpaceOnUse">
<stop stop-color="#AA80F9"/>
<stop offset="1" stop-color="#6165D7"/>
</linearGradient>
<linearGradient id="paint2_linear_9225_84680" x1="31.2969" y1="108.182" x2="118.678" y2="108.182" gradientUnits="userSpaceOnUse">
<stop stop-color="#444B8C"/>
<stop offset="1" stop-color="#26264F"/>
</linearGradient>
<linearGradient id="paint3_linear_9225_84680" x1="14.9995" y1="141.701" x2="162.934" y2="141.701" gradientUnits="userSpaceOnUse">
<stop stop-color="#444B8C"/>
<stop offset="1" stop-color="#26264F"/>
</linearGradient>
<linearGradient id="paint4_linear_9225_84680" x1="97.0704" y1="32.1269" x2="83.2216" y2="45.4694" gradientUnits="userSpaceOnUse">
<stop stop-color="#FF9085"/>
<stop offset="1" stop-color="#FB6FBB"/>
</linearGradient>
<linearGradient id="paint5_linear_9225_84680" x1="59.2161" y1="75.9379" x2="35.5848" y2="115.417" gradientUnits="userSpaceOnUse">
<stop stop-color="#FF9085"/>
<stop offset="1" stop-color="#FB6FBB"/>
</linearGradient>
<linearGradient id="paint6_linear_9225_84680" x1="80.8356" y1="78.9936" x2="42.6613" y2="2.05246" gradientUnits="userSpaceOnUse">
<stop stop-color="#FF9085"/>
<stop offset="1" stop-color="#FB6FBB"/>
</linearGradient>
<linearGradient id="paint7_linear_9225_84680" x1="52.0869" y1="64.081" x2="89.0858" y2="64.081" gradientUnits="userSpaceOnUse">
<stop stop-color="#311944"/>
<stop offset="1" stop-color="#893976"/>
</linearGradient>
<linearGradient id="paint8_linear_9225_84680" x1="82.3716" y1="45.0369" x2="67.2098" y2="73.1292" gradientUnits="userSpaceOnUse">
<stop stop-color="#E38DDD"/>
<stop offset="1" stop-color="#9571F6"/>
</linearGradient>
<linearGradient id="paint9_linear_9225_84680" x1="68.921" y1="67.1984" x2="73.0754" y2="67.1984" gradientUnits="userSpaceOnUse">
<stop stop-color="#311944"/>
<stop offset="1" stop-color="#893976"/>
</linearGradient>
<linearGradient id="paint10_linear_9225_84680" x1="77.9742" y1="42.6637" x2="62.8129" y2="70.756" gradientUnits="userSpaceOnUse">
<stop stop-color="#E38DDD"/>
<stop offset="1" stop-color="#9571F6"/>
</linearGradient>
<linearGradient id="paint11_linear_9225_84680" x1="146.811" y1="96.6329" x2="122.631" y2="96.6329" gradientUnits="userSpaceOnUse">
<stop stop-color="#444B8C"/>
<stop offset="1" stop-color="#3E4177"/>
</linearGradient>
<linearGradient id="paint12_linear_9225_84680" x1="140.58" y1="138.325" x2="131.555" y2="138.325" gradientUnits="userSpaceOnUse">
<stop stop-color="#AA80F9"/>
<stop offset="1" stop-color="#6165D7"/>
</linearGradient>
<linearGradient id="paint13_linear_9225_84680" x1="130.311" y1="122.547" x2="133.454" y2="142.266" gradientUnits="userSpaceOnUse">
<stop stop-color="#311944"/>
<stop offset="1" stop-color="#A03976"/>
</linearGradient>
<linearGradient id="paint14_linear_9225_84680" x1="146.811" y1="96.6345" x2="122.63" y2="96.6345" gradientUnits="userSpaceOnUse">
<stop stop-color="#444B8C"/>
<stop offset="1" stop-color="#3E4177"/>
</linearGradient>
<linearGradient id="paint15_linear_9225_84680" x1="133.412" y1="106.994" x2="112.736" y2="106.994" gradientUnits="userSpaceOnUse">
<stop stop-color="#444B8C"/>
<stop offset="1" stop-color="#3E4177"/>
</linearGradient>
<linearGradient id="paint16_linear_9225_84680" x1="120.081" y1="37.6158" x2="135.022" y2="90.9442" gradientUnits="userSpaceOnUse">
<stop stop-color="#FFC444"/>
<stop offset="1" stop-color="#F36F56"/>
</linearGradient>
<linearGradient id="paint17_linear_9225_84680" x1="144.153" y1="63.7176" x2="141.557" y2="72.165" gradientUnits="userSpaceOnUse">
<stop stop-color="#FFC444"/>
<stop offset="1" stop-color="#F36F56"/>
</linearGradient>
<linearGradient id="paint18_linear_9225_84680" x1="111.505" y1="40.0185" x2="126.446" y2="93.3469" gradientUnits="userSpaceOnUse">
<stop stop-color="#FFC444"/>
<stop offset="1" stop-color="#F36F56"/>
</linearGradient>
<linearGradient id="paint19_linear_9225_84680" x1="101.876" y1="42.7162" x2="116.817" y2="96.0441" gradientUnits="userSpaceOnUse">
<stop stop-color="#FFC444"/>
<stop offset="1" stop-color="#F36F56"/>
</linearGradient>
<linearGradient id="paint20_linear_9225_84680" x1="130.783" y1="58.7948" x2="121.756" y2="75.1068" gradientUnits="userSpaceOnUse">
<stop offset="0.49" stop-color="#EBEFF2"/>
<stop offset="1" stop-color="white"/>
</linearGradient>
<linearGradient id="paint21_linear_9225_84680" x1="116.384" y1="76.1243" x2="126.88" y2="64.8257" gradientUnits="userSpaceOnUse">
<stop offset="0.49" stop-color="#EBEFF2"/>
<stop offset="1" stop-color="white"/>
</linearGradient>
<linearGradient id="paint22_linear_9225_84680" x1="124.676" y1="32.7641" x2="126.407" y2="47.553" gradientUnits="userSpaceOnUse">
<stop stop-color="#311944"/>
<stop offset="1" stop-color="#A03976"/>
</linearGradient>
<linearGradient id="paint23_linear_9225_84680" x1="140.84" y1="62.2832" x2="136.657" y2="62.2832" gradientUnits="userSpaceOnUse">
<stop stop-color="#311944"/>
<stop offset="1" stop-color="#A03976"/>
</linearGradient>
<linearGradient id="paint24_linear_9225_84680" x1="122.667" y1="44.6815" x2="131.161" y2="37.5334" gradientUnits="userSpaceOnUse">
<stop stop-color="#311944"/>
<stop offset="1" stop-color="#6B3976"/>
</linearGradient>
<linearGradient id="paint25_linear_9225_84680" x1="126.248" y1="34.7629" x2="127.888" y2="38.8737" gradientUnits="userSpaceOnUse">
<stop stop-color="#311944"/>
<stop offset="1" stop-color="#A03976"/>
</linearGradient>
</defs>
</svg>
