<svg xmlns="http://www.w3.org/2000/svg" width="64.48" height="64.48" viewBox="0 0 64.48 64.48">
  <g id="Group_265317" data-name="Group 265317" transform="translate(20343.191 8285.618)">
    <g id="Group_265312" data-name="Group 265312" transform="translate(-20342.191 -8284.618)">
      <g id="Group_265310" data-name="Group 265310" transform="translate(0 0)">
        <path id="Path_193413" data-name="Path 193413" d="M31.24,0A31.24,31.24,0,1,1,0,31.24,31.24,31.24,0,0,1,31.24,0Z" transform="translate(0 0)" fill="#015391" stroke="#462987" stroke-width="2"/>
        <g id="Group_265313" data-name="Group 265313" transform="translate(17.573 14.886)">
          <path id="Path_193401" data-name="Path 193401" d="M29.486,58.272q1.388-.1,2.762-.334,1.52-.262,3.009-.674t2.928-.971q1.439-.558,2.816-1.258T43.676,53.5q1.3-.832,2.509-1.79T48.5,49.678q1.106-1.074,2.1-2.255a30.625,30.625,0,0,0,4.822-7.852q.384-.951.7-1.926L31.958,13.5l-.01-.009q-.234-.235-.49-.447l-.01-.006q-.261-.215-.543-.4c-.132-.09-.273-.169-.411-.25-.057-.033-.111-.072-.168-.1q-.3-.162-.608-.294l-.005,0c-.208-.089-.424-.167-.643-.235-.129-.041-.266-.071-.4-.1a7.014,7.014,0,0,0-8.74,6.847,6.646,6.646,0,0,0,.039.719v0a6.949,6.949,0,0,0,.1.7c.017.08.041.157.06.236.036.146.068.3.113.438l0,.005c.068.218.148.437.237.645l0,.005c.089.209.185.413.293.613l.005.008c.108.2.226.39.351.577.032.046.068.09.1.135.1.139.2.276.3.407l.008.008q.214.26.451.5l.005.005,3.351,3.346H23.144A9.649,9.649,0,0,0,13.5,36.511v5.8a.642.642,0,0,0,.643.642Z" transform="translate(-13.5 -11.434)" fill="#015391" fill-rule="evenodd"/>
        </g>
        <path id="Path_193402" data-name="Path 193402" d="M18.642,4.434a7.159,7.159,0,1,0,7.133,7.159A7.156,7.156,0,0,0,18.642,4.434Zm0,1.3a5.867,5.867,0,1,1-5.832,5.858A5.833,5.833,0,0,1,18.642,5.736ZM14.763,20.054A9.774,9.774,0,0,0,5,29.854v5.878a.651.651,0,0,0,.651.651h5.017a.651.651,0,0,0,.38,0h15.24a.651.651,0,0,0,.38,0h5.017a.651.651,0,0,0,.651-.651V29.854a9.775,9.775,0,0,0-9.763-9.8h-7.81Zm0,1.3h7.81a8.447,8.447,0,0,1,8.461,8.5v5.228H27.129V29.844a.651.651,0,1,0-1.3,0v5.238H11.508V29.844a.651.651,0,1,0-1.3,0v5.238H6.3V29.854a8.448,8.448,0,0,1,8.461-8.5Z" transform="translate(12.573 10.452)" fill="#fff" stroke="#fff" stroke-width="1" fill-rule="evenodd"/>
        <path id="Path_193418" data-name="Path 193418" d="M27.011,13.642A7.353,7.353,0,1,0,34.364,21,7.365,7.365,0,0,0,27.011,13.642Z" transform="translate(18.342 20.838)" fill="#fff" stroke="#015391" stroke-width="3"/>
        <path id="Path_193419" data-name="Path 193419" d="M24.142,15.209v3.567h1.283V15.209Zm0,4.85v1.283h1.283V20.06Z" transform="translate(20.569 23.557)" fill="#015391"/>
      </g>
    </g>
  </g>
</svg>
