<svg width="43" height="43" viewBox="0 0 43 43" fill="none" xmlns="http://www.w3.org/2000/svg">
<rect x="0.333008" y="0.91748" width="42.0001" height="42.0001" rx="9.00002" fill="#9C43F0"/>
<circle cx="21.3321" cy="21.9175" r="10" fill="white"/>
<path d="M27.5017 17.7124C27.8139 18.2936 27.4276 18.8315 26.9726 19.3093L21.4423 25.1159C20.7346 25.8514 19.5871 25.8514 18.8793 25.1159L16.3484 22.4862C15.9945 22.1185 15.9945 21.5223 16.3484 21.1546C16.7023 20.7869 17.2761 20.7869 17.63 21.1546L20.1608 23.7843L25.9714 17.6845C26.3481 17.2891 27.2433 17.2313 27.5017 17.7124Z" fill="#1D9BF0"/>
<path d="M27.5017 17.7124C27.8139 18.2936 27.4276 18.8315 26.9726 19.3093L21.4423 25.1159C20.7346 25.8514 19.5871 25.8514 18.8793 25.1159L16.3484 22.4862C15.9945 22.1185 15.9945 21.5223 16.3484 21.1546C16.7023 20.7869 17.2761 20.7869 17.63 21.1546L20.1608 23.7843L25.9714 17.6845C26.3481 17.2891 27.2433 17.2313 27.5017 17.7124Z" fill="#A489FE"/>
</svg>
