<svg width="42" height="43" viewBox="0 0 42 43" fill="none" xmlns="http://www.w3.org/2000/svg">
<rect y="0.91748" width="42.0001" height="42.0001" rx="9.00002" fill="#FFAB00"/>
<circle cx="20.9981" cy="21.9175" r="10" fill="white"/>
<path fill-rule="evenodd" clip-rule="evenodd" d="M20.9971 15.9175C21.5494 15.9175 21.9971 16.3652 21.9971 16.9175V21.5033L24.2042 23.7104C24.5947 24.1009 24.5947 24.7341 24.2042 25.1246C23.8137 25.5151 23.1805 25.5151 22.79 25.1246L20.5829 22.9175C20.2078 22.5424 19.9971 22.0337 19.9971 21.5033V16.9175C19.9971 16.3652 20.4448 15.9175 20.9971 15.9175Z" fill="#1D9BF0"/>
<path fill-rule="evenodd" clip-rule="evenodd" d="M20.9971 15.9175C21.5494 15.9175 21.9971 16.3652 21.9971 16.9175V21.5033L24.2042 23.7104C24.5947 24.1009 24.5947 24.7341 24.2042 25.1246C23.8137 25.5151 23.1805 25.5151 22.79 25.1246L20.5829 22.9175C20.2078 22.5424 19.9971 22.0337 19.9971 21.5033V16.9175C19.9971 16.3652 20.4448 15.9175 20.9971 15.9175Z" fill="#FFAE66"/>
</svg>
