<svg width="44" height="44" viewBox="0 0 44 44" fill="none" xmlns="http://www.w3.org/2000/svg">
<path d="M33.29 24.8502C33.29 24.8502 33.4998 21.9169 32.358 21.3934C31.2162 20.8698 29.3521 21.1324 28.3014 20.4926C27.2507 19.8527 25.777 18.1692 25.777 18.1692C25.777 18.1692 23.913 19.1564 22.073 19.1564C20.233 19.1564 18.3689 18.1692 18.3689 18.1692C18.3689 18.1692 16.897 19.8544 15.8446 20.4926C14.7922 21.1308 12.9298 20.8698 11.788 21.3934C10.6462 21.9169 10.856 24.8502 10.856 24.8502H33.29Z" fill="#FFF5EB"/>
<path d="M33.2903 24.8502C33.2903 24.8502 33.5001 21.9169 32.3583 21.3934C31.2165 20.8698 29.3524 21.1324 28.3017 20.4926C27.251 19.8527 25.7773 18.1692 25.7773 18.1692" stroke="#FFA234" stroke-width="1.73751" stroke-miterlimit="10" stroke-linecap="round"/>
<path d="M10.8575 25.1825C10.8575 25.1825 10.6409 22.1511 11.8154 21.611C12.9899 21.0709 14.9072 21.3401 15.9889 20.6803C17.0705 20.0205 18.5855 18.2788 18.5855 18.2788" stroke="#FFA234" stroke-width="1.73751" stroke-miterlimit="10" stroke-linecap="round"/>
<path d="M26.3031 10.6441C25.9127 14.2172 24.3324 16.888 21.9009 16.888C19.4693 16.888 17.7394 14.0992 17.4987 10.6441C17.2596 7.20384 17.8288 4.40015 21.9009 4.40015C25.9729 4.40015 26.6779 7.21547 26.3031 10.6441Z" fill="#FFE6CD" stroke="#FFA234" stroke-width="1.73751" stroke-miterlimit="10"/>
<path d="M9.6657 39.0682L8.62362 26.7532C8.62362 26.7532 8.22811 25.3738 10.0165 25.3738H34.478C34.478 25.3738 35.8605 25.2425 35.6507 26.8114L34.208 39.2427" fill="white"/>
<path d="M9.6657 39.0682L8.62362 26.7532C8.62362 26.7532 8.22811 25.3738 10.0165 25.3738H34.478C34.478 25.3738 35.8605 25.2425 35.6507 26.8114L34.208 39.2427" stroke="#FFA234" stroke-width="1.73751" stroke-miterlimit="10"/>
<path d="M2.93359 39.6001H41.1588" stroke="#FFA234" stroke-width="1.73751" stroke-miterlimit="10" stroke-linecap="round"/>
<path d="M34.2508 6.95094L35.1983 8.80566C35.2688 8.9436 35.4047 9.03833 35.5612 9.0616L37.6797 9.35909C38.0752 9.41393 38.2334 9.88426 37.948 10.1552L36.4158 11.5994C36.3023 11.7074 36.2507 11.8603 36.2765 12.0132L36.6376 14.0524C36.7047 14.433 36.292 14.7238 35.9378 14.5443L34.0428 13.5821C33.9017 13.5106 33.7332 13.5106 33.5939 13.5821L31.6989 14.5443C31.3447 14.7238 30.9303 14.433 30.999 14.0524L31.3602 12.0132C31.3877 11.862 31.3344 11.7074 31.2209 11.5994L29.6887 10.1552C29.4015 9.88592 29.5597 9.41559 29.957 9.35909L32.0755 9.0616C32.232 9.04 32.3696 8.9436 32.4384 8.80566L33.3859 6.95094C33.563 6.60359 34.0754 6.60359 34.2525 6.95094H34.2508Z" fill="white" stroke="#FFA234" stroke-width="1.73751" stroke-miterlimit="10"/>
<path d="M22.1304 35.6711C24.0526 35.6711 25.6109 34.1651 25.6109 32.3074C25.6109 30.4496 24.0526 28.9436 22.1304 28.9436C20.2082 28.9436 18.6499 30.4496 18.6499 32.3074C18.6499 34.1651 20.2082 35.6711 22.1304 35.6711Z" fill="white" stroke="#FFA234" stroke-width="1.73751" stroke-miterlimit="10"/>
</svg>
