<svg width="309" height="260" viewBox="0 0 309 260" fill="none" xmlns="http://www.w3.org/2000/svg">
<path d="M97.8878 63.8552C96.2317 63.8815 94.9272 66.5004 94.9765 69.7074C95.0192 72.3822 95.9885 74.6133 97.27 75.2672C97.2437 75.3723 97.2174 75.4742 97.1912 75.5794C96.4978 78.2147 95.5942 80.9321 94.017 83.1797C94.017 83.1797 94.017 83.183 94.0137 83.1862C93.7607 82.9529 93.5076 82.7196 93.2481 82.4929C91.4178 80.896 89.4725 79.46 87.4714 78.1029C88.2535 76.9923 88.3915 75.5761 88.5459 74.2584C88.7267 72.7502 88.8121 71.2321 88.8088 69.714C88.8088 68.5442 88.7496 67.3744 88.6412 66.2079C88.6872 66.1981 88.7299 66.1849 88.7759 66.1685C90.3433 65.6329 90.7738 62.738 89.7354 59.7051C88.6971 56.6722 86.5842 54.6481 85.0169 55.1837C83.4495 55.7193 83.0223 58.6142 84.0574 61.6471C84.8723 64.0261 86.3444 65.7841 87.6982 66.1718C87.8033 67.2529 87.8625 68.3372 87.8723 69.4248C87.8822 70.7984 87.8197 72.1719 87.6817 73.5388C87.547 74.8762 87.4813 76.437 86.6894 77.5739C84.1954 75.9145 81.6324 74.357 79.1088 72.7403C79.1252 72.7075 79.1384 72.6713 79.1482 72.6286C79.6805 70.0327 79.5524 67.4204 78.8229 64.8739C78.7013 64.4467 78.5633 64.0294 78.4155 63.6121C79.3519 62.531 79.4834 60.1422 78.6356 57.6613C77.5973 54.6284 75.4844 52.6043 73.9171 53.1399C72.3497 53.6755 71.9192 56.5704 72.9576 59.6033C73.9729 62.5704 76.0135 64.5683 77.5677 64.1542C78.4187 66.7304 78.8262 69.3986 78.2742 72.2047C76.9171 71.3241 75.5731 70.4205 74.2654 69.4676C72.1887 67.956 70.1974 66.3131 68.4 64.4828C69.0769 63.1783 68.3244 60.7369 66.4909 58.6175C64.3945 56.1925 61.677 55.1048 60.4251 56.1892C59.1732 57.2736 59.8566 60.1159 61.9531 62.5442C63.918 64.818 66.4285 65.9155 67.7658 65.1532C70.6081 68.0415 73.9105 70.4566 77.318 72.7042C76.0989 73.0985 74.7944 73.1872 73.526 73.3187C72.0605 73.4698 70.5917 73.6111 69.1196 73.6801C68.1536 73.7261 67.1809 73.7393 66.2149 73.7097C65.469 72.5202 63.4219 71.5607 60.9443 71.38C57.7471 71.1467 55.0559 72.3 54.9376 73.9528C54.8193 75.6056 57.3133 77.1336 60.5105 77.3636C63.7077 77.5969 66.3989 76.4436 66.5172 74.7907C66.5205 74.7415 66.5172 74.6954 66.5139 74.6494C67.4339 74.6692 68.3573 74.6494 69.2806 74.6034C70.756 74.5279 72.2281 74.3899 73.7002 74.2387C75.2216 74.081 76.7495 73.9594 78.1822 73.3877C78.2216 73.3712 78.2545 73.3515 78.2873 73.3318C79.0726 73.8411 79.8613 74.3406 80.6532 74.8367C82.4407 75.9605 84.2348 77.081 85.9961 78.2475C82.6609 80.1336 79.0431 81.4513 75.3037 82.1479C74.5118 80.9518 72.2051 80.2191 69.5566 80.4392C66.3627 80.7054 63.8819 82.2629 64.0199 83.9124C64.1579 85.562 66.8589 86.6857 70.0561 86.4163C73.1843 86.1534 75.6192 84.6583 75.5896 83.0482C79.4341 82.3188 83.1505 80.9617 86.5678 79.0033C86.673 78.9408 86.742 78.8587 86.7781 78.7667C87.9183 79.5356 89.0388 80.3275 90.133 81.1621C91.3324 82.0789 92.4824 83.0482 93.5832 84.0702C93.5471 84.0866 93.5109 84.1063 93.4781 84.1359C91.3324 85.8774 88.9599 87.3035 86.4068 88.3616C85.7365 88.6409 85.0431 88.907 84.3301 89.1469C83.2753 88.2137 81.0146 87.8982 78.5798 88.4601C75.4549 89.1797 73.2237 91.0724 73.5983 92.6891C73.9696 94.3025 76.8054 95.0287 79.9303 94.3058C83.0552 93.5862 85.2863 91.6935 84.9117 90.0768C84.9018 90.0341 84.8887 89.9881 84.8756 89.9454C85.4473 89.7482 86.0059 89.5346 86.5547 89.3145C89.2787 88.2137 91.8154 86.6956 94.0958 84.8456C94.1583 84.7963 94.201 84.7405 94.2273 84.6813C95.8045 86.1994 97.2799 87.8227 98.66 89.5379C98.9228 89.8632 99.1758 90.1951 99.4322 90.527C99.3993 90.5434 99.3631 90.5631 99.3303 90.5894C98.0981 91.5719 96.7804 92.4427 95.397 93.1918C94.2568 92.4229 92.1604 92.1962 89.9161 92.7154C86.7912 93.435 84.5601 95.3277 84.9347 96.9444C85.306 98.5577 88.1418 99.2839 91.2667 98.561C94.3916 97.8414 96.6227 95.9487 96.2481 94.3321C96.212 94.1743 96.1528 94.0265 96.0707 93.8852C97.4277 93.136 98.7224 92.2718 99.9448 91.2992C99.9612 91.286 99.9743 91.2696 99.9875 91.2564C102.278 94.3156 104.318 97.5555 106.27 100.841C106.576 101.357 107.427 100.956 107.118 100.437C105.081 97.0035 102.932 93.6026 100.52 90.412C101.341 89.3473 102.13 88.217 102.784 87.0242C102.849 87.0406 102.915 87.0603 102.984 87.0669C104.63 87.2542 106.26 84.8259 106.625 81.6419C106.99 78.4578 105.951 75.7207 104.305 75.5334C102.659 75.3461 101.029 77.7743 100.664 80.9584C100.382 83.4163 100.937 85.6047 101.962 86.5609C101.374 87.6387 100.671 88.6639 99.9283 89.6398C98.3215 87.5762 96.5865 85.6178 94.6906 83.8073C94.73 83.7777 94.7694 83.7416 94.8056 83.6923C96.4978 81.2837 97.4836 78.3362 98.1835 75.4972C98.1868 75.4808 98.1901 75.4644 98.1934 75.4512C99.7903 75.3001 101.026 72.7338 100.98 69.6089C100.931 66.4018 99.5472 63.8257 97.8911 63.8487L97.8878 63.8552Z" fill="url(#paint0_linear_8865_82797)"/>
<path d="M79.4572 148.688C81.6259 147.961 84.8527 146.552 89.2229 142.55C91.8977 140.085 95.6239 136.687 98.4761 130.967C98.5976 130.72 98.8178 130.287 99.0708 129.702C99.084 129.675 99.1004 129.642 99.1135 129.613C99.1398 129.564 99.1661 129.508 99.1957 129.455C99.2844 129.261 99.3731 129.051 99.4848 128.837C101.348 124.457 104.565 114.945 100.296 107.604C100.057 107.177 96.912 101.863 93.6983 102.419C89.6862 103.155 88.3817 112.487 86.5482 112.253C85.6183 112.129 85.7004 109.789 84.8395 107.104C82.96 101.048 76.9205 94.687 71.3837 95.5939C68.7583 95.9981 66.1526 98.0747 65.1306 100.841C63.4187 105.317 68.272 110.361 67.8119 110.716C67.1219 111.202 60.8951 99.1065 53.1535 99.4614C50.4393 99.5994 47.3079 101.285 46.6408 103.566C45.6682 106.911 50.4755 110.141 49.5489 111.527C48.5664 112.996 43.4141 109.181 36.4151 110.433C34.6407 110.762 30.4676 111.517 28.7458 114.823C27.2277 117.672 27.8881 121.52 30.0075 123.8C31.9758 125.893 34.6801 126.117 35.4227 126.156C40.2464 126.488 41.9847 122.821 49.6474 120.79C52.3156 120.074 55.3616 119.653 55.7494 120.504C55.9925 121.152 54.4974 121.927 53.4394 124.181C53.4131 124.227 53.3736 124.293 53.3375 124.395C53.0221 125.085 51.9147 127.553 52.7986 129.915C52.8216 130.02 53.8337 132.56 55.8709 132.853C56.9191 133.024 57.8063 132.505 58.2007 132.291C62.1109 130.116 67.6181 128.604 67.9894 129.232C68.4363 129.938 62.0977 133.388 62.6892 136.122C63.1854 138.393 68.1734 138.889 68.8174 138.948C74.1866 139.441 78.7179 136.701 78.8723 137.072C78.9906 137.394 74.8997 138.633 72.6061 142.339C71.5283 144.058 70.2567 147.216 71.5086 148.799C73.03 150.764 77.5481 149.309 79.4474 148.691L79.4572 148.688Z" fill="url(#paint1_linear_8865_82797)"/>
<path d="M72.9809 134.351C72.7871 133.379 73.5757 132.6 74.3446 132.146C75.3107 131.575 76.4114 131.263 77.5122 131.075C79.8255 130.678 82.2768 130.832 84.4849 129.922C85.5988 129.462 86.6043 128.742 87.2418 127.704C83.762 126.455 80.4301 124.789 77.1508 123.094C75.9218 122.46 74.6929 121.819 73.4574 121.191C69.7542 121.523 67.3226 124.954 63.8067 125.854C62.8702 126.094 61.9009 126.123 60.9677 125.864C60.8099 125.821 60.8954 125.581 61.0498 125.624C62.8406 126.123 64.6577 125.446 66.2087 124.563C67.7432 123.688 69.1101 122.538 70.6972 121.753C71.4431 121.382 72.235 121.112 73.0598 120.994C69.7148 119.308 66.304 117.744 62.6895 116.739C58.3126 115.523 53.5908 115.099 49.168 116.335C48.6126 116.492 48.0672 116.673 47.5349 116.88C47.3804 116.933 47.272 116.709 47.4231 116.647C51.5765 115.06 56.1308 115.053 60.4419 115.937C61.178 116.085 61.9009 116.269 62.6205 116.466C62.6008 116.443 62.5876 116.417 62.5876 116.381C62.6698 114.133 60.6588 112.687 58.9205 111.692C57.9709 111.146 56.9884 110.637 56.1374 109.937C55.4309 109.359 54.7474 108.632 54.616 107.693C54.593 107.532 54.8427 107.482 54.8657 107.643C55.0202 108.744 55.9764 109.546 56.834 110.144C57.7672 110.798 58.799 111.294 59.765 111.895C61.3521 112.884 62.9195 114.373 62.8439 116.397C62.8439 116.463 62.7979 116.492 62.7486 116.502C66.8001 117.633 70.6282 119.453 74.3676 121.369C76.441 122.43 78.5046 123.518 80.5944 124.546C81.5637 121.95 81.4455 118.93 80.348 116.397C79.7499 115.01 78.8332 113.89 77.7324 112.871C76.5363 111.767 75.2187 110.752 74.2986 109.385C73.3917 108.034 72.9349 106.276 73.6513 104.742C73.7203 104.594 73.9601 104.676 73.8911 104.824C73.1715 106.372 73.6907 108.123 74.6436 109.441C75.6195 110.795 76.9733 111.797 78.1727 112.94C79.211 113.929 80.0489 115.043 80.6075 116.367C81.1267 117.6 81.4126 118.924 81.4816 120.255C81.5572 121.747 81.3502 123.255 80.8211 124.655C83.371 125.9 85.9636 127.05 88.6712 127.921C90.5474 128.525 92.4894 128.992 94.4511 129.255C92.3415 125.736 93.9878 121.451 93.3897 117.636C93.2156 116.519 92.8443 115.441 92.1707 114.524C92.0754 114.393 92.266 114.228 92.3645 114.36C94.8388 117.728 93.2682 122.141 93.6756 125.949C93.7972 127.099 94.1061 128.22 94.714 129.212C94.7337 129.242 94.7304 129.268 94.7238 129.294C96.2123 129.478 97.7074 129.547 99.1992 129.455C99.1697 129.508 99.1467 129.564 99.1171 129.613C99.1072 129.643 99.0908 129.672 99.0744 129.702C96.5278 129.85 93.9451 129.554 91.4379 128.966C90.094 128.65 88.7796 128.246 87.485 127.789C86.4335 129.554 84.4291 130.392 82.4871 130.737C80.233 131.138 77.8737 131.006 75.6951 131.792C74.6896 132.153 72.9645 132.961 73.2307 134.295C73.2635 134.456 73.0138 134.506 72.9809 134.345V134.351Z" fill="#141528"/>
<path d="M181.228 71.6564L93.4217 78.274C89.0159 78.606 85.7135 82.4468 86.0456 86.8526L98.4989 252.092C98.831 256.497 102.672 259.8 107.078 259.468L194.883 252.85C199.289 252.518 202.592 248.677 202.26 244.271L189.806 79.0325C189.474 74.6268 185.633 71.3243 181.228 71.6564Z" fill="#4C4E86"/>
<path d="M190.061 149.358C190.827 159.61 188.241 169.343 183.226 177.472C180.64 181.678 177.397 185.454 173.638 188.654C172.771 189.393 171.877 190.1 170.954 190.774C169.031 192.186 166.991 193.452 164.852 194.562C160.918 196.606 156.64 198.118 152.119 198.982H152.109C151.882 199.031 151.655 199.074 151.425 199.113C149.874 199.386 148.294 199.586 146.694 199.705C145.415 199.8 144.147 199.846 142.885 199.836H142.882C138.614 199.813 134.46 199.212 130.507 198.101C126.896 197.086 123.446 195.65 120.229 193.843C119.388 193.369 118.556 192.867 117.748 192.344C116.611 191.611 115.507 190.829 114.439 189.998H114.436C112.428 188.441 110.542 186.722 108.807 184.859C108.735 184.783 108.663 184.701 108.587 184.622C101.68 177.111 97.1652 167.306 96.347 156.344C94.4181 130.467 113.835 107.926 139.711 105.994C165.588 104.065 188.132 123.481 190.061 149.355V149.358Z" fill="black"/>
<path d="M180.716 174.521C180.039 179.394 176.365 183.488 170.99 186.679C169.928 187.31 168.804 187.908 167.615 188.463C166.452 189.015 165.236 189.534 163.971 190.014C154.116 193.763 141.525 195.357 130.688 194.384C127.395 194.085 124.261 193.553 121.415 192.771C120.327 192.475 119.279 192.137 118.28 191.762C116.9 191.25 115.612 190.658 114.442 190.001H114.439C112.431 188.443 110.545 186.725 108.81 184.862C108.797 184.882 108.784 184.901 108.774 184.921C108.712 184.822 108.649 184.727 108.593 184.625C107.466 182.733 106.908 180.561 107.056 178.086C107.223 175.297 109.106 173.322 111.242 171.672C111.248 171.666 111.252 171.659 111.258 171.656C111.439 171.508 111.626 171.37 111.81 171.235C111.814 171.235 111.814 171.232 111.817 171.232C113.683 169.849 115.638 168.672 116.772 167.371C119.752 163.947 117.84 157.901 120.206 153.143C120.206 153.14 120.209 153.14 120.206 153.136C120.354 152.837 120.521 152.548 120.705 152.259H120.709C121.507 151.02 122.66 149.896 124.349 148.963C126.301 147.879 127.74 146.837 128.726 145.73C128.726 145.73 128.726 145.728 128.726 145.723C128.726 145.723 128.733 145.72 128.736 145.717C129.134 145.27 129.456 144.816 129.709 144.34H129.712C130.75 142.398 130.658 140.18 129.771 137.21C128.798 133.97 127.694 128.614 129.738 122.633C129.738 122.627 129.738 122.623 129.745 122.617C130.06 121.674 130.464 120.727 130.957 119.761C130.957 119.758 130.957 119.755 130.964 119.748C131.033 119.61 131.102 119.469 131.177 119.331C133.566 114.869 138.219 111.648 143.782 111.238L146.48 111.034C149.97 110.774 153.269 111.655 155.993 113.357C155.993 113.357 155.997 113.359 156.006 113.364C156.006 113.364 156.009 113.367 156.012 113.364C157.498 114.294 158.805 115.467 159.88 116.827H159.909C160.567 117.685 161.138 118.595 161.631 119.535C161.631 119.535 161.635 119.538 161.635 119.541C161.917 120.067 162.167 120.603 162.39 121.141C162.39 121.141 162.394 121.141 162.39 121.145C164.04 125.124 164.25 129.498 162.647 133.444C161.635 135.931 162.413 137.992 165.505 141.034C170.142 145.602 170.352 148.911 170.07 151.95C170.07 151.95 170.07 151.952 170.07 151.957C170.01 152.565 169.938 153.159 169.876 153.754C169.846 154.053 169.816 154.346 169.793 154.641C169.626 156.905 171.939 158.683 174.456 160.825C174.739 161.069 175.025 161.315 175.311 161.565C177.657 163.632 179.954 166.093 180.404 169.618C180.841 171.33 180.929 172.96 180.713 174.521H180.716Z" fill="#494487"/>
<path d="M131.661 118.921C128.907 121.861 127.307 126.863 127.596 130.937C127.898 134.999 129.574 138.856 129.508 142.947C129.216 148.119 123.531 149.92 120.071 152.739C115.129 156.771 119.24 162.771 114.912 167.835C112.694 170.414 110.375 172.211 108.37 174.988C110.069 172.842 111.679 171.334 113.67 169.468C120.945 162.981 114.038 156.531 121.967 151.865C125.289 149.772 129.748 147.426 129.903 142.97C129.955 138.846 128.45 134.9 128.079 130.822C127.744 126.784 129.492 122.558 131.661 118.921Z" fill="#494487"/>
<path d="M155.986 113.344C160.964 117.774 165.452 124.086 164.414 131.154C163.941 133.188 163.211 135.33 164.007 137.397C166.33 142.701 170.716 142.221 170.437 149.877C170.569 152.102 168.314 154.832 169.326 156.508C172.264 162.82 181.718 160.934 180.531 169.612C182.01 160.947 172.497 162.538 169.655 156.344C169.182 155.608 169.488 154.747 169.787 153.988C170.312 152.693 170.769 151.316 170.841 149.9C171.094 141.975 166.816 142.586 164.365 137.269C163.583 135.271 164.306 133.195 164.726 131.207C165.719 124.04 161.141 117.701 155.982 113.344H155.986Z" fill="#494487"/>
<g style="mix-blend-mode:multiply">
<path d="M134.615 142.501C135.541 146.296 133.471 149.421 129.981 150.837C129.528 151.08 129.019 151.382 128.595 151.672C125.197 153.814 123.019 157.672 123.134 161.71C122.927 165.003 122.158 168.469 120.163 171.16C122.069 169.018 122.927 166.116 123.41 163.34C123.669 160.573 123.764 157.652 125.536 155.342C126.212 154.343 127.083 153.443 128.033 152.697C128.7 152.155 129.459 151.655 130.208 151.235C133.75 149.716 135.86 146.319 134.621 142.497L134.615 142.501Z" fill="#BCBEC0"/>
</g>
<path d="M130.527 184.53L129.932 185.069L121.411 192.775L120.228 193.846C119.387 193.373 118.556 192.87 117.748 192.348C116.611 191.615 115.507 190.833 114.439 190.002H114.435C112.428 188.444 110.542 186.725 108.807 184.862C114.13 176.585 119.233 168.696 122.949 163.547H122.952C123.12 163.31 123.291 163.083 123.449 162.863C124.839 160.971 126.012 159.502 126.905 158.598C126.919 158.585 126.928 158.575 126.945 158.559C127.175 158.322 127.388 158.131 127.582 157.977L129.915 178.981L130.53 184.534L130.527 184.53Z" fill="url(#paint2_linear_8865_82797)"/>
<g style="mix-blend-mode:multiply">
<path d="M162.075 142.122C168.002 149.644 162.38 155.516 167.319 161.191C167.858 161.762 168.492 162.301 169.136 162.748C171.058 164.279 173.868 164.927 174.876 167.365C174.66 166.78 174.37 166.189 173.95 165.722C172.274 164.069 169.997 163.185 168.308 161.532C162.551 156.088 168.784 149.417 162.071 142.122H162.075Z" fill="#BCBEC0"/>
</g>
<path d="M198.068 154.123C197.385 153.019 196.159 149.549 197.539 148.218C198.919 146.887 199.32 150.975 199.876 151.126C201.752 151.639 199.333 141.945 203.631 144.784C209.852 148.895 207.9 154.836 204.003 158.96C202.462 158.628 200.635 157.971 198.978 157.54C198.959 156.295 198.752 155.227 198.068 154.123Z" fill="#FFD6D6"/>
<path d="M163.593 156.097C173.001 162.327 182.001 174.446 186.568 177.847C188.504 174.952 197.211 160.454 197.974 157.211C199.449 157.175 202.715 157.789 205.515 158.742C204.913 169.218 196.735 190.133 189.834 192.357C182.734 194.647 170.033 187.382 161.645 183.285C162.068 174.015 162.896 165.193 163.593 156.097Z" fill="url(#paint3_linear_8865_82797)"/>
<g style="mix-blend-mode:multiply">
<path d="M136.911 141.449C130.149 136.868 131.378 131.608 133.974 131.036C135.236 130.757 136.56 125.016 137.447 123.097C137.447 123.097 144.814 135.81 144.896 135.968C144.982 136.126 145.274 141.015 145.274 141.015L146.799 151.031C149.391 148.73 154.468 144.899 154.103 146.578C152.651 153.222 154.639 152.867 156.587 158.128L146.161 160.625C146.161 160.625 145.977 158.687 145.78 156.709C144.091 158.687 141.65 161.516 141.541 161.49C141.374 161.447 131.338 155.69 133.665 154.934C136.678 153.955 141.407 144.498 136.908 141.452L136.911 141.449Z" fill="#BCBEC0"/>
</g>
<path d="M165.686 158.49C171 173.986 161.369 184.81 164.852 194.569C154.541 200.02 141.643 201.318 130.507 198.105C132.348 188.303 124.527 163.925 126.939 158.562C132.686 152.667 144.43 152.293 152.135 151.869C156.483 153.518 163.85 153.643 165.686 158.493V158.49Z" fill="url(#paint4_linear_8865_82797)"/>
<path d="M152.135 151.862C152.135 151.862 156.923 153.045 156.726 155.187C156.502 157.606 154.455 160.898 152.644 161.615C150.653 162.403 147.896 159.111 147.896 159.111C147.896 159.111 145.58 162.965 143.546 162.502C141.512 162.038 130.353 156.196 139.087 152.831C139.087 152.831 142.8 157.645 147.509 157.294C152.217 156.942 152.135 151.859 152.135 151.859V151.862Z" fill="#141528"/>
<path d="M139.086 152.835C143.049 162.817 154.441 159.844 152.135 151.862C152.056 150.811 151.983 149.322 151.921 147.853C151.921 147.788 151.914 147.722 151.911 147.66C151.809 145.136 151.74 142.724 151.74 142.724L144.12 140.085L142.244 139.438L140.207 138.732C140.269 138.939 140.322 139.179 140.361 139.441C140.706 141.791 140.154 146.26 139.671 149.388C139.362 151.386 139.083 152.838 139.083 152.838L139.086 152.835Z" fill="#FFD6D6"/>
<path d="M139.678 149.388C140.22 147.584 141.705 146.01 143.342 147.163C146.138 149.138 150.906 148.892 151.928 147.853C151.928 147.853 145.868 141.784 144.13 140.082C143.769 139.73 143.552 139.514 143.535 139.494C143.503 139.454 142.954 139.438 142.254 139.431C141.662 139.425 140.959 139.431 140.371 139.438C140.716 141.787 140.164 146.256 139.681 149.384L139.678 149.388Z" fill="#F5C4C4"/>
<path d="M137.437 139.313C137.621 139.379 137.805 139.418 138.018 139.484L137.992 139.112L137.782 135.084C137.361 134.259 137.055 133.369 136.806 132.426V132.399C136.033 132.11 134.811 131.798 133.776 132.357C132.393 133.102 131.423 137.381 137.44 139.316L137.437 139.313Z" fill="#FFD6D6"/>
<path d="M137.355 137.766C137.483 137.799 137.611 137.812 137.759 137.841L137.713 137.592L137.292 134.89C136.95 134.361 136.684 133.786 136.448 133.165V133.149C135.905 133.008 135.058 132.883 134.397 133.33C133.517 133.928 133.162 136.882 137.351 137.769L137.355 137.766Z" fill="#F5B3B3"/>
<path d="M136.691 130.399C137.289 138.541 142.925 148.524 151.925 147.85C162.358 147.071 163.889 126.965 157.057 117.919C150.637 119.644 145.885 121.188 139.382 120.787C138.052 123.495 136.497 127.113 136.691 130.399Z" fill="#FFD6D6"/>
<path d="M161.29 134.384C162.772 126.353 162.397 123.324 157.951 118.132C156.423 116.348 155.428 117.623 155.428 117.623C156.331 124.425 160.948 127.043 161.29 134.384Z" fill="#494487"/>
<path d="M140.168 142.445C136.56 125.723 155.98 131.697 156.962 119.2C154.458 115.435 143.066 115.471 138.124 120.702C136.07 122.877 133.527 134.69 140.168 142.445Z" fill="#494487"/>
<g style="mix-blend-mode:multiply">
<path d="M151.301 120.935C149.02 128.039 137.628 125.321 139.603 134.302C138.62 125.298 149.326 128.933 151.301 120.935Z" fill="#BCBEC0"/>
</g>
<path d="M148.997 140.128C148.983 140.752 149.24 141.324 149.664 141.751C150.12 142.214 150.778 142.51 151.514 142.523C152.302 142.54 153.012 142.228 153.492 141.722C153.873 141.321 154.109 140.798 154.123 140.223C154.149 138.925 152.522 140.042 151.563 140.023C150.764 140.006 149.023 138.823 148.997 140.121V140.128Z" fill="#CC6464"/>
<path d="M149.664 141.751C150.121 142.214 150.778 142.51 151.514 142.523C152.303 142.54 153.012 142.228 153.492 141.722C153.114 141.327 152.428 141.058 151.639 141.041C150.781 141.025 150.035 141.314 149.667 141.748L149.664 141.751Z" fill="#F59595"/>
<path d="M155.132 133.763C155.181 134.443 155.684 134.962 156.252 134.92C156.821 134.877 157.238 134.292 157.189 133.609C157.14 132.928 156.637 132.409 156.068 132.452C155.5 132.495 155.083 133.08 155.132 133.763Z" fill="#FFE0E0"/>
<path d="M155.352 133.747C155.391 134.283 155.786 134.69 156.232 134.657C156.679 134.624 157.008 134.164 156.969 133.629C156.929 133.093 156.535 132.686 156.088 132.719C155.641 132.752 155.312 133.212 155.352 133.747Z" fill="#282B6E"/>
<path d="M155.655 133.723C155.681 134.059 155.927 134.315 156.207 134.295C156.486 134.275 156.693 133.986 156.667 133.648C156.64 133.313 156.394 133.056 156.115 133.076C155.835 133.096 155.628 133.385 155.655 133.723Z" fill="#191B36"/>
<path d="M156.682 133.303C156.672 133.178 156.564 133.086 156.439 133.096C156.314 133.106 156.222 133.214 156.232 133.339C156.242 133.464 156.35 133.556 156.475 133.546C156.6 133.536 156.692 133.428 156.682 133.303Z" fill="#141528"/>
<path d="M156.102 133.08C156.099 133.024 156.05 132.981 155.994 132.988C155.937 132.991 155.894 133.04 155.901 133.097C155.904 133.153 155.954 133.196 156.01 133.189C156.066 133.186 156.109 133.136 156.102 133.08Z" fill="#141528"/>
<path d="M149.638 133.934C149.625 134.617 149.151 135.163 148.583 135.15C148.014 135.14 147.564 134.575 147.577 133.894C147.591 133.211 148.064 132.665 148.632 132.679C149.201 132.688 149.651 133.254 149.638 133.934Z" fill="#FFE0E0"/>
<path d="M149.414 133.927C149.404 134.463 149.033 134.893 148.586 134.883C148.139 134.873 147.784 134.433 147.794 133.894C147.804 133.359 148.175 132.928 148.622 132.938C149.069 132.948 149.424 133.388 149.414 133.927Z" fill="#282B6E"/>
<path d="M149.115 133.924C149.109 134.26 148.875 134.529 148.596 134.522C148.317 134.516 148.093 134.24 148.1 133.901C148.106 133.566 148.34 133.297 148.619 133.303C148.898 133.31 149.122 133.586 149.115 133.924Z" fill="#191B36"/>
<path d="M148.064 133.559C148.064 133.435 148.169 133.336 148.294 133.339C148.418 133.339 148.517 133.444 148.514 133.569C148.514 133.694 148.409 133.793 148.284 133.789C148.159 133.789 148.06 133.684 148.064 133.559Z" fill="#141528"/>
<path d="M155.198 131.555C155.72 131.098 156.496 131.098 157.041 131.506C157.137 131.575 157.137 131.729 157.064 131.811C156.982 131.906 156.851 131.903 156.759 131.834C156.578 131.699 156.335 131.624 156.115 131.634C155.862 131.644 155.638 131.742 155.444 131.913C155.356 131.992 155.201 131.946 155.142 131.857C155.07 131.752 155.109 131.634 155.198 131.555Z" fill="#282B6E"/>
<path d="M147.616 131.959C148.145 131.509 148.921 131.525 149.46 131.943C149.552 132.015 149.552 132.166 149.476 132.251C149.394 132.343 149.263 132.34 149.167 132.268C148.987 132.13 148.75 132.051 148.53 132.058C148.277 132.064 148.053 132.156 147.856 132.324C147.768 132.399 147.613 132.353 147.554 132.261C147.482 132.153 147.524 132.035 147.616 131.959Z" fill="#282B6E"/>
<path d="M151.603 137.059C151.793 136.983 151.987 137.016 152.184 137C152.368 136.983 152.47 136.888 152.464 136.698C152.457 136.491 152.398 136.283 152.355 136.083C152.309 135.85 152.26 135.616 152.214 135.386C152.197 135.308 152.28 135.232 152.352 135.225C152.441 135.219 152.496 135.285 152.513 135.363C152.565 135.62 152.618 135.879 152.667 136.136C152.713 136.362 152.786 136.602 152.753 136.839C152.72 137.056 152.565 137.22 152.355 137.273C152.138 137.328 151.905 137.263 151.698 137.345C151.517 137.414 151.422 137.131 151.599 137.062L151.603 137.059Z" fill="#F0A8A8"/>
<path d="M148.741 133.619C148.738 133.562 148.688 133.52 148.632 133.526C148.576 133.529 148.533 133.579 148.54 133.635C148.546 133.691 148.593 133.734 148.649 133.728C148.705 133.721 148.748 133.675 148.741 133.619Z" fill="#141528"/>
<path d="M144.429 137.364C144.489 138.143 145.514 138.705 146.72 138.613C147.926 138.524 148.859 137.818 148.8 137.036C148.741 136.257 147.715 135.695 146.509 135.787C145.303 135.876 144.37 136.582 144.429 137.364Z" fill="#FFBABA"/>
<path d="M155.684 136.773C155.707 137.555 156.706 138.163 157.915 138.127C159.124 138.091 160.087 137.43 160.067 136.648C160.044 135.866 159.045 135.258 157.836 135.295C156.627 135.327 155.664 135.991 155.684 136.773Z" fill="#FFBABA"/>
<path d="M156.735 115.046C152.667 123.307 163.661 131.141 160.031 139.585C164.283 129.698 153.317 123.383 156.735 115.046Z" fill="#494487"/>
<path d="M227.378 117.382C227.761 113.745 225.122 110.487 221.486 110.105C217.849 109.723 214.591 112.361 214.209 115.998C213.826 119.635 216.465 122.893 220.101 123.275C223.738 123.657 226.996 121.019 227.378 117.382Z" fill="url(#paint5_linear_8865_82797)"/>
<path d="M209.231 152.194C203.717 147.347 199.192 142.379 197.158 137.111L193.544 139.523L202.669 156.909C203.122 157.773 204.144 158.118 204.847 157.648L209.274 154.694C210.062 154.168 210.043 152.91 209.231 152.197V152.194Z" fill="#5855A3"/>
<path d="M209.231 152.194C203.717 147.347 199.193 142.379 197.159 137.111L195.867 137.972C197.451 142.707 200.681 147.515 204.641 152.351C205.324 153.189 205.14 154.431 204.276 154.822L202.094 155.808L202.669 156.906C203.122 157.77 204.144 158.115 204.848 157.645L209.274 154.691C210.062 154.165 210.043 152.907 209.231 152.194Z" fill="#4A4794"/>
<path d="M186.082 139.211C185.224 137.93 185.573 136.195 186.854 135.337C188.136 134.48 189.87 134.828 190.728 136.109C191.586 137.391 191.237 139.126 189.956 139.984C188.674 140.841 186.939 140.493 186.082 139.211Z" fill="#5855A3"/>
<path d="M192.87 127.086L190.12 128.841L197.172 139.409L199.804 137.651C202.998 135.521 206.53 133.984 210.148 133.159L230.267 130.878L210.956 101.939L201.023 119.483C198.87 122.506 196.064 124.957 192.87 127.09V127.086Z" fill="url(#paint6_linear_8865_82797)"/>
<g style="mix-blend-mode:multiply">
<path d="M207.138 108.682L211.413 115.09C215.537 121.267 209.527 130.675 200.829 131.66C198.397 132.216 196.009 133.093 193.731 134.253L197.172 139.409L199.804 137.651C202.998 135.521 206.53 133.984 210.148 133.159L230.267 130.878L210.956 101.939L207.135 108.685L207.138 108.682Z" fill="#FAE8C8"/>
</g>
<path d="M192.512 125.908L192.384 125.993C191.91 126.31 191.782 126.95 192.098 127.424L199.34 138.279C199.656 138.753 200.297 138.88 200.771 138.564L200.899 138.479C201.373 138.162 201.501 137.522 201.185 137.048L193.943 126.193C193.627 125.719 192.986 125.591 192.512 125.908Z" fill="#5855A3"/>
<path d="M210.32 101.434L210.137 101.556C209.471 102.001 209.292 102.9 209.736 103.566L228.136 131.135C228.58 131.8 229.48 131.98 230.146 131.536L230.329 131.413C230.995 130.969 231.174 130.069 230.73 129.404L212.33 101.835C211.886 101.169 210.986 100.99 210.32 101.434Z" fill="#5855A3"/>
<path d="M190.889 128.137C187.324 130.516 186.062 134.88 188.067 137.887C190.074 140.893 194.589 141.403 198.154 139.024L199.321 138.245L192.056 127.359L190.889 128.137Z" fill="url(#paint7_linear_8865_82797)"/>
<g style="mix-blend-mode:multiply">
<path d="M190.889 128.137C190.777 128.213 190.669 128.289 190.563 128.364L194.408 134.128C195.841 136.273 194.063 139.513 191.145 139.967C190.974 139.993 190.816 140.006 190.678 140.003C192.89 140.92 195.739 140.634 198.154 139.024L199.32 138.245L192.055 127.359L190.889 128.137Z" fill="#FAE8C8"/>
</g>
<path d="M205.613 146.713C207.112 148.418 207.726 150.327 206.987 150.981C206.244 151.635 204.427 150.781 202.929 149.079C201.43 147.373 200.816 145.464 201.555 144.81C202.298 144.156 204.115 145.011 205.613 146.713Z" fill="#FFD6D6"/>
<path d="M101.85 101.64C105.144 101.203 107.46 98.1781 107.023 94.8841C106.586 91.5902 103.561 89.2743 100.267 89.7115C96.973 90.1487 94.6571 93.1733 95.0943 96.4673C95.5315 99.7612 98.5561 102.077 101.85 101.64Z" fill="#C6C6FF"/>
<path d="M101.02 96.3134C102.305 96.2116 103.267 95.0878 103.165 93.803C103.064 92.5182 101.94 91.5554 100.655 91.6573C99.3703 91.7592 98.4075 92.8829 98.5093 94.1677C98.6112 95.4525 99.735 96.4153 101.02 96.3134Z" fill="#141528"/>
<path d="M103.155 96.1659C102.955 96.0345 102.695 96.0608 102.521 96.2251C102.146 96.5832 101.65 96.8198 101.092 96.8658C100.549 96.9085 100.04 96.7639 99.6195 96.4846C99.419 96.3532 99.1529 96.3762 98.9853 96.5471C98.5483 96.9874 98.3051 97.5887 98.3643 98.3445L98.3708 98.4135C98.4004 98.8045 98.7421 99.0969 99.1332 99.0641L103.484 98.7223C103.875 98.6928 104.167 98.351 104.134 97.96L104.128 97.891C104.065 97.1024 103.701 96.5306 103.152 96.1659H103.155Z" fill="#141528"/>
<path d="M167.28 92.4659L113.811 96.6587C113.052 96.7179 112.385 96.1494 112.326 95.3904L112.313 95.2129C112.254 94.4539 112.822 93.7868 113.581 93.7277L167.05 89.5349C167.809 89.4757 168.476 90.0442 168.535 90.8032L168.548 90.9807C168.607 91.7397 168.039 92.4068 167.28 92.4659Z" fill="#C6C6FF"/>
<path d="M184.535 86.1872L172.136 87.1587C171.859 87.1804 171.652 87.4223 171.674 87.6991L171.679 87.7647C171.701 88.0415 171.943 88.2483 172.22 88.2266L184.619 87.2551C184.896 87.2334 185.102 86.9914 185.081 86.7146L185.076 86.6491C185.054 86.3723 184.812 86.1655 184.535 86.1872Z" fill="#C6C6FF"/>
<path d="M184.764 89.1181L172.364 90.0896C172.088 90.1113 171.881 90.3532 171.903 90.6301L171.908 90.6956C171.929 90.9724 172.171 91.1792 172.448 91.1575L184.847 90.186C185.124 90.1643 185.331 89.9224 185.309 89.6456L185.304 89.58C185.282 89.3032 185.04 89.0964 184.764 89.1181Z" fill="#C6C6FF"/>
<path d="M172.596 93.0199L184.995 92.0484C185.27 92.0268 185.514 92.2352 185.536 92.5103L185.541 92.5758C185.563 92.8543 185.354 93.0948 185.079 93.1163L172.68 94.0878C172.401 94.1096 172.161 93.901 172.139 93.6259L172.134 93.5604C172.112 93.2819 172.321 93.0414 172.596 93.0199Z" fill="#C6C6FF"/>
<path d="M114.018 214.744C114.002 214.665 113.992 214.586 113.986 214.504L113.687 210.512C113.604 209.411 114.429 208.452 115.53 208.369L155.286 205.406C156.387 205.323 157.346 206.148 157.429 207.249L157.728 211.241C157.81 212.342 156.985 213.302 155.884 213.384L116.821 216.295C114.584 217.333 112.155 217.12 112.155 217.12C114.022 216.827 114.074 215.329 114.018 214.741V214.744Z" fill="#C6C6FF"/>
<path d="M110.896 218.577C111.404 216.004 109.731 213.507 107.158 212.999C104.585 212.491 102.088 214.164 101.58 216.737C101.072 219.31 102.746 221.807 105.318 222.315C107.891 222.823 110.388 221.149 110.896 218.577Z" fill="#C6C6FF"/>
<path d="M106.372 218.477C105.34 218.553 104.443 217.78 104.364 216.749C104.289 215.717 105.061 214.82 106.093 214.741C107.125 214.665 108.022 215.438 108.101 216.469C108.176 217.501 107.404 218.398 106.372 218.477Z" fill="#141528"/>
<path d="M104.66 218.622C104.801 218.494 105.011 218.48 105.169 218.592C105.511 218.832 105.931 218.957 106.381 218.924C106.815 218.891 107.203 218.714 107.502 218.441C107.643 218.313 107.857 218.296 108.011 218.411C108.412 218.707 108.675 219.154 108.721 219.762V219.818C108.747 220.13 108.514 220.403 108.202 220.426L104.712 220.685C104.4 220.708 104.127 220.475 104.104 220.16V220.104C104.052 219.473 104.275 218.973 104.663 218.618L104.66 218.622Z" fill="#141528"/>
<path d="M154.855 208.386L119.877 210.995C119.538 211.022 119.249 210.825 119.23 210.562C119.21 210.296 119.466 210.062 119.805 210.036L154.783 207.427C155.122 207.401 155.411 207.598 155.43 207.861C155.45 208.127 155.194 208.36 154.855 208.386Z" fill="#141528"/>
<path d="M155.441 211.343L141.288 212.398C141.15 212.408 141.025 212.201 141.006 211.935C140.986 211.669 141.081 211.445 141.216 211.435L155.368 210.381C155.506 210.371 155.631 210.578 155.651 210.844C155.671 211.11 155.575 211.334 155.441 211.343Z" fill="#141528"/>
<path d="M183.853 222.164C183.857 222.085 183.857 222.003 183.853 221.921L183.554 217.929C183.472 216.828 182.513 216.003 181.412 216.085L141.656 219.049C140.555 219.131 139.73 220.091 139.812 221.192L140.111 225.184C140.193 226.285 141.153 227.109 142.254 227.027L181.317 224.116C183.682 224.813 186.052 224.241 186.052 224.241C184.162 224.228 183.889 222.756 183.857 222.164H183.853Z" fill="#FFC6DA"/>
<path d="M195.891 226.562C197.377 224.401 196.829 221.445 194.668 219.96C192.507 218.474 189.551 219.022 188.065 221.183C186.58 223.344 187.128 226.3 189.289 227.786C191.45 229.271 194.406 228.723 195.891 226.562Z" fill="#FFC6DA"/>
<path d="M191.974 224.724C193.006 224.648 193.778 223.748 193.702 222.716C193.627 221.684 192.726 220.912 191.694 220.988C190.663 221.063 189.89 221.964 189.966 222.995C190.042 224.027 190.942 224.799 191.974 224.724Z" fill="#141528"/>
<path d="M193.686 224.612C193.528 224.506 193.318 224.526 193.177 224.658C192.874 224.943 192.477 225.134 192.026 225.167C191.593 225.2 191.182 225.081 190.847 224.858C190.686 224.75 190.475 224.769 190.337 224.904C189.986 225.256 189.789 225.739 189.835 226.343V226.399C189.861 226.711 190.134 226.948 190.449 226.925L193.939 226.665C194.251 226.642 194.488 226.37 194.465 226.057V226.002C194.412 225.371 194.123 224.911 193.683 224.615L193.686 224.612Z" fill="#141528"/>
<path d="M142.527 221.931L177.506 219.321C177.844 219.295 178.101 219.062 178.081 218.796C178.061 218.53 177.772 218.336 177.434 218.362L142.455 220.971C142.117 220.997 141.86 221.231 141.88 221.497C141.9 221.763 142.189 221.957 142.527 221.931Z" fill="#141528"/>
<path d="M142.75 224.918L177.728 222.309C178.067 222.282 178.323 222.049 178.304 221.783C178.284 221.517 177.995 221.323 177.656 221.349L142.678 223.958C142.339 223.984 142.083 224.218 142.103 224.484C142.122 224.75 142.412 224.944 142.75 224.918Z" fill="#141528"/>
<path d="M125.768 245.159C123.623 245.32 122.009 247.19 122.17 249.335C122.226 250.081 122.489 250.761 122.896 251.326L122.183 253.446L124.592 252.657C125.131 252.877 125.726 252.979 126.347 252.93C128.492 252.769 130.106 250.899 129.945 248.754C129.784 246.608 127.914 244.995 125.768 245.156V245.159Z" fill="#C6C6FF"/>
<path d="M147.268 245.283C146.677 244.37 145.307 243.795 144.058 244.235C142.721 244.708 142.3 246.144 142.254 246.308C142.257 246.371 142.264 246.43 142.267 246.492C142.261 246.43 142.254 246.371 142.251 246.308C142.182 246.151 141.554 244.797 140.161 244.524C138.86 244.271 137.591 245.043 137.141 246.036C136.316 247.853 138.485 249.864 138.728 250.094C140.197 251.454 142.008 251.562 142.662 251.566C142.675 251.566 142.688 251.566 142.701 251.566C142.717 251.566 142.734 251.559 142.754 251.556C143.398 251.444 145.087 251.04 146.292 249.529C146.506 249.262 148.346 246.952 147.262 245.28L147.268 245.283Z" fill="#FFC6DA"/>
<path d="M113.644 251.191C112.98 250.666 112.303 250.833 111.777 251.303C111.485 251.566 111.077 251.53 110.729 251.343C109.799 250.846 108.928 250.281 108.284 249.318C108.064 248.987 107.92 248.609 108.13 248.274C109.04 246.808 107.272 245.274 105.978 246.578L105.278 247.416C104.765 247.942 104.476 248.517 104.959 249.24C106.378 251.349 108.432 253.124 111.258 254.52C112.402 255.085 113.023 254.07 113.614 253.363C114.245 252.782 114.344 251.77 113.647 251.195L113.644 251.191Z" fill="#C6C6FF"/>
<path d="M181.774 245.74C181.705 244.814 182.399 244.009 183.325 243.94C184.252 243.871 185.057 244.564 185.126 245.491C185.195 246.417 184.502 247.222 183.575 247.291C182.648 247.36 181.843 246.667 181.774 245.74Z" fill="#C6C6FF"/>
<path d="M187.977 245.28C187.908 244.354 188.602 243.549 189.528 243.48C190.455 243.411 191.26 244.104 191.329 245.031C191.398 245.957 190.705 246.762 189.778 246.831C188.851 246.9 188.046 246.207 187.977 245.28Z" fill="#C6C6FF"/>
<path d="M194.184 244.817C194.115 243.89 194.809 243.085 195.735 243.016C196.662 242.947 197.467 243.641 197.536 244.567C197.605 245.494 196.912 246.299 195.985 246.368C195.058 246.437 194.253 245.744 194.184 244.817Z" fill="#C6C6FF"/>
<path d="M237.808 111.997C237.338 111.967 236.822 112.092 236.356 112.148C235.876 112.204 235.393 112.25 234.913 112.322C233.977 112.467 233.057 112.67 232.127 112.845C231.739 112.917 231.834 113.535 232.219 113.528C233.172 113.512 234.118 113.528 235.068 113.479C235.534 113.452 236.001 113.4 236.464 113.36C236.954 113.318 237.496 113.331 237.969 113.203C238.656 113.015 238.482 112.04 237.805 112L237.808 111.997Z" fill="#5855A3"/>
<path d="M239.012 103.792C237.517 104.495 236.051 105.255 234.618 106.073C233.912 106.477 233.212 106.894 232.522 107.325C231.802 107.775 231.148 108.304 230.449 108.78C230.176 108.968 230.416 109.398 230.711 109.23C231.421 108.823 232.174 108.508 232.897 108.13C233.619 107.752 234.352 107.39 235.088 107.042C236.56 106.349 238.059 105.718 239.583 105.146C240.579 104.771 239.994 103.329 239.012 103.792Z" fill="#5855A3"/>
<path d="M230.642 100.417C230.316 100.168 229.794 100.312 229.692 100.733C229.675 100.808 229.58 100.907 229.537 100.973C229.475 101.071 229.413 101.17 229.35 101.272C229.229 101.472 229.11 101.676 228.999 101.883C228.778 102.284 228.578 102.688 228.407 103.112C228.246 103.516 228.092 103.93 227.973 104.347C227.911 104.568 227.855 104.807 227.835 105.034C227.812 105.281 227.872 105.517 227.826 105.767C227.803 105.885 227.96 105.925 228.003 105.816C228.095 105.589 228.249 105.465 228.384 105.271C228.496 105.11 228.585 104.916 228.677 104.738C228.884 104.338 229.074 103.927 229.298 103.533C229.718 102.79 230.145 102.06 230.642 101.364C230.934 101.117 230.964 100.667 230.642 100.417Z" fill="#5855A3"/>
<path d="M82.2026 197.401C82.242 197.138 82.3833 196.899 82.6068 196.734C82.9025 196.517 83.2804 196.478 83.6155 196.626L86.8522 198.052C87.1873 198.2 87.4108 198.505 87.4502 198.87C87.4896 199.235 87.3352 199.58 87.0427 199.797L84.1873 201.887C83.8916 202.103 83.5137 202.143 83.1785 201.995C82.8433 201.847 82.6199 201.541 82.5805 201.177L82.1993 197.661C82.1895 197.572 82.1927 197.487 82.2026 197.401ZM86.6517 199.011C86.655 198.988 86.6517 198.969 86.6517 198.955C86.6484 198.919 86.6287 198.827 86.5236 198.781L83.2869 197.355C83.1851 197.309 83.1029 197.355 83.0734 197.378C83.0438 197.401 82.9748 197.464 82.9879 197.575L83.3691 201.091C83.3822 201.203 83.4611 201.249 83.4972 201.265C83.5301 201.282 83.6188 201.308 83.7108 201.242L86.5663 199.153C86.6254 199.11 86.6451 199.054 86.6517 199.011Z" fill="#F076B4"/>
<path d="M113.252 59.0287C111.899 58.8316 110.959 57.5698 111.156 56.2193C111.353 54.8655 112.615 53.9257 113.965 54.1229C115.319 54.32 116.259 55.5818 116.062 56.9323C115.865 58.2861 114.603 59.2259 113.252 59.0287ZM113.857 54.8786C112.921 54.7406 112.05 55.3912 111.912 56.3277C111.774 57.2642 112.424 58.135 113.361 58.273C114.297 58.411 115.168 57.7604 115.306 56.8239C115.444 55.8874 114.794 55.0166 113.857 54.8786Z" fill="#5463B3"/>
<path d="M238.245 69.6582C237.489 68.6166 236.123 68.127 234.834 68.541L230.28 70.0065C229.948 70.1116 229.649 70.2694 229.386 70.4665C230.057 70.483 230.697 70.7163 231.217 71.1237L235.252 69.8258C235.81 69.645 236.399 69.7732 236.829 70.1116C237.089 70.3154 237.289 70.5914 237.397 70.9265C237.453 71.1007 237.48 71.2781 237.48 71.4556C237.48 71.8335 237.351 72.1982 237.121 72.4906C236.921 72.7535 236.638 72.9638 236.297 73.0722L231.742 74.5378C231.391 74.6495 231.026 74.6429 230.697 74.5378C230.359 74.426 230.053 74.2125 229.84 73.9134C229.738 73.7721 229.656 73.6144 229.597 73.437C229.488 73.1018 229.492 72.7601 229.584 72.4446C229.639 72.2508 229.731 72.0668 229.85 71.9025C229.521 71.794 229.16 71.7875 228.805 71.9025L228.286 72.07C228.207 72.3395 228.164 72.6188 228.164 72.9014C228.164 73.2168 228.21 73.5356 228.309 73.851C228.365 74.0219 228.43 74.1862 228.512 74.3373C228.713 74.7218 228.992 75.0537 229.324 75.3132C229.84 75.7207 230.484 75.9573 231.154 75.9704C231.483 75.977 231.821 75.931 232.15 75.8258L236.704 74.3603C237.059 74.2453 237.378 74.0745 237.654 73.8543C238.166 73.4501 238.534 72.8948 238.709 72.2738C238.82 71.8762 238.856 71.4556 238.797 71.0317C238.774 70.8608 238.735 70.6867 238.679 70.5158C238.577 70.2004 238.429 69.9145 238.245 69.6582Z" fill="#3C408B"/>
<path d="M232.232 72.5889C232.426 73.1902 232.423 73.8046 232.258 74.3698L231.736 74.5374C231.384 74.6491 231.02 74.6425 230.691 74.5374C231.006 74.1102 231.118 73.5451 230.944 73.0029C230.77 72.4607 230.349 72.0664 229.843 71.9021C229.515 71.7969 229.153 71.7871 228.798 71.9021L224.241 73.3676C223.347 73.6568 222.851 74.6163 223.14 75.51C223.429 76.4038 224.389 76.9 225.286 76.6108L229.321 75.3129C229.837 75.7203 230.481 75.9569 231.151 75.9701C230.888 76.1672 230.586 76.3249 230.254 76.4334L225.696 77.8989C224.093 78.4148 222.368 77.5276 221.852 75.9241C221.336 74.3205 222.223 72.5954 223.827 72.0795L228.384 70.614C228.716 70.5089 229.051 70.4596 229.38 70.4662C230.05 70.4793 230.691 70.7159 231.21 71.1233C231.674 71.4881 232.035 71.9875 232.226 72.5856L232.232 72.5889Z" fill="#3C408B"/>
<path d="M86.5514 231.312C86.1868 231.312 85.8627 231.474 85.6399 231.729L79.8743 228.724C79.9427 228.539 79.9807 228.339 79.9807 228.131C79.9807 227.924 79.9402 227.709 79.8667 227.519L85.6601 223.948C85.8804 224.189 86.1969 224.343 86.5489 224.343C87.2148 224.343 87.7542 223.804 87.7542 223.138C87.7542 222.472 87.2148 221.933 86.5489 221.933C85.8829 221.933 85.3436 222.472 85.3436 223.138C85.3436 223.252 85.3613 223.361 85.3892 223.465L79.5882 227.038C79.2692 226.648 78.7881 226.399 78.2462 226.399C77.2891 226.399 76.5117 227.177 76.5117 228.134C76.5117 229.091 77.2891 229.868 78.2462 229.868C78.7957 229.868 79.2843 229.613 79.6034 229.213L85.3816 232.226C85.3588 232.319 85.3436 232.418 85.3436 232.522C85.3436 233.188 85.8829 233.727 86.5489 233.727C87.2148 233.727 87.7542 233.188 87.7542 232.522C87.7542 231.856 87.2148 231.317 86.5489 231.317L86.5514 231.312Z" fill="#4C4E86"/>
<path d="M75.6306 170.578V177.261H73.2944C72.1936 177.261 71.2998 176.367 71.2998 175.267V172.575C71.2998 171.475 72.1936 170.578 73.2944 170.578H75.6306Z" fill="#FA9D45"/>
<path d="M84.0923 177.11C83.2906 178.017 76.5117 177.261 76.5117 177.261V170.578C76.5117 170.578 77.6191 169.977 77.9509 168.866C78.2795 167.765 78.7691 166.352 79.6202 166.579C80.4712 166.806 80.7867 169.099 79.7352 170.578C79.7352 170.578 83.0474 169.681 83.9444 170.66C84.7955 171.587 84.8415 176.259 84.089 177.11H84.0923Z" fill="#FA9D45"/>
<path d="M203.237 17.0736C202.665 17.0736 202.199 16.6082 202.199 16.0354C202.199 15.4626 202.665 14.9958 203.237 14.9958C203.81 14.9958 204.276 15.4613 204.276 16.0354C204.276 16.6096 203.81 17.0736 203.237 17.0736ZM203.237 15.3153C202.841 15.3153 202.519 15.6375 202.519 16.0341C202.519 16.4306 202.841 16.7528 203.237 16.7528C203.634 16.7528 203.956 16.4306 203.956 16.0341C203.956 15.6375 203.634 15.3153 203.237 15.3153Z" fill="#5463B3"/>
<path d="M255.038 15.9601L226.98 13.1843C222.583 12.7493 218.666 15.961 218.231 20.3578L212.196 81.3567C211.761 85.7535 214.973 89.6705 219.37 90.1055L247.428 92.8813C251.825 93.3163 255.742 90.1046 256.177 85.7078L262.212 24.7089C262.647 20.3121 259.435 16.3951 255.038 15.9601Z" fill="#4C4E86"/>
<path d="M253.512 23.1102L253.51 23.1377C253.499 23.2535 253.584 23.3562 253.7 23.3671L258.889 23.8539C259.005 23.8648 259.107 23.7797 259.118 23.6639L259.121 23.6364C259.132 23.5206 259.047 23.4179 258.931 23.407L253.742 22.9202C253.626 22.9093 253.523 22.9944 253.512 23.1102Z" fill="#C6C6FF"/>
<path d="M249.35 7.42637C249.421 7.33963 249.522 7.28317 249.638 7.27216C249.791 7.25701 249.936 7.32311 250.025 7.44703L250.888 8.65184C250.978 8.77714 250.993 8.93411 250.93 9.07456C250.866 9.21363 250.737 9.30726 250.584 9.32241L249.109 9.46836C248.957 9.48351 248.812 9.41742 248.723 9.29349C248.633 9.16819 248.618 9.01122 248.681 8.87077L249.293 7.52001C249.308 7.48558 249.327 7.45529 249.349 7.42637H249.35ZM250.613 8.95614C250.619 8.94788 250.623 8.941 250.625 8.93549C250.632 8.92172 250.643 8.88454 250.617 8.84599L249.754 7.64118C249.726 7.60262 249.688 7.60262 249.673 7.604C249.657 7.60537 249.619 7.61364 249.6 7.65632L248.988 9.00709C248.969 9.04977 248.988 9.0842 248.997 9.09659C249.006 9.10898 249.032 9.1379 249.078 9.13377L250.552 8.98781C250.583 8.98506 250.602 8.96991 250.613 8.95614Z" fill="#F076B4"/>
<path d="M256.738 50.1872C256.32 54.4749 254.555 58.3069 251.903 61.3045C250.532 62.8549 248.924 64.1823 247.142 65.2342C246.731 65.4766 246.312 65.7038 245.883 65.9172C245.3 66.2064 244.703 66.4666 244.091 66.6965C243.762 66.8218 243.429 66.9375 243.093 67.0449C241.322 67.6067 239.448 67.9234 237.519 67.9578H237.515C236.76 67.9716 235.998 67.9427 235.229 67.8669C234.695 67.8146 234.168 67.7416 233.647 67.648C231.886 67.3313 230.213 66.786 228.661 66.0439C227.9 65.6804 227.169 65.2714 226.469 64.8184C225.862 64.4274 225.28 64.0033 224.723 63.5503C224.409 63.2955 224.102 63.0284 223.806 62.7544C223.389 62.3702 222.99 61.9682 222.607 61.5482C222.607 61.5482 222.607 61.5482 222.604 61.5482C221.885 60.762 221.231 59.9179 220.649 59.0243C220.626 58.9871 220.601 58.9486 220.576 58.91C218.263 55.3148 217.099 50.9431 217.548 46.3579C218.355 38.0908 224.166 31.5201 231.688 29.3501C231.9 29.2881 232.115 29.2303 232.329 29.1752C234.314 28.674 236.408 28.4785 238.553 28.6341C238.632 28.6396 238.709 28.6465 238.787 28.6506C238.877 28.6589 238.966 28.6671 239.056 28.6754C249.878 29.7329 257.796 39.3631 256.738 50.1844V50.1872Z" fill="black"/>
<path d="M213.106 37.3378C213.518 36.7237 214.582 35.4073 214.107 34.8511C213.632 34.2948 212.763 36.2638 212.219 35.9678C211.675 35.6717 212.227 31.2504 210.859 31.6566C209.491 32.0628 207.151 35.4197 210.362 39.5767L212.78 38.9461C212.78 38.9461 212.694 37.9533 213.106 37.3392V37.3378Z" fill="#FFD6D6"/>
<path d="M233.194 46.8868C231.135 46.9336 223.157 48.6024 217.517 49.7343L213.321 38.0372C212.178 38.5453 210.894 38.9212 209.501 39.1911C209.501 39.1911 211.591 52.7759 214.335 55.2888C217.078 57.8017 227.546 57.3583 227.546 57.3583L233.195 46.8868H233.194Z" fill="url(#paint8_linear_8865_82797)"/>
<g style="mix-blend-mode:multiply">
<path d="M228.592 55.4197L233.195 46.8868C232.986 46.891 232.716 46.913 232.393 46.9488L228.592 55.4183V55.4197Z" fill="#F1F2F2"/>
</g>
<path d="M244.092 66.6979C243.763 66.8232 243.429 66.9388 243.093 67.0462C241.323 67.608 239.449 67.9247 237.52 67.9591H237.515C236.761 67.9729 235.998 67.944 235.23 67.8683C234.696 67.8159 234.168 67.743 233.648 67.6493C231.887 67.3326 230.214 66.7874 228.662 66.0452C227.9 65.6817 227.169 65.2727 226.47 64.8197C227.231 59.0256 226.07 51.5599 229.003 47.9523C229.92 46.8246 232.249 46.6952 234.153 46.4377C234.207 46.4295 234.26 46.4226 234.313 46.4157C234.317 46.4157 234.321 46.4143 234.324 46.4157C234.729 46.3634 235.128 46.3221 235.513 46.2918C235.61 46.2835 235.703 46.2766 235.798 46.2711C235.856 46.267 235.914 46.2642 235.971 46.2601C236.045 46.256 236.121 46.2518 236.192 46.2491L241.244 46.9458C241.59 47.027 242.13 47.195 242.753 47.4222C244.148 47.9303 246.051 48.8914 246.967 49.7079C251.69 53.9145 245.712 59.6205 244.093 66.6992L244.092 66.6979Z" fill="url(#paint9_linear_8865_82797)"/>
<path d="M242.753 47.4167C242.292 49.2439 238.864 50.7916 236.947 50.6635C235.682 49.9558 234.353 48.5486 234.15 46.4363C234.708 46.3592 235.264 46.3042 235.797 46.2697C235.931 46.2628 236.062 46.2546 236.191 46.2491L241.242 46.9458C241.242 46.9458 241.56 46.9596 242.753 47.4181V47.4167Z" fill="#141528"/>
<path d="M242.093 40.6574C242.093 40.6574 246.181 38.5356 244.873 33.4162C244.596 33.9215 244.121 34.2175 243.773 34.1941C244.36 33.1353 243.632 30.1349 238.544 28.5776C238.544 28.5776 238.639 29.0265 238.398 29.7742C236.688 27.7694 233.675 30.358 231.874 28.9026C231.874 28.9026 230.411 31.7515 232.155 34.5604C232.155 34.5604 231.483 36.2843 231.954 37.7742C232.427 39.264 242.093 40.6602 242.093 40.6602V40.6574Z" fill="#413C78"/>
<path d="M241.242 46.9459C240.285 48.9782 237.374 49.3225 237.374 49.3225C237.374 49.3225 235.236 47.834 235.821 46.1982C235.882 45.7603 235.951 45.1421 236.014 44.5294C236.017 44.5018 236.019 44.4757 236.022 44.4481C236.131 43.3975 236.222 42.3924 236.222 42.3924L239.471 41.4905L240.271 41.2688L241.14 41.0278C241.109 41.1118 241.081 41.211 241.058 41.3211C240.852 42.2918 240.965 44.1727 241.085 45.4905C241.162 46.3318 241.241 46.9459 241.241 46.9459H241.242Z" fill="#FFD6D6"/>
<path d="M241.087 45.4906C240.908 44.7237 240.329 44.0269 239.616 44.4676C238.398 45.218 236.374 45.5856 235.976 45.1257C235.976 45.1257 238.703 42.1571 239.473 41.492C239.633 41.3543 239.729 41.2689 239.736 41.2621C239.75 41.2455 239.98 41.2538 240.273 41.2703C240.521 41.2841 240.813 41.3034 241.059 41.3213C240.854 42.292 240.967 44.1729 241.087 45.4906Z" fill="#FAC3C3"/>
<path d="M240.739 41.8912C240.651 41.8912 240.568 41.8802 240.468 41.8747L240.537 41.7219L241.239 40.0503C241.543 39.7652 241.808 39.4361 242.057 39.0754L242.062 39.0644C242.433 39.0589 242.996 39.1139 243.348 39.5077C243.819 40.0337 243.578 41.989 240.74 41.8912H240.739Z" fill="#FFD6D6"/>
<path d="M241.009 41.248C240.95 41.2425 240.895 41.2287 240.827 41.2177L240.884 41.1185L241.473 40.0404C241.697 39.8696 241.898 39.6659 242.093 39.44L242.097 39.4332C242.347 39.4552 242.723 39.5309 242.934 39.8215C243.215 40.2084 242.916 41.511 241.009 41.248Z" fill="#F5B3B3"/>
<path d="M242.416 38.2206C241.636 41.8047 238.498 45.8887 234.538 45.0212C229.947 44.0161 230.537 34.9752 234.146 31.3828C236.893 32.5559 238.908 33.5431 241.826 33.7745C242.248 35.0619 242.71 36.7707 242.416 38.2192V38.2206Z" fill="#FFD6D6"/>
<path d="M242.191 39.0642C242.191 39.0642 240.661 36.4687 242.005 34.3413C242.005 34.3413 241.461 35.3671 239.268 35.2776C239.268 35.2776 239.65 34.899 239.668 34.5327C239.668 34.5327 238.859 35.5406 236.391 34.921C236.391 34.921 236.731 34.2311 236.832 33.7423C237.038 34.0962 233.801 35.4015 232.157 34.5589C232.157 34.5589 233.686 30.1651 233.971 30.11C238.165 29.2962 244.284 31.8463 243.744 36.9809L242.194 39.0656L242.191 39.0642Z" fill="#413C78"/>
<path d="M236.408 42.2202C236.324 42.5245 236.117 42.7654 235.849 42.9114C235.559 43.0698 235.199 43.1193 234.839 43.0202C234.454 42.9142 234.155 42.6594 233.995 42.3455C233.867 42.0963 233.829 41.8085 233.906 41.5276C234.081 40.8942 234.709 41.6708 235.177 41.8002C235.566 41.9076 236.583 41.5854 236.408 42.2202Z" fill="#CC6464"/>
<path d="M235.848 42.9112C235.559 43.0695 235.199 43.1191 234.839 43.02C234.454 42.9139 234.155 42.6592 233.995 42.3453C234.236 42.2076 234.608 42.1759 234.993 42.2833C235.412 42.399 235.733 42.6468 235.848 42.9112Z" fill="#F59595"/>
<path d="M234.382 38.5606C234.29 38.8938 233.99 39.1017 233.712 39.0246C233.434 38.9475 233.284 38.6157 233.376 38.2825C233.468 37.9492 233.768 37.7413 234.046 37.8184C234.325 37.8955 234.475 38.2274 234.382 38.5606Z" fill="#FFE0E0"/>
<path d="M234.273 38.5301C234.2 38.7917 233.965 38.9555 233.747 38.8949C233.53 38.8344 233.411 38.5727 233.483 38.3111C233.556 38.0495 233.791 37.8857 234.009 37.9463C234.228 38.0068 234.345 38.2685 234.273 38.5301Z" fill="#282B6E"/>
<path d="M234.126 38.4905C234.081 38.6543 233.933 38.7576 233.796 38.7191C233.659 38.6805 233.585 38.5166 233.631 38.3528C233.676 38.1889 233.823 38.0857 233.961 38.1242C234.097 38.1628 234.172 38.3266 234.126 38.4905Z" fill="#191B36"/>
<path d="M233.656 38.1789C233.673 38.1183 233.736 38.0825 233.797 38.0991C233.857 38.1156 233.893 38.1789 233.877 38.2395C233.86 38.3001 233.797 38.3359 233.736 38.3194C233.676 38.3028 233.64 38.2395 233.656 38.1789Z" fill="#141528"/>
<path d="M233.967 38.1253C233.974 38.0977 234.003 38.0826 234.031 38.0895C234.058 38.0964 234.074 38.1253 234.067 38.1528C234.06 38.1804 234.031 38.1955 234.003 38.1886C233.976 38.1817 233.961 38.1528 233.967 38.1253Z" fill="#141528"/>
<path d="M237.095 39.1855C237.034 39.5256 237.215 39.8436 237.5 39.8932C237.783 39.9442 238.063 39.7087 238.123 39.3686C238.184 39.0285 238.003 38.7104 237.718 38.6609C237.435 38.6099 237.155 38.8454 237.095 39.1855Z" fill="#FFE0E0"/>
<path d="M237.205 39.2049C237.156 39.472 237.3 39.7212 237.523 39.7612C237.746 39.8011 237.965 39.6166 238.013 39.3481C238.061 39.0796 237.918 38.8317 237.695 38.7918C237.472 38.7519 237.253 38.9364 237.205 39.2049Z" fill="#282B6E"/>
<path d="M237.355 39.2311C237.324 39.3991 237.414 39.5547 237.554 39.5794C237.695 39.6042 237.831 39.4886 237.861 39.3206C237.892 39.1526 237.802 38.997 237.662 38.9722C237.521 38.9474 237.385 39.0631 237.355 39.2311Z" fill="#191B36"/>
<path d="M237.913 39.154C237.924 39.0921 237.882 39.0329 237.82 39.0219C237.759 39.0108 237.699 39.0521 237.688 39.1141C237.677 39.1761 237.719 39.2353 237.781 39.2463C237.843 39.2573 237.902 39.216 237.913 39.154Z" fill="#141528"/>
<path d="M234.566 37.4573C234.353 37.1778 233.968 37.102 233.656 37.2508C233.603 37.2769 233.587 37.3513 233.615 37.4008C233.647 37.4559 233.711 37.4683 233.765 37.4421C233.868 37.3926 233.995 37.3802 234.104 37.4063C234.229 37.4366 234.33 37.5069 234.41 37.6101C234.445 37.657 234.527 37.6501 234.565 37.6129C234.612 37.5674 234.604 37.5041 234.568 37.4573H234.566Z" fill="#282B6E"/>
<path d="M238.291 38.4037C238.072 38.1283 237.685 38.0594 237.377 38.2137C237.323 38.2398 237.309 38.3155 237.338 38.3651C237.37 38.4188 237.436 38.4312 237.49 38.4037C237.593 38.3527 237.719 38.3376 237.828 38.361C237.954 38.3885 238.055 38.4574 238.138 38.5593C238.175 38.6061 238.255 38.5978 238.294 38.5593C238.339 38.5124 238.329 38.4505 238.294 38.4037H238.291Z" fill="#282B6E"/>
<path d="M235.812 40.5445C235.725 40.4894 235.625 40.4853 235.528 40.4563C235.439 40.4302 235.397 40.3724 235.418 40.2787C235.441 40.1768 235.492 40.0804 235.532 39.9841C235.579 39.8725 235.625 39.7624 235.671 39.6508C235.687 39.6137 235.655 39.5682 235.619 39.5572C235.575 39.5448 235.542 39.5724 235.525 39.6095C235.475 39.7321 235.424 39.8546 235.373 39.9772C235.327 40.086 235.268 40.1975 235.261 40.3173C235.256 40.4274 235.316 40.5252 235.415 40.572C235.517 40.6202 235.64 40.6106 235.735 40.6725C235.817 40.7248 235.893 40.594 235.812 40.5417V40.5445Z" fill="#F0A8A8"/>
<path d="M239.344 41.4011C239.238 41.7825 238.673 41.9601 238.082 41.7962C237.492 41.6324 237.098 41.1904 237.204 40.809C237.31 40.4276 237.874 40.25 238.465 40.4138C239.056 40.5777 239.45 41.0197 239.344 41.4011Z" fill="#FFBABA"/>
<path d="M233.812 40.0019C233.724 40.3888 233.169 40.5912 232.571 40.4549C231.974 40.3186 231.561 39.8958 231.647 39.5089C231.735 39.122 232.29 38.9196 232.888 39.0559C233.485 39.1922 233.899 39.615 233.812 40.0019Z" fill="#FFBABA"/>
<path d="M225.983 22.6277C226.529 21.347 225.934 19.8658 224.653 19.3193C223.373 18.7728 221.892 19.3679 221.345 20.6486C220.799 21.9292 221.394 23.4104 222.674 23.957C223.955 24.5035 225.436 23.9083 225.983 22.6277Z" fill="#C6C6FF"/>
<path d="M223.597 21.8898C224.135 21.9407 224.612 21.5456 224.663 21.0072C224.714 20.4688 224.319 19.9924 223.78 19.9414C223.242 19.8905 222.765 20.2857 222.714 20.824C222.663 21.3624 223.059 21.8388 223.597 21.8898Z" fill="#141528"/>
<path d="M224.49 21.982C224.417 21.9131 224.307 21.9048 224.224 21.9613C224.044 22.0825 223.822 22.1444 223.588 22.1224C223.362 22.1018 223.161 22.004 223.008 21.8594C222.935 21.7906 222.824 21.7809 222.743 21.8388C222.531 21.9888 222.387 22.2202 222.359 22.5369L222.356 22.5658C222.341 22.7296 222.46 22.8742 222.624 22.8894L224.446 23.0601C224.61 23.0752 224.754 22.9554 224.77 22.7916L224.772 22.7627C224.803 22.4336 224.692 22.1706 224.493 21.9806L224.49 21.982Z" fill="#141528"/>
<path d="M251.23 25.0471L228.854 22.9473C228.536 22.917 228.301 22.6347 228.332 22.3166L228.339 22.2423C228.369 21.9242 228.651 21.6901 228.969 21.7204L251.346 23.8202C251.664 23.8505 251.898 24.1328 251.868 24.4509L251.861 24.5252C251.83 24.8433 251.548 25.0774 251.23 25.0471Z" fill="#C6C6FF"/>
<path d="M253.269 24.6182L253.267 24.6456C253.256 24.7614 253.341 24.8642 253.457 24.875L258.646 25.3619C258.762 25.3727 258.864 25.2876 258.875 25.1718L258.878 25.1444C258.889 25.0285 258.803 24.9258 258.688 24.915L253.499 24.4281C253.383 24.4172 253.28 24.5023 253.269 24.6182Z" fill="#C6C6FF"/>
<path d="M253.156 25.8461L253.153 25.8735C253.143 25.9893 253.228 26.0921 253.344 26.1029L258.532 26.5898C258.648 26.6006 258.751 26.5155 258.762 26.3997L258.764 26.3723C258.775 26.2564 258.69 26.1537 258.574 26.1429L253.385 25.656C253.27 25.6451 253.167 25.7302 253.156 25.8461Z" fill="#C6C6FF"/>
<path d="M247.938 74.3081C247.945 74.2765 247.95 74.2448 247.953 74.2131L248.109 72.6241C248.151 72.1863 247.831 71.7966 247.393 71.7539L231.575 70.209C231.137 70.1663 230.747 70.4871 230.704 70.925L230.549 72.514C230.506 72.9519 230.827 73.3415 231.265 73.3842L246.808 74.903C247.69 75.3381 248.659 75.2747 248.659 75.2747C247.919 75.1412 247.912 74.5436 247.938 74.3095V74.3081Z" fill="#C6C6FF"/>
<path d="M249.129 75.3547C249.231 74.3138 250.156 73.5523 251.197 73.6542C252.238 73.7561 253 74.6814 252.898 75.7224C252.796 76.7633 251.871 77.5248 250.83 77.4229C249.789 77.321 249.027 76.3957 249.129 75.3547Z" fill="#C6C6FF"/>
<path d="M250.952 75.8666C251.363 75.9066 251.728 75.6064 251.768 75.1961C251.808 74.7858 251.507 74.4209 251.097 74.3809C250.687 74.341 250.322 74.6412 250.282 75.0515C250.242 75.4618 250.542 75.8267 250.952 75.8666Z" fill="#141528"/>
<path d="M251.632 75.9396C251.577 75.8873 251.493 75.8804 251.43 75.9231C251.292 76.0153 251.123 76.0621 250.944 76.0442C250.772 76.0277 250.619 75.9533 250.502 75.8418C250.447 75.7895 250.361 75.7812 250.298 75.8253C250.135 75.9396 250.027 76.1158 250.002 76.3568L249.999 76.3788C249.987 76.5041 250.078 76.6143 250.203 76.6267L251.591 76.763C251.715 76.7754 251.826 76.6845 251.839 76.5592L251.842 76.5372C251.866 76.2866 251.782 76.0855 251.631 75.9396H251.632Z" fill="#141528"/>
<path d="M231.72 71.4002L245.637 72.7592C245.77 72.773 245.887 72.6973 245.898 72.5913C245.908 72.4852 245.809 72.3902 245.674 72.3765L231.757 71.0174C231.624 71.0037 231.507 71.0794 231.496 71.1854C231.486 71.2914 231.585 71.3864 231.72 71.4002Z" fill="#141528"/>
<path d="M231.46 72.575L237.092 73.1244C237.146 73.1299 237.198 73.0487 237.209 72.9426C237.219 72.8366 237.184 72.7471 237.129 72.7416L231.498 72.1922C231.444 72.1867 231.392 72.268 231.381 72.374C231.371 72.48 231.405 72.5695 231.46 72.575Z" fill="#141528"/>
<path d="M220.281 76.685C220.281 76.6533 220.281 76.6216 220.283 76.5886L220.439 74.9996C220.482 74.5617 220.871 74.2409 221.309 74.2836L237.127 75.8285C237.565 75.8712 237.886 76.2609 237.843 76.6987L237.688 78.2877C237.645 78.7256 237.256 79.0464 236.818 79.0037L221.275 77.485C220.325 77.7411 219.386 77.4918 219.386 77.4918C220.139 77.5042 220.261 76.9204 220.281 76.685Z" fill="#FFC6DA"/>
<path d="M218.911 77.4809C219.013 76.4399 218.251 75.5146 217.21 75.4127C216.169 75.3108 215.244 76.0723 215.142 77.1132C215.04 78.1542 215.802 79.0795 216.842 79.1814C217.883 79.2833 218.809 78.5218 218.911 77.4809Z" fill="#FFC6DA"/>
<path d="M217.023 77.6305C216.612 77.5906 216.312 77.2257 216.352 76.8154C216.392 76.405 216.757 76.1049 217.167 76.1448C217.578 76.1847 217.878 76.5496 217.838 76.9599C217.798 77.3703 217.433 77.6704 217.023 77.6305Z" fill="#141528"/>
<path d="M216.34 77.57C216.404 77.5287 216.487 77.5384 216.542 77.5921C216.659 77.7091 216.818 77.7876 216.995 77.8055C217.167 77.822 217.333 77.7793 217.467 77.6926C217.532 77.6513 217.618 77.6609 217.67 77.716C217.808 77.8592 217.881 78.0533 217.857 78.2943L217.854 78.3163C217.842 78.4403 217.732 78.5325 217.607 78.5201L216.219 78.3838C216.095 78.3714 216.002 78.2613 216.015 78.136L216.018 78.1139C216.042 77.8633 216.162 77.6816 216.34 77.5687V77.57Z" fill="#141528"/>
<path d="M236.755 76.9697L222.838 75.6106C222.705 75.5969 222.604 75.5019 222.614 75.3958C222.624 75.2898 222.742 75.2155 222.876 75.2278L236.792 76.5869C236.926 76.6007 237.026 76.6957 237.017 76.8017C237.007 76.9077 236.889 76.9821 236.755 76.9697Z" fill="#141528"/>
<path d="M236.639 78.1578L222.722 76.7988C222.589 76.785 222.488 76.69 222.498 76.584C222.507 76.478 222.626 76.4036 222.759 76.416L236.676 77.7751C236.81 77.7888 236.91 77.8838 236.9 77.9899C236.891 78.0959 236.772 78.1702 236.639 78.1578Z" fill="#141528"/>
<path d="M236.377 75.3919C235.786 75.111 234.496 74.3454 234.069 74.8342C233.643 75.3231 235.479 75.8311 235.289 76.3447C235.099 76.8583 231.154 76.9437 231.686 78.0893C232.217 79.2349 235.459 80.8556 238.69 77.5082L237.827 75.4704C237.827 75.4704 236.968 75.6728 236.377 75.3919Z" fill="#FFD6D6"/>
<path d="M241.79 57.2809C242.363 59.1053 245.236 65.7477 247.216 69.38L237.031 74.812C237.652 75.7937 238.17 76.9228 238.606 78.1676C238.606 78.1676 250.714 74.3493 252.75 71.5569C254.902 68.6062 249.885 52.1574 248.056 50.9815C243.263 47.8985 240.252 52.3804 241.79 57.2809Z" fill="url(#paint10_linear_8865_82797)"/>
<path d="M222.944 85.0963C222.046 85.0082 221.246 85.665 221.159 86.5641C221.129 86.8767 221.188 87.1768 221.316 87.4385L220.87 88.2619L221.921 88.109C222.127 88.2385 222.365 88.3224 222.626 88.3472C223.523 88.4354 224.323 87.7786 224.41 86.8794C224.498 85.9817 223.842 85.1817 222.942 85.0949L222.944 85.0963Z" fill="#C6C6FF"/>
<path d="M231.812 86.6879C231.633 86.2679 231.108 85.932 230.562 86.0256C229.975 86.1261 229.7 86.6879 229.669 86.7526C229.667 86.7788 229.665 86.8036 229.662 86.8297C229.664 86.8036 229.667 86.7788 229.668 86.7526C229.65 86.6824 229.489 86.0779 228.933 85.8672C228.414 85.6703 227.835 85.8975 227.578 86.2748C227.107 86.966 227.859 87.9519 227.943 88.0635C228.451 88.7313 229.192 88.9048 229.461 88.953C229.467 88.953 229.472 88.9543 229.478 88.9557C229.485 88.9557 229.493 88.9557 229.5 88.9557C229.774 88.9557 230.501 88.9103 231.107 88.3733C231.214 88.2783 232.14 87.4576 231.812 86.6893V86.6879Z" fill="#FFC6DA"/>
<path d="M217.507 86.7202C217.271 86.4559 216.978 86.4751 216.728 86.6335C216.587 86.7216 216.422 86.6762 216.292 86.5757C215.944 86.3044 215.625 86.0084 215.428 85.565C215.36 85.4122 215.329 85.2469 215.439 85.1216C215.921 84.5819 215.3 83.8204 214.67 84.2679L214.321 84.564C214.071 84.7444 213.91 84.9605 214.059 85.2937C214.494 86.2659 215.214 87.1457 216.281 87.9251C216.714 88.2404 217.041 87.8658 217.338 87.6152C217.64 87.4197 217.753 87.0094 217.507 86.723V86.7202Z" fill="#C6C6FF"/>
<path d="M246.027 89.3487C246.064 88.9617 246.41 88.6781 246.797 88.7166C247.184 88.7538 247.467 89.0994 247.429 89.4864C247.391 89.8733 247.046 90.1569 246.659 90.1184C246.272 90.0812 245.988 89.7356 246.027 89.3487Z" fill="#C6C6FF"/>
<path d="M248.621 89.6034C248.658 89.2165 249.003 88.9328 249.39 88.9714C249.777 89.0086 250.061 89.3542 250.022 89.7411C249.985 90.128 249.64 90.4117 249.253 90.3731C248.866 90.3359 248.582 89.9903 248.621 89.6034Z" fill="#C6C6FF"/>
<path d="M251.216 89.8563C251.254 89.4694 251.599 89.1858 251.986 89.2243C252.373 89.2615 252.657 89.6071 252.618 89.994C252.581 90.381 252.235 90.6646 251.848 90.626C251.461 90.5889 251.178 90.2433 251.216 89.8563Z" fill="#C6C6FF"/>
<path d="M211.036 27.2844C210.469 27.3656 209.941 26.9705 209.86 26.4032C209.779 25.8359 210.174 25.3085 210.741 25.2273C211.309 25.146 211.836 25.5412 211.917 26.1085C211.999 26.6758 211.603 27.2032 211.036 27.2844ZM210.787 25.544C210.394 25.6004 210.12 25.9653 210.177 26.3577C210.233 26.7501 210.598 27.0242 210.991 26.9677C211.383 26.9112 211.657 26.5464 211.601 26.1539C211.544 25.7615 211.179 25.4875 210.787 25.544Z" fill="#5463B3"/>
<path d="M267.488 24.8877C266.92 24.9565 266.401 24.5503 266.332 23.9817C266.263 23.413 266.669 22.8939 267.238 22.8251C267.807 22.7562 268.326 23.1624 268.394 23.7311C268.463 24.2997 268.057 24.8188 267.488 24.8877ZM267.276 23.1431C266.883 23.1913 266.602 23.5493 266.65 23.9431C266.698 24.3369 267.056 24.6178 267.45 24.5696C267.844 24.5214 268.125 24.1634 268.076 23.7696C268.028 23.3758 267.67 23.0949 267.276 23.1431Z" fill="#5463B3"/>
<path d="M221.427 91.3035L207.169 90.1083L206.881 77.1445L223.868 78.5669L221.427 91.3035Z" fill="url(#paint11_linear_8865_82797)"/>
<path d="M206.862 75.682L224.022 77.1199C224.257 77.1396 224.433 77.3464 224.413 77.5824L224.209 80.0166L206.196 78.5071L206.4 76.073C206.419 75.8383 206.626 75.6622 206.862 75.682Z" fill="#FFCC8A"/>
<path d="M216.567 79.3755L213.839 79.1469L212.88 90.589L215.608 90.8176L216.567 79.3755Z" fill="#FFCC8A"/>
<path d="M216.474 75.4439L219.94 81.7447L217.979 81.3523L217.498 82.9454L215.345 76.0787L216.474 75.4439Z" fill="#E04347"/>
<path d="M214.97 75.3192L210.505 80.955L212.504 80.8944L212.713 82.544L215.98 76.1316L214.97 75.3192Z" fill="#E04347"/>
<path d="M216.627 74.8619C217.618 74.3827 218.411 74.1253 218.909 73.9504C220.214 73.4919 220.239 73.3349 220.497 73.4216C221.407 73.7301 221.751 75.9125 221.042 77.4382C220.907 77.7301 220.521 78.559 219.837 78.6609C219.592 78.6967 219.416 78.6237 218.559 78.1128C217.156 77.2757 216.694 76.9135 216.278 76.3779C215.916 75.9111 215.862 75.6619 215.913 75.465C215.984 75.1924 216.249 75.045 216.625 74.8633L216.627 74.8619Z" fill="#F56265"/>
<path d="M214.646 74.6964C213.75 74.0588 213.011 73.6733 212.548 73.4172C211.338 72.748 211.339 72.5883 211.069 72.6323C210.12 72.7838 209.417 74.8795 209.863 76.5015C209.948 76.8113 210.191 77.6939 210.847 77.9074C211.083 77.9845 211.269 77.9404 212.198 77.5797C213.721 76.9876 214.237 76.7081 214.736 76.2482C215.171 75.8475 215.265 75.612 215.247 75.4082C215.222 75.1274 214.985 74.9387 214.645 74.6964H214.646Z" fill="#F56265"/>
<path d="M215.312 75.8183L215.329 75.6131C215.957 75.737 216.717 75.8389 217.583 75.8541C218.552 75.8706 219.398 75.7742 220.081 75.6503C219.392 75.8017 218.544 75.9325 217.568 75.9573C216.709 75.9794 215.947 75.9133 215.312 75.8196V75.8183Z" fill="#E04347"/>
<path d="M215.228 75.3232L215.24 75.1676C215.654 75.2902 216.246 75.4086 216.945 75.3494C218.103 75.2516 218.912 74.7146 218.916 74.7256C218.92 74.7353 218.107 75.286 216.934 75.4265C216.231 75.5105 215.635 75.4196 215.228 75.3218V75.3232Z" fill="#E04347"/>
<path d="M215.529 75.3478L215.542 75.1922C215.112 75.2432 214.509 75.2625 213.83 75.0876C212.705 74.7984 211.996 74.1348 211.989 74.1444C211.984 74.154 212.694 74.8329 213.829 75.1661C214.508 75.3657 215.109 75.3754 215.529 75.3478Z" fill="#E04347"/>
<path d="M215.324 76.0321L215.312 76.1877C215.741 76.1368 216.344 76.1175 217.023 76.2924C218.148 76.5815 218.857 77.2452 218.864 77.2355C218.87 77.2259 218.159 76.5471 217.024 76.2139C216.346 76.0142 215.744 76.0046 215.325 76.0321H215.324Z" fill="#E04347"/>
<path d="M215.624 76.0566L215.612 76.2122C215.198 76.0897 214.605 75.9712 213.907 76.0305C212.749 76.1296 211.94 76.6652 211.936 76.6542C211.931 76.6446 212.745 76.0938 213.918 75.9533C214.621 75.8693 215.217 75.9602 215.624 76.058V76.0566Z" fill="#E04347"/>
<path d="M215.671 75.849L215.687 75.6438C215.048 75.6617 214.281 75.6356 213.425 75.5061C212.467 75.3616 211.649 75.1247 210.996 74.8893C211.649 75.1537 212.464 75.4235 213.422 75.6094C214.265 75.7733 215.026 75.8366 215.669 75.849H215.671Z" fill="#E04347"/>
<path d="M216.508 75.7374C216.462 76.2896 215.977 76.6999 215.423 76.6545C214.871 76.6077 214.461 76.123 214.506 75.5695C214.553 75.0173 215.038 74.607 215.591 74.6524C216.144 74.6992 216.554 75.1839 216.508 75.7374Z" fill="#E04347"/>
<defs>
<linearGradient id="paint0_linear_8865_82797" x1="56.6246" y1="67.6156" x2="112.112" y2="84.8238" gradientUnits="userSpaceOnUse">
<stop stop-color="#FFA587"/>
<stop offset="1" stop-color="#FF5682"/>
</linearGradient>
<linearGradient id="paint1_linear_8865_82797" x1="30.8066" y1="98.0259" x2="101.296" y2="135.222" gradientUnits="userSpaceOnUse">
<stop stop-color="#CA6EFF"/>
<stop offset="1" stop-color="#7657FF"/>
</linearGradient>
<linearGradient id="paint2_linear_8865_82797" x1="103.007" y1="196.396" x2="140.476" y2="160.195" gradientUnits="userSpaceOnUse">
<stop stop-color="#FFA587"/>
<stop offset="1" stop-color="#FF5682"/>
</linearGradient>
<linearGradient id="paint3_linear_8865_82797" x1="204.966" y1="154.247" x2="147.722" y2="195.052" gradientUnits="userSpaceOnUse">
<stop stop-color="#FFA587"/>
<stop offset="1" stop-color="#FF5682"/>
</linearGradient>
<linearGradient id="paint4_linear_8865_82797" x1="162.959" y1="153.844" x2="126.762" y2="202.041" gradientUnits="userSpaceOnUse">
<stop stop-color="#FFA587"/>
<stop offset="1" stop-color="#FF5682"/>
</linearGradient>
<linearGradient id="paint5_linear_8865_82797" x1="222.99" y1="109.735" x2="214.313" y2="136.895" gradientUnits="userSpaceOnUse">
<stop stop-color="#FFDB45"/>
<stop offset="1" stop-color="#FFA35C"/>
</linearGradient>
<linearGradient id="paint6_linear_8865_82797" x1="193.683" y1="119.311" x2="228.788" y2="123.882" gradientUnits="userSpaceOnUse">
<stop stop-color="#FFDB45"/>
<stop offset="1" stop-color="#FFA35C"/>
</linearGradient>
<linearGradient id="paint7_linear_8865_82797" x1="186.505" y1="131.924" x2="204.923" y2="138.542" gradientUnits="userSpaceOnUse">
<stop stop-color="#FFDB45"/>
<stop offset="1" stop-color="#FFA35C"/>
</linearGradient>
<linearGradient id="paint8_linear_8865_82797" x1="208.747" y1="46.7899" x2="232.966" y2="49.186" gradientUnits="userSpaceOnUse">
<stop stop-color="#FFC545"/>
<stop offset="1" stop-color="#FF8F5C"/>
</linearGradient>
<linearGradient id="paint9_linear_8865_82797" x1="230.954" y1="47.2956" x2="244.872" y2="70.6951" gradientUnits="userSpaceOnUse">
<stop stop-color="#FFC545"/>
<stop offset="1" stop-color="#FF8F5C"/>
</linearGradient>
<linearGradient id="paint10_linear_8865_82797" x1="246.401" y1="75.7332" x2="234.488" y2="26.2187" gradientUnits="userSpaceOnUse">
<stop stop-color="#FFC545"/>
<stop offset="1" stop-color="#FF8F5C"/>
</linearGradient>
<linearGradient id="paint11_linear_8865_82797" x1="207.137" y1="75.1185" x2="226.492" y2="96.4111" gradientUnits="userSpaceOnUse">
<stop stop-color="#FFC545"/>
<stop offset="1" stop-color="#FF8F5C"/>
</linearGradient>
</defs>
</svg>
