<svg width="32" height="32" viewBox="0 0 32 32" fill="none" xmlns="http://www.w3.org/2000/svg">
<rect width="32" height="32" rx="16" fill="#0996FF"/>
<g clip-path="url(#clip0_8865_82819)">
<path d="M14.333 16.8333C14.6909 17.3118 15.1475 17.7077 15.6718 17.9941C16.1961 18.2806 16.7759 18.4509 17.3719 18.4936C17.9678 18.5363 18.566 18.4503 19.1258 18.2415C19.6856 18.0327 20.1939 17.7059 20.6163 17.2833L23.1163 14.7833C23.8753 13.9975 24.2953 12.945 24.2858 11.8525C24.2763 10.76 23.8381 9.71497 23.0656 8.94243C22.2931 8.1699 21.248 7.7317 20.1555 7.7222C19.063 7.71271 18.0105 8.13269 17.2247 8.89168L15.7913 10.3167" stroke="white" stroke-width="1.5" stroke-linecap="round" stroke-linejoin="round"/>
<path d="M17.6668 15.1667C17.309 14.6882 16.8524 14.2923 16.328 14.0059C15.8037 13.7194 15.2239 13.5491 14.628 13.5064C14.032 13.4637 13.4338 13.5497 12.874 13.7585C12.3142 13.9673 11.8059 14.2941 11.3835 14.7167L8.8835 17.2167C8.12451 18.0025 7.70453 19.055 7.71402 20.1475C7.72352 21.24 8.16172 22.285 8.93426 23.0576C9.70679 23.8301 10.7518 24.2683 11.8443 24.2778C12.9368 24.2873 13.9893 23.8673 14.7752 23.1083L16.2002 21.6833" stroke="white" stroke-width="1.5" stroke-linecap="round" stroke-linejoin="round"/>
</g>
<defs>
<clipPath id="clip0_8865_82819">
<rect width="20" height="20" fill="white" transform="translate(6 6)"/>
</clipPath>
</defs>
</svg>
