<svg width="24" height="24" viewBox="0 0 24 24" fill="none" xmlns="http://www.w3.org/2000/svg">
<path d="M7.54992 4.78709C8.05344 4.50673 8.46941 4.07694 8.65165 3.53021L9.03921 2.36754C9.31144 1.55086 10.0757 1 10.9366 1H12.1785C13.0394 1 13.8037 1.55086 14.0759 2.36754L14.4635 3.53021C14.6457 4.07694 15.0617 4.50673 15.5652 4.78709C15.6435 4.83069 15.721 4.87554 15.7977 4.92159C16.2924 5.21857 16.8733 5.36438 17.4386 5.2487L18.6403 5.00279C19.4837 4.8302 20.3429 5.21666 20.7733 5.96218L21.3943 7.03775C21.8247 7.78328 21.7298 8.72059 21.1587 9.36469L20.3437 10.2838C19.9618 10.7144 19.7967 11.2888 19.8058 11.8644C19.8073 11.9548 19.8073 12.0452 19.8058 12.1356C19.7967 12.7111 19.9618 13.2855 20.3437 13.7162L21.1587 14.6352C21.7298 15.2793 21.8247 16.2167 21.3943 16.9622L20.7733 18.0378C20.3429 18.7833 19.4837 19.1697 18.6403 18.9971L17.4387 18.7512C16.8734 18.6356 16.2925 18.7814 15.7978 19.0784C15.7211 19.1244 15.6435 19.1693 15.5652 19.2129C15.0617 19.4933 14.6457 19.9231 14.4635 20.4698L14.0759 21.6325C13.8037 22.4491 13.0394 23 12.1785 23H10.9366C10.0757 23 9.31144 22.4491 9.03921 21.6325L8.65165 20.4698C8.46941 19.9231 8.05344 19.4933 7.54992 19.2129C7.47159 19.1693 7.39403 19.1244 7.31729 19.0784C6.82259 18.7814 6.24173 18.6356 5.67645 18.7512L4.47475 18.9971C3.63137 19.1697 2.77217 18.7833 2.34174 18.0378L1.72076 16.9622C1.29033 16.2167 1.38525 15.2793 1.95641 14.6352L2.77143 13.7161C3.15334 13.2854 3.3184 12.7111 3.30928 12.1355C3.30785 12.0452 3.30785 11.9548 3.30928 11.8644C3.3184 11.2889 3.15335 10.7145 2.77143 10.2838L1.9564 9.36469C1.38525 8.72059 1.29033 7.78328 1.72076 7.03775L2.34174 5.96218C2.77217 5.21665 3.63137 4.8302 4.47475 5.00278L5.67653 5.24871C6.24181 5.36439 6.82266 5.21857 7.31736 4.9216C7.39408 4.87554 7.47161 4.83069 7.54992 4.78709Z" fill="#333664"/>
<path fill-rule="evenodd" clip-rule="evenodd" d="M12 16C14.2091 16 16 14.2091 16 12C16 9.79086 14.2091 8 12 8C9.79086 8 8 9.79086 8 12C8 14.2091 9.79086 16 12 16Z" fill="#8186B3"/>
</svg>
