<svg width="24" height="24" viewBox="0 0 24 24" fill="none" xmlns="http://www.w3.org/2000/svg">
<path fill-rule="evenodd" clip-rule="evenodd" d="M6.07688 4.66163C3.9384 6.39049 2.57129 9.03663 2.57129 12.0008C2.57129 17.2054 6.78586 21.4294 11.9904 21.4294C14.9588 21.4294 17.6062 20.0604 19.3361 17.9209L16.2899 14.8747C15.3965 16.5457 13.8121 17.658 11.9999 17.658C9.85015 17.658 8.02101 16.0928 7.28558 13.8866H15.3018L6.07688 4.66163ZM20.4431 16.1994C21.0738 14.9348 21.4284 13.509 21.4284 12.0008C21.4284 6.79627 17.2044 2.57227 11.9904 2.57227C10.4842 2.57227 9.0609 2.92605 7.79867 3.55499L13.8856 9.6419C13.8865 8.86016 14.5179 8.22941 15.2999 8.22941C16.0824 8.22941 16.7142 8.86113 16.7142 9.6437C16.7142 10.4257 16.0834 11.057 15.3017 11.058L20.4431 16.1994ZM10.1141 9.6437C10.1141 8.86113 9.48243 8.22941 8.69986 8.22941C7.91729 8.22941 7.28558 8.86113 7.28558 9.6437C7.28558 10.4263 7.91729 11.058 8.69986 11.058C9.48243 11.058 10.1141 10.4263 10.1141 9.6437Z" fill="white"/>
<path fill-rule="evenodd" clip-rule="evenodd" d="M2.29289 2.29289C2.68342 1.90237 3.31658 1.90237 3.70711 2.29289L21.7071 20.2929C22.0976 20.6834 22.0976 21.3166 21.7071 21.7071C21.3166 22.0976 20.6834 22.0976 20.2929 21.7071L2.29289 3.70711C1.90237 3.31658 1.90237 2.68342 2.29289 2.29289Z" fill="#FF0000"/>
</svg>
