<svg width="162" height="169" viewBox="0 0 162 169" fill="none" xmlns="http://www.w3.org/2000/svg">
<path opacity="0.3" d="M83.2202 134.889C42.1467 134.629 6.56791 141.01 1.19244 149.383C-4.68491 158.538 27.6623 166.776 67.4643 168.095C116.971 169.736 164.99 160.243 160.678 149.944C157.429 142.184 124.973 135.153 83.2202 134.889Z" fill="#BEB9E6"/>
<mask id="mask0_9225_84067" style="mask-type:luminance" maskUnits="userSpaceOnUse" x="20" y="0" width="66" height="110">
<path d="M71.3441 109.056L85.9676 98.4792C85.9676 98.4792 83.2948 88.9865 75.8825 86.2844C60.7588 80.7715 66.6428 67.9098 68.3013 62.1545C70.803 53.4745 69.2217 44.735 58.7038 48.0394C48.1858 51.3439 47.2025 32.05 53.2626 18.6146C59.193 5.46693 39.2437 -12.6609 23.7953 14.6167C14.5698 30.9071 27.3068 43.9681 32.1704 52.0931C37.0341 60.2182 26.123 69.0731 36.7674 75.597C45.8598 81.1696 56.381 82.419 55.528 91.3883C54.6749 100.357 58.6232 106.866 71.3435 109.056L71.3441 109.056Z" fill="white"/>
</mask>
<g mask="url(#mask0_9225_84067)">
<path d="M71.3441 109.056L85.9676 98.4792C85.9676 98.4792 83.2948 88.9866 75.8825 86.2845C60.7588 80.7715 66.6428 67.9099 68.3013 62.1545C70.803 53.4746 69.1273 45.8095 59.4613 47.0418C48.5248 48.4365 47.2025 32.05 53.2626 18.6147C59.193 5.46699 39.2437 -12.6609 23.7953 14.6168C14.5698 30.9071 27.3068 43.9682 32.1704 52.0932C37.0341 60.2182 26.123 69.0732 36.7674 75.5971C45.8598 81.1696 56.381 82.4191 55.528 91.3883C54.6749 100.358 58.6232 106.867 71.3435 109.056L71.3441 109.056Z" fill="url(#paint0_linear_9225_84067)"/>
<g style="mix-blend-mode:soft-light" opacity="0.5">
<path d="M78.6551 105.836L78.9185 105.56C78.7479 105.397 61.7364 89.0018 49.773 67.6634C38.7516 48.0051 29.8839 20.0069 50.2291 -1.74007L49.9508 -2.00012C40.8944 7.6808 36.7733 19.383 37.7025 32.7814C38.4451 43.4848 42.3956 55.2854 49.4445 67.8566C61.4366 89.2426 78.4845 105.672 78.6551 105.836Z" fill="#BEB8F2"/>
<path d="M38.3324 38.3633L38.6112 38.1033C29.9672 28.8249 23.3765 11.5318 23.3108 11.3579L22.9541 11.4926C23.0198 11.6671 29.6375 29.0308 38.3324 38.3633Z" fill="#BEB8F2"/>
<path d="M37.9577 29.4188C43.6672 15.4275 55.6234 11.5118 55.7438 11.4743L55.6295 11.111C55.5075 11.1491 43.3845 15.1122 37.6055 29.2747L37.9583 29.4188H37.9577Z" fill="#BEB8F2"/>
<path d="M58.354 81.1876C51.2785 64.1359 68.4932 46.2487 68.6754 46.0886L68.4435 45.7872C68.2497 45.9274 50.8645 64.1309 58.0023 81.3339L58.354 81.1882V81.1876Z" fill="#BEB8F2"/>
<path d="M53.7974 75.0888L54.0542 74.8072C45.3516 66.8677 30.563 67.7687 30.415 67.7792L30.4404 68.1591C30.5873 68.1491 45.2163 67.2597 53.7974 75.0888Z" fill="#BEB8F2"/>
<path d="M76.2976 102.921C72.6453 96.9341 77.4897 86.5983 77.5388 86.4951L77.1948 86.3317C76.9894 86.7623 72.2125 96.9567 75.9724 103.12L76.2976 102.922V102.921Z" fill="#BEB8F2"/>
<path d="M72.2176 99.093L72.4843 98.8208C68.525 94.9388 58.2616 94.8466 54.8892 94.8168C54.4127 94.8124 54.0014 94.8085 53.928 94.7936L53.8457 95.1657C53.9484 95.1883 54.2223 95.1917 54.8859 95.1977C58.2202 95.2275 68.3682 95.3186 72.2176 99.093Z" fill="#BEB8F2"/>
</g>
</g>
<path d="M70.4081 121.277C74.2431 119.876 77.6122 121.956 79.8146 123.844C79.7649 124.233 79.835 124.469 79.872 124.872C80.2022 128.504 79.5695 130.123 79.3293 133.755C79.2779 134.537 78.4288 136.784 78.0224 137.681L77.2389 139.34C77.2389 139.34 68.0836 141.461 66.3097 136.415C64.5357 131.37 55.5852 132.281 50.784 132.179C47.8356 132.117 46.5072 131.143 45.4278 130.947C33.9989 128.863 30.165 131.917 26.8649 128.956C23.2215 125.687 26.8511 121.03 23.0757 117.265C18.8128 113.014 11.3227 116.098 8.18715 111.174C7.64939 110.329 7.12045 109.447 6.90292 108.13C6.36625 104.878 8.50738 102.551 6.19841 99.9958C1.55781 94.8594 0.669449 87.2291 6.67102 83.3725C12.5942 79.5667 22.5059 86.0044 29.2738 100.115C35.2312 109.601 37.347 109.964 42.6357 109.827C46.3399 109.732 56.3207 107.019 59.3976 112.711C62.4746 118.403 66.0242 122.88 70.4081 121.277Z" fill="url(#paint1_linear_9225_84067)"/>
<mask id="mask1_9225_84067" style="mask-type:luminance" maskUnits="userSpaceOnUse" x="2" y="82" width="81" height="58">
<path d="M82.4493 126.457L77.5956 139.084C77.5956 139.084 68.0836 141.46 66.3097 136.414C64.5357 131.369 55.5852 132.28 50.784 132.178C37.7566 131.902 40.9258 117.121 24.271 115.338C19.8414 114.864 11.1797 115.546 8.18715 111.172C4.77779 106.19 9.16772 103.281 6.19841 99.9953C1.55781 94.8589 0.669449 87.2286 6.67102 83.372C12.5942 79.5662 22.5059 86.004 29.2738 100.115C35.2312 109.601 37.347 109.963 42.6357 109.827C46.3405 109.731 56.3207 107.019 59.3976 112.711C62.4746 118.403 66.0242 122.879 70.4081 121.277C77.0788 118.839 82.4499 126.457 82.4499 126.457L82.4493 126.457Z" fill="white"/>
</mask>
<g mask="url(#mask1_9225_84067)">
<g style="mix-blend-mode:soft-light" opacity="0.5">
<path d="M79.7164 131.891L79.6506 132.152C78.2124 131.801 76.7664 131.428 75.3535 131.043C64.8913 128.195 55.1005 124.396 46.2527 119.754C38.756 115.82 31.8302 111.226 25.6674 106.099C20.7115 101.976 16.2195 97.4887 12.3171 92.7609C9.57357 89.4371 7.14754 86.0294 5.10634 82.6333C4.75077 82.0414 4.41839 81.4136 4.09761 80.8063C3.66972 79.9974 3.22802 79.1604 2.72559 78.4029L2.93208 78.2428C3.44114 79.0108 3.8867 79.8528 4.31736 80.6677C4.63648 81.2717 4.9672 81.8967 5.31891 82.4825C7.35348 85.8682 9.77233 89.2654 12.5081 92.5798C16.4011 97.296 20.8821 101.773 25.8264 105.886C31.9765 111.002 38.8885 115.587 46.3709 119.513C55.2038 124.148 64.9791 127.94 75.4253 130.784C76.8365 131.169 78.2803 131.541 79.7169 131.891H79.7164Z" fill="#FCFDFE"/>
<path d="M33.5782 111.78L33.4407 112.009C24.4632 106.153 6.11011 108.514 5.9257 108.539L5.90527 108.274C6.09023 108.249 24.5289 105.877 33.5782 111.78Z" fill="#FCFDFE"/>
<path d="M60.1381 125.753L60.026 125.996C53.4558 122.798 49.984 108.4 49.9492 108.255L50.1922 108.179C50.2264 108.323 53.6705 122.605 60.1381 125.753V125.753Z" fill="#FCFDFE"/>
<path d="M64.0275 127.217L63.9569 127.476C59.3555 126.246 52.3546 127.218 44.2439 130.214C43.9719 130.315 43.8206 130.361 43.79 130.353L43.8579 130.094L43.8237 130.223L43.8099 130.092C43.8381 130.085 43.9921 130.029 44.1704 129.962C52.3275 126.949 59.3792 125.974 64.027 127.217H64.0275Z" fill="#FCFDFE"/>
<path d="M77.1016 131.212L76.9652 131.441C72.5372 128.58 71.7455 120.32 71.7383 120.237L71.9873 120.2C71.9945 120.281 72.7752 128.416 77.1016 131.212V131.212Z" fill="#FCFDFE"/>
<path d="M79.6811 132.295C75.4337 132.858 71.1459 134.733 66.5726 138.027L66.4385 137.808C71.047 134.489 75.3718 132.599 79.6607 132.03L79.6806 132.295H79.6811Z" fill="#FCFDFE"/>
<path d="M14.8501 95.3222L14.701 95.543C9.89259 91.9824 4.0158 89.4664 2.08502 88.6399C1.61737 88.4394 1.45339 88.3688 1.40039 88.3329L1.54063 88.106C1.58149 88.1325 1.84871 88.2468 2.18661 88.392C4.12401 89.2212 10.019 91.7455 14.8496 95.3222H14.8501Z" fill="#FCFDFE"/>
<path d="M21.8123 102.382L21.6108 102.549C18.2837 97.8995 20.0024 86.0239 20.0775 85.5204L20.3249 85.5507C20.3066 85.6728 18.5481 97.8189 21.8128 102.382H21.8123Z" fill="#FCFDFE"/>
</g>
</g>
<path d="M93.4929 110.14C89.6578 108.738 86.2888 110.819 84.0864 112.706C84.1361 113.095 84.0659 113.332 84.0289 113.734C83.6988 117.366 84.3315 118.986 84.5717 122.617C84.623 123.399 85.4722 125.647 85.8786 126.544L86.662 128.203C86.662 128.203 95.8173 130.323 97.5913 125.278C99.3653 120.233 108.316 121.144 113.117 121.042C116.065 120.979 117.394 120.006 118.473 119.809C129.902 117.726 133.736 120.779 137.036 117.818C140.679 114.55 137.05 109.893 140.825 106.128C145.088 101.876 152.578 104.96 155.714 100.036C156.252 99.1919 156.781 98.3096 156.998 96.9923C157.535 93.7408 155.394 91.4136 157.703 88.8584C162.343 83.722 163.232 76.0917 157.23 72.2351C151.307 68.4293 141.395 74.8671 134.627 88.9777C128.67 98.4637 126.554 98.8264 121.265 98.69C117.561 98.5945 107.58 95.882 104.503 101.574C101.426 107.266 97.8767 111.743 93.4929 110.14Z" fill="url(#paint2_linear_9225_84067)"/>
<mask id="mask2_9225_84067" style="mask-type:luminance" maskUnits="userSpaceOnUse" x="81" y="71" width="81" height="58">
<path d="M81.4527 115.32L86.3064 127.947C86.3064 127.947 95.8184 130.323 97.5924 125.277C99.3663 120.231 108.317 121.143 113.118 121.041C126.145 120.765 122.976 105.984 139.631 104.201C144.061 103.727 152.722 104.409 155.715 100.035C159.124 95.0524 154.734 92.1443 157.704 88.8581C162.344 83.7217 163.233 76.0914 157.231 72.2348C151.308 68.429 141.396 74.8668 134.628 88.9774C128.671 98.4634 126.555 98.8261 121.266 98.6897C117.562 98.5942 107.581 95.8816 104.504 101.573C101.427 107.265 97.8778 111.742 93.4939 110.14C86.8232 107.701 81.4521 115.32 81.4521 115.32L81.4527 115.32Z" fill="white"/>
</mask>
<g mask="url(#mask2_9225_84067)">
<g style="mix-blend-mode:soft-light" opacity="0.5">
<path d="M84.1855 120.754L84.2513 121.014C85.6895 120.664 87.1355 120.29 88.5484 119.906C99.0106 117.058 108.801 113.259 117.649 108.616C125.146 104.682 132.072 100.088 138.235 94.9618C143.191 90.8391 147.683 86.3514 151.585 81.6236C154.329 78.2998 156.755 74.8921 158.796 71.496C159.152 70.9041 159.484 70.2764 159.805 69.669C160.233 68.8602 160.674 68.0232 161.177 67.2656L160.97 67.1055C160.461 67.8735 160.016 68.7155 159.585 69.5305C159.266 70.1345 158.935 70.7595 158.584 71.3453C156.549 74.7309 154.13 78.1281 151.394 81.4425C147.501 86.1587 143.02 90.6359 138.076 94.7487C131.926 99.8646 125.014 104.449 117.532 108.376C108.699 113.011 98.9234 116.803 88.4772 119.647C87.066 120.031 85.6222 120.404 84.1855 120.754Z" fill="#FCFDFE"/>
<path d="M130.323 100.643L130.461 100.872C139.438 95.0158 157.791 97.3773 157.976 97.4016L157.996 97.1371C157.811 97.1123 139.373 94.7398 130.323 100.643Z" fill="#FCFDFE"/>
<path d="M103.763 114.616L103.875 114.859C110.445 111.661 113.917 97.2625 113.952 97.1178L113.709 97.0422C113.674 97.1863 110.23 111.468 103.763 114.616V114.616Z" fill="#FCFDFE"/>
<path d="M99.874 116.08L99.9447 116.339C104.546 115.109 111.547 116.081 119.658 119.077C119.93 119.177 120.081 119.224 120.112 119.216L120.044 118.956L120.078 119.086L120.092 118.955C120.064 118.948 119.909 118.891 119.731 118.825C111.574 115.812 104.522 114.837 99.8746 116.08H99.874Z" fill="#FCFDFE"/>
<path d="M86.8008 120.074L86.9372 120.304C91.3652 117.442 92.1569 109.182 92.1641 109.099L91.9151 109.062C91.9079 109.144 91.1272 117.279 86.8008 120.074V120.074Z" fill="#FCFDFE"/>
<path d="M84.2197 121.157C88.4672 121.721 92.755 123.596 97.3282 126.889L97.4624 126.671C92.8538 123.352 88.529 121.462 84.2402 120.893L84.2203 121.157H84.2197Z" fill="#FCFDFE"/>
<path d="M149.052 84.1849L149.201 84.4057C154.009 80.8451 159.886 78.3291 161.817 77.5025C162.284 77.3021 162.448 77.2314 162.501 77.1961L162.361 76.9692C162.32 76.9957 162.053 77.11 161.715 77.2552C159.778 78.0845 153.883 80.6088 149.052 84.1854L149.052 84.1849Z" fill="#FCFDFE"/>
<path d="M142.089 91.2449L142.291 91.4122C145.618 86.7623 143.899 74.8867 143.824 74.3831L143.577 74.4135C143.595 74.5355 145.354 86.6817 142.089 91.2449H142.089Z" fill="#FCFDFE"/>
</g>
</g>
<path d="M88.6613 112.638C88.2953 113.49 84.0312 111.136 77.4505 112.029C75.8063 112.253 66.7548 112.848 64.6396 119.331C64.2288 120.59 63.818 121.848 63.4078 123.107C60.2369 123.381 57.1975 123.05 57.2124 118.877C57.2356 112.397 47.2367 109.517 43.21 110.199C38.226 111.042 26.5928 112.76 26.4769 102.748C26.3808 94.4129 27.9565 88.943 18.6958 85.8395C9.43503 82.736 5.11908 75.7213 8.26784 66.8763C11.5817 57.5681 1.85383 46.5472 8.08674 39.8792C18.9476 28.2614 36.1738 46.1568 37.4553 64.2316C38.7367 82.3065 47.0716 74.4078 54.9045 76.0625C55.6229 76.2574 56.7216 76.6147 57.9385 77.2827C65.4297 81.396 64.406 90.156 69.2465 98.0238C75.8482 108.753 89.2781 111.202 88.6613 112.638Z" fill="url(#paint3_linear_9225_84067)"/>
<mask id="mask3_9225_84067" style="mask-type:luminance" maskUnits="userSpaceOnUse" x="5" y="36" width="67" height="88">
<path d="M71.9596 102.431L65.8697 123.02C62.7497 123.442 57.1959 123.538 57.2124 118.877C57.2356 112.397 47.2367 109.517 43.21 110.198C38.226 111.042 26.5928 112.76 26.4769 102.748C26.3808 94.4126 27.9565 88.9428 18.6958 85.8393C9.43503 82.7358 5.11908 75.7211 8.26784 66.8761C11.5817 57.5684 1.85383 46.5469 8.08674 39.8789C18.9476 28.2612 36.1738 46.1566 37.4553 64.2314C38.7367 82.3062 47.0716 74.4076 54.9046 76.0628C65.5986 78.3221 59.0394 92.695 62.033 97.7784C64.3801 101.764 69.0163 102.405 71.9596 102.431V102.431Z" fill="white"/>
</mask>
<g mask="url(#mask3_9225_84067)">
<g style="mix-blend-mode:soft-light" opacity="0.5">
<path d="M66.0198 111.262L65.8089 111.676C37.3094 96.8363 16.4447 67.353 11.3574 34.7314L11.7953 34.6392C16.861 67.1233 37.639 96.4835 66.0203 111.262H66.0198Z" fill="#FCFDFE"/>
<path d="M51.2029 101.755L51.0732 102.201C38.895 98.8372 26.2022 107.202 26.0753 107.287L25.8467 106.902C25.9748 106.815 38.8332 98.3376 51.2035 101.755H51.2029Z" fill="#FCFDFE"/>
<path d="M60.8553 108.379L60.5395 108.717C51.4731 99.5372 56.821 75.4719 56.8762 75.2295L57.3074 75.3184C57.2527 75.558 51.9612 99.3744 60.8553 108.379Z" fill="#FCFDFE"/>
<path d="M29.4439 78.6036L29.1557 78.9669C21.3669 72.3773 5.73957 74.7382 5.58277 74.763L5.53418 74.3064C5.69319 74.2816 21.5104 71.892 29.4433 78.6036H29.4439Z" fill="#FCFDFE"/>
<path d="M19.2932 60.4057L18.8636 60.5399C15.9385 48.9055 23.687 34.2787 23.7659 34.1318L24.1507 34.3444C24.0729 34.4891 16.4127 48.953 19.2926 60.4057H19.2932Z" fill="#FCFDFE"/>
</g>
</g>
<path d="M82.1903 107.691C82.6475 108.498 86.6277 105.692 93.267 105.859C94.9256 105.901 103.988 105.501 106.801 111.714C107.347 112.92 107.893 114.126 108.439 115.332C111.621 115.257 114.605 114.595 114.134 110.449C113.401 104.01 123.025 100.053 127.102 100.289C132.148 100.582 143.9 101.016 142.918 91.051C142.101 82.7554 139.936 77.4903 148.801 73.3919C157.665 69.293 161.187 61.8476 157.089 53.4007C152.776 44.5115 161.238 32.4912 154.312 26.546C142.245 16.1876 127.082 35.8619 127.787 53.9682C128.493 72.0745 119.343 65.1366 111.739 67.6394C111.046 67.9115 109.993 68.3875 108.857 69.1847C101.861 74.0937 103.838 82.6891 99.888 91.0394C94.5015 102.427 81.4201 106.333 82.1908 107.691H82.1903Z" fill="url(#paint4_linear_9225_84067)"/>
<mask id="mask4_9225_84067" style="mask-type:luminance" maskUnits="userSpaceOnUse" x="97" y="23" width="62" height="93">
<path d="M97.6738 95.7167L105.982 115.515C109.129 115.592 114.661 115.08 114.134 110.449C113.401 104.01 123.025 100.053 127.102 100.289C132.148 100.582 143.9 101.015 142.919 91.0507C142.101 82.7551 139.936 77.4906 148.801 73.3916C157.666 69.2927 161.188 61.8473 157.089 53.4004C152.776 44.5112 161.239 32.4909 154.313 26.5457C142.245 16.1868 127.082 35.8616 127.788 53.968C128.493 72.0748 119.344 65.1363 111.739 67.6391C101.357 71.0556 109.451 84.6235 107.032 90.0044C105.135 94.2227 100.597 95.3683 97.6744 95.7167H97.6738Z" fill="white"/>
</mask>
<g mask="url(#mask4_9225_84067)">
<g style="mix-blend-mode:soft-light" opacity="0.5">
<path d="M104.546 103.843L104.801 104.233C131.504 86.3611 149.014 54.7697 150.498 21.787L150.053 21.7434C148.575 54.587 131.138 86.0458 104.546 103.843Z" fill="#FCFDFE"/>
<path d="M118.232 92.7708L118.411 93.2003C130.147 88.5227 143.68 95.4469 143.816 95.5176L144.001 95.1096C143.864 95.0378 130.154 88.0198 118.233 92.7708H118.232Z" fill="#FCFDFE"/>
<path d="M109.365 100.413L109.716 100.714C117.722 90.5967 109.771 67.2612 109.69 67.0271L109.271 67.1624C109.351 67.3943 117.219 90.4879 109.365 100.413Z" fill="#FCFDFE"/>
<path d="M137.326 67.3765L137.652 67.7061C144.673 60.3032 160.464 60.9387 160.622 60.9459L160.621 60.4871C160.46 60.4799 144.476 59.8367 137.326 67.377V67.3765Z" fill="#FCFDFE"/>
<path d="M145.423 48.176L145.865 48.2626C147.498 36.3782 138.194 22.6872 138.1 22.5503L137.74 22.8037C137.834 22.939 147.031 36.477 145.423 48.176Z" fill="#FCFDFE"/>
</g>
</g>
<path d="M136.144 19.2867L35.8251 13.4834C33.5144 13.3707 31.4346 15.8917 31.4346 18.0091V147.188C31.4346 150.124 34.4337 150.715 36.7443 150.479L136.144 140.327C137.959 140.142 139.425 138.481 139.425 136.616V22.8236C139.425 20.9586 137.959 19.3756 136.144 19.2867Z" fill="url(#paint5_linear_9225_84067)"/>
<path d="M137.794 18.2602L37.2772 13.3154C34.9666 13.2017 33.085 14.8387 33.085 16.9727V147.16C33.085 149.294 34.9666 150.83 37.2772 150.592L137.794 140.247C139.61 140.06 141.075 138.386 141.075 136.506V21.8247C141.075 19.9453 139.609 18.3497 137.794 18.2602Z" fill="#D8DEE8"/>
<path style="mix-blend-mode:multiply" opacity="0.3" d="M37.2772 148.827C36.0311 148.953 35.0146 148.12 35.0146 146.97V17.0594C35.0146 15.9099 36.0311 15.0221 37.2772 15.0812L137.794 19.8294C138.776 19.8758 139.572 20.741 139.572 21.7574V136.654C139.572 137.671 138.776 138.578 137.794 138.677L37.2772 148.826V148.827Z" fill="url(#paint6_linear_9225_84067)"/>
<path d="M131.315 135.596L45.3428 143.88V24.026L131.315 27.2636V135.596Z" fill="white"/>
<g style="mix-blend-mode:multiply" opacity="0.3">
<path d="M96.9285 27.8506L62.5693 28.2807L63.3401 20.5322C63.3981 19.5251 64.1263 18.6991 65.0843 18.5517L70.9031 17.6573C71.5883 17.5518 72.1779 17.0991 72.4777 16.4492L73.1088 15.0789L88.3286 16.0186L96.9285 27.8511V27.8506Z" fill="#97A6B7"/>
</g>
<path d="M115.277 22.8236C115.114 21.9468 114.412 21.3318 113.526 21.292L108.036 21.0458C105.544 20.9342 103.717 18.9096 103.809 16.3456L104.021 10.4036C104.06 9.30489 103.276 8.42425 102.197 8.35965L100.393 8.25199C99.0178 8.16972 98.1018 6.95726 98.2945 5.55542C98.6319 3.1051 96.9529 0.990474 94.5197 0.824837C92.0671 0.657544 89.7786 2.53145 89.4136 5.01269C89.3595 5.38151 89.2347 5.74591 89.0321 6.07111C88.4656 6.9799 87.4724 7.48068 86.5001 7.4227L84.6394 7.31173C83.512 7.24437 82.4409 8.03556 82.1549 9.14919L80.6078 15.1806C79.9387 17.7894 77.4149 19.6743 74.7349 19.5539L68.7123 19.284C67.7257 19.2398 66.7578 19.8145 66.304 20.7162L62.6749 27.9175C62.3778 28.5072 62.7439 29.1443 63.3915 29.1658L115.62 30.9006C116.191 30.9194 116.676 30.3496 116.571 29.7831L115.277 22.8242L115.277 22.8236ZM93.7793 5.96731C93.0598 5.92259 92.5607 5.29703 92.6651 4.57044C92.77 3.84384 93.4381 3.29227 94.1575 3.3392C94.8752 3.38613 95.3716 4.01114 95.2672 4.73552C95.1629 5.45991 94.497 6.01148 93.7787 5.96675L93.7793 5.96731Z" fill="url(#paint7_linear_9225_84067)"/>
<path d="M115.586 22.9847C115.423 22.108 114.721 21.4929 113.836 21.4532L108.346 21.2069C105.854 21.0954 104.027 19.0707 104.119 16.5067L104.331 10.5647C104.37 9.46602 103.585 8.58539 102.507 8.52079L100.703 8.41312C99.3274 8.33086 98.4114 7.1184 98.6041 5.71656C98.9414 3.26624 97.2624 1.15161 94.8292 0.98597C92.3767 0.818677 90.0882 2.69258 89.7232 5.17382C89.6691 5.54264 89.5443 5.90704 89.3417 6.23224C88.7752 7.14103 87.7819 7.64181 86.8096 7.58328L84.949 7.47231C83.8216 7.40495 82.7499 8.19614 82.4644 9.30977L80.9174 15.3412C80.2482 17.9499 77.7245 19.8349 75.0445 19.7145L69.0219 19.4445C68.0353 19.4004 67.0674 19.9751 66.6135 20.8767L62.9844 28.0781C62.6874 28.6677 63.0535 29.3049 63.7011 29.3264L115.929 31.0612C116.501 31.08 116.986 30.5102 116.88 29.9437L115.587 22.9847H115.586ZM94.0888 6.12844C93.3694 6.08372 92.8703 5.45816 92.9747 4.73157C93.0796 4.00498 93.7482 3.45341 94.467 3.50034C95.1848 3.54727 95.6812 4.17227 95.5768 4.89665C95.4725 5.62104 94.8066 6.17261 94.0883 6.12789L94.0888 6.12844Z" fill="#97A6B7"/>
<g style="mix-blend-mode:soft-light" opacity="0.5">
<path d="M106.648 26.2937C101.989 23.4177 98.4142 25.4567 95.5111 22.213C92.4026 18.7407 94.4991 14.1691 91.2829 12.0119C89.2241 10.6311 87.3872 11.8491 84.9926 11.4753C84.1158 11.3384 83.18 10.99 82.2077 10.3103L80.9174 15.3407C80.2482 17.9495 77.7245 19.8344 75.0445 19.7141L69.0219 19.4441C68.0358 19.3999 67.0674 19.9747 66.6135 20.8763L62.9844 28.0776C62.6874 28.6673 63.0535 29.3044 63.7011 29.326L111.166 30.9023C109.971 29.0035 108.485 27.4272 106.649 26.2937H106.648Z" fill="white"/>
</g>
<path d="M122.874 44.4033L55.7666 44.1603V40.8978L122.874 41.3357V44.4033Z" fill="#D8DEE8"/>
<path d="M122.874 64.1218L55.7666 65.1327V61.8702L122.874 61.0547V64.1218Z" fill="#D8DEE8"/>
<path d="M122.874 72.667L55.7666 74.2206V70.9581L122.874 69.5994V72.667Z" fill="#D8DEE8"/>
<path d="M122.874 81.2116L55.7666 83.3086V80.0461L122.874 78.144V81.2116Z" fill="#D8DEE8"/>
<path d="M122.874 89.5371L55.7666 92.1636V89.1341L122.874 86.6887V89.5371Z" fill="#D8DEE8"/>
<path d="M122.874 98.0817L55.7666 101.251V98.2225L122.874 95.2339V98.0817Z" fill="#D8DEE8"/>
<path d="M85.0032 122.129L55.7666 124.088V123.156L85.0032 121.221V122.129Z" fill="#D8DEE8"/>
<path d="M122.873 106.846L106.587 107.745V105.298L122.873 104.436V106.846Z" fill="#D8DEE8"/>
<path d="M122.873 113.199L106.587 114.196V111.749L122.873 110.789V113.199Z" fill="#D8DEE8"/>
<path d="M122.873 119.553L106.587 120.647V117.978L122.873 116.924V119.553Z" fill="#D8DEE8"/>
<path d="M61.7405 125.494C61.7405 125.494 62.0613 124.938 62.6388 123.98C62.9265 123.501 63.2826 122.924 63.6962 122.266C64.1097 121.609 64.5818 120.871 65.1118 120.077C65.6435 119.285 66.2254 118.432 66.8974 117.567C67.2364 117.137 67.5908 116.7 68.0116 116.283C68.1181 116.179 68.2285 116.077 68.3517 115.979C68.4753 115.882 68.6062 115.785 68.7812 115.707C68.8695 115.67 68.9734 115.635 69.1042 115.634C69.171 115.636 69.2422 115.646 69.314 115.676C69.3836 115.706 69.4509 115.752 69.5001 115.806C69.6961 116.028 69.6994 116.266 69.7281 116.384C69.8341 116.988 69.8821 117.608 69.8639 118.247C69.8545 118.566 69.828 118.888 69.7778 119.215C69.7259 119.541 69.6547 119.87 69.5249 120.207C69.4576 120.375 69.3786 120.547 69.2455 120.722C69.1771 120.808 69.0948 120.897 68.9745 120.97C68.8585 121.044 68.6945 121.086 68.5493 121.064C68.4063 121.044 68.2871 120.973 68.2109 120.911L68.1888 120.894L68.1579 120.868C68.1363 120.851 68.1192 120.834 68.101 120.817C68.0651 120.782 68.0292 120.744 67.9955 120.699C67.9282 120.612 67.8658 120.501 67.8321 120.367C67.7968 120.235 67.7968 120.085 67.8227 119.954C67.8779 119.689 68.0027 119.506 68.1214 119.353C68.2434 119.202 68.3726 119.08 68.504 118.97C68.7669 118.75 69.0391 118.577 69.3157 118.42C69.8689 118.112 70.4387 117.88 71.0184 117.697C71.5981 117.519 72.1867 117.385 72.799 117.365C73.1054 117.361 73.4196 117.375 73.7492 117.507C73.9115 117.575 74.0849 117.682 74.218 117.868C74.234 117.891 74.25 117.915 74.2643 117.939C74.2793 117.965 74.2931 117.992 74.2997 118.004L74.3494 118.101L74.4493 118.3C74.5791 118.562 74.7011 118.816 74.8325 119.046C74.9644 119.273 75.1063 119.477 75.2676 119.612C75.4271 119.751 75.6043 119.818 75.8053 119.831C76.0074 119.84 76.2299 119.792 76.4513 119.712C76.8963 119.546 77.3286 119.275 77.7383 118.988C78.1607 118.692 78.5726 118.402 78.9806 118.13C79.1854 117.994 79.3886 117.862 79.6001 117.74C79.811 117.619 80.0302 117.504 80.2742 117.426C80.5182 117.346 80.7844 117.326 81.0096 117.348C81.236 117.368 81.432 117.408 81.6208 117.443C81.7141 117.46 81.8063 117.478 81.8969 117.494C81.9852 117.509 82.0863 117.53 82.1371 117.532C82.2668 117.542 82.3817 117.517 82.4689 117.462C82.5567 117.409 82.6285 117.323 82.6853 117.215C82.7411 117.106 82.7748 116.977 82.7902 116.847C82.8217 116.587 82.7841 116.331 82.708 116.127C82.6356 115.92 82.5219 115.765 82.4054 115.655C82.2878 115.544 82.1625 115.482 82.0559 115.444C81.9482 115.406 81.8577 115.392 81.7964 115.385C81.7351 115.378 81.702 115.377 81.702 115.377C81.6269 115.374 81.5711 115.305 81.5772 115.221C81.5827 115.15 81.633 115.09 81.6948 115.077C81.6948 115.077 81.7329 115.069 81.8074 115.059C81.882 115.049 81.9957 115.037 82.1442 115.058C82.2922 115.076 82.4766 115.129 82.6665 115.254C82.8565 115.376 83.0414 115.581 83.1778 115.854C83.3103 116.129 83.3987 116.473 83.3782 116.871C83.365 117.069 83.3252 117.283 83.2319 117.498C83.1403 117.711 82.9829 117.929 82.7637 118.069C82.5462 118.212 82.2944 118.263 82.0625 118.251C81.9311 118.244 81.8527 118.225 81.7572 118.209C81.665 118.192 81.5711 118.176 81.4762 118.158C81.2884 118.124 81.0996 118.087 80.9235 118.072C80.7474 118.058 80.5922 118.071 80.4227 118.126C80.0821 118.239 79.6928 118.492 79.2997 118.752C78.9044 119.018 78.4964 119.306 78.0756 119.605C77.6411 119.909 77.1746 120.211 76.6296 120.417C76.3563 120.517 76.056 120.591 75.7346 120.578C75.574 120.57 75.4105 120.535 75.2554 120.475C75.0991 120.415 74.9573 120.322 74.8319 120.216C74.5796 120.003 74.4024 119.737 74.2494 119.477C74.0982 119.214 73.9706 118.949 73.8425 118.692L73.747 118.503L73.6968 118.406C73.6868 118.386 73.683 118.381 73.6802 118.375C73.6769 118.368 73.6719 118.363 73.668 118.356C73.6338 118.308 73.5665 118.256 73.4737 118.219C73.2876 118.141 73.0331 118.119 72.7775 118.127C72.2596 118.144 71.7113 118.266 71.1758 118.434C70.6391 118.604 70.1063 118.827 69.6083 119.103C69.3598 119.242 69.1197 119.396 68.9104 119.569C68.8066 119.655 68.7111 119.748 68.6366 119.84C68.562 119.93 68.5134 120.024 68.5057 120.073C68.5013 120.097 68.5013 120.109 68.5057 120.125C68.5096 120.141 68.5195 120.164 68.5416 120.194C68.5521 120.208 68.5659 120.224 68.5819 120.239L68.6051 120.261L68.6156 120.27L68.636 120.286C68.6719 120.315 68.6807 120.313 68.6791 120.314C68.6752 120.311 68.6597 120.319 68.6708 120.314C68.6796 120.31 68.7061 120.286 68.7332 120.252C68.7895 120.181 68.8486 120.067 68.8966 119.946C68.9938 119.699 69.06 119.415 69.1064 119.131C69.1522 118.845 69.1776 118.554 69.1876 118.265C69.2075 117.687 69.1649 117.11 69.0722 116.565L69.0534 116.459L69.0484 116.432L69.0451 116.417C69.0429 116.406 69.0407 116.395 69.0379 116.387C69.0286 116.352 69.0159 116.334 69.0236 116.345C69.0308 116.355 69.0645 116.367 69.0617 116.363C69.0589 116.363 69.0302 116.366 68.9927 116.383C68.9159 116.416 68.8165 116.482 68.7221 116.557C68.6261 116.633 68.5305 116.72 68.4361 116.81C68.0596 117.179 67.7123 117.599 67.3838 118.013C66.7268 118.849 66.1371 119.681 65.6037 120.458C64.5365 122.016 63.6923 123.359 63.101 124.298C62.5096 125.24 62.1822 125.784 62.1822 125.784C62.1 125.921 61.9349 125.966 61.814 125.885C61.6947 125.805 61.6627 125.632 61.7411 125.496V125.495L61.7405 125.494Z" fill="#97A6B7"/>
<path d="M90.2165 55.8702C90.2165 55.8702 89.6396 54.7162 90.2165 53.2741C90.7935 51.8319 90.7935 49.5241 91.0817 48.6583C91.1513 48.4496 91.1369 48.3249 91.0712 48.2757C90.9354 48.1747 90.3126 49.004 89.9278 49.8123C89.2459 51.2456 89.4347 52.3371 89.0626 52.4084C88.6463 52.4879 88.1798 51.1677 87.9087 51.2544C87.6989 51.3218 87.9087 52.1726 87.9087 52.9853C87.9087 53.5623 89.3508 56.4471 89.3508 56.4471L90.216 55.8702H90.2165Z" fill="url(#paint8_linear_9225_84067)"/>
<path d="M121.664 68.3444C121.733 66.9315 121.884 63.844 120.176 62.7674C117.921 61.3457 114.6 64.8047 110.881 65.7417C106.971 66.7267 100.661 65.4176 90.4322 54.2161C89.8128 54.8356 89.1927 55.4556 88.5732 56.0751C89.6295 59.7915 92.3409 67.1021 99.3556 72.4345C100.993 73.6796 110.942 81.242 117.202 77.2678C120.271 75.3194 121.524 71.1878 121.664 68.3444Z" fill="url(#paint9_linear_9225_84067)"/>
<path d="M123.488 147.401C123.776 147.635 123.829 148.22 123.863 148.602C123.879 148.773 123.886 148.858 123.868 148.918C123.729 149.358 122.876 149.404 121.538 149.541C119.424 149.757 118.794 149.923 118.629 149.609C118.474 149.314 118.849 148.831 118.891 148.778C119.118 148.492 119.397 148.387 119.937 148.21C120.934 147.882 121.608 147.702 121.812 147.647C123.086 147.307 123.299 147.247 123.488 147.4L123.488 147.401Z" fill="url(#paint10_linear_9225_84067)"/>
<path d="M122.23 145.47L122.019 147.879C122.079 147.995 122.795 148.344 123.364 148.045L123.907 145.677L122.231 145.47H122.23Z" fill="url(#paint11_linear_9225_84067)"/>
<path d="M105.007 146.336C105.352 146.718 105.431 147.419 105.131 147.765C104.836 148.105 104.392 147.85 103.133 147.888C101.785 147.928 101.433 148.246 100.518 147.994C100.148 147.891 99.4939 147.643 99.506 147.379C99.5149 147.193 99.8472 147.097 100.959 146.725C102.536 146.196 102.529 146.168 102.864 146.112C103.705 145.973 104.55 145.833 105.006 146.336H105.007Z" fill="url(#paint12_linear_9225_84067)"/>
<path d="M104.144 144.138L103.468 146.386C103.519 146.507 104.206 146.909 104.796 146.655L105.8 144.472L104.144 144.138Z" fill="url(#paint13_linear_9225_84067)"/>
<path d="M110.151 94.8811C110.054 102.44 109.538 110.938 108.301 120.171C107.078 129.297 105.364 137.542 103.494 144.792C104.357 145.024 105.22 145.257 106.082 145.489C108.271 143.448 111.031 140.236 112.363 135.696C113.191 132.879 112.914 131.431 113.439 127.965C114.274 122.447 115.965 119.557 117.714 115.107C119.284 111.109 121.142 105.241 122.137 97.3971C118.142 96.5585 114.146 95.7203 110.151 94.8817V94.8811Z" fill="url(#paint14_linear_9225_84067)"/>
<path style="mix-blend-mode:multiply" opacity="0.3" d="M110.151 94.8811C112.507 96.6772 115.435 99.5095 115.343 102.922C115.274 105.455 113.607 105.92 112.368 109.615C110.85 114.144 112.7 115.403 111.625 121.14C110.825 125.41 109.841 124.489 108.65 129.691C107.59 134.324 108.061 136.4 106.42 140.102C105.476 142.232 104.318 143.802 103.494 144.792C104.357 145.024 105.22 145.256 106.082 145.488C108.271 143.447 111.031 140.235 112.363 135.696C113.19 132.878 112.914 131.431 113.439 127.965C114.274 122.447 115.965 119.556 117.714 115.106C119.284 111.108 121.142 105.24 122.137 97.3966C118.142 96.5579 114.146 95.7198 110.151 94.8811Z" fill="url(#paint15_linear_9225_84067)"/>
<path d="M119.655 94.9153C120.183 104.528 120.617 114.32 120.945 124.285C121.192 131.763 121.372 139.146 121.493 146.433C122.374 146.542 123.255 146.65 124.136 146.759C124.988 145.174 126.119 142.75 126.894 139.644C127.835 135.871 127.617 133.631 128.03 129.721C128.493 125.335 129.166 124.38 130.357 118.848C132.775 107.62 133.985 102.006 131.288 98.5141C130.412 97.3806 127.668 94.5366 119.655 94.9153Z" fill="url(#paint16_linear_9225_84067)"/>
<path d="M115.979 68.547C114.99 67.906 115.891 66.0404 115.944 62.0336C116.009 57.1236 114.705 56.2087 115.752 54.2824C117.033 51.927 120.257 50.952 122.393 50.9062C122.864 50.8962 122.975 50.6389 126.921 51.6609C134.032 53.5028 135.812 51.5284 138.997 53.5006C142.073 55.406 140.726 57.4924 143.714 59.7269C148.556 63.3488 153.648 59.4331 157.109 62.4626C160.383 65.3282 160.458 72.6289 157.015 76.6135C153.111 81.1305 146.073 79.7733 141.355 78.8778C140.362 78.6895 135.349 77.6366 130.129 73.7839C127.241 71.6522 125.258 69.3763 123.997 67.699C123.701 67.366 123.239 66.9619 122.629 66.8973C121.897 66.8189 121.309 67.2672 121.025 67.4632C119.537 68.494 116.95 69.1781 115.978 68.5481L115.979 68.547Z" fill="url(#paint17_linear_9225_84067)"/>
<path d="M119.572 63.2412C119.572 63.2412 127.832 60.8323 131.47 64.9506C132.036 65.5916 132.61 66.5357 133.05 68.62C134.593 75.9323 130.485 78.5367 131.046 85.1715C131.11 85.9318 131.827 93.227 137.126 97.7113C139.645 99.8436 142.516 100.761 142.445 102.651C142.394 104.012 140.842 105.252 139.405 105.691C136.656 106.53 135.052 104.213 131.425 103.411C127.636 102.573 126.758 104.523 120.786 105.311C118.798 105.574 109.725 106.772 107.486 103.032C106.534 101.44 107.708 100.439 109.386 93.9116C109.556 93.2513 112.461 81.7804 111.582 76.7815C111.506 76.3481 111.249 74.5912 111.325 72.2613C111.344 71.6843 111.416 71.0405 111.582 70.2725C111.582 70.2725 112.284 67.0161 114.817 64.2201C115.181 63.8187 115.614 63.4008 119.572 63.2423V63.2412Z" fill="url(#paint18_linear_9225_84067)"/>
<g style="mix-blend-mode:multiply" opacity="0.3">
<path d="M131.469 64.9502C132.302 64.9408 132.951 68.1553 133.049 68.6196C134.593 75.9319 130.484 78.5363 131.045 85.1712C131.109 85.9314 131.826 93.2266 137.125 97.711C139.645 99.8433 142.515 100.76 142.445 102.651C142.394 104.012 140.842 105.252 139.405 105.691C136.655 106.53 135.051 104.213 131.425 103.411C127.636 102.573 126.757 104.523 120.785 105.311C118.798 105.573 109.725 106.772 107.486 103.031C107.255 102.645 107.167 102.476 107.19 102.311C107.44 100.493 115.84 102.146 117.945 98.8329C120.002 95.5963 114.673 89.7864 116.458 88.0505C117.852 86.695 121.407 89.942 124.265 88.4221C126.058 87.4691 126.354 85.291 127.24 80.6145C128.796 72.4028 130.205 64.9646 131.468 64.9508L131.469 64.9502Z" fill="url(#paint19_linear_9225_84067)"/>
</g>
<path d="M122.223 57.8834C122.111 58.4062 121.542 61.2105 122.689 61.9321C122.938 62.0883 123.416 62.1783 124.372 62.3572C124.997 62.4743 125.522 62.5466 125.893 62.5908C125.839 63.0612 125.681 63.8264 125.138 64.5226C123.617 66.4744 120.567 65.9692 120.131 65.8902C118.597 65.6109 117.087 65.1366 116.723 64.8473C116.167 64.4061 115.731 64.0749 115.473 63.7386C116.067 63.4515 117.265 62.6951 118.07 62.4472C118.671 62.2623 119.235 62.1303 119.749 62.0353C119.833 61.4937 119.918 60.9521 120.002 60.4099C120.743 59.5673 121.483 58.7254 122.223 57.8828V57.8834Z" fill="url(#paint20_linear_9225_84067)"/>
<path d="M122.277 59.2808C122.277 59.2808 122.069 61.3358 120.072 61.698C118.283 62.0221 116.936 57.6995 117.852 56.5815C118.157 56.2088 118.911 55.8538 119.564 55.8725C120.024 55.8858 121.576 56.4771 121.793 58.0302C122.103 57.7045 122.488 57.6112 122.678 57.7475C122.919 57.9204 122.79 58.4239 122.761 58.5376C122.659 58.9324 122.401 59.1775 122.277 59.2808Z" fill="url(#paint21_linear_9225_84067)"/>
<path d="M119.096 92.6401L113.526 78.8459C113.149 77.9128 113.645 76.8566 114.604 76.5502L125.627 73.0287C126.265 72.8835 126.914 73.227 127.152 73.8359L132.848 88.3783C133.132 89.1027 132.732 89.9138 131.985 90.1307L120.688 93.4087C120.039 93.597 119.353 93.2657 119.096 92.6401Z" fill="#26264F"/>
<path d="M119.804 84.7038C119.804 84.7038 118.689 83.9601 118.689 83.2164C118.689 82.4727 117.945 81.3574 117.574 81.3574C117.202 81.3574 117.202 81.7289 117.574 82.4726C117.945 83.2164 116.086 82.8442 115.343 82.1011C114.6 81.3574 113.856 81.3574 114.228 81.7295C114.816 82.3175 114.972 82.8448 114.972 82.8448C114.972 82.8448 115.715 85.8191 118.968 85.6335L119.805 84.7043L119.804 84.7038Z" fill="url(#paint22_linear_9225_84067)"/>
<path d="M127.612 63.511C129.99 62.4498 133.97 66.8242 134.676 67.6005C138.424 71.7205 143.742 81.0607 139.51 86.5621C135.979 91.1519 126.499 92.1634 118.688 86.1905C119.06 85.4468 119.432 84.7031 119.804 83.9599C120.615 84.2542 125.947 86.1 129.842 83.2162C130.669 82.6045 131.939 81.6636 132.073 80.2419C132.323 77.5923 128.297 76.7763 126.496 72.8059C124.903 69.2917 125.561 64.4258 127.611 63.511H127.612Z" fill="url(#paint23_linear_9225_84067)"/>
<path d="M46.1774 153.216C46.0951 152.762 44.6265 152.35 43.8999 152.959C43.5388 153.261 43.2903 153.874 43.499 154.151C43.5752 154.251 43.2638 154.429 43.562 154.432C44.5508 154.443 46.2597 153.668 46.1774 153.216V153.216Z" fill="url(#paint24_linear_9225_84067)"/>
<path d="M44.5732 153.218L43.0499 153.294C43.5778 152.335 42.9434 149.726 42.9434 149.726L44.5881 149.774C44.5881 149.774 44.5478 150.532 44.4473 151.657C44.4131 152.042 44.4761 152.623 44.5732 153.218Z" fill="url(#paint25_linear_9225_84067)"/>
<path d="M44.7732 153.195C44.7732 153.195 42.955 152.776 42.7585 153.137C42.5619 153.497 42.409 154.463 43.5624 154.431C44.7158 154.4 44.8753 153.5 44.7726 153.195L44.7732 153.195Z" fill="url(#paint26_linear_9225_84067)"/>
<path d="M65.4571 156.513C65.3119 156.075 63.8002 155.873 63.1658 156.577C62.8506 156.927 62.6904 157.569 62.9361 157.814C63.0256 157.903 62.7423 158.122 63.0377 158.084C64.0183 157.957 65.6018 156.949 65.4571 156.513Z" fill="url(#paint27_linear_9225_84067)"/>
<path d="M63.6717 156.936L62.1754 157.23C62.5603 156.204 61.5576 153.713 61.5576 153.713L63.1919 153.525C63.1919 153.525 63.2604 154.28 63.3228 155.408C63.3443 155.794 63.49 156.36 63.6717 156.935V156.936Z" fill="url(#paint28_linear_9225_84067)"/>
<path d="M64.0633 156.69C64.0633 156.69 62.2048 156.529 62.0607 156.914C61.9166 157.298 61.9006 158.276 63.038 158.083C64.1754 157.891 64.2079 156.978 64.0633 156.689V156.69Z" fill="url(#paint29_linear_9225_84067)"/>
<path d="M50.3156 104.265C49.9081 111.234 49.3372 118.48 48.5686 125.979C47.6781 134.667 46.5965 142.968 45.3829 150.857C43.8878 151.37 42.5058 150.857 42.5058 150.857C42.5058 150.857 40.7572 147.994 39.4227 140.383C38.5664 135.499 38.5073 135.56 38.4979 134.708C38.4493 130.41 39.9572 129.166 40.2448 125.325C40.511 121.77 39.3797 120.705 38.7033 116.704C38.1838 113.627 37.9889 109.143 39.6281 103.283C43.1904 103.611 46.7527 103.938 50.315 104.265H50.3156Z" fill="url(#paint30_linear_9225_84067)"/>
<path style="mix-blend-mode:multiply" opacity="0.3" d="M50.3149 104.266C49.9074 111.235 49.3365 118.481 48.568 125.98C47.6774 134.668 46.5958 142.969 45.3822 150.858C43.8871 151.371 42.5051 150.858 42.5051 150.858C42.5239 150.128 42.5752 149.027 42.7276 147.698C43.1323 144.172 43.7766 143.169 43.8429 141.006C43.9274 138.239 42.9258 138.154 42.7276 135.429C42.4206 131.205 44.7395 130.204 44.9582 126.506C45.1895 122.598 42.7431 121.312 40.8686 116.467C39.7621 113.607 38.7799 109.313 39.628 103.284C43.1903 103.611 46.7526 103.939 50.3149 104.266Z" fill="url(#paint31_linear_9225_84067)"/>
<path d="M57.8168 104.047C59.8641 110.944 61.8484 119.512 62.9549 129.471C64.0282 139.137 64.0089 147.721 63.5716 154.786C62.9206 154.967 62.2697 155.15 61.6193 155.331C57.835 151.372 56.484 147.732 55.9672 145.075C55.2036 141.143 56.3542 139.809 55.3505 135.363C55.1197 134.341 54.7951 133.242 51.0345 125.87C47.4457 118.834 46.7098 117.812 46.1019 115.286C45.2345 111.679 45.4631 108.481 45.7938 106.338C49.8017 105.575 53.809 104.81 57.8168 104.047V104.047Z" fill="url(#paint32_linear_9225_84067)"/>
<path d="M73.954 89.1402L80.3758 74.097C80.6966 73.3456 80.2659 72.486 79.4719 72.2927L67.7084 69.436C67.0729 69.2814 66.4198 69.6155 66.1724 70.2212L60.2658 84.6796C59.9715 85.3996 60.3591 86.2167 61.1028 86.4442L72.3512 89.8855C72.9978 90.0832 73.689 89.7619 73.9546 89.1402H73.954Z" fill="#26264F"/>
<path d="M73.6635 88.4168L79.6623 74.3653C79.9621 73.6636 79.5596 72.8602 78.8176 72.6802L67.8298 70.0118C67.2357 69.8677 66.6262 70.1791 66.3948 70.7451L60.8775 84.25C60.6025 84.9225 60.9647 85.6855 61.6593 85.8981L72.1662 89.1131C72.7696 89.298 73.4156 88.9977 73.6635 88.4168Z" fill="url(#paint33_linear_9225_84067)"/>
<path d="M77.3666 84.2858L77.5593 82.5129L78.5807 80.5661C78.7198 80.3011 78.7927 80.0063 78.7927 79.7065V77.7729L77.5598 80.6247C77.5598 80.6247 76.7504 79.8925 76.4423 79.7385C76.1342 79.5845 76.1723 80.2012 76.4037 80.432C76.635 80.6633 76.2883 82.5516 76.5191 82.7443L76.4418 83.9004L77.3666 84.2858Z" fill="url(#paint34_linear_9225_84067)"/>
<path d="M67.5791 72.9955C66.6201 70.6507 64.5617 69.3018 63.4945 68.6023C60.9691 66.9476 59.3519 67.2496 53.5524 66.3673C45.8232 65.1913 44.8979 64.0771 42.3002 64.9798C38.888 66.1663 37.1052 69.2637 36.2886 70.6832C32.1709 77.8393 36.9854 81.4761 35.7492 95.7308C35.2446 101.552 33.9504 106.612 37.0594 109.603C37.7142 110.233 38.4463 110.563 39.9111 111.222C45.7194 113.835 50.9276 113.385 54.0918 113.071C57.5741 112.726 59.3342 112.529 60.2574 111.298C61.7321 109.333 60.2138 106.835 59.9493 102.513C59.7588 99.4091 60.465 96.9494 61.8762 92.0311C65.1569 80.5966 69.4166 77.4876 67.5796 72.995L67.5791 72.9955Z" fill="url(#paint35_linear_9225_84067)"/>
<path d="M54.6411 62.1491C54.9928 60.8952 54.3778 59.7346 54.2419 59.4845C53.6744 58.4372 53.5286 58.2942 53.258 58.1125L52.8815 57.8801C52.8815 57.8801 52.8594 57.8712 52.8368 57.863C52.595 57.7768 51.7717 57.752 51.605 57.7879C51.0722 57.9016 50.5046 60.0731 50.6664 63.1423C50.6443 63.2594 50.6228 63.3776 50.6023 63.4963C50.5184 63.981 50.4516 64.4564 50.4003 64.9207C50.3511 65.3652 49.7206 65.3547 49.2745 65.3265C47.4635 65.2112 46.5768 65.3652 46.5001 65.6346C46.3554 66.1404 48.5037 67.7929 51.1567 68.1645C54.7168 68.191 57.6126 67.8117 57.3012 67.2512C57.1632 67.0022 54.4048 66.2817 53.6291 65.5673C52.919 64.913 52.9765 64.2378 52.9185 63.7541C53.1338 63.6426 54.3827 63.0722 54.6417 62.1485L54.6411 62.1491Z" fill="url(#paint36_linear_9225_84067)"/>
<path d="M53.9865 57.0083C53.9832 57.959 53.5355 58.9749 53.3069 59.1383C53.2776 59.1593 53.1114 59.2907 52.9624 59.5143C52.9419 59.5447 52.9243 59.5806 52.9082 59.627C52.7001 60.226 53.6525 60.9316 53.4686 61.2C53.335 61.3949 52.6874 61.1343 52.6107 61.3027C52.5383 61.4606 53.0761 61.7885 52.9938 61.9779C52.9314 62.1209 52.6002 61.9901 52.3915 62.2093C52.2871 62.3186 52.318 62.4047 52.2076 62.7387C52.1452 62.9276 52.058 63.1341 51.9906 63.2489C51.6621 63.8071 50.7312 64.0114 50.5518 63.7878C50.5021 63.7254 50.5446 63.6729 50.4938 63.4642C50.4938 63.4642 50.4469 63.2704 50.3116 63.0468C50.1189 62.7266 49.654 62.498 49.1853 62.1601C48.3168 61.5346 48.0805 61.0018 48.0098 60.8212C47.9844 60.7572 47.969 60.7086 47.9579 60.6738C47.7321 59.9726 47.731 58.9435 48.0463 58.3102C48.5741 57.2495 49.765 57.7531 50.7395 56.7018C51.8642 55.4894 51.1945 53.8319 51.8046 53.6486C52.477 53.4465 53.9915 55.2503 53.986 57.0088L53.9865 57.0083Z" fill="#26264F"/>
<path d="M53.1273 60.9763C52.8943 60.6561 52.4846 60.957 52.4824 61.3716C52.4802 61.7857 52.8816 62.2169 53.2709 62.1352C53.6607 62.0535 53.4409 61.4081 53.1273 60.9769V60.9763Z" fill="url(#paint37_linear_9225_84067)"/>
<path d="M52.9385 60.2828L53.479 60.9862C53.479 60.9862 54.062 61.8481 54.4022 61.376C54.6804 60.9901 54.7522 60.9989 54.7693 61.0149C54.7726 61.0183 54.7732 61.0227 54.7743 61.0227C54.7793 61.0216 54.7334 60.8305 54.6926 60.6632C54.8367 60.8697 55.0349 61.2049 55.1552 61.656C55.2717 62.0938 55.3971 62.5631 55.1497 63.0136C55.1354 63.0396 54.8632 63.5194 54.3547 63.6353C54.3547 63.6353 54.1548 63.6812 53.3101 63.5326C53.3101 63.5326 54.2332 62.8624 54.2476 62.7033C54.2857 62.2705 53.6855 62.0369 53.2399 61.1491C53.0682 60.8068 52.9832 60.4965 52.9385 60.2828Z" fill="#26264F"/>
<path style="mix-blend-mode:multiply" opacity="0.3" d="M51.0861 108.987C52.1108 106.946 49.6003 104.235 51.2401 101.125C52.6331 98.4841 55.1635 99.076 56.3268 96.6555C57.732 93.732 54.676 91.5467 54.7853 87.0988C54.9161 81.7813 59.4916 76.4588 62.1837 76.9254C63.9257 77.2274 64.1498 79.8262 65.3756 82.6719C64.2912 85.0504 63.0235 88.0297 61.8757 92.0315C60.4644 96.9503 59.7588 99.4095 59.9487 102.513C60.2138 106.836 61.7321 109.334 60.2568 111.299C59.3337 112.529 57.5735 112.727 54.0913 113.072C50.9265 113.385 45.7189 113.835 39.9106 111.222C39.1751 110.891 38.6247 110.644 38.1758 110.399C47.2505 111.762 50.2728 110.605 51.0855 108.987L51.0861 108.987Z" fill="url(#paint38_linear_9225_84067)"/>
<path d="M77.7144 83.939C77.149 83.695 76.5842 83.451 76.0188 83.2069C75.0636 84.1836 73.8451 85.1338 72.8204 84.8252C71.2926 84.3653 71.6747 81.555 69.8146 76.6173C67.7072 71.0227 65.3159 69.5844 64.1112 69.0643C63.4381 68.7739 62.9738 68.5812 62.4156 68.7176C59.8466 69.3453 58.9974 76.0398 59.7179 81.0487C60.1243 83.8706 60.9205 89.4045 65.4595 92.0309C66.1043 92.4042 69.6539 94.4581 73.1665 92.8404C76.1673 91.4584 78.0219 87.9121 77.7138 83.9385L77.7144 83.939Z" fill="url(#paint39_linear_9225_84067)"/>
<defs>
<linearGradient id="paint0_linear_9225_84067" x1="35.6806" y1="5.22969" x2="66.3989" y2="109.03" gradientUnits="userSpaceOnUse">
<stop stop-color="#E38DDD"/>
<stop offset="1" stop-color="#9571F6"/>
</linearGradient>
<linearGradient id="paint1_linear_9225_84067" x1="-1.0376" y1="92.7791" x2="89.7379" y2="148.288" gradientUnits="userSpaceOnUse">
<stop stop-color="#FFC444"/>
<stop offset="1" stop-color="#F36F56"/>
</linearGradient>
<linearGradient id="paint2_linear_9225_84067" x1="83.9356" y1="99.9008" x2="161.459" y2="99.9008" gradientUnits="userSpaceOnUse">
<stop stop-color="#E38DDD"/>
<stop offset="1" stop-color="#9571F6"/>
</linearGradient>
<linearGradient id="paint3_linear_9225_84067" x1="8.72398" y1="54.1887" x2="75.1801" y2="126.399" gradientUnits="userSpaceOnUse">
<stop stop-color="#FF9085"/>
<stop offset="1" stop-color="#FB6FBB"/>
</linearGradient>
<linearGradient id="paint4_linear_9225_84067" x1="155.276" y1="40.8296" x2="97.1274" y2="119.891" gradientUnits="userSpaceOnUse">
<stop stop-color="#FFC444"/>
<stop offset="1" stop-color="#F36F56"/>
</linearGradient>
<linearGradient id="paint5_linear_9225_84067" x1="31.4346" y1="82.0023" x2="139.425" y2="82.0023" gradientUnits="userSpaceOnUse">
<stop stop-color="#444B8C"/>
<stop offset="1" stop-color="#26264F"/>
</linearGradient>
<linearGradient id="paint6_linear_9225_84067" x1="35.0141" y1="81.9587" x2="139.572" y2="81.9587" gradientUnits="userSpaceOnUse">
<stop stop-color="#E38DDD"/>
<stop offset="1" stop-color="#9571F6"/>
</linearGradient>
<linearGradient id="paint7_linear_9225_84067" x1="62.5694" y1="15.8569" x2="116.585" y2="15.8569" gradientUnits="userSpaceOnUse">
<stop stop-color="#444B8C"/>
<stop offset="1" stop-color="#26264F"/>
</linearGradient>
<linearGradient id="paint8_linear_9225_84067" x1="89.4204" y1="50.3351" x2="92.149" y2="61.1772" gradientUnits="userSpaceOnUse">
<stop stop-color="#FFC444"/>
<stop offset="1" stop-color="#F36F56"/>
</linearGradient>
<linearGradient id="paint9_linear_9225_84067" x1="135.472" y1="140.564" x2="98.9653" y2="44.6793" gradientUnits="userSpaceOnUse">
<stop stop-color="#FFC444"/>
<stop offset="1" stop-color="#F36F56"/>
</linearGradient>
<linearGradient id="paint10_linear_9225_84067" x1="118.626" y1="148.478" x2="123.891" y2="148.63" gradientUnits="userSpaceOnUse">
<stop stop-color="#444B8C"/>
<stop offset="1" stop-color="#26264F"/>
</linearGradient>
<linearGradient id="paint11_linear_9225_84067" x1="121.646" y1="148.549" x2="124.526" y2="144.085" gradientUnits="userSpaceOnUse">
<stop stop-color="#FFC444"/>
<stop offset="1" stop-color="#F36F56"/>
</linearGradient>
<linearGradient id="paint12_linear_9225_84067" x1="99.8138" y1="146.281" x2="105.21" y2="147.764" gradientUnits="userSpaceOnUse">
<stop stop-color="#444B8C"/>
<stop offset="1" stop-color="#26264F"/>
</linearGradient>
<linearGradient id="paint13_linear_9225_84067" x1="103.16" y1="147.145" x2="106.44" y2="142.824" gradientUnits="userSpaceOnUse">
<stop stop-color="#FFC444"/>
<stop offset="1" stop-color="#F36F56"/>
</linearGradient>
<linearGradient id="paint14_linear_9225_84067" x1="101.646" y1="137.164" x2="116.572" y2="103.515" gradientUnits="userSpaceOnUse">
<stop stop-color="#444B8C"/>
<stop offset="1" stop-color="#26264F"/>
</linearGradient>
<linearGradient id="paint15_linear_9225_84067" x1="101.646" y1="137.164" x2="116.572" y2="103.515" gradientUnits="userSpaceOnUse">
<stop stop-color="#444B8C"/>
<stop offset="1" stop-color="#26264F"/>
</linearGradient>
<linearGradient id="paint16_linear_9225_84067" x1="110.702" y1="139.511" x2="129.639" y2="107.948" gradientUnits="userSpaceOnUse">
<stop stop-color="#444B8C"/>
<stop offset="1" stop-color="#26264F"/>
</linearGradient>
<linearGradient id="paint17_linear_9225_84067" x1="113.091" y1="49.5518" x2="165.665" y2="85.2631" gradientUnits="userSpaceOnUse">
<stop stop-color="#311944"/>
<stop offset="1" stop-color="#6B3976"/>
</linearGradient>
<linearGradient id="paint18_linear_9225_84067" x1="131.508" y1="115.167" x2="110.935" y2="61.1321" gradientUnits="userSpaceOnUse">
<stop stop-color="#FFC444"/>
<stop offset="1" stop-color="#F36F56"/>
</linearGradient>
<linearGradient id="paint19_linear_9225_84067" x1="131.226" y1="114.356" x2="113.577" y2="68.0029" gradientUnits="userSpaceOnUse">
<stop stop-color="#FFC444"/>
<stop offset="1" stop-color="#F36F56"/>
</linearGradient>
<linearGradient id="paint20_linear_9225_84067" x1="122.04" y1="69.2635" x2="118.957" y2="55.276" gradientUnits="userSpaceOnUse">
<stop stop-color="#FFC444"/>
<stop offset="1" stop-color="#F36F56"/>
</linearGradient>
<linearGradient id="paint21_linear_9225_84067" x1="119.95" y1="56.8006" x2="123.483" y2="74.9935" gradientUnits="userSpaceOnUse">
<stop stop-color="#FFC444"/>
<stop offset="1" stop-color="#F36F56"/>
</linearGradient>
<linearGradient id="paint22_linear_9225_84067" x1="116.914" y1="82.8188" x2="118.576" y2="92.7929" gradientUnits="userSpaceOnUse">
<stop stop-color="#FFC444"/>
<stop offset="0.23" stop-color="#FCB048"/>
<stop offset="1" stop-color="#F36F56"/>
</linearGradient>
<linearGradient id="paint23_linear_9225_84067" x1="146.004" y1="125.015" x2="114.384" y2="41.9655" gradientUnits="userSpaceOnUse">
<stop stop-color="#FFC444"/>
<stop offset="1" stop-color="#F36F56"/>
</linearGradient>
<linearGradient id="paint24_linear_9225_84067" x1="47.0045" y1="151.88" x2="43.7716" y2="154.028" gradientUnits="userSpaceOnUse">
<stop stop-color="#444B8C"/>
<stop offset="1" stop-color="#26264F"/>
</linearGradient>
<linearGradient id="paint25_linear_9225_84067" x1="43.9428" y1="154.01" x2="43.6916" y2="148.964" gradientUnits="userSpaceOnUse">
<stop stop-color="#FFC444"/>
<stop offset="1" stop-color="#F36F56"/>
</linearGradient>
<linearGradient id="paint26_linear_9225_84067" x1="46.7622" y1="151.515" x2="43.5292" y2="153.663" gradientUnits="userSpaceOnUse">
<stop stop-color="#444B8C"/>
<stop offset="1" stop-color="#26264F"/>
</linearGradient>
<linearGradient id="paint27_linear_9225_84067" x1="66.081" y1="155.1" x2="63.1807" y2="157.679" gradientUnits="userSpaceOnUse">
<stop stop-color="#444B8C"/>
<stop offset="1" stop-color="#26264F"/>
</linearGradient>
<linearGradient id="paint28_linear_9225_84067" x1="63.1602" y1="157.815" x2="62.1876" y2="152.857" gradientUnits="userSpaceOnUse">
<stop stop-color="#FFC444"/>
<stop offset="1" stop-color="#F36F56"/>
</linearGradient>
<linearGradient id="paint29_linear_9225_84067" x1="65.7898" y1="154.773" x2="62.8895" y2="157.352" gradientUnits="userSpaceOnUse">
<stop stop-color="#444B8C"/>
<stop offset="1" stop-color="#26264F"/>
</linearGradient>
<linearGradient id="paint30_linear_9225_84067" x1="50.3161" y1="127.185" x2="38.3328" y2="127.185" gradientUnits="userSpaceOnUse">
<stop stop-color="#311944"/>
<stop offset="1" stop-color="#6B3976"/>
</linearGradient>
<linearGradient id="paint31_linear_9225_84067" x1="50.3154" y1="127.185" x2="39.3077" y2="127.185" gradientUnits="userSpaceOnUse">
<stop stop-color="#311944"/>
<stop offset="1" stop-color="#6B3976"/>
</linearGradient>
<linearGradient id="paint32_linear_9225_84067" x1="28.1479" y1="135.386" x2="61.1141" y2="129.438" gradientUnits="userSpaceOnUse">
<stop stop-color="#311944"/>
<stop offset="0.74" stop-color="#5C3169"/>
<stop offset="1" stop-color="#6B3976"/>
</linearGradient>
<linearGradient id="paint33_linear_9225_84067" x1="68.8612" y1="79.9876" x2="83.9292" y2="74.6408" gradientUnits="userSpaceOnUse">
<stop stop-color="#FFC444"/>
<stop offset="0.64" stop-color="#F78E50"/>
<stop offset="1" stop-color="#F36F56"/>
</linearGradient>
<linearGradient id="paint34_linear_9225_84067" x1="77.186" y1="78.87" x2="78.9589" y2="86.9625" gradientUnits="userSpaceOnUse">
<stop stop-color="#FFC444"/>
<stop offset="1" stop-color="#F36F56"/>
</linearGradient>
<linearGradient id="paint35_linear_9225_84067" x1="51.5918" y1="37.038" x2="50.7835" y2="146.96" gradientUnits="userSpaceOnUse">
<stop stop-color="#E38DDD"/>
<stop offset="1" stop-color="#9571F6"/>
</linearGradient>
<linearGradient id="paint36_linear_9225_84067" x1="54.7013" y1="60.1671" x2="46.49" y2="79.0081" gradientUnits="userSpaceOnUse">
<stop stop-color="#FFC444"/>
<stop offset="1" stop-color="#F36F56"/>
</linearGradient>
<linearGradient id="paint37_linear_9225_84067" x1="55.3157" y1="56.2989" x2="46.1475" y2="77.335" gradientUnits="userSpaceOnUse">
<stop stop-color="#FFC444"/>
<stop offset="1" stop-color="#F36F56"/>
</linearGradient>
<linearGradient id="paint38_linear_9225_84067" x1="68.738" y1="86.0994" x2="48.2371" y2="105.675" gradientUnits="userSpaceOnUse">
<stop stop-color="#E38DDD"/>
<stop offset="1" stop-color="#9571F6"/>
</linearGradient>
<linearGradient id="paint39_linear_9225_84067" x1="68.9334" y1="37.1654" x2="68.1251" y2="147.087" gradientUnits="userSpaceOnUse">
<stop stop-color="#E38DDD"/>
<stop offset="1" stop-color="#9571F6"/>
</linearGradient>
</defs>
</svg>
