<svg width="24" height="24" viewBox="0 0 24 24" fill="none" xmlns="http://www.w3.org/2000/svg">
<path d="M11.8493 23.725C13.8993 23.7273 15.8866 23.0185 17.4726 21.7195C19.0585 20.4206 20.1449 18.6118 20.5465 16.6015C20.9481 14.5912 20.6401 12.5039 19.675 10.6953C18.7099 8.88665 17.1475 7.4687 15.254 6.68312C13.3604 5.89754 11.2531 5.79296 9.2911 6.38719C7.32912 6.98143 5.63394 8.23771 4.49451 9.94188C3.35508 11.6461 2.84193 13.6926 3.04253 15.7328C3.24313 17.773 4.14506 19.6804 5.59458 21.13C6.41569 21.9521 7.39067 22.6043 8.46385 23.0496C9.53703 23.4948 10.6874 23.7243 11.8493 23.725ZM11.8493 7.28755C13.6071 7.28555 15.3111 7.89323 16.671 9.007C18.0309 10.1208 18.9625 11.6717 19.3069 13.3954C19.6513 15.1191 19.3872 16.9089 18.5597 18.4597C17.7322 20.0105 16.3925 21.2264 14.7689 21.9C13.1453 22.5736 11.3384 22.6633 9.65604 22.1538C7.97372 21.6443 6.52018 20.5671 5.54317 19.1058C4.56616 17.6446 4.12616 15.8897 4.29817 14.1404C4.47019 12.391 5.24357 10.7555 6.48648 9.51254C7.90842 8.08923 9.83739 7.28891 11.8493 7.28755Z" fill="#6C7BAD"/>
<path d="M5.90052 14.8737C5.90052 14.7992 5.87093 14.7277 5.81826 14.6751C5.76559 14.6224 5.69413 14.5928 5.61964 14.5928H4.90908C4.83445 14.5928 4.76286 14.6224 4.71009 14.6752C4.65732 14.728 4.62769 14.7996 4.62769 14.8742C4.62769 14.9488 4.65732 15.0204 4.71009 15.0732C4.76286 15.1259 4.83445 15.1556 4.90908 15.1556H5.61964C5.65661 15.1556 5.69323 15.1483 5.72738 15.1341C5.76152 15.1199 5.79253 15.0991 5.81863 15.0729C5.84472 15.0468 5.86539 15.0157 5.87944 14.9815C5.8935 14.9473 5.90066 14.9106 5.90052 14.8737Z" fill="#6C7BAD"/>
<path d="M6.70114 17.8412C6.66403 17.7763 6.60265 17.7288 6.53053 17.7091C6.4584 17.6895 6.38141 17.6993 6.31651 17.7364L5.7013 18.0906C5.64208 18.1305 5.60019 18.1913 5.58407 18.2609C5.56794 18.3304 5.57881 18.4034 5.61445 18.4653C5.6501 18.5271 5.70786 18.5731 5.77611 18.5941C5.84436 18.615 5.91801 18.6092 5.98218 18.578L6.59633 18.2237C6.66123 18.1866 6.70872 18.1252 6.72838 18.0531C6.74803 17.981 6.73824 17.904 6.70114 17.8391V17.8412Z" fill="#6C7BAD"/>
<path d="M5.69348 11.6496L6.30867 12.0039C6.34067 12.0223 6.376 12.0343 6.41262 12.0391C6.44924 12.0438 6.48645 12.0414 6.52211 12.0318C6.55778 12.0222 6.59121 12.0057 6.62049 11.9832C6.64978 11.9607 6.67434 11.9326 6.69278 11.9006C6.71122 11.8686 6.72318 11.8333 6.72798 11.7967C6.73277 11.7601 6.7303 11.7229 6.72072 11.6872C6.71113 11.6515 6.69462 11.6181 6.67212 11.5888C6.64961 11.5595 6.62155 11.535 6.58955 11.5165L5.97435 11.1623C5.94226 11.1407 5.90608 11.1259 5.86805 11.1189C5.83002 11.1119 5.79096 11.1128 5.75329 11.1215C5.71562 11.1303 5.68014 11.1467 5.64907 11.1697C5.61801 11.1927 5.59201 11.2219 5.5727 11.2554C5.55339 11.2889 5.54118 11.326 5.53683 11.3645C5.53247 11.4029 5.53607 11.4418 5.5474 11.4788C5.55872 11.5157 5.57755 11.55 5.60268 11.5794C5.62781 11.6088 5.65872 11.6327 5.69348 11.6496Z" fill="#6C7BAD"/>
<path d="M8.87296 20.018C8.84086 19.9995 8.80541 19.9875 8.76866 19.9828C8.73191 19.978 8.69458 19.9806 8.65883 19.9903C8.62308 20.0001 8.58958 20.0168 8.56032 20.0396C8.53106 20.0623 8.5066 20.0906 8.48833 20.1228L8.13408 20.738C8.11249 20.7701 8.09775 20.8063 8.09074 20.8443C8.08373 20.8824 8.0846 20.9214 8.09333 20.9591C8.10206 20.9968 8.11847 21.0322 8.1415 21.0633C8.16453 21.0944 8.19371 21.1204 8.22721 21.1397C8.26072 21.159 8.29782 21.1712 8.33625 21.1756C8.37467 21.1799 8.41358 21.1763 8.45055 21.165C8.48753 21.1536 8.52178 21.1348 8.55118 21.1097C8.58057 21.0846 8.60447 21.0537 8.62141 21.0189L8.97566 20.4037C8.99428 20.3716 9.00641 20.3362 9.01132 20.2995C9.01624 20.2627 9.01386 20.2254 9.00432 20.1896C8.99478 20.1537 8.97824 20.1201 8.9557 20.0907C8.93317 20.0613 8.90506 20.0366 8.87296 20.018Z" fill="#6C7BAD"/>
<path d="M8.48967 9.62411C8.50661 9.65887 8.53051 9.68978 8.55991 9.71491C8.5893 9.74004 8.62355 9.75886 8.66053 9.77019C8.6975 9.78152 8.73641 9.78512 8.77483 9.78076C8.81326 9.77641 8.85036 9.7642 8.88387 9.74489C8.91737 9.72558 8.94655 9.69958 8.96958 9.66852C8.99261 9.63745 9.00902 9.60197 9.01775 9.5643C9.02648 9.52663 9.02735 9.48757 9.02034 9.44954C9.01333 9.41151 8.99859 9.37533 8.977 9.34324L8.62275 8.72804C8.5829 8.66882 8.52207 8.62692 8.45254 8.6108C8.383 8.59468 8.30994 8.60553 8.2481 8.64117C8.18625 8.67682 8.14021 8.7346 8.1193 8.80285C8.09839 8.8711 8.10415 8.94475 8.13542 9.00892L8.48967 9.62411Z" fill="#6C7BAD"/>
<path d="M11.8407 22.0854C11.9155 22.0854 11.9872 22.0557 12.04 22.0028C12.0929 21.9499 12.1226 21.8782 12.1226 21.8034V21.0929C12.1182 21.0212 12.0867 20.9539 12.0344 20.9047C11.9821 20.8555 11.913 20.8281 11.8412 20.8281C11.7694 20.8281 11.7003 20.8555 11.648 20.9047C11.5957 20.9539 11.5642 21.0212 11.5598 21.0929V21.8034C11.5598 21.878 11.5894 21.9496 11.642 22.0024C11.6947 22.0552 11.7661 22.0851 11.8407 22.0854Z" fill="#6C7BAD"/>
<path d="M15.2017 20.1177C15.1619 20.0585 15.101 20.0166 15.0315 20.0005C14.9619 19.9843 14.8889 19.9952 14.827 20.0308C14.7652 20.0665 14.7192 20.1242 14.6983 20.1925C14.6774 20.2607 14.6831 20.3344 14.7144 20.3986L15.0686 21.0138C15.0856 21.0485 15.1095 21.0794 15.1389 21.1046C15.1682 21.1297 15.2025 21.1485 15.2395 21.1598C15.2764 21.1712 15.3154 21.1748 15.3538 21.1704C15.3922 21.1661 15.4293 21.1538 15.4628 21.1345C15.4964 21.1152 15.5255 21.0892 15.5486 21.0582C15.5716 21.0271 15.588 20.9916 15.5967 20.954C15.6054 20.9163 15.6063 20.8772 15.5993 20.8392C15.5923 20.8012 15.5775 20.765 15.556 20.7329L15.2017 20.1177Z" fill="#6C7BAD"/>
<path d="M17.993 18.0956L17.3778 17.7414C17.3136 17.7101 17.24 17.7044 17.1717 17.7253C17.1035 17.7462 17.0457 17.7922 17.0101 17.854C16.9744 17.9159 16.9636 17.9889 16.9797 18.0585C16.9958 18.128 17.0377 18.1888 17.0969 18.2287L17.7121 18.5829C17.7763 18.6142 17.8499 18.62 17.9182 18.5991C17.9864 18.5781 18.0442 18.5321 18.0799 18.4703C18.1155 18.4084 18.1264 18.3354 18.1103 18.2658C18.0941 18.1963 18.0522 18.1355 17.993 18.0956Z" fill="#6C7BAD"/>
<path d="M10.0632 2.62132L11.0253 3.11285V4.87146C11.2957 4.8484 11.5713 4.83792 11.8459 4.83792C12.1205 4.83792 12.3961 4.8484 12.6665 4.87146V3.11285L13.6286 2.62132C13.672 2.59519 13.7076 2.55784 13.7315 2.51321C13.7555 2.46858 13.767 2.41831 13.7648 2.36769V1.27354C13.771 1.20793 13.7512 1.14251 13.7097 1.09136C13.6681 1.0402 13.6081 1.0074 13.5427 1H10.1407C10.0757 1.00815 10.0164 1.04146 9.97568 1.0928C9.93492 1.14413 9.91593 1.2094 9.92275 1.27459V2.36245C9.92057 2.41307 9.93207 2.46333 9.95604 2.50797C9.98002 2.5526 10.0156 2.58994 10.059 2.61608L10.0632 2.62132Z" fill="#6C7BAD"/>
<path d="M18.4424 6.62494L18.9727 6.11349C19.0152 6.07244 19.0654 6.04019 19.1204 6.01855C19.1754 5.99691 19.2341 5.98631 19.2932 5.98738C19.3523 5.98845 19.4106 6.00117 19.4647 6.02478C19.5189 6.0484 19.5679 6.08246 19.6089 6.12502L20.8739 7.43716C20.9149 7.47967 20.9472 7.52986 20.9688 7.58485C20.9905 7.63984 21.0011 7.69856 21 7.75764C20.9989 7.81672 20.9862 7.87501 20.9626 7.92918C20.939 7.98335 20.9049 8.03234 20.8623 8.07333L20.332 8.58477C20.2461 8.66741 20.1308 8.71261 20.0116 8.71045C19.8923 8.70829 19.7788 8.65894 19.6959 8.57324L18.4309 7.26215C18.3898 7.21964 18.3576 7.16945 18.3359 7.11446C18.3143 7.05948 18.3037 7.00076 18.3048 6.94167C18.3058 6.88259 18.3186 6.8243 18.3422 6.77013C18.3658 6.71596 18.3999 6.66699 18.4424 6.626V6.62494Z" fill="#6C7BAD"/>
<path d="M11.8446 8.29395V14.8725H18.4232C18.4212 13.1284 17.7275 11.4562 16.4942 10.2229C15.2609 8.98961 13.5887 8.29589 11.8446 8.29395Z" fill="#6C7BAD"/>
</svg>
