<svg width="24" height="24" viewBox="0 0 24 24" fill="none" xmlns="http://www.w3.org/2000/svg">
<rect width="24" height="24" rx="4" fill="#1C1E38"/>
<path fill-rule="evenodd" clip-rule="evenodd" d="M4.876 5.88135C5.02944 5.72747 5.23755 5.64103 5.45455 5.64103H18.5455C18.7625 5.64103 18.9706 5.72747 19.124 5.88135C19.2774 6.03522 19.3636 6.24393 19.3636 6.46154V14.6667C19.3636 14.8843 19.2774 15.093 19.124 15.2469C18.9706 15.4007 18.7624 15.4872 18.5455 15.4872H16.9091C16.4572 15.4872 16.0909 15.8545 16.0909 16.3077C16.0909 16.7608 16.4572 17.1282 16.9091 17.1282H18.5455C19.1964 17.1282 19.8208 16.8689 20.2811 16.4072C20.7414 15.9456 21 15.3195 21 14.6667V6.46154C21 5.8087 20.7414 5.1826 20.2811 4.72097C19.8208 4.25934 19.1964 4 18.5455 4H5.45455C4.80356 4 4.17924 4.25934 3.71892 4.72097C3.2586 5.1826 3 5.8087 3 6.46154V14.6667C3 15.3195 3.2586 15.9456 3.71892 16.4072C4.17924 16.8689 4.80356 17.1282 5.45455 17.1282H7.5C7.95187 17.1282 8.31818 16.7608 8.31818 16.3077C8.31818 15.8545 7.95187 15.4872 7.5 15.4872H5.45455C5.23755 15.4872 5.02944 15.4007 4.876 15.2469C4.72256 15.093 4.63636 14.8843 4.63636 14.6667V6.46154C4.63636 6.24392 4.72256 6.03522 4.876 5.88135ZM12.5943 15.7919C12.2853 15.4201 11.7146 15.4201 11.4057 15.7919L8.96155 18.7332C8.54316 19.2367 8.90122 19.9998 9.55586 19.9998H14.4441C15.0987 19.9998 15.4568 19.2367 15.0384 18.7332L12.5943 15.7919Z" fill="#1D9BF0"/>
<path fill-rule="evenodd" clip-rule="evenodd" d="M16.0909 10.9746C16.0909 13.2404 14.2593 15.0772 12 15.0772C9.74062 15.0772 7.90906 13.2404 7.90906 10.9746C7.90906 8.70885 9.74062 6.87207 12 6.87207C14.2593 6.87207 16.0909 8.70885 16.0909 10.9746ZM11.6984 8.51283C11.3505 8.51072 11.0714 8.79137 11.0701 9.14467L11.07 9.14476C11.0686 9.49036 11.3472 9.77202 11.6917 9.77348C12.0432 9.77495 12.3269 9.49321 12.3274 9.14229C12.3279 8.79751 12.0454 8.51494 11.6984 8.51283ZM11.1951 11.0808L11.2456 11.0385L11.2457 11.0386L11.2568 11.0467V11.0814L11.2566 11.5854V11.5856C11.2564 12.0056 11.2562 12.4255 11.2572 12.8455C11.2577 13.0494 11.3466 13.2115 11.512 13.327C11.7072 13.4633 11.918 13.4641 12.1295 13.3713C12.4141 13.2464 12.6138 13.0273 12.7717 12.7663C12.8463 12.643 12.9045 12.5121 12.9262 12.368C12.9359 12.3048 12.9073 12.2487 12.8552 12.2221C12.8041 12.1961 12.7396 12.2071 12.6954 12.2498C12.6882 12.2568 12.6813 12.2641 12.6744 12.2714C12.6645 12.2818 12.6546 12.2923 12.6438 12.3018C12.6001 12.3402 12.5559 12.3781 12.5118 12.416L12.4562 12.4638L12.4454 12.4551V12.3873L12.4455 11.8175C12.4455 11.4377 12.4456 11.0579 12.4454 10.6781C12.4453 10.4018 12.2716 10.165 12.0128 10.0924C11.8313 10.0416 11.6585 10.0764 11.4973 10.1658C11.2001 10.3306 10.9924 10.5799 10.8513 10.8851C10.813 10.9681 10.792 11.0608 10.775 11.1514C10.7629 11.2158 10.8 11.2643 10.8542 11.2857C10.9077 11.3069 10.9659 11.293 11.0089 11.2489C11.0153 11.2423 11.0217 11.2355 11.028 11.2286C11.0414 11.2142 11.0549 11.1997 11.0697 11.1869C11.1111 11.151 11.153 11.116 11.195 11.0809L11.1951 11.0808Z" fill="#FFC10E"/>
</svg>
