<svg width="61" height="52" viewBox="0 0 61 52" fill="none" xmlns="http://www.w3.org/2000/svg">
<path d="M37.0497 13.6452C36.1469 13.6443 35.2813 13.2854 34.6427 12.6472C34.0042 12.0089 33.6449 11.1435 33.6436 10.2407V5.51367H18.4323C17.2539 5.51367 16.1238 5.98179 15.2906 6.81502C14.4573 7.64825 13.9893 8.77832 13.9893 9.95669V36.7404C13.9893 37.9187 14.4573 39.0488 15.2906 39.8821C16.1238 40.7153 17.2539 41.1834 18.4323 41.1834H36.6931C37.8715 41.1834 39.0016 40.7153 39.8348 39.8821C40.668 39.0488 41.1361 37.9187 41.1361 36.7404V13.6452H37.0497Z" fill="#E8F2FF"/>
<path d="M41.1361 13.6452H37.0497C36.1469 13.6443 35.2813 13.2854 34.6427 12.6472C34.0042 12.0089 33.6449 11.1435 33.6436 10.2407V5.51367L41.1361 13.6452Z" fill="#A140FF"/>
<path d="M35.5525 19.3382H18.5052C18.3416 19.3378 18.1848 19.2726 18.069 19.1569C17.9533 19.0412 17.8881 18.8844 17.8877 18.7207C17.8877 18.5568 17.9527 18.3995 18.0684 18.2835C18.1842 18.1674 18.3413 18.102 18.5052 18.1016H35.5525C35.7164 18.102 35.8735 18.1674 35.9892 18.2835C36.105 18.3995 36.17 18.5568 36.17 18.7207C36.1695 18.8844 36.1043 19.0412 35.9886 19.1569C35.8729 19.2726 35.7161 19.3378 35.5525 19.3382Z" fill="#A140FF"/>
<path d="M35.5525 23.0316H18.5052C18.3416 23.0311 18.1848 22.9659 18.069 22.8502C17.9533 22.7345 17.8881 22.5777 17.8877 22.4141C17.8877 22.2502 17.9527 22.0929 18.0684 21.9768C18.1842 21.8608 18.3413 21.7954 18.5052 21.7949H35.5525C35.7164 21.7954 35.8735 21.8608 35.9892 21.9768C36.105 22.0929 36.17 22.2502 36.17 22.4141C36.1695 22.5777 36.1043 22.7345 35.9886 22.8502C35.8729 22.9659 35.7161 23.0311 35.5525 23.0316Z" fill="#A140FF"/>
<path d="M35.5525 26.7249H18.5052C18.3413 26.7245 18.1842 26.6591 18.0684 26.543C17.9527 26.427 17.8877 26.2697 17.8877 26.1058C17.8881 25.9421 17.9533 25.7853 18.069 25.6696C18.1848 25.5539 18.3416 25.4887 18.5052 25.4883H35.5525C35.7161 25.4887 35.8729 25.5539 35.9886 25.6696C36.1043 25.7853 36.1695 25.9421 36.17 26.1058C36.17 26.2697 36.105 26.427 35.9892 26.543C35.8735 26.6591 35.7164 26.7245 35.5525 26.7249Z" fill="#A140FF"/>
<path d="M35.5525 30.4183H18.5052C18.3414 30.4183 18.1844 30.3532 18.0686 30.2374C17.9528 30.1216 17.8877 29.9646 17.8877 29.8008C17.8877 29.6369 17.9527 29.4796 18.0684 29.3636C18.1842 29.2475 18.3413 29.1821 18.5052 29.1816H35.5525C35.7164 29.1821 35.8735 29.2475 35.9892 29.3636C36.105 29.4796 36.17 29.6369 36.17 29.8008C36.17 29.9646 36.1049 30.1216 35.9891 30.2374C35.8733 30.3532 35.7163 30.4183 35.5525 30.4183Z" fill="#A140FF"/>
<path d="M44.3591 33.6836H23.7141C22.2497 33.6836 21.0625 34.8708 21.0625 36.3352V42.4904C21.0625 43.9549 22.2497 45.142 23.7141 45.142H44.3591C45.8236 45.142 47.0107 43.9549 47.0107 42.4904V36.3352C47.0107 34.8708 45.8236 33.6836 44.3591 33.6836Z" fill="#A140FF"/>
<path d="M28.1163 40.7461V41.9464H26.873V40.7461H28.1163Z" fill="white"/>
<path d="M32.3076 36.9805V37.9364H30.9586V41.9452H29.7517V37.9364H28.416V36.9805H32.3076Z" fill="white"/>
<path d="M35.8266 41.9452L34.7798 40.3998L33.88 41.9452H32.5046L34.0913 39.3894L32.4551 36.9805H33.88L34.8987 38.4763L35.777 36.9805H37.1458L35.5805 39.4802L37.2514 41.9452H35.8266Z" fill="white"/>
<path d="M41.2815 36.9805V37.9364H39.9342V41.9452H38.7256V37.9364H37.3916V36.9805H41.2815Z" fill="white"/>
</svg>
