<svg width="14" height="22" viewBox="0 0 14 22" fill="none" xmlns="http://www.w3.org/2000/svg">
<path d="M3.77331 21.375C2.61231 16.975 3.1888 19.0689 2.5028 16.8189C2.4608 16.6829 2.16269 16.5689 1.84069 16.5669C1.56607 16.5773 1.29187 16.5258 1.03991 16.416C0.70862 15.4796 0.47879 14.5103 0.353386 13.5249C-0.0236136 11.3459 -0.0793792 10.7248 0.0936208 10.4888C0.266621 10.2528 0.150394 9.94486 1.43639 9.94486H12.1171C13.6801 9.94486 13.5118 10.2311 13.6688 10.5611C13.6181 12.5132 13.3107 14.4499 12.7548 16.3218C12.5001 16.5053 12.1879 16.5932 11.8749 16.5699C11.4389 16.5699 11.1815 16.6639 11.1815 16.8199C10.8731 18.3327 10.4845 19.8282 10.0174 21.2998C8.80898 21.5435 7.57437 21.6312 6.34362 21.5601C5.48252 21.6221 4.61665 21.5598 3.77331 21.375ZM2.79479 9.10404C2.7423 9.10789 2.68899 9.10052 2.63952 9.08255C2.59005 9.06458 2.54546 9.03619 2.50768 8.99954C2.4699 8.9629 2.44024 8.91905 2.42077 8.87015C2.4013 8.82125 2.39214 8.76844 2.3944 8.71585L2.79479 7.53226C2.79479 7.53226 3.3103 6.01511 4.0653 5.70511C4.6054 5.50862 5.16339 5.36505 5.73132 5.27689C5.83048 5.26327 5.93113 5.28802 6.01257 5.34622C6.09401 5.40442 6.15055 5.49164 6.16979 5.58987C6.28979 6.17188 6.33605 7.25111 6.90905 7.68411C7.43905 7.26511 7.55958 6.17188 7.67858 5.58987C7.69849 5.49206 7.75451 5.4056 7.83581 5.34769C7.91711 5.28977 8.01713 5.26471 8.11608 5.27786C8.686 5.37963 9.24482 5.53598 9.78503 5.74417C10.54 6.05417 11.0565 7.53323 11.0565 7.53323L11.3622 8.71683C11.3649 8.76954 11.3561 8.82248 11.3368 8.87161C11.3175 8.92074 11.2887 8.96523 11.2508 9.00198C11.213 9.03874 11.1677 9.06671 11.118 9.0845C11.0683 9.1023 11.0154 9.10936 10.9628 9.10501L2.79479 9.10404ZM4.8944 2.43704C4.90308 1.89629 5.12419 1.38084 5.51061 1.00247C5.89704 0.624101 6.41706 0.413344 6.95788 0.416047C7.49896 0.413076 8.0203 0.623612 8.4071 1.00198C8.7939 1.38036 9.01534 1.89603 9.02429 2.43704C9.03504 3.02222 8.8309 3.59076 8.45007 4.03519C8.06923 4.47962 7.5378 4.76914 6.95788 4.84818C6.37905 4.7678 5.85018 4.47801 5.47057 4.03372C5.09096 3.58943 4.88737 3.02132 4.89831 2.43704H4.8944Z" fill="white"/>
</svg>
