<svg width="44" height="44" viewBox="0 0 44 44" fill="none" xmlns="http://www.w3.org/2000/svg">
<path d="M2.2002 34.0081H41.9177V36.8797C41.9177 38.3816 40.6995 39.5998 39.1976 39.5998H4.92031C3.41842 39.5998 2.2002 38.3816 2.2002 36.8797V34.0081Z" fill="white" stroke="#9D54FF" stroke-width="1.80534" stroke-miterlimit="10" stroke-linecap="round"/>
<path d="M6.6688 37.4455C7.04437 37.4455 7.34882 37.141 7.34882 36.7655C7.34882 36.3899 7.04437 36.0854 6.6688 36.0854C6.29323 36.0854 5.98877 36.3899 5.98877 36.7655C5.98877 37.141 6.29323 37.4455 6.6688 37.4455Z" fill="white" stroke="#9D54FF" stroke-width="1.80534" stroke-miterlimit="10" stroke-linecap="round"/>
<path d="M4.17041 32.4306V7.09475C4.17041 5.60647 5.24291 4.3999 6.56605 4.3999H37.552C38.8751 4.3999 39.9476 5.60647 39.9476 7.09475V32.4306" fill="white"/>
<path d="M4.17041 32.4306V7.09475C4.17041 5.60647 5.24291 4.3999 6.56605 4.3999H37.552C38.8751 4.3999 39.9476 5.60647 39.9476 7.09475V32.4306" stroke="#9D54FF" stroke-width="1.80534" stroke-miterlimit="10"/>
<path d="M33.7574 31.4225C33.7574 31.4225 33.9706 28.1811 32.8152 27.602C31.6598 27.0229 29.7735 27.3134 28.7092 26.6075C27.6449 25.9015 26.1541 24.0393 26.1541 24.0393C26.1541 24.0393 24.2678 25.13 22.4067 25.13C20.5456 25.13 18.6593 24.0393 18.6593 24.0393C18.6593 24.0393 17.1685 25.9015 16.1042 26.6075C15.0399 27.3134 13.1536 27.0249 11.9982 27.602C10.8428 28.179 11.056 31.4225 11.056 31.4225H33.7554H33.7574Z" fill="#F9E4FF"/>
<path d="M33.7515 31.1402C33.7515 31.1402 33.9653 28.0626 32.8073 27.5128C31.6493 26.9629 29.7588 27.2388 28.6921 26.5685C27.6255 25.8982 26.1313 24.1301 26.1313 24.1301" stroke="#9D54FF" stroke-width="1.80534" stroke-miterlimit="10" stroke-linecap="round"/>
<path d="M11.0018 31.4881C11.0018 31.4881 10.7822 28.3075 11.9732 27.7402C13.1643 27.1729 15.1091 27.4565 16.2069 26.7629C17.3047 26.0693 18.8415 24.2429 18.8415 24.2429" stroke="#9D54FF" stroke-width="1.80534" stroke-miterlimit="10" stroke-linecap="round"/>
<path d="M26.6654 16.2347C26.2691 19.9826 24.6662 22.7863 22.2006 22.7863C19.735 22.7863 17.9805 19.8602 17.7357 16.2347C17.4928 12.6247 18.0718 9.68311 22.2006 9.68311C26.3293 9.68311 27.0463 12.6364 26.6654 16.2347Z" fill="#F0C6FF" stroke="#9D54FF" stroke-width="1.80534" stroke-miterlimit="10"/>
</svg>
