<svg width="24" height="24" viewBox="0 0 24 24" fill="none" xmlns="http://www.w3.org/2000/svg">
<path d="M21.0564 16.812C21.6083 16.4702 22 15.8644 22 15.1136V8.88634C22 7.25959 20.1613 6.31335 18.8375 7.25887L15 9.99996V10.7557L21.0564 16.812Z" fill="white"/>
<path d="M6.41586 5H5C3.34315 5 2 6.34315 2 8V16C2 17.6569 3.34315 19 5 19H14C15.6569 19 17 17.6569 17 16V15.5841L6.41586 5Z" fill="white"/>
<path d="M17 12.7557V8C17 6.34315 15.6569 5 14 5H9.24429L17 12.7557Z" fill="white"/>
<path fill-rule="evenodd" clip-rule="evenodd" d="M2.29289 2.29289C2.68342 1.90237 3.31658 1.90237 3.70711 2.29289L21.7071 20.2929C22.0976 20.6834 22.0976 21.3166 21.7071 21.7071C21.3166 22.0976 20.6834 22.0976 20.2929 21.7071L2.29289 3.70711C1.90237 3.31658 1.90237 2.68342 2.29289 2.29289Z" fill="#FF0000"/>
</svg>
