<svg width="15" height="18" viewBox="0 0 15 18" fill="none" xmlns="http://www.w3.org/2000/svg">
<path d="M12.6921 0.75H1.63618V2.13225H12.6921V0.75ZM1.63618 17.334H12.6921V15.9517H1.63618V17.334ZM12.6921 3.51375H1.63618C1.26988 3.51474 0.918871 3.66069 0.659859 3.91969C0.400846 4.1787 0.254896 4.52971 0.253906 4.896V13.188C0.254896 13.5543 0.400846 13.9053 0.659859 14.1643C0.918871 14.4233 1.26988 14.5693 1.63618 14.5702H12.6921C13.0584 14.5693 13.4094 14.4233 13.6685 14.1643C13.9275 13.9053 14.0734 13.5543 14.0744 13.188V4.896C14.0734 4.52971 13.9275 4.1787 13.6685 3.91969C13.4094 3.66069 13.0584 3.51474 12.6921 3.51375ZM7.16378 5.41425C7.47129 5.41425 7.77189 5.50543 8.02757 5.67627C8.28325 5.84711 8.48253 6.08993 8.60021 6.37402C8.71789 6.65812 8.74868 6.97073 8.68869 7.27232C8.6287 7.57391 8.48062 7.85094 8.26318 8.06837C8.04574 8.28581 7.7687 8.43389 7.46711 8.49388C7.16551 8.55387 6.85289 8.52308 6.56879 8.4054C6.2847 8.28773 6.04187 8.08845 5.87103 7.83277C5.70019 7.5771 5.609 7.2765 5.609 6.969C5.6096 6.55684 5.7736 6.16173 6.06505 5.87028C6.35649 5.57884 6.75161 5.41484 7.16378 5.41425ZM10.6191 12.4972H3.70922V11.4608C3.70922 10.3065 6.01026 9.73575 7.16453 9.73575C8.3188 9.73575 10.6198 10.3095 10.6198 11.4608L10.6191 12.4972Z" fill="#0996FF"/>
</svg>
