<svg width="25" height="24" viewBox="0 0 25 24" fill="none" xmlns="http://www.w3.org/2000/svg">
<rect width="24.6826" height="24" rx="4" fill="#1C1E38"/>
<path d="M15.5739 14.0002C16.6784 12.896 16.6784 11.1057 15.5739 10.0015C14.4693 8.89727 12.6786 8.89727 11.5741 10.0015C10.4696 11.1057 10.4696 12.896 11.5741 14.0002C12.6786 15.1044 14.4693 15.1044 15.5739 14.0002Z" fill="#FFC10E"/>
<path fill-rule="evenodd" clip-rule="evenodd" d="M13.571 6.70349C12.5379 6.70359 11.5279 7.00997 10.6689 7.58388C9.80995 8.1578 9.14047 8.97348 8.74516 9.92777C8.34985 10.8821 8.24647 11.9321 8.4481 12.9452C8.64972 13.9582 9.14728 14.8887 9.87788 15.619C10.6085 16.3494 11.5393 16.8467 12.5526 17.0482C13.5659 17.2496 14.6163 17.1462 15.5708 16.7509C16.5253 16.3556 17.3411 15.6862 17.9151 14.8274C18.4891 13.9686 18.7954 12.9589 18.7954 11.926C18.7955 11.2401 18.6604 10.5609 18.3979 9.92723C18.1354 9.29355 17.7505 8.71778 17.2654 8.2328C16.7802 7.74783 16.2043 7.36316 15.5704 7.10075C14.9365 6.83835 14.2571 6.70336 13.571 6.70349ZM13.5741 16.0885C12.7653 16.0885 11.9747 15.8487 11.3023 15.3995C10.6298 14.9503 10.1057 14.3119 9.79623 13.5649C9.48673 12.8179 9.40575 11.996 9.56353 11.203C9.72131 10.41 10.1108 9.68156 10.6826 9.10984C11.2545 8.53812 11.9831 8.14878 12.7763 7.99104C13.5695 7.8333 14.3917 7.91426 15.1389 8.22367C15.8861 8.53308 16.5247 9.05705 16.974 9.72932C17.4233 10.4016 17.6631 11.192 17.6631 12.0005C17.663 13.0847 17.2322 14.1244 16.4653 14.891C15.6985 15.6576 14.6585 16.0884 13.5741 16.0885Z" fill="#4592CF"/>
<path fill-rule="evenodd" clip-rule="evenodd" d="M13.6806 5C12.2957 5 10.942 5.41054 9.79055 6.17971C8.6391 6.94888 7.74165 8.04213 7.2117 9.32122C6.68174 10.6003 6.54308 12.0078 6.81325 13.3656C7.08342 14.7235 7.75029 15.9708 8.72951 16.9497C9.70874 17.9287 10.9564 18.5954 12.3146 18.8655C13.6728 19.1356 15.0807 18.997 16.3601 18.4672C17.6395 17.9373 18.733 17.0401 19.5024 15.889C20.2718 14.7378 20.6824 13.3845 20.6824 12C20.6824 10.1435 19.9447 8.36301 18.6316 7.05025C17.3185 5.7375 15.5376 5 13.6806 5ZM13.6806 18.05C12.4837 18.05 11.3137 17.6952 10.3185 17.0304C9.3233 16.3656 8.54765 15.4207 8.08962 14.3152C7.63159 13.2097 7.51175 11.9933 7.74525 10.8197C7.97875 9.64612 8.55511 8.56811 9.40144 7.722C10.2478 6.8759 11.3261 6.29969 12.5 6.06625C13.6739 5.83281 14.8906 5.95262 15.9964 6.41053C17.1022 6.86844 18.0474 7.64388 18.7123 8.6388C19.3773 9.63372 19.7322 10.8034 19.7322 12C19.7322 12.7945 19.5757 13.5812 19.2715 14.3152C18.9674 15.0493 18.5217 15.7162 17.9597 16.278C17.3978 16.8398 16.7306 17.2854 15.9964 17.5895C15.2622 17.8935 14.4753 18.05 13.6806 18.05Z" fill="#8F3F97"/>
<path fill-rule="evenodd" clip-rule="evenodd" d="M4.62988 14.8268C5.26703 14.9843 5.92107 15.0633 6.5774 15.0618C8.00835 15.0741 9.4139 14.6837 10.6335 13.9353C11.7095 13.2911 12.5313 12.2967 12.9611 11.1188C13.2987 10.1332 13.2764 9.06002 12.8981 8.08932H5.4396C5.22513 8.09025 5.01971 8.17583 4.86806 8.32744C4.71641 8.47905 4.6308 8.68442 4.62988 8.89882V14.8268Z" fill="#0C2848"/>
<path fill-rule="evenodd" clip-rule="evenodd" d="M5.03814 8.12039H13.7114C13.9795 8.12118 14.2364 8.22801 14.426 8.41753C14.6156 8.60705 14.7224 8.86387 14.7232 9.13189V15.1504C14.7224 15.4184 14.6156 15.6752 14.426 15.8648C14.2364 16.0543 13.9795 16.1611 13.7114 16.1619H5.03814C4.77004 16.1611 4.51315 16.0543 4.32358 15.8648C4.13401 15.6752 4.02716 15.4184 4.02637 15.1504V9.13189C4.02768 8.86403 4.1347 8.60751 4.32416 8.41811C4.51362 8.2287 4.7702 8.12171 5.03814 8.12039Z" fill="#1F4393"/>
<path fill-rule="evenodd" clip-rule="evenodd" d="M10.8226 10.7476H14.7737V13.5341H10.8226C10.4528 13.5327 10.0985 13.385 9.83718 13.1234C9.57585 12.8617 9.42866 12.5074 9.42773 12.1376C9.42984 11.7687 9.57756 11.4155 9.83876 11.1548C10.1 10.8941 10.4535 10.7471 10.8226 10.7456V10.7476Z" fill="#00CC00"/>
<path fill-rule="evenodd" clip-rule="evenodd" d="M14.7225 11.0699H10.8215C10.5378 11.0699 10.2658 11.1826 10.0652 11.3831C9.86464 11.5836 9.75195 11.8556 9.75195 12.1392C9.75195 12.4227 9.86464 12.6947 10.0652 12.8952C10.2658 13.0958 10.5378 13.2084 10.8215 13.2084H14.7225V11.0699Z" fill="#00CC00"/>
<path fill-rule="evenodd" clip-rule="evenodd" d="M10.7342 11.6717C10.8268 11.672 10.9173 11.6997 10.9942 11.7514C11.0711 11.803 11.131 11.8763 11.1663 11.9619C11.2016 12.0476 11.2107 12.1417 11.1926 12.2326C11.1744 12.3234 11.1298 12.4068 11.0643 12.4723C10.9988 12.5378 10.9154 12.5825 10.8245 12.6006C10.7337 12.6188 10.6395 12.6096 10.5539 12.5743C10.4683 12.539 10.395 12.4791 10.3433 12.4022C10.2917 12.3253 10.264 12.2348 10.2637 12.1422C10.2633 12.0803 10.2753 12.019 10.2988 11.9618C10.3223 11.9045 10.357 11.8525 10.4007 11.8088C10.4445 11.765 10.4965 11.7304 10.5537 11.7068C10.611 11.6833 10.6723 11.6714 10.7342 11.6717Z" fill="#FCFCFC"/>
<path d="M6.34242 16.1538C6.47469 16.1524 6.60119 16.0994 6.69498 16.0062C6.78878 15.9129 6.84247 15.7868 6.84462 15.6546C6.84677 15.5223 6.79721 15.3945 6.7065 15.2983C6.61579 15.202 6.49108 15.145 6.35893 15.1393L5.97033 15.1338C5.91067 15.1307 5.85224 15.1156 5.79851 15.0895C5.74479 15.0633 5.69686 15.0267 5.65757 14.9817C5.61828 14.9367 5.58843 14.8843 5.56979 14.8275C5.55115 14.7708 5.5441 14.7109 5.54905 14.6514C5.55401 14.5918 5.57088 14.5339 5.59865 14.481C5.62643 14.4282 5.66454 14.3814 5.71073 14.3435C5.75693 14.3057 5.81026 14.2774 5.86757 14.2606C5.92488 14.2437 5.98499 14.2385 6.04435 14.2453H7.50473C7.5678 14.2526 7.6317 14.2465 7.69224 14.2274C7.75278 14.2082 7.80859 14.1765 7.856 14.1343C7.90341 14.0921 7.94135 14.0403 7.96733 13.9824C7.99331 13.9245 8.00674 13.8617 8.00674 13.7983C8.00674 13.7348 7.99331 13.672 7.96733 13.6141C7.94135 13.5562 7.90341 13.5045 7.856 13.4622C7.80859 13.42 7.75278 13.3883 7.69224 13.3692C7.6317 13.3501 7.5678 13.344 7.50473 13.3513H6.16438C6.10131 13.3586 6.03741 13.3525 5.97687 13.3334C5.91633 13.3142 5.86052 13.2825 5.81311 13.2403C5.7657 13.1981 5.72776 13.1463 5.70178 13.0884C5.6758 13.0305 5.66237 12.9677 5.66237 12.9043C5.66237 12.8408 5.6758 12.778 5.70178 12.7201C5.72776 12.6622 5.7657 12.6105 5.81311 12.5682C5.86052 12.526 5.91633 12.4943 5.97687 12.4752C6.03741 12.4561 6.10131 12.45 6.16438 12.4573H6.65101C6.71407 12.4646 6.77797 12.4585 6.83851 12.4394C6.89905 12.4202 6.95486 12.3885 7.00227 12.3463C7.04968 12.3041 7.08762 12.2523 7.1136 12.1944C7.13958 12.1365 7.15302 12.0737 7.15302 12.0103C7.15302 11.9468 7.13958 11.884 7.1136 11.8261C7.08762 11.7682 7.04968 11.7165 7.00227 11.6742C6.95486 11.632 6.89905 11.6003 6.83851 11.5812C6.77797 11.5621 6.71407 11.556 6.65101 11.5633H6.08286C6.01979 11.5706 5.95589 11.5645 5.89535 11.5454C5.83481 11.5262 5.779 11.4945 5.73159 11.4523C5.68418 11.4101 5.64624 11.3583 5.62026 11.3004C5.59428 11.2425 5.58085 11.1797 5.58085 11.1163C5.58085 11.0528 5.59428 10.99 5.62026 10.9321C5.64624 10.8742 5.68418 10.8225 5.73159 10.7802C5.779 10.738 5.83481 10.7063 5.89535 10.6872C5.95589 10.6681 6.01979 10.662 6.08286 10.6693H7.73329C7.79636 10.6766 7.86026 10.6705 7.9208 10.6514C7.98134 10.6322 8.03715 10.6005 8.08456 10.5583C8.13197 10.5161 8.16991 10.4643 8.19589 10.4064C8.22187 10.3485 8.2353 10.2857 8.2353 10.2223C8.2353 10.1588 8.22187 10.096 8.19589 10.0381C8.16991 9.98022 8.13197 9.92845 8.08456 9.88624C8.03715 9.84402 7.98134 9.81231 7.9208 9.79319C7.86026 9.77406 7.79636 9.76796 7.73329 9.77528H5.91281C5.84972 9.77986 5.78636 9.7711 5.72688 9.74957C5.6674 9.72803 5.61313 9.69421 5.56761 9.65029C5.52208 9.60638 5.48633 9.55336 5.46268 9.4947C5.43903 9.43605 5.42801 9.37306 5.43034 9.30986C5.43267 9.24666 5.44831 9.18466 5.47622 9.12791C5.50413 9.07115 5.5437 9.02092 5.59234 8.98048C5.64098 8.94004 5.69759 8.9103 5.7585 8.89321C5.81941 8.87612 5.88324 8.87205 5.94582 8.88128H6.81005C7.54575 8.88128 7.54575 7.98978 6.81005 7.98978H5.77377C4.80302 7.98978 3.94129 8.23978 4.0068 9.58378V14.4238C3.91378 16.3238 4.78901 16.1463 5.76277 16.1463H6.34242V16.1538Z" fill="#FFC10E"/>
</svg>
