<svg width="25" height="24" viewBox="0 0 25 24" fill="none" xmlns="http://www.w3.org/2000/svg">
<rect width="24.6826" height="24" rx="4" fill="#1C1E38"/>
<path d="M15.5739 14.0003C16.6784 12.8961 16.6784 11.1058 15.5739 10.0016C14.4694 8.89742 12.6787 8.89742 11.5742 10.0016C10.4697 11.1058 10.4697 12.8961 11.5742 14.0003C12.6787 15.1045 14.4694 15.1045 15.5739 14.0003Z" fill="#FFC10E"/>
<path fill-rule="evenodd" clip-rule="evenodd" d="M13.5712 6.70361C12.538 6.70371 11.5281 7.01009 10.6691 7.58401C9.8101 8.15792 9.14062 8.9736 8.74531 9.9279C8.35001 10.8822 8.24663 11.9322 8.44825 12.9453C8.64987 13.9583 9.14744 14.8888 9.87803 15.6192C10.6086 16.3495 11.5394 16.8468 12.5528 17.0483C13.5661 17.2498 14.6164 17.1463 15.5709 16.751C16.5254 16.3557 17.3413 15.6864 17.9152 14.8275C18.4892 13.9687 18.7956 12.959 18.7956 11.9261C18.7957 11.2402 18.6606 10.561 18.398 9.92736C18.1355 9.29367 17.7507 8.7179 17.2655 8.23293C16.7804 7.74795 16.2044 7.36328 15.5705 7.10088C14.9367 6.83847 14.2573 6.70348 13.5712 6.70361ZM13.5742 16.0886C12.7655 16.0886 11.9749 15.8489 11.3024 15.3997C10.63 14.9505 10.1059 14.312 9.79638 13.565C9.48688 12.818 9.40591 11.9961 9.56369 11.2031C9.72146 10.4101 10.1109 9.68168 10.6828 9.10996C11.2547 8.53824 11.9833 8.1489 12.7765 7.99116C13.5697 7.83343 14.3918 7.91438 15.139 8.22379C15.8862 8.5332 16.5248 9.05717 16.9742 9.72944C17.4235 10.4017 17.6633 11.1921 17.6633 12.0006C17.6632 13.0848 17.2323 14.1245 16.4655 14.8911C15.6987 15.6577 14.6587 16.0885 13.5742 16.0886Z" fill="#4592CF"/>
<path fill-rule="evenodd" clip-rule="evenodd" d="M13.6808 5C12.296 5 10.9422 5.41054 9.7908 6.17971C8.63934 6.94888 7.7419 8.04213 7.21194 9.32122C6.68199 10.6003 6.54333 12.0078 6.8135 13.3656C7.08367 14.7235 7.75053 15.9708 8.72976 16.9497C9.70899 17.9287 10.9566 18.5954 12.3148 18.8655C13.6731 19.1356 15.0809 18.997 16.3603 18.4672C17.6397 17.9373 18.7333 17.0401 19.5027 15.889C20.272 14.7378 20.6827 13.3845 20.6827 12C20.6827 10.1435 19.945 8.36301 18.6319 7.05025C17.3188 5.7375 15.5378 5 13.6808 5ZM13.6808 18.05C12.4839 18.05 11.3139 17.6952 10.3187 17.0304C9.32355 16.3656 8.5479 15.4207 8.08986 14.3152C7.63183 13.2097 7.51199 11.9933 7.74549 10.8197C7.979 9.64612 8.55535 8.56811 9.40169 7.722C10.248 6.8759 11.3263 6.29969 12.5002 6.06625C13.6741 5.83281 14.8909 5.95262 15.9967 6.41053C17.1025 6.86844 18.0476 7.64388 18.7126 8.6388C19.3775 9.63372 19.7324 10.8034 19.7324 12C19.7324 12.7945 19.5759 13.5812 19.2718 14.3152C18.9677 15.0493 18.5219 15.7162 17.96 16.278C17.398 16.8398 16.7309 17.2854 15.9967 17.5895C15.2625 17.8935 14.4755 18.05 13.6808 18.05Z" fill="#8F3F97"/>
<path fill-rule="evenodd" clip-rule="evenodd" d="M4.63028 14.8269C5.26742 14.9844 5.92146 15.0633 6.5778 15.0619C8.00875 15.0741 9.4143 14.6838 10.6339 13.9354C11.7099 13.2911 12.5316 12.2968 12.9615 11.1189C13.2991 10.1333 13.2767 9.06005 12.8985 8.08936H5.44C5.22553 8.09028 5.02011 8.17586 4.86846 8.32747C4.71681 8.47908 4.6312 8.68445 4.63028 8.89886V14.8269Z" fill="#0C2848"/>
<path fill-rule="evenodd" clip-rule="evenodd" d="M5.03774 8.12012H13.7111C13.9791 8.12091 14.236 8.22773 14.4256 8.41725C14.6152 8.60678 14.722 8.86359 14.7228 9.13162V15.1501C14.722 15.4181 14.6152 15.675 14.4256 15.8645C14.236 16.054 13.9791 16.1608 13.7111 16.1616H5.03774C4.76965 16.1608 4.51276 16.054 4.32319 15.8645C4.13361 15.675 4.02676 15.4181 4.02597 15.1501V9.13162C4.02729 8.86376 4.1343 8.60724 4.32376 8.41783C4.51322 8.22842 4.76981 8.12143 5.03774 8.12012Z" fill="#1F4393"/>
<path fill-rule="evenodd" clip-rule="evenodd" d="M10.8223 10.7476H14.7733V13.5341H10.8223C10.4524 13.5327 10.0982 13.385 9.83685 13.1234C9.57551 12.8617 9.42832 12.5074 9.4274 12.1376C9.4295 11.7686 9.57722 11.4154 9.83843 11.1548C10.0996 10.8941 10.4532 10.747 10.8223 10.7456V10.7476Z" fill="#00CC00"/>
<path fill-rule="evenodd" clip-rule="evenodd" d="M14.7225 11.0698H10.8215C10.5378 11.0698 10.2658 11.1825 10.0652 11.383C9.86464 11.5835 9.75195 11.8555 9.75195 12.1391C9.75195 12.4227 9.86464 12.6946 10.0652 12.8951C10.2658 13.0957 10.5378 13.2083 10.8215 13.2083H14.7225V11.0698Z" fill="#00CC00"/>
<path fill-rule="evenodd" clip-rule="evenodd" d="M10.7346 11.6719C10.8273 11.6722 10.9177 11.6999 10.9946 11.7515C11.0715 11.8032 11.1314 11.8765 11.1667 11.9621C11.202 12.0477 11.2112 12.1419 11.193 12.2327C11.1749 12.3236 11.1303 12.407 11.0648 12.4725C10.9993 12.538 10.9158 12.5827 10.825 12.6008C10.7342 12.6189 10.64 12.6098 10.5543 12.5745C10.4687 12.5392 10.3955 12.4793 10.3438 12.4024C10.2922 12.3255 10.2644 12.235 10.2641 12.1424C10.2638 12.0805 10.2757 12.0192 10.2993 11.9619C10.3228 11.9047 10.3574 11.8527 10.4012 11.8089C10.445 11.7652 10.497 11.7305 10.5542 11.707C10.6114 11.6835 10.6728 11.6716 10.7346 11.6719Z" fill="#FCFCFC"/>
<path d="M6.34242 16.1537C6.47469 16.1523 6.60119 16.0994 6.69498 16.0061C6.78878 15.9129 6.84247 15.7867 6.84462 15.6545C6.84677 15.5223 6.79721 15.3945 6.7065 15.2982C6.61579 15.202 6.49108 15.1449 6.35893 15.1392L5.97033 15.1337C5.91067 15.1306 5.85224 15.1156 5.79851 15.0894C5.74479 15.0633 5.69686 15.0267 5.65757 14.9817C5.61828 14.9367 5.58843 14.8843 5.56979 14.8275C5.55115 14.7708 5.5441 14.7109 5.54905 14.6513C5.55401 14.5918 5.57088 14.5339 5.59865 14.481C5.62643 14.4281 5.66454 14.3814 5.71073 14.3435C5.75693 14.3056 5.81026 14.2774 5.86757 14.2605C5.92488 14.2437 5.98499 14.2385 6.04435 14.2452H7.50473C7.5678 14.2526 7.6317 14.2465 7.69224 14.2273C7.75278 14.2082 7.80859 14.1765 7.856 14.1343C7.90341 14.0921 7.94135 14.0403 7.96733 13.9824C7.99331 13.9245 8.00674 13.8617 8.00674 13.7982C8.00674 13.7348 7.99331 13.672 7.96733 13.6141C7.94135 13.5562 7.90341 13.5044 7.856 13.4622C7.80859 13.42 7.75278 13.3883 7.69224 13.3692C7.6317 13.35 7.5678 13.3439 7.50473 13.3512H6.16438C6.10131 13.3586 6.03741 13.3525 5.97687 13.3333C5.91633 13.3142 5.86052 13.2825 5.81311 13.2403C5.7657 13.1981 5.72776 13.1463 5.70178 13.0884C5.6758 13.0305 5.66237 12.9677 5.66237 12.9042C5.66237 12.8408 5.6758 12.778 5.70178 12.7201C5.72776 12.6622 5.7657 12.6104 5.81311 12.5682C5.86052 12.526 5.91633 12.4943 5.97687 12.4752C6.03741 12.456 6.10131 12.4499 6.16438 12.4572H6.65101C6.71407 12.4646 6.77797 12.4585 6.83851 12.4393C6.89905 12.4202 6.95486 12.3885 7.00227 12.3463C7.04968 12.3041 7.08762 12.2523 7.1136 12.1944C7.13958 12.1365 7.15302 12.0737 7.15302 12.0102C7.15302 11.9468 7.13958 11.884 7.1136 11.8261C7.08762 11.7682 7.04968 11.7164 7.00227 11.6742C6.95486 11.632 6.89905 11.6003 6.83851 11.5812C6.77797 11.562 6.71407 11.5559 6.65101 11.5632H6.08286C6.01979 11.5706 5.95589 11.5645 5.89535 11.5453C5.83481 11.5262 5.779 11.4945 5.73159 11.4523C5.68418 11.4101 5.64624 11.3583 5.62026 11.3004C5.59428 11.2425 5.58085 11.1797 5.58085 11.1162C5.58085 11.0528 5.59428 10.99 5.62026 10.9321C5.64624 10.8742 5.68418 10.8224 5.73159 10.7802C5.779 10.738 5.83481 10.7063 5.89535 10.6872C5.95589 10.668 6.01979 10.6619 6.08286 10.6692H7.73329C7.79636 10.6766 7.86026 10.6705 7.9208 10.6513C7.98134 10.6322 8.03715 10.6005 8.08456 10.5583C8.13197 10.5161 8.16991 10.4643 8.19589 10.4064C8.22187 10.3485 8.2353 10.2857 8.2353 10.2222C8.2353 10.1588 8.22187 10.096 8.19589 10.0381C8.16991 9.98019 8.13197 9.92842 8.08456 9.88621C8.03715 9.84399 7.98134 9.81228 7.9208 9.79316C7.86026 9.77403 7.79636 9.76793 7.73329 9.77525H5.91281C5.84972 9.77983 5.78636 9.77107 5.72688 9.74954C5.6674 9.728 5.61313 9.69418 5.56761 9.65026C5.52208 9.60635 5.48633 9.55333 5.46268 9.49467C5.43903 9.43602 5.42801 9.37303 5.43034 9.30983C5.43267 9.24663 5.44831 9.18463 5.47622 9.12788C5.50413 9.07112 5.5437 9.02089 5.59234 8.98045C5.64098 8.94001 5.69759 8.91027 5.7585 8.89318C5.81941 8.87608 5.88324 8.87202 5.94582 8.88125H6.81005C7.54575 8.88125 7.54575 7.98975 6.81005 7.98975H5.77377C4.80302 7.98975 3.94129 8.23975 4.0068 9.58375V14.4237C3.91378 16.3237 4.78901 16.1462 5.76277 16.1462H6.34242V16.1537Z" fill="#FFC10E"/>
</svg>
