<svg width="65" height="52" viewBox="0 0 65 52" fill="none" xmlns="http://www.w3.org/2000/svg">
<g clip-path="url(#clip0_5912_72545)">
<rect width="65" height="52" rx="2.95455" fill="white" fill-opacity="0.1"/>
<path d="M39.0488 13.6452C38.1462 13.6443 37.2807 13.2853 36.6424 12.6471C36.0042 12.0088 35.6452 11.1433 35.6443 10.2407V5.51367H20.4313C19.253 5.51367 18.1229 5.98179 17.2896 6.81502C16.4564 7.64825 15.9883 8.77833 15.9883 9.9567V36.7404C15.9883 37.9188 16.4564 39.0489 17.2896 39.8821C18.1229 40.7154 19.253 41.1835 20.4313 41.1835H38.6922C39.8705 41.1835 41.0006 40.7154 41.8339 39.8821C42.6671 39.0489 43.1352 37.9188 43.1352 36.7404V13.6452H39.0488Z" fill="#E8FAEF"/>
<path d="M43.1355 13.6452H39.0491C38.1464 13.6443 37.281 13.2853 36.6427 12.6471C36.0044 12.0088 35.6454 11.1433 35.6445 10.2407V5.51367L43.1355 13.6452Z" fill="#40C057"/>
<path d="M46.3582 33.6836H25.7132C24.2487 33.6836 23.0615 34.8708 23.0615 36.3352V42.4904C23.0615 43.9549 24.2487 45.142 25.7132 45.142H46.3582C47.8226 45.142 49.0098 43.9549 49.0098 42.4904V36.3352C49.0098 34.8708 47.8226 33.6836 46.3582 33.6836Z" fill="#40C057"/>
<path d="M30.4239 40.7461V41.9464H29.1807V40.7461H30.4239Z" fill="white"/>
<path d="M34.0603 41.9452L33.0152 40.3998L32.1153 41.9452H30.74L32.3266 39.3894L30.6904 36.9805H32.1153L33.134 38.4763L34.0124 36.9805H35.3811L33.8159 39.4802L35.4868 41.9452H34.0603Z" fill="white"/>
<path d="M39.3183 41.2733C39.1759 41.5013 38.9714 41.684 38.7289 41.8C38.4337 41.9382 38.1103 42.0055 37.7845 41.9965C37.2929 42.017 36.8085 41.8736 36.4075 41.5886C36.2301 41.4555 36.085 41.2841 35.9829 41.0872C35.8809 40.8902 35.8245 40.6728 35.818 40.4511H37.096C37.1051 40.6183 37.1763 40.7761 37.2958 40.8936C37.4146 41.0044 37.5725 41.0637 37.7349 41.0587C37.8011 41.0625 37.8674 41.0533 37.9301 41.0315C37.9927 41.0097 38.0504 40.9757 38.0998 40.9315C38.1439 40.8888 38.1785 40.8374 38.2015 40.7805C38.2246 40.7237 38.2355 40.6626 38.2335 40.6013C38.2352 40.5431 38.2251 40.4852 38.2038 40.431C38.1825 40.3768 38.1505 40.3275 38.1097 40.286C38.0223 40.1975 37.9186 40.1269 37.8043 40.0779C37.6843 40.0251 37.5159 39.9607 37.2991 39.8847C37.0359 39.798 36.7789 39.6938 36.5297 39.5727C36.3249 39.4672 36.1491 39.313 36.0178 39.1236C35.8655 38.8944 35.7903 38.6225 35.8032 38.3476C35.7972 38.0752 35.8757 37.8076 36.0277 37.5815C36.1839 37.3606 36.3998 37.1888 36.6502 37.0862C36.9388 36.9688 37.2485 36.9126 37.5599 36.9211C38.0327 36.895 38.4998 37.0345 38.8808 37.3157C39.043 37.4476 39.1758 37.6119 39.2707 37.7982C39.3657 37.9844 39.4207 38.1884 39.4322 38.3971H38.1329C38.1184 38.251 38.0556 38.1139 37.9545 38.0075C37.9029 37.958 37.8417 37.9196 37.7747 37.8946C37.7077 37.8696 37.6363 37.8586 37.5649 37.8622C37.4411 37.8565 37.3195 37.8965 37.2231 37.9745C37.1787 38.0166 37.144 38.0681 37.1218 38.1251C37.0995 38.1822 37.0902 38.2436 37.0943 38.3047C37.0918 38.4157 37.1333 38.5231 37.2099 38.6035C37.292 38.6893 37.391 38.7573 37.5005 38.8033C37.6177 38.8545 37.7861 38.9205 38.0057 38.9998C38.2736 39.087 38.5346 39.1941 38.7867 39.3201C38.9925 39.4311 39.1699 39.5882 39.3051 39.7791C39.4592 40.012 39.5355 40.2877 39.523 40.5666C39.5208 40.8165 39.45 41.061 39.3183 41.2733Z" fill="white"/>
<path d="M41.3862 41.0256H42.9943V41.9452H40.1875V36.9805H41.3895L41.3862 41.0256Z" fill="white"/>
<path d="M35.6181 30.4189H23.5124C22.464 30.4189 21.6104 29.3754 21.6104 28.0909V19.3088C21.6104 18.0259 22.464 16.9824 23.5124 16.9824H35.623C36.6698 16.9824 37.5234 18.0259 37.5234 19.3088V28.0909C37.5184 29.3754 36.6648 30.4189 35.6181 30.4189ZM23.5124 18.1712C22.9989 18.1712 22.5829 18.6814 22.5829 19.3088V28.0909C22.5829 28.7183 22.9989 29.2284 23.5124 29.2284H35.623C36.1348 29.2284 36.5509 28.7183 36.5509 28.0909V19.3088C36.5509 18.6814 36.1348 18.1712 35.623 18.1712H23.5124Z" fill="#40C057"/>
<path d="M37.0333 25.1309H22.0928V26.3213H37.0333V25.1309Z" fill="#40C057"/>
<path d="M37.0333 21.0508H22.0928V22.2412H37.0333V21.0508Z" fill="#40C057"/>
<path d="M33.206 17.5762H32.0156V29.8222H33.206V17.5762Z" fill="#40C057"/>
<path d="M27.1084 17.5762H25.918V29.8222H27.1084V17.5762Z" fill="#40C057"/>
</g>
<defs>
<clipPath id="clip0_5912_72545">
<rect width="65" height="52" rx="2.95455" fill="white"/>
</clipPath>
</defs>
</svg>
