<svg width="68" height="68" viewBox="0 0 68 68" fill="none" xmlns="http://www.w3.org/2000/svg">
<path d="M41.2512 20.5621C40.2125 20.5611 39.2167 20.148 38.4822 19.4135C37.7477 18.679 37.3347 17.6832 37.3337 16.6445V11.2051H19.8299C19.1583 11.2048 18.4933 11.3369 17.8728 11.5937C17.2522 11.8505 16.6884 12.2271 16.2135 12.7019C15.7385 13.1766 15.3618 13.7403 15.1047 14.3607C14.8477 14.9812 14.7153 15.6461 14.7153 16.3177V47.1379C14.7153 47.8094 14.8477 48.4745 15.1047 49.0949C15.3618 49.7153 15.7385 50.279 16.2135 50.7538C16.6884 51.2286 17.2522 51.6051 17.8728 51.8619C18.4933 52.1187 19.1583 52.2508 19.8299 52.2505H40.8428C41.5142 52.2505 42.179 52.1183 42.7993 51.8614C43.4196 51.6045 43.9832 51.2278 44.458 50.7531C44.9327 50.2783 45.3093 49.7147 45.5662 49.0944C45.8231 48.4741 45.9554 47.8093 45.9554 47.1379V20.5621H41.2512Z" fill="#E8F2FF"/>
<path d="M45.9552 20.5621H41.2511C40.2124 20.5611 39.2165 20.148 38.482 19.4135C37.7476 18.679 37.3345 17.6832 37.3335 16.6445V11.2051L45.9552 20.5621Z" fill="#0072FF"/>
<path d="M39.5283 27.1135H19.9137C19.7252 27.1135 19.5445 27.0386 19.4113 26.9053C19.278 26.7721 19.2031 26.5913 19.2031 26.4029C19.2029 26.3094 19.2211 26.2168 19.2567 26.1304C19.2923 26.044 19.3446 25.9654 19.4106 25.8992C19.4766 25.833 19.555 25.7805 19.6413 25.7447C19.7277 25.7089 19.8202 25.6904 19.9137 25.6904H39.5283C39.7172 25.6904 39.8984 25.7655 40.0321 25.8991C40.1657 26.0327 40.2407 26.2139 40.2407 26.4029C40.2402 26.5915 40.1649 26.7723 40.0314 26.9055C39.8978 27.0387 39.7169 27.1135 39.5283 27.1135Z" fill="#0072FF"/>
<path d="M39.5283 31.3625H19.9137C19.7252 31.3625 19.5445 31.2876 19.4113 31.1544C19.278 31.0211 19.2031 30.8404 19.2031 30.6519C19.2029 30.5584 19.2211 30.4658 19.2567 30.3794C19.2923 30.293 19.3446 30.2144 19.4106 30.1482C19.4766 30.082 19.555 30.0296 19.6413 29.9937C19.7277 29.9579 19.8202 29.9395 19.9137 29.9395H39.5283C39.7172 29.9395 39.8984 30.0145 40.0321 30.1481C40.1657 30.2817 40.2407 30.463 40.2407 30.6519C40.2402 30.8405 40.1649 31.0212 40.0314 31.1544C39.8978 31.2876 39.7169 31.3625 39.5283 31.3625Z" fill="#0072FF"/>
<path d="M39.5283 35.6135H19.9137C19.8202 35.6135 19.7277 35.595 19.6413 35.5592C19.555 35.5234 19.4766 35.4709 19.4106 35.4047C19.3446 35.3385 19.2923 35.2599 19.2567 35.1735C19.2211 35.0871 19.2029 34.9945 19.2031 34.901C19.2031 34.7125 19.278 34.5318 19.4113 34.3986C19.5445 34.2653 19.7252 34.1904 19.9137 34.1904H39.5283C39.7169 34.1904 39.8978 34.2652 40.0314 34.3984C40.1649 34.5316 40.2402 34.7124 40.2407 34.901C40.2407 35.0899 40.1657 35.2712 40.0321 35.4048C39.8984 35.5384 39.7172 35.6135 39.5283 35.6135Z" fill="#0072FF"/>
<path d="M31.7919 39.8635H19.9137C19.8202 39.8635 19.7277 39.845 19.6413 39.8092C19.555 39.7734 19.4766 39.7208 19.4106 39.6546C19.3446 39.5884 19.2923 39.5099 19.2567 39.4235C19.2211 39.3371 19.2029 39.2445 19.2031 39.151C19.2031 38.9625 19.278 38.7818 19.4113 38.6485C19.5445 38.5153 19.7252 38.4404 19.9137 38.4404H31.7919C31.9803 38.4404 32.1611 38.5153 32.2943 38.6485C32.4276 38.7818 32.5024 38.9625 32.5024 39.151C32.5027 39.2445 32.4845 39.3371 32.4489 39.4235C32.4133 39.5099 32.361 39.5884 32.295 39.6546C32.229 39.7208 32.1506 39.7734 32.0642 39.8092C31.9779 39.845 31.8853 39.8635 31.7919 39.8635Z" fill="#0072FF"/>
<path d="M49.664 43.6191H25.9077C24.2225 43.6191 22.8564 44.9852 22.8564 46.6704V53.7532C22.8564 55.4384 24.2225 56.8045 25.9077 56.8045H49.664C51.3492 56.8045 52.7153 55.4384 52.7153 53.7532V46.6704C52.7153 44.9852 51.3492 43.6191 49.664 43.6191Z" fill="#0072FF"/>
<path d="M29.1963 51.7451V53.1263H27.7656V51.7451H29.1963Z" fill="white"/>
<path d="M34.6947 51.7487C34.4568 52.1807 34.0975 52.5334 33.6612 52.7632C33.1701 53.0144 32.6242 53.1391 32.0728 53.1261H29.9146V47.4131H32.0728C32.6246 47.3995 33.1713 47.5215 33.665 47.7684C34.0995 47.994 34.4578 48.343 34.6947 48.7716C34.9403 49.2276 35.064 49.7394 35.0538 50.2573C35.0636 50.777 34.9399 51.2904 34.6947 51.7487ZM33.209 51.4618C33.3634 51.3033 33.4831 51.1143 33.5603 50.9069C33.6375 50.6994 33.6706 50.4782 33.6574 50.2573C33.6707 50.0366 33.6376 49.8156 33.5604 49.6085C33.4832 49.4014 33.3635 49.2127 33.209 49.0546C32.8628 48.7511 32.4107 48.5968 31.9513 48.6253H31.2996V51.8893H31.9531C32.4116 51.9169 32.8626 51.7634 33.209 51.4618Z" fill="white"/>
<path d="M40.02 47.7004C40.4546 47.9473 40.8139 48.3079 41.0592 48.7435C41.3162 49.2035 41.4473 49.7232 41.4392 50.2501C41.4479 50.7782 41.3168 51.2993 41.0592 51.7605C40.8131 52.1977 40.4525 52.5597 40.0162 52.8073C39.572 53.061 39.0685 53.1921 38.557 53.1873C38.0456 53.1918 37.5422 53.0607 37.0979 52.8073C36.6617 52.5602 36.3016 52.1981 36.0568 51.7605C35.7983 51.2996 35.6672 50.7783 35.6768 50.2501C35.6669 49.723 35.7981 49.2028 36.0568 48.7435C36.3028 48.3078 36.6627 47.9473 37.0979 47.7004C37.5422 47.447 38.0456 47.3159 38.557 47.3204C39.0697 47.3156 39.5745 47.4467 40.02 47.7004ZM37.4741 49.0493C37.1938 49.3846 37.0512 49.8137 37.0751 50.2501C37.0512 50.6847 37.1938 51.1121 37.4741 51.4451C37.6106 51.5935 37.778 51.7102 37.9644 51.787C38.1508 51.8638 38.3518 51.8988 38.5532 51.8897C38.754 51.8983 38.9543 51.863 39.14 51.7862C39.3257 51.7094 39.4925 51.593 39.6286 51.4451C39.9102 51.1126 40.0542 50.6852 40.0313 50.2501C40.0541 49.8156 39.9116 49.3886 39.6324 49.055C39.4959 48.9065 39.3286 48.7898 39.1421 48.713C38.9557 48.6362 38.7547 48.6012 38.5532 48.6104C38.3523 48.6012 38.1518 48.6357 37.9655 48.7115C37.7792 48.7872 37.6115 48.9025 37.4741 49.0493Z" fill="white"/>
<path d="M46.6301 47.9305C47.1119 48.3226 47.4397 48.8724 47.5553 49.4827H46.0924C45.9937 49.2298 45.8208 49.0126 45.5965 48.8596C45.3601 48.7056 45.0826 48.6268 44.8005 48.6335C44.6142 48.6275 44.429 48.6645 44.2594 48.7416C44.0897 48.8187 43.94 48.9338 43.822 49.0781C43.5575 49.4165 43.4227 49.8383 43.442 50.2674C43.4227 50.6948 43.5575 51.1148 43.822 51.4511C43.941 51.5938 44.091 51.7075 44.2605 51.7836C44.4301 51.8596 44.6147 51.896 44.8005 51.8899C45.0827 51.8974 45.3604 51.8185 45.5965 51.6638C45.8196 51.5136 45.9924 51.2998 46.0924 51.0502H47.5553C47.4377 51.6587 47.1103 52.2067 46.6301 52.5986C46.1132 52.9932 45.4748 53.1948 44.8251 53.1686C44.3133 53.1794 43.8079 53.052 43.3622 52.8C42.9451 52.5575 42.6067 52.2 42.3876 51.7702C42.1521 51.2988 42.0347 50.7772 42.0456 50.2503C42.0349 49.7234 42.1522 49.2019 42.3876 48.7304C42.6067 48.3006 42.9451 47.9431 43.3622 47.7007C43.8079 47.4486 44.3133 47.3212 44.8251 47.332C45.4782 47.3147 46.1167 47.5265 46.6301 47.9305Z" fill="white"/>
</svg>
