<svg width="68" height="68" viewBox="0 0 68 68" fill="none" xmlns="http://www.w3.org/2000/svg">
<path d="M41.5373 20.3575C40.4986 20.3565 39.5026 19.9434 38.7681 19.2089C38.0336 18.4744 37.6205 17.4784 37.6195 16.4397V11H20.1129C18.7569 11 17.4564 11.5387 16.4975 12.4976C15.5387 13.4564 15 14.7569 15 16.1129V46.9347C15.002 48.2895 15.5416 49.588 16.5002 50.5452C17.4589 51.5024 18.7582 52.0401 20.1129 52.0401H41.1288C42.4835 52.0401 43.7829 51.5024 44.7415 50.5452C45.7001 49.588 46.2397 48.2895 46.2417 46.9347V20.3575H41.5373Z" fill="#FFEEEF"/>
<path d="M46.2418 20.3575H41.5374C40.4987 20.3565 39.5027 19.9434 38.7682 19.2089C38.0337 18.4744 37.6206 17.4784 37.6196 16.4397V11L46.2418 20.3575Z" fill="#FF3E4C"/>
<path d="M39.814 39.6594H20.1983C20.0094 39.6594 19.8281 39.5844 19.6945 39.4507C19.5609 39.3171 19.4858 39.1359 19.4858 38.9469C19.4863 38.7583 19.5616 38.5775 19.6952 38.4443C19.8288 38.3111 20.0097 38.2363 20.1983 38.2363H39.814C40.0024 38.2363 40.1832 38.3112 40.3164 38.4444C40.4497 38.5777 40.5246 38.7585 40.5246 38.9469C40.5248 39.0404 40.5066 39.133 40.471 39.2195C40.4354 39.3059 40.3831 39.3844 40.3171 39.4506C40.2511 39.5168 40.1727 39.5693 40.0863 39.6052C40 39.641 39.9074 39.6594 39.814 39.6594Z" fill="#FF3E4C"/>
<path d="M39.814 31.634H20.1983C20.0097 31.634 19.8288 31.5592 19.6952 31.426C19.5616 31.2928 19.4863 31.1121 19.4858 30.9234C19.4858 30.7345 19.5609 30.5532 19.6945 30.4196C19.8281 30.286 20.0094 30.2109 20.1983 30.2109H39.814C39.9074 30.2109 40 30.2294 40.0863 30.2652C40.1727 30.301 40.2511 30.3535 40.3171 30.4197C40.3831 30.4859 40.4354 30.5645 40.471 30.6509C40.5066 30.7373 40.5248 30.83 40.5246 30.9234C40.5246 31.1119 40.4497 31.2926 40.3164 31.4259C40.1832 31.5592 40.0024 31.634 39.814 31.634Z" fill="#FF3E4C"/>
<path d="M39.814 35.6477H20.1983C20.0094 35.6477 19.8281 35.5726 19.6945 35.439C19.5609 35.3054 19.4858 35.1242 19.4858 34.9352C19.4863 34.7466 19.5616 34.5658 19.6952 34.4326C19.8288 34.2994 20.0097 34.2246 20.1983 34.2246H39.814C40.0024 34.2246 40.1832 34.2995 40.3164 34.4327C40.4497 34.566 40.5246 34.7467 40.5246 34.9352C40.5248 35.0287 40.5066 35.1213 40.471 35.2077C40.4354 35.2942 40.3831 35.3727 40.3171 35.4389C40.2511 35.5051 40.1727 35.5576 40.0863 35.5934C40 35.6293 39.9074 35.6477 39.814 35.6477Z" fill="#FF3E4C"/>
<path d="M32.0772 27.6213H20.1983C20.0097 27.6213 19.8288 27.5466 19.6952 27.4133C19.5616 27.2801 19.4863 27.0994 19.4858 26.9107C19.4858 26.7218 19.5609 26.5406 19.6945 26.4069C19.8281 26.2733 20.0094 26.1982 20.1983 26.1982H32.0772C32.2658 26.1987 32.4465 26.274 32.5797 26.4076C32.713 26.5412 32.7878 26.7221 32.7878 26.9107C32.7873 27.0991 32.7122 27.2795 32.5791 27.4126C32.4459 27.5458 32.2655 27.6208 32.0772 27.6213Z" fill="#FF3E4C"/>
<path d="M32.0772 23.6086H20.1983C20.0097 23.6086 19.8288 23.5338 19.6952 23.4006C19.5616 23.2674 19.4863 23.0867 19.4858 22.898C19.4858 22.7091 19.5609 22.5278 19.6945 22.3942C19.8281 22.2606 20.0094 22.1855 20.1983 22.1855H32.0772C32.2658 22.186 32.4465 22.2613 32.5797 22.3949C32.713 22.5285 32.7878 22.7094 32.7878 22.898C32.7873 23.0864 32.7122 23.2668 32.5791 23.4C32.4459 23.5331 32.2655 23.6081 32.0772 23.6086Z" fill="#FF3E4C"/>
<path d="M49.9487 43.416H26.1911C24.5058 43.416 23.1396 44.7822 23.1396 46.4674V53.5506C23.1396 55.2359 24.5058 56.602 26.1911 56.602H49.9487C51.6339 56.602 53.0001 55.2359 53.0001 53.5506V46.4674C53.0001 44.7822 51.6339 43.416 49.9487 43.416Z" fill="#FF3E4C"/>
<path d="M30.9332 51.542V52.9233H29.5044V51.542H30.9332Z" fill="white"/>
<path d="M33.0346 50.9188V52.9232H31.6533V47.21H33.8915C34.5698 47.21 35.0885 47.379 35.4438 47.7153C35.6236 47.892 35.764 48.1047 35.8557 48.3395C35.9474 48.5743 35.9883 48.8259 35.9758 49.0776C35.9827 49.4098 35.9007 49.7378 35.7383 50.0276C35.5725 50.311 35.3266 50.5391 35.0315 50.6832C34.6757 50.8514 34.285 50.9328 33.8915 50.9207L33.0346 50.9188ZM34.5698 49.0776C34.5698 48.571 34.2924 48.3176 33.7376 48.3176H33.0346V49.8053H33.7376C34.2924 49.8104 34.5698 49.5678 34.5698 49.0776Z" fill="white"/>
<path d="M41.4348 51.5458C41.1969 51.9778 40.8375 52.3306 40.4012 52.5604C39.9102 52.8118 39.3642 52.9365 38.8128 52.9233H36.6562V47.21H38.8128C39.3646 47.1962 39.9114 47.3182 40.405 47.5653C40.8401 47.7902 41.1986 48.1394 41.4348 48.5685C41.682 49.0241 41.8064 49.5361 41.7958 50.0544C41.8061 50.5743 41.6817 51.0881 41.4348 51.5458ZM39.949 51.2589C40.1034 51.1004 40.2231 50.9114 40.3003 50.704C40.3775 50.4965 40.4106 50.2753 40.3974 50.0544C40.4106 49.8337 40.3776 49.6127 40.3004 49.4055C40.2232 49.1984 40.1035 49.0097 39.949 48.8516C39.6034 48.5484 39.1519 48.3941 38.6931 48.4222H38.0376V51.6864H38.6931C39.1516 51.7143 39.6027 51.5607 39.949 51.2589Z" fill="white"/>
<path d="M46.3045 47.21V48.3101H43.9618V49.5621H45.7706V50.6129H43.9618V52.9232H42.5786V47.21H46.3045Z" fill="white"/>
<path d="M39.4663 22.1855H36.1071C35.5215 22.1855 35.0469 22.6602 35.0469 23.2457V26.605C35.0469 27.1905 35.5215 27.6652 36.1071 27.6652H39.4663C40.0518 27.6652 40.5265 27.1905 40.5265 26.605V23.2457C40.5265 22.6602 40.0518 22.1855 39.4663 22.1855Z" fill="#FF3E4C"/>
</svg>
