<svg width="68" height="68" viewBox="0 0 68 68" fill="none" xmlns="http://www.w3.org/2000/svg">
<path d="M41.5373 20.3575C40.4986 20.3565 39.5026 19.9434 38.7681 19.2089C38.0336 18.4744 37.6205 17.4784 37.6195 16.4397V11H20.1129C18.7569 11 17.4564 11.5387 16.4976 12.4976C15.5387 13.4564 15 14.7569 15 16.1129V46.9347C15 48.2907 15.5387 49.5913 16.4976 50.5501C17.4564 51.509 18.7569 52.0477 20.1129 52.0477H41.1269C41.7985 52.0479 42.4636 51.9158 43.0841 51.659C43.7047 51.4021 44.2685 51.0256 44.7435 50.5508C45.2185 50.076 45.5953 49.5123 45.8524 48.8918C46.1094 48.2714 46.2417 47.6063 46.2417 46.9347V20.3575H41.5373Z" fill="#FFEEEF"/>
<path d="M46.2418 20.3575H41.5374C40.4987 20.3565 39.5027 19.9434 38.7682 19.2089C38.0337 18.4744 37.6206 17.4784 37.6196 16.4397V11L46.2418 20.3575Z" fill="#FF3E4C"/>
<path d="M49.9487 43.416H26.191C24.5058 43.416 23.1396 44.7822 23.1396 46.4674V53.5506C23.1396 55.2359 24.5058 56.602 26.191 56.602H49.9487C51.6339 56.602 53.0001 55.2359 53.0001 53.5506V46.4674C53.0001 44.7822 51.6339 43.416 49.9487 43.416Z" fill="#FF3E4C"/>
<path d="M31.4917 51.542V52.9233H30.061V51.542H31.4917Z" fill="white"/>
<path d="M33.5932 50.9188V52.9232H32.2119V47.21H34.4501C35.1291 47.21 35.6458 47.3784 36.0005 47.7153C36.1805 47.8919 36.3212 48.1046 36.4132 48.3394C36.5052 48.5742 36.5465 48.8257 36.5344 49.0776C36.5404 49.4097 36.4585 49.7375 36.2969 50.0276C36.1308 50.3115 35.8842 50.5397 35.5882 50.6832C35.2326 50.8521 34.8417 50.9335 34.4482 50.9207L33.5932 50.9188ZM35.1284 49.0776C35.1284 48.571 34.851 48.3176 34.2962 48.3176H33.5932V49.8053H34.2962C34.851 49.8104 35.1284 49.5678 35.1284 49.0776Z" fill="white"/>
<path d="M38.5961 50.9188V52.9232H37.2129V47.21H39.4511C40.1313 47.21 40.6488 47.3784 41.0034 47.7153C41.1835 47.8919 41.3241 48.1046 41.4161 48.3394C41.5081 48.5742 41.5494 48.8257 41.5373 49.0776C41.5435 49.41 41.4609 49.7379 41.2979 50.0276C41.133 50.3118 40.8869 50.5401 40.5911 50.6832C40.2355 50.8521 39.8446 50.9335 39.4511 50.9207L38.5961 50.9188ZM40.1313 49.0776C40.1313 48.571 39.8539 48.3176 39.2991 48.3176H38.5961V49.8053H39.2991C39.8539 49.8104 40.1313 49.5678 40.1313 49.0776Z" fill="white"/>
<path d="M46.3216 47.21V48.3101H44.7692V52.9232H43.3804V48.3101H41.8433V47.21H46.3216Z" fill="white"/>
<path d="M29.1913 26.9085H20.8902C20.7016 26.9085 20.5206 26.8337 20.3871 26.7005C20.2535 26.5672 20.1782 26.3865 20.1777 26.1979C20.1777 26.0089 20.2528 25.8277 20.3864 25.694C20.52 25.5604 20.7013 25.4854 20.8902 25.4854H29.1837C29.3727 25.4854 29.554 25.5604 29.6876 25.694C29.8212 25.8277 29.8962 26.0089 29.8962 26.1979C29.8957 26.3852 29.8215 26.5648 29.6896 26.6978C29.5576 26.8308 29.3787 26.9065 29.1913 26.9085Z" fill="#FF3E4C"/>
<path d="M29.1913 31.1585H20.8902C20.7016 31.1585 20.5206 31.0836 20.3871 30.9504C20.2535 30.8172 20.1782 30.6365 20.1777 30.4479C20.1777 30.2589 20.2528 30.0776 20.3864 29.944C20.52 29.8104 20.7013 29.7354 20.8902 29.7354H29.1837C29.3727 29.7354 29.554 29.8104 29.6876 29.944C29.8212 30.0776 29.8962 30.2589 29.8962 30.4479C29.8957 30.6352 29.8215 30.8148 29.6896 30.9478C29.5576 31.0808 29.3787 31.1565 29.1913 31.1585Z" fill="#FF3E4C"/>
<path d="M29.1913 35.4095H20.8902C20.7013 35.4095 20.52 35.3345 20.3864 35.2008C20.2528 35.0672 20.1777 34.886 20.1777 34.697C20.1792 34.5091 20.255 34.3293 20.3884 34.1969C20.5219 34.0645 20.7023 33.9902 20.8902 33.9902H29.1837C29.3724 33.9902 29.5533 34.065 29.6869 34.1982C29.8204 34.3314 29.8957 34.5122 29.8962 34.7008C29.8952 34.8878 29.8208 35.067 29.6889 35.1995C29.5571 35.3321 29.3783 35.4075 29.1913 35.4095Z" fill="#FF3E4C"/>
<path d="M29.1913 39.6594H20.8902C20.7013 39.6594 20.52 39.5844 20.3864 39.4507C20.2528 39.3171 20.1777 39.1359 20.1777 38.9469C20.1782 38.7583 20.2535 38.5775 20.3871 38.4443C20.5206 38.3111 20.7016 38.2363 20.8902 38.2363H29.1837C29.3724 38.2363 29.5533 38.3111 29.6869 38.4443C29.8204 38.5775 29.8957 38.7583 29.8962 38.9469C29.8962 39.1346 29.8223 39.3146 29.6903 39.448C29.5583 39.5814 29.379 39.6574 29.1913 39.6594Z" fill="#FF3E4C"/>
<path d="M37.2776 33.4201V27.1045C35.739 27.1857 34.2902 27.8541 33.2297 28.9718C32.1692 30.0896 31.5779 31.5715 31.5776 33.1123C31.5774 33.9023 31.7328 34.6847 32.035 35.4146C32.3372 36.1445 32.7803 36.8078 33.3389 37.3664C33.8976 37.925 34.5608 38.3681 35.2908 38.6703C36.0207 38.9726 36.803 39.128 37.593 39.1277C39.1337 39.1279 40.6157 38.5366 41.7333 37.476C42.8508 36.4154 43.5186 34.9663 43.599 33.4277L37.2776 33.4201Z" fill="#FF3E4C"/>
<path d="M38.4292 26.624V32.324H44.1292C44.0531 30.8369 43.4281 29.431 42.3752 28.378C41.3223 27.3251 39.9163 26.7001 38.4292 26.624Z" fill="#FF3E4C"/>
</svg>
