<svg width="247" height="86" viewBox="0 0 247 86" fill="none" xmlns="http://www.w3.org/2000/svg">
<path d="M0 5C0 2.23858 2.23858 0 5 0H242C244.761 0 247 2.23858 247 5V53.5305C247 56.2919 244.761 58.5305 242 58.5305H231.304C229.354 58.5305 227.583 59.6634 226.765 61.433L215.786 85.1924C215.698 85.3828 215.412 85.32 215.412 85.1103V85.1103C215.412 85.0741 215.402 85.0386 215.383 85.0078L200.53 60.8831C199.629 59.419 198.039 58.5207 196.319 58.5047L4.95334 56.7186C2.21024 56.693 0 54.462 0 51.7188V5Z" fill="#AEB5E3"/>
</svg>
