<svg width="68" height="68" viewBox="0 0 68 68" fill="none" xmlns="http://www.w3.org/2000/svg">
<path d="M41.5373 20.3575C40.4984 20.3565 39.5022 19.9435 38.7674 19.209C38.0326 18.4746 37.6191 17.4786 37.6176 16.4397V11H20.1129C18.7569 11 17.4564 11.5387 16.4975 12.4976C15.5386 13.4564 15 14.7569 15 16.1129V46.9347C15 48.2907 15.5386 49.5913 16.4975 50.5501C17.4564 51.509 18.7569 52.0477 20.1129 52.0477H41.1269C42.4829 52.0477 43.7834 51.509 44.7422 50.5501C45.7011 49.5913 46.2398 48.2907 46.2398 46.9347V20.3575H41.5373Z" fill="#E8F2FF"/>
<path d="M46.2399 20.3575H41.5374C40.4985 20.3565 39.5023 19.9435 38.7675 19.209C38.0327 18.4746 37.6192 17.4786 37.6177 16.4397V11L46.2399 20.3575Z" fill="#A140FF"/>
<path d="M39.8139 26.9085H20.1964C20.0081 26.9079 19.8277 26.8329 19.6945 26.6998C19.5614 26.5666 19.4863 26.3862 19.4858 26.1979C19.4858 26.0092 19.5606 25.8283 19.6938 25.6947C19.827 25.5611 20.0078 25.4859 20.1964 25.4854H39.8139C40.0026 25.4859 40.1833 25.5611 40.3165 25.6947C40.4497 25.8283 40.5245 26.0092 40.5245 26.1979C40.524 26.3862 40.449 26.5666 40.3158 26.6998C40.1827 26.8329 40.0022 26.9079 39.8139 26.9085Z" fill="#A140FF"/>
<path d="M39.8139 31.1594H20.1964C20.0081 31.1589 19.8277 31.0839 19.6945 30.9507C19.5614 30.8176 19.4863 30.6371 19.4858 30.4488C19.4858 30.2602 19.5606 30.0792 19.6938 29.9457C19.827 29.8121 20.0078 29.7368 20.1964 29.7363H39.8139C40.0026 29.7368 40.1833 29.8121 40.3165 29.9457C40.4497 30.0792 40.5245 30.2602 40.5245 30.4488C40.524 30.6371 40.449 30.8176 40.3158 30.9507C40.1827 31.0839 40.0022 31.1589 39.8139 31.1594Z" fill="#A140FF"/>
<path d="M39.8139 35.4094H20.1964C20.0078 35.4089 19.827 35.3336 19.6938 35.2001C19.5606 35.0665 19.4858 34.8856 19.4858 34.6969C19.4863 34.5086 19.5614 34.3282 19.6945 34.195C19.8277 34.0619 20.0081 33.9868 20.1964 33.9863H39.8139C40.0022 33.9868 40.1827 34.0619 40.3158 34.195C40.449 34.3282 40.524 34.5086 40.5245 34.6969C40.5245 34.8856 40.4497 35.0665 40.3165 35.2001C40.1833 35.3336 40.0026 35.4089 39.8139 35.4094Z" fill="#A140FF"/>
<path d="M39.8139 39.6575H20.1964C20.008 39.6575 19.8272 39.5826 19.694 39.4493C19.5607 39.3161 19.4858 39.1353 19.4858 38.9469C19.4858 38.7582 19.5606 38.5773 19.6938 38.4437C19.827 38.3102 20.0078 38.2349 20.1964 38.2344H39.8139C40.0026 38.2349 40.1833 38.3102 40.3165 38.4437C40.4497 38.5773 40.5245 38.7582 40.5245 38.9469C40.5245 39.1353 40.4497 39.3161 40.3164 39.4493C40.1831 39.5826 40.0024 39.6575 39.8139 39.6575Z" fill="#A140FF"/>
<path d="M49.9487 43.416H26.1911C24.5058 43.416 23.1396 44.7822 23.1396 46.4674V53.5506C23.1396 55.2359 24.5058 56.602 26.1911 56.602H49.9487C51.6339 56.602 53.0001 55.2359 53.0001 53.5506V46.4674C53.0001 44.7822 51.6339 43.416 49.9487 43.416Z" fill="#A140FF"/>
<path d="M31.2564 51.542V52.9233H29.8257V51.542H31.2564Z" fill="white"/>
<path d="M36.0804 47.21V48.3101H34.528V52.9232H33.1392V48.3101H31.6021V47.21H36.0804Z" fill="white"/>
<path d="M40.1293 52.9232L38.9247 51.1449L37.8892 52.9232H36.3065L38.1324 49.982L36.2495 47.21H37.8892L39.0615 48.9313L40.0723 47.21H41.6474L39.8462 50.0865L41.769 52.9232H40.1293Z" fill="white"/>
<path d="M46.407 47.21V48.3101H44.8566V52.9232H43.4658V48.3101H41.9307V47.21H46.407Z" fill="white"/>
</svg>
