<svg width="68" height="68" viewBox="0 0 68 68" fill="none" xmlns="http://www.w3.org/2000/svg">
<path d="M41.5374 20.3575C40.4986 20.3565 39.5027 19.9434 38.7682 19.2089C38.0337 18.4744 37.6205 17.4784 37.6195 16.4397V11H20.1129C18.7569 11 17.4564 11.5387 16.4976 12.4976C15.5387 13.4564 15 14.7569 15 16.1129V46.9348C15 48.2908 15.5387 49.5913 16.4976 50.5502C17.4564 51.509 18.7569 52.0477 20.1129 52.0477H41.1269C42.483 52.0477 43.7835 51.509 44.7423 50.5502C45.7012 49.5913 46.2399 48.2908 46.2399 46.9348V20.3575H41.5374Z" fill="#E8FAEF"/>
<path d="M46.24 20.3575H41.5375C40.4987 20.3565 39.5028 19.9434 38.7683 19.2089C38.0337 18.4744 37.6206 17.4784 37.6196 16.4397V11L46.24 20.3575Z" fill="#40C057"/>
<path d="M49.9487 43.416H26.1911C24.5058 43.416 23.1396 44.7822 23.1396 46.4674V53.5506C23.1396 55.2359 24.5058 56.602 26.1911 56.602H49.9487C51.6339 56.602 53.0001 55.2359 53.0001 53.5506V46.4674C53.0001 44.7822 51.6339 43.416 49.9487 43.416Z" fill="#40C057"/>
<path d="M31.6119 51.542V52.9233H30.1812V51.542H31.6119Z" fill="white"/>
<path d="M35.7973 52.9232L34.5947 51.1449L33.5592 52.9232H31.9764L33.8023 49.982L31.9194 47.21H33.5592L34.7314 48.9313L35.7423 47.21H37.3173L35.5161 50.0865L37.4389 52.9232H35.7973Z" fill="white"/>
<path d="M41.847 52.1487C41.6831 52.4111 41.4478 52.6213 41.1687 52.7548C40.829 52.9139 40.4569 52.9913 40.0819 52.9809C39.5163 53.0046 38.9589 52.8395 38.4974 52.5116C38.2932 52.3584 38.1262 52.1611 38.0088 51.9345C37.8913 51.7079 37.8265 51.4577 37.819 51.2025H39.2896C39.3001 51.395 39.3821 51.5765 39.5195 51.7117C39.6563 51.8392 39.838 51.9075 40.0249 51.9017C40.1011 51.9062 40.1774 51.8955 40.2495 51.8704C40.3215 51.8453 40.3879 51.8062 40.4449 51.7554C40.4955 51.7062 40.5354 51.6471 40.5619 51.5816C40.5884 51.5162 40.6009 51.446 40.5987 51.3754C40.6006 51.3084 40.589 51.2418 40.5645 51.1794C40.54 51.1171 40.5032 51.0603 40.4562 51.0125C40.3556 50.9107 40.2363 50.8294 40.1047 50.7731C39.9667 50.7123 39.7729 50.6382 39.5233 50.5508C39.2205 50.451 38.9247 50.331 38.638 50.1917C38.4023 50.0703 38.2 49.8928 38.0489 49.6749C37.8736 49.4111 37.7871 49.0983 37.8019 48.7819C37.7951 48.4684 37.8853 48.1605 38.0603 47.9003C38.2401 47.6461 38.4886 47.4483 38.7766 47.3303C39.1087 47.1952 39.4652 47.1305 39.8236 47.1403C40.3676 47.1103 40.9051 47.2709 41.3436 47.5944C41.5302 47.7462 41.683 47.9353 41.7923 48.1496C41.9016 48.3639 41.9649 48.5987 41.9781 48.8389H40.4828C40.4662 48.6707 40.394 48.513 40.2776 48.3905C40.2182 48.3336 40.1478 48.2894 40.0707 48.2606C39.9936 48.2319 39.9114 48.2191 39.8293 48.2233C39.6868 48.2168 39.5468 48.2628 39.4359 48.3525C39.3848 48.401 39.3449 48.4602 39.3193 48.5259C39.2937 48.5916 39.2829 48.6622 39.2877 48.7325C39.2848 48.8602 39.3326 48.9839 39.4207 49.0764C39.5153 49.1751 39.6291 49.2534 39.7551 49.3063C39.89 49.3652 40.0838 49.4412 40.3365 49.5324C40.6448 49.6328 40.9452 49.756 41.2352 49.901C41.4721 50.0288 41.6763 50.2095 41.8318 50.4292C42.0091 50.6972 42.0969 51.0145 42.0826 51.3355C42.0801 51.623 41.9986 51.9043 41.847 52.1487Z" fill="white"/>
<path d="M44.2275 51.865H46.0781V52.9232H42.8481V47.21H44.2314L44.2275 51.865Z" fill="white"/>
<path d="M37.5889 39.6605H23.658C22.4515 39.6605 21.4692 38.4597 21.4692 36.9815V26.8754C21.4692 25.3991 22.4515 24.1982 23.658 24.1982H37.5946C38.7992 24.1982 39.7815 25.3991 39.7815 26.8754V36.9815C39.7758 38.4597 38.7935 39.6605 37.5889 39.6605ZM23.658 25.5662C23.0671 25.5662 22.5884 26.1534 22.5884 26.8754V36.9815C22.5884 37.7035 23.0671 38.2906 23.658 38.2906H37.5946C38.1836 38.2906 38.6624 37.7035 38.6624 36.9815V26.8754C38.6624 26.1534 38.1836 25.5662 37.5946 25.5662H23.658Z" fill="#40C057"/>
<path d="M39.2175 33.5742H22.0244V34.9441H39.2175V33.5742Z" fill="#40C057"/>
<path d="M39.2175 28.877H22.0244V30.2469H39.2175V28.877Z" fill="#40C057"/>
<path d="M34.8133 24.8818H33.4434V38.9742H34.8133V24.8818Z" fill="#40C057"/>
<path d="M27.7967 24.8818H26.4268V38.9742H27.7967V24.8818Z" fill="#40C057"/>
</svg>
