<svg width="33" height="32" viewBox="0 0 33 32" fill="none" xmlns="http://www.w3.org/2000/svg">
<rect x="0.291504" width="32" height="32" rx="16" fill="#E84622"/>
<rect x="0.291504" width="32" height="32" rx="16" fill="url(#paint0_linear_2107_39398)"/>
<path fill-rule="evenodd" clip-rule="evenodd" d="M9.58513 10.6201C9.2915 11.0384 9.2915 12.2819 9.2915 14.7689V15.9937C9.2915 20.3789 12.5885 22.5069 14.6571 23.4105C15.2182 23.6557 15.4987 23.7782 16.2915 23.7782C17.0843 23.7782 17.3648 23.6557 17.926 23.4105C19.9945 22.5069 23.2915 20.3789 23.2915 15.9937V14.7689C23.2915 12.2819 23.2915 11.0384 22.9979 10.6201C22.7043 10.2017 21.535 9.80151 19.1966 9.00105L18.7511 8.84855C17.5321 8.43129 16.9226 8.22266 16.2915 8.22266C15.6604 8.22266 15.0509 8.43129 13.832 8.84855L13.3864 9.00105C11.048 9.80151 9.87875 10.2017 9.58513 10.6201ZM18.6248 16.5838C18.947 16.5838 19.2082 16.3226 19.2082 16.0004C19.2082 15.6783 18.947 15.4171 18.6248 15.4171H13.9582C13.636 15.4171 13.3748 15.6783 13.3748 16.0004C13.3748 16.3226 13.636 16.5838 13.9582 16.5838H18.6248Z" fill="white"/>
<defs>
<linearGradient id="paint0_linear_2107_39398" x1="16.2915" y1="0" x2="16.2915" y2="32" gradientUnits="userSpaceOnUse">
<stop offset="0.045" stop-color="#E84622"/>
<stop offset="1" stop-color="#9C1C00"/>
</linearGradient>
</defs>
</svg>
