<svg width="33" height="32" viewBox="0 0 33 32" fill="none" xmlns="http://www.w3.org/2000/svg">
<rect x="0.291504" width="32" height="32" rx="16" fill="#00B775"/>
<rect x="0.291504" width="32" height="32" rx="16" fill="url(#paint0_linear_2107_72548)"/>
<path fill-rule="evenodd" clip-rule="evenodd" d="M14.8488 11.4102H18.0352C20.2882 11.4102 21.4148 11.4102 22.1147 12.1101C22.8147 12.81 22.8147 13.9366 22.8147 16.1897V17.0306C22.8147 18.9469 22.8147 19.9051 22.3388 20.675C21.8629 21.445 21.0059 21.8735 19.2919 22.7305C17.8934 23.4298 17.1942 23.7794 16.442 23.7794C15.6898 23.7794 14.9906 23.4298 13.5921 22.7305C11.8781 21.8735 11.0211 21.445 10.5452 20.675C10.0693 19.9051 10.0693 18.9469 10.0693 17.0306V16.1897C10.0693 13.9366 10.0693 12.81 10.7693 12.1101C11.4692 11.4102 12.5958 11.4102 14.8488 11.4102ZM16.442 14.5965C16.2157 14.5965 16.0644 14.868 15.7617 15.411L15.6834 15.5515C15.5973 15.7058 15.5543 15.7829 15.4873 15.8339C15.4202 15.8848 15.3367 15.9037 15.1697 15.9414L15.0176 15.9759C14.4298 16.1089 14.1359 16.1753 14.066 16.4002C13.996 16.6251 14.1964 16.8594 14.5971 17.328L14.7008 17.4492C14.8147 17.5823 14.8716 17.6489 14.8972 17.7313C14.9228 17.8137 14.9142 17.9025 14.897 18.0802L14.8813 18.2419C14.8208 18.8671 14.7905 19.1797 14.9735 19.3187C15.1566 19.4576 15.4318 19.3309 15.9821 19.0775L16.1245 19.012C16.2809 18.94 16.3591 18.904 16.442 18.904C16.5249 18.904 16.6031 18.94 16.7595 19.012L16.9019 19.0775C17.4522 19.3309 17.7274 19.4576 17.9105 19.3187C18.0935 19.1797 18.0632 18.8671 18.0026 18.2419L17.987 18.0802C17.9698 17.9025 17.9611 17.8137 17.9868 17.7313C18.0124 17.6489 18.0693 17.5823 18.1832 17.4492L18.2869 17.3279C18.6876 16.8594 18.8879 16.6251 18.818 16.4002C18.7481 16.1753 18.4542 16.1089 17.8664 15.9759L17.7143 15.9414C17.5473 15.9037 17.4638 15.8848 17.3967 15.8339C17.3297 15.7829 17.2866 15.7058 17.2006 15.5515L17.1223 15.411C16.8196 14.868 16.6683 14.5965 16.442 14.5965Z" fill="white"/>
<path d="M15.6452 8.22266H17.2384C18.7405 8.22266 19.4915 8.22266 19.9581 8.68928C20.2878 9.01898 20.3846 9.49066 20.4129 10.2689C19.7591 10.214 18.9861 10.2141 18.1137 10.2141H14.77C13.8976 10.2141 13.1246 10.214 12.4707 10.2689C12.4991 9.49066 12.5958 9.01898 12.9255 8.68928C13.3922 8.22266 14.1432 8.22266 15.6452 8.22266Z" fill="white"/>
<defs>
<linearGradient id="paint0_linear_2107_72548" x1="16.2915" y1="0" x2="16.2915" y2="32" gradientUnits="userSpaceOnUse">
<stop offset="0.045" stop-color="#00B775"/>
<stop offset="1" stop-color="#007A4E"/>
</linearGradient>
</defs>
</svg>
