<svg width="33" height="33" viewBox="0 0 33 33" fill="none" xmlns="http://www.w3.org/2000/svg">
<rect x="0.291504" y="0.875" width="32" height="32" rx="16" fill="#0E78F9"/>
<rect x="0.291504" y="0.875" width="32" height="32" rx="16" fill="url(#paint0_linear_2107_40921)"/>
<path fill-rule="evenodd" clip-rule="evenodd" d="M9.58513 11.4951C9.2915 11.9134 9.2915 13.1569 9.2915 15.6439V16.8687C9.2915 21.2539 12.5885 23.3819 14.6571 24.2855C15.2182 24.5307 15.4987 24.6532 16.2915 24.6532C17.0843 24.6532 17.3648 24.5307 17.926 24.2855C19.9945 23.3819 23.2915 21.2539 23.2915 16.8687V15.6439C23.2915 13.1569 23.2915 11.9134 22.9979 11.4951C22.7043 11.0767 21.535 10.6765 19.1966 9.87605L18.7511 9.72355C17.5321 9.30629 16.9226 9.09766 16.2915 9.09766C15.6604 9.09766 15.0509 9.30629 13.832 9.72355L13.3864 9.87605C11.048 10.6765 9.87875 11.0767 9.58513 11.4951ZM15.4058 14.0469L15.3039 14.2298C15.1919 14.4307 15.1359 14.5311 15.0486 14.5974C14.9613 14.6637 14.8526 14.6883 14.6351 14.7375L14.4371 14.7823C13.6719 14.9554 13.2893 15.042 13.1983 15.3347C13.1072 15.6275 13.3681 15.9325 13.8898 16.5425L14.0247 16.7003C14.173 16.8737 14.2471 16.9604 14.2804 17.0676C14.3138 17.1748 14.3026 17.2905 14.2802 17.5218L14.2598 17.7324C14.1809 18.5463 14.1415 18.9533 14.3798 19.1342C14.6181 19.3151 14.9763 19.1501 15.6928 18.8202L15.8782 18.7349C16.0818 18.6411 16.1836 18.5943 16.2915 18.5943C16.3994 18.5943 16.5012 18.6411 16.7048 18.7349L16.8902 18.8202C17.6067 19.1501 17.9649 19.3151 18.2032 19.1342C18.4416 18.9533 18.4021 18.5463 18.3232 17.7324L18.3028 17.5218C18.2804 17.2905 18.2692 17.1748 18.3026 17.0676C18.3359 16.9604 18.41 16.8737 18.5583 16.7003L18.6933 16.5425C19.2149 15.9325 19.4758 15.6275 19.3848 15.3347C19.2937 15.042 18.9111 14.9554 18.1459 14.7823L17.9479 14.7375C17.7304 14.6883 17.6217 14.6637 17.5344 14.5974C17.4471 14.5311 17.3911 14.4307 17.2791 14.2298L17.1772 14.0469C16.7831 13.34 16.5861 12.9865 16.2915 12.9865C15.9969 12.9865 15.7999 13.34 15.4058 14.0469Z" fill="white"/>
<defs>
<linearGradient id="paint0_linear_2107_40921" x1="16.2915" y1="0.875" x2="16.2915" y2="32.875" gradientUnits="userSpaceOnUse">
<stop offset="0.045" stop-color="#0E78F9"/>
<stop offset="1" stop-color="#003678"/>
</linearGradient>
</defs>
</svg>
