<svg width="33" height="32" viewBox="0 0 33 32" fill="none" xmlns="http://www.w3.org/2000/svg">
<rect x="0.291504" width="32" height="32" rx="16" fill="#00ABF4"/>
<rect x="0.291504" width="32" height="32" rx="16" fill="url(#paint0_linear_2107_40901)"/>
<path fill-rule="evenodd" clip-rule="evenodd" d="M12.4026 8.22266C12.7247 8.22266 12.9859 8.48382 12.9859 8.80599V9.98269C13.5033 9.97266 14.0833 9.97266 14.7359 9.97266H17.847C18.4996 9.97266 19.0796 9.97266 19.597 9.98269V8.80599C19.597 8.48382 19.8582 8.22266 20.1803 8.22266C20.5025 8.22266 20.7637 8.48382 20.7637 8.80599V10.0343C21.8832 10.1239 22.6181 10.3439 23.158 10.8839C23.6979 11.4238 23.9179 12.1587 24.0076 13.2782H8.57532C8.66496 12.1587 8.88496 11.4238 9.4249 10.8839C9.96483 10.3439 10.6997 10.1239 11.8192 10.0343V8.80599C11.8192 8.48382 12.0804 8.22266 12.4026 8.22266ZM8.52371 14.4449C8.51367 14.9623 8.51367 15.5423 8.51367 16.1949V17.7504C8.51367 20.6836 8.51367 22.1502 9.4249 23.0614C10.3361 23.9727 11.8027 23.9727 14.7359 23.9727H17.847C20.7802 23.9727 22.2468 23.9727 23.158 23.0614C23.5982 22.6213 23.8257 22.0516 23.9433 21.2496L19.7765 21.2496L20.3139 21.8228C20.5343 22.0579 20.5223 22.427 20.2873 22.6474C20.0523 22.8677 19.6831 22.8558 19.4628 22.6208L18.0044 21.0652C17.7941 20.8408 17.7941 20.4917 18.0044 20.2673L19.4628 18.7117C19.6831 18.4767 20.0523 18.4648 20.2873 18.6851C20.5223 18.9055 20.5343 19.2746 20.3139 19.5096L19.7765 20.0829H24.0421C24.0692 19.4283 24.0692 18.6598 24.0692 17.7504V16.1949C24.0692 15.5423 24.0692 14.9623 24.0592 14.4449H8.52371ZM20.9581 16.9727C20.9581 17.4022 20.6099 17.7504 20.1803 17.7504C19.7508 17.7504 19.4026 17.4022 19.4026 16.9727C19.4026 16.5431 19.7508 16.1949 20.1803 16.1949C20.6099 16.1949 20.9581 16.5431 20.9581 16.9727ZM16.2914 17.7504C16.721 17.7504 17.0692 17.4022 17.0692 16.9727C17.0692 16.5431 16.721 16.1949 16.2914 16.1949C15.8619 16.1949 15.5137 16.5431 15.5137 16.9727C15.5137 17.4022 15.8619 17.7504 16.2914 17.7504ZM13.1803 16.9727C13.1803 17.4022 12.8321 17.7504 12.4026 17.7504C11.973 17.7504 11.6248 17.4022 11.6248 16.9727C11.6248 16.5431 11.973 16.1949 12.4026 16.1949C12.8321 16.1949 13.1803 16.5431 13.1803 16.9727ZM13.1803 20.0838C13.1803 20.5133 12.8321 20.8615 12.4026 20.8615C11.973 20.8615 11.6248 20.5133 11.6248 20.0838C11.6248 19.6542 11.973 19.306 12.4026 19.306C12.8321 19.306 13.1803 19.6542 13.1803 20.0838Z" fill="white"/>
<defs>
<linearGradient id="paint0_linear_2107_40901" x1="16.2915" y1="0" x2="16.2915" y2="32" gradientUnits="userSpaceOnUse">
<stop offset="0.045" stop-color="#00ABF4"/>
<stop offset="1" stop-color="#005F87"/>
</linearGradient>
</defs>
</svg>
