<svg width="127" height="116" viewBox="0 0 127 116" fill="none" xmlns="http://www.w3.org/2000/svg">
<g clip-path="url(#clip0_1553_124605)">
<path d="M35.4681 53.1758L119.999 53.1758V50.1151L35.4681 50.1151V53.1758Z" fill="#407BFF"/>
<path d="M112.105 113.902H111.116L106.407 53.1758H108.723L112.105 113.902Z" fill="#263238"/>
<path d="M121.432 113.902H120.443L115.734 53.1758H118.05L121.432 113.902Z" fill="#263238"/>
<path d="M43.3618 113.902H44.3467L49.056 53.1758H46.7402L43.3618 113.902Z" fill="#263238"/>
<path d="M34.0347 113.902H35.0196L39.7289 53.1758H37.4131L34.0347 113.902Z" fill="#263238"/>
<path d="M107.106 32.682C104.642 31.623 101.14 28.5164 103.897 25.3357C105.5 23.4859 107.106 32.682 107.106 32.682Z" fill="#407BFF"/>
<path d="M111.021 37.8145C111.021 37.8145 111.004 37.8145 110.993 37.8145C110.894 37.8004 110.831 37.7086 110.845 37.6098C111.032 36.459 110.756 35.2869 110.467 34.0443C109.892 31.5873 109.298 29.0456 112.359 26.5674C112.437 26.5038 112.55 26.5179 112.61 26.5956C112.673 26.6733 112.659 26.7862 112.582 26.8462C109.694 29.1832 110.237 31.5061 110.813 33.9631C111.099 35.1846 111.392 36.4448 111.198 37.6663C111.184 37.7545 111.109 37.8181 111.021 37.8181V37.8145Z" fill="#407BFF"/>
<path opacity="0.2" d="M111.021 37.8145C111.021 37.8145 111.004 37.8145 110.993 37.8145C110.894 37.8004 110.831 37.7086 110.845 37.6098C111.032 36.459 110.756 35.2869 110.467 34.0443C109.892 31.5873 109.298 29.0456 112.359 26.5674C112.437 26.5038 112.55 26.5179 112.61 26.5956C112.673 26.6733 112.659 26.7862 112.582 26.8462C109.694 29.1832 110.237 31.5061 110.813 33.9631C111.099 35.1846 111.392 36.4448 111.198 37.6663C111.184 37.7545 111.109 37.8181 111.021 37.8181V37.8145Z" fill="black"/>
<path d="M113.316 37.6185C113.298 37.6185 113.277 37.6185 113.259 37.6079C113.168 37.5761 113.118 37.4737 113.15 37.382C113.891 35.218 114.601 33.4034 115.264 31.9455C114.463 30.6464 113.616 28.8212 112.74 26.4913C112.705 26.3995 112.751 26.2972 112.846 26.2619C112.938 26.2266 113.04 26.2725 113.076 26.3678C113.979 28.7683 114.77 30.424 115.445 31.5571C116.737 28.8142 117.863 27.4657 118.763 27.6104C119.458 27.7198 119.889 28.6942 119.91 30.2121C119.935 32.062 119.338 34.053 118.145 34.2789C117.347 34.4272 116.458 33.7565 115.494 32.3055C114.908 33.6117 114.241 35.3062 113.485 37.4985C113.461 37.5726 113.39 37.6185 113.316 37.6185ZM115.667 31.9172C116.881 33.8235 117.697 33.9965 118.074 33.9259C119.028 33.7459 119.575 31.8996 119.55 30.2157C119.532 28.9448 119.194 28.0375 118.703 27.9599C118.385 27.9105 117.407 28.1576 115.667 31.9172Z" fill="#407BFF"/>
<path opacity="0.2" d="M113.316 37.6185C113.298 37.6185 113.277 37.6185 113.259 37.6079C113.168 37.5761 113.118 37.4737 113.15 37.382C113.891 35.218 114.601 33.4034 115.264 31.9455C114.463 30.6464 113.616 28.8212 112.74 26.4913C112.705 26.3995 112.751 26.2972 112.846 26.2619C112.938 26.2266 113.04 26.2725 113.076 26.3678C113.979 28.7683 114.77 30.424 115.445 31.5571C116.737 28.8142 117.863 27.4657 118.763 27.6104C119.458 27.7198 119.889 28.6942 119.91 30.2121C119.935 32.062 119.338 34.053 118.145 34.2789C117.347 34.4272 116.458 33.7565 115.494 32.3055C114.908 33.6117 114.241 35.3062 113.485 37.4985C113.461 37.5726 113.39 37.6185 113.316 37.6185ZM115.667 31.9172C116.881 33.8235 117.697 33.9965 118.074 33.9259C119.028 33.7459 119.575 31.8996 119.55 30.2157C119.532 28.9448 119.194 28.0375 118.703 27.9599C118.385 27.9105 117.407 28.1576 115.667 31.9172Z" fill="white"/>
<path d="M110.446 36.4593C110.382 36.4593 110.319 36.424 110.287 36.3639C110.086 35.9756 109.637 35.6438 109.118 35.2555C107.865 34.3164 106.146 33.0279 106.969 29.879C106.993 29.7837 107.092 29.7272 107.187 29.7519C107.283 29.7766 107.339 29.8755 107.315 29.9708C106.552 32.8867 108.095 34.0446 109.334 34.973C109.885 35.3861 110.361 35.7462 110.601 36.2016C110.647 36.2898 110.612 36.3957 110.527 36.4416C110.502 36.4557 110.471 36.4628 110.446 36.4628V36.4593Z" fill="#407BFF"/>
<path d="M115.066 36.6445C115.006 36.6445 114.95 36.6163 114.918 36.5633C114.865 36.4821 114.886 36.3692 114.971 36.3162C116.15 35.5466 115.885 33.8062 115.606 31.967C115.225 29.4606 114.794 26.6188 118.191 25.8986C118.286 25.8774 118.381 25.941 118.402 26.0363C118.424 26.1316 118.36 26.2269 118.265 26.2481C115.2 26.8977 115.568 29.337 115.959 31.9141C116.256 33.8698 116.535 35.7196 115.165 36.6163C115.133 36.6375 115.102 36.6445 115.066 36.6445Z" fill="#407BFF"/>
<path d="M111.346 34.9492C115.413 34.9492 118.706 35.2881 118.706 35.7012C118.706 38.0734 117.269 42.2249 116.733 46.8566C116.518 48.7134 114.947 50.1149 113.076 50.1149H109.616C107.745 50.1149 106.174 48.7134 105.959 46.8566C105.422 42.2285 103.985 38.0734 103.985 35.7012C103.985 35.2846 107.283 34.9492 111.346 34.9492Z" fill="#407BFF"/>
<path opacity="0.4" d="M111.346 34.9492C115.413 34.9492 118.706 35.2881 118.706 35.7012C118.706 38.0734 117.269 42.2249 116.733 46.8566C116.518 48.7134 114.947 50.1149 113.076 50.1149H109.616C107.745 50.1149 106.174 48.7134 105.959 46.8566C105.422 42.2285 103.985 38.0734 103.985 35.7012C103.985 35.2846 107.283 34.9492 111.346 34.9492Z" fill="white"/>
<path d="M117.626 26.1807C120.57 26.8232 128.51 25.0828 125.354 21.5667C123.518 19.5192 117.626 26.1807 117.626 26.1807Z" fill="#407BFF"/>
<path d="M111.988 27.0796C114.904 26.3171 121.188 21.163 116.782 19.4579C114.219 18.4695 111.988 27.0796 111.988 27.0796Z" fill="#407BFF"/>
<path opacity="0.2" d="M111.988 27.0796C114.904 26.3171 121.188 21.163 116.782 19.4579C114.219 18.4695 111.988 27.0796 111.988 27.0796Z" fill="black"/>
<path d="M106.749 31.6792C109.736 29.0139 113.192 22.9844 107.801 19.7684C104.667 17.8974 106.749 31.6792 106.749 31.6792Z" fill="#407BFF"/>
<path d="M113.291 27.4348C110.414 24.8578 108.292 16.3147 112.292 15.9441C115.797 15.6193 113.291 27.4348 113.291 27.4348Z" fill="#407BFF"/>
<path opacity="0.2" d="M113.291 27.4348C110.414 24.8578 108.292 16.3147 112.292 15.9441C115.797 15.6193 113.291 27.4348 113.291 27.4348Z" fill="white"/>
<path d="M86.4686 32.4336H76.75L79.8813 50.1128H92.0393L86.4686 32.4336Z" fill="#407BFF"/>
<path opacity="0.2" d="M86.4686 32.4336H76.75L78.4869 42.2581L89.2469 41.2449L86.4686 32.4336Z" fill="black"/>
<path d="M48.9883 6.65034L48.6694 12.8164L49.022 12.8346L49.3408 6.66857L48.9883 6.65034Z" fill="#407BFF"/>
<path d="M48.5486 15.2049L48.4146 17.7891L48.7671 17.8074L48.9012 15.2232L48.5486 15.2049Z" fill="#407BFF"/>
<path d="M104.166 39.4977H50.9303C49.603 39.4977 48.5757 38.414 48.6428 37.0866L50.3584 4.11815C50.429 2.7908 51.5693 1.70703 52.8966 1.70703H106.132C107.459 1.70703 108.487 2.79433 108.419 4.11815L106.704 37.0866C106.633 38.414 105.493 39.4977 104.166 39.4977Z" fill="#407BFF"/>
<path opacity="0.8" d="M51.0042 38.0876C50.4535 38.0876 50.0263 37.6393 50.0545 37.0886L51.7702 4.12014C51.7985 3.56943 52.2715 3.12109 52.8222 3.12109H106.057C106.608 3.12109 107.035 3.56943 107.007 4.12014L105.291 37.0886C105.263 37.6393 104.79 38.0876 104.239 38.0876H51.0042Z" fill="white"/>
<path d="M70.237 3.11328L69.3262 20.5983H87.7396L88.6504 3.11328H70.237Z" fill="white"/>
<path opacity="0.3" d="M106.061 3.11328H88.65L87.7393 20.5983H106.149L107.007 4.11233C107.035 3.56162 106.612 3.11328 106.057 3.11328H106.061Z" fill="#407BFF"/>
<path opacity="0.5" d="M50.9158 20.6016L50.058 37.0876C50.0297 37.6383 50.4534 38.0866 51.0076 38.0866H68.4185L69.3293 20.6016H50.9193H50.9158Z" fill="#407BFF"/>
<path opacity="0.6" d="M69.3258 20.6016L68.415 38.0866H86.8285L87.7393 20.6016H69.3258Z" fill="white"/>
<path d="M56.0171 19.9056C55.1064 19.5632 55.3076 18.8819 55.71 18.3523C55.6782 17.9923 55.6853 17.6851 55.7241 17.4062C53.7825 17.9817 52.0633 19.0513 50.916 20.5552V20.6046H56.2219C56.2078 20.5622 56.2007 20.5199 56.1866 20.474C56.1231 20.2728 56.0701 20.0857 56.0171 19.9056Z" fill="#263238"/>
<path d="M56.183 17.8549C56.6595 17.4595 57.0761 17.7314 57.355 17.11C57.362 17.0889 57.362 17.0641 57.3691 17.043C56.8431 17.1206 56.3242 17.2336 55.8193 17.3783C55.7805 17.636 55.7664 17.922 55.7911 18.2468C55.9182 18.095 56.0559 17.9608 56.183 17.8549Z" fill="#263238"/>
<path d="M69.3368 20.4358C68.7014 18.9461 67.4058 18.1412 65.8031 17.534C64.857 17.1775 63.7485 16.9657 62.5836 16.8633C62.6577 17.0363 62.7565 17.1951 62.8836 17.3328C62.9189 17.9047 62.4035 18.5083 61.5986 19.0096C61.6763 19.4227 61.7999 19.8957 61.9728 20.45C61.9905 20.5029 62.0011 20.5523 62.0187 20.6053H69.3333L69.3403 20.4358H69.3368Z" fill="#263238"/>
<path d="M61.5138 19.0547C60.3276 19.7607 58.559 20.2408 56.928 20.089C56.5997 20.0573 56.335 20.0043 56.1196 19.9372C56.1655 20.0996 56.2149 20.2691 56.2714 20.4456C56.2891 20.4985 56.2997 20.548 56.3173 20.6009H61.9268C61.9127 20.5585 61.9056 20.5162 61.8915 20.4703C61.722 19.9266 61.5985 19.4607 61.5208 19.0547H61.5138Z" fill="#263238"/>
<path d="M57.4365 16.7155C57.4436 16.6343 57.4471 16.5496 57.4471 16.4648C57.4471 16.5496 57.4471 16.6308 57.4365 16.7155Z" fill="#FFC3BD"/>
<path d="M61.5953 19.0043C62.4002 18.5066 62.9156 17.9029 62.8803 17.3275C62.7532 17.1898 62.6543 17.0345 62.5802 16.858C62.4002 16.4414 62.3613 15.9154 62.3966 15.3047C62.326 15.4353 62.259 15.5589 62.1954 15.6789C61.6482 16.6779 61.2776 17.3628 61.5918 19.0008L61.5953 19.0043Z" fill="#FFC3BD"/>
<path d="M57.4434 16.332C57.4434 16.3497 57.4504 16.3709 57.4504 16.3885C57.4504 16.3709 57.4504 16.3532 57.4469 16.3356L57.4434 16.332Z" fill="#FFC3BD"/>
<path d="M62.4105 14.5895C61.9163 15.2637 61.3303 15.7544 60.5289 16.051C60.4724 16.0721 60.423 16.0863 60.3665 16.1039C59.3004 16.8947 58.0931 17.2159 57.4117 16.8912C57.4188 16.8629 57.4188 16.8382 57.4223 16.81C57.4082 16.8876 57.3906 16.9618 57.3729 17.0359C57.3659 17.0571 57.3659 17.0818 57.3588 17.103C57.0799 17.7243 56.6598 17.4525 56.1868 17.8478C56.0597 17.9537 55.922 18.0879 55.7949 18.2397C55.8267 18.7021 55.9291 19.2458 56.1197 19.9342C56.335 20.0013 56.5998 20.0542 56.9281 20.086C58.5591 20.2378 60.3312 19.7577 61.5138 19.0516C61.182 17.3571 61.5597 16.6582 62.121 15.6379C62.2128 15.4685 62.3117 15.2884 62.414 15.0908C62.4282 14.9284 62.4458 14.7589 62.467 14.5859C62.4458 14.5859 62.4281 14.5859 62.407 14.5895H62.4105Z" fill="#FFC3BD"/>
<path d="M56.0169 19.9048C55.8475 19.2906 55.7487 18.7822 55.7098 18.3516C55.3074 18.8811 55.1062 19.5624 56.0169 19.9048Z" fill="#FFC3BD"/>
<path d="M56.1199 19.9355C55.9257 19.2507 55.8269 18.7035 55.7951 18.241C55.7704 17.9162 55.7845 17.6303 55.8233 17.3726C55.9186 16.7442 56.1799 16.2641 56.5011 15.6781C56.5011 15.6781 56.5011 15.6746 56.5046 15.671C56.4835 15.6463 56.4693 15.6146 56.4482 15.5898C56.4411 15.604 56.4305 15.6216 56.4235 15.6357C56.0881 16.2465 55.8198 16.7407 55.728 17.4008C55.6892 17.6797 55.6786 17.9868 55.7139 18.3469C55.7527 18.7776 55.8516 19.286 56.021 19.9002C56.0704 20.0802 56.1269 20.2673 56.1905 20.4686C56.2046 20.5145 56.2152 20.5533 56.2258 20.5992H56.3175C56.3034 20.5462 56.2893 20.4968 56.2717 20.4439C56.2152 20.2673 56.1658 20.0979 56.1199 19.9355Z" fill="white"/>
<path d="M57.4469 16.3886C57.4469 16.4133 57.4469 16.4381 57.4469 16.4663C57.4469 16.551 57.4469 16.6322 57.4363 16.7169C57.4328 16.7522 57.4293 16.784 57.4222 16.8193C57.4187 16.8476 57.4152 16.8723 57.4116 16.9005C58.0965 17.2253 59.3003 16.9005 60.3664 16.1133C59.1167 16.551 58.1494 16.5934 57.4434 16.3392C57.4434 16.3569 57.4434 16.3745 57.4469 16.3922V16.3886Z" fill="#FFC3BD"/>
<path opacity="0.2" d="M57.4469 16.3886C57.4469 16.4133 57.4469 16.4381 57.4469 16.4663C57.4469 16.551 57.4469 16.6322 57.4363 16.7169C57.4328 16.7522 57.4293 16.784 57.4222 16.8193C57.4187 16.8476 57.4152 16.8723 57.4116 16.9005C58.0965 17.2253 59.3003 16.9005 60.3664 16.1133C59.1167 16.551 58.1494 16.5934 57.4434 16.3392C57.4434 16.3569 57.4434 16.3745 57.4469 16.3922V16.3886Z" fill="black"/>
<path d="M56.8608 9.16705C56.8608 9.16705 56.8326 9.1847 56.8185 9.19176C56.7796 9.34003 56.7479 9.49182 56.7231 9.64009C56.822 9.42475 56.9279 9.21647 57.0444 9.01172C56.9808 9.05408 56.9208 9.1035 56.8573 9.16352L56.8608 9.16705Z" fill="#263238"/>
<path d="M59.4023 6.62211C59.3141 6.55504 59.2399 6.47385 59.1835 6.375C58.2374 6.58328 57.3654 7.61057 56.9453 8.78259C57.0583 8.71199 57.1712 8.65903 57.2736 8.62726C57.8279 7.75177 58.541 7.01749 59.4023 6.62211Z" fill="#263238"/>
<path d="M57.4401 16.3326C58.1496 16.5868 59.1134 16.5445 60.3631 16.1067C60.4196 16.0891 60.469 16.0749 60.5255 16.0538C61.3233 15.7572 61.9128 15.2665 62.407 14.5923C62.347 14.5993 62.2906 14.6029 62.2341 14.6064C61.348 14.6311 61.4327 13.9286 61.8881 13.2014C62.0293 12.979 62.2023 12.7213 62.3965 12.4953C61.8281 11.7363 61.6657 10.5078 62.4988 9.64647C63.7591 8.34736 63.2578 7.25653 62.2906 7.01295C61.4468 6.80113 60.0312 7.08355 59.3993 6.62109C58.538 7.01648 57.8249 7.75075 57.2706 8.62624C57.5495 8.54152 57.7648 8.57682 57.779 8.57682C57.846 8.58741 57.8884 8.65448 57.8743 8.72509C57.8602 8.79569 57.7931 8.84158 57.7225 8.82746C57.7048 8.82746 57.3836 8.77804 57.0412 9.01103C56.9282 9.21578 56.8188 9.42407 56.7199 9.63941C56.2363 10.6914 55.9468 11.8281 55.8621 12.7777C55.7632 13.9286 55.9362 14.9241 56.4375 15.5948C56.4587 15.6196 56.4728 15.6513 56.494 15.676C56.734 15.9726 57.0482 16.195 57.433 16.3326H57.4401ZM58.4073 10.3207L57.8955 12.1353C57.8955 12.1353 57.2918 12.4035 56.7058 11.8599C57.253 10.8997 58.4073 10.3207 58.4073 10.3207ZM59.9183 10.2996C60.0524 10.3384 60.1054 10.5396 60.0383 10.7479C59.9712 10.9562 59.8053 11.0938 59.6712 11.055C59.537 11.0162 59.4841 10.815 59.5511 10.6067C59.6182 10.3984 59.7841 10.2607 59.9183 10.2996ZM59.4911 12.6012C59.3817 12.686 59.2687 12.7566 59.1628 12.8166C58.4179 13.212 57.7437 13.0249 57.7119 13.0178C57.6766 13.0072 57.6554 12.9719 57.666 12.9366C57.6766 12.9013 57.7154 12.8837 57.7543 12.8942C57.7613 12.8942 58.598 13.1308 59.4029 12.5059C59.4346 12.4812 59.477 12.4883 59.5017 12.513C59.5264 12.5412 59.5229 12.5836 59.4911 12.6048V12.6012ZM60.536 10.9985C60.536 10.9985 61.0409 10.9456 61.3021 11.2774C60.8502 11.2209 60.536 10.9985 60.536 10.9985ZM60.5537 10.7797C60.5537 10.7797 61.0868 10.6102 61.461 10.8609C60.9561 10.9173 60.5537 10.7797 60.5537 10.7797ZM61.2174 9.31816C61.235 9.38523 61.1927 9.45584 61.1256 9.47702C61.1044 9.48408 61.0832 9.48408 61.062 9.47702C61.0197 9.46643 60.9844 9.43466 60.9738 9.38876C60.8432 8.84864 60.416 8.70391 60.3984 8.70038C60.3313 8.6792 60.2995 8.60859 60.3207 8.54152C60.3454 8.47444 60.416 8.43561 60.4831 8.45679C60.5078 8.46385 61.055 8.64036 61.2209 9.31816H61.2174ZM57.1753 9.92535C57.2424 9.71707 57.4083 9.57939 57.5424 9.61823C57.6766 9.65706 57.7295 9.85828 57.6625 10.0666C57.5954 10.2748 57.4295 10.4125 57.2953 10.3737C57.1612 10.3349 57.1082 10.1336 57.1753 9.92535Z" fill="#FFC3BD"/>
<path d="M59.4024 6.62009C60.0343 7.08254 61.4499 6.80013 62.2936 7.01194C63.2573 7.25552 63.7586 8.34282 62.5019 9.64546C61.6688 10.5033 61.8311 11.7353 62.3995 12.4943C62.7772 12.0531 63.2503 11.7177 63.7692 11.9295C64.154 12.0848 64.3588 12.3955 64.4047 12.745C65.612 11.9577 66.8193 10.4045 65.6367 9.80079C65.5096 9.77608 65.3613 9.73725 65.1884 9.67723C65.3755 9.7196 65.5308 9.71606 65.672 9.69135C66.6993 8.76644 65.3366 7.06489 64.1364 6.40122C64.7365 6.23883 64.3976 5.77284 64.3976 5.77284C64.3976 5.77284 64.5035 6.35179 62.9326 5.52926C61.3616 4.70672 58.7564 5.56456 59.187 6.36944C59.187 6.36944 59.187 6.36944 59.187 6.37297C59.24 6.47182 59.3141 6.55301 59.4059 6.62009H59.4024Z" fill="#263238"/>
<path d="M65.189 9.67617C65.3619 9.73971 65.5102 9.77855 65.6373 9.79973C66.601 9.9833 66.3645 9.20312 66.3645 9.20312C66.3645 9.20312 66.1598 9.60204 65.6726 9.68676C65.5349 9.71147 65.3761 9.715 65.189 9.67264V9.67617Z" fill="#263238"/>
<path d="M59.4063 12.4927C58.6014 13.1176 57.7647 12.8846 57.7577 12.881C57.7224 12.8704 57.6835 12.8881 57.6694 12.9234C57.6553 12.9587 57.6765 12.994 57.7153 13.0046C57.7471 13.0152 58.4214 13.2023 59.1662 12.8034C59.2757 12.7469 59.3851 12.6763 59.4945 12.588C59.5228 12.5633 59.5298 12.5245 59.5051 12.4962C59.4804 12.468 59.4381 12.4645 59.4063 12.4892V12.4927Z" fill="#263238"/>
<path d="M60.5537 10.7747C60.5537 10.7747 60.9562 10.9124 61.461 10.8559C61.0868 10.6053 60.5537 10.7747 60.5537 10.7747Z" fill="#FFC3BD"/>
<path opacity="0.2" d="M60.5537 10.7747C60.5537 10.7747 60.9562 10.9124 61.461 10.8559C61.0868 10.6053 60.5537 10.7747 60.5537 10.7747Z" fill="black"/>
<path d="M60.5396 10.9909C60.5396 10.9909 60.8537 11.2133 61.3056 11.2698C61.0408 10.9415 60.5396 10.9909 60.5396 10.9909Z" fill="#FFC3BD"/>
<path opacity="0.2" d="M60.5396 10.9909C60.5396 10.9909 60.8537 11.2133 61.3056 11.2698C61.0408 10.9415 60.5396 10.9909 60.5396 10.9909Z" fill="black"/>
<path d="M63.7696 11.928C63.2507 11.7162 62.7776 12.0551 62.3999 12.4929C62.2022 12.7223 62.0292 12.9765 61.8916 13.1989C61.4362 13.9226 61.3514 14.6286 62.2375 14.6039C62.294 14.6039 62.354 14.5969 62.4105 14.5898C62.4317 14.5898 62.4493 14.5898 62.4705 14.5863C62.5164 14.5792 62.5623 14.5722 62.6117 14.5616C62.6011 14.4239 62.6611 14.1874 62.7812 13.9297C62.8023 13.8873 62.8235 13.8449 62.8447 13.8061C62.7035 13.7037 62.6611 13.4813 62.76 13.266C62.8729 13.0259 63.1165 12.8953 63.3036 12.9765C63.4907 13.0577 63.5507 13.3154 63.4378 13.5555C63.406 13.6225 63.3636 13.679 63.3142 13.7249C63.286 13.8379 63.2401 13.965 63.1765 14.0991C63.1059 14.2474 63.0283 14.3745 62.9541 14.4733C63.3389 14.3462 63.7202 14.1238 64.0309 13.799C64.3239 13.4919 64.4509 13.0965 64.4086 12.74C64.3662 12.3905 64.1579 12.0798 63.7731 11.9245L63.7696 11.928Z" fill="#FFC3BD"/>
<path d="M63.2892 13.3554C63.3598 13.3836 63.3633 13.5319 63.3103 13.7296C63.3598 13.6801 63.4021 13.6272 63.4339 13.5601C63.5469 13.32 63.4869 13.0623 63.2998 12.9812C63.1127 12.9 62.8691 13.0306 62.7561 13.2706C62.6537 13.486 62.6996 13.7084 62.8408 13.8107C63.0032 13.5107 63.1903 13.3165 63.2892 13.3554Z" fill="white"/>
<path d="M63.3106 13.7315C63.3601 13.5338 63.3565 13.3855 63.2895 13.3573C63.1941 13.3149 63.0035 13.5126 62.8411 13.8127C62.8199 13.8515 62.7988 13.8939 62.7776 13.9362C62.6576 14.1904 62.5975 14.4304 62.6081 14.5681C62.6081 14.6034 62.6187 14.6352 62.6293 14.6564C62.6611 14.5858 62.6964 14.5187 62.7282 14.4446C62.7387 14.4234 62.7635 14.4128 62.7846 14.4234C62.8058 14.434 62.8164 14.4587 62.8058 14.4834C62.774 14.554 62.7423 14.6211 62.7105 14.6917C62.774 14.6776 62.8588 14.5999 62.947 14.4869C63.0247 14.3881 63.1024 14.2575 63.1694 14.1127C63.233 13.9786 63.2789 13.8515 63.3071 13.7385L63.3106 13.7315Z" fill="white"/>
<path d="M61.5949 19.0032C61.2807 17.3652 61.6514 16.6803 62.1986 15.6813C62.2621 15.5648 62.3292 15.4377 62.3998 15.3071C62.5022 15.1164 62.6081 14.9082 62.714 14.6787C62.7458 14.6116 62.7775 14.5446 62.8093 14.4704C62.8199 14.4492 62.8093 14.421 62.7881 14.4104C62.7669 14.3998 62.7387 14.4104 62.7316 14.4316C62.6999 14.5057 62.6646 14.5728 62.6328 14.6434C62.5587 14.7987 62.4881 14.947 62.4174 15.0847C62.3151 15.2824 62.2162 15.4624 62.1244 15.6319C61.5631 16.6556 61.1854 17.3546 61.5172 19.0455C61.5984 19.455 61.7185 19.9175 61.8879 20.4612C61.902 20.507 61.9126 20.5459 61.9232 20.5918H62.015C62.0009 20.5388 61.9868 20.4894 61.9691 20.4364C61.7926 19.8822 61.6726 19.4092 61.5949 18.9961V19.0032Z" fill="white"/>
<path d="M59.671 11.0511C59.8052 11.0899 59.9676 10.9522 60.0382 10.744C60.1052 10.5357 60.0523 10.3345 59.9181 10.2956C59.784 10.2568 59.6216 10.3945 59.551 10.6027C59.4839 10.811 59.5369 11.0122 59.671 11.0511Z" fill="#263238"/>
<path d="M57.2989 10.3675C57.4331 10.4063 57.5955 10.2686 57.6661 10.0604C57.7332 9.85208 57.6802 9.65086 57.5461 9.61202C57.4119 9.57319 57.2495 9.71087 57.1789 9.91915C57.1119 10.1274 57.1648 10.3287 57.2989 10.3675Z" fill="#263238"/>
<path d="M57.8952 12.1348L58.4071 10.3203C58.4071 10.3203 57.2527 10.8993 56.7056 11.8595C57.2916 12.4067 57.8952 12.1348 57.8952 12.1348Z" fill="#ED847E"/>
<path d="M60.3204 8.53193C60.2957 8.599 60.331 8.6696 60.3981 8.69078C60.4157 8.69784 60.8429 8.83905 60.9735 9.37917C60.9841 9.42506 61.0194 9.45684 61.0617 9.46743C61.0829 9.47096 61.1041 9.47096 61.1253 9.46743C61.1924 9.44625 61.2347 9.37564 61.2171 9.30857C61.0512 8.63077 60.504 8.45426 60.4793 8.4472C60.4122 8.42602 60.3416 8.46485 60.3169 8.53193H60.3204Z" fill="#263238"/>
<path d="M57.0481 9.01182C57.3906 8.77883 57.7153 8.82472 57.7295 8.82825C57.7965 8.83884 57.8636 8.79295 57.8813 8.72587C57.8989 8.6588 57.853 8.59173 57.786 8.57761C57.7718 8.57761 57.5565 8.5423 57.2776 8.62703C57.1752 8.6588 57.0623 8.70822 56.9493 8.78236C56.861 8.83884 56.7728 8.90238 56.6845 8.99064C56.6351 9.04359 56.6351 9.12126 56.6845 9.17068C56.7022 9.18833 56.7269 9.19892 56.7481 9.20245C56.7728 9.20598 56.7975 9.20245 56.8222 9.18833C56.8363 9.18127 56.8505 9.17421 56.8646 9.16362C56.9246 9.10007 56.9881 9.05418 57.0517 9.01182H57.0481Z" fill="#263238"/>
<path d="M77.975 16.025C77.9574 15.9121 77.9362 15.7956 77.9079 15.6826C77.8973 15.6332 77.8832 15.5802 77.8691 15.5308C77.8514 15.4673 77.8338 15.4002 77.8126 15.3367C77.0219 15.3155 76.3052 15.0154 75.7828 14.5C75.8993 15.7038 75.3026 16.6111 74.353 16.5616C74.7131 17.3842 75.7757 17.889 77.5514 17.6454C77.9927 17.1935 78.0633 16.6216 77.975 16.0286V16.025Z" fill="#263238"/>
<path d="M74.9459 12.0818C75.0306 11.104 75.3448 9.92136 75.8673 8.84465C75.7931 8.7564 75.7614 8.6399 75.7614 8.6399L75.9167 8.73875C76.1073 8.35749 76.3262 7.99388 76.5733 7.65851C76.425 7.67616 76.2485 7.72558 76.0579 7.85973C76.0297 7.88091 75.9943 7.88797 75.9626 7.88091C75.9343 7.87738 75.9061 7.85973 75.8884 7.83502C75.8496 7.78207 75.8673 7.7044 75.9202 7.66557C76.2415 7.43258 76.5486 7.39728 76.7569 7.4114C77.004 7.1078 77.2723 6.83245 77.5653 6.59945C77.417 6.59945 77.2758 6.62416 77.1452 6.69124C79.0691 4.92614 81.7344 5.21915 83.6478 7.35491C83.6054 7.39022 83.5595 7.41846 83.5172 7.45023C84.7069 8.1598 83.4748 15.5167 81.5156 15.8203C81.1484 15.8768 80.8025 15.845 80.4848 15.7532C80.573 16.4028 80.7495 16.9853 81.0496 17.3912C81.5156 17.0912 81.911 16.6781 82.0663 16.1875C82.8111 16.6252 84.2056 16.657 85.0952 15.2167C84.0255 15.5944 82.7476 14.7295 83.7784 13.1162C85.3141 10.7121 85.3564 8.09625 84.0926 7.06191C84.0926 7.06191 84.5339 4.51311 81.3038 4.43545C78.6808 4.3719 76.8487 5.96402 76.8487 5.96402C74.9106 5.71691 74.1869 9.10236 74.374 11.4146C74.5187 13.2186 73.7209 13.0915 73.4985 12.8797C73.3891 13.9846 74.2646 14.3094 75.4048 14.0446C75.0589 13.5151 74.8753 12.8514 74.9424 12.0889L74.9459 12.0818Z" fill="#263238"/>
<path d="M82.6489 17.6369C82.2288 17.6404 81.784 17.6545 81.3322 17.6863C81.3322 17.6863 80.845 17.9087 80.1354 18.3429C79.5282 18.8477 78.6457 19.635 77.749 20.5987H85.1483C85.1483 20.574 85.1554 20.5528 85.1589 20.5281C85.3884 18.9678 84.2199 17.6192 82.6489 17.6369Z" fill="#407BFF"/>
<path opacity="0.3" d="M82.6489 17.6369C82.2288 17.6404 81.784 17.6545 81.3322 17.6863C81.3322 17.6863 80.845 17.9087 80.1354 18.3429C79.5282 18.8477 78.6457 19.635 77.749 20.5987H85.1483C85.1483 20.574 85.1554 20.5528 85.1589 20.5281C85.3884 18.9678 84.2199 17.6192 82.6489 17.6369Z" fill="black"/>
<path d="M76.5877 18.2188C76.0794 18.3211 75.5534 18.4447 75.0521 18.5718C73.9366 18.8542 73.0364 19.6273 72.5527 20.6016H75.1827C75.271 19.825 75.5887 19.2637 75.9205 18.8789C76.2347 18.4129 76.5913 18.2188 76.5913 18.2188H76.5877Z" fill="#407BFF"/>
<path opacity="0.3" d="M76.5877 18.2188C76.0794 18.3211 75.5534 18.4447 75.0521 18.5718C73.9366 18.8542 73.0364 19.6273 72.5527 20.6016H75.1827C75.271 19.825 75.5887 19.2637 75.9205 18.8789C76.2347 18.4129 76.5913 18.2188 76.5913 18.2188H76.5877Z" fill="black"/>
<path d="M75.9204 18.8789C75.5921 19.2637 75.2709 19.825 75.1826 20.6016H75.4403C75.4368 19.8179 75.6627 19.2566 75.9169 18.8789H75.9204Z" fill="white"/>
<path d="M80.1391 18.3438C79.3413 18.8309 78.261 19.5864 77.269 20.5995H77.7527C78.6493 19.6323 79.5319 18.8486 80.1391 18.3438Z" fill="white"/>
<path d="M77.908 15.683C77.8974 15.6301 77.8833 15.5807 77.8691 15.5312C77.8833 15.5807 77.8974 15.6336 77.908 15.683Z" fill="#FFB573"/>
<path d="M81.3319 17.689C81.226 17.6042 81.1342 17.5019 81.0495 17.3854C80.7494 16.9794 80.5729 16.3969 80.4846 15.7474C80.0151 15.6132 79.6091 15.352 79.2738 15.0625C79.2596 15.066 79.2491 15.0696 79.2349 15.0766C78.9278 15.5355 78.4089 15.938 77.9747 16.0474C77.9747 16.0404 77.9747 16.0333 77.9711 16.0262C78.0594 16.6193 77.9888 17.1912 77.5475 17.6431C77.3286 17.869 77.018 18.0632 76.5873 18.2185C76.5873 18.2185 76.2343 18.4127 75.9166 18.8786C75.6624 19.2564 75.4365 19.8177 75.44 20.6014H77.2651C78.2571 19.5882 79.3373 18.8327 80.1351 18.3456C80.8447 17.9114 81.3319 17.689 81.3319 17.689Z" fill="#FFB573"/>
<path d="M77.9748 16.026C77.9571 15.9131 77.936 15.7966 77.9077 15.6836C77.936 15.8001 77.9571 15.9131 77.9748 16.026Z" fill="#263238"/>
<path opacity="0.2" d="M77.9748 16.026C77.9571 15.9131 77.936 15.7966 77.9077 15.6836C77.936 15.8001 77.9571 15.9131 77.9748 16.026Z" fill="black"/>
<path d="M77.8125 15.3315C77.8337 15.3951 77.8513 15.4622 77.869 15.5257C77.8831 15.5751 77.8972 15.6281 77.9078 15.6775C77.9361 15.794 77.9572 15.907 77.9749 16.0199C77.9749 16.027 77.9749 16.0341 77.9784 16.0411C78.4091 15.9317 78.928 15.5292 79.2387 15.0703C78.7551 15.2609 78.275 15.3421 77.816 15.328L77.8125 15.3315Z" fill="#FFB573"/>
<path opacity="0.2" d="M77.8125 15.3315C77.8337 15.3951 77.8513 15.4622 77.869 15.5257C77.8831 15.5751 77.8972 15.6281 77.9078 15.6775C77.9361 15.794 77.9572 15.907 77.9749 16.0199C77.9749 16.027 77.9749 16.0341 77.9784 16.0411C78.4091 15.9317 78.928 15.5292 79.2387 15.0703C78.7551 15.2609 78.275 15.3421 77.816 15.328L77.8125 15.3315Z" fill="black"/>
<path d="M77.8125 15.3345C78.2715 15.3486 78.7516 15.2674 79.2352 15.0768C79.2493 15.0733 79.2599 15.0697 79.274 15.0627C78.5963 14.4802 78.2044 13.7812 78.2044 13.7812C78.2044 13.7812 79.2317 14.3002 79.913 13.0752C79.4541 12.1326 80.1813 10.8017 80.8873 10.4946C80.7214 10.0922 80.7391 8.87425 81.3533 8.07643C79.8071 7.91051 78.5256 6.6114 77.569 6.59375C77.276 6.82674 77.0077 7.1021 76.7606 7.40569C76.9159 7.41628 77.0183 7.44806 77.0253 7.45159C77.0889 7.4763 77.1171 7.54337 77.0889 7.60691C77.0641 7.67046 76.99 7.70223 76.93 7.68105C76.9194 7.67752 76.7747 7.63163 76.5699 7.65281C76.3263 7.98818 76.1039 8.35179 75.9133 8.73305L76.1851 8.90249C76.1851 8.90249 76.1816 8.90249 76.1781 8.90249C76.2699 8.96957 76.3052 9.12843 76.2487 9.30141C76.1851 9.50263 76.0263 9.63677 75.8992 9.60147C75.7686 9.56617 75.7191 9.37554 75.7827 9.17432C75.8215 9.05782 75.8886 8.96957 75.9627 8.92015C75.9239 8.90249 75.8886 8.87425 75.8604 8.83895C75.3379 9.91566 75.0237 11.1018 74.939 12.0761C74.8719 12.8351 75.0555 13.4988 75.4014 14.0319C75.5109 14.1978 75.6344 14.3566 75.7756 14.4943C76.2981 15.0097 77.0147 15.3098 77.8055 15.331L77.8125 15.3345ZM79.0552 8.33766C79.0764 8.34119 79.6306 8.42945 79.8777 9.0437C79.9024 9.10372 79.8707 9.17785 79.8106 9.20609C79.7789 9.22021 79.7471 9.22021 79.7189 9.20962C79.6906 9.19903 79.6624 9.17785 79.6518 9.14608C79.4506 8.65185 79.0128 8.58125 79.0093 8.57772C78.9457 8.56713 78.8998 8.50711 78.914 8.44004C78.9281 8.37297 78.9916 8.32707 79.0587 8.33766H79.0552ZM78.2009 9.26963L78.6316 9.53793H78.6245C78.7163 9.605 78.7516 9.76386 78.6951 9.93684C78.6316 10.1381 78.4727 10.2722 78.3456 10.2369C78.215 10.2016 78.1656 10.011 78.2291 9.80975C78.2679 9.69326 78.335 9.605 78.4092 9.55558C78.2644 9.48498 78.2044 9.26963 78.2044 9.26963H78.2009ZM75.8251 10.9112C76.3299 10.597 76.9406 9.82741 76.9406 9.82741L76.4852 11.2395C76.4852 11.2395 76.0051 11.2289 75.8251 10.9112ZM76.7888 12.3586C76.7535 12.3515 76.7323 12.3127 76.7429 12.2738C76.7535 12.235 76.7923 12.2138 76.8276 12.2209C77.8231 12.4574 78.4939 11.8643 78.5009 11.8573C78.5292 11.829 78.5751 11.8326 78.5998 11.8573C78.6245 11.8855 78.621 11.9279 78.5927 11.9561C78.568 11.9808 78.0279 12.4574 77.1806 12.4115C77.0571 12.4044 76.9265 12.3868 76.7888 12.355V12.3586Z" fill="#FFB573"/>
<path d="M78.5998 11.8649C78.5751 11.8367 78.5292 11.8367 78.501 11.8649C78.4939 11.872 77.8267 12.4651 76.8277 12.2285C76.7889 12.2215 76.7536 12.2427 76.743 12.2815C76.7324 12.3203 76.7536 12.3556 76.7889 12.3662C76.9265 12.398 77.0572 12.4156 77.1807 12.4227C78.028 12.4686 78.5646 11.992 78.5928 11.9673C78.621 11.9426 78.6246 11.8967 78.5998 11.8685V11.8649Z" fill="#263238"/>
<path d="M78.2258 9.81089C78.1623 10.0121 78.2117 10.2027 78.3423 10.238C78.4729 10.2733 78.6282 10.1392 78.6918 9.93797C78.7483 9.765 78.713 9.60614 78.6212 9.53906C78.5329 9.58495 78.4623 9.58143 78.4058 9.55318C78.3317 9.60614 78.2611 9.69439 78.2258 9.80736V9.81089Z" fill="#263238"/>
<path d="M75.9664 8.9239C75.8923 8.97685 75.8217 9.06511 75.7863 9.17807C75.7228 9.3793 75.7722 9.56993 75.9028 9.60523C76.0335 9.64053 76.1888 9.50638 76.2523 9.30516C76.3088 9.13218 76.2735 8.97332 76.1817 8.90625C76.0935 8.95214 76.0229 8.94861 75.9664 8.92037V8.9239Z" fill="#263238"/>
<path d="M75.8675 8.84185C75.8958 8.87715 75.9275 8.90186 75.9699 8.92304C76.0264 8.95128 76.097 8.95481 76.1852 8.90892C76.1852 8.90892 76.1888 8.90892 76.1923 8.90892L75.9205 8.73947L75.7651 8.64062C75.7651 8.64062 75.7969 8.75712 75.871 8.84538L75.8675 8.84185Z" fill="#263238"/>
<path d="M75.8247 10.9119C76.0047 11.2296 76.4849 11.2402 76.4849 11.2402L76.9402 9.82812C76.9402 9.82812 76.326 10.5977 75.8247 10.9119Z" fill="#ED893E"/>
<path d="M81.5155 15.8193C83.4748 15.5157 84.7068 8.15879 83.5171 7.44922C82.7476 8.00699 82.0239 8.15173 81.3496 8.08112C80.7354 8.87895 80.7177 10.0969 80.8836 10.4993C80.1811 10.8064 79.4504 12.1373 79.9093 13.0799C79.228 14.3048 78.2007 13.7859 78.2007 13.7859C78.2007 13.7859 78.5925 14.4814 79.2703 15.0674C79.6057 15.3568 80.0152 15.6181 80.4812 15.7522C80.7989 15.844 81.1413 15.8758 81.512 15.8193H81.5155Z" fill="#263238"/>
<path d="M83.5175 7.44317C83.5599 7.4114 83.6058 7.38316 83.6481 7.34786C81.7348 5.21209 79.0695 4.91909 77.1455 6.68418C77.2761 6.61711 77.4173 6.58887 77.5656 6.5924C78.5223 6.61005 79.8037 7.90916 81.35 8.07508C82.0242 8.14921 82.7479 8.00094 83.5175 7.44317Z" fill="#263238"/>
<path d="M79.0057 8.57751C79.0057 8.57751 79.4505 8.65164 79.6482 9.14587C79.6623 9.17764 79.687 9.19882 79.7153 9.20941C79.7435 9.22001 79.7753 9.22001 79.8071 9.20588C79.8706 9.17764 79.8988 9.10704 79.8741 9.0435C79.627 8.42924 79.0763 8.34099 79.0516 8.33746C78.9845 8.32687 78.921 8.37276 78.9069 8.43983C78.8927 8.50691 78.9386 8.56692 79.0022 8.57751H79.0057Z" fill="#263238"/>
<path d="M75.9238 7.65921C75.8673 7.69804 75.8532 7.77571 75.892 7.82866C75.9097 7.85337 75.9379 7.87102 75.9662 7.87455C75.9979 7.88161 76.0332 7.87455 76.0615 7.85337C76.2486 7.71922 76.4286 7.66627 76.5769 7.65215C76.7816 7.63097 76.9228 7.67686 76.937 7.68039C77.0005 7.70157 77.0711 7.6698 77.0958 7.60626C77.1241 7.54271 77.0958 7.47211 77.0323 7.45093C77.0217 7.4474 76.9193 7.4121 76.7675 7.40504C76.5592 7.39092 76.2521 7.42622 75.9309 7.65921H75.9238Z" fill="#263238"/>
<path d="M78.6209 9.53783C78.6209 9.53783 78.6244 9.53783 78.6279 9.53783L78.1973 9.26953C78.1973 9.26953 78.2608 9.4884 78.402 9.55548C78.4585 9.58372 78.5291 9.58725 78.6174 9.54136L78.6209 9.53783Z" fill="#263238"/>
<path d="M93.2748 11.2373C93.2572 11.2302 93.2395 11.2196 93.2254 11.202C93.1901 11.1561 93.2007 11.089 93.2501 11.0502C93.296 11.0149 93.3419 10.9866 93.3878 10.9584C93.5184 10.5948 93.6808 10.2488 93.8714 9.92759C93.649 9.80403 93.4655 9.62046 93.3207 9.39453C93.0313 9.72637 92.9536 10.2171 93.063 10.7748C93.1407 11.1702 93.0983 11.6574 93.0842 12.1057C93.1372 11.8162 93.2113 11.5268 93.296 11.2408C93.289 11.2408 93.2819 11.2408 93.2748 11.2408V11.2373Z" fill="#263238"/>
<path d="M101.278 19.1473C100.749 19.1332 100.201 19.1332 99.6471 19.1473C99.6401 19.6451 99.4565 20.1358 99.1353 20.6053H103.227C102.807 19.7933 102.122 19.172 101.275 19.1473H101.278Z" fill="#407BFF"/>
<path d="M93.9422 19.7188C93.1055 19.8882 92.3571 20.1883 91.7217 20.6048H93.3103C93.4938 20.213 93.7304 19.8811 93.9422 19.7188Z" fill="#407BFF"/>
<path d="M99.6506 19.1233C99.2058 18.8409 98.9622 18.9574 98.9622 18.9574C98.9622 18.9574 98.9586 18.9609 98.9551 18.9645C99.1034 19.2716 99.0434 19.6528 98.7857 19.9106C98.5491 20.1471 98.2879 20.3836 98.002 20.6025H99.1351C99.4529 20.133 99.64 19.6387 99.647 19.1445C99.647 19.1374 99.647 19.1339 99.647 19.1268L99.6506 19.1233Z" fill="white"/>
<path d="M94.5244 19.6504C94.6551 19.5904 94.768 19.5198 94.8739 19.4492C94.8386 19.4492 94.3797 19.4775 93.9455 19.7105C93.9455 19.7105 93.9455 19.7105 93.942 19.7105C93.7302 19.8728 93.4936 20.2011 93.3101 20.5965H93.7831C93.7937 20.5506 93.8043 20.5047 93.8149 20.4589C93.9137 20.1023 94.182 19.8058 94.5209 19.6469L94.5244 19.6504Z" fill="white"/>
<path d="M95.5977 17.0586C95.5977 17.0586 95.6012 17.0833 95.6047 17.0939C95.6047 17.0833 95.6012 17.0692 95.5977 17.0586Z" fill="#FF8B7B"/>
<path d="M98.9552 18.9662C98.9446 18.9415 98.934 18.9167 98.9199 18.8956C98.4716 18.1648 98.3409 17.021 98.348 15.8984C98.2033 16.0396 98.0373 16.1703 97.8397 16.2832C97.4725 16.495 97.123 16.6574 96.7947 16.7845C96.4629 17.1269 96.0357 17.3952 95.6756 17.48C95.771 18.2354 95.6227 18.9521 94.8778 19.4533C94.7719 19.5239 94.659 19.591 94.5283 19.6546C94.1894 19.8134 93.9211 20.11 93.8223 20.4665C93.8082 20.5124 93.7976 20.5583 93.7905 20.6042H98.0091C98.295 20.3853 98.5563 20.1488 98.7928 19.9123C99.047 19.6546 99.107 19.2733 98.9623 18.9662H98.9552Z" fill="#FF8B7B"/>
<path opacity="0.2" d="M95.6716 17.475C95.6539 17.3479 95.6327 17.2208 95.6045 17.0938C95.6327 17.2208 95.6574 17.3515 95.6716 17.475Z" fill="black"/>
<path d="M96.7909 16.7848C96.3602 16.9472 95.9613 17.0354 95.5977 17.0601C95.5977 17.0707 95.6012 17.0848 95.6047 17.0954C95.633 17.2225 95.6541 17.3531 95.6718 17.4767C96.0354 17.392 96.459 17.1237 96.7909 16.7812V16.7848Z" fill="#FF8B7B"/>
<path opacity="0.2" d="M96.7909 16.7848C96.3602 16.9472 95.9613 17.0354 95.5977 17.0601C95.5977 17.0707 95.6012 17.0848 95.6047 17.0954C95.633 17.2225 95.6541 17.3531 95.6718 17.4767C96.0354 17.392 96.459 17.1237 96.7909 16.7812V16.7848Z" fill="black"/>
<path d="M96.7906 16.7819C97.119 16.6584 97.4684 16.4925 97.8356 16.2806C98.0333 16.1677 98.1992 16.0371 98.3439 15.8959C98.6828 15.564 98.8946 15.1545 99.0429 14.6709C98.9688 14.6991 98.8946 14.7309 98.824 14.7485C98.7146 14.7768 98.6193 14.7733 98.5346 14.7591C97.712 15.211 96.5682 15.5075 95.6716 15.5393C95.5939 15.6982 95.3892 15.797 95.1632 15.7546C94.9126 15.7088 94.7431 15.5146 94.789 15.3169C94.8349 15.1192 95.075 14.9957 95.3256 15.0415C95.5268 15.0769 95.668 15.211 95.6963 15.3593C96.5294 15.3275 97.5602 15.0663 98.3333 14.6709C98.0898 14.4802 98.0686 14.0425 98.2769 13.5906C98.2804 13.58 98.2875 13.5695 98.291 13.5624C97.5214 12.9552 98.1498 11.9985 98.5981 11.5926C99.117 11.123 98.1886 10.8936 98.757 9.89453C96.66 10.7171 96.7483 9.84158 94.7643 10.0852C94.4254 10.1275 94.1218 10.064 93.8641 9.91924C93.6735 10.2405 93.5111 10.5864 93.3805 10.9501C93.8112 10.6853 94.196 10.7947 94.2136 10.8018C94.2701 10.8194 94.2948 10.8795 94.2736 10.9359C94.2524 10.9924 94.1889 11.0242 94.1359 11.0101C94.1218 11.0065 93.7547 10.9006 93.3699 11.2113C93.3452 11.2289 93.3169 11.236 93.2887 11.2325C93.2004 11.5149 93.1298 11.8044 93.0769 12.0974C92.911 12.9764 92.8898 13.8589 92.9886 14.5791C93.2004 16.1677 94.1077 17.1526 95.5939 17.0538C95.9575 17.029 96.3564 16.9408 96.7871 16.7784L96.7906 16.7819ZM96.36 11.1689C96.3811 11.1689 96.8754 11.1936 97.1472 11.7055C97.1754 11.7549 97.1543 11.822 97.1013 11.8538C97.0837 11.8644 97.066 11.8679 97.0483 11.8679C97.0095 11.8679 96.9742 11.8503 96.9566 11.815C96.7412 11.4055 96.3564 11.3843 96.3388 11.3843C96.2788 11.3843 96.2364 11.3313 96.2435 11.2713C96.2505 11.2113 96.3035 11.1654 96.3635 11.1654L96.36 11.1689ZM95.6257 12.3304C95.6575 12.1468 95.781 12.0091 95.8975 12.0197C96.0175 12.0338 96.0846 12.1892 96.0528 12.3727C96.0211 12.5563 95.8975 12.694 95.781 12.6834C95.6645 12.6728 95.5939 12.5139 95.6257 12.3304ZM93.4017 12.0479C93.4334 11.8644 93.557 11.7267 93.6735 11.7373C93.79 11.7514 93.8606 11.9067 93.8288 12.0903C93.797 12.2739 93.6735 12.4116 93.557 12.401C93.4405 12.3868 93.3699 12.2315 93.4017 12.0479ZM93.1969 13.393C93.7088 12.8599 94.6019 12.1609 94.6019 12.1609L94.0583 13.7919C94.0583 13.7919 93.3875 13.7777 93.1969 13.393ZM94.3548 14.5438C94.3266 14.5367 94.3089 14.5085 94.3195 14.4802C94.3301 14.452 94.3583 14.4344 94.3866 14.4414C95.1526 14.625 95.6822 14.159 95.6892 14.1555C95.7104 14.1343 95.7457 14.1343 95.7634 14.1555C95.781 14.1767 95.7775 14.212 95.7563 14.2331C95.7351 14.2508 95.2797 14.6532 94.5878 14.5862C94.5137 14.5791 94.436 14.565 94.3548 14.5473V14.5438Z" fill="#FF8B7B"/>
<path d="M93.8681 9.91968C94.1258 10.0644 94.4294 10.128 94.7683 10.0856C96.7523 9.84202 96.664 10.7175 98.761 9.89497C98.1926 10.894 99.121 11.1235 98.6021 11.593C98.1538 11.999 97.5254 12.9521 98.295 13.5628C98.5844 12.9698 99.2587 12.1931 99.8589 12.3202C100.134 12.3802 100.3 12.5744 100.36 12.825C100.537 12.7262 100.71 12.6167 100.872 12.5002C101.973 11.7095 102.715 9.53489 101.087 9.19599C100.801 9.38662 100.364 9.48194 99.8589 9.47841C100.212 9.42192 100.501 9.23129 100.713 8.97712C100.515 7.31087 99.4282 8.2499 98.3091 7.58269C97.4936 7.09553 97.6454 6.36125 96.2828 6.5307C95.7568 6.59777 95.3967 5.93056 96.544 5.4787C95.9156 4.7656 93.0844 5.89173 93.0032 8.11928C92.9856 8.60292 93.1021 9.04419 93.3174 9.38309C93.4586 9.60902 93.6457 9.79259 93.8681 9.91615V9.91968Z" fill="#263238"/>
<path d="M99.8618 9.48226C100.37 9.48226 100.804 9.38694 101.09 9.19984C101.535 8.90331 101.62 8.38084 101.03 7.62891C101.15 8.12313 101.016 8.62089 100.716 8.98097C100.504 9.23514 100.211 9.42577 99.8618 9.48226Z" fill="#263238"/>
<path d="M99.2336 14.2545C99.0536 14.4381 98.8136 14.6075 98.5347 14.7593C98.6194 14.7734 98.7112 14.777 98.8241 14.7487C98.8947 14.7311 98.9689 14.6993 99.043 14.6711C99.329 14.5616 99.6255 14.378 99.8832 14.1133C99.682 14.3074 99.4172 14.371 99.2336 14.2545Z" fill="#FF8B7B"/>
<path d="M99.8586 12.3231C99.2549 12.1925 98.5807 12.9692 98.2947 13.5658C98.2912 13.5763 98.2841 13.5869 98.2806 13.594C98.0688 14.0459 98.0935 14.4836 98.3371 14.6742C98.6513 14.5118 98.9231 14.3283 99.1173 14.1306C99.0149 13.9541 99.0431 13.6858 99.2055 13.4599C99.4103 13.1704 99.7562 13.0539 99.9716 13.2021C100.183 13.3469 100.197 13.6928 99.9998 13.9788C100.049 13.9223 100.102 13.8694 100.145 13.8058C100.367 13.4881 100.438 13.121 100.363 12.8279C100.3 12.5808 100.137 12.3831 99.8621 12.3231H99.8586Z" fill="#FF8B7B"/>
<path d="M99.9719 13.2012C99.7565 13.0529 99.4106 13.1694 99.2058 13.4589C99.0435 13.6883 99.0152 13.9531 99.1176 14.1296C99.1705 14.0767 99.2164 14.0237 99.2588 13.9672C99.287 13.9284 99.3435 13.9213 99.3824 13.9496C99.4212 13.9778 99.4282 14.0343 99.4 14.0731C99.3541 14.1367 99.2976 14.1967 99.2376 14.2567C99.4212 14.3732 99.6859 14.3061 99.8872 14.1155C99.926 14.0802 99.9613 14.0414 99.9931 13.9955C99.9966 13.9919 100 13.9849 100.004 13.9813C100.198 13.6954 100.187 13.3494 99.9754 13.2047L99.9719 13.2012Z" fill="#263238"/>
<path d="M95.4315 15.5429C95.3821 15.5429 95.3433 15.5005 95.3468 15.4511C95.3503 15.4017 95.3856 15.3734 95.4386 15.3664C95.5233 15.3664 95.6115 15.3664 95.7033 15.3664C95.6751 15.2146 95.5339 15.0839 95.3327 15.0486C95.082 15.0027 94.842 15.1263 94.7961 15.324C94.7502 15.5217 94.9196 15.7158 95.1703 15.7617C95.3927 15.8006 95.601 15.7053 95.6786 15.5464C95.6327 15.5464 95.5833 15.5499 95.5374 15.5499C95.5021 15.5499 95.4703 15.5499 95.435 15.5499L95.4315 15.5429Z" fill="#263238"/>
<path d="M99.2339 14.2579C99.2939 14.1979 99.3504 14.1343 99.3962 14.0743C99.4245 14.0355 99.4174 13.979 99.3786 13.9508C99.3398 13.9225 99.2833 13.9296 99.255 13.9684C99.2127 14.0249 99.1668 14.0779 99.1138 14.1308C98.9197 14.332 98.6478 14.5156 98.3337 14.6745C97.5641 15.0698 96.5297 15.3311 95.6966 15.3628C95.6048 15.3628 95.5166 15.3664 95.4318 15.3628C95.3789 15.3699 95.3436 15.4017 95.34 15.4476C95.3365 15.4935 95.3789 15.5358 95.4248 15.5394C95.4601 15.5394 95.4918 15.5394 95.5271 15.5394C95.573 15.5394 95.6189 15.5394 95.6684 15.5358C96.5686 15.5076 97.7123 15.2075 98.5313 14.7557C98.8067 14.6039 99.0468 14.4344 99.2303 14.2508L99.2339 14.2579Z" fill="#263238"/>
<path d="M95.7848 12.6881C95.9048 12.7022 96.0248 12.561 96.0566 12.3774C96.0884 12.1939 96.0178 12.035 95.9013 12.0244C95.7812 12.0103 95.6612 12.1515 95.6294 12.3351C95.5977 12.5186 95.6647 12.6775 95.7848 12.6881Z" fill="#263238"/>
<path d="M93.5609 12.4029C93.6809 12.4171 93.8009 12.2758 93.8327 12.0923C93.8645 11.9087 93.7939 11.7498 93.6774 11.7393C93.5574 11.7251 93.4373 11.8663 93.4056 12.0499C93.3738 12.2335 93.4444 12.3923 93.5609 12.4029Z" fill="#263238"/>
<path d="M94.6057 12.168C94.6057 12.168 93.7126 12.8669 93.2007 13.4C93.3913 13.7848 94.0621 13.7989 94.0621 13.7989L94.6057 12.168Z" fill="#FF5652"/>
<path d="M95.7633 14.2342C95.7845 14.213 95.788 14.1777 95.7704 14.1565C95.7527 14.1353 95.7174 14.1353 95.6962 14.1565C95.6927 14.16 95.1632 14.626 94.3936 14.4425C94.3653 14.4354 94.3336 14.453 94.3265 14.4813C94.3194 14.5095 94.3336 14.5378 94.3618 14.5448C94.443 14.5625 94.5207 14.5766 94.5948 14.5837C95.2903 14.6507 95.7421 14.2518 95.7633 14.2306V14.2342Z" fill="#263238"/>
<path d="M96.3389 11.3872C96.3389 11.3872 96.7413 11.4084 96.9567 11.8179C96.9743 11.8532 97.0096 11.8709 97.0484 11.8709C97.0661 11.8709 97.0837 11.8638 97.1014 11.8567C97.1543 11.825 97.1755 11.7579 97.1473 11.7085C96.8755 11.1966 96.3812 11.1754 96.3601 11.1719C96.3 11.1719 96.2471 11.2178 96.24 11.2778C96.233 11.3378 96.2753 11.3872 96.3353 11.3907L96.3389 11.3872Z" fill="#263238"/>
<path d="M93.2254 11.1997C93.2254 11.1997 93.2571 11.2279 93.2748 11.235C93.2819 11.235 93.2889 11.235 93.296 11.235C93.3242 11.235 93.3525 11.235 93.3772 11.2138C93.762 10.9067 94.1291 11.009 94.1432 11.0126C94.1997 11.0302 94.2597 10.9949 94.2809 10.9384C94.3021 10.8819 94.2738 10.8219 94.2209 10.8043C94.2032 10.8007 93.8184 10.6878 93.3878 10.9525C93.3419 10.9808 93.296 11.009 93.2501 11.0443C93.2007 11.0832 93.1901 11.1502 93.2254 11.1961V11.1997Z" fill="#263238"/>
<path d="M58.2626 34.3268C58.2555 34.2138 58.2414 34.0973 58.2273 33.9808C58.2273 33.9738 58.2273 33.9667 58.2273 33.9596C56.434 34.1609 54.8207 32.9535 54.8136 30.9907C54.8101 30.1047 54.9795 29.028 55.3361 28.0042C55.3325 27.9936 55.329 27.9866 55.329 27.9866L55.3396 27.9936C55.5373 27.4288 55.795 26.8816 56.1127 26.3874C55.8338 25.9426 55.9856 25.3107 56.7976 24.4458C56.8364 24.008 56.9706 23.6585 57.1718 23.3867C56.8752 23.422 56.5858 23.4856 56.3069 23.5879C53.8887 24.4775 55.1525 28.0077 53.3733 29.501C51.5941 30.9907 50.881 33.1865 51.5623 34.9304C52 35.2764 52.6355 35.5376 53.4368 35.7177C53.3345 34.8034 53.571 33.5643 53.571 33.5643C53.571 33.5643 53.6875 35.0928 54.2135 35.8589C54.7995 35.9471 55.449 36.0001 56.1551 36.0177C56.1868 35.6965 56.2504 35.4388 56.2504 35.4388C56.2504 35.4388 56.2998 35.7141 56.4446 36.0248C56.787 36.0319 57.1541 36.0389 57.5319 36.046C58.1567 35.6259 58.3085 34.9975 58.2661 34.3303L58.2626 34.3268Z" fill="#263238"/>
<path d="M62.633 29.6961C63.0531 29.9256 63.1308 30.4939 62.8237 30.9317C62.513 31.3765 62.0364 31.6448 61.6058 31.7295C61.5493 31.7401 61.4963 31.7401 61.4469 31.7401C61.2774 32.0472 61.0762 32.3226 60.8326 32.5803C60.695 33.8052 60.7091 35.1538 61.1927 35.9445C62.2129 35.8422 63.2438 35.6515 64.2146 35.3162C65.5984 32.9898 63.738 31.7401 63.4344 30.5504C63.039 28.9901 63.971 28.4252 64.1793 27.1085C64.3134 26.2365 63.7274 25.3151 62.4707 25.361C62.5624 25.654 62.6154 25.9682 62.6295 26.3001C63.452 26.4942 63.392 28.1711 62.633 29.6996V29.6961Z" fill="#263238"/>
<path d="M52.0596 38.087H52.2573C52.3914 37.8116 52.5714 37.561 52.7939 37.3633C52.5008 37.6033 52.2573 37.8434 52.0596 38.087Z" fill="#407BFF"/>
<path d="M52.9284 37.251C52.9001 37.2722 52.8754 37.2969 52.8472 37.3181C52.9037 37.2687 52.9637 37.2263 53.0272 37.1875C52.9954 37.2087 52.9637 37.2263 52.9284 37.251Z" fill="#407BFF"/>
<path d="M56.7093 36.402C55.689 36.522 54.5947 36.7197 53.7616 36.8821C53.4897 36.935 53.2462 37.0445 53.0273 37.1927C52.9637 37.2351 52.9037 37.2775 52.8472 37.3233C52.8296 37.3375 52.8119 37.3516 52.7978 37.3657C52.5719 37.5669 52.3954 37.814 52.2612 38.0894H54.6829C55.0783 36.8397 56.7093 36.3984 56.7093 36.3984V36.402Z" fill="#407BFF"/>
<path d="M63.8649 36.4315C63.1694 36.3539 62.3292 36.2833 61.4432 36.2656C61.4432 36.2656 61.835 36.8269 61.3267 38.0907H62.3504C62.3575 37.1023 62.7352 36.3715 63.8649 36.4315Z" fill="#407BFF"/>
<path d="M56.7094 36.3984C56.7094 36.3984 55.075 36.8397 54.6831 38.0894H56.6741C56.3741 37.2245 56.7094 36.3984 56.7094 36.3984Z" fill="white"/>
<path d="M61.443 36.2656C61.443 36.2656 60.4475 37.2858 59.0884 38.0907H61.3265C61.8313 36.8269 61.443 36.2656 61.443 36.2656Z" fill="white"/>
<path d="M61.4433 36.2636C61.348 36.1719 61.2668 36.0624 61.1926 35.9424C60.709 35.1552 60.6949 33.8031 60.8326 32.5781C60.5996 32.8252 60.3242 33.0547 59.9853 33.2877C59.837 33.3901 59.6852 33.4783 59.5334 33.556C59.191 33.9549 58.6756 34.2761 58.2626 34.3468C58.2626 34.3397 58.2626 34.3326 58.2626 34.3256C58.3049 34.9928 58.1496 35.6212 57.5283 36.0412C57.313 36.186 57.0482 36.306 56.7128 36.3943C56.7128 36.3943 56.3775 37.2168 56.6775 38.0852H59.0922C60.4513 37.2839 61.4468 36.2601 61.4468 36.2601L61.4433 36.2636Z" fill="#B55B52"/>
<path d="M58.2623 34.3264C58.2553 34.2099 58.2447 34.097 58.2271 33.9805C58.2447 34.097 58.2588 34.2135 58.2623 34.3264Z" fill="#263238"/>
<path opacity="0.2" d="M58.2623 34.3264C58.2553 34.2099 58.2447 34.097 58.2271 33.9805C58.2447 34.097 58.2588 34.2135 58.2623 34.3264Z" fill="black"/>
<path d="M58.2234 33.9783C58.241 34.0948 58.2516 34.2113 58.2587 34.3243C58.2587 34.3313 58.2587 34.3384 58.2587 34.3454C58.6717 34.2748 59.1836 33.9536 59.5295 33.5547C59.0953 33.7771 58.6505 33.9077 58.2163 33.9571C58.2163 33.9642 58.2163 33.9712 58.2163 33.9783H58.2234Z" fill="#B55B52"/>
<path opacity="0.2" d="M58.2234 33.9783C58.241 34.0948 58.2516 34.2113 58.2587 34.3243C58.2587 34.3313 58.2587 34.3384 58.2587 34.3454C58.6717 34.2748 59.1836 33.9536 59.5295 33.5547C59.0953 33.7771 58.6505 33.9077 58.2163 33.9571C58.2163 33.9642 58.2163 33.9712 58.2163 33.9783H58.2234Z" fill="black"/>
<path d="M60.9703 30.69C61.0797 30.4323 61.288 30.1358 61.5387 29.9134C60.8503 29.3168 60.5996 28.1306 61.3798 27.0575C59.1417 27.4105 56.6882 27.3116 56.1057 26.3867C55.7915 26.8809 55.5303 27.4281 55.3326 27.993L55.7739 28.2154C55.7739 28.2154 55.7703 28.2154 55.7668 28.2189C55.8656 28.2754 55.9115 28.4307 55.8727 28.6037C55.8268 28.8084 55.6821 28.9532 55.5479 28.9285C55.4173 28.9037 55.3467 28.7202 55.3961 28.5154C55.4244 28.3989 55.4844 28.3071 55.555 28.2471C55.4314 28.2012 55.3538 28.0494 55.3326 28C54.976 29.0238 54.8066 30.097 54.8101 30.9866C54.8172 32.9493 56.434 34.1567 58.2238 33.9554C58.658 33.906 59.1028 33.7754 59.537 33.553C59.6888 33.4753 59.8406 33.3871 59.9889 33.2847C60.3278 33.0552 60.6032 32.8223 60.8362 32.5751C61.0797 32.3174 61.281 32.0421 61.4504 31.735C60.9279 31.7385 60.7479 31.216 60.9738 30.69H60.9703ZM58.7074 27.8623C58.7322 27.8623 59.2935 27.8164 59.6818 28.3424C59.7206 28.3954 59.7065 28.4731 59.6535 28.5119C59.6253 28.5331 59.5971 28.5401 59.5653 28.5366C59.5335 28.5366 59.5053 28.519 59.4841 28.4907C59.1699 28.0671 58.7251 28.1024 58.718 28.1024C58.651 28.1095 58.5945 28.06 58.5909 27.993C58.5909 27.9259 58.6404 27.8659 58.7074 27.8623ZM58.358 28.6778C58.358 28.6778 58.3544 28.6778 58.3509 28.6813C58.4497 28.7378 58.4956 28.8932 58.4568 29.0661C58.4109 29.2709 58.2662 29.4156 58.132 29.3909C58.0014 29.3662 57.9308 29.1826 57.9802 28.9779C58.0085 28.8614 58.0685 28.7696 58.1391 28.7096C57.9908 28.6531 57.9096 28.4448 57.9096 28.4448L58.3615 28.6743L58.358 28.6778ZM55.6538 27.7282C55.6221 27.7423 55.5868 27.7423 55.5585 27.7317C55.5303 27.7211 55.5056 27.6999 55.495 27.6717C55.4703 27.6117 55.495 27.5376 55.5585 27.5093C56.1763 27.2163 56.6458 27.4987 56.667 27.5093C56.7235 27.5446 56.7376 27.6188 56.6988 27.6752C56.6599 27.7317 56.5858 27.7529 56.5293 27.7176C56.5117 27.707 56.1445 27.4917 55.6503 27.7282H55.6538ZM55.615 30.1393C56.0916 29.7863 56.6352 28.9708 56.6352 28.9708L56.3034 30.4076C56.3034 30.4076 55.8233 30.4394 55.615 30.1393ZM56.0139 31.1066C58.1779 30.6265 58.9722 30.5841 58.9722 30.5841C58.9722 30.5841 59.0993 31.2866 57.9908 31.5408C56.8823 31.795 56.3457 31.5161 56.0139 31.1066Z" fill="#B55B52"/>
<path d="M56.1091 26.3862C56.6916 27.3147 59.1451 27.4135 61.3832 27.057C61.5632 26.8099 61.7892 26.5698 62.0822 26.3439C62.2975 26.2662 62.4776 26.2556 62.6294 26.2945C62.6152 25.9626 62.5623 25.6484 62.4705 25.3554C61.6833 22.8419 58.3155 21.8182 57.1646 23.3856C56.9634 23.6574 56.8293 24.0104 56.7904 24.4446C55.9785 25.3095 55.8267 25.9414 56.1056 26.3862H56.1091Z" fill="#263238"/>
<path d="M61.5385 29.9149C61.7962 29.6889 62.1068 29.5442 62.4175 29.6113C62.4987 29.6289 62.5693 29.6572 62.6328 29.6925C63.3883 28.1639 63.4519 26.4871 62.6293 26.2929C62.4775 26.2576 62.2975 26.2682 62.0821 26.3423C61.7856 26.5683 61.5597 26.8083 61.3832 27.0554C60.603 28.1286 60.8536 29.3147 61.542 29.9113L61.5385 29.9149Z" fill="#263238"/>
<path d="M58.972 30.582C58.972 30.582 58.1812 30.6244 56.0137 31.1045C56.3455 31.514 56.8821 31.7894 57.9906 31.5387C59.0991 31.2845 58.972 30.582 58.972 30.582Z" fill="white"/>
<path d="M58.1391 28.7157C58.0685 28.7722 58.0085 28.8675 57.9802 28.984C57.9344 29.1888 58.0014 29.3724 58.132 29.3971C58.2627 29.4218 58.4074 29.277 58.4568 29.0723C58.4992 28.8958 58.4498 28.744 58.3509 28.6875C58.2697 28.7405 58.1991 28.744 58.1391 28.7193V28.7157Z" fill="#263238"/>
<path d="M55.5546 28.2548C55.484 28.3113 55.424 28.4066 55.3958 28.5231C55.3499 28.7278 55.417 28.9114 55.5476 28.9361C55.6782 28.9608 55.8229 28.8161 55.8724 28.6114C55.9147 28.4348 55.8653 28.283 55.7664 28.2266C55.6853 28.2795 55.6146 28.283 55.5546 28.2583V28.2548Z" fill="#263238"/>
<path d="M55.5548 28.257C55.6148 28.2781 55.6854 28.2781 55.7666 28.2252C55.7666 28.2252 55.7701 28.2252 55.7736 28.2217L55.3324 27.9992L55.3218 27.9922C55.3218 27.9922 55.3218 27.9992 55.3288 28.0098C55.35 28.0593 55.4277 28.2111 55.5512 28.257H55.5548Z" fill="#263238"/>
<path d="M56.3031 30.4055L56.635 28.9688C56.635 28.9688 56.0913 29.7842 55.6147 30.1372C55.823 30.4373 56.3031 30.4055 56.3031 30.4055Z" fill="#A02724"/>
<path d="M61.5381 29.9177C61.2839 30.1401 61.0792 30.4367 60.9697 30.6944C60.7438 31.2204 60.9238 31.7464 61.4463 31.7393C61.4993 31.7393 61.5487 31.7393 61.6052 31.7287C62.0359 31.644 62.5124 31.3757 62.8231 30.9309C63.1302 30.4932 63.0526 29.9248 62.6325 29.6953C62.5689 29.66 62.4983 29.6318 62.4171 29.6141C62.1065 29.5471 61.7993 29.6918 61.5381 29.9177Z" fill="#B55B52"/>
<path d="M58.7181 28.1055C58.7181 28.1055 59.1699 28.0702 59.4841 28.4938C59.5053 28.5221 59.5335 28.5362 59.5653 28.5397C59.5936 28.5397 59.6253 28.5327 59.6536 28.515C59.7065 28.4727 59.7206 28.3985 59.6818 28.3456C59.2935 27.8196 58.7322 27.8619 58.7075 27.8655C58.6404 27.8725 58.5875 27.929 58.591 27.9961C58.591 28.0632 58.651 28.1126 58.7181 28.1055Z" fill="#263238"/>
<path d="M56.5326 27.7167C56.589 27.752 56.6632 27.7308 56.702 27.6743C56.7408 27.6179 56.7232 27.5437 56.6702 27.5084C56.6491 27.4943 56.1795 27.2154 55.5618 27.5084C55.5017 27.5367 55.47 27.6108 55.4982 27.6708C55.5123 27.699 55.5335 27.7202 55.5618 27.7308C55.59 27.7414 55.6253 27.7414 55.6571 27.7273C56.1478 27.4943 56.5184 27.7061 56.5361 27.7167H56.5326Z" fill="#263238"/>
<path d="M58.1388 28.714C58.1988 28.7352 58.2694 28.7352 58.3506 28.6822C58.3506 28.6822 58.3541 28.6822 58.3576 28.6787L57.9058 28.4492C57.9058 28.4492 57.987 28.6575 58.1352 28.714H58.1388Z" fill="#263238"/>
<path d="M63.8792 36.4292C63.8792 36.4292 63.8686 36.4292 63.865 36.4292C62.7389 36.3692 62.3576 37.0964 62.3506 38.0884H66.5092C66.0114 37.2235 65.3689 36.521 63.8792 36.4292Z" fill="#407BFF"/>
<path d="M73.8057 35.9297C73.0149 36.1238 72.256 36.3816 71.5605 36.7099C70.8686 37.0382 70.272 37.5077 69.7954 38.0866H73.1738C72.0406 37.3735 73.2444 36.3392 73.8057 35.9297Z" fill="#263238"/>
<path d="M82.4333 36.248C81.932 36.0609 81.3849 35.9091 80.8095 35.7891C80.7883 36.0185 80.5941 37.3212 79.0161 38.0837H84.7844C84.3255 37.3035 83.5453 36.6646 82.4333 36.248Z" fill="#263238"/>
<path d="M75.9063 36.6445C75.9063 36.6445 75.9239 36.6445 75.9345 36.6445C77.3678 36.4256 79.4788 35.1865 79.4788 35.1865C79.38 34.2793 79.3129 32.9519 79.3729 31.7305C79.1117 32.1188 78.7869 32.4506 78.3527 32.7507C78.0985 32.9237 77.8373 33.0543 77.5761 33.1425C77.1348 33.5415 76.5099 33.8274 76.0192 33.7921C76.0192 33.785 76.0192 33.7745 76.0157 33.7674C76.0898 34.3499 75.991 34.8971 75.5321 35.3242C75.5321 35.3242 75.5356 35.3242 75.5391 35.3242C75.5391 35.3242 74.526 36.4186 75.9063 36.641V36.6445Z" fill="#7F3E3B"/>
<path d="M75.952 33.4074C75.9379 33.3509 75.9238 33.2909 75.9097 33.2344C75.9238 33.2909 75.9414 33.3509 75.952 33.4074Z" fill="#7F3E3B"/>
<path opacity="0.2" d="M76.0157 33.7738C76.0016 33.6537 75.9804 33.5302 75.9521 33.4102C75.9804 33.5337 76.0016 33.6537 76.0157 33.7738Z" fill="black"/>
<path opacity="0.2" d="M75.8994 33.2031C75.8994 33.2031 75.9065 33.2243 75.9065 33.2314C75.9065 33.2208 75.9029 33.2102 75.8994 33.2031Z" fill="black"/>
<path d="M77.5797 33.1406C77.0078 33.3383 76.4324 33.3418 75.9028 33.2006C75.9028 33.2112 75.9064 33.2218 75.9099 33.2289C75.924 33.2854 75.9417 33.3454 75.9523 33.4019C75.9805 33.5254 76.0017 33.6454 76.0158 33.7655C76.0158 33.7725 76.0158 33.7831 76.0193 33.7902C76.5136 33.8255 77.1384 33.536 77.5761 33.1406H77.5797Z" fill="#7F3E3B"/>
<path opacity="0.2" d="M77.5797 33.1406C77.0078 33.3383 76.4324 33.3418 75.9028 33.2006C75.9028 33.2112 75.9064 33.2218 75.9099 33.2289C75.924 33.2854 75.9417 33.3454 75.9523 33.4019C75.9805 33.5254 76.0017 33.6454 76.0158 33.7655C76.0158 33.7725 76.0158 33.7831 76.0193 33.7902C76.5136 33.8255 77.1384 33.536 77.5761 33.1406H77.5797Z" fill="black"/>
<path d="M75.5744 25.1842C75.3343 25.2478 75.1119 25.1419 74.9566 24.9336C74.6812 25.3325 74.4765 25.8232 74.4023 26.328C74.5471 26.2468 74.6812 26.2115 74.7801 26.1939C75.0095 25.8161 75.2708 25.4737 75.5744 25.1842Z" fill="#263238"/>
<path d="M74.3741 26.6014C74.367 26.7249 74.367 26.8485 74.3776 26.9721C74.4553 26.7956 74.54 26.6226 74.6318 26.4531C74.5506 26.4814 74.4623 26.5308 74.3741 26.6014Z" fill="#263238"/>
<path d="M77.5796 33.1445C77.8408 33.0527 78.1021 32.9256 78.3562 32.7527C78.7905 32.4561 79.1152 32.1207 79.3765 31.7324C79.5141 31.5277 79.6342 31.3053 79.7436 31.0652C79.087 31.1252 78.8716 30.5075 79.1576 29.9144C79.2423 29.7343 79.3765 29.5366 79.5353 29.3601C79.1152 28.6329 79.3376 26.6172 79.2317 25.8052C77.9326 25.1027 76.6017 24.9086 75.5744 25.1804C75.2708 25.4699 75.0061 25.8123 74.7802 26.19C74.8755 26.1759 74.939 26.1759 74.9461 26.1794C75.0061 26.183 75.0484 26.2359 75.0449 26.2959C75.0414 26.3559 74.9849 26.4018 74.9249 26.3983C74.9143 26.3983 74.7907 26.3983 74.6319 26.4548C74.5401 26.6242 74.4554 26.7972 74.3777 26.9737C73.9011 28.0646 73.6787 29.2966 73.6893 30.278C73.707 31.7289 74.6707 32.8691 75.8992 33.2045C76.4288 33.3493 77.0042 33.3422 77.5761 33.1445H77.5796ZM77.5266 26.5536C77.5478 26.5607 78.0244 26.7125 78.1691 27.2985C78.1833 27.3585 78.148 27.4185 78.0879 27.4362C78.0703 27.4432 78.0491 27.4432 78.0315 27.4362C77.9962 27.4291 77.9644 27.4009 77.9538 27.3585C77.8373 26.889 77.4666 26.769 77.4525 26.7619C77.396 26.7443 77.3643 26.6843 77.3854 26.6242C77.4066 26.5642 77.4666 26.5325 77.5266 26.5501V26.5536ZM76.5947 27.7927C76.637 27.6092 76.7677 27.475 76.8877 27.4997C77.0077 27.5209 77.0712 27.6904 77.0289 27.8739C76.9865 28.0575 76.8559 28.1916 76.7359 28.1669C76.6158 28.1458 76.5523 27.9763 76.5947 27.7927ZM74.3883 27.5421C74.4307 27.3585 74.5613 27.2244 74.6813 27.2491C74.8013 27.2703 74.8649 27.4397 74.8225 27.6233C74.7802 27.8069 74.6495 27.941 74.5295 27.9163C74.4095 27.8951 74.3459 27.7257 74.3883 27.5421ZM74.5013 29.1766C75.0732 28.7459 75.7298 27.7574 75.7298 27.7574L75.3379 29.5013C75.3379 29.5013 74.7554 29.5402 74.5013 29.1766ZM75.6133 30.0662C75.6274 30.0344 75.6627 30.0203 75.6945 30.0344C75.7015 30.0344 76.3899 30.3098 77.1524 29.7979C77.1807 29.7767 77.216 29.7838 77.2336 29.812C77.2513 29.8402 77.2407 29.8755 77.2125 29.8967C77.1207 29.9567 77.0324 30.0097 76.9442 30.0521C76.2417 30.3874 75.6662 30.1615 75.638 30.1474C75.6097 30.1368 75.5956 30.1015 75.6097 30.0697L75.6133 30.0662Z" fill="#7F3E3B"/>
<path d="M75.5743 25.1843C76.6016 24.9125 77.9325 25.1067 79.2316 25.8092C80.4954 25.3749 81.3462 25.3714 81.9428 25.6715C82.8959 24.5489 80.7531 23.2145 78.7409 23.0733C79.394 22.6708 79.2316 21.2976 76.9122 21.8871C74.5964 22.4767 74.4411 24.2523 74.953 24.9301C75.1118 25.1384 75.3307 25.2443 75.5708 25.1808L75.5743 25.1843Z" fill="#263238"/>
<path d="M79.2319 25.8089C79.3378 26.6208 79.1154 28.6366 79.5355 29.3638C79.8638 28.9966 80.3192 28.7107 80.7605 28.8307C80.9935 28.8943 81.1594 29.0319 81.2583 29.2085C81.6501 28.7919 81.9255 28.1988 81.8937 27.7399C82.2926 27.8387 83.161 26.9915 82.5856 26.2184C82.4126 25.9854 82.2008 25.8018 81.9467 25.6712C81.35 25.3711 80.4993 25.3711 79.2355 25.8089H79.2319Z" fill="#263238"/>
<path d="M76.9478 30.0477C77.036 30.0054 77.1243 29.956 77.216 29.8924C77.2443 29.8748 77.2513 29.8359 77.2372 29.8077C77.2196 29.7794 77.1807 29.7724 77.156 29.7936C76.3935 30.309 75.7051 30.0336 75.6981 30.0301C75.6663 30.016 75.631 30.0301 75.6169 30.0619C75.6027 30.0936 75.6169 30.1289 75.6451 30.1395C75.6734 30.1501 76.2488 30.3796 76.9513 30.0442L76.9478 30.0477Z" fill="#263238"/>
<path d="M80.7602 28.8286C80.3189 28.7085 79.867 28.9945 79.5352 29.3616C79.3763 29.5381 79.2422 29.7358 79.1575 29.9158C78.8715 30.5089 79.0869 31.1302 79.7435 31.0667C79.7611 31.0667 79.7788 31.0667 79.7964 31.0667C80.2624 30.9996 80.7884 30.7349 81.1379 30.2724C81.3956 29.937 81.4309 29.5169 81.2579 29.2063C81.1591 29.0298 80.9932 28.8921 80.7602 28.8286Z" fill="#7F3E3B"/>
<path d="M76.7359 28.1695C76.8559 28.1906 76.9865 28.06 77.0289 27.8765C77.0713 27.6929 77.0077 27.5234 76.8877 27.5023C76.7677 27.4811 76.637 27.6117 76.5947 27.7953C76.5523 27.9788 76.6159 28.1483 76.7359 28.1695Z" fill="#263238"/>
<path d="M74.8189 27.6225C74.8613 27.439 74.7977 27.2695 74.6777 27.2483C74.5577 27.2272 74.4271 27.3578 74.3847 27.5414C74.3424 27.7249 74.4059 27.8944 74.5259 27.9156C74.6459 27.9367 74.7766 27.8061 74.8189 27.6225Z" fill="#263238"/>
<path d="M74.4976 29.1809C74.7517 29.5445 75.3342 29.5056 75.3342 29.5056L75.7261 27.7617C75.7261 27.7617 75.0694 28.7502 74.4976 29.1809Z" fill="#630F0F"/>
<path d="M77.4526 26.7678C77.4526 26.7678 77.8374 26.8949 77.9539 27.3644C77.9645 27.4033 77.9927 27.4315 78.0315 27.4421C78.0492 27.4456 78.0668 27.4456 78.088 27.4421C78.148 27.4244 78.1833 27.3644 78.1692 27.3044C78.0245 26.7184 77.5479 26.5666 77.5267 26.5595C77.4702 26.5419 77.4067 26.5737 77.3855 26.6337C77.3643 26.6902 77.3961 26.7537 77.4526 26.7714V26.7678Z" fill="#263238"/>
<path d="M74.9251 26.4025C74.9851 26.4025 75.038 26.3601 75.0451 26.3001C75.0522 26.2401 75.0063 26.1871 74.9463 26.1836C74.9392 26.1836 74.8721 26.1836 74.7803 26.1942C74.6815 26.2083 74.5473 26.2471 74.4026 26.3283C74.279 26.3954 74.152 26.4942 74.0355 26.6425C73.9966 26.6919 74.0037 26.759 74.0496 26.7978C74.0672 26.812 74.0884 26.819 74.1096 26.819C74.1449 26.819 74.1802 26.8049 74.2049 26.7767C74.2614 26.7061 74.3179 26.6531 74.3744 26.6072C74.4626 26.5366 74.5509 26.4907 74.6321 26.4589C74.7909 26.3989 74.9145 26.4025 74.9251 26.4025Z" fill="#263238"/>
<path d="M77.0462 37.0977C76.6402 37.3377 76.1425 37.7613 75.793 38.079C75.793 38.079 75.793 38.0826 75.793 38.0861H77.897C77.724 37.6837 77.4169 37.3483 77.0462 37.0977Z" fill="#E0E0E0"/>
<path d="M75.9273 36.6484C75.9273 36.6484 75.9344 36.6484 75.9379 36.6484C75.9273 36.6484 75.9203 36.6484 75.9097 36.6484C75.9167 36.6484 75.9203 36.6484 75.9273 36.652V36.6484Z" fill="#E0E0E0"/>
<path d="M74.7165 36.9336C74.1623 37.1807 73.6504 37.5761 73.3115 38.088H74.9813C75.0131 38.0421 75.0448 37.9962 75.0801 37.9538C74.9566 37.6926 74.8224 37.3431 74.7201 36.9336H74.7165Z" fill="#E0E0E0"/>
<path d="M75.79 38.0859H75.7978C75.7978 38.0859 75.7978 38.082 75.7978 38.0781C75.7978 38.0781 75.7939 38.082 75.79 38.0859Z" fill="#263238"/>
<path d="M74.9776 38.0834H75.14C75.1189 38.041 75.0977 37.9986 75.073 37.9492C75.0412 37.9916 75.0094 38.0375 74.9741 38.0834H74.9776Z" fill="#263238"/>
<path d="M77.0463 37.0964C76.7145 36.874 76.3262 36.7151 75.9237 36.6445C75.5284 36.6516 75.1118 36.7504 74.7129 36.9269C74.8153 37.3364 74.9494 37.6859 75.073 37.9472C75.0977 37.9966 75.1153 38.039 75.14 38.0813H75.7861C75.7861 38.0813 75.7896 38.0778 75.7931 38.0743C76.1426 37.7565 76.6404 37.3294 77.0463 37.0929V37.0964Z" fill="#263238"/>
<path d="M80.8096 35.7912C80.8096 35.77 80.8096 35.7523 80.8096 35.7523C80.8096 35.7523 80.333 35.364 79.4787 35.1875C79.4787 35.1875 77.3677 36.4266 75.9344 36.6455C75.9344 36.6455 75.9274 36.6455 75.9238 36.6455C76.3263 36.7125 76.7111 36.8714 77.0464 37.0973C77.4171 37.348 77.7242 37.6833 77.8972 38.0858H79.0127C80.5872 37.3233 80.7849 36.0171 80.8061 35.7912H80.8096Z" fill="#FAFAFA"/>
<path d="M74.7167 36.9308C75.1156 36.7543 75.5322 36.6519 75.9275 36.6484C75.9205 36.6484 75.9169 36.6484 75.9099 36.6449C74.5296 36.4225 75.5428 35.3281 75.5428 35.3281C75.5428 35.3281 75.5392 35.3281 75.5357 35.3281C74.6673 35.5046 74.0671 35.7517 74.0671 35.7517C74.0671 35.7517 73.9612 35.8153 73.8094 35.9283C73.2446 36.3378 72.0443 37.3721 73.1775 38.0852H73.3152C73.6576 37.5733 74.166 37.1744 74.7202 36.9308H74.7167Z" fill="#FAFAFA"/>
<path d="M94.7187 26.9492L94.7293 26.9562C94.9235 26.6032 95.1459 26.2608 95.3894 25.9501C95.2835 25.9925 95.167 26.0525 95.0505 26.1549C95.0258 26.1761 94.9905 26.1867 94.9623 26.1867C94.934 26.1867 94.9058 26.1725 94.8881 26.1514C94.8493 26.1055 94.8599 26.0349 94.9093 25.989C95.1706 25.763 95.4318 25.6854 95.626 25.6571C96.0813 25.1417 96.6144 24.7287 97.2145 24.4851C97.1086 24.2486 97.0522 24.0297 97.0345 23.832C95.9507 24.0474 94.9411 24.5098 94.2315 25.2229C92.8089 26.6597 93.2713 28.2765 93.7938 29.5192C93.9491 28.7108 94.2633 27.8 94.7187 26.9633C94.7152 26.9492 94.7116 26.9421 94.7116 26.9421L94.7187 26.9492Z" fill="#263238"/>
<path d="M102.259 27.4886C102.319 27.8663 102.245 28.2935 102.048 28.7348C102.228 29.1196 102.259 29.635 102.086 30.1645C101.772 31.1282 100.921 31.7672 100.184 31.5978C99.9682 31.5483 99.7917 31.4283 99.6505 31.2659C99.3681 31.626 99.0363 31.9331 98.5985 32.2155C98.4785 32.851 98.4079 33.5041 98.4432 34.0724C101.493 33.8465 102.997 32.0849 103.382 29.9739C103.781 27.7887 103.565 26.4084 102.877 25.9883C103.092 26.7508 102.902 27.358 102.256 27.4886H102.259Z" fill="#263238"/>
<path d="M96.074 33.1247C96.074 33.0753 96.0669 33.0259 96.0634 32.9765C96.0634 32.9553 96.0599 32.9341 96.0563 32.9129C95.2303 32.8212 94.5242 32.4046 94.1041 31.7656C93.5181 32.2987 92.272 32.4717 92.272 32.4717C92.272 32.4717 93.3275 33.5801 95.9999 33.9685C96.0387 33.8025 96.0599 33.6296 96.0669 33.4531C96.074 33.3436 96.0705 33.2342 96.0669 33.1212L96.074 33.1247Z" fill="#263238"/>
<path d="M96.4692 38.0845H103.816C103.83 36.7748 101.687 35.5993 100.356 35.4651C100.074 35.4369 99.7735 35.4122 99.4699 35.3945C99.4805 35.4016 99.4911 35.4051 99.5017 35.4122C98.8239 36.3971 96.967 37.735 96.4692 38.0845Z" fill="#407BFF"/>
<path d="M95.1742 36.5992C94.9729 36.7086 94.7647 36.8286 94.5458 36.9592C94.4187 36.7616 94.3304 36.5886 94.2704 36.4332C94.2704 36.4403 94.2704 36.4474 94.2704 36.4474C94.2704 36.4474 93.5044 36.6098 93.0702 37.6653C92.996 36.2073 93.455 35.6672 93.7444 35.4766C93.5538 35.5013 93.3596 35.5225 93.1725 35.5507C91.7499 35.7484 89.9883 36.7792 89.2964 38.0924H96.3215C96.2544 37.7818 95.9755 36.7227 95.1706 36.6062L95.1742 36.5992Z" fill="#407BFF"/>
<path d="M96.0746 33.1248C96.0746 33.0754 96.0675 33.026 96.064 32.9766C96.0675 33.026 96.071 33.0754 96.0746 33.1248Z" fill="#CE7A63"/>
<path d="M98.6022 32.2145C98.4857 32.2886 98.3656 32.3663 98.2315 32.4369C97.9173 32.6098 97.6031 32.7299 97.296 32.8111C96.9359 33.1535 96.4558 33.4183 96.0781 33.4712C96.0781 33.4642 96.0781 33.4571 96.0781 33.4536C96.071 33.6301 96.0498 33.8031 96.011 33.969C95.8804 34.5091 95.5485 34.9715 94.8355 35.2434C94.8355 35.2434 94.839 35.2434 94.8425 35.2434C94.1223 35.614 94.253 36.3307 94.2742 36.4295C94.3342 36.5848 94.4189 36.7578 94.5495 36.9555C94.7684 36.8249 94.9767 36.7049 95.1779 36.5954C95.7074 36.0977 98.1609 35.0951 98.6198 34.9115C98.5245 34.668 98.4715 34.382 98.4539 34.0678C98.4186 33.4995 98.4892 32.8464 98.6092 32.2109L98.6022 32.2145Z" fill="#CE7A63"/>
<path d="M95.1739 36.5981C95.9788 36.7146 96.2577 37.7737 96.3248 38.0843H96.4695C96.9673 37.7348 98.8242 36.3969 99.502 35.412C99.4914 35.4084 99.4808 35.4014 99.4702 35.3943C99.1419 35.2107 98.6935 34.8789 98.6935 34.8789C98.6935 34.8789 98.6618 34.893 98.6123 34.9107C98.1534 35.0942 95.6999 36.0968 95.1704 36.5946L95.1739 36.5981Z" fill="white"/>
<path d="M93.0735 37.6608C93.5077 36.6088 94.2738 36.4429 94.2738 36.4429C94.2738 36.4429 94.2738 36.4394 94.2738 36.4288C94.2526 36.3264 94.122 35.6098 94.8421 35.2427C94.8421 35.2427 94.8386 35.2427 94.8351 35.2427C94.2808 35.1579 93.9737 35.3697 93.9737 35.3697C93.9737 35.3697 93.8784 35.3874 93.7513 35.4721C93.4618 35.6663 92.9994 36.2029 93.077 37.6608H93.0735Z" fill="white"/>
<path d="M96.0742 33.1211C96.0777 33.2305 96.0813 33.3435 96.0742 33.4529C96.0777 33.3435 96.0777 33.2341 96.0742 33.1211Z" fill="#263238"/>
<path opacity="0.2" d="M96.0742 33.1211C96.0777 33.2305 96.0813 33.3435 96.0742 33.4529C96.0777 33.3435 96.0777 33.2341 96.0742 33.1211Z" fill="black"/>
<path d="M96.0601 32.9141C96.0601 32.9352 96.0636 32.9564 96.0671 32.9776C96.0671 32.9564 96.0671 32.9352 96.0636 32.9141H96.0601Z" fill="#263238"/>
<path opacity="0.2" d="M96.0601 32.9141C96.0601 32.9352 96.0636 32.9564 96.0671 32.9776C96.0671 32.9564 96.0671 32.9352 96.0636 32.9141H96.0601Z" fill="black"/>
<path d="M96.0601 32.9153C96.0601 32.9364 96.0601 32.9576 96.0636 32.9788C96.0671 33.0282 96.0707 33.0776 96.0742 33.1271C96.0777 33.2365 96.0777 33.3495 96.0742 33.4589C96.0742 33.466 96.0742 33.473 96.0742 33.4766C96.4484 33.4236 96.932 33.1588 97.2921 32.8164C96.8685 32.9294 96.4519 32.9576 96.0601 32.9153Z" fill="#CE7A63"/>
<path opacity="0.2" d="M96.0601 32.9153C96.0601 32.9364 96.0601 32.9576 96.0636 32.9788C96.0671 33.0282 96.0707 33.0776 96.0742 33.1271C96.0777 33.2365 96.0777 33.3495 96.0742 33.4589C96.0742 33.466 96.0742 33.473 96.0742 33.4766C96.4484 33.4236 96.932 33.1588 97.2921 32.8164C96.8685 32.9294 96.4519 32.9576 96.0601 32.9153Z" fill="black"/>
<path d="M96.0602 32.9117C96.4485 32.9541 96.8651 32.9223 97.2923 32.8128C97.6029 32.7317 97.9171 32.6081 98.2278 32.4386C98.3619 32.3645 98.4819 32.2904 98.5984 32.2162C99.0362 31.9338 99.368 31.6267 99.6504 31.2666C99.308 30.8783 99.1986 30.2252 99.421 29.5439C99.4845 29.3533 99.5728 29.1803 99.6716 29.0179C99.3327 28.4178 99.195 27.6376 99.3821 26.8433C98.5949 26.395 97.8712 25.7066 97.3311 24.7181C97.2887 24.6405 97.2534 24.5663 97.2181 24.4922C96.618 24.7393 96.0849 25.1523 95.6295 25.6642C95.8166 25.6395 95.9473 25.6642 95.9578 25.6677C96.0179 25.6819 96.0496 25.7419 96.0285 25.8054C96.0073 25.8654 95.9402 25.9043 95.8802 25.8901C95.8661 25.8901 95.6613 25.8478 95.393 25.9502C95.1459 26.2643 94.927 26.6032 94.7329 26.9563L95.1141 27.1963C95.1141 27.1963 95.1106 27.1963 95.1071 27.1963C95.1918 27.2563 95.213 27.4046 95.153 27.567C95.0788 27.7541 94.9235 27.8812 94.8035 27.8494C94.6835 27.8176 94.6446 27.6376 94.7188 27.4505C94.7611 27.3411 94.8317 27.2599 94.9059 27.2104C94.8 27.161 94.747 27.0198 94.7329 26.9669C94.2775 27.8035 93.9633 28.7143 93.808 29.5227C93.7797 29.678 93.7515 29.8298 93.7338 29.9781C93.6491 30.6736 93.8044 31.2807 94.1186 31.7609C94.5387 32.4033 95.2412 32.8164 96.0708 32.9082L96.0602 32.9117ZM97.903 28.4389C97.903 28.4389 98.4043 28.3966 98.6584 28.7284C98.2101 28.6649 97.903 28.4389 97.903 28.4389ZM98.8208 28.3189C98.316 28.3648 97.9206 28.2201 97.9206 28.2201C97.9206 28.2201 98.4537 28.0612 98.8208 28.3189ZM97.4405 26.5962C97.4617 26.5962 97.9983 26.5927 98.2878 27.1151C98.316 27.1681 98.2948 27.2387 98.2384 27.274C98.2101 27.2916 98.1783 27.2952 98.1536 27.2916C98.1254 27.2881 98.0972 27.2704 98.083 27.2422C97.8465 26.8186 97.4229 26.8221 97.4158 26.8221C97.3523 26.8221 97.3064 26.7727 97.3134 26.7091C97.3205 26.6456 97.377 26.5927 97.4405 26.5927V26.5962ZM96.9887 28.0188C97.031 27.9094 97.1016 27.8282 97.1758 27.7788C97.0416 27.7153 96.9957 27.514 96.9957 27.514L97.3876 27.7611C97.3876 27.7611 97.384 27.7611 97.3805 27.7611C97.4652 27.8212 97.4864 27.9694 97.4264 28.1318C97.3523 28.3189 97.1969 28.446 97.0769 28.4142C96.9569 28.3825 96.9181 28.2024 96.9922 28.0153L96.9887 28.0188ZM97.0734 29.9146C97.0981 29.8934 97.1369 29.8934 97.1546 29.9146C97.1722 29.9393 97.1687 29.9746 97.1405 29.9958C97.1158 30.0134 96.6321 30.3982 95.9331 30.3452C95.8308 30.3382 95.7249 30.3205 95.6119 30.2923C95.5801 30.2852 95.566 30.2535 95.5801 30.2217C95.5907 30.1899 95.626 30.1723 95.6543 30.1793C96.4627 30.3947 97.0663 29.9146 97.0734 29.911V29.9146ZM95.6578 28.0436L95.1424 29.3709C95.1424 29.3709 94.687 29.3709 94.5352 29.0708C95.0329 28.7708 95.6578 28.0436 95.6578 28.0436Z" fill="#CE7A63"/>
<path d="M102.048 28.7344C102.245 28.2932 102.319 27.866 102.259 27.4883C102.178 27.5024 102.097 27.5165 102.002 27.5165C101.984 27.5165 101.963 27.5165 101.945 27.5165C101.885 27.7742 101.808 28.039 101.716 28.3073C101.857 28.4167 101.966 28.5615 102.048 28.7344Z" fill="#263238"/>
<path opacity="0.7" d="M102.048 28.7344C102.245 28.2932 102.319 27.866 102.259 27.4883C102.178 27.5024 102.097 27.5165 102.002 27.5165C101.984 27.5165 101.963 27.5165 101.945 27.5165C101.885 27.7742 101.808 28.039 101.716 28.3073C101.857 28.4167 101.966 28.5615 102.048 28.7344Z" fill="#263238"/>
<path d="M100.671 28.1601V28.1566C100.755 27.9166 100.833 27.6659 100.904 27.4082C100.392 27.3023 99.8764 27.1187 99.3857 26.8398C99.2022 27.6306 99.3363 28.4143 99.6752 29.0144C99.9329 28.5979 100.293 28.2908 100.674 28.1601H100.671Z" fill="#CE7A63"/>
<path opacity="0.7" d="M100.671 28.1601V28.1566C100.755 27.9166 100.833 27.6659 100.904 27.4082C100.392 27.3023 99.8764 27.1187 99.3857 26.8398C99.2022 27.6306 99.3363 28.4143 99.6752 29.0144C99.9329 28.5979 100.293 28.2908 100.674 28.1601H100.671Z" fill="#263238"/>
<path d="M97.9238 28.2281C97.9238 28.2281 98.3192 28.3693 98.824 28.327C98.4604 28.0693 97.9238 28.2281 97.9238 28.2281Z" fill="#CE7A63"/>
<path opacity="0.2" d="M97.9238 28.2281C97.9238 28.2281 98.3192 28.3693 98.824 28.327C98.4604 28.0693 97.9238 28.2281 97.9238 28.2281Z" fill="black"/>
<path d="M97.9028 28.4393C97.9028 28.4393 98.21 28.6652 98.6583 28.7287C98.4041 28.3969 97.9028 28.4393 97.9028 28.4393Z" fill="#CE7A63"/>
<path opacity="0.2" d="M97.9028 28.4393C97.9028 28.4393 98.21 28.6652 98.6583 28.7287C98.4041 28.3969 97.9028 28.4393 97.9028 28.4393Z" fill="black"/>
<path d="M97.0771 28.4187C97.1972 28.4505 97.356 28.3234 97.4266 28.1363C97.4902 27.9739 97.4654 27.8256 97.3807 27.7656C97.296 27.8115 97.2289 27.808 97.176 27.7797C97.1018 27.8292 97.0312 27.9139 96.9889 28.0198C96.9147 28.2069 96.9536 28.3869 97.0736 28.4187H97.0771Z" fill="#263238"/>
<path d="M94.8991 27.2172C94.825 27.2667 94.7544 27.3514 94.712 27.4573C94.6379 27.6444 94.6767 27.8244 94.7967 27.8562C94.9168 27.888 95.0756 27.7609 95.1462 27.5738C95.2098 27.4114 95.1851 27.2631 95.1003 27.2031C95.0156 27.249 94.9485 27.2455 94.8956 27.2172H94.8991Z" fill="#263238"/>
<path d="M94.7258 26.9708C94.7399 27.0237 94.7929 27.1649 94.8988 27.2144C94.9517 27.2391 95.0188 27.2426 95.1035 27.2002C95.1035 27.2002 95.1071 27.2002 95.1106 27.2002L94.7293 26.9602L94.7188 26.9531C94.7188 26.9531 94.7187 26.9602 94.7258 26.9743V26.9708Z" fill="#263238"/>
<path d="M95.1458 29.3781L95.6612 28.0508C95.6612 28.0508 95.0328 28.778 94.5386 29.0781C94.6904 29.3746 95.1458 29.3781 95.1458 29.3781Z" fill="#BA4D3C"/>
<path d="M95.5836 30.228C95.573 30.2598 95.5836 30.2915 95.6153 30.2986C95.7248 30.3268 95.8342 30.3445 95.9366 30.3516C96.6356 30.4045 97.1227 30.0197 97.1439 30.0021C97.1686 29.9809 97.1757 29.9456 97.158 29.9209C97.1404 29.8962 97.1015 29.8962 97.0768 29.9209C97.0698 29.9244 96.4696 30.4045 95.6577 30.1892C95.6259 30.1821 95.5942 30.1998 95.5836 30.2315V30.228Z" fill="#263238"/>
<path d="M97.419 26.828C97.419 26.828 97.8497 26.828 98.0862 27.2481C98.1003 27.2763 98.1286 27.2905 98.1568 27.2975C98.1851 27.3011 98.2168 27.2975 98.2415 27.2799C98.298 27.2446 98.3227 27.174 98.291 27.121C97.998 26.5985 97.4649 26.5985 97.4437 26.6021C97.3802 26.6021 97.3237 26.655 97.3166 26.7186C97.3096 26.7821 97.3555 26.8315 97.419 26.8315V26.828Z" fill="#263238"/>
<path d="M94.8878 26.1536C94.9055 26.1747 94.9337 26.1853 94.962 26.1889C94.9937 26.1889 95.0255 26.1783 95.0502 26.1571C95.1667 26.0582 95.2832 25.9947 95.3891 25.9523C95.6539 25.85 95.8622 25.8888 95.8763 25.8923C95.9363 25.9064 96.0034 25.8676 96.0245 25.8076C96.0457 25.7476 96.014 25.684 95.954 25.6699C95.9434 25.6699 95.8163 25.6417 95.6256 25.6664C95.4315 25.6911 95.1702 25.7723 94.909 25.9982C94.8596 26.0406 94.849 26.1147 94.8878 26.1606V26.1536Z" fill="#263238"/>
<path d="M97.3838 27.7666C97.3838 27.7666 97.3873 27.7666 97.3909 27.7666L96.999 27.5195C96.999 27.5195 97.0449 27.7208 97.1791 27.7843C97.232 27.809 97.2991 27.8125 97.3838 27.7702V27.7666Z" fill="#263238"/>
<path d="M101.945 27.5165C101.963 27.5165 101.984 27.5165 102.002 27.5165C102.093 27.5165 102.178 27.5059 102.259 27.4882C102.909 27.3611 103.099 26.7504 102.881 25.9879C102.722 25.4266 102.34 24.7841 101.754 24.1875C102.111 24.8194 102.28 26.0656 101.945 27.5165Z" fill="#263238"/>
<path d="M97.331 24.7134C97.8711 25.7054 98.5948 26.3902 99.382 26.8385C99.8727 27.1174 100.388 27.301 100.9 27.4069C101.302 25.9136 101.377 24.2403 100.565 23.2448C98.7819 22.1787 96.9391 22.507 97.038 23.8344C97.0521 24.0285 97.1121 24.2474 97.218 24.4874C97.2498 24.5616 97.2886 24.6357 97.331 24.7134Z" fill="#263238"/>
<path d="M100.187 31.5911C100.921 31.7641 101.775 31.1216 102.09 30.1579C102.263 29.6283 102.231 29.1165 102.051 28.7281C101.97 28.5552 101.857 28.4104 101.719 28.301C101.705 28.3469 101.691 28.3892 101.673 28.4351C100.932 28.6999 100.688 28.1845 100.678 28.1562C100.296 28.2869 99.9362 28.594 99.6785 29.0106C99.5796 29.1729 99.4914 29.3459 99.4278 29.5366C99.2054 30.2179 99.3149 30.871 99.6573 31.2593C99.7985 31.4217 99.975 31.5417 100.19 31.5911H100.187ZM101.648 28.6787C102.079 28.7423 102.21 29.3953 101.938 30.1367C101.67 30.878 101.101 31.4252 100.67 31.3617C100.24 31.2981 100.109 30.645 100.381 29.9037C100.649 29.1624 101.218 28.6152 101.648 28.6787Z" fill="#407BFF"/>
<path d="M100.381 29.9058C100.113 30.6471 100.244 31.3002 100.671 31.3637C101.101 31.4273 101.67 30.8801 101.938 30.1388C102.206 29.3974 102.076 28.7443 101.649 28.6808C101.218 28.6173 100.649 29.1644 100.381 29.9058Z" fill="#407BFF"/>
<path opacity="0.3" d="M100.381 29.9058C100.113 30.6471 100.244 31.3002 100.671 31.3637C101.101 31.4273 101.67 30.8801 101.938 30.1388C102.206 29.3974 102.076 28.7443 101.649 28.6808C101.218 28.6173 100.649 29.1644 100.381 29.9058Z" fill="black"/>
<path d="M100.9 27.4035C100.829 27.6577 100.755 27.9119 100.667 28.1519V28.1555C100.681 28.1837 100.921 28.6991 101.663 28.4343C101.68 28.3885 101.694 28.3461 101.708 28.3002C101.804 28.0319 101.878 27.7671 101.938 27.5094C102.273 26.0585 102.104 24.8159 101.747 24.1805C101.747 24.1805 101.747 24.1734 101.74 24.1699C101.74 24.1699 101.013 23.2767 100.558 23.2344C101.37 24.2299 101.295 25.9032 100.893 27.3965L100.9 27.4035Z" fill="#407BFF"/>
<path d="M66.763 50.1133H71.4829C71.8904 50.1133 72.2207 49.783 72.2207 49.3755V43.3918C72.2207 42.9843 71.8904 42.654 71.4829 42.654H66.763C66.3555 42.654 66.0252 42.9843 66.0252 43.3918V49.3755C66.0252 49.783 66.3555 50.1133 66.763 50.1133Z" fill="#407BFF"/>
<path d="M67.0842 49.0336C65.6227 49.0336 64.4365 47.8474 64.4365 46.3859C64.4365 44.9244 65.6227 43.7383 67.0842 43.7383C68.5457 43.7383 69.7318 44.9244 69.7318 46.3859C69.7318 47.8474 68.5457 49.0336 67.0842 49.0336ZM67.0842 44.0913C65.8204 44.0913 64.7895 45.1221 64.7895 46.3859C64.7895 47.6497 65.8204 48.6806 67.0842 48.6806C68.348 48.6806 69.3788 47.6497 69.3788 46.3859C69.3788 45.1221 68.348 44.0913 67.0842 44.0913Z" fill="#407BFF"/>
<path d="M61.9795 110.737L66.5017 110.31L63.4552 99.1758L58.9365 99.6029L61.9795 110.737Z" fill="#FFB573"/>
<path d="M72.037 113.476C69.2905 112.604 69.407 111.389 66.6958 109.091C66.4028 108.84 66.0745 108.65 65.7179 108.618L61.224 108.212C61.0581 108.198 60.9028 108.325 60.8604 108.519L60.1614 111.622C59.9214 112.695 60.5639 113.747 61.4958 113.8C62.9962 113.889 64.8283 113.98 66.4628 114.129C68.8457 114.344 68.8492 115.551 71.6557 115.474C73.3537 115.428 72.9725 113.769 72.037 113.472V113.476Z" fill="#263238"/>
<path d="M35.0334 61.752C35.0334 61.752 60.4719 60.9859 60.6873 69.9985C61.0438 84.903 65.6154 106.225 65.6154 106.225L60.6026 106.691C60.6026 106.691 53.0162 89.704 51.0075 75.142C41.9455 75.7316 33.5895 75.3256 26.8998 75.3256C19.4017 75.3256 18.7804 67.0896 26.0808 57.4805C30.543 57.4805 35.0334 61.752 35.0334 61.752Z" fill="#407BFF"/>
<path opacity="0.5" d="M35.0334 61.752C35.0334 61.752 60.4719 60.9859 60.6873 69.9985C61.0438 84.903 65.6154 106.225 65.6154 106.225L60.6026 106.691C60.6026 106.691 53.0162 89.704 51.0075 75.142C41.9455 75.7316 33.5895 75.3256 26.8998 75.3256C19.4017 75.3256 18.7804 67.0896 26.0808 57.4805C30.543 57.4805 35.0334 61.752 35.0334 61.752Z" fill="white"/>
<path d="M66.1026 106.534L60.3731 107.202L59.0811 103.954L65.6154 101.871L66.1026 106.534Z" fill="#407BFF"/>
<path d="M26.3632 18.1914C26.8292 21.005 27.2246 26.1449 25.2124 27.9559C25.2124 27.9559 30.1264 30.5294 33.346 35.0163C36.7914 32.2875 33.9073 28.2136 33.9073 28.2136C30.8113 27.377 30.9596 25.0647 31.5667 22.9077L26.3668 18.1914H26.3632Z" fill="#FFB573"/>
<path d="M23.6452 28.849C23.4687 26.9286 22.7344 26.0496 22.7344 26.0496C22.7344 26.0496 30.4408 25.4 34.737 27.031C35.5984 28.6831 36.3539 30.3882 36.3539 30.3882L23.6452 28.849Z" fill="#407BFF"/>
<path d="M42.1752 35.594C41.8751 39.6608 40.9714 46.5129 38.7403 58.0495L19.5961 57.4812C20.0974 50.4137 19.3384 45.1432 17.6086 32.7734C17.2909 30.5176 18.9148 28.4524 21.1847 28.2194C22.4132 28.0924 23.8111 27.9864 25.2161 27.9617C28.4427 27.9017 31.0868 27.877 33.911 28.2194C34.843 28.3324 35.8067 28.4807 36.7281 28.636C40.0677 29.2044 42.4294 32.2156 42.1787 35.594H42.1752Z" fill="#263238"/>
<path d="M36.3432 13.9159C36.3961 14.2936 36.6362 14.5725 36.8833 14.5372C37.1304 14.5019 37.2893 14.17 37.2363 13.7923C37.1834 13.4146 36.9433 13.1357 36.6962 13.171C36.4491 13.2063 36.2902 13.5381 36.3432 13.9159Z" fill="#263238"/>
<path d="M36.5903 13.209L37.4588 12.8242C37.4588 12.8242 37.0916 13.5938 36.5903 13.209Z" fill="#263238"/>
<path d="M36.4844 14.4957C36.4844 14.4957 37.3457 16.0314 38.1577 16.7162C37.7235 17.2493 36.848 17.1504 36.848 17.1504L36.4844 14.4922V14.4957Z" fill="#ED893E"/>
<path d="M36.3363 10.6007C36.3787 10.5371 36.3857 10.4524 36.3504 10.3783C36.294 10.2689 36.1633 10.223 36.0504 10.2759C34.9419 10.8231 34.8113 11.8468 34.8042 11.8892C34.7901 12.0128 34.8784 12.1222 34.9984 12.1363C35.1219 12.1504 35.2314 12.0657 35.2455 11.9422C35.249 11.9069 35.362 11.1126 36.2445 10.6748C36.2834 10.6572 36.3116 10.6289 36.3328 10.5972L36.3363 10.6007Z" fill="#263238"/>
<path d="M23.3132 14.0456C24.2311 18.6349 24.5205 20.5976 27.1823 22.6557C31.1891 25.7482 36.6256 23.6195 37.0986 18.8467C37.5258 14.5504 35.9548 7.76893 31.1714 6.54395C26.4586 5.34016 22.3989 9.45636 23.3132 14.0456Z" fill="#FFB573"/>
<path d="M33.2929 15.3723C34.3519 19.5803 31.263 20.8158 31.263 20.8158C32.1738 22.5562 29.8191 26.3335 25.3217 24.106C21.3114 22.122 23.7049 19.2273 23.7049 19.2273C23.7049 19.2273 20.4994 18.5177 19.2639 13.8578C18.0283 9.19798 20.736 5.87254 25.5017 4.72523C30.2675 3.57792 32.9751 4.75347 33.8577 6.90336C34.7685 5.99257 37.0278 7.46113 36.7948 9.46274C35.2097 11.4043 32.5621 11.2067 32.5621 11.2067C32.5621 11.2067 36.8866 14.112 33.2964 15.3758L33.2929 15.3723Z" fill="#263238"/>
<path d="M22.2366 6.67865C23.7369 4.17222 14.3078 -4.66738 8.95249 5.49957C3.59719 15.6665 10.9541 15.9207 11.8967 22.9034C19.1547 17.6081 17.3508 8.15427 15.8787 5.89495C19.8078 5.74668 20.4927 9.67579 22.2366 6.68218V6.67865Z" fill="#263238"/>
<path d="M19.9774 8.37407C18.6253 7.02201 17.2203 7.17027 17.6157 6.33715C18.011 5.50049 20.2704 3.57301 19.8785 2.35156C22.0355 2.6128 23.2675 4.69208 23.677 6.11122C23.8288 6.63368 23.7123 7.19498 23.3734 7.62214C22.212 9.08011 20.9517 9.65553 19.9774 8.3776V8.37407Z" fill="#407BFF"/>
<path d="M31.7965 15.4482C32.0895 16.4472 32.8168 17.2168 33.5757 17.6157C34.716 18.2123 35.5527 17.2592 35.4609 16.0448C35.3797 14.9504 34.6842 13.3195 33.4345 13.2242C32.2025 13.1289 31.4612 14.3079 31.7965 15.4482Z" fill="#FFB573"/>
<path d="M73.2831 97.7842L76.8486 95.8496L73.5302 87.1406L69.001 89.8518L73.2831 97.7842Z" fill="#FFB573"/>
<path d="M76.4035 94.0612L72.1073 96.5746C71.9379 96.6735 71.8637 96.8853 71.9308 97.0689L73.0569 100.066C73.4453 101.1 74.6243 101.407 75.6269 100.934C76.9966 100.288 78.0027 98.8516 79.6796 97.8561C82.1083 96.4158 82.4578 96.5464 84.2935 94.1918C85.5291 92.6067 83.6899 92.1866 82.9203 92.5961C80.9822 93.6234 81.6106 93.8176 77.6321 93.7823C77.2014 93.7787 76.7707 93.8458 76.4035 94.0612Z" fill="#263238"/>
<path d="M32.0611 57.7148C32.0611 57.7148 63.0562 53.1291 66.2651 61.0756C71.8499 74.8998 75.3871 92.1871 75.3871 92.1871L71.2886 94.9442C71.2886 94.9442 62.4137 81.3777 57.6056 67.4899C51.8619 69.3468 33.5932 75.3269 26.9 75.3269C19.7513 75.3269 16.8354 69.2338 19.416 59.1163C19.6454 58.2126 20.4679 57.5877 21.3999 57.5948C25.9009 57.616 32.0611 57.7183 32.0611 57.7183V57.7148Z" fill="#407BFF"/>
<path opacity="0.6" d="M32.0611 57.7148C32.0611 57.7148 63.0562 53.1291 66.2651 61.0756C71.8499 74.8998 75.3871 92.1871 75.3871 92.1871L71.2886 94.9442C71.2886 94.9442 62.4137 81.3777 57.6056 67.4899C51.8619 69.3468 33.5932 75.3269 26.9 75.3269C19.7513 75.3269 16.8354 69.2338 19.416 59.1163C19.6454 58.2126 20.4679 57.5877 21.3999 57.5948C25.9009 57.616 32.0611 57.7183 32.0611 57.7183V57.7148Z" fill="white"/>
<path d="M75.9025 92.1779L70.9037 95.4115L69.001 92.4497L75.1682 87.3203L75.9025 92.1779Z" fill="#407BFF"/>
<path d="M19.3418 56.3413L18.8017 58.0394C18.731 58.17 18.8828 58.3112 19.1052 58.3183L38.8108 58.9043C38.9838 58.9078 39.1285 58.8301 39.1426 58.7207L39.365 57.0121C39.3791 56.8921 39.2344 56.7897 39.0438 56.7826L19.656 56.2072C19.5148 56.2037 19.3841 56.2566 19.3382 56.3413H19.3418Z" fill="white"/>
<path d="M41.7305 36.5598L42.9519 39.7229C43.3649 40.782 43.7886 41.841 44.2228 42.8859C45.0912 44.9688 46.002 47.0445 47.0257 48.8943L47.1211 49.0708C47.1211 49.0708 47.1422 49.1097 47.1387 49.1061C47.1069 49.0567 47.0716 49.0073 47.0328 48.9614C46.9551 48.8696 46.8739 48.7814 46.7822 48.7037C46.6833 48.626 46.5986 48.5625 46.5068 48.5095C46.4044 48.4531 46.3338 48.4178 46.2562 48.3895C46.2173 48.3754 46.175 48.3613 46.1397 48.3507C46.1114 48.3401 46.0832 48.333 46.0514 48.326C46.0232 48.3189 45.9914 48.3118 45.9632 48.3083L45.9031 48.2977C45.8114 48.2907 45.7796 48.2871 45.7337 48.2977C45.7196 48.2977 45.6913 48.3083 45.7019 48.3083C45.7019 48.3189 45.7584 48.3118 45.8184 48.3083C46.1008 48.2801 46.5774 48.1389 47.0434 47.9624C47.986 47.5988 49.0097 47.1363 50.0123 46.6315C52.0316 45.636 54.0755 44.5028 56.1125 43.4296L56.1407 43.4155C56.8291 43.0519 57.6834 43.3166 58.047 44.005C58.3471 44.5734 58.2164 45.2547 57.7787 45.6783C56.0348 47.3587 54.2026 48.8626 52.2187 50.2923C51.2126 50.9877 50.1959 51.6832 49.0097 52.2939C48.406 52.601 47.7918 52.9011 46.9375 53.1411C46.7116 53.2012 46.4821 53.2541 46.1891 53.2859C46.0549 53.3035 45.8784 53.3141 45.7196 53.3212C45.5289 53.3212 45.3524 53.3177 45.1159 53.2824L44.9465 53.2541L44.7523 53.2082L44.5581 53.1553C44.4911 53.1341 44.4134 53.1058 44.3393 53.0776C44.1945 53.0211 44.0533 52.9576 43.8909 52.8587C43.7356 52.7669 43.5909 52.6681 43.4391 52.5375C43.2908 52.4104 43.1567 52.2763 43.0366 52.1209C42.9766 52.0468 42.9166 51.9691 42.8636 51.8879L42.8248 51.8279L42.6907 51.6302C41.9529 50.5676 41.3315 49.498 40.7385 48.4142C40.1419 47.3375 39.6088 46.2467 39.0969 45.1488C38.5815 44.0544 38.112 42.946 37.6601 41.8339C37.2083 40.7113 36.7917 39.6135 36.3999 38.4273C35.9127 36.9446 36.7141 35.349 38.1967 34.8618C39.63 34.3888 41.1727 35.1266 41.7128 36.5175L41.7305 36.5634V36.5598Z" fill="#FFB573"/>
<path d="M39.3401 29.6953C43.7457 32.9219 44.0882 40.1447 44.0882 40.1447L35.4639 45.3376C35.4639 45.3376 33.1552 39.421 34.4084 35.0189C35.3227 31.8029 37.4902 28.3433 39.3365 29.6953H39.3401Z" fill="#263238"/>
<path d="M63.1692 45.2797L61.3759 46.2646C60.9275 46.5118 60.4121 46.6 59.9073 46.5223L57.9692 46.2399C56.7337 46.0599 55.6005 45.4456 54.7744 44.5066C55.0992 42.6921 58.1916 42.6285 58.1916 42.6285L60.4651 41.6613C60.8358 41.5024 61.2664 41.5871 61.5524 41.8731L63.3951 43.7194C63.8611 44.1854 63.7482 44.9655 63.1727 45.2832L63.1692 45.2797Z" fill="#FFB573"/>
<path d="M48.2824 77.8206C47.834 74.6293 44.8863 72.0417 41.695 72.0417H35.9161L31.1468 38.0071C30.7585 35.2288 28.1885 32.9766 25.4138 32.9766H5.04106C2.2628 32.9766 0.328259 35.2288 0.71658 38.0071L5.11167 69.3587C5.78593 74.1774 10.241 78.0853 15.0597 78.0853H48.3212L48.2824 77.8206Z" fill="#407BFF"/>
<path d="M45.2356 76.2684C44.7837 76.2684 44.3672 75.9789 44.226 75.5271L41.9137 68.1631C41.3241 66.2885 39.6085 65.0283 37.6457 65.0283H31.9409C31.3549 65.0283 30.8818 64.5552 30.8818 63.9692C30.8818 63.3832 31.3549 62.9102 31.9409 62.9102H37.6457C40.5404 62.9102 43.0681 64.767 43.9365 67.5276L46.2488 74.8916C46.4253 75.4494 46.1146 76.0425 45.5568 76.219C45.4509 76.2507 45.345 76.2684 45.2391 76.2684H45.2356Z" fill="#407BFF"/>
<path d="M26.5858 115.114H22.2896L22.3178 78.082H26.5575L26.5858 115.114Z" fill="#407BFF"/>
<path opacity="0.6" d="M26.5858 115.114H22.2896L22.3178 78.082H26.5575L26.5858 115.114Z" fill="white"/>
<path opacity="0.3" d="M26.5576 79.9848L22.3179 81.0227V78.082H26.5576V79.9848Z" fill="#407BFF"/>
<path d="M24.4323 114.207C20.1008 114.207 16.5918 114.98 16.5918 115.481H32.2729C32.2729 114.98 28.7639 114.207 24.4323 114.207Z" fill="#263238"/>
</g>
<defs>
<clipPath id="clip0_1553_124605">
<rect width="125.417" height="114.756" fill="white" transform="translate(0.66748 0.722656)"/>
</clipPath>
</defs>
</svg>
