<svg width="32" height="33" viewBox="0 0 32 33" fill="none" xmlns="http://www.w3.org/2000/svg">
<rect y="0.875" width="32" height="32" rx="16" fill="#BA26FF"/>
<rect y="0.875" width="32" height="32" rx="16" fill="url(#paint0_linear_4525_97302)"/>
<path d="M15.9999 9.09766C11.7066 9.09766 8.22217 12.5821 8.22217 16.8754C8.22217 21.1688 11.7066 24.6532 15.9999 24.6532C20.2933 24.6532 23.7777 21.1688 23.7777 16.8754C23.7777 12.5821 20.2933 9.09766 15.9999 9.09766ZM20.0366 19.9399C20.0055 20.0099 19.9666 20.0721 19.9122 20.1265L18.5977 21.441C18.4811 21.5577 18.3333 21.6121 18.1855 21.6121C18.0377 21.6121 17.8899 21.5577 17.7733 21.441C17.5477 21.2154 17.5477 20.8421 17.7733 20.6165L18.0922 20.2977H13.7444C12.7333 20.2977 11.9166 19.4732 11.9166 18.4699V17.0932C11.9166 16.7743 12.1811 16.5099 12.4999 16.5099C12.8188 16.5099 13.0833 16.7743 13.0833 17.0932V18.4699C13.0833 18.8354 13.3788 19.131 13.7444 19.131H18.0922L17.7733 18.8121C17.5477 18.5865 17.5477 18.2132 17.7733 17.9877C17.9988 17.7621 18.3722 17.7621 18.5977 17.9877L19.9122 19.3021C19.9666 19.3565 20.0055 19.4188 20.0366 19.4888C20.0988 19.6365 20.0988 19.7999 20.0366 19.9399ZM20.0833 16.6577C20.0833 16.9765 19.8188 17.241 19.4999 17.241C19.1811 17.241 18.9166 16.9765 18.9166 16.6577V15.281C18.9166 14.9154 18.6211 14.6199 18.2555 14.6199H13.9077L14.2266 14.931C14.4522 15.1565 14.4522 15.5299 14.2266 15.7554C14.1099 15.8721 13.9622 15.9265 13.8144 15.9265C13.6666 15.9265 13.5188 15.8721 13.4022 15.7554L12.0877 14.441C12.0333 14.3865 11.9944 14.3243 11.9633 14.2543C11.9011 14.1143 11.9011 13.951 11.9633 13.811C11.9944 13.741 12.0333 13.671 12.0877 13.6165L13.4022 12.3021C13.6277 12.0765 14.0011 12.0765 14.2266 12.3021C14.4522 12.5277 14.4522 12.901 14.2266 13.1265L13.9077 13.4454H18.2555C19.2666 13.4454 20.0833 14.2699 20.0833 15.2732V16.6577Z" fill="white"/>
<defs>
<linearGradient id="paint0_linear_4525_97302" x1="16" y1="0.875" x2="16" y2="32.875" gradientUnits="userSpaceOnUse">
<stop offset="0.045" stop-color="#AE00FF"/>
<stop offset="1" stop-color="#60018C"/>
</linearGradient>
</defs>
</svg>
