<svg width="32" height="33" viewBox="0 0 32 33" fill="none" xmlns="http://www.w3.org/2000/svg">
<path d="M20.3204 18.3941V21.6701C20.3204 24.4061 19.2284 25.4981 16.4924 25.4981H13.2284C10.5044 25.4981 9.40039 24.4061 9.40039 21.6701V18.3941C9.40039 15.6701 10.4924 14.5781 13.2284 14.5781H16.5044C19.2284 14.5781 20.3204 15.6701 20.3204 18.3941Z" stroke="#8F93A3" stroke-width="1.5" stroke-linecap="round" stroke-linejoin="round"/>
<path d="M24.9981 13.7144V16.9904C24.9981 19.7264 23.9061 20.8184 21.1701 20.8184H20.3181V18.3944C20.3181 15.6704 19.2261 14.5784 16.4901 14.5784H14.0781V13.7144C14.0781 10.9784 15.1701 9.89844 17.9061 9.89844H21.1821C23.9061 9.89844 24.9981 10.9904 24.9981 13.7144Z" stroke="#8F93A3" stroke-width="1.5" stroke-linecap="round" stroke-linejoin="round"/>
<path d="M5.2002 14.0992C5.2002 9.45522 8.9562 5.69922 13.6002 5.69922L12.3402 7.79922" stroke="#8F93A3" stroke-width="1.5" stroke-linecap="round" stroke-linejoin="round"/>
</svg>
