<svg width="33" height="32" viewBox="0 0 33 32" fill="none" xmlns="http://www.w3.org/2000/svg">
<rect x="0.291504" width="32" height="32" rx="16" fill="#ED9D03"/>
<rect x="0.291504" width="32" height="32" rx="16" fill="url(#paint0_linear_2107_36389)"/>
<path fill-rule="evenodd" clip-rule="evenodd" d="M9.6527 9.36169C8.51367 10.5007 8.51367 12.334 8.51367 16.0004C8.51367 19.6669 8.51367 21.5002 9.6527 22.6392C10.7917 23.7782 12.625 23.7782 16.2914 23.7782C19.9579 23.7782 21.7912 23.7782 22.9302 22.6392C24.0692 21.5002 24.0692 19.6669 24.0692 16.0004C24.0692 12.334 24.0692 10.5007 22.9302 9.36169C21.7912 8.22266 19.9579 8.22266 16.2914 8.22266C12.625 8.22266 10.7917 8.22266 9.6527 9.36169ZM15.1583 12.5138C15.3805 12.2806 15.3715 11.9113 15.1382 11.6891C14.9049 11.4669 14.5357 11.476 14.3135 11.7092L12.5137 13.599L12.0472 13.1092C11.825 12.876 11.4558 12.8669 11.2225 13.0891C10.9892 13.3113 10.9802 13.6806 11.2024 13.9138L12.0913 14.8472C12.2014 14.9628 12.354 15.0282 12.5137 15.0282C12.6733 15.0282 12.826 14.9628 12.9361 14.8472L15.1583 12.5138ZM17.0692 13.0838C16.7471 13.0838 16.4859 13.3449 16.4859 13.6671C16.4859 13.9893 16.7471 14.2504 17.0692 14.2504H20.9581C21.2803 14.2504 21.5414 13.9893 21.5414 13.6671C21.5414 13.3449 21.2803 13.0838 20.9581 13.0838H17.0692ZM15.1583 17.9583C15.3805 17.725 15.3715 17.3558 15.1382 17.1336C14.9049 16.9114 14.5357 16.9204 14.3135 17.1537L12.5137 19.0435L12.0472 18.5537C11.825 18.3204 11.4558 18.3114 11.2225 18.5336C10.9892 18.7558 10.9802 19.125 11.2024 19.3583L12.0913 20.2916C12.2014 20.4072 12.354 20.4727 12.5137 20.4727C12.6733 20.4727 12.826 20.4072 12.9361 20.2916L15.1583 17.9583ZM17.0692 18.5282C16.7471 18.5282 16.4859 18.7894 16.4859 19.1115C16.4859 19.4337 16.7471 19.6949 17.0692 19.6949H20.9581C21.2803 19.6949 21.5414 19.4337 21.5414 19.1115C21.5414 18.7894 21.2803 18.5282 20.9581 18.5282H17.0692Z" fill="white"/>
<defs>
<linearGradient id="paint0_linear_2107_36389" x1="16.2915" y1="0" x2="16.2915" y2="32" gradientUnits="userSpaceOnUse">
<stop offset="0.045" stop-color="#ED9D03"/>
<stop offset="1" stop-color="#916003"/>
</linearGradient>
</defs>
</svg>
