<svg width="20" height="21" viewBox="0 0 20 21" fill="none" xmlns="http://www.w3.org/2000/svg">
<path fill-rule="evenodd" clip-rule="evenodd" d="M7.58269 1.99805C7.19203 1.99805 6.76674 2.10891 6.397 2.26257C6.02715 2.41627 5.64928 2.63923 5.37407 2.91444L5.78081 3.32119L5.37407 2.91444L1.95741 6.33111C1.6822 6.60633 1.45924 6.98419 1.30554 7.35403C1.15188 7.72377 1.04102 8.14906 1.04102 8.53972V13.373C1.04102 13.7637 1.15188 14.189 1.30554 14.5587C1.45924 14.9286 1.6822 15.3064 1.95741 15.5816L5.37407 18.9983L5.81601 18.5564L5.37407 18.9983C5.64928 19.2735 6.02715 19.4965 6.397 19.6502C6.76674 19.8038 7.19203 19.9147 7.58269 19.9147H12.416C12.8067 19.9147 13.232 19.8038 13.6017 19.6502C13.9715 19.4965 14.3494 19.2735 14.6246 18.9983L18.0413 15.5816C18.3165 15.3064 18.5395 14.9286 18.6932 14.5587C18.8468 14.189 18.9577 13.7637 18.9577 13.373V8.53972C18.9577 8.14906 18.8468 7.72377 18.6932 7.35403C18.5395 6.98419 18.3165 6.60633 18.0413 6.33111L14.6246 2.91444L14.1827 3.35638L14.6246 2.91444C14.3494 2.63923 13.9715 2.41627 13.6017 2.26257C13.232 2.10891 12.8067 1.99805 12.416 1.99805H7.58269ZM6.25795 3.79833C6.38274 3.67354 6.60488 3.52983 6.8767 3.41686C7.14863 3.30385 7.40668 3.24805 7.58269 3.24805H12.416C12.592 3.24805 12.8501 3.30385 13.122 3.41686C13.3938 3.52983 13.616 3.67354 13.7407 3.79833L17.1574 7.215C17.2822 7.33979 17.4259 7.56192 17.5389 7.83374C17.6519 8.10567 17.7077 8.36371 17.7077 8.53972V13.373C17.7077 13.5491 17.6519 13.8071 17.5389 14.079C17.4259 14.3508 17.2822 14.573 17.1574 14.6978L13.7407 18.1144C13.616 18.2392 13.3938 18.3829 13.122 18.4959C12.8501 18.6089 12.592 18.6647 12.416 18.6647H7.58269C7.40668 18.6647 7.14863 18.6089 6.8767 18.4959C6.60488 18.3829 6.38274 18.2392 6.25795 18.1144L2.8413 14.6978L2.49008 15.049L2.84129 14.6978C2.71651 14.573 2.57279 14.3508 2.45983 14.079C2.34682 13.8071 2.29102 13.5491 2.29102 13.373V8.53972C2.29102 8.36371 2.34682 8.10567 2.45983 7.83374C2.57279 7.56192 2.71651 7.33979 2.84129 7.215L2.39935 6.77306L2.8413 7.215L6.25795 3.79833ZM10.0153 6.31836C9.32922 6.31836 8.77734 6.8726 8.77734 7.55633C8.77734 8.21731 9.28863 8.75226 9.93585 8.78914C9.98664 8.78633 10.0395 8.78615 10.0915 8.78908C10.7375 8.75176 11.2498 8.21752 11.2533 7.55504C11.2526 6.87282 10.6977 6.31836 10.0153 6.31836ZM7.52734 7.55633C7.52734 6.18408 8.63703 5.06836 10.0153 5.06836C11.3885 5.06836 12.5033 6.18316 12.5033 7.55633V7.55893C12.4977 8.8996 11.4402 9.99482 10.1034 10.0397C10.0757 10.0407 10.0479 10.0398 10.0203 10.037C10.0219 10.0372 10.0221 10.0371 10.0207 10.0371L10.0148 10.037C10.0091 10.037 10.0039 10.0372 10.0006 10.0375C9.97478 10.0399 9.94887 10.0406 9.92299 10.0397C8.58669 9.99483 7.52734 8.89948 7.52734 7.55633ZM11.0203 10.5589C10.6888 10.5102 10.353 10.4863 10.0198 10.4863C8.8546 10.4863 7.65528 10.7783 6.7175 11.4001L6.7152 11.4016C5.87195 11.9661 5.36719 12.7708 5.36719 13.6546C5.36719 14.3154 5.64939 14.9313 6.14441 15.4347L7.02781 14.5513C6.73157 14.2472 6.61719 13.9292 6.61719 13.6546C6.61719 13.2836 6.82594 12.8321 7.40942 12.4411L8.5893 12.9898L8.58932 12.9898L7.40942 12.4411C8.05719 12.012 8.92885 11.7676 9.84 11.7391L11.0203 10.5589ZM9.79597 13.5509L12.6204 14.8643C13.2046 14.4732 13.4136 14.0214 13.4136 13.6502C13.4136 13.2794 13.205 12.8294 12.6217 12.4413L12.6208 12.4407C12.2789 12.2124 11.8726 12.0362 11.4297 11.9172L12.4163 10.9306C12.7341 11.0586 13.0361 11.215 13.3146 11.401C14.1586 11.9626 14.6636 12.7661 14.6636 13.6502C14.6636 14.534 14.1588 15.3387 13.3156 15.9031L13.3155 15.9032C12.38 16.5291 11.1812 16.8229 10.0154 16.8229C9.03241 16.8229 8.02591 16.614 7.17361 16.1733L8.11682 15.2301C8.68522 15.4544 9.34244 15.5729 10.0154 15.5729C10.991 15.5729 11.9335 15.3239 12.6202 14.8644L9.79593 13.551L9.79597 13.5509Z" fill="#5E6272"/>
<path d="M4.13281 16.8478L15.9161 5.06445" stroke="#FF0000" stroke-width="1.25" stroke-linecap="round" stroke-linejoin="round"/>
</svg>
