<svg width="24" height="23" viewBox="0 0 24 23" fill="none" xmlns="http://www.w3.org/2000/svg">
<path d="M17.7138 6.16593C17.4011 6.09014 17.0696 6.05225 16.7285 6.05225C14.2464 6.05225 12.2285 8.07014 12.2285 10.5522C12.2285 11.3954 12.4654 12.1912 12.8822 12.8733C13.2327 13.4607 13.7159 13.9628 14.3033 14.3228C15.0043 14.787 15.838 15.0522 16.7285 15.0522C18.3769 15.0522 19.8075 14.1712 20.5843 12.8733C21.0011 12.1912 21.2285 11.3954 21.2285 10.5522C21.2285 8.41119 19.7317 6.61119 17.7138 6.16593ZM18.5759 10.1449L16.2738 12.447C16.1885 12.5322 16.0085 12.6175 15.8854 12.6365L15.0043 12.7596C14.6822 12.807 14.4643 12.5796 14.5117 12.267L14.6348 11.3859C14.6538 11.2628 14.739 11.0922 14.8243 10.9975L16.7948 9.02698L17.1264 8.6954C17.5243 8.29751 17.9885 8.10804 18.5664 8.6954C19.1443 9.28277 18.9738 9.74698 18.5759 10.1449Z" fill="#5E6272"/>
<path d="M20.2339 3.93956V4.84904C20.2339 5.23746 19.7886 5.4743 19.4381 5.2943C19.0023 5.06693 18.5381 4.89641 18.0455 4.78272C17.6286 4.67851 17.1834 4.63114 16.7286 4.63114C13.4602 4.63114 10.8076 7.28377 10.8076 10.5522C10.8076 11.6322 11.1013 12.6932 11.6602 13.6027C12.1339 14.3985 12.7971 15.0617 13.517 15.5069C13.6781 15.6111 13.8486 15.7059 14.0097 15.8006C14.1707 15.8859 14.2844 16.0564 14.2844 16.2364V18.1975C14.2844 18.7754 13.9055 19.5427 13.4318 19.8269L12.1055 20.689C10.8739 21.4564 9.1781 20.5943 9.1781 19.0596V13.9911C9.1781 13.3185 8.79916 12.4564 8.42021 11.9827L4.82968 8.15535C4.356 7.67219 3.97705 6.81009 3.97705 6.24167V4.0343C3.97705 2.88798 4.82968 2.02588 5.86231 2.02588H18.3486C19.3813 2.02588 20.2339 2.88798 20.2339 3.93956Z" fill="#5E6272"/>
</svg>
