<svg width="28" height="28" viewBox="0 0 28 28" fill="none" xmlns="http://www.w3.org/2000/svg">
<path d="M21.9329 10.6643C21.4872 10.6643 21.1329 11.0185 21.1329 11.4643V13.27C21.1329 17.3157 17.8415 20.6071 13.7958 20.6071C9.75007 20.6071 6.45864 17.3157 6.45864 13.27V11.4528C6.45864 11.0071 6.10436 10.6528 5.65864 10.6528C5.21293 10.6528 4.85864 11.0071 4.85864 11.4528V13.2585C4.85864 17.91 8.43579 21.7385 12.9958 22.15V24.5843C12.9958 25.03 13.3501 25.3843 13.7958 25.3843C14.2415 25.3843 14.5958 25.03 14.5958 24.5843V22.15C19.1444 21.75 22.7329 17.91 22.7329 13.2585V11.4528C22.7215 11.0185 22.3672 10.6643 21.9329 10.6643Z" fill="#5E6272"/>
<path d="M13.7941 2.52783C11.0055 2.52783 8.74268 4.79069 8.74268 7.57926V13.4307C8.74268 16.2193 11.0055 18.4821 13.7941 18.4821C16.5827 18.4821 18.8455 16.2193 18.8455 13.4307V7.57926C18.8455 4.79069 16.5827 2.52783 13.7941 2.52783ZM15.2912 10.4707C15.2112 10.7678 14.9484 10.9621 14.6512 10.9621C14.5941 10.9621 14.537 10.9507 14.4798 10.9393C14.0341 10.8135 13.5655 10.8135 13.1198 10.9393C12.7541 11.0421 12.3998 10.825 12.3084 10.4707C12.2055 10.1164 12.4227 9.75069 12.777 9.65926C13.4512 9.4764 14.1598 9.4764 14.8341 9.65926C15.177 9.75069 15.3827 10.1164 15.2912 10.4707ZM15.897 8.25355C15.7941 8.52783 15.5427 8.68783 15.2684 8.68783C15.1884 8.68783 15.1198 8.6764 15.0398 8.65355C14.2398 8.3564 13.3484 8.3564 12.5484 8.65355C12.2055 8.77926 11.817 8.5964 11.6912 8.25355C11.5655 7.91069 11.7484 7.52212 12.0912 7.40783C13.1884 7.00783 14.3998 7.00783 15.497 7.40783C15.8398 7.53355 16.0227 7.91069 15.897 8.25355Z" fill="#5E6272"/>
</svg>
