<svg width="28" height="29" viewBox="0 0 28 29" fill="none" xmlns="http://www.w3.org/2000/svg">
<path d="M21.2651 4.63063C21.5087 4.22471 22.0352 4.09308 22.4411 4.33663L22.0001 5.07163C22.4411 4.33663 22.4411 4.33663 22.4411 4.33663L22.4427 4.33759L22.4445 4.33867L22.4487 4.34125L22.4597 4.34801C22.4681 4.35324 22.4786 4.35992 22.4912 4.36805C22.5164 4.38432 22.5496 4.40646 22.5899 4.43461C22.6702 4.49086 22.7788 4.57143 22.906 4.67744C23.1598 4.88897 23.4918 5.20496 23.8224 5.63473C24.4885 6.50072 25.143 7.82288 25.143 9.64306C25.143 11.4632 24.4885 12.7854 23.8224 13.6514C23.4918 14.0812 23.1598 14.3971 22.906 14.6087C22.7788 14.7147 22.6702 14.7953 22.5899 14.8515C22.5496 14.8797 22.5164 14.9018 22.4912 14.9181C22.4849 14.9221 22.4792 14.9258 22.4739 14.9291C22.4686 14.9325 22.4639 14.9355 22.4597 14.9381L22.4487 14.9449L22.4445 14.9474L22.4427 14.9485C22.4427 14.9485 22.4411 14.9495 22.0001 14.2145L22.4411 14.9495C22.0352 15.193 21.5087 15.0614 21.2651 14.6555C21.0226 14.2513 21.1521 13.7275 21.554 13.4826L21.5603 13.4785C21.5687 13.4732 21.5845 13.4627 21.6068 13.4471C21.6514 13.4159 21.7214 13.3643 21.8085 13.2917C21.9833 13.1461 22.2227 12.9192 22.4636 12.6062C22.9403 11.9864 23.4287 11.0229 23.4287 9.64306C23.4287 8.26323 22.9403 7.29968 22.4636 6.67995C22.2227 6.36686 21.9833 6.14 21.8085 5.99439C21.7214 5.92182 21.6514 5.87025 21.6068 5.83901C21.5845 5.82341 21.5687 5.81296 21.5603 5.80757L21.554 5.80353C21.1521 5.55864 21.0226 5.03485 21.2651 4.63063Z" fill="#5E6272"/>
<path d="M11.7144 14.2145C14.2391 14.2145 16.2858 12.1678 16.2858 9.64306C16.2858 7.11833 14.2391 5.07163 11.7144 5.07163C9.18966 5.07163 7.14296 7.11833 7.14296 9.64306C7.14296 12.1678 9.18966 14.2145 11.7144 14.2145Z" fill="#5E6272"/>
<path d="M2.57153 20.5002C2.57153 23.3405 2.57153 25.6431 11.7144 25.6431C20.8572 25.6431 20.8572 23.3405 20.8572 20.5002C20.8572 17.6599 16.7639 15.3573 11.7144 15.3573C6.66493 15.3573 2.57153 17.6599 2.57153 20.5002Z" fill="#5E6272"/>
<path d="M20.1554 6.62235C19.7495 6.37879 19.2229 6.51042 18.9794 6.91635L19.2631 8.08605L19.272 8.09213C19.2853 8.1015 19.3107 8.12004 19.3442 8.14796C19.4118 8.20429 19.5084 8.29544 19.6064 8.42281C19.7974 8.67111 20.0001 9.06323 20.0001 9.64306C20.0001 10.2229 19.7974 10.615 19.6064 10.8633C19.5084 10.9907 19.4118 11.0818 19.3442 11.1382C19.3107 11.1661 19.2853 11.1846 19.272 11.194L19.2631 11.2001C18.8653 11.4463 18.7379 11.9673 18.9794 12.3698C19.2229 12.7757 19.7495 12.9073 20.1554 12.6638L19.7144 11.9288C20.1554 12.6638 20.1554 12.6638 20.1554 12.6638L20.1569 12.6628L20.1586 12.6618L20.1622 12.6597L20.1707 12.6544L20.1927 12.6404C20.2094 12.6296 20.2304 12.6156 20.255 12.5984C20.3041 12.564 20.3681 12.5165 20.4417 12.4551C20.5884 12.3329 20.7775 12.1526 20.9652 11.9085C21.3456 11.414 21.7144 10.6632 21.7144 9.64306C21.7144 8.62288 21.3456 7.87214 20.9652 7.37759C20.7775 7.13353 20.5884 6.95325 20.4417 6.83101C20.3681 6.76965 20.3041 6.72211 20.255 6.68773C20.2304 6.67052 20.2094 6.65652 20.1927 6.64567L20.1707 6.63171L20.1622 6.62646L20.1586 6.62426L20.1569 6.62327C20.1569 6.62327 20.1554 6.62235 19.7144 7.35734L20.1554 6.62235Z" fill="#5E6272"/>
</svg>
