<svg width="19" height="19" viewBox="0 0 19 19" fill="none" xmlns="http://www.w3.org/2000/svg">
<path d="M13.6249 0.498535H4.62488C2.14088 0.498535 0.124878 2.50554 0.124878 4.98054V10.3625V11.2625C0.124878 13.7375 2.14088 15.7445 4.62488 15.7445H5.97488C6.21788 15.7445 6.54188 15.9065 6.69488 16.1045L8.04488 17.8955C8.63888 18.6875 9.61088 18.6875 10.2049 17.8955L11.5549 16.1045C11.7259 15.8795 11.9959 15.7445 12.2749 15.7445H13.6249C16.1089 15.7445 18.1249 13.7375 18.1249 11.2625V4.98054C18.1249 2.50554 16.1089 0.498535 13.6249 0.498535ZM10.0249 11.0735H4.62488C4.25588 11.0735 3.94988 10.7675 3.94988 10.3985C3.94988 10.0295 4.25588 9.72353 4.62488 9.72353H10.0249C10.3939 9.72353 10.6999 10.0295 10.6999 10.3985C10.6999 10.7675 10.3939 11.0735 10.0249 11.0735ZM13.6249 6.57353H4.62488C4.25588 6.57353 3.94988 6.26754 3.94988 5.89853C3.94988 5.52953 4.25588 5.22354 4.62488 5.22354H13.6249C13.9939 5.22354 14.2999 5.52953 14.2999 5.89853C14.2999 6.26754 13.9939 6.57353 13.6249 6.57353Z" fill="#0E78F9"/>
</svg>
