<svg width="28" height="29" viewBox="0 0 28 29" fill="none" xmlns="http://www.w3.org/2000/svg">
<path d="M19.1427 4.21436H8.85697C6.01811 4.21436 3.71411 6.50807 3.71411 9.33664V15.4875V16.5161C3.71411 19.3446 6.01811 21.6384 8.85697 21.6384H10.3998C10.6775 21.6384 11.0478 21.8235 11.2227 22.0498L12.7655 24.0966C13.4444 25.0018 14.5553 25.0018 15.2341 24.0966L16.777 22.0498C16.9724 21.7926 17.281 21.6384 17.5998 21.6384H19.1427C21.9815 21.6384 24.2855 19.3446 24.2855 16.5161V9.33664C24.2855 6.50807 21.9815 4.21436 19.1427 4.21436ZM15.0284 16.3001H8.85697C8.43525 16.3001 8.08554 15.9504 8.08554 15.5286C8.08554 15.1069 8.43525 14.7572 8.85697 14.7572H15.0284C15.4501 14.7572 15.7998 15.1069 15.7998 15.5286C15.7998 15.9504 15.4501 16.3001 15.0284 16.3001ZM19.1427 11.1572H8.85697C8.43525 11.1572 8.08554 10.8075 8.08554 10.3858C8.08554 9.96407 8.43525 9.61436 8.85697 9.61436H19.1427C19.5644 9.61436 19.9141 9.96407 19.9141 10.3858C19.9141 10.8075 19.5644 11.1572 19.1427 11.1572Z" fill="#5E6272"/>
</svg>
