<svg width="28" height="29" viewBox="0 0 28 29" fill="none" xmlns="http://www.w3.org/2000/svg">
<path d="M13.9895 4.21436C8.31183 4.21436 3.71411 8.82236 3.71411 14.5001C3.71411 20.1778 8.31183 24.7858 13.9895 24.7858C19.6775 24.7858 24.2855 20.1778 24.2855 14.5001C24.2855 8.82236 19.6775 4.21436 13.9895 4.21436ZM10.3998 10.3858C11.2535 10.3858 11.9427 11.0749 11.9427 11.9286C11.9427 12.7824 11.2535 13.4715 10.3998 13.4715C9.54611 13.4715 8.85697 12.7824 8.85697 11.9286C8.85697 11.0749 9.54611 10.3858 10.3998 10.3858ZM13.9998 20.6715C11.6547 20.6715 9.65925 18.9641 8.85697 16.5572H19.1427C18.3404 18.9641 16.345 20.6715 13.9998 20.6715ZM17.5998 13.4715C16.7461 13.4715 16.057 12.7824 16.057 11.9286C16.057 11.0749 16.7461 10.3858 17.5998 10.3858C18.4535 10.3858 19.1427 11.0749 19.1427 11.9286C19.1427 12.7824 18.4535 13.4715 17.5998 13.4715Z" fill="#5E6272"/>
</svg>
