<svg width="17" height="21" viewBox="0 0 17 21" fill="none" xmlns="http://www.w3.org/2000/svg">
<path d="M15.2814 4.91104C14.3747 4.91104 13.9591 5.57216 13.9025 6.4316V10.1527C13.9025 10.1527 13.8364 10.3133 13.7514 10.3227C13.6664 10.3322 13.5814 10.181 13.5814 10.181V3.25827C13.5814 2.34216 12.8164 1.60549 11.8814 1.60549C10.9464 1.60549 10.5591 2.2666 10.493 3.1166V9.82216C10.493 9.82216 10.4175 9.94493 10.3419 9.94493C10.2758 9.94493 10.1908 9.84105 10.1908 9.84105V3.23938C10.1908 3.23938 10.1908 3.24882 10.1908 3.25827V2.15327C10.1908 1.23716 9.4258 0.500488 8.4908 0.500488C7.5558 0.500488 6.7908 1.23716 6.7908 2.15327V3.05993L6.77191 10.011C6.77191 10.011 6.69635 10.1244 6.63024 10.1244C6.55469 10.1244 6.47913 10.0016 6.47913 10.0016L6.49802 3.14493C6.44136 2.27604 5.99747 1.60549 5.0908 1.60549C4.18413 1.60549 3.58913 2.32327 3.58913 3.22993V9.84105C3.58913 9.84105 3.58913 10.0205 3.58913 9.99216V11.2388C3.58913 11.2388 3.52302 11.3994 3.44747 11.3994C3.38136 11.3994 3.3058 11.2483 3.3058 11.2483V9.67104C3.2208 8.83993 2.57858 8.19771 1.70024 8.19771C0.765244 8.19771 0.000244141 8.93438 0.000244141 9.85049V12.051C0.000244141 16.6127 3.80636 20.3149 8.50024 20.3149C13.1941 20.3149 17.0002 16.6127 17.0002 12.051V6.54493C17.0002 5.62882 16.2352 4.89216 15.3002 4.89216L15.2814 4.91104Z" fill="#0E78F9"/>
</svg>
