<svg width="17" height="21" viewBox="0 0 17 21" fill="none" xmlns="http://www.w3.org/2000/svg">
<path d="M15.4396 7.62084C15.0496 7.62084 14.7396 7.93084 14.7396 8.32084V9.90084C14.7396 13.4408 11.8596 16.3208 8.31963 16.3208C4.77963 16.3208 1.89963 13.4408 1.89963 9.90084V8.31084C1.89963 7.92084 1.58963 7.61084 1.19963 7.61084C0.809634 7.61084 0.499634 7.92084 0.499634 8.31084V9.89084C0.499634 13.9608 3.62963 17.3108 7.61963 17.6708V19.8008C7.61963 20.1908 7.92963 20.5008 8.31963 20.5008C8.70963 20.5008 9.01963 20.1908 9.01963 19.8008V17.6708C12.9996 17.3208 16.1396 13.9608 16.1396 9.89084V8.31084C16.1296 7.93084 15.8196 7.62084 15.4396 7.62084Z" fill="#0E78F9"/>
<path d="M8.32198 0.501465C5.88198 0.501465 3.90198 2.48146 3.90198 4.92146V10.0415C3.90198 12.4815 5.88198 14.4615 8.32198 14.4615C10.762 14.4615 12.742 12.4815 12.742 10.0415V4.92146C12.742 2.48146 10.762 0.501465 8.32198 0.501465ZM9.63198 7.45146C9.56198 7.71146 9.33198 7.88146 9.07198 7.88146C9.02198 7.88146 8.97198 7.87146 8.92198 7.86146C8.53198 7.75146 8.12198 7.75146 7.73198 7.86146C7.41198 7.95146 7.10198 7.76146 7.02198 7.45146C6.93198 7.14146 7.12198 6.82146 7.43198 6.74146C8.02198 6.58146 8.64198 6.58146 9.23198 6.74146C9.53198 6.82146 9.71198 7.14146 9.63198 7.45146ZM10.162 5.51147C10.072 5.75146 9.85198 5.89146 9.61198 5.89146C9.54198 5.89146 9.48198 5.88146 9.41198 5.86146C8.71198 5.60147 7.93198 5.60147 7.23198 5.86146C6.93198 5.97147 6.59198 5.81147 6.48198 5.51147C6.37198 5.21146 6.53198 4.87146 6.83198 4.77146C7.79198 4.42146 8.85198 4.42146 9.81198 4.77146C10.112 4.88146 10.272 5.21146 10.162 5.51147Z" fill="#0E78F9"/>
</svg>
