<svg width="28" height="29" viewBox="0 0 28 29" fill="none" xmlns="http://www.w3.org/2000/svg">
<path d="M17.8093 11.5788L23.5909 8.68861C23.7845 8.5919 23.9995 8.54624 24.2157 8.55597C24.4318 8.56571 24.6419 8.63051 24.826 8.74424C25.01 8.85796 25.162 9.01684 25.2674 9.20578C25.3729 9.39473 25.4283 9.60748 25.4284 9.82385V18.4131C25.4283 18.6294 25.3729 18.8422 25.2674 19.0311C25.162 19.2201 25.01 19.3789 24.826 19.4927C24.6419 19.6064 24.4318 19.6712 24.2157 19.6809C23.9995 19.6907 23.7845 19.645 23.5909 19.5483L17.8093 16.6581V11.5788Z" fill="#5E6272"/>
<path d="M2.57275 9.03871C2.57275 8.36514 2.84033 7.71916 3.31661 7.24288C3.79289 6.7666 4.43887 6.49902 5.11244 6.49902H15.2712C15.9447 6.49902 16.5907 6.7666 17.067 7.24288C17.5433 7.71916 17.8109 8.36514 17.8109 9.03871V19.1974C17.8109 19.871 17.5433 20.517 17.067 20.9933C16.5907 21.4695 15.9447 21.7371 15.2712 21.7371H5.11244C4.43887 21.7371 3.79289 21.4695 3.31661 20.9933C2.84033 20.517 2.57275 19.871 2.57275 19.1974V9.03871Z" fill="#5E6272"/>
</svg>
