<svg width="21" height="20" viewBox="0 0 21 20" fill="none" xmlns="http://www.w3.org/2000/svg">
<path d="M17.2314 0.862777C17.4445 0.507592 17.9052 0.392418 18.2604 0.605529L17.8745 1.24865C18.2604 0.605529 18.2604 0.605529 18.2604 0.605529L18.2618 0.606363L18.2633 0.607314L18.267 0.609568L18.2766 0.615486C18.284 0.620061 18.2932 0.6259 18.3042 0.633018C18.3262 0.64725 18.3554 0.666623 18.3905 0.691256C18.4609 0.740476 18.5558 0.810978 18.6672 0.903732C18.8893 1.08882 19.1797 1.36532 19.469 1.74137C20.0519 2.4991 20.6245 3.65599 20.6245 5.24865C20.6245 6.8413 20.0519 7.9982 19.469 8.75593C19.1797 9.13198 18.8893 9.40848 18.6672 9.59356C18.5558 9.68632 18.4609 9.75682 18.3905 9.80604C18.3554 9.83067 18.3262 9.85005 18.3042 9.86428C18.2987 9.86783 18.2937 9.87106 18.2891 9.87398C18.2845 9.87691 18.2803 9.87952 18.2766 9.88181L18.267 9.88773L18.2633 9.88998L18.2618 9.89093C18.2618 9.89093 18.2604 9.89177 17.8745 9.24865L18.2604 9.89177C17.9052 10.1049 17.4445 9.98971 17.2314 9.63452C17.0192 9.28083 17.1325 8.82252 17.4842 8.60823L17.4897 8.6047C17.497 8.59998 17.5109 8.59084 17.5304 8.57719C17.5694 8.54985 17.6307 8.50473 17.7069 8.44123C17.8598 8.31382 18.0693 8.11532 18.28 7.84137C18.6972 7.2991 19.1245 6.456 19.1245 5.24865C19.1245 4.0413 18.6972 3.1982 18.28 2.65593C18.0693 2.38198 17.8598 2.18348 17.7069 2.05606C17.6307 1.99257 17.5694 1.94745 17.5304 1.9201C17.5109 1.90645 17.497 1.89731 17.4897 1.8926L17.4842 1.88907C17.1325 1.67479 17.0192 1.21647 17.2314 0.862777Z" fill="#0E78F9"/>
<path d="M8.87451 9.24865C11.0837 9.24865 12.8745 7.45779 12.8745 5.24865C12.8745 3.03951 11.0837 1.24865 8.87451 1.24865C6.66537 1.24865 4.87451 3.03951 4.87451 5.24865C4.87451 7.45779 6.66537 9.24865 8.87451 9.24865Z" fill="#0E78F9"/>
<path d="M0.874512 14.7486C0.874512 17.2339 0.874512 19.2486 8.87451 19.2486C16.8745 19.2486 16.8745 17.2339 16.8745 14.7486C16.8745 12.2634 13.2928 10.2486 8.87451 10.2486C4.45623 10.2486 0.874512 12.2634 0.874512 14.7486Z" fill="#0E78F9"/>
<path d="M16.2604 2.60553C15.9052 2.39242 15.4445 2.50759 15.2314 2.86278L15.4796 3.88627L15.4874 3.89159C15.4991 3.89979 15.5213 3.91601 15.5506 3.94044C15.6098 3.98973 15.6943 4.06948 15.78 4.18093C15.9472 4.3982 16.1245 4.7413 16.1245 5.24865C16.1245 5.75599 15.9472 6.0991 15.78 6.31637C15.6943 6.42782 15.6098 6.50757 15.5506 6.55686C15.5213 6.58129 15.4991 6.59751 15.4874 6.60571L15.4796 6.61103C15.1315 6.82648 15.0201 7.28236 15.2314 7.63452C15.4445 7.98971 15.9052 8.10488 16.2604 7.89177L15.8745 7.24865C16.2604 7.89177 16.2604 7.89177 16.2604 7.89177L16.2617 7.89096L16.2632 7.89009L16.2663 7.88817L16.2738 7.88357L16.293 7.87136C16.3077 7.86186 16.3261 7.84962 16.3476 7.83456C16.3905 7.80448 16.4465 7.76288 16.5109 7.70919C16.6393 7.60223 16.8047 7.44448 16.969 7.23093C17.3019 6.7982 17.6245 6.1413 17.6245 5.24865C17.6245 4.35599 17.3019 3.6991 16.969 3.26637C16.8047 3.05282 16.6393 2.89507 16.5109 2.78811C16.4465 2.73442 16.3905 2.69282 16.3476 2.66274C16.3261 2.64768 16.3077 2.63543 16.293 2.62594L16.2738 2.61372L16.2663 2.60913L16.2632 2.6072L16.2617 2.60634C16.2617 2.60634 16.2604 2.60553 15.8745 3.24865L16.2604 2.60553Z" fill="#0E78F9"/>
</svg>
