<svg width="21" height="14" viewBox="0 0 21 14" fill="none" xmlns="http://www.w3.org/2000/svg">
<path d="M13.7078 4.94002L18.7667 2.41113C18.936 2.3265 19.1242 2.28655 19.3133 2.29507C19.5024 2.30359 19.6863 2.36029 19.8473 2.4598C20.0084 2.55931 20.1414 2.69833 20.2336 2.86365C20.3259 3.02898 20.3743 3.21514 20.3744 3.40446V10.92C20.3743 11.1093 20.3259 11.2955 20.2336 11.4608C20.1414 11.6262 20.0084 11.7652 19.8473 11.8647C19.6863 11.9642 19.5024 12.0209 19.3133 12.0294C19.1242 12.0379 18.936 11.998 18.7667 11.9134L13.7078 9.38446V4.94002Z" fill="#0E78F9"/>
<path d="M0.375977 2.72076C0.375977 2.13139 0.610103 1.56616 1.02685 1.14941C1.4436 0.732661 2.00883 0.498535 2.5982 0.498535H11.4871C12.0765 0.498535 12.6417 0.732661 13.0584 1.14941C13.4752 1.56616 13.7093 2.13139 13.7093 2.72076V11.6096C13.7093 12.199 13.4752 12.7642 13.0584 13.181C12.6417 13.5977 12.0765 13.8319 11.4871 13.8319H2.5982C2.00883 13.8319 1.4436 13.5977 1.02685 13.181C0.610103 12.7642 0.375977 12.199 0.375977 11.6096V2.72076Z" fill="#0E78F9"/>
</svg>
