<svg width="19" height="19" viewBox="0 0 19 19" fill="none" xmlns="http://www.w3.org/2000/svg">
<path d="M9.24088 0.498535C4.27288 0.498535 0.249878 4.53054 0.249878 9.49854C0.249878 14.4665 4.27288 18.4985 9.24088 18.4985C14.2179 18.4985 18.2499 14.4665 18.2499 9.49854C18.2499 4.53054 14.2179 0.498535 9.24088 0.498535ZM6.09988 5.89853C6.84688 5.89853 7.44988 6.50153 7.44988 7.24854C7.44988 7.99553 6.84688 8.59853 6.09988 8.59853C5.35288 8.59853 4.74988 7.99553 4.74988 7.24854C4.74988 6.50153 5.35288 5.89853 6.09988 5.89853ZM9.24988 14.8985C7.19788 14.8985 5.45188 13.4045 4.74988 11.2985H13.7499C13.0479 13.4045 11.3019 14.8985 9.24988 14.8985ZM12.3999 8.59853C11.6529 8.59853 11.0499 7.99553 11.0499 7.24854C11.0499 6.50153 11.6529 5.89853 12.3999 5.89853C13.1469 5.89853 13.7499 6.50153 13.7499 7.24854C13.7499 7.99553 13.1469 8.59853 12.3999 8.59853Z" fill="#0E78F9"/>
</svg>
