<svg width="22" height="21" viewBox="0 0 22 21" fill="none" xmlns="http://www.w3.org/2000/svg">
<path d="M10.9998 1.75C8.70726 1.75 6.84351 3.61375 6.84351 5.90625C6.84351 8.155 8.60226 9.975 10.8948 10.0537C10.9648 10.045 11.0348 10.045 11.0873 10.0537C11.1048 10.0537 11.1135 10.0537 11.131 10.0537C11.1398 10.0537 11.1398 10.0537 11.1485 10.0537C13.3885 9.975 15.1473 8.155 15.156 5.90625C15.156 3.61375 13.2923 1.75 10.9998 1.75Z" fill="#5E6272"/>
<path d="M15.4448 12.3813C13.0036 10.7538 9.02234 10.7538 6.56359 12.3813C5.45234 13.125 4.83984 14.1313 4.83984 15.2075C4.83984 16.2838 5.45234 17.2813 6.55484 18.0163C7.77984 18.8388 9.38984 19.25 10.9998 19.25C12.6098 19.25 14.2198 18.8388 15.4448 18.0163C16.5473 17.2725 17.1598 16.275 17.1598 15.19C17.1511 14.1138 16.5473 13.1163 15.4448 12.3813ZM12.7498 15.8638H11.6561V16.9575C11.6561 17.3163 11.3586 17.6138 10.9998 17.6138C10.6411 17.6138 10.3436 17.3163 10.3436 16.9575V15.8638H9.24984C8.89109 15.8638 8.59359 15.5663 8.59359 15.2075C8.59359 14.8488 8.89109 14.5513 9.24984 14.5513H10.3436V13.4575C10.3436 13.0988 10.6411 12.8013 10.9998 12.8013C11.3586 12.8013 11.6561 13.0988 11.6561 13.4575V14.5513H12.7498C13.1086 14.5513 13.4061 14.8488 13.4061 15.2075C13.4061 15.5663 13.1086 15.8638 12.7498 15.8638Z" fill="#5E6272"/>
</svg>
