<svg width="21" height="21" viewBox="0 0 21 21" fill="none" xmlns="http://www.w3.org/2000/svg">
<g clip-path="url(#clip0_1994_36869)">
<path d="M12.5977 5.65731C12.5977 7.49826 11.1053 8.99064 9.26432 8.99064C7.42337 8.99064 5.93099 7.49826 5.93099 5.65731C5.93099 3.81636 7.42337 2.32397 9.26432 2.32397C11.1053 2.32397 12.5977 3.81636 12.5977 5.65731Z" stroke="#5E6272" stroke-width="1.25"/>
<path d="M15.931 14.4073C15.931 16.4784 15.931 18.1573 9.26432 18.1573C2.59766 18.1573 2.59766 16.4784 2.59766 14.4073C2.59766 12.3362 5.58242 10.6573 9.26432 10.6573C12.9462 10.6573 15.931 12.3362 15.931 14.4073Z" stroke="#5E6272" stroke-width="1.25"/>
<path d="M16.1109 8.95817L15.9201 9.40456C15.8124 9.65649 15.5648 9.81991 15.2909 9.81991C14.8026 9.81991 14.4715 9.32328 14.6591 8.87257L16.5437 4.34702C16.5989 4.2393 16.6818 4.1523 16.7923 4.08601C16.9028 4.02249 17.0255 3.99072 17.1606 3.99072C17.2926 3.99072 17.4169 4.02249 17.5335 4.08601C17.6502 4.1523 17.7346 4.2393 17.7867 4.34702L19.6968 8.87329C19.8872 9.3246 19.5559 9.82406 19.066 9.82406C18.7926 9.82406 18.5454 9.66137 18.4373 9.41026L18.2425 8.95817H16.1109ZM17.6993 7.70284L17.1652 6.47238L16.6403 7.70284H17.6993Z" fill="#5E6272"/>
</g>
<defs>
<clipPath id="clip0_1994_36869">
<rect width="20" height="20" fill="white" transform="translate(0.0976562 0.657227)"/>
</clipPath>
</defs>
</svg>
