<svg width="21" height="21" viewBox="0 0 21 21" fill="none" xmlns="http://www.w3.org/2000/svg">
<g clip-path="url(#clip0_1994_11491)">
<circle cx="9.264" cy="5.65584" r="3.33333" stroke="#5E6272" stroke-width="1.25"/>
<path d="M15.931 14.4058C15.931 16.4768 15.931 18.1558 9.26432 18.1558C2.59766 18.1558 2.59766 16.4768 2.59766 14.4058C2.59766 12.3347 5.58242 10.6558 9.26432 10.6558C12.9462 10.6558 15.931 12.3347 15.931 14.4058Z" stroke="#5E6272" stroke-width="1.25"/>
<path d="M16.8859 5.6746C17.2026 5.10654 17.3609 4.82251 17.5977 4.82251C17.8344 4.82251 17.9927 5.10654 18.3094 5.6746L18.3913 5.82157C18.4813 5.98299 18.5263 6.06371 18.5964 6.11696C18.6666 6.17022 18.7539 6.18998 18.9287 6.22952L19.0878 6.26552C19.7027 6.40465 20.0102 6.47421 20.0833 6.70944C20.1565 6.94467 19.9468 7.18978 19.5276 7.67999L19.4192 7.80682C19.3 7.94612 19.2405 8.01577 19.2137 8.10194C19.1869 8.18811 19.1959 8.28104 19.2139 8.4669L19.2303 8.63611C19.2937 9.29016 19.3254 9.61719 19.1339 9.76256C18.9424 9.90794 18.6545 9.7754 18.0787 9.5103L17.9298 9.44172C17.7662 9.36639 17.6844 9.32872 17.5977 9.32872C17.5109 9.32872 17.4291 9.36639 17.2655 9.44172L17.1166 9.5103C16.5408 9.7754 16.253 9.90794 16.0614 9.76256C15.8699 9.61719 15.9016 9.29016 15.965 8.63611L15.9814 8.4669C15.9994 8.28104 16.0084 8.18811 15.9816 8.10194C15.9548 8.01577 15.8953 7.94612 15.7761 7.80682L15.6677 7.67999C15.2485 7.18978 15.0389 6.94467 15.112 6.70944C15.1852 6.47421 15.4926 6.40465 16.1075 6.26552L16.2666 6.22952C16.4414 6.18999 16.5287 6.17022 16.5989 6.11696C16.669 6.06371 16.714 5.98299 16.804 5.82157L16.8859 5.6746Z" fill="#5E6272"/>
</g>
<defs>
<clipPath id="clip0_1994_11491">
<rect width="20" height="20" fill="white" transform="translate(0.0976562 0.657227)"/>
</clipPath>
</defs>
</svg>
