<svg width="21" height="21" viewBox="0 0 21 21" fill="none" xmlns="http://www.w3.org/2000/svg">
<g clip-path="url(#clip0_1994_21678)">
<path d="M12.5977 5.65853C12.5977 7.49948 11.1053 8.99186 9.26432 8.99186C7.42337 8.99186 5.93099 7.49948 5.93099 5.65853C5.93099 3.81758 7.42337 2.3252 9.26432 2.3252C11.1053 2.3252 12.5977 3.81758 12.5977 5.65853Z" stroke="#5E6272" stroke-width="1.25"/>
<path d="M15.931 14.4085C15.931 16.4796 15.931 18.1585 9.26432 18.1585C2.59766 18.1585 2.59766 16.4796 2.59766 14.4085C2.59766 12.3375 5.58242 10.6585 9.26432 10.6585C12.9462 10.6585 15.931 12.3375 15.931 14.4085Z" stroke="#5E6272" stroke-width="1.25"/>
<path d="M19.7996 6.4082C20.1041 6.1807 20.1705 5.74125 19.8781 5.49836C19.5852 5.25504 19.2457 5.06998 18.8778 4.95593C18.2891 4.7735 17.6578 4.78219 17.0745 4.98078C16.4911 5.17936 15.9856 5.55763 15.6305 6.06131C15.2754 6.56499 15.089 7.1682 15.098 7.7844C15.107 8.4006 15.3109 8.99811 15.6805 9.49122C16.0501 9.98433 16.5664 10.3477 17.1554 10.5292C17.7443 10.7107 18.3756 10.701 18.9587 10.5014C19.3231 10.3767 19.6571 10.1818 19.9427 9.93005C20.2279 9.67873 20.1487 9.24141 19.8377 9.02289C19.5267 8.80437 19.0996 8.89885 18.7681 9.0849C18.6871 9.13037 18.6018 9.16864 18.513 9.19903C18.2051 9.30439 17.8717 9.30952 17.5608 9.21369C17.2498 9.11785 16.9771 8.92598 16.782 8.6656C16.5868 8.40522 16.4791 8.0897 16.4744 7.76432C16.4696 7.43895 16.5681 7.12043 16.7556 6.85446C16.9431 6.5885 17.21 6.38875 17.518 6.28389C17.8261 6.17903 18.1594 6.17444 18.4703 6.27077C18.5599 6.29856 18.6463 6.33432 18.7286 6.37741C19.0654 6.55372 19.495 6.6357 19.7996 6.4082Z" fill="#5E6272"/>
</g>
<defs>
<clipPath id="clip0_1994_21678">
<rect width="20" height="20" fill="white" transform="translate(0.0976562 0.657227)"/>
</clipPath>
</defs>
</svg>
