<svg width="21" height="21" viewBox="0 0 21 21" fill="none" xmlns="http://www.w3.org/2000/svg">
<path fill-rule="evenodd" clip-rule="evenodd" d="M10.0974 1.69897C7.91131 1.69897 6.13911 3.47118 6.13911 5.65731C6.13911 7.84344 7.91131 9.61564 10.0974 9.61564C12.2836 9.61564 14.0558 7.84344 14.0558 5.65731C14.0558 3.47118 12.2836 1.69897 10.0974 1.69897ZM7.38911 5.65731C7.38911 4.16154 8.60167 2.94897 10.0974 2.94897C11.5932 2.94897 12.8058 4.16154 12.8058 5.65731C12.8058 7.15308 11.5932 8.36564 10.0974 8.36564C8.60167 8.36564 7.38911 7.15308 7.38911 5.65731Z" fill="#5E6272"/>
<path fill-rule="evenodd" clip-rule="evenodd" d="M10.0974 10.8656C8.16948 10.8656 6.39321 11.3039 5.07698 12.0443C3.78035 12.7736 2.80578 13.879 2.80578 15.2406L2.80572 15.3256C2.80478 16.2938 2.8036 17.509 3.86945 18.3769C4.39401 18.8041 5.12784 19.1078 6.11928 19.3085C7.11349 19.5098 8.4093 19.6156 10.0974 19.6156C11.7856 19.6156 13.0814 19.5098 14.0756 19.3085C15.067 19.1078 15.8009 18.8041 16.3254 18.3769C17.3913 17.509 17.3901 16.2938 17.3892 15.3256L17.3891 15.2406C17.3891 13.879 16.4145 12.7736 15.1179 12.0443C13.8017 11.3039 12.0254 10.8656 10.0974 10.8656ZM4.05578 15.2406C4.05578 14.5312 4.57359 13.7616 5.68981 13.1337C6.78644 12.5169 8.3435 12.1156 10.0974 12.1156C11.8514 12.1156 13.4084 12.5169 14.5051 13.1337C15.6213 13.7616 16.1391 14.5312 16.1391 15.2406C16.1391 16.3305 16.1055 16.944 15.5361 17.4077C15.2273 17.6591 14.7112 17.9045 13.8276 18.0834C12.9468 18.2617 11.7426 18.3656 10.0974 18.3656C8.45225 18.3656 7.24806 18.2617 6.36727 18.0834C5.48371 17.9045 4.96754 17.6591 4.65877 17.4077C4.08937 16.944 4.05578 16.3305 4.05578 15.2406Z" fill="#5E6272"/>
</svg>
