<svg width="21" height="21" viewBox="0 0 21 21" fill="none" xmlns="http://www.w3.org/2000/svg">
<path fill-rule="evenodd" clip-rule="evenodd" d="M8.81519 1.69873L11.348 1.69873C11.6932 1.69873 11.973 1.97855 11.973 2.32373C11.973 2.66891 11.6932 2.94873 11.348 2.94873H8.84798C7.47195 2.94873 6.48382 2.94939 5.71306 3.02267C4.95159 3.09507 4.46707 3.23392 4.0808 3.47063C3.60425 3.76266 3.20358 4.16333 2.91155 4.63988C2.67484 5.02615 2.53599 5.51068 2.46359 6.27214C2.39031 7.0429 2.38965 8.03103 2.38965 9.40706V10.2404C2.38965 11.2197 2.38999 11.9228 2.42785 12.4777C2.46532 13.0269 2.53746 13.3851 2.65924 13.6791C3.0187 14.5469 3.70817 15.2363 4.57598 15.5958C5.00568 15.7738 5.55387 15.8403 6.60007 15.8584L6.62658 15.8588C6.95825 15.8645 7.24889 15.8695 7.49046 15.8963C7.75003 15.925 8.0039 15.9831 8.24787 16.125C8.48978 16.2657 8.66426 16.4537 8.81636 16.6624C8.95692 16.8552 9.10136 17.0993 9.26495 17.3757L9.73025 18.1618C9.89088 18.4332 10.305 18.4332 10.4657 18.1618L10.931 17.3757C11.0946 17.0993 11.239 16.8552 11.3796 16.6624C11.5317 16.4537 11.7062 16.2657 11.9481 16.125C12.192 15.9831 12.4459 15.925 12.7055 15.8963C12.947 15.8695 13.2377 15.8645 13.5693 15.8588L13.5959 15.8584C14.6421 15.8403 15.1903 15.7738 15.62 15.5958C16.4878 15.2363 17.1773 14.5469 17.5367 13.6791C17.6585 13.3851 17.7306 13.0269 17.7681 12.4777C17.806 11.9228 17.8063 11.2197 17.8063 10.2404V9.40706C17.8063 9.06189 18.0861 8.78206 18.4313 8.78206C18.7765 8.78206 19.0563 9.06189 19.0563 9.40706V10.2636C19.0563 11.2147 19.0563 11.9604 19.0152 12.5628C18.9734 13.1756 18.887 13.6857 18.6916 14.1574C18.2052 15.3315 17.2724 16.2643 16.0983 16.7507C15.4275 17.0285 14.6635 17.0902 13.6174 17.1082C13.2515 17.1145 13.0197 17.1191 12.843 17.1387C12.678 17.157 12.614 17.1838 12.5765 17.2055C12.537 17.2285 12.4832 17.2704 12.3897 17.3986C12.2886 17.5374 12.1743 17.7291 11.9931 18.0353L11.5414 18.7985C10.8967 19.8876 9.2992 19.8876 8.65456 18.7985L8.20281 18.0353C8.0216 17.7291 7.90733 17.5374 7.80619 17.3986C7.71275 17.2704 7.65892 17.2285 7.61942 17.2055C7.58197 17.1838 7.51797 17.157 7.35288 17.1387C7.17621 17.1191 6.94444 17.1145 6.57853 17.1082C5.53246 17.0902 4.76844 17.0285 4.09762 16.7507C2.92353 16.2643 1.99072 15.3315 1.50439 14.1574C1.30901 13.6857 1.22256 13.1756 1.18074 12.5628C1.13964 11.9604 1.13965 11.2147 1.13965 10.2636L1.13965 9.37427C1.13964 8.03811 1.13964 6.99064 1.2192 6.15382C1.3003 5.30086 1.46846 4.60244 1.84575 3.98676C2.24085 3.34201 2.78293 2.79993 3.42768 2.40483C4.04336 2.02754 4.74178 1.85939 5.59474 1.77829C6.43156 1.69872 7.47903 1.69873 8.81519 1.69873ZM15.9313 2.94873C14.8958 2.94873 14.0563 3.7882 14.0563 4.82373C14.0563 5.85926 14.8958 6.69873 15.9313 6.69873C16.9669 6.69873 17.8063 5.85926 17.8063 4.82373C17.8063 3.7882 16.9669 2.94873 15.9313 2.94873ZM12.8063 4.82373C12.8063 3.09784 14.2054 1.69873 15.9313 1.69873C17.6572 1.69873 19.0563 3.09784 19.0563 4.82373C19.0563 6.54962 17.6572 7.94873 15.9313 7.94873C14.2054 7.94873 12.8063 6.54962 12.8063 4.82373Z" fill="#5E6272"/>
</svg>
