<svg width="25" height="24" viewBox="0 0 25 24" fill="none" xmlns="http://www.w3.org/2000/svg">
<path d="M16.2588 2H7.87885C4.23885 2 2.06885 4.17 2.06885 7.81V16.18C2.06885 19.83 4.23885 22 7.87885 22H16.2488C19.8888 22 22.0588 19.83 22.0588 16.19V7.81C22.0688 4.17 19.8988 2 16.2588 2ZM16.0688 12.75H12.8188V16C12.8188 16.41 12.4788 16.75 12.0688 16.75C11.6588 16.75 11.3188 16.41 11.3188 16V12.75H8.06885C7.65885 12.75 7.31885 12.41 7.31885 12C7.31885 11.59 7.65885 11.25 8.06885 11.25H11.3188V8C11.3188 7.59 11.6588 7.25 12.0688 7.25C12.4788 7.25 12.8188 7.59 12.8188 8V11.25H16.0688C16.4788 11.25 16.8188 11.59 16.8188 12C16.8188 12.41 16.4788 12.75 16.0688 12.75Z" fill="#0E78F9"/>
</svg>
