<svg width="33" height="33" viewBox="0 0 33 33" fill="none" xmlns="http://www.w3.org/2000/svg">
<path d="M15.7938 22.1105C15.7938 22.515 16.1218 22.843 16.5264 22.843C16.9309 22.843 17.2589 22.515 17.2589 22.1105V19.1802C17.2589 18.7757 16.9309 18.4477 16.5264 18.4477C16.1218 18.4477 15.7938 18.7757 15.7938 19.1802V22.1105Z" fill="#8F93A3"/>
<path fill-rule="evenodd" clip-rule="evenodd" d="M16.5264 5.75C15.8347 5.75 15.2063 5.9481 14.5246 6.27963C13.8656 6.6001 13.1043 7.0726 12.1533 7.66278L10.1348 8.91553C9.23506 9.47394 8.51457 9.92109 7.95925 10.3464C7.38419 10.7868 6.9425 11.2353 6.62346 11.8182C6.30509 12.3998 6.16171 13.0187 6.09297 13.7502C6.02635 14.4592 6.02636 15.3261 6.02637 16.4133V17.9885C6.02635 19.8481 6.02634 21.316 6.17552 22.4637C6.32854 23.641 6.65008 24.5915 7.37658 25.3429C8.10643 26.0979 9.03519 26.4352 10.185 26.5951C11.2993 26.75 12.7225 26.75 14.5161 26.75H18.5366C20.3302 26.75 21.7534 26.75 22.8678 26.5951C24.0175 26.4352 24.9463 26.0979 25.6762 25.3429C26.4027 24.5915 26.7242 23.641 26.8772 22.4637C27.0264 21.316 27.0264 19.8481 27.0264 17.9885V16.4133C27.0264 15.3261 27.0264 14.4592 26.9598 13.7502C26.891 13.0187 26.7476 12.3998 26.4293 11.8182C26.1102 11.2353 25.6685 10.7868 25.0935 10.3464C24.5382 9.92109 23.8177 9.47395 22.9179 8.91554L20.8994 7.66277C19.9485 7.0726 19.1872 6.6001 18.5282 6.27963C17.8464 5.9481 17.218 5.75 16.5264 5.75ZM12.8924 8.92844C13.8846 8.31269 14.5822 7.8808 15.1653 7.59721C15.7335 7.32092 16.1358 7.21512 16.5264 7.21512C16.9169 7.21512 17.3193 7.32092 17.8874 7.59721C18.4706 7.8808 19.1682 8.31269 20.1603 8.92844L22.1138 10.1408C23.0523 10.7233 23.7112 11.1332 24.2027 11.5096C24.6809 11.8758 24.956 12.178 25.1441 12.5216C25.3328 12.8665 25.443 13.2696 25.5011 13.8873C25.5605 14.5198 25.5613 15.318 25.5613 16.4492V17.9348C25.5613 19.86 25.5598 21.2325 25.4243 22.2748C25.2913 23.2985 25.0406 23.8924 24.6228 24.3246C24.2083 24.7533 23.644 25.0079 22.666 25.1439C21.6642 25.2832 20.343 25.2849 18.4799 25.2849H14.5729C12.7097 25.2849 11.3885 25.2832 10.3868 25.1439C9.40869 25.0079 8.84441 24.7533 8.42993 24.3246C8.0121 23.8924 7.76147 23.2985 7.62841 22.2748C7.49294 21.2325 7.49148 19.86 7.49148 17.9348V16.4492C7.49148 15.318 7.49223 14.5198 7.55166 13.8873C7.6097 13.2696 7.71989 12.8665 7.90864 12.5216C8.09673 12.178 8.37185 11.8758 8.85006 11.5096C9.34153 11.1332 10.0004 10.7233 10.9389 10.1408L12.8924 8.92844Z" fill="#8F93A3"/>
</svg>
