<svg width="25" height="25" viewBox="0 0 25 25" fill="none" xmlns="http://www.w3.org/2000/svg">
<path fill-rule="evenodd" clip-rule="evenodd" d="M9.22466 2.875H15.1923C16.5281 2.87498 17.6048 2.87496 18.4516 2.98881C19.3308 3.10702 20.071 3.35989 20.6589 3.94781C21.2469 4.53573 21.4997 5.27598 21.6179 6.15515C21.7318 7.00196 21.7318 8.07864 21.7318 9.41443V14.4025C21.7318 15.2801 21.7318 16.0119 21.6537 16.5929C21.5713 17.2061 21.3899 17.7597 20.945 18.2046C20.5001 18.6494 19.9465 18.8308 19.3333 18.9132C18.7524 18.9913 18.0206 18.9913 17.143 18.9913H7.27399C6.3964 18.9913 5.66461 18.9913 5.08366 18.9132C4.47046 18.8308 3.91684 18.6494 3.47197 18.2046C3.02709 17.7597 2.84573 17.2061 2.76329 16.5929C2.68519 16.0119 2.68521 15.2801 2.68524 14.4025L2.68524 9.41442C2.68522 8.07864 2.6852 7.00196 2.79905 6.15515C2.91726 5.27598 3.17013 4.53573 3.75805 3.94781C4.34597 3.35989 5.08621 3.10702 5.96539 2.98881C6.8122 2.87496 7.88888 2.87498 9.22466 2.875ZM6.16061 4.44087C5.4439 4.53722 5.06437 4.71347 4.79404 4.9838C4.52371 5.25413 4.34746 5.63366 4.2511 6.35037C4.15191 7.08816 4.15036 8.06599 4.15036 9.46802V14.3517C4.15036 15.2933 4.15191 15.9258 4.21534 16.3976C4.27594 16.8484 4.38067 17.0413 4.50796 17.1686C4.63524 17.2958 4.82815 17.4006 5.27888 17.4612C5.75068 17.5246 6.38318 17.5262 7.32478 17.5262H17.0922C18.0338 17.5262 18.6663 17.5246 19.1381 17.4612C19.5888 17.4006 19.7817 17.2958 19.909 17.1686C20.0363 17.0413 20.141 16.8484 20.2016 16.3976C20.2651 15.9258 20.2666 15.2933 20.2666 14.3517V9.46802C20.2666 8.06599 20.2651 7.08816 20.1659 6.35037C20.0695 5.63366 19.8933 5.25413 19.623 4.9838C19.3526 4.71347 18.9731 4.53722 18.2564 4.44087C17.5186 4.34167 16.5408 4.34012 15.1387 4.34012H9.27826C7.87623 4.34012 6.8984 4.34167 6.16061 4.44087ZM8.54571 15.3285C8.54571 14.9239 8.87368 14.5959 9.27826 14.5959H15.1387C15.5433 14.5959 15.8713 14.9239 15.8713 15.3285C15.8713 15.7331 15.5433 16.061 15.1387 16.061H9.27826C8.87368 16.061 8.54571 15.7331 8.54571 15.3285ZM1.7085 21.189C1.7085 20.7844 2.03647 20.4564 2.44105 20.4564H21.9759C22.3805 20.4564 22.7085 20.7844 22.7085 21.189C22.7085 21.5935 22.3805 21.9215 21.9759 21.9215H2.44105C2.03647 21.9215 1.7085 21.5935 1.7085 21.189Z" fill="#8F93A3"/>
</svg>
