<svg width="25" height="24" viewBox="0 0 25 24" fill="none" xmlns="http://www.w3.org/2000/svg">
<path fill-rule="evenodd" clip-rule="evenodd" d="M1.77197 20.24C1.77197 19.8203 2.11557 19.48 2.53941 19.48H23.0045C23.4284 19.48 23.772 19.8203 23.772 20.24C23.772 20.6597 23.4284 21 23.0045 21H2.53941C2.11557 21 1.77197 20.6597 1.77197 20.24Z" fill="#0E78F9"/>
<path fill-rule="evenodd" clip-rule="evenodd" d="M4.46178 3.8904C3.56267 4.78079 3.56267 6.21386 3.56267 9.08V14.1467C3.56267 16.0574 3.56267 17.0128 4.16208 17.6064C4.76149 18.2 5.72622 18.2 7.65569 18.2H17.8883C19.8177 18.2 20.7825 18.2 21.3819 17.6064C21.9813 17.0128 21.9813 16.0574 21.9813 14.1467V9.08C21.9813 6.21386 21.9813 4.78079 21.0822 3.8904C20.183 3 18.7359 3 15.8417 3H9.70221C6.808 3 5.3609 3 4.46178 3.8904ZM8.93476 15.16C8.93476 14.7403 9.27836 14.4 9.70221 14.4H15.8417C16.2656 14.4 16.6092 14.7403 16.6092 15.16C16.6092 15.5797 16.2656 15.92 15.8417 15.92H9.70221C9.27836 15.92 8.93476 15.5797 8.93476 15.16Z" fill="#0E78F9"/>
</svg>
