<svg width="25" height="25" viewBox="0 0 25 25" fill="none" xmlns="http://www.w3.org/2000/svg">
<path fill-rule="evenodd" clip-rule="evenodd" d="M3.2277 8.69774C2.7085 9.64628 2.7085 10.7905 2.7085 13.0789V14.6C2.7085 18.5008 2.7085 20.4513 3.88007 21.6631C5.05164 22.875 6.93726 22.875 10.7085 22.875H14.7085C18.4797 22.875 20.3653 22.875 21.5369 21.6631C22.7085 20.4513 22.7085 18.5008 22.7085 14.6V13.0789C22.7085 10.7905 22.7085 9.64628 22.1893 8.69774C21.6701 7.74921 20.7216 7.16051 18.8245 5.98312L16.8245 4.74187C14.8191 3.49729 13.8164 2.875 12.7085 2.875C11.6006 2.875 10.5979 3.49729 8.59253 4.74187L6.59253 5.98313C4.69544 7.16051 3.7469 7.74921 3.2277 8.69774ZM11.9585 18.875C11.9585 19.2892 12.2943 19.625 12.7085 19.625C13.1227 19.625 13.4585 19.2892 13.4585 18.875V15.875C13.4585 15.4608 13.1227 15.125 12.7085 15.125C12.2943 15.125 11.9585 15.4608 11.9585 15.875V18.875Z" fill="#0E78F9"/>
</svg>
