<svg width="25" height="25" viewBox="0 0 25 25" fill="none" xmlns="http://www.w3.org/2000/svg">
<path fill-rule="evenodd" clip-rule="evenodd" d="M8.18733 2.87501C8.21639 2.87501 8.24584 2.87502 8.2757 2.87502L8.31183 2.87501C8.65509 2.87499 8.87597 2.87498 9.09192 2.89517C9.97281 2.97754 10.8107 3.30995 11.5076 3.85176H17.6038C17.623 3.85176 17.6418 3.85176 17.6604 3.85175C18.0595 3.85169 18.3314 3.85164 18.5703 3.8831C20.2139 4.09948 21.5073 5.39284 21.7237 7.03646C21.7318 7.09841 21.7379 7.16257 21.7423 7.2306C22.0134 7.35414 22.2643 7.51389 22.4951 7.72145C22.5912 7.80787 22.6826 7.89931 22.769 7.99539C23.285 8.56908 23.5055 9.26739 23.6088 10.0892C23.7085 10.8822 23.7085 11.8846 23.7085 13.1279V15.3836C23.7085 17.1786 23.7085 18.6004 23.5589 19.7131C23.405 20.8583 23.0806 21.7852 22.3496 22.5161C21.6187 23.2471 20.6918 23.5715 19.5466 23.7254C18.4339 23.875 17.0121 23.875 15.2171 23.875H11.1999C9.4049 23.875 7.98311 23.875 6.87039 23.7254C5.72524 23.5715 4.79836 23.2471 4.0674 22.5161C3.33644 21.7852 3.01205 20.8583 2.85809 19.7131C2.70848 18.6004 2.7085 17.1786 2.70851 15.3836L2.70851 8.44221C2.70851 8.41235 2.70851 8.38289 2.7085 8.35383C2.70839 7.57644 2.70832 7.08169 2.78895 6.65436C3.14305 4.77758 4.61108 3.30955 6.48786 2.95545C6.91518 2.87483 7.40993 2.8749 8.18733 2.87501ZM20.1896 6.85785C19.9378 6.05225 19.2382 5.44878 18.3791 5.33568C18.2483 5.31845 18.0808 5.31687 17.6038 5.31687H13.0242C13.6521 5.94108 13.9371 6.20177 14.2602 6.38156C14.4732 6.50003 14.699 6.59359 14.9334 6.66039C15.3371 6.77546 15.7797 6.78199 16.9479 6.78199L17.3626 6.78199C18.4978 6.78197 19.4321 6.78196 20.1896 6.85785ZM8.2757 4.34013C7.38038 4.34013 7.03423 4.34333 6.7595 4.39517C5.47538 4.63745 4.47094 5.64189 4.22866 6.926C4.17683 7.20073 4.17363 7.54688 4.17363 8.44221V15.3285C4.17363 17.191 4.17518 18.5141 4.31014 19.5179C4.44226 20.5006 4.69002 21.0667 5.10339 21.4801C5.51676 21.8935 6.08293 22.1413 7.06562 22.2734C8.06938 22.4083 9.39254 22.4099 11.255 22.4099H15.162C17.0245 22.4099 18.3476 22.4083 19.3514 22.2734C20.3341 22.1413 20.9002 21.8935 21.3136 21.4801C21.727 21.0667 21.9748 20.5006 22.1069 19.5179C22.2418 18.5141 22.2434 17.191 22.2434 15.3285V13.1776C22.2434 11.8728 22.242 10.9629 22.1552 10.272C22.0706 9.59937 21.9153 9.23708 21.6797 8.97514C21.6279 8.9175 21.573 8.86263 21.5153 8.81078C21.2534 8.57519 20.8911 8.41989 20.2185 8.33533C19.5276 8.24846 18.6177 8.24711 17.3129 8.24711H16.9479C16.9116 8.24711 16.8757 8.24711 16.8402 8.24712C15.8166 8.24733 15.1565 8.24746 14.5318 8.06938C14.1892 7.97175 13.8591 7.83501 13.5479 7.66186C12.9802 7.34602 12.5135 6.87916 11.7899 6.15522C11.7648 6.13015 11.7395 6.10476 11.7138 6.07906L11.1763 5.5416C10.8996 5.26491 10.7938 5.1601 10.6859 5.07066C10.1943 4.66316 9.59125 4.41337 8.95551 4.35392C8.81597 4.34087 8.667 4.34013 8.2757 4.34013ZM6.45269 11.4215C6.45269 11.0169 6.78067 10.689 7.18525 10.689H19.069C19.4735 10.689 19.8015 11.0169 19.8015 11.4215C19.8015 11.8261 19.4735 12.1541 19.069 12.1541H7.18525C6.78067 12.1541 6.45269 11.8261 6.45269 11.4215Z" fill="#8F93A3"/>
<path d="M6.45269 11.4215C6.45269 11.0169 6.78067 10.689 7.18525 10.689H19.069C19.4735 10.689 19.8015 11.0169 19.8015 11.4215C19.8015 11.8261 19.4735 12.1541 19.069 12.1541H7.18525C6.78067 12.1541 6.45269 11.8261 6.45269 11.4215Z" fill="#8F93A3"/>
</svg>
