<svg width="25" height="24" viewBox="0 0 25 24" fill="none" xmlns="http://www.w3.org/2000/svg">
<path fill-rule="evenodd" clip-rule="evenodd" d="M2.84132 5.25839C2.77197 5.62595 2.77197 6.06722 2.77197 6.94975V14C2.77197 17.7712 2.77197 19.6569 3.94355 20.8284C5.11512 22 7.00074 22 10.772 22H14.772C18.5432 22 20.4288 22 21.6004 20.8284C22.772 19.6569 22.772 17.7712 22.772 14V11.7979C22.772 9.16554 22.772 7.84935 22.0025 6.99383C21.9317 6.91514 21.8568 6.84024 21.7781 6.76946C20.9226 6 19.6064 6 16.9741 6H16.6004C15.4467 6 14.8699 6 14.3323 5.84678C14.037 5.7626 13.7524 5.64471 13.4841 5.49543C12.9956 5.22367 12.5878 4.81578 11.772 4L11.2217 3.44975C10.9483 3.17633 10.8116 3.03961 10.6679 2.92051C10.0485 2.40704 9.28862 2.09229 8.48754 2.01738C8.30174 2 8.1084 2 7.72172 2C6.83919 2 6.39792 2 6.03036 2.06935C4.41228 2.37464 3.14661 3.64031 2.84132 5.25839ZM17.0555 3C17.4212 3 17.6041 3 17.7576 3.02094C18.7763 3.15985 19.5863 3.96313 19.772 5C19.6241 4.96582 19.4703 4.93939 19.3109 4.91862C18.6715 4.83535 17.8634 4.83536 16.861 4.83538L16.5266 4.83538C15.5847 4.83538 15.2279 4.82993 14.9024 4.73383C14.7134 4.67804 14.5313 4.5999 14.3596 4.50096C14.0639 4.33051 13.8078 4.07299 13.1418 3.38312L12.772 3H17.0555ZM7.23357 9.25C6.81936 9.25 6.48357 9.58579 6.48357 10C6.48357 10.4142 6.81936 10.75 7.23357 10.75H18.7722C19.1864 10.75 19.5222 10.4142 19.5222 10C19.5222 9.58579 19.1864 9.25 18.7722 9.25H7.23357Z" fill="#0E78F9"/>
</svg>
