<svg width="25" height="24" viewBox="0 0 25 24" fill="none" xmlns="http://www.w3.org/2000/svg">
<path d="M5.7508 9.68508C3.76492 8.89073 2.77197 8.49355 2.77197 8C2.77197 7.50645 3.76492 7.10927 5.7508 6.31492L8.55927 5.19153C10.5452 4.39718 11.5381 4 12.772 4C14.0058 4 14.9988 4.39718 16.9847 5.19153L19.7931 6.31492C21.779 7.10927 22.772 7.50645 22.772 8C22.772 8.49355 21.779 8.89073 19.7931 9.68508L16.9847 10.8085C14.9988 11.6028 14.0058 12 12.772 12C11.5381 12 10.5452 11.6028 8.55927 10.8085L5.7508 9.68508Z" fill="#1C274C"/>
<path fill-rule="evenodd" clip-rule="evenodd" d="M2.77197 8C2.77197 8.49355 3.76492 8.89073 5.7508 9.68508L8.55927 10.8085C10.5452 11.6028 11.5381 12 12.772 12C14.0058 12 14.9988 11.6028 16.9847 10.8085L19.7931 9.68508C21.779 8.89073 22.772 8.49355 22.772 8C22.772 7.50645 21.779 7.10927 19.7931 6.31492L16.9847 5.19153C14.9988 4.39718 14.0058 4 12.772 4C11.5381 4 10.5452 4.39718 8.55927 5.19153L5.7508 6.31492C3.76492 7.10927 2.77197 7.50645 2.77197 8Z" fill="#0E78F9"/>
<path d="M19.7931 13.6851L16.9847 14.8085C14.9988 15.6028 14.0058 16 12.772 16C11.5381 16 10.5452 15.6028 8.55927 14.8085L5.7508 13.6851C3.76492 12.8907 2.77197 12.4935 2.77197 12C2.77197 11.5551 3.57878 11.1885 5.1924 10.5388L8.3334 11.7952C10.182 12.535 11.3439 13 12.772 13C14.2 13 15.3619 12.535 17.2105 11.7952L20.3515 10.5388C21.9652 11.1885 22.772 11.5551 22.772 12C22.772 12.4935 21.779 12.8907 19.7931 13.6851Z" fill="#0E78F9"/>
<path d="M19.7931 17.6849L16.9847 18.8083C14.9988 19.6026 14.0058 19.9998 12.772 19.9998C11.5381 19.9998 10.5452 19.6026 8.55927 18.8083L5.7508 17.6849C3.76492 16.8905 2.77197 16.4934 2.77197 15.9998C2.77197 15.5549 3.57878 15.1883 5.1924 14.5386L8.3334 15.795C10.182 16.5348 11.3439 16.9998 12.772 16.9998C14.2 16.9998 15.3619 16.5348 17.2105 15.795L20.3515 14.5386C21.9652 15.1883 22.772 15.5549 22.772 15.9998C22.772 16.4934 21.779 16.8905 19.7931 17.6849Z" fill="#0E78F9"/>
</svg>
