<svg width="25" height="25" viewBox="0 0 25 25" fill="none" xmlns="http://www.w3.org/2000/svg">
<path fill-rule="evenodd" clip-rule="evenodd" d="M12.7085 5.625C11.6481 5.625 10.7992 5.95296 8.77434 6.76289L5.96587 7.88628C4.95544 8.29045 4.25527 8.57159 3.80145 8.80951C3.7571 8.83276 3.71713 8.85459 3.68117 8.875C3.71713 8.89541 3.7571 8.91724 3.80145 8.94049C4.25527 9.17841 4.95544 9.45955 5.96587 9.86372L8.77434 10.9871C10.7992 11.797 11.6481 12.125 12.7085 12.125C13.7689 12.125 14.6178 11.797 16.6427 10.9871L19.4511 9.86372C20.4616 9.45955 21.1617 9.17841 21.6155 8.94049C21.6599 8.91724 21.6999 8.89541 21.7358 8.875C21.6999 8.85459 21.6599 8.83276 21.6155 8.80951C21.1617 8.57159 20.4616 8.29045 19.4511 7.88628L16.6427 6.76289C14.6178 5.95296 13.7689 5.625 12.7085 5.625ZM8.33292 5.3239C10.2097 4.57296 11.3293 4.125 12.7085 4.125C14.0877 4.125 15.2073 4.57296 17.0841 5.3239C17.1223 5.3392 17.1609 5.35462 17.1997 5.37017L20.0536 6.5117C21.0081 6.89351 21.7813 7.20276 22.312 7.48101C22.5806 7.62183 22.8408 7.78148 23.0415 7.97394C23.2476 8.17168 23.4585 8.47158 23.4585 8.875C23.4585 9.27842 23.2476 9.57832 23.0415 9.77606C22.8408 9.96852 22.5806 10.1282 22.312 10.269C21.9604 10.4534 21.5023 10.6513 20.9555 10.875C21.5023 11.0987 21.9604 11.2966 22.312 11.481C22.5806 11.6218 22.8408 11.7815 23.0415 11.9739C23.2476 12.1717 23.4585 12.4716 23.4585 12.875C23.4585 13.2784 23.2476 13.5783 23.0415 13.7761C22.8408 13.9685 22.5806 14.1282 22.312 14.269C21.9604 14.4534 21.5023 14.6513 20.9555 14.875C21.5023 15.0987 21.9604 15.2966 22.312 15.481C22.5806 15.6218 22.8408 15.7815 23.0415 15.9739C23.2476 16.1717 23.4585 16.4716 23.4585 16.875C23.4585 17.2784 23.2476 17.5783 23.0415 17.7761C22.8408 17.9685 22.5806 18.1282 22.312 18.269C21.7813 18.5472 21.0082 18.8565 20.0536 19.2383L17.1997 20.3798C17.1609 20.3954 17.1223 20.4108 17.0841 20.4261C15.2073 21.177 14.0877 21.625 12.7085 21.625C11.3293 21.625 10.2097 21.177 8.33292 20.4261C8.29468 20.4108 8.25613 20.3954 8.21725 20.3798L5.36339 19.2383C4.40883 18.8565 3.63569 18.5472 3.10496 18.269C2.83636 18.1282 2.57615 17.9685 2.3755 17.7761C2.16934 17.5783 1.9585 17.2784 1.9585 16.875C1.9585 16.4716 2.16934 16.1717 2.3755 15.9739C2.57615 15.7815 2.83636 15.6218 3.10496 15.481C3.45662 15.2966 3.91471 15.0987 4.46148 14.875C3.91471 14.6513 3.45662 14.4534 3.10496 14.269C2.83636 14.1282 2.57615 13.9685 2.3755 13.7761C2.16934 13.5783 1.9585 13.2784 1.9585 12.875C1.9585 12.4716 2.16934 12.1717 2.3755 11.9739C2.57615 11.7815 2.83636 11.6218 3.10496 11.481C3.45662 11.2966 3.91471 11.0987 4.46148 10.875C3.91471 10.6513 3.45662 10.4534 3.10496 10.269C2.83636 10.1282 2.57615 9.96852 2.3755 9.77606C2.16934 9.57832 1.9585 9.27842 1.9585 8.875C1.9585 8.47158 2.16934 8.17168 2.3755 7.97394C2.57615 7.78148 2.83636 7.62183 3.10496 7.48101C3.6357 7.20276 4.40887 6.89351 5.36346 6.51169L8.21725 5.37017C8.25613 5.35462 8.29468 5.3392 8.33292 5.3239ZM6.47462 11.6828L5.96587 11.8863C4.95544 12.2904 4.25527 12.5716 3.80145 12.8095C3.7571 12.8328 3.71713 12.8546 3.68117 12.875C3.71713 12.8954 3.7571 12.9172 3.80145 12.9405C4.25527 13.1784 4.95544 13.4595 5.96587 13.8637L8.77434 14.9871C10.7992 15.797 11.6481 16.125 12.7085 16.125C13.7689 16.125 14.6178 15.797 16.6427 14.9871L19.4511 13.8637C20.4616 13.4595 21.1617 13.1784 21.6155 12.9405C21.6599 12.9172 21.6999 12.8954 21.7358 12.875C21.6999 12.8546 21.6599 12.8328 21.6155 12.8095C21.1617 12.5716 20.4616 12.2904 19.4511 11.8863L18.9424 11.6828L17.1997 12.3798C17.1609 12.3954 17.1223 12.4108 17.0841 12.4261C15.2073 13.177 14.0877 13.625 12.7085 13.625C11.3293 13.625 10.2097 13.177 8.33292 12.4261C8.29468 12.4108 8.25613 12.3954 8.21725 12.3798L6.47462 11.6828ZM6.47462 15.6828L5.96587 15.8863C4.95544 16.2904 4.25527 16.5716 3.80145 16.8095C3.7571 16.8328 3.71713 16.8546 3.68117 16.875C3.71713 16.8954 3.7571 16.9172 3.80145 16.9405C4.25527 17.1784 4.95544 17.4595 5.96587 17.8637L8.77434 18.9871C10.7992 19.797 11.6481 20.125 12.7085 20.125C13.7689 20.125 14.6178 19.797 16.6427 18.9871L19.4511 17.8637C20.4616 17.4595 21.1617 17.1784 21.6155 16.9405C21.6599 16.9172 21.6999 16.8954 21.7358 16.875C21.6999 16.8546 21.6599 16.8328 21.6155 16.8095C21.1617 16.5716 20.4616 16.2904 19.4511 15.8863L18.9424 15.6828L17.1997 16.3798C17.1609 16.3954 17.1223 16.4108 17.0841 16.4261C15.2073 17.177 14.0877 17.625 12.7085 17.625C11.3293 17.625 10.2097 17.177 8.33292 16.4261C8.29468 16.4108 8.25613 16.3954 8.21725 16.3798L6.47462 15.6828Z" fill="#8F93A3"/>
</svg>
