<svg width="20" height="20" viewBox="0 0 20 20" fill="none" xmlns="http://www.w3.org/2000/svg">
<path d="M13.1069 3.23845C14.3021 2.03854 16.0505 2.01334 17.0184 2.98498C17.9881 3.95846 17.962 5.71783 16.7659 6.91855L14.7461 8.94626C14.5025 9.19081 14.5032 9.58653 14.7478 9.83014C14.9923 10.0737 15.3881 10.073 15.6317 9.82842L17.6515 7.80072C19.2443 6.20179 19.4442 3.64902 17.904 2.10281C16.362 0.55477 13.8148 0.75653 12.2213 2.35628L8.18156 6.41166C6.58882 8.01059 6.38885 10.5634 7.92908 12.1096C8.17268 12.3541 8.56841 12.3549 8.81296 12.1113C9.05751 11.8677 9.05828 11.472 8.81467 11.2274C7.84496 10.2539 7.87108 8.49455 9.06716 7.29383L13.1069 3.23845Z" fill="#8F93A3"/>
<path d="M12.0707 7.89409C11.8271 7.64954 11.4313 7.64878 11.1868 7.89238C10.9422 8.13598 10.9415 8.53171 11.1851 8.77626C12.1548 9.74974 12.1287 11.5091 10.9326 12.7098L6.8929 16.7652C5.69763 17.9651 3.94923 17.9904 2.98134 17.0187C2.01163 16.0452 2.03774 14.2858 3.23383 13.0851L5.2537 11.0574C5.4973 10.8128 5.49654 10.4171 5.25199 10.1735C5.00744 9.9299 4.61171 9.93066 4.3681 10.1752L2.34824 12.2029C0.755486 13.8019 0.555519 16.3547 2.09575 17.9009C3.63781 19.4489 6.18493 19.2472 7.7785 17.6474L11.8182 13.592C13.4109 11.9931 13.6109 9.4403 12.0707 7.89409Z" fill="#8F93A3"/>
</svg>
