<svg width="23" height="22" viewBox="0 0 23 22" fill="none" xmlns="http://www.w3.org/2000/svg">
<path fill-rule="evenodd" clip-rule="evenodd" d="M11.4426 0.25L13 0.25C13.4142 0.25 13.75 0.585787 13.75 1C13.75 1.41421 13.4142 1.75 13 1.75H11.5C9.12177 1.75 7.41356 1.75159 6.11358 1.92637C4.83517 2.09825 4.06445 2.42514 3.4948 2.9948C2.92514 3.56445 2.59825 4.33517 2.42637 5.61358C2.25159 6.91356 2.25 8.62177 2.25 11C2.25 13.3782 2.25159 15.0864 2.42637 16.3864C2.59825 17.6648 2.92514 18.4355 3.4948 19.0052C4.06445 19.5749 4.83517 19.9018 6.11358 20.0736C7.41356 20.2484 9.12177 20.25 11.5 20.25C13.8782 20.25 15.5864 20.2484 16.8864 20.0736C18.1648 19.9018 18.9355 19.5749 19.5052 19.0052C20.0749 18.4355 20.4018 17.6648 20.5736 16.3864C20.7484 15.0864 20.75 13.3782 20.75 11V9.5C20.75 9.08579 21.0858 8.75 21.5 8.75C21.9142 8.75 22.25 9.08579 22.25 9.5V11.0574C22.25 13.3658 22.25 15.1748 22.0603 16.5863C21.866 18.031 21.4607 19.1711 20.5659 20.0659C19.6711 20.9607 18.531 21.366 17.0863 21.5603C15.6748 21.75 13.8658 21.75 11.5574 21.75H11.4426C9.13423 21.75 7.32519 21.75 5.91371 21.5603C4.46897 21.366 3.32895 20.9607 2.43414 20.0659C1.53933 19.1711 1.13399 18.031 0.939747 16.5863C0.749977 15.1748 0.749987 13.3658 0.75 11.0574V10.9426C0.749987 8.63423 0.749977 6.82519 0.939747 5.41371C1.13399 3.96897 1.53933 2.82895 2.43414 1.93414C3.32895 1.03933 4.46897 0.633986 5.91371 0.439747C7.32519 0.249977 9.13423 0.249987 11.4426 0.25ZM16.2705 1.27592C17.6384 -0.091971 19.8562 -0.091971 21.2241 1.27592C22.592 2.6438 22.592 4.86158 21.2241 6.22947L14.576 12.8776C14.2047 13.2489 13.9721 13.4815 13.7126 13.684C13.4069 13.9224 13.0761 14.1268 12.7261 14.2936C12.429 14.4352 12.1169 14.5392 11.6188 14.7052L8.71426 15.6734C8.17801 15.8521 7.5868 15.7126 7.18711 15.3129C6.78742 14.9132 6.64785 14.322 6.8266 13.7857L7.79477 10.8812C7.96079 10.3831 8.06479 10.071 8.2064 9.77385C8.37319 9.42388 8.57761 9.09311 8.81605 8.78742C9.01849 8.52787 9.2511 8.29529 9.62245 7.924L16.2705 1.27592ZM20.1634 2.33658C19.3813 1.55448 18.1133 1.55448 17.3312 2.33658L16.9546 2.7132C16.9773 2.80906 17.009 2.92327 17.0532 3.05066C17.1965 3.46372 17.4677 4.00771 17.98 4.51999C18.4923 5.03227 19.0363 5.30346 19.4493 5.44677C19.5767 5.49097 19.6909 5.52273 19.7868 5.54543L20.1634 5.16881C20.9455 4.38671 20.9455 3.11867 20.1634 2.33658ZM18.6051 6.72709C18.0892 6.50519 17.4882 6.14946 16.9193 5.58065C16.3505 5.01185 15.9948 4.41082 15.7729 3.89486L10.7175 8.95026C10.301 9.36677 10.1376 9.53195 9.99881 9.70995C9.82738 9.92974 9.6804 10.1676 9.56048 10.4192C9.46337 10.623 9.38868 10.8429 9.2024 11.4017L8.77051 12.6974L9.80257 13.7295L11.0983 13.2976C11.6571 13.1113 11.877 13.0366 12.0808 12.9395C12.3324 12.8196 12.5703 12.6726 12.7901 12.5012C12.968 12.3624 13.1332 12.199 13.5497 11.7825L18.6051 6.72709Z" fill="#8F93A3"/>
</svg>
