<svg width="20" height="20" viewBox="0 0 20 20" fill="none" xmlns="http://www.w3.org/2000/svg">
<path fill-rule="evenodd" clip-rule="evenodd" d="M11.6414 5.39009C11.8855 5.14601 12.2812 5.14601 12.5253 5.39009L16.6919 9.55676C16.936 9.80083 16.936 10.1966 16.6919 10.4406L12.5253 14.6073C12.2812 14.8514 11.8855 14.8514 11.6414 14.6073C11.3973 14.3632 11.3973 13.9675 11.6414 13.7234L14.7411 10.6237L7.91667 10.6237C7.32224 10.6237 6.41668 10.8072 5.67769 11.3392C4.97057 11.8484 4.375 12.7024 4.375 14.1654C4.375 14.5105 4.09518 14.7904 3.75 14.7904C3.40482 14.7904 3.125 14.5105 3.125 14.1654C3.125 12.295 3.91832 11.0657 4.94731 10.3248C5.94443 9.60689 7.12221 9.3737 7.91667 9.3737L14.7411 9.3737L11.6414 6.27397C11.3973 6.0299 11.3973 5.63417 11.6414 5.39009Z" fill="#8F93A3"/>
</svg>
