<svg width="16" height="17" viewBox="0 0 16 17" fill="none" xmlns="http://www.w3.org/2000/svg">
<path d="M9.63904 1.23082H8.37945C8.37945 0.548102 7.82176 0 7.14869 0C6.47563 0 5.91794 0.557717 5.91794 1.23082H4.65835C4.38912 1.23082 4.16797 1.45199 4.16797 1.72123V3.25015C4.16797 3.51939 4.38912 3.74055 4.65835 3.74055H9.64866C9.91788 3.74055 10.139 3.51939 10.139 3.25015V1.72123C10.139 1.45199 9.91788 1.23082 9.64866 1.23082H9.63904ZM7.13908 0.778881C7.38908 0.778881 7.591 0.980813 7.591 1.23082C7.591 1.48084 7.38908 1.68277 7.13908 1.68277C6.88908 1.68277 6.68716 1.48084 6.68716 1.23082C6.68716 0.980813 6.88908 0.778881 7.13908 0.778881Z" fill="#0996FF"/>
<path d="M12.1857 14.9161C12.1857 15.3104 11.8684 15.6277 11.4742 15.6277H2.79161C2.39738 15.6277 2.08008 15.3104 2.08008 14.9161V3.59829C2.08008 3.20404 2.39738 2.88672 2.79161 2.88672H11.4742C11.8684 2.88672 12.1857 3.20404 12.1857 3.59829V7.13691" stroke="#0996FF" stroke-width="0.961553" stroke-miterlimit="10" stroke-linecap="round"/>
<path d="M3.85938 6.03906H10.417" stroke="#0996FF" stroke-width="0.961553" stroke-linecap="round"/>
<path d="M3.85938 8.07031H9.45545" stroke="#0996FF" stroke-width="0.961553" stroke-linecap="round"/>
<path d="M3.85938 10.3203H8.44585" stroke="#0996FF" stroke-width="0.961553" stroke-linecap="round"/>
<path d="M3.85938 12.4922H8.97468" stroke="#0996FF" stroke-width="0.961553" stroke-linecap="round"/>
<path d="M12.34 14.1647C12.2534 14.1647 12.1573 14.1455 12.0803 14.107C10.6573 13.4435 9.83038 12.3473 9.63807 10.8376C9.59961 10.5011 9.59961 10.1645 9.59961 9.83757C9.59961 9.71257 9.59961 9.59718 9.59961 9.47217C9.59961 9.3087 9.71499 9.14523 9.85922 9.07792C10.6284 8.74137 11.3977 8.41443 12.1476 8.10673C12.2919 8.04903 12.4457 8.06826 12.5419 8.10673C12.9361 8.27019 13.3303 8.44328 13.7149 8.60675C14.0707 8.7606 14.4361 8.91445 14.7918 9.06831C14.9265 9.126 15.0803 9.24139 15.0707 9.51063C15.0707 9.63564 15.0707 9.76065 15.0707 9.9145V10.1357C15.1188 10.9049 14.9361 11.6838 14.5226 12.3954C14.0707 13.1743 13.4169 13.7512 12.5803 14.107C12.5034 14.1455 12.4169 14.1551 12.3303 14.1551L12.34 14.1647ZM10.2246 9.60679C10.2246 9.69333 10.2246 9.77026 10.2246 9.8568C10.2246 10.1741 10.2246 10.4818 10.2534 10.7703C10.4169 12.0684 11.1092 12.9819 12.3496 13.5589C12.3496 13.5589 12.3496 13.5589 12.3592 13.5589C13.0611 13.2512 13.6188 12.7608 14.0034 12.0973C14.3495 11.5011 14.513 10.8376 14.4745 10.1837V9.60679C14.1476 9.47217 13.8207 9.32793 13.4938 9.19331C13.1092 9.02984 12.7342 8.86638 12.3496 8.70291C11.6573 8.99138 10.9457 9.29909 10.2246 9.60679Z" fill="#FEC113"/>
<path d="M12.4937 10.6328H13.4552C13.5706 10.6328 13.6571 10.7097 13.6571 10.8251V11.9117C13.6571 12.1617 13.4648 12.354 13.2148 12.354H11.8014C11.5706 12.354 11.3975 12.229 11.3495 12.0175C11.3495 11.979 11.3398 11.9502 11.3398 11.9117C11.3398 11.5559 11.3398 11.2001 11.3398 10.8444C11.3398 10.7963 11.3495 10.7482 11.3783 10.7097C11.4072 10.652 11.4648 10.6328 11.5321 10.6328H12.5033H12.4937ZM12.4937 10.9982C12.3879 10.9982 12.2918 11.0655 12.2533 11.1617C12.2148 11.2578 12.2437 11.3732 12.3206 11.4405C12.3494 11.4598 12.3494 11.479 12.3494 11.5079C12.3494 11.5944 12.3494 11.6906 12.3494 11.7771C12.3494 11.8636 12.4168 11.9117 12.4937 11.9117C12.5706 11.9117 12.6187 11.8444 12.6187 11.7675V11.5271C12.6187 11.5271 12.6187 11.4694 12.6571 11.4405C12.7341 11.3732 12.7629 11.2578 12.7244 11.1617C12.686 11.0655 12.5898 10.9982 12.4937 10.9982Z" fill="#FEC113"/>
<path d="M11.898 10.4172H11.6095C11.571 10.0614 11.6672 9.70563 12.0133 9.47485C12.3114 9.27292 12.7152 9.28254 13.0133 9.48447C13.3595 9.72486 13.4364 10.071 13.3979 10.4076H13.1095V10.2345C13.1095 9.98449 12.9941 9.80179 12.7826 9.67678C12.3979 9.46524 11.9076 9.76333 11.898 10.196V10.398V10.4172Z" fill="#FEC113"/>
</svg>
