<svg width="16" height="18" viewBox="0 0 16 18" fill="none" xmlns="http://www.w3.org/2000/svg">
<path d="M10.0685 2.16956H8.80354C8.80354 1.48399 8.24349 0.933594 7.56758 0.933594C6.89166 0.933594 6.33161 1.49364 6.33161 2.16956H5.06667C4.79631 2.16956 4.57422 2.39165 4.57422 2.66202V4.19732C4.57422 4.46769 4.79631 4.68977 5.06667 4.68977H10.0781C10.3485 4.68977 10.5706 4.46769 10.5706 4.19732V2.66202C10.5706 2.39165 10.3485 2.16956 10.0781 2.16956H10.0685ZM7.55792 1.71573C7.80897 1.71573 8.01175 1.9185 8.01175 2.16956C8.01175 2.42062 7.80897 2.62339 7.55792 2.62339C7.30686 2.62339 7.10409 2.42062 7.10409 2.16956C7.10409 1.9185 7.30686 1.71573 7.55792 1.71573Z" fill="#0996FF"/>
<path d="M12.6368 12.2944V15.9057C12.6368 16.3016 12.3182 16.6203 11.9223 16.6203H3.21259C2.81669 16.6203 2.49805 16.3016 2.49805 15.9057V4.53095C2.49805 4.13505 2.81669 3.81641 3.21259 3.81641H11.9319C12.3278 3.81641 12.6465 4.13505 12.6465 4.53095V6.26903" stroke="#0996FF" stroke-width="0.965599" stroke-miterlimit="10" stroke-linecap="round"/>
<path d="M4.27441 6.99609H10.8598" stroke="#0996FF" stroke-width="0.965599" stroke-linecap="round"/>
<path d="M4.27441 9.02344H10.8598" stroke="#0996FF" stroke-width="0.965599" stroke-linecap="round"/>
<path d="M4.27441 11.2969H9.84592" stroke="#0996FF" stroke-width="0.965599" stroke-linecap="round"/>
<path d="M4.27441 13.4766H8.4458" stroke="#0996FF" stroke-width="0.965599" stroke-linecap="round"/>
<path d="M14.5774 7.02784C14.4423 7.27889 14.3167 7.52029 14.1815 7.76169C13.7663 8.53417 13.3511 9.30665 12.9359 10.0791C12.8587 10.224 12.7814 10.3785 12.6945 10.5233C12.6076 10.6778 12.4821 10.7164 12.3179 10.6392C12.0959 10.5233 11.8834 10.4074 11.6613 10.2819C11.5068 10.195 11.4682 10.0598 11.5455 9.90532C11.9896 9.07491 12.4338 8.24449 12.8876 7.41408C13.1484 6.93128 13.4091 6.43882 13.6698 5.95602C13.747 5.80153 13.8629 5.70497 14.0367 5.69531C14.1429 5.69531 14.2395 5.71462 14.336 5.77256C14.4133 5.82084 14.4905 5.84981 14.5678 5.89809C14.6354 5.93671 14.703 5.96568 14.7512 6.01396C14.8671 6.12983 14.9251 6.28433 14.8575 6.47745C14.8285 6.5547 14.7802 6.62229 14.7416 6.69954C14.7223 6.7285 14.7223 6.74782 14.7512 6.77678C14.8575 6.89266 14.9347 7.01818 14.9733 7.16302C15.0313 7.39477 14.9926 7.61685 14.8671 7.81963C14.7706 7.97413 14.6547 8.11897 14.5485 8.26381C14.2878 8.63073 14.0657 9.02663 13.8532 9.42252C13.7857 9.55771 13.7084 9.69289 13.6408 9.83773C13.5925 9.93429 13.5732 10.0405 13.6022 10.1467C13.6312 10.2433 13.5925 10.3302 13.496 10.3592C13.4091 10.3881 13.3318 10.3302 13.3029 10.2336C13.2449 10.0212 13.2835 9.82808 13.3801 9.64461C13.6022 9.23906 13.8243 8.83351 14.056 8.42796C14.1912 8.20587 14.3554 8.00309 14.5002 7.79066C14.5871 7.67479 14.6643 7.54926 14.674 7.39477C14.674 7.25958 14.6354 7.14371 14.5581 7.03749L14.5774 7.02784Z" fill="#FEC113"/>
<path d="M12.3281 10.8853C12.3281 10.8853 12.3184 10.9336 12.2991 10.9529C12.0577 11.3971 11.826 11.8412 11.5846 12.2854C11.3625 12.691 11.15 13.0965 10.9279 13.5117C10.7155 13.9076 10.5031 14.3035 10.2907 14.6994C10.252 14.767 10.2231 14.7767 10.1555 14.738C9.92372 14.6125 9.68232 14.487 9.45058 14.3614C9.39264 14.3325 9.38299 14.2939 9.42161 14.2263C9.56645 13.9656 9.70164 13.6952 9.84648 13.4345C10.1265 12.913 10.4065 12.3916 10.6865 11.8605C10.9279 11.4067 11.179 10.9529 11.4204 10.4894C11.4783 10.3832 11.5556 10.3542 11.6618 10.4121C11.8549 10.5184 12.048 10.6149 12.2412 10.7211C12.2894 10.7501 12.3184 10.7984 12.3281 10.866V10.8853Z" fill="#FEC113"/>
<path d="M9.17079 15.5601C9.19976 15.3187 9.22872 15.1063 9.24804 14.8842C9.25769 14.778 9.277 14.6717 9.28666 14.5655C9.29632 14.4883 9.33494 14.469 9.40253 14.5076C9.62462 14.6235 9.83705 14.7393 10.0591 14.8552C10.1171 14.8842 10.1267 14.9421 10.0785 14.9904C9.83705 15.2028 9.586 15.4153 9.33494 15.618C9.29632 15.647 9.25769 15.6663 9.21907 15.6373C9.1901 15.618 9.17079 15.5698 9.16113 15.5601H9.17079Z" fill="#FEC113"/>
</svg>
