<svg width="22" height="23" viewBox="0 0 22 23" fill="none" xmlns="http://www.w3.org/2000/svg">
<path d="M15.5455 20.591H6.45457C3.7273 20.591 1.90912 19.2273 1.90912 16.0455V11.5C1.90912 8.31823 3.7273 6.95459 6.45457 6.95459H15.5455C18.2728 6.95459 20.0909 8.31823 20.0909 11.5V16.0455C20.0909 19.2273 18.2728 20.591 15.5455 20.591Z" stroke="#8F93A3" stroke-width="1.36364" stroke-miterlimit="10" stroke-linecap="round" stroke-linejoin="round"/>
<path d="M5.54547 4.68164H16.4546" stroke="#8F93A3" stroke-width="1.36364" stroke-miterlimit="10" stroke-linecap="round" stroke-linejoin="round"/>
<path d="M8.27271 2.40918H13.7273" stroke="#8F93A3" stroke-width="1.36364" stroke-miterlimit="10" stroke-linecap="round" stroke-linejoin="round"/>
<path d="M8.17227 17.9636C8.86011 17.9636 9.41772 17.406 9.41772 16.7181C9.41772 16.0303 8.86011 15.4727 8.17227 15.4727C7.48442 15.4727 6.92682 16.0303 6.92682 16.7181C6.92682 17.406 7.48442 17.9636 8.17227 17.9636Z" stroke="#8F93A3" stroke-width="1.36364" stroke-linecap="round" stroke-linejoin="round"/>
<path d="M13.9816 15.8908V11.0271C13.9816 9.99073 13.3362 9.8453 12.6725 10.0271L10.1816 10.7089C9.72703 10.8362 9.41797 11.1907 9.41797 11.7089V12.5726V13.1544V16.718" stroke="#8F93A3" stroke-width="1.36364" stroke-linecap="round" stroke-linejoin="round"/>
<path d="M12.7355 17.1364C13.4233 17.1364 13.981 16.5788 13.981 15.891C13.981 15.2031 13.4233 14.6455 12.7355 14.6455C12.0477 14.6455 11.4901 15.2031 11.4901 15.891C11.4901 16.5788 12.0477 17.1364 12.7355 17.1364Z" stroke="#8F93A3" stroke-width="1.36364" stroke-linecap="round" stroke-linejoin="round"/>
<path d="M9.41797 13.1634L13.9816 11.918" stroke="#8F93A3" stroke-width="1.36364" stroke-linecap="round" stroke-linejoin="round"/>
</svg>
