<svg width="25" height="25" viewBox="0 0 25 25" fill="none" xmlns="http://www.w3.org/2000/svg">
<g clip-path="url(#clip0_28_38041)">
<mask id="path-2-inside-1_28_38041" fill="white">
<path fill-rule="evenodd" clip-rule="evenodd" d="M1.76133 13.3269C1.74965 13.5195 1.77741 13.7531 1.83295 14.2203L2.27855 17.9695C2.47965 19.6615 3.39905 21.191 4.80955 22.1799C5.8488 22.9086 7.09333 23.3002 8.36967 23.3002H12.3887C13.6651 23.3002 14.9096 22.9086 15.9488 22.1799C16.8424 21.5534 17.5388 20.71 17.9804 19.7458H20.3883C22.6915 19.7458 24.5587 17.9096 24.5587 15.6445C24.5587 13.3794 22.6915 11.5432 20.3883 11.5432H17.854C17.6441 11.4289 17.4127 11.3467 17.1661 11.3036C16.973 11.2698 16.7338 11.2698 16.2554 11.2698H4.50294C4.0246 11.2698 3.78542 11.2698 3.59226 11.3036C2.5797 11.4806 1.82259 12.3173 1.76133 13.3269ZM18.9836 13.1837C18.9896 13.231 18.9941 13.2787 18.9971 13.3269C19.0087 13.5195 18.981 13.7531 18.9254 14.2202L18.4798 17.9695C18.4744 18.0148 18.4685 18.0601 18.4621 18.1053H20.3883C21.7702 18.1053 22.8905 17.0035 22.8905 15.6445C22.8905 14.2855 21.7702 13.1837 20.3883 13.1837H18.9836Z"/>
<path fill-rule="evenodd" clip-rule="evenodd" d="M10.9692 1.94044C11.2949 2.26077 11.2949 2.78013 10.9692 3.10045C10.6807 3.38414 10.6807 3.84409 10.9692 4.12778C11.9091 5.05213 11.9091 6.55079 10.9692 7.47514C10.6434 7.79547 10.1153 7.79547 9.7896 7.47514C9.46387 7.15481 9.46387 6.63545 9.7896 6.31512C10.0781 6.03144 10.0781 5.57149 9.7896 5.2878C8.84967 4.36345 8.84967 2.86479 9.7896 1.94044C10.1153 1.62011 10.6434 1.62011 10.9692 1.94044Z"/>
<path fill-rule="evenodd" clip-rule="evenodd" d="M5.96449 3.58095C6.29022 3.90128 6.29022 4.42063 5.96449 4.74096L5.83536 4.86795C5.56483 5.13399 5.5344 5.55516 5.76394 5.85614C6.49159 6.81025 6.39511 8.14534 5.53757 8.98865L5.40843 9.11564C5.0827 9.43597 4.55459 9.43597 4.22886 9.11564C3.90313 8.79532 3.90313 8.27596 4.22886 7.95563L4.35799 7.82864C4.62851 7.5626 4.65895 7.14143 4.4294 6.84045C3.70176 5.88634 3.79824 4.55126 4.65578 3.70794L4.78491 3.58095C5.11065 3.26062 5.63876 3.26062 5.96449 3.58095Z"/>
<path fill-rule="evenodd" clip-rule="evenodd" d="M16.5296 3.58095C16.8553 3.90128 16.8553 4.42063 16.5296 4.74096L16.4005 4.86795C16.1299 5.13399 16.0995 5.55516 16.329 5.85614C17.0567 6.81025 16.9602 8.14534 16.1027 8.98865L15.9735 9.11564C15.6478 9.43597 15.1197 9.43597 14.794 9.11564C14.4682 8.79532 14.4682 8.27596 14.794 7.95563L14.9231 7.82864C15.1936 7.5626 15.224 7.14143 14.9945 6.84045C14.2669 5.88634 14.3633 4.55126 15.2209 3.70794L15.35 3.58095C15.6757 3.26062 16.2039 3.26062 16.5296 3.58095Z"/>
</mask>
<path d="M1.83295 14.2203L3.53525 14.018L1.83295 14.2203ZM1.76133 13.3269L0.0501946 13.223L1.76133 13.3269ZM2.27855 17.9695L0.576245 18.1718L2.27855 17.9695ZM4.80955 22.1799L5.7937 20.7763L4.80955 22.1799ZM15.9488 22.1799L14.9647 20.7763L15.9488 22.1799ZM17.9804 19.7458V18.0315H16.88L16.4218 19.0319L17.9804 19.7458ZM17.854 11.5432L17.0342 13.0488L17.4175 13.2575H17.854V11.5432ZM17.1661 11.3036L17.4614 9.61492L17.4614 9.61492L17.1661 11.3036ZM3.59226 11.3036L3.297 9.61492L3.59226 11.3036ZM18.9836 13.1837V11.4695H17.0366L17.2831 13.4007L18.9836 13.1837ZM18.9971 13.3269L20.7082 13.223V13.223L18.9971 13.3269ZM18.9254 14.2202L17.2231 14.0179V14.0179L18.9254 14.2202ZM18.4798 17.9695L20.1821 18.1718V18.1718L18.4798 17.9695ZM18.4621 18.1053L16.7649 17.8638L16.4866 19.8195H18.4621V18.1053ZM10.9692 3.10045L9.76717 1.87818V1.87818L10.9692 3.10045ZM10.9692 1.94044L12.1712 0.718165V0.718165L10.9692 1.94044ZM10.9692 4.12778L9.76717 5.35006V5.35006L10.9692 4.12778ZM10.9692 7.47514L12.1712 8.69742V8.69742L10.9692 7.47514ZM9.7896 7.47514L8.5876 8.69741L8.5876 8.69742L9.7896 7.47514ZM9.7896 6.31512L10.9916 7.5374L9.7896 6.31512ZM9.7896 5.2878L8.5876 6.51007L8.5876 6.51007L9.7896 5.2878ZM9.7896 1.94044L10.9916 3.16272L9.7896 1.94044ZM5.96449 4.74096L7.16649 5.96324L7.1665 5.96324L5.96449 4.74096ZM5.96449 3.58095L7.1665 2.35867V2.35867L5.96449 3.58095ZM5.83536 4.86795L4.63335 3.64568L4.63335 3.64568L5.83536 4.86795ZM5.76394 5.85614L7.12705 4.81657H7.12705L5.76394 5.85614ZM5.53757 8.98865L6.73957 10.2109H6.73957L5.53757 8.98865ZM5.40843 9.11564L6.61044 10.3379L6.61044 10.3379L5.40843 9.11564ZM4.22886 9.11564L3.02685 10.3379L3.02685 10.3379L4.22886 9.11564ZM4.22886 7.95563L3.02685 6.73336L3.02685 6.73336L4.22886 7.95563ZM4.35799 7.82864L3.15599 6.60636L3.15599 6.60636L4.35799 7.82864ZM4.4294 6.84045L3.0663 7.88002L3.0663 7.88002L4.4294 6.84045ZM4.65578 3.70794L3.45378 2.48566L3.45377 2.48566L4.65578 3.70794ZM4.78491 3.58095L5.98692 4.80323L5.98692 4.80322L4.78491 3.58095ZM16.5296 4.74096L17.7316 5.96324L16.5296 4.74096ZM16.5296 3.58095L17.7316 2.35867V2.35867L16.5296 3.58095ZM16.4005 4.86795L15.1985 3.64568V3.64568L16.4005 4.86795ZM16.329 5.85614L17.6922 4.81657L16.329 5.85614ZM16.1027 8.98865L17.3047 10.2109H17.3047L16.1027 8.98865ZM15.9735 9.11564L17.1755 10.3379L17.1755 10.3379L15.9735 9.11564ZM14.794 9.11564L13.592 10.3379L13.592 10.3379L14.794 9.11564ZM14.794 7.95563L13.592 6.73336V6.73336L14.794 7.95563ZM14.9231 7.82864L13.7211 6.60636V6.60636L14.9231 7.82864ZM14.9945 6.84045L13.6314 7.88002V7.88002L14.9945 6.84045ZM15.2209 3.70794L14.0189 2.48566L14.0189 2.48566L15.2209 3.70794ZM15.35 3.58095L16.552 4.80323V4.80322L15.35 3.58095ZM3.53525 14.018C3.50626 13.774 3.4892 13.6289 3.47959 13.52C3.47037 13.4154 3.47405 13.4047 3.47247 13.4307L0.0501946 13.223C0.0268081 13.6085 0.0843054 14.0328 0.130641 14.4226L3.53525 14.018ZM3.98085 17.7671L3.53525 14.018L0.130641 14.4226L0.576245 18.1718L3.98085 17.7671ZM5.7937 20.7763C4.77758 20.0638 4.12367 18.9687 3.98085 17.7671L0.576245 18.1718C0.83564 20.3542 2.02053 22.3181 3.8254 23.5836L5.7937 20.7763ZM8.36967 21.5859C7.44339 21.5859 6.54287 21.3015 5.7937 20.7763L3.8254 23.5836C5.15472 24.5156 6.74327 25.0145 8.36967 25.0145V21.5859ZM12.3887 21.5859H8.36967V25.0145H12.3887V21.5859ZM14.9647 20.7763C14.2155 21.3015 13.315 21.5859 12.3887 21.5859V25.0145C14.0151 25.0145 15.6037 24.5156 16.933 23.5836L14.9647 20.7763ZM16.4218 19.0319C16.1068 19.7198 15.6084 20.3249 14.9647 20.7763L16.933 23.5836C18.0763 22.7819 18.9709 21.7002 19.539 20.4596L16.4218 19.0319ZM20.3883 18.0315H17.9804V21.4601H20.3883V18.0315ZM22.8444 15.6445C22.8444 16.9359 21.7719 18.0315 20.3883 18.0315V21.4601C23.6112 21.4601 26.273 18.8833 26.273 15.6445H22.8444ZM20.3883 13.2575C21.7719 13.2575 22.8444 14.3531 22.8444 15.6445H26.273C26.273 12.4057 23.6112 9.82895 20.3883 9.82895V13.2575ZM17.854 13.2575H20.3883V9.82895H17.854V13.2575ZM16.8709 12.9923C16.9317 13.0029 16.9862 13.0226 17.0342 13.0488L18.6739 10.0377C18.3021 9.83523 17.8937 9.6905 17.4614 9.61492L16.8709 12.9923ZM16.2554 12.9841C16.5047 12.9841 16.6547 12.9843 16.7674 12.9876C16.8759 12.9908 16.8911 12.9958 16.8709 12.9923L17.4614 9.61492C17.0841 9.54896 16.6584 9.55553 16.2554 9.55553V12.9841ZM4.50294 12.9841H16.2554V9.55553H4.50294V12.9841ZM3.88752 12.9923C3.8673 12.9958 3.88247 12.9908 3.99099 12.9876C4.10369 12.9843 4.25371 12.9841 4.50294 12.9841V9.55553C4.09997 9.55553 3.67425 9.54896 3.297 9.61492L3.88752 12.9923ZM3.47247 13.4307C3.48453 13.232 3.63855 13.0358 3.88752 12.9923L3.297 9.61492C1.52084 9.92548 0.160658 11.4026 0.0501946 13.223L3.47247 13.4307ZM17.2831 13.4007C17.2843 13.4105 17.2853 13.4205 17.2859 13.4307L20.7082 13.223C20.703 13.137 20.6949 13.0515 20.6841 12.9667L17.2831 13.4007ZM17.2859 13.4307C17.2843 13.4047 17.288 13.4154 17.2788 13.52C17.2692 13.6289 17.2521 13.774 17.2231 14.0179L20.6277 14.4226C20.6741 14.0328 20.7316 13.6084 20.7082 13.223L17.2859 13.4307ZM17.2231 14.0179L16.7775 17.7671L20.1821 18.1718L20.6277 14.4226L17.2231 14.0179ZM16.7775 17.7671C16.7737 17.7994 16.7695 17.8317 16.7649 17.8638L20.1593 18.3467C20.1676 18.2886 20.1752 18.2303 20.1821 18.1718L16.7775 17.7671ZM18.4621 19.8195H20.3883V16.391H18.4621V19.8195ZM20.3883 19.8195C22.6899 19.8195 24.6048 17.9772 24.6048 15.6445H21.1762C21.1762 16.0298 20.8506 16.391 20.3883 16.391V19.8195ZM24.6048 15.6445C24.6048 13.3118 22.6899 11.4695 20.3883 11.4695V14.898C20.8506 14.898 21.1762 15.2591 21.1762 15.6445H24.6048ZM20.3883 11.4695H18.9836V14.898H20.3883V11.4695ZM12.1712 4.32273C13.18 3.33069 13.18 1.71021 12.1712 0.718165L9.76717 3.16272C9.40986 2.81133 9.40986 2.22956 9.76717 1.87818L12.1712 4.32273ZM12.1712 2.90551C12.5658 3.29353 12.5658 3.93471 12.1712 4.32273L9.76717 1.87818C8.79566 2.83358 8.79566 4.39466 9.76717 5.35006L12.1712 2.90551ZM12.1712 8.69742C13.7942 7.10136 13.7942 4.50157 12.1712 2.90551L9.76717 5.35006C10.0241 5.60269 10.0241 6.00023 9.76717 6.25286L12.1712 8.69742ZM8.5876 8.69742C9.5804 9.67376 11.1784 9.67376 12.1712 8.69742L9.76717 6.25286C10.1085 5.91718 10.6503 5.91718 10.9916 6.25286L8.5876 8.69742ZM8.5876 5.09285C7.57882 6.08489 7.57883 7.70537 8.5876 8.69741L10.9916 6.25286C11.3489 6.60425 11.3489 7.18602 10.9916 7.5374L8.5876 5.09285ZM8.5876 6.51007C8.19303 6.12205 8.19303 5.48087 8.5876 5.09285L10.9916 7.5374C11.9631 6.582 11.9631 5.02092 10.9916 4.06552L8.5876 6.51007ZM8.5876 0.718165C6.96462 2.31422 6.96462 4.91401 8.5876 6.51007L10.9916 4.06552C10.7347 3.81289 10.7347 3.41535 10.9916 3.16272L8.5876 0.718165ZM12.1712 0.718165C11.1784 -0.258175 9.5804 -0.258175 8.5876 0.718165L10.9916 3.16272C10.6503 3.4984 10.1085 3.4984 9.76717 3.16272L12.1712 0.718165ZM7.1665 5.96324C8.17527 4.9712 8.17527 3.35071 7.1665 2.35867L4.76249 4.80322C4.40518 4.45184 4.40518 3.87007 4.76249 3.51868L7.1665 5.96324ZM7.03736 6.09023L7.16649 5.96324L4.76249 3.51868L4.63335 3.64568L7.03736 6.09023ZM7.12705 4.81657C7.42325 5.20495 7.38048 5.7528 7.03736 6.09023L4.63335 3.64568C3.74918 4.51518 3.64555 5.90537 4.40083 6.89572L7.12705 4.81657ZM6.73957 10.2109C8.21076 8.76414 8.38044 6.46004 7.12705 4.81657L4.40083 6.89572C4.60274 7.16046 4.57946 7.52653 4.33556 7.76638L6.73957 10.2109ZM6.61044 10.3379L6.73957 10.2109L4.33556 7.76638L4.20643 7.89337L6.61044 10.3379ZM3.02685 10.3379C4.01966 11.3143 5.61763 11.3143 6.61044 10.3379L4.20643 7.89337C4.54777 7.55768 5.08952 7.55768 5.43086 7.89337L3.02685 10.3379ZM3.02685 6.73336C2.01808 7.7254 2.01808 9.34588 3.02685 10.3379L5.43086 7.89337C5.78817 8.24475 5.78817 8.82652 5.43086 9.17791L3.02685 6.73336ZM3.15599 6.60636L3.02685 6.73336L5.43086 9.17791L5.56 9.05091L3.15599 6.60636ZM3.0663 7.88002C2.7701 7.49164 2.81286 6.94379 3.15599 6.60636L5.56 9.05092C6.44416 8.18141 6.5478 6.79122 5.79251 5.80088L3.0663 7.88002ZM3.45377 2.48566C1.98259 3.93245 1.81291 6.23655 3.0663 7.88002L5.79251 5.80088C5.59061 5.53614 5.61389 5.17007 5.85778 4.93022L3.45377 2.48566ZM3.58291 2.35867L3.45378 2.48566L5.85778 4.93022L5.98692 4.80323L3.58291 2.35867ZM7.1665 2.35867C6.17369 1.38233 4.57572 1.38233 3.58291 2.35867L5.98692 4.80322C5.64557 5.13891 5.10383 5.13891 4.76249 4.80322L7.1665 2.35867ZM17.7316 5.96324C18.7404 4.9712 18.7404 3.35071 17.7316 2.35867L15.3276 4.80322C14.9703 4.45184 14.9703 3.87007 15.3276 3.51868L17.7316 5.96324ZM17.6025 6.09023L17.7316 5.96324L15.3276 3.51868L15.1985 3.64568L17.6025 6.09023ZM17.6922 4.81657C17.9883 5.20495 17.9456 5.7528 17.6025 6.09023L15.1985 3.64568C14.3143 4.51518 14.2106 5.90537 14.9659 6.89572L17.6922 4.81657ZM17.3047 10.2109C18.7759 8.76414 18.9455 6.46004 17.6922 4.81657L14.9659 6.89572C15.1678 7.16046 15.1446 7.52653 14.9007 7.76638L17.3047 10.2109ZM17.1755 10.3379L17.3047 10.2109L14.9007 7.76638L14.7715 7.89337L17.1755 10.3379ZM13.592 10.3379C14.5848 11.3143 16.1827 11.3143 17.1755 10.3379L14.7715 7.89337C15.1129 7.55768 15.6546 7.55768 15.996 7.89337L13.592 10.3379ZM13.592 6.73336C12.5832 7.7254 12.5832 9.34588 13.592 10.3379L15.996 7.89337C16.3533 8.24475 16.3533 8.82652 15.996 9.17791L13.592 6.73336ZM13.7211 6.60636L13.592 6.73336L15.996 9.17791L16.1251 9.05091L13.7211 6.60636ZM13.6314 7.88002C13.3352 7.49164 13.378 6.94379 13.7211 6.60636L16.1251 9.05092C17.0093 8.18141 17.1129 6.79122 16.3576 5.80088L13.6314 7.88002ZM14.0189 2.48566C12.5477 3.93245 12.378 6.23655 13.6314 7.88002L16.3576 5.80088C16.1557 5.53614 16.179 5.17007 16.4229 4.93022L14.0189 2.48566ZM14.148 2.35867L14.0189 2.48566L16.4229 4.93022L16.552 4.80323L14.148 2.35867ZM17.7316 2.35867C16.7388 1.38233 15.1408 1.38233 14.148 2.35867L16.552 4.80322C16.2107 5.13891 15.6689 5.13891 15.3276 4.80322L17.7316 2.35867Z" fill="#5E6272" mask="url(#path-2-inside-1_28_38041)"/>
</g>
<defs>
<clipPath id="clip0_28_38041">
<rect x="0.558594" y="0.5" width="24" height="24" rx="4.57143" fill="white"/>
</clipPath>
</defs>
</svg>
