<svg width="22" height="23" viewBox="0 0 22 23" fill="none" xmlns="http://www.w3.org/2000/svg">
<path d="M9.18181 20.591H12.8182C17.3636 20.591 19.1818 18.7728 19.1818 14.2274V8.77282C19.1818 4.22736 17.3636 2.40918 12.8182 2.40918H9.18181C4.63636 2.40918 2.81818 4.22736 2.81818 8.77282V14.2274C2.81818 18.7728 4.63636 20.591 9.18181 20.591Z" stroke="#8F93A3" stroke-width="1.36364" stroke-linecap="round" stroke-linejoin="round"/>
<path d="M15.0909 7.4818V8.39089C15.0909 9.13635 14.4818 9.75453 13.7273 9.75453H8.27275C7.5273 9.75453 6.90912 9.14544 6.90912 8.39089V7.4818C6.90912 6.73635 7.51821 6.11816 8.27275 6.11816H13.7273C14.4818 6.11816 15.0909 6.72726 15.0909 7.4818Z" stroke="#8F93A3" stroke-width="1.36364" stroke-linecap="round" stroke-linejoin="round"/>
<path d="M7.48741 13.3183H7.49791" stroke="#8F93A3" stroke-width="1.81818" stroke-linecap="round" stroke-linejoin="round"/>
<path d="M10.9959 13.3183H11.0064" stroke="#8F93A3" stroke-width="1.81818" stroke-linecap="round" stroke-linejoin="round"/>
<path d="M14.5035 13.3183H14.514" stroke="#8F93A3" stroke-width="1.81818" stroke-linecap="round" stroke-linejoin="round"/>
<path d="M7.48741 16.5H7.49791" stroke="#8F93A3" stroke-width="1.81818" stroke-linecap="round" stroke-linejoin="round"/>
<path d="M10.9959 16.5H11.0064" stroke="#8F93A3" stroke-width="1.81818" stroke-linecap="round" stroke-linejoin="round"/>
<path d="M14.5035 16.5H14.514" stroke="#8F93A3" stroke-width="1.81818" stroke-linecap="round" stroke-linejoin="round"/>
</svg>
