<svg width="20" height="21" viewBox="0 0 20 21" fill="none" xmlns="http://www.w3.org/2000/svg">
<path fill-rule="evenodd" clip-rule="evenodd" d="M20 10.5C20 16.0228 15.5228 20.5 10 20.5C4.47715 20.5 0 16.0228 0 10.5C0 4.97715 4.47715 0.5 10 0.5C15.5228 0.5 20 4.97715 20 10.5ZM6.96963 7.46965C7.26252 7.17676 7.73739 7.17676 8.03029 7.46965L9.99997 9.43933L11.9696 7.46967C12.2625 7.17678 12.7374 7.17678 13.0303 7.46967C13.3232 7.76256 13.3232 8.23744 13.0303 8.53033L11.0606 10.5L13.0303 12.4696C13.3232 12.7625 13.3232 13.2374 13.0303 13.5303C12.7374 13.8232 12.2625 13.8232 11.9696 13.5303L9.99997 11.5607L8.03031 13.5303C7.73742 13.8232 7.26254 13.8232 6.96965 13.5303C6.67676 13.2374 6.67676 12.7625 6.96965 12.4697L8.93931 10.5L6.96963 8.53031C6.67673 8.23742 6.67673 7.76254 6.96963 7.46965Z" fill="#FD5151"/>
</svg>
