<svg width="25" height="25" viewBox="0 0 25 25" fill="none" xmlns="http://www.w3.org/2000/svg">
<path d="M20.4 7.25C21.9188 7.25 23.15 6.01878 23.15 4.5C23.15 2.98122 21.9188 1.75 20.4 1.75C18.8812 1.75 17.65 2.98122 17.65 4.5C17.65 6.01878 18.8812 7.25 20.4 7.25Z" fill="#8F93A3"/>
<path d="M19.44 8.65C17.87 8.31 16.59 7.03 16.25 5.46C16.12 4.85 16.11 4.26 16.22 3.7C16.35 3.08 15.89 2.5 15.25 2.5H7.40002C4.64002 2.5 2.40002 4.74 2.40002 7.5V14.45C2.40002 17.21 4.64002 19.45 7.40002 19.45H8.90002C9.18002 19.45 9.54002 19.63 9.70002 19.85L11.2 21.84C11.86 22.72 12.94 22.72 13.6 21.84L15.1 19.85C15.29 19.6 15.58 19.45 15.9 19.45H17.41C20.17 19.45 22.4 17.22 22.4 14.46V9.65C22.4 9.02 21.82 8.56 21.2 8.68C20.64 8.78 20.05 8.78 19.44 8.65ZM8.40002 12.5C7.84002 12.5 7.40002 12.05 7.40002 11.5C7.40002 10.95 7.84002 10.5 8.40002 10.5C8.95002 10.5 9.40002 10.95 9.40002 11.5C9.40002 12.05 8.96002 12.5 8.40002 12.5ZM12.4 12.5C11.84 12.5 11.4 12.05 11.4 11.5C11.4 10.95 11.84 10.5 12.4 10.5C12.95 10.5 13.4 10.95 13.4 11.5C13.4 12.05 12.96 12.5 12.4 12.5ZM16.4 12.5C15.84 12.5 15.4 12.05 15.4 11.5C15.4 10.95 15.84 10.5 16.4 10.5C16.95 10.5 17.4 10.95 17.4 11.5C17.4 12.05 16.96 12.5 16.4 12.5Z" fill="#8F93A3"/>
</svg>
