<svg width="22" height="23" viewBox="0 0 22 23" fill="none" xmlns="http://www.w3.org/2000/svg">
<path d="M20.0909 11.4896V8.76547C20.0909 4.22526 18.2728 2.40918 13.7273 2.40918H8.27275C3.7273 2.40918 1.90912 4.22526 1.90912 8.76547V14.2137C1.90912 18.7539 3.7273 20.57 8.27275 20.57H11" stroke="#8F93A3" stroke-width="1.36364" stroke-linecap="round" stroke-linejoin="round"/>
<path d="M19.1452 16.793L17.6633 17.2924C17.2543 17.4286 16.927 17.7464 16.7906 18.1641L16.2906 19.6442C15.8633 20.9246 14.0633 20.8973 13.6633 19.617L11.9815 14.2141C11.6543 13.1426 12.6452 12.1438 13.7088 12.4798L19.127 14.1597C20.3997 14.5592 20.4179 16.3662 19.1452 16.793Z" stroke="#8F93A3" stroke-width="1.36364" stroke-linecap="round" stroke-linejoin="round"/>
</svg>
