<svg width="24" height="25" viewBox="0 0 24 25" fill="none" xmlns="http://www.w3.org/2000/svg">
<path fill-rule="evenodd" clip-rule="evenodd" d="M12 3.89535C7.24778 3.89535 3.39535 7.74778 3.39535 12.5C3.39535 17.2522 7.24778 21.1047 12 21.1047C16.7522 21.1047 20.6047 17.2522 20.6047 12.5C20.6047 7.74778 16.7522 3.89535 12 3.89535ZM2 12.5C2 6.97715 6.47715 2.5 12 2.5C17.5228 2.5 22 6.97715 22 12.5C22 18.0228 17.5228 22.5 12 22.5C6.47715 22.5 2 18.0228 2 12.5ZM8.64881 15.8055C8.87826 15.4959 9.31521 15.431 9.62476 15.6604C10.3023 16.1626 11.1201 16.4535 12 16.4535C12.8799 16.4535 13.6977 16.1626 14.3752 15.6604C14.6848 15.431 15.1217 15.4959 15.3512 15.8055C15.5806 16.115 15.5157 16.552 15.2062 16.7814C14.3016 17.4519 13.1953 17.8488 12 17.8488C10.8047 17.8488 9.69842 17.4519 8.79385 16.7814C8.4843 16.552 8.41936 16.115 8.64881 15.8055Z" fill="#8F93A3"/>
<path d="M15.7209 11.1047C15.7209 11.8753 15.3045 12.5 14.7907 12.5C14.2769 12.5 13.8605 11.8753 13.8605 11.1047C13.8605 10.334 14.2769 9.7093 14.7907 9.7093C15.3045 9.7093 15.7209 10.334 15.7209 11.1047Z" fill="#8F93A3"/>
<path d="M10.1395 11.1047C10.1395 11.8753 9.72306 12.5 9.2093 12.5C8.69555 12.5 8.27907 11.8753 8.27907 11.1047C8.27907 10.334 8.69555 9.7093 9.2093 9.7093C9.72306 9.7093 10.1395 10.334 10.1395 11.1047Z" fill="#8F93A3"/>
</svg>
