<svg width="16" height="23" viewBox="0 0 16 23" fill="none" xmlns="http://www.w3.org/2000/svg">
<path d="M8.51466 0.700195C8.83686 0.842151 9.16965 0.96608 9.47656 1.13338C9.64295 1.22351 9.76525 1.38744 9.91342 1.5232C10.5225 1.18239 11.1693 1.11198 11.8402 1.37054C12.6192 1.67079 13.126 2.38789 13.1337 3.19117C13.1372 3.54888 13.1337 3.90658 13.1337 4.21978C13.5205 4.21359 13.8998 4.16345 14.2655 4.21021C15.1809 4.32738 15.9159 5.14475 15.9523 6.03028C15.9559 6.11477 15.9588 6.19871 15.9588 6.2832C15.9565 9.11499 15.9559 11.9462 15.9512 14.778C15.9453 18.3015 13.53 21.2482 9.96045 22.0909C5.80006 23.0734 1.47385 20.4956 0.560165 16.4758C0.450217 15.9925 0.384954 15.4906 0.378486 14.996C0.356144 13.2677 0.350264 11.5389 0.37437 9.81068C0.392597 8.50041 1.66612 7.59967 2.99255 7.91794C3.05488 7.93315 3.11661 7.94836 3.20774 7.97089C3.21245 7.87288 3.2195 7.79289 3.2195 7.71233C3.22186 6.44769 3.1954 5.18249 3.23185 3.91841C3.27242 2.53491 4.63884 1.65614 6.00819 2.09215C6.04876 2.1051 6.08992 2.11637 6.14401 2.1327C6.17341 2.06511 6.20046 2.00258 6.22868 1.94005C6.51266 1.31195 7.00243 0.915381 7.69387 0.74526C7.73444 0.735121 7.77207 0.715405 7.81087 0.700195C8.04547 0.700195 8.28007 0.700195 8.51525 0.700195L8.51466 0.700195ZM4.5577 12.6109C5.90295 12.9405 6.80429 13.7043 7.21292 14.965C7.42753 15.628 7.37167 16.3153 7.33816 16.9941C7.32111 17.3349 6.99832 17.5732 6.66259 17.5608C6.30864 17.5478 6.02466 17.2701 6.01525 16.9113C6.00643 16.5812 6.01525 16.2505 6.01231 15.9204C6.00349 14.7605 5.16741 13.9161 3.95563 13.8468C3.66459 13.8299 3.41706 13.7398 3.293 13.4745C3.23832 13.3584 3.2248 13.2165 3.22421 13.0864C3.21892 12.0465 3.22068 11.006 3.22186 9.96615C3.22186 9.74195 3.18129 9.53296 3.01431 9.36228C2.80323 9.14653 2.47515 9.07274 2.18705 9.17751C1.87955 9.28905 1.69434 9.55719 1.69375 9.90588C1.69199 11.5153 1.68493 13.1247 1.69845 14.7335C1.70198 15.1526 1.74255 15.5762 1.82193 15.9885C2.48456 19.4479 6.13989 21.6921 9.69999 20.8364C12.6333 20.1317 14.6159 17.6853 14.6247 14.7448C14.6335 11.913 14.6318 9.08062 14.6335 6.24884C14.6335 5.76383 14.329 5.44443 13.8745 5.44894C13.4288 5.45288 13.1348 5.76777 13.1343 6.24434C13.1319 7.64304 13.1307 9.04119 13.129 10.4399C13.1284 10.9345 12.8756 11.2364 12.461 11.2398C12.0395 11.2432 11.7825 10.9362 11.7843 10.4281C11.7919 8.08074 11.8002 5.73397 11.8061 3.38664C11.8061 3.26835 11.7996 3.14667 11.7725 3.03119C11.7038 2.73658 11.4256 2.52252 11.1099 2.50618C10.6096 2.48027 10.275 2.78333 10.2744 3.27116C10.2709 5.40725 10.2691 7.5439 10.2668 9.67999C10.2668 9.76392 10.2685 9.84955 10.2533 9.93179C10.1939 10.254 9.92459 10.4776 9.60062 10.4805C9.2743 10.4833 9.00384 10.2675 8.93917 9.94362C8.92153 9.85518 8.92212 9.76223 8.9227 9.67098C8.92741 7.99117 8.93329 6.31193 8.93917 4.63213C8.94152 4.01361 8.94269 3.39509 8.94563 2.77714C8.94681 2.51069 8.87155 2.27466 8.63402 2.11468C8.37884 1.94287 8.10015 1.91977 7.82322 2.05384C7.54453 2.18904 7.40989 2.41661 7.41047 2.72024C7.41224 5.03941 7.41106 7.35857 7.41047 9.67717C7.41047 9.76111 7.41577 9.84729 7.40107 9.92954C7.34698 10.2416 7.06123 10.476 6.74314 10.4771C6.41212 10.4782 6.13108 10.2411 6.08286 9.91264C6.06993 9.82251 6.06993 9.73069 6.06993 9.63943C6.06934 7.7912 6.07346 5.94296 6.06287 4.09473C6.0617 3.90883 6.00702 3.70041 5.90706 3.54324C5.7395 3.27849 5.37731 3.19568 5.06687 3.29538C4.74584 3.39847 4.55299 3.65816 4.55241 4.00347C4.55123 6.82849 4.55182 9.65351 4.55241 12.4785C4.55241 12.5202 4.55593 12.5619 4.55829 12.6104L4.5577 12.6109Z" fill="#5E6272"/>
</svg>
