<svg width="29" height="29" viewBox="0 0 29 29" fill="none" xmlns="http://www.w3.org/2000/svg">
<path d="M7.19629 21.646H16.4424C18.3408 21.646 19.4307 20.5825 19.4307 18.7192V10.0884C19.4307 8.2251 18.4111 7.16162 16.5127 7.16162H7.19629C5.36816 7.16162 4.20801 8.2251 4.20801 10.0884V18.7808C4.20801 20.6353 5.30664 21.646 7.19629 21.646ZM20.7227 17.2339L23.7285 19.8179C24.0889 20.1343 24.4756 20.3364 24.8447 20.3364C25.5566 20.3364 26.04 19.8267 26.04 19.0532V9.79834C26.04 9.0249 25.5566 8.51514 24.8447 8.51514C24.4668 8.51514 24.0889 8.71729 23.7285 9.03369L20.7227 11.6177V17.2339Z" fill="white"/>
</svg>
