<svg width="25" height="25" viewBox="0 0 25 25" fill="none" xmlns="http://www.w3.org/2000/svg">
<path d="M9.59998 2.5C6.97998 2.5 4.84998 4.63 4.84998 7.25C4.84998 9.82 6.85998 11.9 9.47998 11.99C9.55998 11.98 9.63998 11.98 9.69998 11.99C9.71998 11.99 9.72998 11.99 9.74998 11.99C9.75998 11.99 9.75998 11.99 9.76998 11.99C12.33 11.9 14.34 9.82 14.35 7.25C14.35 4.63 12.22 2.5 9.59998 2.5Z" fill="#8F93A3"/>
<path d="M14.6799 14.6489C11.8899 12.7889 7.33994 12.7889 4.52994 14.6489C3.25994 15.4989 2.55994 16.6489 2.55994 17.8789C2.55994 19.1089 3.25994 20.2489 4.51994 21.0889C5.91994 22.0289 7.75994 22.4989 9.59994 22.4989C11.4399 22.4989 13.2799 22.0289 14.6799 21.0889C15.9399 20.2389 16.6399 19.0989 16.6399 17.8589C16.6299 16.6289 15.9399 15.4889 14.6799 14.6489Z" fill="#8F93A3"/>
<path d="M20.5894 7.83815C20.7494 9.77815 19.3694 11.4781 17.4594 11.7081C17.4494 11.7081 17.4494 11.7081 17.4394 11.7081H17.4094C17.3494 11.7081 17.2894 11.7081 17.2394 11.7281C16.2694 11.7781 15.3794 11.4681 14.7094 10.8981C15.7394 9.97815 16.3294 8.59815 16.2094 7.09815C16.1394 6.28815 15.8594 5.54815 15.4394 4.91815C15.8194 4.72815 16.2594 4.60815 16.7094 4.56815C18.6694 4.39815 20.4194 5.85815 20.5894 7.83815Z" fill="#8F93A3"/>
<path d="M22.5902 17.0904C22.5102 18.0604 21.8902 18.9004 20.8502 19.4704C19.8502 20.0204 18.5902 20.2804 17.3402 20.2504C18.0602 19.6004 18.4802 18.7904 18.5602 17.9304C18.6602 16.6904 18.0702 15.5004 16.8902 14.5504C16.2202 14.0204 15.4402 13.6004 14.5902 13.2904C16.8002 12.6504 19.5802 13.0804 21.2902 14.4604C22.2102 15.2004 22.6802 16.1304 22.5902 17.0904Z" fill="#8F93A3"/>
</svg>
