<svg width="25" height="25" viewBox="0 0 25 25" fill="none" xmlns="http://www.w3.org/2000/svg">
<path d="M10.1458 11.2288C10.5485 11.2288 10.875 10.9024 10.875 10.4997C10.875 10.097 10.5485 9.77051 10.1458 9.77051C9.74308 9.77051 9.41663 10.097 9.41663 10.4997C9.41663 10.9024 9.74308 11.2288 10.1458 11.2288Z" fill="#8F93A3" stroke="#8F93A3" stroke-width="1.5" stroke-linecap="round" stroke-linejoin="round"/>
<path d="M10.1458 6.12484C10.5485 6.12484 10.875 5.79838 10.875 5.39567C10.875 4.99296 10.5485 4.6665 10.1458 4.6665C9.74308 4.6665 9.41663 4.99296 9.41663 5.39567C9.41663 5.79838 9.74308 6.12484 10.1458 6.12484Z" fill="#8F93A3" stroke="#8F93A3" stroke-width="1.5" stroke-linecap="round" stroke-linejoin="round"/>
<path d="M10.1458 16.3333C10.5485 16.3333 10.875 16.0069 10.875 15.6042C10.875 15.2015 10.5485 14.875 10.1458 14.875C9.74308 14.875 9.41663 15.2015 9.41663 15.6042C9.41663 16.0069 9.74308 16.3333 10.1458 16.3333Z" fill="#8F93A3" stroke="#8F93A3" stroke-width="1.5" stroke-linecap="round" stroke-linejoin="round"/>
</svg>
