<svg width="24" height="25" viewBox="0 0 24 25" fill="none" xmlns="http://www.w3.org/2000/svg">
<path d="M21 16.7515H15C14.59 16.7515 14.25 16.4115 14.25 16.0015C14.25 15.5915 14.59 15.2515 15 15.2515H21C21.41 15.2515 21.75 15.5915 21.75 16.0015C21.75 16.4115 21.41 16.7515 21 16.7515Z" fill="#8F93A3"/>
<path d="M21 20.75H15C14.59 20.75 14.25 20.41 14.25 20C14.25 19.59 14.59 19.25 15 19.25H21C21.41 19.25 21.75 19.59 21.75 20C21.75 20.41 21.41 20.75 21 20.75Z" fill="#8F93A3"/>
<path d="M22 9.02147V4.48146C22 3.07146 21.36 2.50146 19.77 2.50146H15.73C14.14 2.50146 13.5 3.07146 13.5 4.48146V9.01147C13.5 10.4315 14.14 10.9915 15.73 10.9915H19.77C21.36 11.0015 22 10.4315 22 9.02147Z" fill="#8F93A3"/>
<path d="M10.5002 9.02147V4.48146C10.5002 3.07146 9.86018 2.50146 8.27018 2.50146H4.23018C2.64018 2.50146 2.00018 3.07146 2.00018 4.48146V9.01147C2.00018 10.4315 2.64018 10.9915 4.23018 10.9915H8.27018C9.86018 11.0015 10.5002 10.4315 10.5002 9.02147Z" fill="#8F93A3"/>
<path d="M10.5004 20.27V16.23C10.5004 14.64 9.86037 14 8.27037 14H4.23037C2.64037 14 2.00037 14.64 2.00037 16.23V20.27C2.00037 21.86 2.64037 22.5 4.23037 22.5H8.27037C9.86037 22.5 10.5004 21.86 10.5004 20.27Z" fill="#8F93A3"/>
</svg>
