<svg width="15" height="15" viewBox="0 0 15 15" fill="none" xmlns="http://www.w3.org/2000/svg">
<path fill-rule="evenodd" clip-rule="evenodd" d="M9.54594 5.01638L6.89429 2.36472L7.42462 1.83439C7.7163 1.54271 7.7163 1.06542 7.42462 0.773734C7.13294 0.482053 6.65564 0.482053 6.36396 0.773734L1.06066 6.07704C0.768979 6.36872 0.768979 6.84601 1.06066 7.1377C1.35234 7.42938 1.82964 7.42938 2.12132 7.1377L2.65165 6.60737L5.3033 9.25902C6.18365 10.1394 6.18365 11.5606 5.3033 12.441L6.36396 13.5017L9.53003 10.3356L13.2423 14.0479H14.303V12.9872L10.5907 9.27493L13.7886 6.07704L12.7279 5.01638C11.8476 5.89672 10.4263 5.89672 9.54594 5.01638Z" fill="#0E78F9"/>
</svg>
