<svg width="22" height="23" viewBox="0 0 22 23" fill="none" xmlns="http://www.w3.org/2000/svg">
<path fill-rule="evenodd" clip-rule="evenodd" d="M11.0449 1.72705H10.9551C10.3507 1.72702 9.82992 1.72699 9.41289 1.78306C8.96595 1.84315 8.53753 1.97866 8.19003 2.32616C7.84253 2.67365 7.70703 3.10207 7.64694 3.54902C7.59087 3.96605 7.5909 4.48684 7.59093 5.09126L7.59093 7.29799C7.37767 7.22262 7.14818 7.1816 6.90911 7.1816H4.18184C3.05217 7.1816 2.13639 8.09738 2.13639 9.22706V19.9089H1.90911C1.53256 19.9089 1.22729 20.2141 1.22729 20.5907C1.22729 20.9672 1.53256 21.2725 1.90911 21.2725H20.0909C20.4675 21.2725 20.7728 20.9672 20.7728 20.5907C20.7728 20.2141 20.4675 19.9089 20.0909 19.9089H19.8637V13.7725C19.8637 12.6428 18.9479 11.7271 17.8182 11.7271H15.0909C14.8519 11.7271 14.6224 11.7681 14.4091 11.8434L14.4091 5.09127C14.4091 4.48684 14.4092 3.96606 14.3531 3.54902C14.293 3.10207 14.1575 2.67365 13.81 2.32616C13.4625 1.97866 13.0341 1.84315 12.5872 1.78306C12.1701 1.72699 11.6493 1.72702 11.0449 1.72705ZM18.5 19.9089V13.7725C18.5 13.396 18.1948 13.0907 17.8182 13.0907H15.0909C14.7144 13.0907 14.4091 13.396 14.4091 13.7725V19.9089H18.5ZM13.0455 19.9089V5.13615C13.0455 4.47405 13.044 4.04606 13.0016 3.73072C12.9619 3.43499 12.8977 3.34229 12.8458 3.29039C12.7939 3.23849 12.7012 3.1743 12.4055 3.13454C12.0901 3.09214 11.6621 3.09069 11 3.09069C10.3379 3.09069 9.90994 3.09214 9.59459 3.13454C9.29886 3.1743 9.20617 3.23849 9.15427 3.29039C9.10237 3.34229 9.03817 3.43499 8.99841 3.73072C8.95602 4.04606 8.95457 4.47405 8.95457 5.13615V19.9089H13.0455ZM7.59093 19.9089V9.22706C7.59093 8.8505 7.28567 8.54524 6.90911 8.54524H4.18184C3.80528 8.54524 3.50002 8.8505 3.50002 9.22706V19.9089H7.59093Z" fill="#8F93A3"/>
</svg>
