<svg width="22" height="23" viewBox="0 0 22 23" fill="none" xmlns="http://www.w3.org/2000/svg">
<path d="M18.2727 8.09095V16.9546C18.2727 19.6819 16.6455 20.591 14.6364 20.591H7.36366C5.35457 20.591 3.72729 19.6819 3.72729 16.9546V8.09095C3.72729 5.13641 5.35457 4.45459 7.36366 4.45459C7.36366 5.01823 7.59091 5.52731 7.96363 5.90004C8.33636 6.27277 8.84548 6.50004 9.40911 6.50004H12.5909C13.7182 6.50004 14.6364 5.58186 14.6364 4.45459C16.6455 4.45459 18.2727 5.13641 18.2727 8.09095Z" stroke="#8F93A3" stroke-width="1.36364" stroke-linecap="round" stroke-linejoin="round"/>
<path d="M14.6364 4.45463C14.6364 5.58191 13.7182 6.50009 12.5909 6.50009H9.4091C8.84547 6.50009 8.33635 6.27281 7.96362 5.90009C7.5909 5.52736 7.36365 5.01827 7.36365 4.45463C7.36365 3.32736 8.28183 2.40918 9.4091 2.40918H12.5909C13.1546 2.40918 13.6637 2.63646 14.0364 3.00918C14.4091 3.38191 14.6364 3.891 14.6364 4.45463Z" stroke="#8F93A3" stroke-width="1.36364" stroke-linecap="round" stroke-linejoin="round"/>
<path d="M7.36365 12.4092H11" stroke="#8F93A3" stroke-width="1.36364" stroke-linecap="round" stroke-linejoin="round"/>
<path d="M7.36365 16.0454H14.6364" stroke="#8F93A3" stroke-width="1.36364" stroke-linecap="round" stroke-linejoin="round"/>
</svg>
