<svg width="24" height="23" viewBox="0 0 24 23" fill="none" xmlns="http://www.w3.org/2000/svg">
<path d="M3.85383 19.6476C5.25173 21.0455 7.50162 21.0455 12.0014 21.0455C16.5012 21.0455 18.751 21.0455 20.1489 19.6476C21.5468 18.2497 21.5468 15.9998 21.5468 11.5C21.5468 7.00027 21.5468 4.75039 20.1489 3.35249C18.751 1.95459 16.5012 1.95459 12.0014 1.95459C7.50162 1.95459 5.25173 1.95459 3.85383 3.35249C2.45593 4.75039 2.45593 7.00027 2.45593 11.5C2.45593 15.9998 2.45593 18.2497 3.85383 19.6476Z" stroke="#8F93A3" stroke-width="1.36364" stroke-linecap="round"/>
<path fill-rule="evenodd" clip-rule="evenodd" d="M18.2159 12.3403C17.9678 12.085 17.5597 12.0793 17.3045 12.3274C17.0493 12.5756 17.0435 12.9836 17.2917 13.2388L18.277 14.2523C17.814 14.2519 17.2712 14.2451 16.6761 14.2271C15.7125 14.1979 15.021 14.5788 14.5752 15.1C14.1513 15.5956 13.9723 16.1882 13.9334 16.6037L13.9305 16.6337V18.3985C13.9305 18.7544 14.2191 19.043 14.5751 19.043C14.931 19.043 15.2196 18.7544 15.2196 18.3985V16.6978C15.2441 16.4952 15.3434 16.185 15.5548 15.9379C15.7536 15.7054 16.0741 15.4985 16.637 15.5156C17.2588 15.5344 17.8265 15.5412 18.3102 15.5414L17.2741 16.6958C17.0364 16.9607 17.0584 17.3682 17.3233 17.606C17.5882 17.8437 17.9957 17.8217 18.2334 17.5568L20.2329 15.3289C20.2506 15.3113 20.2673 15.2927 20.2828 15.2733L20.6594 14.8536L20.264 14.4469C20.2493 14.43 20.2336 14.414 20.2172 14.3988L18.2159 12.3403Z" fill="#8F93A3"/>
<path fill-rule="evenodd" clip-rule="evenodd" d="M7.11294 9.95138C5.90143 11.1629 5.90143 13.1271 7.11294 14.3387C8.32446 15.5502 10.2887 15.5502 11.5002 14.3387C12.7117 13.1271 12.7117 11.1629 11.5002 9.95138C11.2206 9.6718 11.2206 9.21851 11.5002 8.93893C11.7798 8.65935 12.2331 8.65935 12.5127 8.93893C14.2833 10.7096 14.2833 13.5804 12.5127 15.3511C10.742 17.1218 7.87117 17.1218 6.1005 15.3511C4.32982 13.5804 4.32982 10.7096 6.1005 8.93893C6.38008 8.65935 6.83336 8.65935 7.11294 8.93893C7.39252 9.21851 7.39252 9.6718 7.11294 9.95138ZM14.875 6.57655C16.0866 7.78807 16.0866 9.75232 14.875 10.9638C14.5955 11.2434 14.5955 11.6967 14.875 11.9763C15.1546 12.2559 15.6079 12.2559 15.8875 11.9763C17.6582 10.2056 17.6582 7.33478 15.8875 5.56411C14.1168 3.79343 11.246 3.79343 9.47532 5.56411C7.70465 7.33478 7.70465 10.2056 9.47532 11.9763C9.7549 12.2559 10.2082 12.2559 10.4878 11.9763C10.7674 11.6967 10.7674 11.2434 10.4878 10.9638C9.27626 9.75232 9.27626 7.78807 10.4878 6.57655C11.6993 5.36504 13.6635 5.36504 14.875 6.57655Z" fill="#8F93A3"/>
</svg>
