<svg width="22" height="23" viewBox="0 0 22 23" fill="none" xmlns="http://www.w3.org/2000/svg">
<path d="M15.5455 17.3458H11.9091L7.86365 20.0367C7.26365 20.4367 6.45457 20.0094 6.45457 19.2822V17.3458C3.7273 17.3458 1.90912 15.5276 1.90912 12.8003V7.34575C1.90912 4.61847 3.7273 2.80029 6.45457 2.80029H15.5455C18.2728 2.80029 20.0909 4.61847 20.0909 7.34575V12.8003C20.0909 15.5276 18.2728 17.3458 15.5455 17.3458Z" stroke="#8F93A3" stroke-width="1.36364" stroke-miterlimit="10" stroke-linecap="round" stroke-linejoin="round"/>
<path d="M11 10.9181V10.7272C11 10.109 11.3818 9.78171 11.7636 9.51808C12.1364 9.26353 12.509 8.93627 12.509 8.33627C12.509 7.49991 11.8363 6.82715 11 6.82715C10.1636 6.82715 9.49091 7.49991 9.49091 8.33627" stroke="#8F93A3" stroke-width="1.36364" stroke-linecap="round" stroke-linejoin="round"/>
<path d="M10.9959 13.0908H11.0041" stroke="#8F93A3" stroke-width="1.36364" stroke-linecap="round" stroke-linejoin="round"/>
</svg>
