<svg width="24" height="25" viewBox="0 0 24 25" fill="none" xmlns="http://www.w3.org/2000/svg">
<path d="M2.00024 7.49854V4.99854C2.00024 4.33549 2.26364 3.69961 2.73248 3.23077C3.20132 2.76193 3.8372 2.49854 4.50024 2.49854H7.00024" stroke="#8F93A3" stroke-width="1.5" stroke-linecap="round" stroke-linejoin="round"/>
<path d="M2.00024 17.4985V19.9985C2.00024 20.6616 2.26364 21.2975 2.73248 21.7663C3.20132 22.2351 3.8372 22.4985 4.50024 22.4985H7.00024" stroke="#8F93A3" stroke-width="1.5" stroke-linecap="round" stroke-linejoin="round"/>
<path d="M17.0002 2.49854H19.5002C20.1633 2.49854 20.7992 2.76193 21.268 3.23077C21.7369 3.69961 22.0002 4.33549 22.0002 4.99854V7.49854" stroke="#8F93A3" stroke-width="1.5" stroke-linecap="round" stroke-linejoin="round"/>
<path d="M17.0002 22.4985H19.5002C20.1633 22.4985 20.7992 22.2351 21.268 21.7663C21.7369 21.2975 22.0002 20.6616 22.0002 19.9985V17.4985" stroke="#8F93A3" stroke-width="1.5" stroke-linecap="round" stroke-linejoin="round"/>
<path d="M8.25061 12.4985C8.25061 13.4931 8.6457 14.4469 9.34896 15.1502C10.0522 15.8534 11.006 16.2485 12.0006 16.2485C12.9952 16.2485 13.949 15.8534 14.6523 15.1502C15.3555 14.4469 15.7506 13.4931 15.7506 12.4985C15.7506 11.504 15.3555 10.5501 14.6523 9.84688C13.949 9.14362 12.9952 8.74854 12.0006 8.74854C11.006 8.74854 10.0522 9.14362 9.34896 9.84688C8.6457 10.5501 8.25061 11.504 8.25061 12.4985Z" stroke="#8F93A3" stroke-width="1.5" stroke-linecap="round" stroke-linejoin="round"/>
</svg>
