<svg width="25" height="25" viewBox="0 0 25 25" fill="none" xmlns="http://www.w3.org/2000/svg">
<g clip-path="url(#clip0_28_38043)">
<path d="M12.5587 15.5C14.2156 15.5 15.5587 14.1569 15.5587 12.5C15.5587 10.8431 14.2156 9.5 12.5587 9.5C10.9018 9.5 9.5587 10.8431 9.5587 12.5C9.5587 14.1569 10.9018 15.5 12.5587 15.5Z" stroke="#5E6272" stroke-width="1.56" stroke-miterlimit="10" stroke-linecap="round" stroke-linejoin="round"/>
<path d="M2.5587 13.3794V11.6194C2.5587 10.5794 3.4087 9.71945 4.4587 9.71945C6.2687 9.71945 7.0087 8.43945 6.0987 6.86945C5.5787 5.96945 5.8887 4.79945 6.7987 4.27945L8.5287 3.28945C9.3187 2.81945 10.3387 3.09945 10.8087 3.88945L10.9187 4.07945C11.8187 5.64945 13.2987 5.64945 14.2087 4.07945L14.3187 3.88945C14.7887 3.09945 15.8087 2.81945 16.5987 3.28945L18.3287 4.27945C19.2387 4.79945 19.5487 5.96945 19.0287 6.86945C18.1187 8.43945 18.8587 9.71945 20.6687 9.71945C21.7087 9.71945 22.5687 10.5694 22.5687 11.6194V13.3794C22.5687 14.4194 21.7187 15.2794 20.6687 15.2794C18.8587 15.2794 18.1187 16.5594 19.0287 18.1294C19.5487 19.0394 19.2387 20.1994 18.3287 20.7194L16.5987 21.7094C15.8087 22.1794 14.7887 21.8994 14.3187 21.1094L14.2087 20.9194C13.3087 19.3494 11.8287 19.3494 10.9187 20.9194L10.8087 21.1094C10.3387 21.8994 9.3187 22.1794 8.5287 21.7094L6.7987 20.7194C5.8887 20.1994 5.5787 19.0294 6.0987 18.1294C7.0087 16.5594 6.2687 15.2794 4.4587 15.2794C3.4087 15.2794 2.5587 14.4194 2.5587 13.3794Z" stroke="#5E6272" stroke-width="1.56" stroke-miterlimit="10" stroke-linecap="round" stroke-linejoin="round"/>
</g>
<defs>
<clipPath id="clip0_28_38043">
<rect x="0.558594" y="0.5" width="24" height="24" rx="4.8" fill="white"/>
</clipPath>
</defs>
</svg>
