<svg width="22" height="23" viewBox="0 0 22 23" fill="none" xmlns="http://www.w3.org/2000/svg">
<path d="M20.0909 11.5001C20.0909 15.7856 20.0909 17.9283 18.7595 19.2597C17.4282 20.591 15.2855 20.591 11 20.591C6.71447 20.591 4.57172 20.591 3.24039 19.2597C1.90906 17.9283 1.90906 15.7856 1.90906 11.5001C1.90906 7.21459 1.90906 5.07185 3.24039 3.74051C4.57172 2.40918 6.71447 2.40918 11 2.40918" stroke="#8F93A3" stroke-width="1.36364" stroke-linecap="round"/>
<path d="M14.7773 3.71269L16.9202 5.56993C18.3954 6.84842 19.133 7.48766 19.133 8.31789C19.133 9.14813 18.3954 9.78737 16.9202 11.0659L14.7773 12.9231C14.1286 13.4853 13.8043 13.7664 13.5385 13.645C13.2728 13.5237 13.2728 13.0945 13.2728 12.2361V10.8504C10.5455 10.8504 7.59095 12.1166 6.45459 14.227C6.45459 7.47374 10.495 5.78543 13.2728 5.78543V4.39968C13.2728 3.5413 13.2728 3.11211 13.5385 2.99076C13.8043 2.86942 14.1286 3.15051 14.7773 3.71269Z" stroke="#8F93A3" stroke-width="1.36364" stroke-linecap="round" stroke-linejoin="round"/>
</svg>
