<svg width="15" height="13" viewBox="0 0 15 13" fill="none" xmlns="http://www.w3.org/2000/svg">
<path fill-rule="evenodd" clip-rule="evenodd" d="M4.16634 12.0951H10.833C12.833 12.0951 14.1663 11.0951 14.1663 8.76172V4.09505C14.1663 1.76172 12.833 0.761719 10.833 0.761719H4.16634C2.16634 0.761719 0.833008 1.76172 0.833008 4.09505V8.76172C0.833008 11.0951 2.16634 12.0951 4.16634 12.0951ZM7.99989 9.58396V5.24803L9.50993 6.75808C9.70519 6.95334 10.0218 6.95334 10.217 6.75808C10.4123 6.56281 10.4123 6.24623 10.217 6.05097L7.85365 3.68759C7.68693 3.52086 7.43175 3.4965 7.23917 3.61449C7.20591 3.63481 7.17471 3.65924 7.14633 3.68761L4.78295 6.05099C4.58769 6.24626 4.58769 6.56284 4.78295 6.7581C4.97821 6.95336 5.2948 6.95336 5.49006 6.7581L6.99989 5.24827V9.58396C6.99989 9.86011 7.22375 10.084 7.49989 10.084C7.77603 10.084 7.99989 9.86011 7.99989 9.58396Z" fill="#0E78F9"/>
</svg>
