<svg width="19" height="16" viewBox="0 0 19 16" fill="none" xmlns="http://www.w3.org/2000/svg">
<path fill-rule="evenodd" clip-rule="evenodd" d="M10.1169 2.09148C9.52165 2.38062 8.76742 2.87636 7.69258 3.58505L7.51014 3.70534C7.49625 3.7145 7.48255 3.72354 7.46902 3.73246C7.15219 3.94145 6.93276 4.08619 6.69231 4.19231C6.45534 4.29689 6.2063 4.3716 5.9509 4.41473C5.69174 4.4585 5.42887 4.45844 5.04931 4.45837C5.03311 4.45836 5.0167 4.45836 5.00007 4.45836C3.79701 4.45836 3.39093 4.47193 3.04567 4.63166C2.71204 4.78602 2.3567 5.12036 2.18233 5.44398C2.00044 5.78158 1.96704 6.12758 1.90283 7.18105C1.88521 7.47019 1.875 7.74734 1.875 8.00003C1.875 8.25271 1.88521 8.52986 1.90283 8.81901C1.96704 9.87248 2.00044 10.2185 2.18233 10.5561C2.3567 10.8797 2.71204 11.214 3.04567 11.3684C3.39093 11.5281 3.79701 11.5417 5.00007 11.5417C5.0167 11.5417 5.03311 11.5417 5.04931 11.5417C5.42887 11.5416 5.69174 11.5416 5.9509 11.5853C6.2063 11.6284 6.45534 11.7032 6.69231 11.8077C6.93276 11.9139 7.15219 12.0586 7.46902 12.2676C7.48254 12.2765 7.49624 12.2856 7.51013 12.2947L7.69258 12.415C8.76742 13.1237 9.52165 13.6194 10.1169 13.9086C10.7104 14.1969 11.0072 14.2085 11.2149 14.1376C11.3294 14.0985 11.4414 14.0415 11.5404 13.972C11.7209 13.8451 11.8855 13.5996 12.0013 12.9568C12.1175 12.3111 12.1603 11.4178 12.2196 10.1422C12.263 9.2092 12.2917 8.4265 12.2917 8.00003C12.2917 7.57355 12.263 6.79085 12.2196 5.85788C12.1603 4.58226 12.1175 3.68897 12.0013 3.04324C11.8855 2.40043 11.7209 2.15496 11.5404 2.02809C11.4414 1.95852 11.3294 1.90151 11.2149 1.86243C11.0072 1.79158 10.7104 1.80314 10.1169 2.09148ZM9.57067 0.967126C10.259 0.632736 10.9368 0.446751 11.6186 0.679422C11.8451 0.75674 12.0632 0.86773 12.2591 1.00538C12.8475 1.41889 13.0965 2.07223 13.2315 2.82177C13.3642 3.55873 13.4095 4.53535 13.466 5.75193L13.4683 5.79986C13.5114 6.729 13.5417 7.54003 13.5417 8.00003C13.5417 8.46002 13.5114 9.27105 13.4683 10.2002L13.466 10.2481C13.4095 11.4647 13.3642 12.4413 13.2315 13.1783C13.0965 13.9278 12.8475 14.5812 12.2591 14.9947C12.0632 15.1323 11.8451 15.2433 11.6186 15.3206C10.9368 15.5533 10.259 15.3673 9.57067 15.0329C8.8927 14.7036 8.07011 14.1612 7.04439 13.4849L6.82206 13.3383C6.4488 13.0922 6.3204 13.0099 6.18761 12.9513C6.04543 12.8886 5.896 12.8437 5.74276 12.8179C5.59964 12.7937 5.44717 12.7917 5.00007 12.7917C4.95474 12.7917 4.91002 12.7917 4.86589 12.7917C3.85179 12.7923 3.14716 12.7926 2.5208 12.5029C1.9418 12.235 1.38451 11.7106 1.0819 11.149C0.754719 10.5417 0.716328 9.90672 0.66174 9.00377C0.659574 8.96796 0.657384 8.93172 0.655149 8.89505C0.636444 8.58817 0.625 8.28468 0.625 8.00003C0.625 7.71538 0.636444 7.41189 0.655149 7.105C0.657384 7.06833 0.659574 7.0321 0.66174 6.99628C0.716328 6.09333 0.754719 5.4583 1.0819 4.85107C1.38451 4.28943 1.9418 3.76508 2.5208 3.4972C3.14716 3.20741 3.85179 3.20778 4.86589 3.20831C4.91002 3.20834 4.95474 3.20836 5.00007 3.20836C5.44717 3.20836 5.59964 3.20635 5.74276 3.18218C5.896 3.15631 6.04543 3.11148 6.18761 3.04873C6.3204 2.99012 6.4488 2.90787 6.82206 2.66176L7.0444 2.51517C8.07012 1.83885 8.89271 1.29647 9.57067 0.967126ZM16.2666 2.52006C16.5317 2.29909 16.9258 2.33491 17.1468 2.60009L16.6667 3.0002C17.1468 2.60009 17.1468 2.60009 17.1468 2.60009L17.1478 2.60123L17.1488 2.60252L17.1513 2.60553L17.1576 2.61326C17.1623 2.61917 17.1682 2.62661 17.1751 2.6356C17.189 2.65358 17.2072 2.67775 17.229 2.70822C17.2725 2.76917 17.3305 2.85533 17.3979 2.96771C17.5328 3.19255 17.7052 3.52186 17.875 3.96334C18.2152 4.84781 18.5417 6.1739 18.5417 8.0002C18.5417 9.82651 18.2152 11.1526 17.875 12.0371C17.7052 12.4785 17.5328 12.8079 17.3979 13.0327C17.3305 13.1451 17.2725 13.2312 17.229 13.2922C17.2072 13.3227 17.189 13.3468 17.1751 13.3648C17.171 13.3702 17.1672 13.375 17.1638 13.3793C17.1616 13.3821 17.1595 13.3848 17.1576 13.3872L17.1513 13.3949L17.1488 13.3979L17.1478 13.3992C17.1478 13.3992 17.1468 13.4003 16.6667 13.0002L17.1468 13.4003C16.9258 13.6655 16.5317 13.7013 16.2666 13.4803C16.0027 13.2604 15.9659 12.869 16.1834 12.6039M16.1834 12.6039C16.1834 12.6039 16.1848 12.602 16.1863 12.6002C16.1907 12.5945 16.1994 12.583 16.2118 12.5656C16.2366 12.5309 16.2763 12.4725 16.326 12.3896C16.4255 12.2238 16.5656 11.9594 16.7083 11.5883C16.9931 10.8478 17.2917 9.6739 17.2917 8.0002C17.2917 6.32651 16.9931 5.15259 16.7083 4.41207C16.5656 4.04105 16.4255 3.7766 16.326 3.61083C16.2763 3.52789 16.2366 3.46952 16.2118 3.43477C16.1994 3.41739 16.1907 3.4059 16.1863 3.4002C16.1848 3.39836 16.1834 3.39648 16.1834 3.39648L16.1863 3.4002L16.185 3.39843L16.1834 3.39648C15.9659 3.13135 16.0027 2.73998 16.2666 2.52006M14.6965 4.95386C14.9982 4.78622 15.3787 4.89494 15.5463 5.19668L15.023 5.48742C15.5464 5.19668 15.5463 5.19668 15.5463 5.19668L15.547 5.19777L15.5476 5.19893L15.549 5.20147L15.5522 5.2074L15.5602 5.22269C15.5663 5.23442 15.5737 5.24922 15.5822 5.26714C15.5993 5.30299 15.6209 5.35133 15.6454 5.41262C15.6945 5.53525 15.7549 5.70937 15.8137 5.93872C15.9315 6.39783 16.0417 7.07511 16.0417 8.0002C16.0417 8.9253 15.9315 9.60257 15.8137 10.0617C15.7549 10.291 15.6945 10.4652 15.6454 10.5878C15.6209 10.6491 15.5993 10.6974 15.5822 10.7333C15.5737 10.7512 15.5663 10.766 15.5602 10.7777L15.5522 10.793L15.549 10.7989L15.5476 10.8015L15.547 10.8026C15.547 10.8026 15.5464 10.8037 15.023 10.513L15.5463 10.8037C15.3787 11.1055 14.9982 11.2142 14.6965 11.0466C14.3973 10.8803 14.2879 10.5049 14.4494 10.2044L14.4536 10.1959C14.4593 10.1839 14.4703 10.1599 14.4848 10.1236C14.5139 10.0509 14.5576 9.92812 14.6029 9.75122C14.6935 9.39783 14.7917 8.82511 14.7917 8.0002C14.7917 7.1753 14.6935 6.60257 14.6029 6.24919C14.5576 6.07229 14.5139 5.94953 14.4848 5.87685C14.4703 5.84049 14.4593 5.81655 14.4536 5.80456L14.4494 5.79602C14.2879 5.49554 14.3973 5.12006 14.6965 4.95386Z" fill="#8F93A3"/>
</svg>
