<svg width="25" height="25" viewBox="0 0 25 25" fill="none" xmlns="http://www.w3.org/2000/svg">
<g clip-path="url(#clip0_28_38044)">
<path d="M19.6657 2.86424C19.8788 2.50906 20.3395 2.39388 20.6947 2.60699L20.3088 3.25011C20.6947 2.60699 20.6944 2.60679 20.6947 2.60699L20.6961 2.60783L20.6977 2.60878L20.7014 2.61103L20.711 2.61695C20.7183 2.62153 20.7276 2.62737 20.7386 2.63448C20.7606 2.64871 20.7897 2.66809 20.8249 2.69272C20.8952 2.74194 20.9902 2.81244 21.1015 2.9052C21.3236 3.09029 21.614 3.36678 21.9033 3.74283C22.4862 4.50057 23.0588 5.65746 23.0588 7.25011C23.0588 8.84277 22.4862 9.99966 21.9033 10.7574C21.614 11.1334 21.3236 11.4099 21.1015 11.595C20.9902 11.6878 20.8952 11.7583 20.8249 11.8075C20.7897 11.8321 20.7606 11.8515 20.7386 11.8657C20.7276 11.8729 20.7183 11.8787 20.711 11.8833L20.7014 11.8892L20.6977 11.8914L20.6961 11.8924C20.6958 11.8926 20.6947 11.8932 20.3088 11.2501L20.6947 11.8932C20.3395 12.1063 19.8788 11.9912 19.6657 11.636C19.4535 11.2823 19.5668 10.824 19.9185 10.6097L19.924 10.6062C19.9313 10.6014 19.9452 10.5923 19.9647 10.5787C20.0037 10.5513 20.065 10.5062 20.1412 10.4427C20.2941 10.3153 20.5036 10.1168 20.7144 9.84283C21.1315 9.30057 21.5588 8.45746 21.5588 7.25011C21.5588 6.04277 21.1315 5.19966 20.7144 4.6574C20.5036 4.38345 20.2941 4.18494 20.1412 4.05753C20.065 3.99403 20.0037 3.94891 19.9647 3.92157C19.9452 3.90792 19.9313 3.89878 19.924 3.89406L19.9185 3.89053C19.5668 3.67625 19.4535 3.21793 19.6657 2.86424Z" fill="#5E6272"/>
<path fill-rule="evenodd" clip-rule="evenodd" d="M11.3088 2.50011C8.68548 2.50011 6.55883 4.62676 6.55883 7.25011C6.55883 9.87347 8.68548 12.0001 11.3088 12.0001C13.9322 12.0001 16.0588 9.87347 16.0588 7.25011C16.0588 4.62676 13.9322 2.50011 11.3088 2.50011ZM8.05883 7.25011C8.05883 5.45519 9.51391 4.00011 11.3088 4.00011C13.1038 4.00011 14.5588 5.45519 14.5588 7.25011C14.5588 9.04504 13.1038 10.5001 11.3088 10.5001C9.51391 10.5001 8.05883 9.04504 8.05883 7.25011Z" fill="#5E6272"/>
<path fill-rule="evenodd" clip-rule="evenodd" d="M11.3088 13.5001C8.99528 13.5001 6.86376 14.026 5.28428 14.9145C3.72832 15.7897 2.55883 17.1162 2.55883 18.7501L2.55877 18.8521C2.55764 20.0139 2.55622 21.4721 3.83525 22.5137C4.46472 23.0263 5.34531 23.3908 6.53504 23.6316C7.7281 23.8731 9.28306 24.0001 11.3088 24.0001C13.3346 24.0001 14.8896 23.8731 16.0826 23.6316C17.2724 23.3908 18.153 23.0263 18.7824 22.5137C20.0614 21.4721 20.06 20.0139 20.0589 18.8521L20.0588 18.7501C20.0588 17.1162 18.8894 15.7897 17.3334 14.9145C15.7539 14.026 13.6224 13.5001 11.3088 13.5001ZM4.05883 18.7501C4.05883 17.8988 4.68021 16.9753 6.01968 16.2218C7.33563 15.4816 9.20411 15.0001 11.3088 15.0001C13.4136 15.0001 15.282 15.4816 16.598 16.2218C17.9375 16.9753 18.5588 17.8988 18.5588 18.7501C18.5588 20.0579 18.5185 20.7941 17.8352 21.3505C17.4647 21.6523 16.8453 21.9468 15.785 22.1614C14.7281 22.3753 13.2831 22.5001 11.3088 22.5001C9.33461 22.5001 7.88957 22.3753 6.83263 22.1614C5.77236 21.9468 5.15295 21.6523 4.78242 21.3505C4.09915 20.7941 4.05883 20.0579 4.05883 18.7501Z" fill="#5E6272"/>
<path d="M18.6947 4.60699C18.3395 4.39388 17.8788 4.50906 17.6657 4.86424L17.9139 5.88774L17.9217 5.89305C17.9334 5.90125 17.9556 5.91747 17.9849 5.9419C18.0441 5.99119 18.1286 6.07095 18.2144 6.1824C18.3815 6.39966 18.5588 6.74277 18.5588 7.25011C18.5588 7.75746 18.3815 8.10057 18.2144 8.31783C18.1286 8.42928 18.0441 8.50904 17.9849 8.55832C17.9556 8.58276 17.9334 8.59897 17.9217 8.60717L17.9139 8.61249C17.5658 8.82794 17.4544 9.28382 17.6657 9.63599C17.8788 9.99117 18.3395 10.1063 18.6947 9.89323L18.3088 9.25011C18.6947 9.89323 18.6944 9.89343 18.6947 9.89323L18.696 9.89243L18.6975 9.89156L18.7006 9.88963L18.7081 9.88504L18.7273 9.87282C18.742 9.86333 18.7604 9.85108 18.7819 9.83602C18.8249 9.80594 18.8808 9.76435 18.9452 9.71065C19.0736 9.60369 19.239 9.44594 19.4033 9.2324C19.7362 8.79966 20.0588 8.14277 20.0588 7.25011C20.0588 6.35746 19.7362 5.70057 19.4033 5.26783C19.239 5.05428 19.0736 4.89654 18.9452 4.78957C18.8808 4.73588 18.8249 4.69428 18.7819 4.6642C18.7604 4.64914 18.742 4.6369 18.7273 4.6274L18.7081 4.61519L18.7006 4.61059L18.6975 4.60867L18.696 4.6078C18.6957 4.6076 18.6947 4.60699 18.3088 5.25011L18.6947 4.60699Z" fill="#5E6272"/>
</g>
<defs>
<clipPath id="clip0_28_38044">
<rect x="0.558594" y="0.5" width="24" height="24" rx="4.8" fill="white"/>
</clipPath>
</defs>
</svg>
