<svg width="22" height="23" viewBox="0 0 22 23" fill="none" xmlns="http://www.w3.org/2000/svg">
<path d="M3.27312 19.2276C4.02767 19.9821 5.24585 19.9821 6.0004 19.2276L17.8186 7.40939C18.5731 6.65485 18.5731 5.43667 17.8186 4.68212C17.064 3.92757 15.8459 3.92757 15.0913 4.68212L3.27312 16.5003C2.51858 17.2548 2.51858 18.473 3.27312 19.2276Z" stroke="#8F93A3" stroke-width="1.36364" stroke-linecap="round" stroke-linejoin="round"/>
<path d="M16.4634 8.76389L13.7361 6.03662" stroke="#8F93A3" stroke-width="1.36364" stroke-linecap="round" stroke-linejoin="round"/>
<path d="M7.81817 2.80918L9.1818 2.40918L8.7818 3.77282L9.1818 5.13645L7.81817 4.73645L6.45453 5.13645L6.85453 3.77282L6.45453 2.40918L7.81817 2.80918Z" stroke="#8F93A3" stroke-width="0.909091" stroke-linecap="round" stroke-linejoin="round"/>
<path d="M4.18181 8.26377L5.54545 7.86377L5.14545 9.22741L5.54545 10.591L4.18181 10.191L2.81818 10.591L3.21818 9.22741L2.81818 7.86377L4.18181 8.26377Z" stroke="#8F93A3" stroke-width="0.909091" stroke-linecap="round" stroke-linejoin="round"/>
<path d="M17.8182 12.8092L19.1818 12.4092L18.7818 13.7728L19.1818 15.1365L17.8182 14.7365L16.4545 15.1365L16.8545 13.7728L16.4545 12.4092L17.8182 12.8092Z" stroke="#8F93A3" stroke-width="0.909091" stroke-linecap="round" stroke-linejoin="round"/>
</svg>
