<svg width="22" height="23" viewBox="0 0 22 23" fill="none" xmlns="http://www.w3.org/2000/svg">
<path fill-rule="evenodd" clip-rule="evenodd" d="M10.9589 21.2729H11.0411C12.7107 21.273 14.0194 21.273 15.0577 21.1605C16.1173 21.0457 16.9758 20.8072 17.7089 20.2746C18.1526 19.9522 18.5429 19.562 18.8653 19.1182C19.3979 18.3852 19.6363 17.5266 19.7511 16.4671C19.8636 15.4288 19.8636 14.12 19.8636 12.4505V10.55C19.8636 8.88041 19.8636 7.57168 19.7511 6.53338C19.6363 5.4738 19.3979 4.61527 18.8653 3.88225C18.5429 3.43848 18.1526 3.04823 17.7089 2.72581C16.9758 2.19324 16.1173 1.95477 15.0577 1.83997C14.0194 1.72748 12.7107 1.72749 11.0411 1.72749H10.9588C9.28927 1.72749 7.98054 1.72748 6.94224 1.83997C5.88266 1.95477 5.02413 2.19324 4.29111 2.72581C3.84734 3.04823 3.45709 3.43848 3.13467 3.88225C2.6021 4.61527 2.36363 5.4738 2.24883 6.53338C2.13634 7.57169 2.13635 8.88042 2.13635 10.55V12.4504C2.13635 14.12 2.13634 15.4288 2.24883 16.4671C2.36363 17.5266 2.6021 18.3852 3.13467 19.1182C3.45709 19.562 3.84734 19.9522 4.29111 20.2746C5.02413 20.8072 5.88266 21.0457 6.94224 21.1605C7.98055 21.273 9.28928 21.273 10.9589 21.2729ZM7.08912 19.8048C6.14557 19.7025 5.55446 19.507 5.09264 19.1714C4.76463 18.9331 4.47619 18.6447 4.23788 18.3167C3.90234 17.8548 3.70676 17.2637 3.60454 16.3202C3.50093 15.3639 3.49999 14.1289 3.49999 12.4093V10.5911C3.49999 8.87152 3.50093 7.63658 3.60454 6.68026C3.70676 5.7367 3.90234 5.1456 4.23788 4.68378C4.47619 4.35577 4.76464 4.06732 5.09264 3.82902C5.55446 3.49348 6.14557 3.2979 7.08912 3.19567C8.04544 3.09207 9.28038 3.09113 11 3.09113C12.7196 3.09113 13.9545 3.09207 14.9109 3.19567C15.8544 3.2979 16.4455 3.49348 16.9073 3.82902C17.2353 4.06733 17.5238 4.35577 17.7621 4.68378C18.0976 5.1456 18.2932 5.7367 18.3954 6.68026C18.4991 7.63658 18.5 8.87152 18.5 10.5911V12.4093C18.5 14.1289 18.4991 15.3639 18.3954 16.3202C18.2932 17.2637 18.0976 17.8548 17.7621 18.3167C17.5238 18.6447 17.2353 18.9331 16.9073 19.1714C16.4455 19.507 15.8544 19.7025 14.9109 19.8048C13.9545 19.9084 12.7196 19.9093 11 19.9093C9.28038 19.9093 8.04544 19.9084 7.08912 19.8048ZM5.77272 14.2275C5.77272 14.6041 6.07798 14.9093 6.45454 14.9093H15.5454C15.922 14.9093 16.2273 14.6041 16.2273 14.2275C16.2273 13.8509 15.922 13.5457 15.5454 13.5457H6.45454C6.07798 13.5457 5.77272 13.8509 5.77272 14.2275Z" fill="#8F93A3"/>
</svg>
