<svg width="22" height="23" viewBox="0 0 22 23" fill="none" xmlns="http://www.w3.org/2000/svg">
<path d="M20.0909 8.77282V14.2274C20.0909 14.4365 20.0909 14.6364 20.0728 14.8364C20.0364 14.7819 19.9909 14.7274 19.9455 14.6819C19.9364 14.6728 19.9273 14.6547 19.9182 14.6456C19.1818 13.8274 18.1 13.3183 16.9091 13.3183C15.7637 13.3183 14.7182 13.791 13.9728 14.5546C13.2546 15.291 12.8182 16.3001 12.8182 17.4092C12.8182 18.1728 13.0364 18.9001 13.4091 19.5183C13.6091 19.8546 13.8637 20.1637 14.1546 20.4183C14.1728 20.4274 14.1818 20.4365 14.1909 20.4456C14.2364 20.491 14.2818 20.5273 14.3364 20.5728C14.1455 20.591 13.9364 20.591 13.7273 20.591H8.27275C3.7273 20.591 1.90912 18.7728 1.90912 14.2274V8.77282C1.90912 4.22736 3.7273 2.40918 8.27275 2.40918H13.7273C18.2728 2.40918 20.0909 4.22736 20.0909 8.77282Z" stroke="#8F93A3" stroke-width="1.36364" stroke-linecap="round" stroke-linejoin="round"/>
<path d="M2.38184 7.0542H19.6182" stroke="#8F93A3" stroke-width="1.36364" stroke-linecap="round" stroke-linejoin="round"/>
<path d="M7.83636 2.50879V6.92696" stroke="#8F93A3" stroke-width="1.36364" stroke-linecap="round" stroke-linejoin="round"/>
<path d="M14.1636 2.50879V6.51791" stroke="#8F93A3" stroke-width="1.36364" stroke-linecap="round" stroke-linejoin="round"/>
<path d="M21 17.4093C21 17.7365 20.9636 18.0547 20.8818 18.3638C20.7818 18.7729 20.6182 19.1638 20.4091 19.5184C19.7 20.7002 18.4 21.5002 16.9091 21.5002C15.9273 21.5002 15.0364 21.1547 14.3454 20.5729C14.3364 20.5729 14.3364 20.5729 14.3364 20.5729C14.2818 20.5274 14.2364 20.4911 14.1909 20.4457C14.1818 20.4366 14.1727 20.4274 14.1545 20.4184C13.8636 20.1638 13.6091 19.8547 13.4091 19.5184C13.0364 18.9002 12.8182 18.1729 12.8182 17.4093C12.8182 16.3002 13.2545 15.2911 13.9727 14.5547C14.7182 13.7911 15.7636 13.3184 16.9091 13.3184C18.1 13.3184 19.1818 13.8275 19.9182 14.6457C19.9273 14.6547 19.9364 14.6729 19.9454 14.682C19.9909 14.7275 20.0364 14.782 20.0727 14.8365C20.6545 15.5365 21 16.4365 21 17.4093Z" stroke="#8F93A3" stroke-width="1.36364" stroke-miterlimit="10" stroke-linecap="round" stroke-linejoin="round"/>
<path d="M18.3101 18.4832L17.0138 19.231C16.7396 19.3868 16.4717 19.4678 16.2224 19.4678C16.0354 19.4678 15.8672 19.4242 15.7114 19.3369C15.3499 19.1313 15.1505 18.7075 15.1505 18.1591V16.6635C15.1505 16.1151 15.3499 15.6913 15.7114 15.4857C16.0728 15.2738 16.534 15.3112 17.0138 15.5916L18.3101 16.3394C18.7899 16.6136 19.0516 17 19.0516 17.4175C19.0516 17.8351 18.7837 18.2027 18.3101 18.4832Z" fill="#8F93A3"/>
</svg>
