<svg width="22" height="23" viewBox="0 0 22 23" fill="none" xmlns="http://www.w3.org/2000/svg">
<path d="M13.7272 19.9092H8.27269C6.06721 19.9092 4.70075 19.4639 3.86845 18.6316C3.03615 17.7993 2.59088 16.4328 2.59088 14.2274V8.77282C2.59088 6.56734 3.03615 5.20087 3.86845 4.36857C4.70075 3.53627 6.06721 3.091 8.27269 3.091H13.7272C15.9327 3.091 17.2992 3.53627 18.1315 4.36857C18.9638 5.20087 19.4091 6.56734 19.4091 8.77282V14.2274C19.4091 16.4328 18.9638 17.7993 18.1315 18.6316C17.2992 19.4639 15.9327 19.9092 13.7272 19.9092Z" stroke="#8F93A3" stroke-width="1.36364" stroke-linecap="round" stroke-linejoin="round"/>
<path d="M8.27277 9.68177C9.27693 9.68177 10.091 8.86775 10.091 7.86359C10.091 6.85944 9.27693 6.04541 8.27277 6.04541C7.26862 6.04541 6.45459 6.85944 6.45459 7.86359C6.45459 8.86775 7.26862 9.68177 8.27277 9.68177Z" stroke="#8F93A3" stroke-width="1.36364" stroke-linecap="round" stroke-linejoin="round"/>
<path d="M3.72729 17.8636L7.66888 14.834C8.3005 14.3489 9.21194 14.4038 9.77959 14.9621L10.0434 15.2276C10.667 15.8408 11.6744 15.8408 12.2981 15.2276L15.624 11.9599C16.2476 11.3467 17.255 11.3467 17.8786 11.9599L19.1818 13.2414" stroke="#8F93A3" stroke-width="1.36364" stroke-linecap="round" stroke-linejoin="round"/>
</svg>
