<svg width="25" height="25" viewBox="0 0 25 25" fill="none" xmlns="http://www.w3.org/2000/svg">
<path d="M20.6944 9.69461C20.2455 9.69461 19.8887 10.0514 19.8887 10.5002V12.3187C19.8887 16.3928 16.5742 19.7074 12.5 19.7074C8.42583 19.7074 5.11125 16.3928 5.11125 12.3187V10.4887C5.11125 10.0399 4.75448 9.68311 4.30563 9.68311C3.85678 9.68311 3.5 10.0399 3.5 10.4887V12.3071C3.5 16.9913 7.1023 20.8468 11.6944 21.2611V23.7125C11.6944 24.1614 12.0512 24.5181 12.5 24.5181C12.9488 24.5181 13.3056 24.1614 13.3056 23.7125V21.2611C17.8862 20.8583 21.5 16.9913 21.5 12.3071V10.4887C21.4885 10.0514 21.1317 9.69461 20.6944 9.69461Z" fill="#0E78F9"/>
<path d="M12.5 1.5C9.69186 1.5 7.41309 3.77877 7.41309 6.58696V12.4795C7.41309 15.2877 9.69186 17.5665 12.5 17.5665C15.3082 17.5665 17.587 15.2877 17.587 12.4795V6.58696C17.587 3.77877 15.3082 1.5 12.5 1.5ZM14.0077 9.49872C13.9272 9.79795 13.6624 9.99361 13.3632 9.99361C13.3057 9.99361 13.2481 9.9821 13.1906 9.97059C12.7417 9.84399 12.2699 9.84399 11.821 9.97059C11.4527 10.0742 11.096 9.8555 11.0039 9.49872C10.9003 9.14194 11.119 8.77366 11.4757 8.68159C12.1548 8.49744 12.8683 8.49744 13.5474 8.68159C13.8926 8.77366 14.0998 9.14194 14.0077 9.49872ZM14.6177 7.26599C14.5141 7.5422 14.2609 7.70333 13.9847 7.70333C13.9041 7.70333 13.8351 7.69182 13.7545 7.6688C12.9489 7.36957 12.0512 7.36957 11.2456 7.6688C10.9003 7.7954 10.509 7.61125 10.3824 7.26599C10.2558 6.92072 10.4399 6.52941 10.7852 6.41432C11.8901 6.01151 13.11 6.01151 14.2149 6.41432C14.5601 6.54092 14.7443 6.92072 14.6177 7.26599Z" fill="#0E78F9"/>
</svg>
