<svg width="25" height="25" viewBox="0 0 25 25" fill="none" xmlns="http://www.w3.org/2000/svg">
<path d="M22.2116 6.50343C21.7898 6.27714 20.9053 6.04057 19.7018 6.884L18.1898 7.95371C18.0767 4.75486 16.6881 3.5 13.3144 3.5H7.14293C3.62521 3.5 2.2572 4.868 2.2572 8.38571V16.6143C2.2572 18.98 3.54292 21.5 7.14293 21.5H13.3144C16.6881 21.5 18.0767 20.2451 18.1898 17.0463L19.7018 18.116C20.3395 18.5686 20.895 18.7126 21.3373 18.7126C21.7178 18.7126 22.0161 18.5994 22.2116 18.4966C22.6333 18.2806 23.343 17.6943 23.343 16.2234V8.77657C23.343 7.30571 22.6333 6.71943 22.2116 6.50343ZM11.7715 11.8623C10.7121 11.8623 9.8378 10.9983 9.8378 9.92857C9.8378 8.85886 10.7121 7.99486 11.7715 7.99486C12.831 7.99486 13.7052 8.85886 13.7052 9.92857C13.7052 10.9983 12.831 11.8623 11.7715 11.8623Z" fill="#0E78F9"/>
</svg>
