<svg width="25" height="25" viewBox="0 0 25 25" fill="none" xmlns="http://www.w3.org/2000/svg">
<path d="M17.2127 10.9277V12.4747C17.2127 15.2272 14.8442 17.4356 12.0277 17.1689C11.7289 17.1369 11.4302 17.0836 11.1528 16.9876L17.2127 10.9277Z" fill="#8F93A3"/>
<path d="M12.5473 1.45312C9.73594 1.45312 7.45459 3.73448 7.45459 6.54584V12.4451C7.45459 13.9613 8.1181 15.3233 9.17042 16.2564C12.5473 13.2344 14.2641 11.2351 17.64 7.843V6.54584C17.64 3.73448 15.3587 1.45312 12.5473 1.45312ZM14.0567 9.46091C13.976 9.76048 13.711 9.95635 13.4115 9.95635C13.3538 9.95635 13.2962 9.94483 13.2386 9.93331C12.7893 9.80657 12.3169 9.80657 11.8675 9.93331C11.4988 10.037 11.1416 9.81809 11.0494 9.46091C10.9458 9.10372 11.1647 8.73502 11.5219 8.64284C12.2016 8.45849 12.916 8.45849 13.5958 8.64284C13.9415 8.73502 14.1489 9.10372 14.0567 9.46091ZM14.6674 7.22564C14.5637 7.50217 14.3102 7.66348 14.0336 7.66348C13.953 7.66348 13.8839 7.65195 13.8032 7.62891C12.9967 7.32934 12.098 7.32934 11.2914 7.62891C10.9458 7.75565 10.554 7.5713 10.4273 7.22564C10.3005 6.87998 10.4849 6.48823 10.8305 6.37301C11.9366 5.96974 13.158 5.96974 14.2641 6.37301C14.6097 6.49976 14.7941 6.87998 14.6674 7.22564Z" fill="#8F93A3"/>
<path d="M21.5 10.4515V12.284C21.5 16.9747 17.8929 20.8356 13.3062 21.2389V23.6938C13.3062 24.1433 12.949 24.5005 12.4995 24.5005C12.0501 24.5005 11.6928 24.1433 11.6928 23.6938V21.2389C10.4367 21.1237 9.24969 20.7549 8.18945 20.1671L9.37645 18.98C10.3214 19.418 11.3817 19.6715 12.4995 19.6715C16.5791 19.6715 19.8981 16.3523 19.8981 12.284V10.4515C19.8981 10.0135 20.2554 9.65625 20.7048 9.65625C21.1427 9.65625 21.5 10.0135 21.5 10.4515Z" fill="#8F93A3"/>
<path d="M5.10188 12.284C5.10188 14.1856 5.81638 15.9144 7.00338 17.2167L5.86248 18.3577C4.39889 16.7557 3.5 14.6236 3.5 12.284V10.4515C3.5 10.0135 3.85725 9.65625 4.29518 9.65625C4.74462 9.65625 5.10188 10.0135 5.10188 10.4515V12.284Z" fill="#8F93A3"/>
<path d="M19.9204 3.70499C20.1904 3.43492 20.6315 3.43492 20.9016 3.70499C21.1806 3.97506 21.1806 4.40717 20.9016 4.67724L4.28455 21.2954C4.14952 21.4304 3.97849 21.5024 3.79846 21.5024C3.61842 21.5024 3.44739 21.4304 3.30337 21.3044C3.03332 21.0343 3.03332 20.5932 3.30337 20.3231L19.9204 3.70499Z" fill="#FF0000"/>
</svg>
