<svg width="25" height="25" viewBox="0 0 25 25" fill="none" xmlns="http://www.w3.org/2000/svg">
<path d="M17.9286 6.89129C17.5496 4.47361 16.115 3.5 13.1401 3.5H6.95533C3.43003 3.5 2.05908 4.87095 2.05908 8.39623V16.6425C2.05908 18.2918 2.68264 20.0159 4.27679 20.9126C11.5939 13.5898 13.5318 11.1471 17.9286 6.89129ZM11.5939 11.8803C10.5322 11.8803 9.656 11.0144 9.656 9.94241C9.656 8.8704 10.5322 8.00454 11.5939 8.00454C12.6556 8.00454 13.5318 8.8704 13.5318 9.94241C13.5318 11.0144 12.6556 11.8803 11.5939 11.8803Z" fill="#8F93A3"/>
<path d="M23.1909 8.75011V16.2126C23.1909 17.6865 22.4694 18.274 22.0571 18.4905C21.8613 18.5936 21.5521 18.7069 21.1707 18.7069C20.7275 18.7069 20.1812 18.5626 19.5421 18.1091L18.0167 17.0372C17.9445 19.3151 17.223 20.6138 15.5842 21.1601C14.9245 21.3971 14.1102 21.5002 13.131 21.5002H6.94666C6.69929 21.5002 6.46222 21.4899 6.21484 21.459L15.5842 12.1L21.4078 6.27637C21.6757 6.29698 21.8922 6.37944 22.0571 6.47221C22.4694 6.68866 23.1909 7.27617 23.1909 8.75011Z" fill="#8F93A3"/>
<path d="M19.9703 3.06541C20.2704 2.76531 20.7606 2.76531 21.0607 3.06541C21.3708 3.36552 21.3708 3.84569 21.0607 4.1458L2.59404 22.6124C2.44398 22.7625 2.25392 22.8425 2.05384 22.8425C1.85377 22.8425 1.6637 22.7625 1.50365 22.6224C1.20354 22.3223 1.20354 21.8322 1.50365 21.5321L19.9703 3.06541Z" fill="#FF0000"/>
</svg>
